<svg width="1257" height="625" viewBox="0 0 1257 625" fill="none" xmlns="http://www.w3.org/2000/svg">
<g clip-path="url(#clip0_252_250)">
<rect width="1256.72" height="625" fill="white"/>
<rect x="50" y="85" width="1157" height="515" rx="36" fill="#FBF9FF"/>
<path d="M952.514 72.7098C1056.33 62.3037 1057.12 19.2341 1044.54 -1H1257.72V623.366H726C809.055 597.35 809.37 544.597 799.145 521.473C767.056 441.693 804.744 389.861 855.774 376.221C959.592 348.471 970.05 287.207 926.559 248.313C784.988 121.705 884.874 78.491 952.514 72.7098Z" fill="url(#paint0_linear_252_250)"/>
<path d="M1015.46 516.298C1015.46 516.681 1014.67 517.011 1013.51 517.185C1013.22 517.23 1012.96 517.365 1012.75 517.571C1012.54 517.777 1012.41 518.044 1012.36 518.332C1012.19 519.497 1011.84 520.279 1011.48 520.279C1011.11 520.279 1010.76 519.497 1010.59 518.332C1010.55 518.044 1010.41 517.777 1010.2 517.571C1010 517.365 1009.73 517.23 1009.44 517.185C1008.28 517.011 1007.5 516.664 1007.5 516.298C1007.5 515.933 1008.28 515.586 1009.44 515.412C1009.73 515.367 1010 515.232 1010.2 515.026C1010.41 514.82 1010.55 514.553 1010.59 514.265C1010.76 513.1 1011.11 512.318 1011.48 512.318C1011.84 512.318 1012.19 513.1 1012.36 514.265C1012.41 514.553 1012.54 514.82 1012.75 515.026C1012.96 515.232 1013.22 515.367 1013.51 515.412C1014.67 515.516 1015.46 515.916 1015.46 516.298Z" fill="white"/>
<path d="M1189.71 455.531C1189.63 455.948 1188.69 456.122 1187.38 456.035C1187.06 456.016 1186.74 456.101 1186.47 456.276C1186.2 456.451 1185.99 456.707 1185.87 457.008C1185.38 458.225 1184.85 458.99 1184.43 458.903C1184.01 458.816 1183.84 457.877 1183.92 456.574C1183.94 456.251 1183.86 455.931 1183.68 455.659C1183.51 455.388 1183.25 455.178 1182.95 455.061C1181.73 454.575 1180.95 454.036 1181.06 453.619C1181.16 453.201 1182.08 453.028 1183.39 453.115C1183.71 453.133 1184.03 453.048 1184.3 452.874C1184.57 452.699 1184.78 452.442 1184.9 452.141C1185.38 450.924 1185.92 450.142 1186.34 450.246C1186.76 450.351 1186.93 451.272 1186.84 452.576C1186.83 452.898 1186.91 453.218 1187.09 453.49C1187.26 453.762 1187.52 453.971 1187.82 454.088C1189.05 454.557 1189.82 455.113 1189.71 455.531Z" fill="white"/>
<path d="M1216.5 315.136C1216.5 315.64 1215.47 316.074 1213.94 316.3C1213.56 316.351 1213.21 316.524 1212.94 316.794C1212.67 317.065 1212.5 317.416 1212.45 317.795C1212.2 319.325 1211.77 320.35 1211.28 320.35C1210.8 320.35 1210.34 319.325 1210.12 317.795C1210.07 317.416 1209.89 317.065 1209.62 316.794C1209.35 316.524 1209 316.351 1208.62 316.3C1207.09 316.057 1206.07 315.623 1206.07 315.136C1206.07 314.649 1207.09 314.197 1208.62 313.954C1209 313.904 1209.35 313.73 1209.62 313.46C1209.89 313.19 1210.07 312.838 1210.12 312.459C1210.36 310.929 1210.8 309.904 1211.28 309.904C1211.77 309.904 1212.22 310.929 1212.45 312.459C1212.5 312.838 1212.67 313.19 1212.94 313.46C1213.21 313.73 1213.56 313.904 1213.94 313.954C1215.4 314.197 1216.5 314.632 1216.5 315.136Z" fill="white"/>
<path d="M1181.7 391.026C1182.5 391.026 1183.16 390.372 1183.16 389.566C1183.16 388.759 1182.5 388.105 1181.7 388.105C1180.89 388.105 1180.24 388.759 1180.24 389.566C1180.24 390.372 1180.89 391.026 1181.7 391.026Z" fill="white"/>
<path d="M1189.17 492.94C1189.76 492.461 1189.85 491.596 1189.37 491.008C1188.89 490.42 1188.02 490.332 1187.44 490.812C1186.85 491.291 1186.76 492.156 1187.24 492.744C1187.72 493.332 1188.58 493.419 1189.17 492.94Z" fill="white"/>
<path d="M1145.36 486.578C1145.84 485.75 1145.56 484.685 1144.74 484.199C1143.91 483.714 1142.84 483.992 1142.36 484.82C1141.87 485.648 1142.15 486.713 1142.98 487.198C1143.81 487.684 1144.87 487.406 1145.36 486.578Z" fill="white"/>
<path d="M1008.62 352.301C1009.75 352.174 1010.57 351.151 1010.44 350.015C1010.32 348.88 1009.29 348.063 1008.16 348.19C1007.02 348.317 1006.2 349.34 1006.33 350.475C1006.46 351.61 1007.48 352.428 1008.62 352.301Z" fill="white"/>
<path d="M1187.89 288.767C1188.69 288.767 1189.35 288.114 1189.35 287.307C1189.35 286.501 1188.69 285.847 1187.89 285.847C1187.08 285.847 1186.43 286.501 1186.43 287.307C1186.43 288.114 1187.08 288.767 1187.89 288.767Z" fill="white"/>
<path d="M1044.17 294.598C1045.3 294.471 1046.12 293.448 1045.99 292.313C1045.87 291.177 1044.84 290.36 1043.71 290.487C1042.57 290.614 1041.76 291.637 1041.88 292.772C1042.01 293.908 1043.03 294.725 1044.17 294.598Z" fill="white"/>
<path d="M999.239 503.453C1000.15 503.453 1000.89 502.714 1000.89 501.802C1000.89 500.89 1000.15 500.151 999.239 500.151C998.327 500.151 997.588 500.89 997.588 501.802C997.588 502.714 998.327 503.453 999.239 503.453Z" fill="white"/>
<path d="M1211.32 371.106C1211.73 371.106 1212.07 370.771 1212.07 370.358C1212.07 369.946 1211.73 369.611 1211.32 369.611C1210.9 369.611 1210.57 369.946 1210.57 370.358C1210.57 370.771 1210.9 371.106 1211.32 371.106Z" fill="white"/>
<path d="M1147.99 527.662C1148.37 527.353 1148.43 526.795 1148.12 526.415C1147.81 526.036 1147.25 525.979 1146.87 526.288C1146.49 526.598 1146.44 527.156 1146.75 527.536C1147.06 527.915 1147.61 527.972 1147.99 527.662Z" fill="white"/>
<path d="M1059.63 330.987C1060.21 330.922 1060.63 330.397 1060.56 329.815C1060.5 329.233 1059.97 328.814 1059.39 328.879C1058.81 328.944 1058.39 329.469 1058.45 330.051C1058.52 330.633 1059.04 331.052 1059.63 330.987Z" fill="white"/>
<path d="M1022.51 375.405C1023.09 375.375 1023.54 374.877 1023.51 374.292C1023.48 373.708 1022.99 373.257 1022.4 373.287C1021.82 373.316 1021.37 373.814 1021.4 374.399C1021.42 374.984 1021.92 375.434 1022.51 375.405Z" fill="white"/>
<path d="M1014.72 445.467C1014.72 444.997 1014.34 444.615 1013.87 444.614C1013.4 444.613 1013.02 444.994 1013.02 445.464C1013.02 445.935 1013.4 446.317 1013.87 446.318C1014.34 446.318 1014.72 445.938 1014.72 445.467Z" fill="white"/>
<path d="M999.542 430.603C999.637 429.662 998.952 428.822 998.011 428.727C997.07 428.632 996.23 429.318 996.135 430.258C996.04 431.199 996.726 432.039 997.667 432.134C998.607 432.229 999.447 431.543 999.542 430.603Z" fill="white"/>
<path d="M1136.1 409.051C1135.89 409.051 1135.69 408.967 1135.54 408.817C1135.39 408.667 1135.3 408.464 1135.3 408.252V374.339C1135.33 374.149 1135.43 373.976 1135.57 373.851C1135.72 373.726 1135.9 373.657 1136.1 373.657C1136.29 373.657 1136.47 373.726 1136.62 373.851C1136.76 373.976 1136.86 374.149 1136.89 374.339V408.269C1136.88 408.475 1136.8 408.671 1136.65 408.817C1136.51 408.963 1136.31 409.047 1136.1 409.051Z" fill="#371A45"/>
<path d="M1132.89 407.643C1132.7 407.642 1132.52 407.575 1132.38 407.455C1132.24 407.334 1132.14 407.167 1132.11 406.983L1123.95 357.513C1123.95 357.319 1124.01 357.129 1124.13 356.978C1124.26 356.828 1124.43 356.727 1124.62 356.695C1124.81 356.663 1125.01 356.702 1125.18 356.805C1125.34 356.907 1125.46 357.067 1125.52 357.253L1133.67 406.722C1133.7 406.929 1133.65 407.14 1133.53 407.309C1133.4 407.478 1133.22 407.592 1133.01 407.626L1132.89 407.643Z" fill="#371A45"/>
<path d="M1138.28 411.119H1138.14C1137.93 411.081 1137.75 410.963 1137.63 410.791C1137.51 410.618 1137.46 410.406 1137.5 410.198L1148.71 350.143C1148.72 350.032 1148.75 349.925 1148.81 349.828C1148.86 349.73 1148.93 349.645 1149.02 349.578C1149.11 349.511 1149.21 349.464 1149.32 349.438C1149.43 349.413 1149.54 349.411 1149.65 349.431C1149.76 349.452 1149.87 349.495 1149.96 349.558C1150.05 349.621 1150.13 349.703 1150.18 349.798C1150.24 349.893 1150.28 349.999 1150.3 350.109C1150.31 350.219 1150.3 350.332 1150.27 350.439L1139.08 410.476C1139.04 410.66 1138.94 410.826 1138.79 410.943C1138.65 411.061 1138.47 411.123 1138.28 411.119Z" fill="#371A45"/>
<path d="M1072.23 450.09L1071.98 455.305L1071.86 457.93L1069.71 503.297C1069.71 503.297 1066.63 502.967 1062.53 502.202L1060.06 501.611C1053.61 500.238 1045.88 497.891 1043.27 494.171C1039.37 488.626 1041.53 464.083 1046.74 454.87C1049.11 450.647 1058.69 449.83 1065.41 449.812H1067.55C1070.31 449.917 1072.23 450.09 1072.23 450.09Z" fill="white"/>
<g opacity="0.35">
<path opacity="0.35" d="M1072 455.253L1071.88 457.877L1070.14 493.893L1069.69 503.245H1068.75H1068.51H1068.31H1068.11H1067.83L1067.2 503.158L1066.59 503.071L1065.83 502.949C1064.86 502.793 1063.73 502.619 1062.53 502.393L1061.81 502.254L1061.29 502.15L1060.06 501.611C1053.61 500.237 1045.87 497.891 1043.27 494.171C1040.07 489.6 1040.99 472.148 1044.29 460.989C1042.76 470.862 1042.83 481.621 1045.25 485.063C1047 487.087 1049.26 488.6 1051.8 489.443C1052.09 489.551 1052.4 489.582 1052.7 489.533C1053 489.483 1053.28 489.355 1053.52 489.161C1053.76 488.967 1053.94 488.714 1054.04 488.428C1054.15 488.142 1054.18 487.833 1054.13 487.531C1053.69 484.766 1053.63 481.952 1053.96 479.17C1054.7 472.357 1056.76 462.657 1065.03 455.548C1067.34 455.297 1069.67 455.198 1072 455.253V455.253Z" fill="#371A45"/>
</g>
<path d="M1070.92 504.653L1069.59 504.514C1068.68 504.427 1047.2 502.097 1042.19 494.953C1039.24 490.747 1040 479.309 1040.31 475.833C1040.92 468.88 1042.64 459.563 1045.53 454.297C1049.56 447.101 1069.97 448.63 1072.28 448.821L1073.5 448.926L1070.92 504.653ZM1065.71 451.116C1058.76 451.116 1049.77 451.967 1047.75 455.548C1042.54 464.917 1040.91 488.783 1044.28 493.493C1047.65 498.204 1061.83 500.985 1068.51 501.837L1070.91 451.203C1069.48 451.203 1067.71 451.098 1065.78 451.098L1065.71 451.116Z" fill="#371A45"/>
<path d="M1045.55 476.111L1054.36 477.606C1054.74 477.667 1055.1 477.857 1055.36 478.144C1055.63 478.431 1055.79 478.799 1055.82 479.188C1056.06 482.091 1056.29 488.852 1053.3 490.782C1052 491.52 1050.49 491.819 1049.01 491.634C1047.52 491.449 1046.14 490.791 1045.06 489.756C1042.8 487.444 1043.16 480.891 1043.51 477.589C1043.54 477.356 1043.62 477.132 1043.74 476.93C1043.86 476.728 1044.02 476.553 1044.21 476.415C1044.4 476.277 1044.62 476.179 1044.85 476.127C1045.08 476.075 1045.31 476.069 1045.55 476.111V476.111Z" fill="white"/>
<g opacity="0.35">
<path opacity="0.35" d="M1055.8 479.188C1056.04 482.09 1056.27 488.852 1053.28 490.781C1051.98 491.519 1050.48 491.818 1048.99 491.633C1047.51 491.449 1046.12 490.79 1045.04 489.756C1043.65 488.331 1043.3 485.306 1043.3 482.438C1043.5 483.706 1044.01 484.903 1044.8 485.914C1048.87 490.677 1052.67 485.914 1052.67 485.914C1052.67 485.914 1053.14 487.218 1053.59 487.322C1055.49 487.792 1055.66 481.725 1055.68 478.631C1055.75 478.809 1055.79 478.997 1055.8 479.188Z" fill="#371A45"/>
</g>
<path d="M1049.94 492.92C1047.78 492.938 1045.7 492.101 1044.15 490.591C1041.7 488.088 1041.76 482.056 1042.26 477.467C1042.3 477.06 1042.43 476.667 1042.63 476.31C1042.83 475.954 1043.1 475.642 1043.43 475.393C1043.75 475.145 1044.13 474.965 1044.52 474.864C1044.92 474.763 1045.33 474.744 1045.74 474.808V474.808L1054.55 476.303C1055.21 476.412 1055.82 476.737 1056.27 477.228C1056.73 477.718 1057.01 478.347 1057.07 479.014C1057.4 482.821 1057.43 489.548 1053.98 491.79C1052.77 492.546 1051.37 492.938 1049.94 492.92V492.92ZM1045.25 477.276C1045.13 477.279 1045.02 477.325 1044.93 477.405C1044.85 477.485 1044.79 477.594 1044.78 477.711C1044.19 483.203 1044.66 487.444 1045.96 488.8C1046.84 489.629 1047.95 490.158 1049.14 490.311C1050.34 490.465 1051.55 490.234 1052.6 489.652C1054.34 488.574 1055 484.576 1054.55 479.223C1054.54 479.117 1054.5 479.016 1054.42 478.938C1054.35 478.859 1054.25 478.807 1054.15 478.788L1045.34 477.293L1045.25 477.276Z" fill="#371A45"/>
<path d="M1048.5 490.886L1048.74 490.782L1049.02 490.625C1049.22 490.511 1049.4 490.383 1049.58 490.243C1049.94 489.957 1050.28 489.631 1050.57 489.27C1051.18 488.524 1051.67 487.677 1051.99 486.767C1052.32 485.823 1052.56 484.852 1052.71 483.864C1052.9 482.867 1052.95 481.851 1052.88 480.839C1053.09 481.845 1053.16 482.873 1053.11 483.898C1053.09 484.938 1052.97 485.974 1052.76 486.992C1052.53 488.046 1052.12 489.052 1051.54 489.965C1051.24 490.437 1050.89 490.875 1050.5 491.268C1050.3 491.474 1050.08 491.666 1049.86 491.842L1049.49 492.103C1049.35 492.194 1049.21 492.276 1049.06 492.346C1048.96 492.391 1048.86 492.416 1048.75 492.42C1048.65 492.425 1048.54 492.408 1048.44 492.372C1048.34 492.336 1048.25 492.28 1048.17 492.209C1048.09 492.137 1048.03 492.051 1047.99 491.955C1047.94 491.859 1047.92 491.755 1047.91 491.65C1047.91 491.544 1047.92 491.439 1047.96 491.34C1048 491.24 1048.05 491.149 1048.12 491.071C1048.2 490.994 1048.28 490.931 1048.38 490.886H1048.5Z" fill="#371A45"/>
<path d="M1060.06 456.139C1059 455.983 1057.9 455.844 1056.83 455.74C1055.75 455.635 1054.67 455.531 1053.59 455.461C1052.52 455.392 1051.44 455.34 1050.38 455.357C1049.34 455.351 1048.31 455.421 1047.28 455.566C1047.12 455.592 1046.95 455.585 1046.79 455.546C1046.62 455.507 1046.47 455.436 1046.33 455.338C1046.2 455.24 1046.08 455.115 1046 454.972C1045.91 454.83 1045.85 454.671 1045.82 454.505C1045.8 454.34 1045.8 454.171 1045.84 454.008C1045.88 453.845 1045.95 453.691 1046.05 453.556C1046.15 453.42 1046.27 453.305 1046.42 453.218C1046.56 453.13 1046.72 453.072 1046.88 453.045H1047.01C1048.16 452.959 1049.33 452.959 1050.48 453.045C1051.61 453.15 1052.71 453.289 1053.82 453.463C1054.93 453.636 1056.01 453.845 1057.09 454.054C1058.17 454.262 1059.24 454.505 1060.32 454.784C1060.47 454.834 1060.6 454.938 1060.68 455.076C1060.76 455.213 1060.79 455.376 1060.76 455.533C1060.73 455.69 1060.65 455.831 1060.52 455.93C1060.39 456.028 1060.24 456.078 1060.08 456.07L1060.06 456.139Z" fill="#371A45"/>
<path d="M1143.11 305.802C1143.1 305.888 1143.1 305.975 1143.11 306.061V305.802Z" fill="#D66B09"/>
<path d="M1146.47 335.803C1146.87 336.304 1147.14 336.903 1147.25 337.54C1147.35 338.178 1147.28 338.831 1147.05 339.435C1146.82 340.039 1146.44 340.572 1145.94 340.981C1145.44 341.39 1144.84 341.66 1144.21 341.765V341.765C1143.57 341.867 1142.92 341.8 1142.31 341.571C1141.71 341.342 1141.18 340.958 1140.77 340.458C1140.36 339.958 1140.09 339.36 1139.99 338.723C1139.88 338.086 1139.95 337.433 1140.17 336.829V336.829C1140.4 336.225 1140.79 335.693 1141.29 335.285C1141.79 334.877 1142.39 334.607 1143.02 334.503C1143.66 334.4 1144.31 334.465 1144.92 334.693C1145.52 334.921 1146.06 335.304 1146.47 335.803V335.803Z" fill="#E25A5A"/>
<g opacity="0.35">
<path opacity="0.35" d="M1146.64 335.751C1147.04 336.25 1147.31 336.844 1147.41 337.477C1147.51 338.11 1147.45 338.758 1147.22 339.359C1147 339.959 1146.62 340.49 1146.13 340.9C1145.64 341.31 1145.05 341.584 1144.41 341.696V341.696C1143.78 341.8 1143.12 341.735 1142.52 341.508C1141.92 341.281 1141.38 340.899 1140.97 340.401C1140.56 339.903 1140.29 339.306 1140.18 338.67C1140.08 338.034 1140.14 337.381 1140.36 336.777V336.777C1140.6 336.177 1140.98 335.648 1141.48 335.243C1141.98 334.838 1142.57 334.57 1143.21 334.466C1143.84 334.362 1144.49 334.426 1145.09 334.652C1145.7 334.877 1146.23 335.256 1146.64 335.751V335.751Z" fill="#371A45"/>
</g>
<path d="M1141.1 343.608C1140.54 343.596 1140 343.454 1139.52 343.192C1139.03 342.929 1138.61 342.555 1138.3 342.1C1137.99 341.644 1137.79 341.121 1137.72 340.573C1137.65 340.025 1137.71 339.469 1137.9 338.949L1139.88 333.735C1140.1 333.175 1140.46 332.683 1140.93 332.306C1141.4 331.93 1141.96 331.681 1142.55 331.584C1143.15 331.488 1143.76 331.547 1144.32 331.757C1144.88 331.966 1145.38 332.318 1145.77 332.779L1149.25 337.107C1149.62 337.579 1149.86 338.139 1149.96 338.734C1150.05 339.328 1149.98 339.936 1149.77 340.498C1149.56 341.061 1149.2 341.558 1148.74 341.941C1148.27 342.325 1147.72 342.582 1147.13 342.686L1141.62 343.573L1141.1 343.608ZM1143.09 334.256H1142.97C1142.85 334.274 1142.74 334.323 1142.64 334.399C1142.55 334.476 1142.48 334.577 1142.43 334.691L1140.45 339.905C1140.41 340.02 1140.39 340.145 1140.41 340.266C1140.43 340.388 1140.48 340.502 1140.56 340.598C1140.64 340.693 1140.74 340.766 1140.86 340.81C1140.97 340.853 1141.1 340.865 1141.22 340.844L1146.73 339.957C1146.85 339.939 1146.96 339.889 1147.06 339.812C1147.16 339.735 1147.23 339.634 1147.27 339.519C1147.32 339.404 1147.33 339.28 1147.31 339.158C1147.29 339.037 1147.24 338.923 1147.16 338.828L1143.69 334.5C1143.62 334.416 1143.53 334.35 1143.43 334.308C1143.33 334.266 1143.22 334.248 1143.11 334.256H1143.09Z" fill="#371A45"/>
<path d="M1110.83 305.871C1114.15 321.515 1133.43 337.559 1143.37 335.421C1153.32 333.283 1164.35 310.773 1161.05 295.199C1157.75 279.624 1143.81 269.369 1129.94 272.306C1116.07 275.244 1107.51 290.279 1110.83 305.871Z" fill="#00D7ED"/>
<g opacity="0.7">
<path opacity="0.7" d="M1110.83 305.871V306.01C1109.29 291.653 1117.58 278.494 1130.47 275.748C1144.21 272.828 1157.99 282.84 1161.48 298.171C1161.39 297.167 1161.24 296.168 1161.03 295.181C1157.71 279.537 1143.79 269.351 1129.92 272.289C1116.05 275.227 1107.51 290.279 1110.83 305.871Z" fill="white"/>
</g>
<g opacity="0.35">
<path opacity="0.35" d="M1110.83 305.871C1114.15 321.515 1133.43 337.559 1143.37 335.421C1153.31 333.283 1164.35 310.773 1161.05 295.199L1160.87 294.764C1160.63 307.262 1150.29 322.732 1141.53 324.592C1131.67 326.678 1113 313.884 1110.24 300.952C1110.24 300.57 1110.08 300.187 1110.03 299.805C1110.1 301.848 1110.37 303.879 1110.83 305.871V305.871Z" fill="#371A45"/>
</g>
<path d="M1141.58 337.002C1136.61 337.002 1130.01 333.821 1123.75 328.311C1116.4 321.845 1111.08 313.554 1109.5 306.149C1106.02 289.845 1115.07 274.062 1129.66 270.95C1144.24 267.839 1158.93 278.599 1162.39 294.903C1163.97 302.325 1162.39 312.059 1158.39 320.976C1154.39 329.893 1148.76 335.734 1143.65 336.811C1142.97 336.947 1142.28 337.011 1141.58 337.002ZM1134.8 273.175C1133.29 273.174 1131.78 273.331 1130.3 273.645C1117.2 276.426 1109.1 290.749 1112.26 305.576C1115.23 319.481 1132.07 334.273 1141.55 334.273C1142.09 334.278 1142.63 334.225 1143.16 334.117C1152.2 332.205 1162.94 310.304 1159.8 295.477C1156.91 282.353 1146.22 273.175 1134.8 273.175Z" fill="#371A45"/>
<g opacity="0.5">
<path opacity="0.5" d="M1132.09 279.92C1125.26 280.528 1120.88 283.396 1117.92 288.002C1114.78 292.939 1116.46 296.972 1120.25 296.363C1124.04 295.755 1124.62 289.549 1133.06 285.499C1138.59 282.84 1137.48 279.45 1132.09 279.92Z" fill="white"/>
</g>
<path d="M1123.56 331.857C1123.55 331.944 1123.55 332.03 1123.56 332.116V331.857Z" fill="#D66B09"/>
<path d="M1091.35 331.927C1094.67 347.571 1113.94 363.614 1123.88 361.476C1133.83 359.338 1144.88 336.794 1141.56 321.219C1138.24 305.645 1124.25 295.424 1110.47 298.362C1096.68 301.3 1087.97 316.335 1091.35 331.927Z" fill="#FF2222"/>
<g opacity="0.7">
<path opacity="0.7" d="M1091.35 331.927V332.066C1089.8 317.709 1098.09 304.55 1110.99 301.804C1124.72 298.884 1138.5 308.896 1142 324.227C1141.9 323.223 1141.75 322.224 1141.55 321.237C1138.23 305.593 1124.3 295.407 1110.43 298.345C1096.56 301.282 1087.97 316.335 1091.35 331.927Z" fill="white"/>
</g>
<g opacity="0.35">
<path opacity="0.35" d="M1091.68 328.746C1095 344.39 1114.27 360.433 1124.22 358.295C1134.16 356.157 1145.23 333.665 1141.89 318.073L1141.81 317.639C1141.56 330.136 1131.22 345.606 1122.46 347.466C1112.61 349.552 1093.94 336.759 1091.17 323.827C1091.17 323.444 1091.02 323.062 1090.96 322.679C1091.01 324.72 1091.25 326.751 1091.68 328.746Z" fill="#371A45"/>
</g>
<path d="M1122.03 363.058C1117.06 363.058 1110.45 359.877 1104.19 354.367C1096.84 347.901 1091.52 339.61 1089.94 332.205C1088.23 324.561 1089.4 316.556 1093.21 309.713C1094.93 306.49 1097.33 303.683 1100.25 301.486C1103.17 299.29 1106.53 297.757 1110.1 296.996C1113.68 296.234 1117.37 296.262 1120.93 297.078C1124.49 297.893 1127.83 299.476 1130.72 301.717C1136.99 306.409 1141.32 313.246 1142.89 320.924C1144.47 328.346 1142.89 338.08 1138.89 346.997C1134.89 355.914 1129.26 361.755 1124.15 362.832C1123.45 362.983 1122.74 363.059 1122.03 363.058V363.058ZM1115.21 299.231C1113.69 299.228 1112.17 299.386 1110.68 299.701C1107.49 300.409 1104.5 301.792 1101.9 303.757C1099.3 305.721 1097.14 308.22 1095.59 311.086C1092.12 317.346 1091.07 324.664 1092.63 331.649C1095.61 345.554 1112.45 360.347 1121.92 360.347C1122.47 360.351 1123.01 360.299 1123.54 360.19C1132.58 358.278 1143.32 336.377 1140.17 321.55C1138.76 314.533 1134.82 308.279 1129.1 303.977C1125.1 300.945 1120.23 299.281 1115.21 299.231V299.231Z" fill="#371A45"/>
<g opacity="0.5">
<path opacity="0.5" d="M1112.53 305.193C1105.7 305.802 1101.32 308.67 1098.37 313.276C1095.22 318.212 1096.91 322.245 1100.7 321.637C1104.49 321.028 1105.06 314.892 1113.54 310.773C1119.04 308.113 1117.92 304.706 1112.53 305.193Z" fill="white"/>
</g>
<path d="M1159.45 332.344L1159.24 332.534L1159.45 332.344Z" fill="#D66B09"/>
<path d="M1147.96 360.277C1148.08 360.912 1148.02 361.566 1147.81 362.175C1147.59 362.783 1147.22 363.323 1146.73 363.742C1146.24 364.161 1145.64 364.443 1145.01 364.561C1144.38 364.679 1143.72 364.629 1143.11 364.414V364.414C1142.5 364.196 1141.96 363.822 1141.54 363.33C1141.13 362.837 1140.85 362.243 1140.73 361.607C1140.61 360.972 1140.67 360.317 1140.88 359.708C1141.1 359.099 1141.47 358.558 1141.96 358.139V358.139C1142.46 357.724 1143.05 357.445 1143.68 357.331C1144.32 357.216 1144.97 357.269 1145.58 357.486C1146.18 357.702 1146.72 358.074 1147.14 358.563C1147.56 359.053 1147.84 359.644 1147.96 360.277V360.277Z" fill="#3BD8E0"/>
<g opacity="0.35">
<path opacity="0.35" d="M1148.13 360.312C1148.25 360.946 1148.2 361.6 1147.99 362.209C1147.77 362.817 1147.4 363.359 1146.91 363.779C1146.42 364.2 1145.83 364.485 1145.2 364.605C1144.57 364.726 1143.91 364.678 1143.3 364.466V364.466C1142.69 364.253 1142.15 363.883 1141.73 363.395C1141.31 362.906 1141.02 362.316 1140.9 361.682C1140.78 361.049 1140.83 360.395 1141.04 359.785C1141.25 359.175 1141.62 358.632 1142.1 358.209V358.209C1142.59 357.785 1143.19 357.498 1143.82 357.376C1144.46 357.255 1145.11 357.303 1145.73 357.516C1146.34 357.729 1146.88 358.1 1147.31 358.591C1147.73 359.082 1148.01 359.675 1148.13 360.312V360.312Z" fill="#371A45"/>
</g>
<path d="M1146.43 366.83C1146.03 366.828 1145.64 366.757 1145.27 366.622L1140.05 364.762C1139.49 364.55 1138.99 364.198 1138.61 363.738C1138.23 363.278 1137.97 362.727 1137.86 362.137C1137.75 361.548 1137.8 360.94 1137.99 360.374C1138.19 359.807 1138.53 359.301 1138.97 358.904L1143.22 355.288C1143.68 354.916 1144.24 354.67 1144.83 354.574C1145.42 354.479 1146.02 354.537 1146.58 354.743C1147.14 354.949 1147.64 355.297 1148.03 355.751C1148.42 356.206 1148.68 356.753 1148.8 357.34L1149.8 362.815C1149.89 363.31 1149.87 363.817 1149.74 364.302C1149.61 364.787 1149.37 365.239 1149.05 365.625C1148.73 366.012 1148.33 366.324 1147.88 366.541C1147.43 366.758 1146.93 366.875 1146.43 366.882V366.83ZM1145.41 357.2C1145.24 357.201 1145.08 357.263 1144.95 357.374L1140.71 360.99C1140.62 361.07 1140.55 361.172 1140.51 361.287C1140.47 361.403 1140.46 361.526 1140.48 361.646C1140.51 361.766 1140.56 361.877 1140.64 361.97C1140.72 362.062 1140.82 362.132 1140.94 362.172L1146.15 364.032C1146.27 364.074 1146.39 364.084 1146.51 364.063C1146.63 364.041 1146.75 363.988 1146.84 363.908C1146.93 363.829 1147.01 363.726 1147.05 363.61C1147.09 363.495 1147.1 363.37 1147.07 363.249L1146.07 357.774C1146.05 357.652 1146 357.536 1145.92 357.441C1145.84 357.346 1145.73 357.275 1145.61 357.235C1145.55 357.219 1145.48 357.214 1145.41 357.218V357.2Z" fill="#371A45"/>
<path d="M1131.12 316.892C1126.53 332.153 1135.76 355.584 1145.41 358.487C1155.05 361.39 1175.69 346.91 1180.27 331.684C1184.86 316.457 1177.58 300.744 1164 296.659C1150.43 292.574 1135.71 301.63 1131.12 316.892Z" fill="#068FFF"/>
<g opacity="0.7">
<path opacity="0.7" d="M1131.12 316.891V317.03C1136.66 303.698 1150.24 296.172 1162.89 299.944C1176.33 303.994 1183.61 319.412 1179.28 334.517C1179.68 333.593 1180.03 332.647 1180.32 331.684C1184.91 316.422 1177.63 300.743 1164.05 296.659C1150.48 292.574 1135.7 301.63 1131.12 316.891Z" fill="white"/>
</g>
<g opacity="0.35">
<path opacity="0.35" d="M1131.12 313.31C1126.53 328.572 1135.76 352.003 1145.41 354.906C1155.05 357.808 1175.69 343.433 1180.27 328.102L1180.4 327.685C1174.17 338.532 1157.68 347.118 1149.11 344.529C1139.44 341.695 1129.24 321.428 1133.06 308.756C1133.17 308.391 1133.29 308.009 1133.43 307.661C1132.48 309.467 1131.71 311.358 1131.12 313.31V313.31Z" fill="#371A45"/>
</g>
<path d="M1148.1 360.208C1147.05 360.22 1146.01 360.079 1145 359.791C1140 358.278 1134.87 351.76 1131.62 342.791C1128.37 333.822 1127.61 323.757 1129.8 316.492C1131.98 308.967 1136.85 302.508 1143.49 298.345C1146.55 296.349 1150.01 295.045 1153.63 294.525C1157.24 294.005 1160.93 294.281 1164.43 295.334C1167.92 296.387 1171.15 298.191 1173.88 300.621C1176.61 303.05 1178.77 306.047 1180.22 309.4C1183.43 316.509 1183.92 324.547 1181.61 331.997C1179.42 339.262 1173.42 347.067 1165.57 352.855C1159.33 357.618 1152.95 360.208 1148.1 360.208ZM1132.45 317.274C1128.09 331.788 1136.99 354.489 1145.82 357.148C1154.65 359.808 1174.59 345.798 1178.97 331.267C1181.11 324.435 1180.66 317.055 1177.72 310.53C1176.43 307.53 1174.5 304.848 1172.06 302.674C1169.63 300.499 1166.75 298.885 1163.62 297.944C1160.49 297.002 1157.2 296.758 1153.97 297.226C1150.74 297.695 1147.65 298.866 1144.92 300.657C1138.84 304.499 1134.4 310.447 1132.44 317.361L1132.45 317.274Z" fill="#371A45"/>
<g opacity="0.5">
<path opacity="0.5" d="M1162.62 303.664C1156.32 300.917 1151.14 301.265 1146.31 303.924C1141.1 306.74 1140.71 311.086 1144.33 312.372C1147.94 313.658 1151.4 308.67 1160.88 309.052C1166.91 309.348 1167.57 305.836 1162.62 303.664Z" fill="white"/>
</g>
<path d="M1134.18 430.831C1132.72 431.15 1131.21 431.214 1129.73 431.022L1129.52 431.387C1121.13 446.284 1113.88 454.853 1108.54 459.737C1107.73 460.504 1106.76 461.096 1105.71 461.476C1099.28 463.787 1089.51 459.929 1089.51 459.929L1090.66 454.714L1093.44 441.869C1094.79 441.106 1096.1 440.258 1097.35 439.331L1098.16 438.722C1101.04 436.552 1103.77 434.201 1106.35 431.683C1112.99 425.144 1118.91 417.906 1123.99 410.094C1124.93 408.661 1126.31 407.578 1127.92 407.015C1129.53 406.452 1131.29 406.441 1132.91 406.983C1136.27 407.835 1138 409.242 1138.56 411.155C1138.56 411.155 1141.72 410.807 1141.81 415.274C1141.86 418.942 1140.21 429.614 1134.18 430.831Z" fill="white"/>
<g opacity="0.35">
<path opacity="0.35" d="M1129.59 431.387C1121.19 446.284 1113.94 454.853 1108.61 459.737C1102.8 465.091 1089.49 459.859 1089.49 459.859L1090.89 453.376C1095.27 454.384 1100.7 452.837 1105.06 450.873C1122.3 443.103 1123.78 431.37 1124.81 425.512C1124.95 426.849 1125.48 428.115 1126.33 429.158C1127.17 430.2 1128.31 430.975 1129.59 431.387Z" fill="#371A45"/>
</g>
<g opacity="0.35">
<path opacity="0.35" d="M1131.69 431.109C1131.69 431.109 1126.36 431.578 1125.11 423.356C1126.99 424.64 1129.14 425.473 1131.4 425.79C1136.04 426.781 1140.31 423.27 1140.31 423.27C1140.31 423.27 1138.49 431.283 1131.69 431.109Z" fill="#371A45"/>
</g>
<path d="M1094.43 441.973C1094.14 441.976 1093.85 441.88 1093.63 441.701C1093.4 441.522 1093.24 441.271 1093.17 440.989C1093.11 440.707 1093.14 440.411 1093.27 440.15C1093.4 439.89 1093.61 439.681 1093.87 439.557V439.557C1094.01 439.557 1107.43 432.604 1122.9 409.295C1123.98 407.64 1125.57 406.384 1127.43 405.719C1129.29 405.053 1131.32 405.015 1133.21 405.61C1136.4 406.427 1138.42 407.765 1139.39 409.729C1140.37 411.693 1140.18 414.301 1138.72 417.69C1137.26 421.08 1134.3 422.801 1131.76 421.862C1129.22 420.923 1127.71 417.742 1129.78 411.207C1129.9 410.902 1130.12 410.654 1130.41 410.512C1130.71 410.369 1131.04 410.345 1131.35 410.443C1131.66 410.541 1131.92 410.754 1132.08 411.039C1132.24 411.323 1132.28 411.657 1132.2 411.971C1130.77 416.491 1131.43 419.029 1132.65 419.481C1133.87 419.932 1135.4 418.907 1136.35 416.682C1137.48 414.057 1137.72 412.145 1137.08 410.842C1136.36 409.951 1135.46 409.228 1134.43 408.723C1133.4 408.218 1132.27 407.943 1131.13 407.919C1129.98 407.894 1128.85 408.119 1127.8 408.579C1126.75 409.039 1125.81 409.722 1125.05 410.581V410.581C1109.15 434.638 1095.5 441.486 1095 441.764C1094.83 441.88 1094.63 441.951 1094.43 441.973V441.973Z" fill="#371A45"/>
<path d="M1099.26 467.281C1098.94 467.29 1098.64 467.183 1098.4 466.979C1098.16 466.776 1098 466.49 1097.96 466.179C1097.92 465.867 1097.99 465.552 1098.17 465.293C1098.35 465.034 1098.62 464.851 1098.93 464.778C1099.05 464.778 1111.49 460.885 1128.61 430.396L1129.05 429.614L1129.94 429.771C1131.26 429.932 1132.6 429.874 1133.9 429.597C1139.11 428.554 1140.56 418.524 1140.5 415.17C1140.57 414.271 1140.29 413.38 1139.72 412.684C1139.43 412.417 1139.04 412.274 1138.64 412.284C1138.31 412.318 1137.98 412.218 1137.71 412.007C1137.45 411.795 1137.29 411.488 1137.25 411.154C1137.22 410.818 1137.32 410.482 1137.53 410.219C1137.74 409.956 1138.05 409.786 1138.38 409.746C1138.92 409.706 1139.46 409.772 1139.98 409.942C1140.49 410.112 1140.96 410.382 1141.37 410.737C1141.96 411.301 1142.42 411.984 1142.72 412.739C1143.02 413.495 1143.15 414.306 1143.11 415.118C1143.2 419.863 1141.16 430.761 1134.42 432.082C1133.11 432.354 1131.76 432.453 1130.42 432.378C1112.85 463.388 1100.12 467.142 1099.59 467.246L1099.26 467.281Z" fill="#371A45"/>
<path d="M1129.73 432.291H1129.59C1128.6 432.213 1127.65 431.905 1126.81 431.392C1125.97 430.879 1125.26 430.175 1124.74 429.336C1123.17 426.694 1123.45 422.557 1125.55 417.047C1127.66 411.537 1130.28 411.502 1130.77 411.502V414.04H1130.86C1130.86 414.04 1129.38 414.283 1127.97 417.951C1126.23 422.557 1125.85 426.138 1126.96 428.033C1127.29 428.539 1127.73 428.961 1128.26 429.263C1128.78 429.565 1129.37 429.739 1129.97 429.771C1130.31 429.794 1130.62 429.95 1130.84 430.204C1131.06 430.458 1131.17 430.79 1131.15 431.127C1131.13 431.463 1130.97 431.777 1130.72 431.998C1130.46 432.22 1130.13 432.332 1129.8 432.309L1129.73 432.291Z" fill="#371A45"/>
<path d="M1105.76 497.074C1104.44 503.818 1101.36 519.671 1092.08 528.709C1092.08 528.709 1092.81 540.877 1087.77 545.205C1084.29 548.177 1074.33 546.057 1072.21 539.26C1070.38 533.385 1073.06 524.346 1074.56 521.635C1077.93 515.586 1080.34 507.938 1080.31 504.479L1076.21 504.287C1073.03 511.937 1068.39 518.897 1062.56 524.781C1062.56 524.781 1062.32 535.662 1055.33 540.06C1050.27 543.241 1040.47 541.416 1038.56 532.951C1037.22 527.023 1040.8 518.697 1042.83 515.568C1047.75 507.467 1051.62 498.776 1054.36 489.704C1054.51 489.096 1054.67 488.487 1054.79 487.966C1055.33 485.532 1055.85 483.047 1056.36 480.613C1056.86 478.18 1057.28 476.163 1057.71 474.043C1058.95 468.028 1060.02 462.744 1060.75 459.702C1060.75 459.702 1061.08 457.512 1061.64 454.488C1062.08 452.193 1062.65 449.43 1063.38 446.84C1064.54 442.425 1066 438.548 1067.57 438.548H1093.43C1094.77 438.531 1096.1 438.767 1097.34 439.244C1099.42 440.081 1101.15 441.61 1102.23 443.572C1103.39 445.66 1104.1 447.97 1104.31 450.351C1104.68 453.48 1105.22 457.304 1105.72 461.441C1106.99 472.061 1108.09 485.167 1105.76 497.074Z" fill="white"/>
<g opacity="0.35">
<path opacity="0.35" d="M1059.42 480.857L1059.19 481.917C1058.2 481.575 1057.26 481.101 1056.39 480.509L1059.42 480.857Z" fill="#371A45"/>
</g>
<g opacity="0.35">
<path opacity="0.35" d="M1077.95 520.366C1076.43 523.078 1073.77 532.117 1075.6 537.992C1077.22 543.206 1083.42 545.657 1087.77 545.205C1084.29 548.195 1074.33 546.074 1072.12 539.261C1070.3 533.385 1072.97 524.347 1074.47 521.635C1077.84 515.586 1080.26 507.938 1080.22 504.479L1076.12 504.288C1075.77 505.192 1075.36 506.165 1074.87 507.173C1075.16 506.273 1075.23 505.314 1075.06 504.382C1074.89 503.451 1074.49 502.576 1073.9 501.837C1073.73 501.608 1073.65 501.331 1073.66 501.051C1073.68 500.771 1073.78 500.503 1073.96 500.288C1074.14 500.074 1074.39 499.925 1074.66 499.866C1074.94 499.806 1075.22 499.839 1075.48 499.96C1078.17 501.098 1081.05 501.729 1083.98 501.82C1088.2 502.006 1092.42 501.302 1096.35 499.751C1096.6 499.649 1096.88 499.63 1097.14 499.695C1097.4 499.761 1097.64 499.908 1097.81 500.115C1097.98 500.322 1098.08 500.579 1098.1 500.848C1098.12 501.117 1098.05 501.384 1097.9 501.611C1094.53 507.052 1080.76 515.325 1077.95 520.366Z" fill="#371A45"/>
</g>
<path d="M1061.19 459.685C1060.02 469.297 1058.18 478.805 1056.09 488.279C1055.53 490.694 1054.81 493.069 1053.94 495.388C1053.08 497.706 1052.16 499.971 1051.18 502.184C1050.19 504.398 1049.15 506.605 1048.05 508.807C1046.93 510.98 1045.79 513.135 1044.57 515.256L1043.63 516.785L1043.21 517.533L1042.81 518.298C1042.29 519.34 1041.84 520.418 1041.42 521.513C1041.02 522.602 1040.66 523.71 1040.36 524.833C1040.08 525.948 1039.86 527.08 1039.72 528.223C1039.61 529.332 1039.61 530.451 1039.72 531.56C1039.85 532.629 1040.13 533.672 1040.57 534.654C1041 535.616 1041.59 536.497 1042.31 537.261C1043.06 538.022 1043.94 538.651 1044.9 539.121C1046.86 540.077 1049.06 540.44 1051.23 540.164C1052.28 540.036 1053.31 539.725 1054.25 539.243C1054.48 539.122 1054.7 538.988 1054.91 538.843L1055.24 538.617L1055.56 538.374C1055.98 538.038 1056.38 537.672 1056.75 537.279C1057.5 536.476 1058.15 535.59 1058.68 534.637C1059.23 533.642 1059.68 532.6 1060.04 531.525C1060.41 530.434 1060.7 529.319 1060.91 528.188C1061.01 527.614 1061.1 527.041 1061.17 526.45C1061.24 525.859 1061.29 525.285 1061.31 524.711V524.207L1061.71 523.842C1063.17 522.486 1064.52 521.016 1065.74 519.445C1066.99 517.863 1068.17 516.212 1069.22 514.508C1070.26 512.805 1071.39 511.032 1072.35 509.294C1073.32 507.535 1074.18 505.718 1074.92 503.853L1075.25 503.001H1076.17L1080.27 503.193H1081.51V504.392C1081.45 506.014 1081.2 507.623 1080.78 509.189C1080.39 510.702 1079.93 512.196 1079.4 513.656C1078.4 516.608 1077.16 519.473 1075.7 522.226C1075.07 523.5 1074.56 524.833 1074.19 526.206C1073.78 527.61 1073.46 529.038 1073.23 530.482C1073 531.908 1072.89 533.349 1072.89 534.793C1072.87 536.186 1073.06 537.574 1073.44 538.913C1073.85 540.157 1074.56 541.28 1075.51 542.18C1076.52 543.117 1077.7 543.855 1078.99 544.353C1080.26 544.878 1081.61 545.184 1082.98 545.257C1083.65 545.291 1084.31 545.251 1084.97 545.135C1085.58 545.048 1086.17 544.841 1086.7 544.527C1086.82 544.461 1086.93 544.385 1087.03 544.301L1087.36 543.988C1087.55 543.779 1087.72 543.559 1087.87 543.328C1088.27 542.785 1088.61 542.202 1088.89 541.59C1089.48 540.299 1089.91 538.946 1090.18 537.557C1090.47 536.129 1090.66 534.683 1090.75 533.229C1090.84 531.77 1090.84 530.307 1090.75 528.848V528.257L1091.15 527.858C1093.48 525.518 1095.45 522.854 1097.01 519.949C1098.6 517.006 1099.93 513.929 1100.97 510.754C1102.04 507.556 1102.93 504.3 1103.63 501.002C1103.82 500.18 1103.99 499.351 1104.16 498.517C1104.33 497.682 1104.49 496.779 1104.62 496.014C1104.76 495.249 1104.92 494.362 1105.02 493.528L1105.34 491.025C1105.67 487.669 1105.82 484.298 1105.81 480.926C1105.81 477.554 1105.58 474.164 1105.29 470.792L1104.31 460.641C1104.16 458.903 1104.02 457.165 1103.93 455.531C1103.84 453.897 1103.79 452.054 1103.93 450.316C1103.94 450.221 1103.99 450.133 1104.05 450.065C1104.12 449.997 1104.21 449.954 1104.31 449.942C1104.4 449.93 1104.5 449.95 1104.58 449.999C1104.66 450.048 1104.73 450.123 1104.76 450.212V450.212C1105.23 451.95 1105.62 453.532 1105.96 455.218C1106.31 456.904 1106.62 458.573 1106.88 460.276C1107.42 463.666 1107.81 467.09 1108.03 470.514C1108.26 473.938 1108.41 477.467 1108.43 480.857C1108.45 484.339 1108.29 487.82 1107.94 491.286L1107.63 493.876C1107.51 494.745 1107.35 495.614 1107.21 496.448C1107.08 497.283 1106.9 498.186 1106.75 498.986C1106.59 499.786 1106.4 500.724 1106.22 501.524C1105.5 504.91 1104.59 508.252 1103.5 511.536C1102.39 514.85 1101 518.061 1099.34 521.131C1097.67 524.253 1095.55 527.117 1093.05 529.631L1093.43 528.64C1093.52 530.209 1093.52 531.781 1093.43 533.35C1093.33 534.921 1093.12 536.483 1092.81 538.026C1092.49 539.614 1092 541.16 1091.33 542.632C1090.97 543.399 1090.53 544.127 1090.02 544.805C1089.76 545.156 1089.47 545.488 1089.15 545.796C1088.98 545.952 1088.84 546.109 1088.65 546.248C1088.46 546.408 1088.26 546.553 1088.04 546.682C1087.26 547.16 1086.39 547.484 1085.49 547.638C1084.64 547.787 1083.79 547.839 1082.93 547.795C1081.27 547.713 1079.64 547.349 1078.1 546.717C1076.54 546.089 1075.12 545.175 1073.89 544.023C1072.64 542.829 1071.7 541.342 1071.16 539.695C1070.7 538.115 1070.47 536.475 1070.49 534.828C1070.49 533.244 1070.62 531.663 1070.87 530.1C1071.11 528.55 1071.46 527.017 1071.89 525.511C1072.32 523.955 1072.9 522.447 1073.63 521.009C1075.06 518.41 1076.27 515.702 1077.27 512.909C1077.75 511.519 1078.2 510.093 1078.55 508.685C1078.93 507.324 1079.15 505.924 1079.21 504.514L1080.43 505.782L1076.33 505.591L1077.58 504.774C1076.8 506.747 1075.89 508.669 1074.87 510.528C1073.86 512.382 1072.78 514.184 1071.62 515.934C1070.45 517.672 1069.24 519.41 1067.91 521.044C1066.6 522.728 1065.15 524.303 1063.59 525.754L1064 524.833C1064 525.528 1064 526.137 1063.85 526.763C1063.69 527.388 1063.67 528.014 1063.55 528.64C1063.32 529.889 1063 531.12 1062.6 532.325C1062.18 533.527 1061.66 534.69 1061.05 535.801C1060.41 536.949 1059.64 538.017 1058.75 538.982C1057.83 539.965 1056.75 540.797 1055.57 541.45C1054.36 542.075 1053.05 542.481 1051.7 542.65C1049.03 542.991 1046.32 542.544 1043.91 541.364C1042.69 540.77 1041.58 539.977 1040.62 539.017C1039.67 538.045 1038.9 536.916 1038.33 535.68C1037.78 534.45 1037.42 533.142 1037.27 531.803C1037.13 530.503 1037.13 529.193 1037.27 527.892C1037.43 526.633 1037.66 525.384 1037.98 524.155C1038.3 522.943 1038.69 521.748 1039.13 520.575C1039.58 519.41 1040.07 518.263 1040.62 517.098L1041.06 516.264L1041.53 515.429L1042.48 513.865C1043.72 511.849 1044.83 509.728 1045.96 507.59C1047.09 505.452 1047.89 503.349 1048.83 501.159C1049.77 498.969 1050.67 496.744 1051.47 494.501C1052.26 492.277 1052.93 490.007 1053.45 487.705C1054.46 482.995 1055.47 478.267 1056.55 473.539C1057.08 471.175 1057.64 468.828 1058.28 466.482C1058.93 464.135 1059.57 461.806 1060.39 459.529C1060.43 459.445 1060.5 459.378 1060.59 459.339C1060.68 459.299 1060.78 459.29 1060.87 459.312C1060.96 459.333 1061.05 459.385 1061.11 459.459C1061.17 459.533 1061.2 459.624 1061.2 459.72L1061.19 459.685Z" fill="#371A45"/>
<path d="M1123.57 471.818C1121.93 471.828 1120.3 471.472 1118.81 470.775C1118.66 470.659 1118.56 470.494 1118.52 470.308C1118.48 470.123 1118.5 469.929 1118.59 469.761C1118.68 469.594 1118.83 469.464 1119.01 469.395C1119.18 469.326 1119.38 469.322 1119.56 469.384C1119.87 469.558 1127.45 473.417 1133.59 463.579C1137.06 457.964 1135.06 452.246 1132.93 446.197C1131.19 441.278 1129.45 436.202 1130.58 430.97C1130.59 430.857 1130.62 430.747 1130.68 430.648C1130.74 430.549 1130.81 430.463 1130.9 430.396C1131 430.329 1131.1 430.282 1131.21 430.259C1131.32 430.236 1131.44 430.237 1131.55 430.262C1131.66 430.287 1131.77 430.336 1131.86 430.404C1131.95 430.473 1132.02 430.56 1132.08 430.66C1132.13 430.76 1132.16 430.87 1132.17 430.983C1132.18 431.097 1132.17 431.211 1132.13 431.318C1131.05 436.098 1132.77 440.965 1134.42 445.675C1136.59 451.828 1138.84 458.19 1134.92 464.448C1131.01 470.705 1126.82 471.818 1123.57 471.818Z" fill="#371A45"/>
<path d="M1097.69 496.101C1096.2 496.222 1094.51 496.344 1092.69 496.431H1095.66C1096.35 496.446 1097.04 496.335 1097.69 496.101V496.101Z" fill="white"/>
<path d="M1111.33 480.314C1111.36 477.857 1109.4 475.836 1106.94 475.801C1104.48 475.766 1102.46 477.73 1102.43 480.187C1102.39 482.644 1104.36 484.665 1106.81 484.7C1109.27 484.735 1111.29 482.772 1111.33 480.314Z" fill="white"/>
<g opacity="0.35">
<path opacity="0.35" d="M1111.34 480.318C1111.33 480.902 1111.2 481.479 1110.97 482.016C1110.74 482.553 1110.41 483.039 1109.99 483.446C1109.57 483.854 1109.08 484.175 1108.53 484.391C1107.99 484.607 1107.41 484.715 1106.82 484.707C1106.24 484.699 1105.66 484.576 1105.13 484.345C1104.59 484.114 1104.1 483.779 1103.7 483.36C1103.29 482.941 1102.97 482.446 1102.75 481.903C1102.54 481.36 1102.43 480.78 1102.44 480.196C1102.44 479.539 1102.6 478.891 1102.89 478.301C1103.24 479.07 1103.8 479.723 1104.5 480.186C1105.21 480.648 1106.03 480.9 1106.87 480.913C1107.72 480.926 1108.55 480.698 1109.27 480.258C1109.99 479.817 1110.56 479.18 1110.94 478.423C1111.21 479.017 1111.34 479.664 1111.34 480.318V480.318Z" fill="#371A45"/>
</g>
<path d="M1106.89 485.706C1105.63 485.685 1104.42 485.227 1103.46 484.413C1102.5 483.598 1101.85 482.475 1101.63 481.237C1101.4 479.999 1101.61 478.721 1102.22 477.621C1102.84 476.521 1103.81 475.668 1104.98 475.206C1106.15 474.744 1107.45 474.702 1108.65 475.087C1109.84 475.473 1110.87 476.262 1111.55 477.32C1112.23 478.378 1112.53 479.639 1112.38 480.89C1112.24 482.14 1111.67 483.301 1110.76 484.177C1110.24 484.684 1109.62 485.081 1108.94 485.344C1108.27 485.606 1107.54 485.73 1106.82 485.706H1106.89ZM1106.89 476.807C1105.96 476.807 1105.08 477.173 1104.43 477.825C1103.78 478.477 1103.41 479.361 1103.41 480.283C1103.41 481.205 1103.78 482.089 1104.43 482.741C1105.08 483.393 1105.96 483.759 1106.89 483.759C1107.81 483.759 1108.69 483.393 1109.34 482.741C1110 482.089 1110.36 481.205 1110.36 480.283C1110.36 479.361 1110 478.477 1109.34 477.825C1108.69 477.173 1107.81 476.807 1106.89 476.807Z" fill="#371A45"/>
<g opacity="0.35">
<path opacity="0.35" d="M1103.2 490.851C1103.25 492.049 1102.83 493.218 1102.02 494.104C1101.21 494.99 1100.09 495.52 1098.89 495.579L1077.89 496.518C1076.69 496.57 1075.52 496.145 1074.64 495.338C1073.75 494.53 1073.22 493.404 1073.16 492.207V490.868C1067.89 492.085 1062.41 492.085 1057.14 490.868C1054.35 499.044 1050.67 506.885 1046.15 514.247C1044.1 517.446 1040.54 525.789 1041.88 531.629C1042.58 534.496 1044.37 536.975 1046.88 538.54C1049.38 540.105 1052.39 540.631 1055.28 540.008C1050.2 543.189 1040.42 541.363 1038.5 532.898C1037.17 526.971 1040.75 518.645 1042.78 515.516C1047.7 507.415 1051.57 498.724 1054.3 489.652C1054.46 489.043 1054.62 488.435 1054.74 487.913C1055.28 485.48 1055.8 482.994 1056.3 480.561C1057.17 481.153 1058.11 481.627 1059.1 481.969C1063.5 483.21 1068.1 483.588 1072.64 483.081L1072.56 481.082C1072.5 479.885 1072.93 478.715 1073.74 477.829C1074.54 476.943 1075.67 476.413 1076.87 476.354L1097.86 475.416C1099.06 475.364 1100.23 475.788 1101.12 476.596C1102 477.404 1102.53 478.529 1102.59 479.727L1102.99 488.574L1103.2 490.851Z" fill="#371A45"/>
</g>
<path d="M1100.46 492.033L1079.46 492.92C1078.26 492.972 1077.09 492.547 1076.2 491.74C1075.32 490.932 1074.79 489.806 1074.73 488.609L1074.23 477.432C1074.19 476.383 1074.51 475.353 1075.14 474.516C1075.78 473.679 1076.68 473.088 1077.7 472.843C1078 472.766 1078.3 472.719 1078.61 472.704L1099.6 471.766C1100.8 471.714 1101.97 472.138 1102.86 472.946C1103.74 473.753 1104.27 474.879 1104.33 476.076L1104.73 484.924L1104.84 487.253C1104.87 487.856 1104.78 488.46 1104.58 489.028C1104.37 489.597 1104.06 490.119 1103.65 490.564C1103.24 491.009 1102.75 491.369 1102.2 491.621C1101.65 491.873 1101.06 492.013 1100.46 492.033V492.033Z" fill="white"/>
<g opacity="0.35">
<path opacity="0.35" d="M1100.46 492.033L1079.46 492.92C1078.26 492.972 1077.09 492.548 1076.2 491.74C1075.32 490.932 1074.79 489.806 1074.73 488.609L1074.23 477.432C1074.19 476.383 1074.51 475.353 1075.14 474.516C1075.78 473.679 1076.68 473.088 1077.7 472.844L1079.72 474.06C1081.14 482.995 1083.91 487.34 1095.05 487.027C1098.4 487.119 1101.72 486.404 1104.73 484.941L1104.84 487.271C1104.87 487.872 1104.78 488.474 1104.57 489.04C1104.37 489.607 1104.05 490.127 1103.64 490.57C1103.24 491.014 1102.74 491.371 1102.2 491.622C1101.65 491.874 1101.06 492.013 1100.46 492.033V492.033Z" fill="#371A45"/>
</g>
<path d="M1079.18 493.98C1077.77 493.978 1076.41 493.437 1075.39 492.467C1074.36 491.498 1073.75 490.173 1073.67 488.765L1073.17 477.589C1073.1 476.134 1073.61 474.711 1074.59 473.631C1075.56 472.55 1076.93 471.899 1078.38 471.818L1099.38 470.879C1100.83 470.813 1102.26 471.323 1103.34 472.3C1104.42 473.276 1105.07 474.64 1105.15 476.094L1105.65 487.27C1105.72 488.725 1105.21 490.148 1104.23 491.228C1103.26 492.309 1101.89 492.96 1100.44 493.041L1079.44 493.98H1079.18ZM1099.69 472.791H1099.53L1078.59 473.799C1078.12 473.812 1077.66 473.919 1077.24 474.113C1076.82 474.307 1076.44 474.584 1076.12 474.927C1075.81 475.271 1075.57 475.675 1075.41 476.114C1075.25 476.553 1075.19 477.019 1075.22 477.484L1075.72 488.661C1075.73 489.127 1075.84 489.585 1076.03 490.009C1076.23 490.433 1076.51 490.813 1076.85 491.128C1077.19 491.442 1077.6 491.685 1078.04 491.84C1078.47 491.996 1078.94 492.061 1079.41 492.033L1100.4 491.095C1100.87 491.081 1101.33 490.975 1101.75 490.781C1102.18 490.587 1102.56 490.31 1102.87 489.966C1103.18 489.623 1103.43 489.219 1103.58 488.78C1103.74 488.341 1103.8 487.875 1103.78 487.41L1103.27 476.233C1103.24 475.329 1102.87 474.471 1102.22 473.842C1101.57 473.212 1100.7 472.86 1099.8 472.861L1099.69 472.791Z" fill="#371A45"/>
<path d="M1101.29 491.912C1101.02 491.981 1100.74 492.022 1100.45 492.033L1079.46 492.92C1078.59 492.958 1077.73 492.746 1076.97 492.309C1076.22 491.871 1075.61 491.226 1075.22 490.452C1074.92 489.88 1074.76 489.251 1074.73 488.609L1074.5 483.638V482.004L1074.29 477.432C1074.24 476.235 1074.67 475.065 1075.47 474.179C1076.28 473.293 1077.41 472.763 1078.61 472.704L1083.14 472.496C1082.12 472.741 1081.21 473.335 1080.58 474.175C1079.94 475.015 1079.62 476.05 1079.67 477.102L1079.94 483.134L1080.17 488.348C1080.23 489.546 1080.76 490.671 1081.64 491.479C1082.53 492.287 1083.7 492.711 1084.9 492.659L1101.29 491.912Z" fill="white"/>
<g opacity="0.35">
<path opacity="0.35" d="M1101.29 491.912C1101.02 491.981 1100.74 492.022 1100.46 492.033L1079.46 492.92C1078.26 492.972 1077.09 492.547 1076.21 491.74C1075.32 490.932 1074.79 489.806 1074.73 488.609L1074.44 482.004C1074.69 482.668 1075.11 483.257 1075.65 483.713C1076.2 484.17 1076.85 484.479 1077.55 484.611C1078.02 484.563 1078.48 484.404 1078.88 484.148C1079.28 483.891 1079.62 483.544 1079.86 483.134L1080.08 488.348C1080.14 489.546 1080.67 490.671 1081.56 491.479C1082.45 492.287 1083.61 492.711 1084.81 492.659L1101.29 491.912Z" fill="#371A45"/>
</g>
<path d="M1079.18 493.98C1077.77 493.978 1076.41 493.436 1075.39 492.467C1074.36 491.498 1073.75 490.173 1073.67 488.765L1073.17 477.589C1073.1 476.134 1073.61 474.711 1074.59 473.631C1075.56 472.55 1076.93 471.899 1078.38 471.818L1082.92 471.609L1083.2 473.573C1082.39 473.75 1081.67 474.209 1081.17 474.869C1080.67 475.528 1080.42 476.345 1080.47 477.171L1080.97 488.348C1080.98 488.814 1081.09 489.272 1081.28 489.696C1081.48 490.12 1081.75 490.5 1082.1 490.815C1082.44 491.129 1082.85 491.372 1083.29 491.527C1083.72 491.683 1084.19 491.748 1084.66 491.72L1101.13 490.973L1101.41 492.92C1101.07 493.001 1100.72 493.048 1100.37 493.059L1079.37 493.997L1079.18 493.98ZM1079.6 473.695H1078.52C1078.05 473.708 1077.6 473.815 1077.17 474.009C1076.75 474.202 1076.37 474.479 1076.05 474.823C1075.74 475.167 1075.5 475.57 1075.34 476.01C1075.18 476.449 1075.12 476.915 1075.15 477.38L1075.65 488.557C1075.66 489.022 1075.77 489.481 1075.97 489.905C1076.16 490.328 1076.44 490.709 1076.78 491.023C1077.12 491.338 1077.53 491.58 1077.97 491.736C1078.41 491.891 1078.87 491.957 1079.34 491.929H1080.55C1079.65 490.988 1079.11 489.755 1079.04 488.452L1078.61 477.276C1078.53 475.995 1078.91 474.729 1079.67 473.695H1079.6Z" fill="#371A45"/>
<path d="M1088.93 482.491C1088.93 482.908 1088.5 486.262 1088.5 486.262L1086.13 486.349C1085.28 486.185 1084.5 485.736 1083.94 485.075C1083.37 484.415 1083.04 483.582 1083.01 482.712C1082.97 481.842 1083.23 480.986 1083.75 480.283C1084.26 479.58 1085 479.072 1085.84 478.84L1088.2 478.753C1088.2 478.753 1088.9 481.795 1088.93 482.491Z" fill="#22A7F0"/>
<g opacity="0.35">
<path opacity="0.35" d="M1089.33 482.491C1089.33 482.908 1088.9 486.263 1088.9 486.263L1086.53 486.35C1085.68 486.185 1084.9 485.736 1084.34 485.075C1083.77 484.415 1083.44 483.582 1083.41 482.712C1083.37 481.842 1083.63 480.986 1084.15 480.283C1084.66 479.58 1085.4 479.072 1086.24 478.84L1088.6 478.754C1088.6 478.754 1089.3 481.795 1089.33 482.491Z" fill="#371A45"/>
</g>
<path d="M1086.45 487.131C1085.41 486.929 1084.47 486.378 1083.78 485.569C1083.1 484.761 1082.71 483.743 1082.68 482.684C1082.65 481.624 1082.99 480.587 1083.63 479.743C1084.27 478.899 1085.18 478.298 1086.2 478.041H1087.85C1088.25 478.006 1088.65 478.118 1088.97 478.355C1089.29 478.592 1089.51 478.937 1089.59 479.327C1089.85 480.369 1090.05 481.425 1090.18 482.49V482.49C1090.13 483.562 1090.01 484.63 1089.84 485.689C1089.77 486.065 1089.58 486.409 1089.3 486.667C1089.01 486.925 1088.65 487.082 1088.27 487.114H1086.64L1086.45 487.131ZM1087.92 479.553H1086.27C1085.11 479.553 1084.19 480.996 1084.24 482.595C1084.29 484.194 1085.3 485.463 1086.45 485.463H1088.08C1088.32 483.568 1088.41 482.699 1088.41 482.525C1088.28 481.554 1088.09 480.591 1087.85 479.64L1087.87 479.553H1087.92Z" fill="#371A45"/>
<path d="M1088.88 486.248C1090.5 486.185 1091.74 484.453 1091.66 482.381C1091.58 480.309 1090.2 478.681 1088.58 478.745C1086.96 478.809 1085.71 480.54 1085.79 482.612C1085.87 484.684 1087.25 486.312 1088.88 486.248Z" fill="#22A7F0"/>
<g opacity="0.7">
<path opacity="0.7" d="M1091.68 482.369C1091.7 482.618 1091.7 482.868 1091.68 483.116C1091.56 482.408 1091.21 481.761 1090.67 481.28C1090.14 480.8 1089.46 480.516 1088.74 480.474C1087.99 480.585 1087.3 480.957 1086.79 481.526C1086.29 482.095 1086 482.825 1085.98 483.586C1085.9 483.261 1085.85 482.929 1085.84 482.595C1085.71 482.155 1085.69 481.692 1085.77 481.241C1085.85 480.791 1086.03 480.364 1086.3 479.994C1086.57 479.624 1086.92 479.319 1087.32 479.104C1087.73 478.888 1088.17 478.767 1088.63 478.749C1089.09 478.732 1089.54 478.818 1089.96 479.002C1090.38 479.186 1090.75 479.463 1091.05 479.811C1091.35 480.16 1091.56 480.571 1091.68 481.014C1091.79 481.457 1091.8 481.92 1091.71 482.369H1091.68Z" fill="white"/>
</g>
<g opacity="0.35">
<path opacity="0.35" d="M1091.68 482.369C1091.8 482.809 1091.83 483.272 1091.75 483.723C1091.67 484.173 1091.48 484.6 1091.22 484.97C1090.95 485.34 1090.6 485.645 1090.19 485.86C1089.79 486.076 1089.34 486.197 1088.88 486.215C1088.43 486.232 1087.97 486.146 1087.55 485.962C1087.13 485.778 1086.76 485.501 1086.47 485.153C1086.17 484.804 1085.96 484.393 1085.84 483.95C1085.73 483.507 1085.71 483.043 1085.8 482.595C1085.77 482.266 1085.77 481.933 1085.8 481.604C1085.95 482.262 1086.32 482.853 1086.83 483.286C1087.35 483.719 1088 483.971 1088.67 484.003C1089.39 483.906 1090.04 483.57 1090.54 483.048C1091.04 482.527 1091.34 481.852 1091.4 481.135C1091.55 481.532 1091.64 481.947 1091.68 482.369V482.369Z" fill="#371A45"/>
</g>
<path d="M1088.79 487.028C1087.75 486.825 1086.81 486.274 1086.13 485.465C1085.44 484.657 1085.05 483.639 1085.03 482.58C1085 481.521 1085.33 480.483 1085.97 479.639C1086.61 478.795 1087.52 478.195 1088.55 477.937H1088.67C1089.71 478.139 1090.65 478.69 1091.34 479.499C1092.02 480.308 1092.41 481.325 1092.44 482.385C1092.47 483.444 1092.13 484.481 1091.49 485.325C1090.85 486.169 1089.94 486.77 1088.91 487.028H1088.79ZM1088.67 479.519C1087.51 479.519 1086.58 480.961 1086.64 482.56C1086.69 484.16 1087.71 485.481 1088.9 485.428C1090.08 485.376 1090.98 483.986 1090.93 482.387C1090.83 480.753 1089.82 479.536 1088.69 479.536L1088.67 479.519Z" fill="#371A45"/>
<path d="M1094.72 493.042C1094.51 493.042 1094.31 492.96 1094.16 492.814C1094.01 492.667 1093.92 492.468 1093.92 492.259L1093.8 486.593C1093.78 485.817 1093.96 485.049 1094.31 484.357C1094.66 483.666 1095.18 483.072 1095.81 482.63C1096.25 482.332 1096.6 481.928 1096.83 481.456C1097.07 480.985 1097.18 480.461 1097.15 479.935L1096.82 471.957C1096.81 471.843 1096.81 471.727 1096.85 471.617C1096.88 471.507 1096.93 471.404 1097.01 471.317C1097.08 471.23 1097.18 471.16 1097.28 471.113C1097.38 471.065 1097.5 471.04 1097.61 471.04C1097.73 471.04 1097.84 471.065 1097.95 471.113C1098.05 471.16 1098.14 471.23 1098.22 471.317C1098.29 471.404 1098.35 471.507 1098.38 471.617C1098.41 471.727 1098.42 471.843 1098.4 471.957L1098.73 479.935C1098.77 480.729 1098.61 481.519 1098.25 482.23C1097.9 482.942 1097.37 483.552 1096.72 484.003C1096.3 484.296 1095.95 484.689 1095.72 485.147C1095.49 485.605 1095.37 486.114 1095.38 486.628L1095.5 492.294C1095.5 492.399 1095.49 492.504 1095.45 492.601C1095.41 492.699 1095.35 492.789 1095.28 492.865C1095.21 492.94 1095.12 493.001 1095.02 493.044C1094.93 493.086 1094.82 493.109 1094.72 493.111V493.042Z" fill="#371A45"/>
<path d="M1057.42 476.546C1056.33 476.819 1055.36 477.457 1054.68 478.355C1054 479.253 1053.65 480.357 1053.68 481.482C1053.71 482.44 1053.96 483.379 1054.41 484.224C1054.86 485.068 1055.51 485.796 1056.29 486.349C1056.29 486.349 1062.37 489.721 1075.13 487.218C1075.13 487.218 1078.94 482.334 1074.82 479.414C1074.8 479.414 1062.72 480.943 1057.42 476.546Z" fill="white"/>
<g opacity="0.35">
<path opacity="0.35" d="M1075.11 487.236C1062.37 489.739 1056.27 486.366 1056.27 486.366C1055.49 485.813 1054.84 485.086 1054.39 484.241C1053.94 483.396 1053.69 482.457 1053.66 481.499C1053.65 481.256 1053.65 481.013 1053.66 480.769C1054.15 481.751 1054.87 482.603 1055.75 483.255C1055.75 483.255 1061.07 486.193 1072.14 484.541C1073.09 484.408 1073.97 483.989 1074.67 483.34C1075.37 482.69 1075.86 481.842 1076.07 480.908V480.908C1077.86 483.707 1075.11 487.236 1075.11 487.236Z" fill="#371A45"/>
</g>
<path d="M1066.19 489.148C1062.62 489.339 1059.04 488.684 1055.76 487.236V487.236C1054.84 486.59 1054.09 485.735 1053.56 484.741C1053.03 483.747 1052.74 482.642 1052.72 481.517C1052.67 480.155 1053.09 478.818 1053.91 477.73C1054.73 476.641 1055.9 475.867 1057.22 475.538L1057.69 475.451L1058.06 475.746C1062.96 479.814 1074.57 478.406 1074.69 478.406H1075.08L1075.39 478.632C1075.99 479.024 1076.5 479.535 1076.89 480.133C1077.28 480.731 1077.54 481.403 1077.67 482.108C1077.79 484.156 1077.17 486.18 1075.93 487.809L1075.7 488.105H1075.34C1072.33 488.749 1069.27 489.098 1066.19 489.148V489.148ZM1056.81 485.515C1057.33 485.776 1063.15 488.487 1074.54 486.332C1075.34 485.216 1075.75 483.865 1075.7 482.49C1075.58 481.705 1075.17 480.995 1074.54 480.509C1072.36 480.735 1062.37 481.517 1057.15 477.693C1056.38 477.989 1055.71 478.523 1055.26 479.219C1054.8 479.916 1054.58 480.738 1054.62 481.569C1054.66 482.349 1054.88 483.108 1055.26 483.791C1055.64 484.474 1056.17 485.063 1056.81 485.515V485.515Z" fill="#371A45"/>
<path d="M1124.74 440.391H1124.53C1120.85 439.736 1117.53 437.747 1115.22 434.803C1112.92 431.859 1111.77 428.168 1112.01 424.434C1112.04 424.173 1112.17 423.932 1112.37 423.763C1112.57 423.595 1112.83 423.511 1113.09 423.53C1113.22 423.541 1113.35 423.578 1113.47 423.638C1113.58 423.698 1113.68 423.781 1113.77 423.881C1113.85 423.981 1113.92 424.097 1113.95 424.222C1113.99 424.347 1114.01 424.478 1114 424.608C1113.75 427.88 1114.73 431.126 1116.77 433.702C1118.8 436.278 1121.72 437.995 1124.96 438.514C1125.21 438.56 1125.43 438.696 1125.58 438.896C1125.72 439.096 1125.79 439.345 1125.77 439.592C1125.74 439.84 1125.62 440.069 1125.43 440.233C1125.25 440.397 1125 440.484 1124.76 440.478L1124.74 440.391Z" fill="#371A45"/>
<path d="M1137.83 374.565L1140.61 379.397C1140.79 379.708 1140.89 380.061 1140.89 380.421C1140.89 380.781 1140.8 381.135 1140.63 381.449C1140.45 381.764 1140.2 382.027 1139.89 382.212C1139.58 382.398 1139.23 382.5 1138.87 382.509H1133.29C1132.93 382.5 1132.58 382.398 1132.27 382.212C1131.96 382.027 1131.71 381.764 1131.53 381.449C1131.36 381.135 1131.27 380.781 1131.27 380.421C1131.27 380.061 1131.37 379.708 1131.55 379.397L1134.33 374.565C1134.52 374.271 1134.78 374.028 1135.08 373.86C1135.39 373.692 1135.73 373.604 1136.08 373.604C1136.43 373.604 1136.77 373.692 1137.08 373.86C1137.38 374.028 1137.64 374.271 1137.83 374.565V374.565Z" fill="#FFE000"/>
<g opacity="0.35">
<path opacity="0.35" d="M1131.24 379.936C1131.17 380.242 1131.16 380.562 1131.22 380.87C1131.29 381.179 1131.43 381.468 1131.62 381.716C1131.81 381.965 1132.06 382.165 1132.35 382.302C1132.63 382.44 1132.94 382.51 1133.26 382.509V382.509C1132.94 382.51 1132.63 382.44 1132.35 382.302C1132.06 382.165 1131.81 381.965 1131.62 381.716C1131.43 381.468 1131.29 381.179 1131.22 380.87C1131.16 380.562 1131.17 380.242 1131.24 379.936Z" fill="#371A45"/>
</g>
<g opacity="0.35">
<path opacity="0.35" d="M1133.26 380.127H1138.84C1139.18 380.135 1139.51 380.059 1139.82 379.904C1140.12 379.749 1140.38 379.521 1140.57 379.241L1137.88 374.582C1137.7 374.268 1137.44 374.008 1137.12 373.826C1136.81 373.645 1136.45 373.55 1136.09 373.55C1135.73 373.55 1135.37 373.645 1135.06 373.826C1134.74 374.008 1134.48 374.268 1134.3 374.582L1131.6 379.241C1131.79 379.51 1132.03 379.731 1132.32 379.886C1132.61 380.04 1132.93 380.123 1133.26 380.127V380.127Z" fill="#371A45"/>
</g>
<g opacity="0.35">
<path opacity="0.35" d="M1139.11 382.491C1139.52 382.441 1139.9 382.273 1140.21 382.007C1140.52 381.741 1140.74 381.389 1140.85 380.997C1140.74 381.389 1140.52 381.741 1140.21 382.007C1139.9 382.273 1139.52 382.441 1139.11 382.491V382.491Z" fill="#371A45"/>
</g>
<g opacity="0.35">
<path opacity="0.35" d="M1140.82 380.996C1140.84 380.823 1140.84 380.648 1140.82 380.475C1140.84 380.648 1140.84 380.823 1140.82 380.996V380.996Z" fill="#371A45"/>
</g>
<path d="M1138.82 383.882H1133.24C1132.63 383.875 1132.04 383.71 1131.51 383.402C1130.99 383.094 1130.56 382.655 1130.26 382.127C1129.96 381.6 1129.8 381.003 1129.8 380.396C1129.8 379.789 1129.96 379.193 1130.27 378.667L1133.05 373.835C1133.35 373.312 1133.78 372.877 1134.3 372.572C1134.82 372.268 1135.42 372.104 1136.02 372.097V372.097C1136.63 372.101 1137.22 372.263 1137.75 372.568C1138.27 372.873 1138.71 373.31 1139.01 373.835L1141.76 378.72C1142.06 379.247 1142.22 379.844 1142.22 380.453C1142.22 381.061 1142.06 381.659 1141.76 382.187C1141.46 382.715 1141.02 383.154 1140.5 383.461C1139.97 383.767 1139.37 383.931 1138.77 383.934L1138.82 383.882ZM1136.04 374.913C1135.91 374.91 1135.79 374.941 1135.68 375.002C1135.58 375.063 1135.49 375.153 1135.43 375.261L1132.65 380.093C1132.59 380.199 1132.55 380.319 1132.55 380.442C1132.55 380.565 1132.59 380.685 1132.65 380.791C1132.71 380.897 1132.8 380.984 1132.91 381.045C1133.01 381.106 1133.13 381.137 1133.26 381.136H1138.84C1138.96 381.137 1139.08 381.106 1139.18 381.045C1139.29 380.984 1139.38 380.897 1139.44 380.791C1139.5 380.685 1139.54 380.565 1139.54 380.442C1139.54 380.319 1139.5 380.199 1139.44 380.093L1136.66 375.261C1136.6 375.15 1136.51 375.059 1136.4 374.997C1136.29 374.936 1136.16 374.907 1136.04 374.913V374.913Z" fill="#371A45"/>
<path d="M1108.82 341.696C1109.6 357.618 1126.2 376.599 1136.21 376.095C1146.22 375.591 1160.88 355.132 1160.09 339.21C1159.31 323.288 1147.2 310.964 1133.06 311.659C1118.93 312.355 1108.03 325.826 1108.82 341.696Z" fill="#FFE000"/>
<g opacity="0.7">
<path opacity="0.7" d="M1108.82 341.696V341.835C1109.58 327.425 1119.87 315.762 1133.03 315.101C1147.06 314.406 1159.1 326.504 1160.06 342.182C1160.11 341.175 1160.11 340.165 1160.06 339.158C1159.28 323.236 1147.16 310.895 1132.99 311.607C1118.83 312.32 1108.03 325.826 1108.82 341.696Z" fill="white"/>
</g>
<g opacity="0.35">
<path opacity="0.35" d="M1108.82 338.219C1109.6 354.141 1126.2 373.105 1136.21 372.618C1146.22 372.132 1160.87 351.569 1160.09 335.647C1160.09 335.508 1160.09 335.351 1160.09 335.212C1157.85 347.519 1145.18 361.129 1136.24 361.563C1126.18 362.068 1109.81 346.441 1109.15 333.231C1109.15 332.848 1109.15 332.448 1109.15 332.066C1108.84 334.102 1108.73 336.162 1108.82 338.219V338.219Z" fill="#371A45"/>
</g>
<path d="M1135.85 377.52C1130.63 377.52 1123.89 373.14 1117.98 365.961C1111.75 358.4 1107.83 349.378 1107.44 341.8C1106.98 333.984 1109.41 326.27 1114.26 320.124C1116.49 317.242 1119.32 314.872 1122.55 313.175C1125.78 311.477 1129.34 310.492 1132.98 310.286C1147.86 309.556 1160.65 322.454 1161.47 339.14C1161.83 346.719 1158.81 356.088 1153.37 364.223C1147.93 372.358 1141.5 377.259 1136.28 377.503L1135.85 377.52ZM1134.11 312.998H1133.03C1129.78 313.19 1126.6 314.078 1123.72 315.601C1120.84 317.125 1118.32 319.248 1116.33 321.828C1111.91 327.473 1109.73 334.544 1110.19 341.696C1110.54 348.648 1114.24 357.131 1120.1 364.292C1125.56 370.915 1131.87 375.052 1136.14 374.843C1145.35 374.391 1159.47 354.489 1158.74 339.349C1157.99 324.557 1147.09 312.998 1134.18 312.998H1134.11Z" fill="#371A45"/>
<g opacity="0.7">
<path opacity="0.7" d="M1134.07 319.534C1127.22 319.047 1122.46 321.115 1118.79 325.252C1115.13 329.389 1115.93 333.943 1119.77 333.943C1123.61 333.943 1125.16 327.981 1134.19 325.252C1140.02 323.445 1139.46 319.916 1134.07 319.534Z" fill="white"/>
</g>
<path d="M1066.49 445.623L1063.94 455.566L1059.37 473.347L1057.73 473.938C1052.85 475.686 1048.45 478.549 1044.87 482.299C1042.58 484.387 1040.05 486.201 1037.34 487.705C1030.01 492.19 1017.04 484.889 1027.36 470.879C1034.43 461.268 1044.14 453.923 1055.32 449.743C1058.22 448.578 1060.95 447.639 1063.36 446.77C1064.48 446.405 1065.52 445.988 1066.49 445.623Z" fill="white"/>
<g opacity="0.35">
<path opacity="0.35" d="M1059.37 473.348C1053.86 475.058 1048.88 478.138 1044.89 482.299C1042.59 484.388 1040.06 486.202 1037.34 487.705C1031.26 491.425 1021.32 487.045 1023.96 477.467C1026.3 493.945 1040.54 483.238 1045.55 477.884C1053.52 469.35 1062.93 466.795 1063.8 468.429C1064.67 470.063 1059.37 473.348 1059.37 473.348Z" fill="#371A45"/>
</g>
<path d="M1032.53 490.312C1031.06 490.33 1029.61 490.045 1028.26 489.477C1026.91 488.909 1025.7 488.069 1024.69 487.01C1020.95 482.925 1021.57 476.58 1026.42 470.149C1037.93 454.505 1051.52 449.69 1061.47 446.144C1063.2 445.553 1064.7 444.997 1066.09 444.406C1066.4 444.282 1066.75 444.287 1067.06 444.421C1067.37 444.554 1067.62 444.805 1067.74 445.119C1067.87 445.432 1067.86 445.782 1067.73 446.092C1067.59 446.402 1067.34 446.646 1067.03 446.77C1065.59 447.344 1064 447.917 1062.32 448.508C1052.71 451.985 1039.53 456.643 1028.48 471.627C1024.43 477.119 1023.75 482.056 1026.65 485.254C1027.94 486.581 1029.64 487.437 1031.47 487.682C1033.31 487.928 1035.17 487.551 1036.77 486.61C1039.39 485.16 1041.84 483.411 1044.07 481.395C1047.97 477.319 1052.8 474.253 1058.15 472.461L1059 472.148C1059.15 472.09 1059.32 472.063 1059.49 472.069C1059.65 472.075 1059.82 472.114 1059.97 472.183C1060.12 472.253 1060.26 472.351 1060.37 472.473C1060.49 472.596 1060.57 472.739 1060.63 472.895C1060.69 473.052 1060.72 473.218 1060.71 473.385C1060.71 473.552 1060.67 473.715 1060.6 473.867C1060.53 474.019 1060.43 474.155 1060.31 474.269C1060.18 474.383 1060.04 474.471 1059.89 474.529L1059 474.842C1053.99 476.508 1049.47 479.38 1045.84 483.203C1043.48 485.368 1040.87 487.247 1038.07 488.8C1036.4 489.813 1034.48 490.337 1032.53 490.312Z" fill="#371A45"/>
<path d="M1112.38 417.499C1112.28 417.525 1112.18 417.532 1112.08 417.519C1111.98 417.506 1111.89 417.474 1111.8 417.424C1111.71 417.374 1111.64 417.307 1111.58 417.228C1111.51 417.148 1111.47 417.057 1111.44 416.96L1105.71 395.754C1105.68 395.657 1105.67 395.556 1105.69 395.456C1105.7 395.356 1105.73 395.26 1105.78 395.173C1105.83 395.086 1105.9 395.009 1105.98 394.948C1106.06 394.886 1106.15 394.841 1106.25 394.815V394.815C1107.26 394.539 1108.32 394.465 1109.36 394.599C1110.41 394.733 1111.41 395.071 1112.32 395.594C1113.24 396.117 1114.04 396.815 1114.68 397.648C1115.32 398.48 1115.79 399.432 1116.07 400.447L1118.03 407.678C1118.31 408.694 1118.38 409.754 1118.24 410.798C1118.11 411.842 1117.77 412.849 1117.25 413.762C1116.72 414.674 1116.02 415.474 1115.19 416.115C1114.35 416.757 1113.4 417.227 1112.38 417.499V417.499Z" fill="white"/>
<path d="M1112.2 417.795C1111.98 417.794 1111.76 417.719 1111.58 417.581C1111.4 417.443 1111.27 417.249 1111.21 417.03L1105.46 395.824C1105.42 395.692 1105.41 395.555 1105.43 395.42C1105.45 395.285 1105.49 395.154 1105.56 395.036C1105.63 394.918 1105.72 394.815 1105.83 394.732C1105.94 394.649 1106.06 394.589 1106.19 394.555C1107.24 394.271 1108.33 394.196 1109.41 394.334C1110.49 394.473 1111.53 394.823 1112.47 395.364C1113.42 395.904 1114.24 396.625 1114.91 397.486C1115.57 398.346 1116.06 399.329 1116.34 400.378L1118.31 407.609C1118.59 408.658 1118.67 409.752 1118.53 410.83C1118.39 411.908 1118.04 412.948 1117.5 413.891C1116.96 414.833 1116.24 415.66 1115.38 416.324C1114.51 416.988 1113.53 417.476 1112.48 417.76L1112.2 417.795ZM1108.35 394.816C1107.66 394.819 1106.99 394.912 1106.33 395.094C1106.27 395.11 1106.21 395.138 1106.15 395.178C1106.1 395.218 1106.06 395.267 1106.03 395.324C1105.99 395.381 1105.97 395.444 1105.97 395.509C1105.96 395.573 1105.96 395.639 1105.98 395.702L1111.74 416.908C1111.75 416.972 1111.78 417.031 1111.82 417.083C1111.86 417.135 1111.91 417.179 1111.97 417.211C1112.02 417.244 1112.09 417.264 1112.15 417.272C1112.22 417.28 1112.28 417.274 1112.34 417.256V417.256C1113.32 416.99 1114.24 416.534 1115.05 415.913C1115.85 415.292 1116.52 414.519 1117.03 413.637C1117.54 412.756 1117.86 411.784 1117.99 410.776C1118.12 409.769 1118.05 408.746 1117.78 407.765L1115.82 400.534C1115.37 398.89 1114.4 397.439 1113.04 396.406C1111.69 395.372 1110.03 394.813 1108.33 394.816H1108.35Z" fill="#371A45"/>
<g opacity="0.35">
<path opacity="0.35" d="M1117.09 404.271L1118.01 407.748C1118.29 408.762 1118.36 409.822 1118.23 410.865C1118.09 411.908 1117.76 412.914 1117.23 413.826C1116.71 414.739 1116.01 415.539 1115.18 416.181C1114.35 416.823 1113.4 417.295 1112.38 417.569C1112.28 417.595 1112.18 417.602 1112.08 417.589C1111.98 417.576 1111.89 417.544 1111.8 417.494C1111.71 417.444 1111.64 417.377 1111.57 417.297C1111.51 417.218 1111.47 417.127 1111.44 417.03L1109.91 411.398C1110 411.512 1110.13 411.596 1110.27 411.643C1110.4 411.689 1110.55 411.694 1110.69 411.659L1111.2 411.52C1112.82 411.082 1114.26 410.146 1115.31 408.845C1116.37 407.545 1116.99 405.945 1117.09 404.271V404.271Z" fill="#371A45"/>
</g>
<path d="M1112.2 418.802C1111.76 418.803 1111.33 418.657 1110.97 418.387C1110.62 418.117 1110.36 417.737 1110.24 417.307L1104.49 396.101C1104.42 395.843 1104.4 395.574 1104.43 395.308C1104.46 395.043 1104.55 394.786 1104.68 394.554C1104.81 394.321 1104.99 394.117 1105.2 393.953C1105.41 393.789 1105.65 393.669 1105.91 393.598C1108.28 392.959 1110.81 393.287 1112.94 394.509C1115.07 395.73 1116.63 397.747 1117.28 400.116L1119.24 407.347C1119.56 408.522 1119.65 409.747 1119.49 410.954C1119.34 412.161 1118.95 413.326 1118.34 414.382C1117.74 415.437 1116.93 416.363 1115.96 417.107C1115 417.85 1113.9 418.397 1112.73 418.715C1112.56 418.767 1112.38 418.796 1112.2 418.802V418.802ZM1106.99 395.927L1112.47 416.108C1114.06 415.541 1115.39 414.391 1116.17 412.889C1116.96 411.387 1117.15 409.644 1116.71 408.008L1114.83 400.794C1114.39 399.139 1113.33 397.714 1111.87 396.81C1110.42 395.906 1108.67 395.591 1106.99 395.927V395.927Z" fill="#371A45"/>
<path d="M1036.25 413.779C1036.34 413.753 1036.45 413.746 1036.54 413.758C1036.64 413.771 1036.74 413.804 1036.83 413.854C1036.92 413.904 1036.99 413.971 1037.05 414.05C1037.11 414.13 1037.16 414.221 1037.19 414.318L1042.94 435.559C1042.97 435.656 1042.97 435.757 1042.96 435.857C1042.95 435.956 1042.91 436.052 1042.86 436.14C1042.81 436.227 1042.75 436.303 1042.67 436.365C1042.59 436.426 1042.5 436.471 1042.4 436.497V436.497C1041.39 436.774 1040.33 436.847 1039.28 436.713C1038.24 436.58 1037.23 436.242 1036.32 435.719C1035.41 435.196 1034.61 434.498 1033.97 433.665C1033.32 432.832 1032.85 431.881 1032.58 430.865L1030.62 423.635C1030.33 422.618 1030.26 421.555 1030.39 420.508C1030.52 419.461 1030.86 418.45 1031.38 417.534C1031.9 416.618 1032.6 415.814 1033.44 415.17C1034.27 414.525 1035.23 414.053 1036.25 413.779V413.779Z" fill="white"/>
<path d="M1040.3 437.002C1038.47 437.013 1036.69 436.421 1035.24 435.318C1033.78 434.214 1032.73 432.662 1032.25 430.9L1030.28 423.67C1030 422.621 1029.92 421.526 1030.06 420.448C1030.2 419.37 1030.55 418.33 1031.09 417.388C1031.63 416.445 1032.35 415.618 1033.21 414.954C1034.07 414.29 1035.06 413.802 1036.11 413.518C1036.24 413.482 1036.37 413.471 1036.51 413.488C1036.65 413.505 1036.78 413.549 1036.89 413.617C1037.01 413.685 1037.12 413.776 1037.2 413.884C1037.28 413.993 1037.34 414.116 1037.38 414.248L1043.13 435.455C1043.17 435.586 1043.18 435.723 1043.16 435.858C1043.14 435.994 1043.1 436.124 1043.03 436.242C1042.96 436.36 1042.87 436.464 1042.76 436.546C1042.65 436.629 1042.53 436.689 1042.4 436.723C1041.71 436.906 1041.01 437 1040.3 437.002V437.002ZM1036.31 414.04C1035.33 414.306 1034.42 414.762 1033.61 415.383C1032.81 416.004 1032.13 416.777 1031.63 417.658C1031.12 418.54 1030.8 419.512 1030.67 420.519C1030.54 421.527 1030.61 422.55 1030.87 423.53L1032.84 430.761C1033.1 431.742 1033.56 432.66 1034.18 433.464C1034.8 434.268 1035.58 434.942 1036.46 435.447C1037.34 435.953 1038.31 436.279 1039.32 436.409C1040.33 436.538 1041.35 436.468 1042.33 436.202C1042.4 436.187 1042.46 436.157 1042.51 436.115C1042.57 436.073 1042.62 436.02 1042.65 435.959C1042.68 435.898 1042.7 435.831 1042.71 435.762C1042.71 435.693 1042.7 435.624 1042.68 435.559L1036.92 414.353C1036.91 414.289 1036.88 414.23 1036.84 414.178C1036.8 414.126 1036.75 414.082 1036.69 414.05C1036.64 414.017 1036.57 413.997 1036.51 413.989C1036.44 413.981 1036.38 413.987 1036.31 414.005V414.04Z" fill="#371A45"/>
<g opacity="0.35">
<path opacity="0.35" d="M1041.34 429.649L1042.94 435.524C1042.96 435.621 1042.97 435.722 1042.96 435.822C1042.94 435.922 1042.91 436.018 1042.86 436.105C1042.81 436.192 1042.75 436.268 1042.67 436.33C1042.59 436.391 1042.5 436.436 1042.4 436.462C1041.38 436.739 1040.32 436.812 1039.28 436.679C1038.24 436.545 1037.23 436.207 1036.32 435.684C1035.41 435.161 1034.61 434.463 1033.97 433.63C1033.32 432.797 1032.85 431.846 1032.58 430.831L1031.74 427.789C1032.73 428.964 1034.04 429.83 1035.5 430.283C1036.97 430.737 1038.54 430.758 1040.02 430.344L1040.8 430.135C1040.92 430.105 1041.04 430.045 1041.13 429.96C1041.22 429.875 1041.3 429.768 1041.34 429.649V429.649Z" fill="#371A45"/>
</g>
<path d="M1040.29 438.01C1038.26 438.008 1036.28 437.337 1034.66 436.1C1033.04 434.862 1031.88 433.127 1031.34 431.161L1029.38 423.93C1028.74 421.558 1029.07 419.03 1030.29 416.9C1031.51 414.769 1033.53 413.209 1035.9 412.562C1036.16 412.491 1036.42 412.472 1036.69 412.505C1036.96 412.538 1037.21 412.623 1037.44 412.755C1037.68 412.888 1037.88 413.065 1038.05 413.276C1038.21 413.488 1038.33 413.729 1038.4 413.988L1044.15 435.194C1044.22 435.452 1044.24 435.721 1044.21 435.987C1044.18 436.252 1044.09 436.509 1043.96 436.741C1043.83 436.974 1043.65 437.178 1043.44 437.342C1043.23 437.506 1042.99 437.626 1042.73 437.697C1041.93 437.908 1041.12 438.014 1040.29 438.01V438.01ZM1036.09 415.17C1034.49 415.74 1033.17 416.89 1032.39 418.391C1031.6 419.892 1031.41 421.634 1031.85 423.27L1033.81 430.501C1034.25 432.137 1035.3 433.546 1036.74 434.445C1038.17 435.344 1039.9 435.668 1041.56 435.35L1036.09 415.17Z" fill="#371A45"/>
<g opacity="0.35">
<path opacity="0.35" d="M1106.33 431.561C1105.76 436.267 1104.1 440.774 1101.47 444.719C1098.84 448.664 1095.32 451.937 1091.2 454.274C1087.07 456.611 1082.46 457.947 1077.72 458.174C1072.99 458.402 1068.26 457.514 1063.94 455.583C1063.16 455.235 1062.41 454.859 1061.68 454.453C1059.37 453.177 1057.23 451.605 1055.33 449.777C1058.23 448.613 1060.96 447.674 1063.38 446.805C1064.54 442.39 1066 438.514 1067.57 438.514H1093.43C1094.77 438.497 1096.1 438.733 1097.34 439.209L1098.16 438.601C1101.03 436.43 1103.76 434.078 1106.33 431.561V431.561Z" fill="#371A45"/>
</g>
<path d="M1081.51 452.386C1101.8 448.408 1115.03 428.734 1111.05 408.442C1107.08 388.15 1087.4 374.925 1067.11 378.902C1046.82 382.88 1033.59 402.554 1037.57 422.846C1041.55 443.138 1061.22 456.363 1081.51 452.386Z" fill="white"/>
<path d="M1074.24 453.358C1064.55 453.349 1055.23 449.612 1048.22 442.921C1041.2 436.23 1037.03 427.097 1036.57 417.415C1036.1 407.732 1039.38 398.242 1045.72 390.909C1052.06 383.577 1060.98 378.965 1070.63 378.027C1080.27 377.09 1089.91 379.899 1097.55 385.874C1105.18 391.849 1110.22 400.531 1111.63 410.122C1113.04 419.712 1110.7 429.477 1105.11 437.393C1099.51 445.31 1091.09 450.771 1081.58 452.645C1079.16 453.119 1076.7 453.358 1074.24 453.358V453.358ZM1074.4 378.459C1071.97 378.462 1069.55 378.7 1067.17 379.171C1059.96 380.587 1053.33 384.109 1048.12 389.293C1042.91 394.477 1039.35 401.088 1037.9 408.293C1036.44 415.497 1037.16 422.971 1039.96 429.768C1042.75 436.566 1047.5 442.382 1053.6 446.482C1059.7 450.581 1066.87 452.78 1074.22 452.801C1081.57 452.821 1088.76 450.662 1094.89 446.596C1101.01 442.53 1105.79 436.74 1108.62 429.958C1111.45 423.176 1112.21 415.707 1110.8 408.495V408.495C1109.14 400.051 1104.61 392.443 1097.97 386.966C1091.33 381.489 1083 378.483 1074.4 378.459V378.459Z" fill="#371A45"/>
<g opacity="0.35">
<path opacity="0.35" d="M1109.7 403.419C1111.4 408.278 1112.07 413.433 1111.68 418.563C1111.3 423.693 1109.85 428.688 1107.45 433.237C1105.05 437.786 1101.73 441.79 1097.71 445C1093.69 448.21 1089.05 450.557 1084.08 451.894C1079.11 453.232 1073.92 453.531 1068.84 452.774C1063.75 452.016 1058.87 450.218 1054.51 447.491C1050.14 444.764 1046.39 441.168 1043.48 436.925C1040.57 432.683 1038.56 427.887 1037.59 422.835C1037.46 422.244 1037.38 421.671 1037.29 421.097C1040.34 429.913 1046.56 437.275 1054.75 441.742C1062.94 446.208 1072.5 447.458 1081.56 445.247C1090.62 443.036 1098.53 437.522 1103.74 429.786C1108.95 422.049 1111.08 412.647 1109.72 403.419H1109.7Z" fill="#371A45"/>
</g>
<path d="M1074.24 454.349C1066.91 454.333 1059.73 452.235 1053.55 448.298C1047.36 444.362 1042.42 438.748 1039.3 432.112C1036.18 425.476 1035 418.09 1035.92 410.814C1036.83 403.538 1039.79 396.671 1044.46 391.013C1049.13 385.355 1055.3 381.138 1062.27 378.854C1069.24 376.571 1076.71 376.313 1083.82 378.112C1090.93 379.911 1097.38 383.692 1102.43 389.016C1107.47 394.339 1110.9 400.986 1112.31 408.182C1113.4 413.796 1113.24 419.583 1111.83 425.126C1110.43 430.67 1107.81 435.833 1104.17 440.246C1100.53 444.659 1095.96 448.212 1090.79 450.65C1085.61 453.089 1079.96 454.352 1074.24 454.349V454.349ZM1074.4 379.45C1072.07 379.458 1069.74 379.691 1067.45 380.145C1060.43 381.523 1053.98 384.95 1048.91 389.993C1043.84 395.037 1040.39 401.47 1038.97 408.479C1037.56 415.488 1038.26 422.759 1040.98 429.371C1043.7 435.984 1048.31 441.642 1054.25 445.63C1060.18 449.618 1067.17 451.757 1074.32 451.776C1081.47 451.796 1088.46 449.694 1094.42 445.738C1100.38 441.782 1105.02 436.149 1107.78 429.55C1110.53 422.952 1111.27 415.685 1109.89 408.669V408.669C1108.28 400.444 1103.85 393.036 1097.38 387.71C1090.91 382.384 1082.78 379.47 1074.4 379.467V379.45Z" fill="#371A45"/>
<path d="M1111.13 409.486C1112.6 416.435 1111.82 423.671 1108.92 430.153C1106.82 434.916 1096.08 444.737 1080.97 448.074C1066.96 451.168 1052.6 446.336 1048.74 442.859C1043.45 438.117 1039.8 431.818 1038.31 424.869C1034.32 405.853 1048.95 394.537 1069.05 390.366C1089.14 386.194 1107.11 390.366 1111.13 409.486Z" fill="#4C23AA"/>
<g opacity="0.5">
<path opacity="0.5" d="M1098.96 416.74C1101.6 416.662 1103.66 413.635 1103.56 409.979C1103.45 406.323 1101.21 403.423 1098.57 403.501C1095.92 403.579 1093.86 406.606 1093.97 410.262C1094.07 413.918 1096.31 416.818 1098.96 416.74Z" fill="white"/>
</g>
<g opacity="0.5">
<path opacity="0.5" d="M1097.69 425.339C1097.87 423.676 1096.87 422.2 1095.44 422.041C1094.02 421.883 1092.71 423.103 1092.53 424.766C1092.34 426.429 1093.35 427.906 1094.77 428.064C1096.2 428.222 1097.5 427.003 1097.69 425.339Z" fill="white"/>
</g>
<g opacity="0.35">
<path opacity="0.35" d="M1100.3 393.216C1103.14 395.007 1105.57 397.374 1107.44 400.165C1109.3 402.956 1110.56 406.108 1111.13 409.416C1112.6 416.366 1111.82 423.601 1108.92 430.084C1106.82 434.846 1096.08 444.667 1080.97 448.005C1075.83 449.102 1070.54 449.314 1065.33 448.63C1083.82 444.128 1096.88 432.1 1099.48 426.19C1103.16 417.968 1104.14 408.791 1102.28 399.978C1101.83 397.667 1101.17 395.404 1100.3 393.216V393.216Z" fill="#111A28"/>
</g>
<path d="M1166.99 92.0733C1166.89 91.7039 1167.56 91.1824 1168.64 90.7131C1168.91 90.5954 1169.13 90.3958 1169.28 90.1432C1169.43 89.8906 1169.49 89.5981 1169.46 89.3081C1169.32 88.1382 1169.45 87.2926 1169.81 87.1982C1170.16 87.1037 1170.7 87.7693 1171.17 88.8492C1171.29 89.1161 1171.48 89.3386 1171.74 89.4845C1171.99 89.6303 1172.28 89.6919 1172.57 89.6604C1173.74 89.5269 1174.59 89.6602 1174.68 90.0128C1174.78 90.3654 1174.11 90.9036 1173.03 91.373C1172.76 91.4906 1172.54 91.6902 1172.4 91.9429C1172.25 92.1955 1172.19 92.488 1172.22 92.778C1172.35 93.9479 1172.22 94.7934 1171.87 94.8879C1171.52 94.9824 1170.98 94.3168 1170.51 93.2369C1170.39 92.97 1170.19 92.7474 1169.94 92.6016C1169.69 92.4557 1169.39 92.3941 1169.1 92.4257C1167.95 92.6264 1167.09 92.4426 1166.99 92.0733Z" fill="white"/>
<path d="M1014.4 195.871C1014.38 195.445 1015.24 195.035 1016.52 194.781C1016.84 194.715 1017.12 194.551 1017.34 194.312C1017.56 194.073 1017.69 193.771 1017.73 193.45C1017.88 192.148 1018.21 191.27 1018.63 191.246C1019.06 191.222 1019.47 192.084 1019.72 193.365C1019.79 193.682 1019.95 193.969 1020.19 194.186C1020.43 194.403 1020.73 194.539 1021.05 194.574C1022.36 194.729 1023.25 195.047 1023.26 195.477C1023.26 195.907 1022.42 196.314 1021.14 196.567C1020.82 196.633 1020.53 196.797 1020.32 197.037C1020.1 197.276 1019.96 197.578 1019.93 197.899C1019.77 199.2 1019.46 200.095 1019.03 200.102C1018.6 200.11 1018.19 199.265 1017.94 197.983C1017.87 197.667 1017.71 197.379 1017.47 197.162C1017.23 196.945 1016.93 196.809 1016.6 196.774C1015.29 196.64 1014.41 196.301 1014.4 195.871Z" fill="white"/>
<path d="M1024.87 338.415C1024.74 337.928 1025.61 337.243 1027.03 336.628C1027.39 336.482 1027.68 336.223 1027.87 335.892C1028.06 335.561 1028.14 335.177 1028.09 334.798C1027.93 333.257 1028.08 332.154 1028.55 332.028C1029.02 331.902 1029.73 332.776 1030.34 334.195C1030.49 334.548 1030.74 334.843 1031.08 335.034C1031.41 335.225 1031.79 335.301 1032.17 335.252C1033.71 335.091 1034.81 335.245 1034.94 335.715C1035.07 336.186 1034.19 336.888 1032.78 337.518C1032.42 337.665 1032.13 337.924 1031.94 338.255C1031.75 338.586 1031.67 338.97 1031.72 339.349C1031.88 340.89 1031.73 341.993 1031.26 342.119C1030.79 342.245 1030.08 341.371 1029.47 339.952C1029.32 339.599 1029.07 339.304 1028.73 339.113C1028.4 338.922 1028.02 338.846 1027.64 338.895C1026.17 339.038 1025 338.902 1024.87 338.415Z" fill="white"/>
<path d="M1038.84 256.104C1038.06 256.313 1037.6 257.113 1037.81 257.892C1038.01 258.671 1038.81 259.133 1039.59 258.925C1040.37 258.716 1040.83 257.915 1040.63 257.136C1040.42 256.357 1039.62 255.895 1038.84 256.104Z" fill="white"/>
<path d="M1005.24 159.596C1004.8 160.211 1004.94 161.07 1005.55 161.513C1006.17 161.957 1007.03 161.818 1007.47 161.203C1007.91 160.588 1007.78 159.729 1007.16 159.286C1006.55 158.842 1005.69 158.981 1005.24 159.596Z" fill="white"/>
<path d="M1049.21 154.401C1048.96 155.327 1049.5 156.284 1050.43 156.538C1051.35 156.793 1052.31 156.249 1052.57 155.323C1052.82 154.398 1052.28 153.441 1051.35 153.186C1050.42 152.932 1049.47 153.476 1049.21 154.401Z" fill="white"/>
<path d="M1216.05 248.712C1214.98 249.129 1214.46 250.329 1214.87 251.393C1215.29 252.456 1216.49 252.981 1217.55 252.565C1218.62 252.148 1219.14 250.948 1218.73 249.884C1218.31 248.821 1217.11 248.296 1216.05 248.712Z" fill="white"/>
<path d="M1059.33 356.48C1058.55 356.689 1058.08 357.49 1058.29 358.268C1058.5 359.047 1059.3 359.51 1060.08 359.301C1060.86 359.092 1061.32 358.292 1061.11 357.513C1060.91 356.734 1060.1 356.271 1059.33 356.48Z" fill="white"/>
<path d="M1196.64 313.65C1195.58 314.067 1195.05 315.267 1195.47 316.331C1195.88 317.394 1197.08 317.919 1198.15 317.503C1199.21 317.086 1199.74 315.886 1199.32 314.822C1198.9 313.759 1197.7 313.234 1196.64 313.65Z" fill="white"/>
<path d="M1185.98 100.283C1185.1 100.519 1184.58 101.425 1184.81 102.306C1185.05 103.187 1185.96 103.709 1186.84 103.473C1187.72 103.237 1188.24 102.332 1188 101.451C1187.77 100.57 1186.86 100.047 1185.98 100.283Z" fill="white"/>
<path d="M1015.38 283.011C1014.98 283.118 1014.75 283.528 1014.85 283.927C1014.96 284.326 1015.37 284.562 1015.77 284.455C1016.17 284.348 1016.41 283.939 1016.3 283.54C1016.19 283.141 1015.78 282.905 1015.38 283.011Z" fill="white"/>
<path d="M1036.03 115.4C1035.74 115.797 1035.83 116.351 1036.23 116.637C1036.63 116.924 1037.18 116.834 1037.47 116.437C1037.75 116.04 1037.66 115.486 1037.27 115.199C1036.87 114.913 1036.32 115.003 1036.03 115.4Z" fill="white"/>
<path d="M1172.29 282.502C1171.75 282.716 1171.48 283.331 1171.69 283.876C1171.9 284.421 1172.52 284.69 1173.06 284.477C1173.61 284.263 1173.88 283.648 1173.67 283.103C1173.45 282.558 1172.84 282.289 1172.29 282.502Z" fill="white"/>
<path d="M1196.65 229.991C1196.09 230.171 1195.78 230.769 1195.96 231.326C1196.14 231.883 1196.74 232.189 1197.3 232.01C1197.86 231.83 1198.16 231.232 1197.98 230.675C1197.8 230.118 1197.2 229.812 1196.65 229.991Z" fill="white"/>
<path d="M1186.03 160.301C1186.15 160.756 1186.62 161.027 1187.08 160.906C1187.53 160.785 1187.8 160.318 1187.68 159.864C1187.56 159.409 1187.09 159.139 1186.64 159.259C1186.18 159.38 1185.91 159.847 1186.03 160.301Z" fill="white"/>
<path d="M1204.54 170.73C1204.7 171.664 1205.58 172.297 1206.51 172.146C1207.44 171.994 1208.08 171.114 1207.92 170.181C1207.77 169.247 1206.89 168.614 1205.96 168.765C1205.03 168.917 1204.39 169.797 1204.54 170.73Z" fill="white"/>
<path d="M1098.17 328.437C1098.15 328.352 1098.13 328.268 1098.1 328.187L1098.17 328.437Z" fill="#D66B09"/>
<path d="M1110.31 298.208C1110.3 298.123 1110.28 298.039 1110.25 297.958L1110.31 298.208Z" fill="#D66B09"/>
<path d="M1075.52 307.027L1075.67 306.79L1075.52 307.027Z" fill="#D66B09"/>
<path d="M1092.79 132.867C1094.2 132.362 1095.8 131.808 1097.54 131.252L1094.67 132.021C1093.99 132.186 1093.36 132.472 1092.79 132.867V132.867Z" fill="white"/>
<path d="M1083.7 151.645C1084.3 154.027 1086.72 155.471 1089.11 154.869C1091.49 154.267 1092.93 151.847 1092.33 149.465C1091.73 147.082 1089.31 145.638 1086.93 146.24C1084.54 146.842 1083.1 149.262 1083.7 151.645Z" fill="white"/>
<g opacity="0.35">
<path opacity="0.35" d="M1090.4 137.845C1090.64 137.707 1090.9 137.595 1091.17 137.512L1111.22 131.221C1112.37 130.861 1113.61 130.968 1114.67 131.519C1115.74 132.07 1116.54 133.019 1116.91 134.161L1118.9 140.465C1118.48 139.888 1117.93 139.428 1117.28 139.128C1116.64 138.828 1115.93 138.698 1115.22 138.751C1114.77 138.92 1114.38 139.192 1114.05 139.544C1113.73 139.895 1113.5 140.318 1113.37 140.777L1111.8 135.798C1111.44 134.657 1110.63 133.707 1109.57 133.156C1108.5 132.605 1107.26 132.498 1106.12 132.858L1090.4 137.845Z" fill="#371A45"/>
</g>
<g opacity="0.35">
<path opacity="0.35" d="M1164.42 182.469L1161.36 177.208C1161.31 177.121 1161.27 177.025 1161.26 176.925C1161.25 176.826 1161.25 176.725 1161.28 176.627C1161.3 176.53 1161.35 176.439 1161.41 176.359C1161.47 176.279 1161.55 176.212 1161.63 176.162C1162.54 175.632 1163.55 175.287 1164.59 175.146C1165.63 175.005 1166.69 175.071 1167.71 175.341C1168.72 175.61 1169.68 176.077 1170.51 176.715C1171.35 177.353 1172.05 178.15 1172.58 179.06L1174.17 181.782C1172.91 180.903 1171.43 180.404 1169.89 180.346C1168.36 180.288 1166.84 180.673 1165.52 181.456L1164.82 181.859C1164.7 181.92 1164.61 182.008 1164.54 182.114C1164.47 182.221 1164.43 182.343 1164.42 182.469V182.469Z" fill="#371A45"/>
</g>
<path d="M1032.4 362.371C1032.3 362.001 1032.97 361.48 1034.05 361.01C1034.32 360.893 1034.54 360.693 1034.68 360.441C1034.83 360.188 1034.89 359.895 1034.86 359.605C1034.73 358.436 1034.86 357.59 1035.21 357.496C1035.57 357.401 1036.1 358.067 1036.57 359.147C1036.69 359.413 1036.89 359.636 1037.14 359.782C1037.4 359.928 1037.69 359.989 1037.98 359.958C1039.15 359.824 1039.99 359.958 1040.09 360.31C1040.18 360.663 1039.52 361.201 1038.44 361.67C1038.17 361.788 1037.95 361.988 1037.8 362.24C1037.66 362.493 1037.59 362.785 1037.63 363.075C1037.76 364.245 1037.63 365.091 1037.27 365.185C1036.92 365.28 1036.38 364.614 1035.91 363.534C1035.8 363.267 1035.6 363.045 1035.34 362.899C1035.09 362.753 1034.8 362.691 1034.51 362.723C1033.36 362.924 1032.5 362.74 1032.4 362.371Z" fill="white"/>
<path d="M879.808 466.169C879.783 465.743 880.645 465.332 881.927 465.079C882.243 465.013 882.53 464.849 882.748 464.61C882.965 464.37 883.101 464.068 883.136 463.747C883.291 462.446 883.613 461.568 884.039 461.544C884.464 461.52 884.875 462.381 885.129 463.663C885.194 463.979 885.359 464.267 885.598 464.484C885.837 464.701 886.139 464.837 886.46 464.872C887.761 465.027 888.656 465.345 888.664 465.775C888.671 466.205 887.826 466.611 886.544 466.865C886.228 466.931 885.941 467.095 885.724 467.334C885.506 467.574 885.371 467.875 885.336 468.197C885.18 469.498 884.862 470.393 884.432 470.4C884.002 470.407 883.596 469.562 883.343 468.281C883.277 467.964 883.112 467.677 882.873 467.46C882.634 467.243 882.332 467.107 882.011 467.072C880.697 466.938 879.815 466.599 879.808 466.169Z" fill="white"/>
<path d="M890.272 608.712C890.142 608.225 891.02 607.54 892.439 606.926C892.792 606.78 893.087 606.521 893.278 606.19C893.469 605.859 893.545 605.474 893.496 605.095C893.335 603.555 893.489 602.452 893.959 602.326C894.43 602.2 895.132 603.073 895.746 604.492C895.892 604.845 896.151 605.14 896.482 605.331C896.813 605.522 897.198 605.599 897.577 605.549C899.117 605.389 900.22 605.543 900.346 606.013C900.472 606.483 899.598 607.185 898.184 607.816C897.831 607.963 897.536 608.221 897.345 608.552C897.154 608.883 897.077 609.268 897.127 609.647C897.288 611.187 897.133 612.29 896.663 612.416C896.193 612.542 895.491 611.669 894.877 610.25C894.73 609.897 894.472 609.602 894.141 609.411C893.81 609.22 893.425 609.143 893.046 609.193C891.573 609.336 890.403 609.199 890.272 608.712Z" fill="white"/>
<path d="M904.244 526.402C903.465 526.611 903.003 527.411 903.212 528.19C903.42 528.969 904.221 529.431 905 529.223C905.779 529.014 906.241 528.213 906.032 527.434C905.824 526.655 905.023 526.193 904.244 526.402Z" fill="white"/>
<path d="M870.65 429.894C870.206 430.509 870.345 431.367 870.96 431.811C871.576 432.254 872.434 432.115 872.877 431.5C873.321 430.885 873.182 430.027 872.567 429.583C871.952 429.14 871.094 429.279 870.65 429.894Z" fill="white"/>
<path d="M914.62 424.699C914.365 425.624 914.909 426.581 915.835 426.836C916.76 427.09 917.717 426.546 917.972 425.621C918.226 424.695 917.682 423.738 916.757 423.484C915.831 423.229 914.874 423.773 914.62 424.699Z" fill="white"/>
<path d="M1081.45 519.01C1080.39 519.426 1079.86 520.626 1080.28 521.69C1080.7 522.754 1081.9 523.279 1082.96 522.862C1084.02 522.446 1084.55 521.246 1084.13 520.182C1083.72 519.118 1082.52 518.594 1081.45 519.01Z" fill="white"/>
<path d="M1062.05 583.948C1060.98 584.364 1060.46 585.564 1060.87 586.628C1061.29 587.692 1062.49 588.217 1063.55 587.8C1064.62 587.384 1065.14 586.184 1064.73 585.12C1064.31 584.056 1063.11 583.531 1062.05 583.948Z" fill="white"/>
<path d="M1051.39 370.581C1050.51 370.817 1049.98 371.722 1050.22 372.603C1050.46 373.484 1051.36 374.007 1052.24 373.771C1053.12 373.535 1053.65 372.629 1053.41 371.748C1053.17 370.868 1052.27 370.345 1051.39 370.581Z" fill="white"/>
<path d="M880.79 553.309C880.391 553.416 880.154 553.826 880.261 554.225C880.368 554.623 880.778 554.86 881.176 554.753C881.575 554.646 881.812 554.236 881.705 553.838C881.598 553.439 881.188 553.202 880.79 553.309Z" fill="white"/>
<path d="M901.435 385.697C901.149 386.094 901.238 386.649 901.636 386.935C902.033 387.221 902.587 387.132 902.873 386.734C903.159 386.337 903.07 385.783 902.673 385.497C902.276 385.211 901.721 385.3 901.435 385.697Z" fill="white"/>
<path d="M1037.7 552.8C1037.15 553.013 1036.88 553.628 1037.1 554.173C1037.31 554.719 1037.93 554.988 1038.47 554.774C1039.02 554.561 1039.28 553.946 1039.07 553.4C1038.86 552.855 1038.24 552.586 1037.7 552.8Z" fill="white"/>
<path d="M1062.05 500.289C1061.5 500.469 1061.19 501.066 1061.37 501.624C1061.55 502.181 1062.15 502.487 1062.7 502.307C1063.26 502.127 1063.57 501.53 1063.39 500.972C1063.21 500.415 1062.61 500.109 1062.05 500.289Z" fill="white"/>
<path d="M1051.44 430.599C1051.56 431.054 1052.03 431.324 1052.48 431.203C1052.94 431.082 1053.21 430.616 1053.09 430.161C1052.96 429.707 1052.5 429.436 1052.04 429.557C1051.59 429.678 1051.32 430.144 1051.44 430.599Z" fill="white"/>
<path d="M1069.95 441.027C1070.1 441.961 1070.98 442.594 1071.91 442.443C1072.85 442.291 1073.48 441.411 1073.33 440.478C1073.18 439.545 1072.3 438.911 1071.37 439.063C1070.43 439.214 1069.8 440.094 1069.95 441.027Z" fill="white"/>
<path d="M963.575 598.735C963.561 598.649 963.538 598.566 963.508 598.485L963.575 598.735Z" fill="#D66B09"/>
<path d="M975.719 568.505C975.705 568.42 975.683 568.336 975.652 568.255L975.719 568.505Z" fill="#D66B09"/>
<path d="M940.925 577.325L941.076 577.088L940.925 577.325Z" fill="#D66B09"/>
<path d="M958.195 403.164C959.607 402.66 961.204 402.106 962.945 401.55L960.074 402.319C959.401 402.483 958.764 402.77 958.195 403.164V403.164Z" fill="white"/>
<path d="M949.109 421.942C949.711 424.325 952.131 425.768 954.513 425.166C956.896 424.564 958.34 422.145 957.738 419.762C957.136 417.379 954.716 415.936 952.333 416.538C949.951 417.14 948.507 419.559 949.109 421.942Z" fill="white"/>
<g opacity="0.35">
<path opacity="0.35" d="M955.799 408.143C956.045 408.005 956.304 407.893 956.574 407.809L976.626 401.518C977.77 401.158 979.009 401.265 980.074 401.816C981.139 402.367 981.942 403.317 982.309 404.458L984.304 410.762C983.888 410.186 983.331 409.725 982.687 409.425C982.043 409.125 981.332 408.996 980.624 409.049C980.178 409.218 979.778 409.489 979.457 409.841C979.135 410.193 978.901 410.615 978.773 411.074L977.205 406.096C976.838 404.954 976.035 404.004 974.97 403.454C973.905 402.903 972.666 402.796 971.522 403.156L955.799 408.143Z" fill="#371A45"/>
</g>
<g opacity="0.35">
<path opacity="0.35" d="M1029.82 452.767L1026.76 447.506C1026.71 447.419 1026.67 447.323 1026.66 447.223C1026.65 447.124 1026.65 447.022 1026.68 446.925C1026.71 446.828 1026.75 446.737 1026.81 446.657C1026.87 446.577 1026.95 446.51 1027.04 446.46C1027.94 445.93 1028.95 445.585 1029.99 445.444C1031.03 445.303 1032.09 445.369 1033.11 445.638C1034.12 445.908 1035.08 446.375 1035.91 447.013C1036.75 447.651 1037.45 448.448 1037.98 449.358L1039.57 452.08C1038.31 451.2 1036.83 450.702 1035.29 450.644C1033.76 450.586 1032.24 450.971 1030.92 451.753L1030.22 452.157C1030.11 452.218 1030.01 452.306 1029.94 452.412C1029.87 452.519 1029.83 452.64 1029.82 452.767V452.767Z" fill="#371A45"/>
</g>
<g filter="url(#filter0_d_252_250)">
<path fill-rule="evenodd" clip-rule="evenodd" d="M1142.53 93.7717C1131.25 110.939 1109.02 118.225 1089.36 110.052C1069.7 101.879 1059.18 80.9835 1063.39 60.8787C1061.91 63.132 1060.62 65.5554 1059.54 68.1365C1050.3 90.3822 1060.84 115.911 1083.08 125.157C1105.33 134.403 1130.86 123.864 1140.1 101.619C1141.18 99.0369 1141.98 96.4111 1142.53 93.7717Z" fill="white"/>
</g>
<path d="M238 476L238 475L167 475.4L238 476Z" fill="#A9A9A9"/>
<path d="M362 475V476L433 475.6L362 475Z" fill="#A9A9A9"/>
</g>
<defs>
<filter id="filter0_d_252_250" x="994.191" y="1.87866" width="212.343" height="193.63" filterUnits="userSpaceOnUse" color-interpolation-filters="sRGB">
<feFlood flood-opacity="0" result="BackgroundImageFix"/>
<feColorMatrix in="SourceAlpha" type="matrix" values="0 0 0 0 0 0 0 0 0 0 0 0 0 0 0 0 0 0 127 0" result="hardAlpha"/>
<feOffset dx="1" dy="4"/>
<feGaussianBlur stdDeviation="31.5"/>
<feComposite in2="hardAlpha" operator="out"/>
<feColorMatrix type="matrix" values="0 0 0 0 1 0 0 0 0 1 0 0 0 0 1 0 0 0 1 0"/>
<feBlend mode="normal" in2="BackgroundImageFix" result="effect1_dropShadow_252_250"/>
<feBlend mode="normal" in="SourceGraphic" in2="effect1_dropShadow_252_250" result="shape"/>
</filter>
<linearGradient id="paint0_linear_252_250" x1="961.952" y1="-1" x2="961.952" y2="623.366" gradientUnits="userSpaceOnUse">
<stop stop-color="#3B119E"/>
<stop offset="1" stop-color="#6B2FF7"/>
</linearGradient>
<clipPath id="clip0_252_250">
<rect width="1256.72" height="625" fill="white"/>
</clipPath>
</defs>
</svg>
