<svg id="Layer_1" data-name="Layer 1" xmlns="http://www.w3.org/2000/svg" viewBox="0 0 120 120">
  <title>Container1</title>
  <g>
    <path d="M46.6,74.5s-2.8-.4-6.9,3.1a26,26,0,0,0-2.9,2.9c-4.3,5.1-6.3-1-2.7-8.3l.5-1a10,10,0,0,1,5.9-4.8Z" style="fill: #f8feff"/>
    <g style="opacity: 0.2">
      <path d="M46.6,74.5s-2.8-.4-6.9,3.1a31.5,31.5,0,0,1-5.6-5.4l.5-1a10,10,0,0,1,5.9-4.8Z" style="fill: #390075"/>
    </g>
    <path d="M34,82.9a1.8,1.8,0,0,1-1-.3c-1.8-1.3-1.8-6.2,1.2-11.6a10.5,10.5,0,0,1,6.2-5,.5.5,0,0,1,.2,1,9.6,9.6,0,0,0-5.5,4.5c-2.8,5-2.8,9.4-1.5,10.2s1.7-.2,2.8-1.6c5.8-6.8,10.1-6.2,10.3-6.2a.5.5,0,0,1-.2,1c-.1,0-3.9-.5-9.3,5.8C35.9,82.5,34.8,82.9,34,82.9Z" style="fill: #181558"/>
    <g style="opacity: 0.30000000000000004">
      <polygon points="78.1 62.1 78.1 62.1 78.1 62.1 78.1 62.1" style="fill: #fff"/>
    </g>
    <path d="M103.2,71.8c-7.2-3.1-11.5-3.6-11.5-3.6h-.1l-.2.2h-.1A35,35,0,0,1,88,72.4h-.1l-2.5,2.2-.6.5A32.5,32.5,0,0,1,81,77.6l-.3.2A27.2,27.2,0,0,1,77,79.5l-3.7,1.1-.9.2H72l-.9.2-.9.2H57.7l-1.9-.3-1-.2-.8-.2-3.3-.9-1.2-.4-.8-.3-.8-.3-.8-.3-1.2-.5-1.6-.8-.8-.4a34.6,34.6,0,0,1-6.2-4.3l-.3-.3-.2-.2h-.1l-.3-.2h0l-.3-.3h0l-.3-.3-.3-.3-.6-.6-.3-.3-.3-.3-.3-.3-.2-.3h0l-.4-.5h-.1L33,68h0l-.4-.6-.2-.3-.2-.2-.2-.3-1.1-1.9-.2-.3-.2-.3-.2-.3-.2-.3-.2-.4-.4-.9-.2-.3-.2-.5v-.3l-.3-.8v-.3l-.3-.7v-.3h0v-.7l-.5-1.7v-.3q-.4-1.4-.6-2.8v-.3l-.2-1.1V49.5c-.1-1-.1-1.9-.1-2.9v-1h0V43.7q.1-.9.3-1.7c1-5.2,5.9-9.1,22.5-2.9l.6.2,1.2.5.5.2.5.2.5.2.5.2.5.3.5.2,1.1.6,1.1.6.5.3.5.3,1.6.9.9.5,1.3.8.8.5h.1l1,.6h.1l.4.3.5.3,1.3.9.6.4.5.3,1,.7.5.3h.1l.4.3.9.7.5.4.5.3,1.1.8h0l.7.5,4.7,3.7a80.1,80.1,0,0,0,6.9,5h.2l.3.2a17.6,17.6,0,0,0,3.4,1.6h3.4a30,30,0,0,1,3.5-8.9c4.2-6.3,6.8-6.6,9.4-6.7l-.4.6c-2.3,3.7-2.3,10.5-6,15.3a11.9,11.9,0,0,1,6,5.2C103.4,70.1,103.7,72,103.2,71.8Z" style="fill: #7ba2ff"/>
    <g style="opacity: 0.6000000000000001">
      <path d="M103.2,47.9l-.4.6a16.4,16.4,0,0,0-5.5,3.6l-.7.8.4.2c.6.4.5,1.6-.2,2.6s-1.8,1.5-2.4,1l-.2-.2c-1.5,3-1.7,5.6-2.4,6.7s-1.5.9-2.4.5h1a30,30,0,0,1,3.5-8.9C98,48.4,100.6,48,103.2,47.9Z" style="fill: #fff"/>
    </g>
    <g style="opacity: 0.6000000000000001">
      <path d="M65.4,48.3C59,44.8,44.2,37.5,34.6,37.5c-3.9,0-6.5,2.4-8.2,4.8V42c1-5.2,5.9-9.1,22.4-2.9A72.7,72.7,0,0,1,65.4,48.3Z" style="fill: #fff"/>
    </g>
    <path d="M91.7,68.2a35.8,35.8,0,0,1-7.4,7.2,29.6,29.6,0,0,1-7.3,4c-12.1,4.4-28.5,3.1-39.7-6.7l-.3-.3A34.5,34.5,0,0,1,26.2,50.9c.6-2.9,2.2-6.9,5.9-7.2,8.7-.6,16.3,13,20,17.8,1.5,1.9,3.1,5.5,5.9,8.6A16.1,16.1,0,0,0,71,75.9C76.1,75.9,82.9,73.8,91.7,68.2Z" style="fill: #f8feff"/>
    <g style="opacity: 0.2">
      <path d="M84.3,75.5a29.6,29.6,0,0,1-7.3,4c-12.1,4.4-28.5,3.1-39.7-6.7l-.3-.3c4,1.9,12.9,2.7,20.9-2.3H58A16.1,16.1,0,0,0,71,75.9a4,4,0,0,0,3.4,1.7A30,30,0,0,0,84.3,75.5Z" style="fill: #390075"/>
    </g>
    <path d="M62.9,82.4a43.7,43.7,0,0,1-6.2-.4A38,38,0,0,1,37,73.2a33.7,33.7,0,0,1-9.7-14.9A33,33,0,0,1,26,41.9a7.4,7.4,0,0,1,3.6-5.3c3.8-2.1,10.3-1.4,19.5,2S67.4,48.9,74.2,54.3s12,9.4,15.6,8.8a29.4,29.4,0,0,1,3.5-8.7c4.2-6.2,6.8-6.8,9.8-7a.5.5,0,0,1,.5.9c-1.2,1.6-1.8,3.9-2.4,6.4s-1.6,6.2-3.5,8.9l1.7,1a11.5,11.5,0,0,1,3.9,4.2c.4.7,1,2.8.4,3.4a.7.7,0,0,1-.8.2,47.5,47.5,0,0,0-11-3.5c-1.1,1.4-6.5,8.1-14.8,11.2A42.1,42.1,0,0,1,62.9,82.4ZM35.1,36.4a10.2,10.2,0,0,0-5,1.1,6.3,6.3,0,0,0-3.1,4.6A33.5,33.5,0,0,0,37.7,72.4c7.3,6.4,16.5,8.9,25.1,8.9a41.4,41.4,0,0,0,14-2.4c8.8-3.2,14.4-11,14.5-11a.5.5,0,0,1,.5-.2c.2,0,4.2.5,11.2,3.4a5.8,5.8,0,0,0-.5-1.9,11.5,11.5,0,0,0-5.7-4.9l-.3-.3a.5.5,0,0,1,.1-.6c2.1-2.7,2.9-6.1,3.7-9.1a25.3,25.3,0,0,1,2-5.9c-2,.2-4.4,1.1-7.9,6.4a29.6,29.6,0,0,0-3.4,8.7.5.5,0,0,1-.4.4H89.2c-4,0-9.2-4.1-15.6-9.1S58.4,43.2,48.8,39.6C43.2,37.5,38.6,36.4,35.1,36.4Z" style="fill: #181558"/>
    <path d="M45.4,55.9a9.1,9.1,0,0,1-1.7,4.8,6.4,6.4,0,0,1-5.4,2.7,6.8,6.8,0,0,1-4.7-2,12,12,0,0,1-3.1-5,.8.8,0,0,1,1.1-.9A15.4,15.4,0,0,0,38.2,57a14,14,0,0,0,6-1.8A.8.8,0,0,1,45.4,55.9Z" style="fill: #181558"/>
    <path d="M43.6,60.7a6.4,6.4,0,0,1-5.4,2.7,6.8,6.8,0,0,1-4.7-2,4.5,4.5,0,0,1,4.9-.4S40.3,58.8,43.6,60.7Z" style="fill: #ff7196"/>
    <path d="M38.9,60.6a3.7,3.7,0,0,0-1.1,1.4,3.1,3.1,0,0,1,.5-1.6C39,59.6,38.9,60.6,38.9,60.6Z" style="fill: #181558"/>
    <path d="M44.4,55.1l-.6,2.6a.3.3,0,0,1-.4.3l-1.7-.2-.4.2-.8.9a.7.7,0,0,1-.8.2L38,58.3h-.4l-1.5.7a.7.7,0,0,1-.8-.1l-.8-.8A.4.4,0,0,0,34,58l-.7.3a.7.7,0,0,1-1-.3l-1.4-2.6h.6A15.4,15.4,0,0,0,38.2,57a14,14,0,0,0,6-1.8Z" style="fill: #fff"/>
    <path d="M38.3,63.9h0c-4.8,0-7.5-4.8-8.3-7.4a1.3,1.3,0,0,1,1.8-1.6h0a14.9,14.9,0,0,0,6.4,1.5,13.5,13.5,0,0,0,5.7-1.7,1.3,1.3,0,0,1,1.3,0,1.3,1.3,0,0,1,.6,1.2C45.7,59,43.6,63.9,38.3,63.9Zm-7-8h-.2a.2.2,0,0,0-.1.3c.7,2.3,3.1,6.6,7.3,6.6h0c5.1,0,6.4-5.1,6.5-6.9a.2.2,0,0,0-.1-.2h-.2a14.5,14.5,0,0,1-6.2,1.9,15.8,15.8,0,0,1-6.9-1.6h-.1Z" style="fill: #181558"/>
    <ellipse cx="30.6" cy="49.1" rx="0.7" ry="1" transform="translate(-2.7 1.8) rotate(-3.2)" style="fill: #181558"/>
    <ellipse cx="34.9" cy="48.8" rx="0.7" ry="1" transform="translate(-2.7 2) rotate(-3.2)" style="fill: #181558"/>
    <path d="M61.5,76.6a32.3,32.3,0,0,1-2-3.7A35.2,35.2,0,0,1,57.7,68l11.7,3.1a44.6,44.6,0,0,0,1.8,7.2h0l.4,1.1C74.3,86.6,66.3,84.2,61.5,76.6Z" style="fill: #7ba2ff"/>
    <g style="opacity: 0.2">
      <path d="M61.5,76.6a32.3,32.3,0,0,1-2-3.7c2.4,3.3,5.9,7.2,9.3,7.5,1.3.1,2-.7,2.3-2l.4,1.1C74.3,86.6,66.3,84.2,61.5,76.6Z" style="fill: #390075"/>
    </g>
    <path d="M58,68l1.8,4a32.9,32.9,0,0,0,2,3.8,21.8,21.8,0,0,0,2.6,3.4A17.2,17.2,0,0,0,67.5,82l1.8.9.9.2h.8a.8.8,0,0,0,.4-.5,2.1,2.1,0,0,0,.1-.8,6.9,6.9,0,0,0-.4-2l-.2-.5-.2-.5-.3-1.1c-.2-.7-.4-1.4-.6-2.1a30.5,30.5,0,0,1-.7-4.4.3.3,0,0,1,.5-.1c.4,1.4.7,2.8,1.1,4.2s.9,2.8,1.4,4.1a8,8,0,0,1,.5,2.3,3.2,3.2,0,0,1-.2,1.3l-.4.6-.6.4a2.7,2.7,0,0,1-1.4.2L68.9,84a10,10,0,0,1-2.1-1,17.3,17.3,0,0,1-3.4-3,21.5,21.5,0,0,1-2.7-3.6,34,34,0,0,1-2-4,16.6,16.6,0,0,1-1.3-4.3.3.3,0,0,1,.2-.3l.3.2Z" style="fill: #181558"/>
    <path d="M61.2,56.7a4.1,4.1,0,0,1,0,3.5A3,3,0,0,1,60,61.5a2.9,2.9,0,0,1-1.7.3l1.4-.9a3.6,3.6,0,0,0,.9-1.2,5.9,5.9,0,0,0,.5-1.5C61.1,57.8,61.2,57.2,61.2,56.7Z" style="fill: #181558"/>
    <path d="M58.9,54.6a3.8,3.8,0,0,1,.1,3.3,2.8,2.8,0,0,1-1.2,1.3,2.7,2.7,0,0,1-1.6.3l1.3-.8a3.4,3.4,0,0,0,.8-1.1,5.7,5.7,0,0,0,.4-1.4C58.7,55.6,58.8,55.1,58.9,54.6Z" style="fill: #181558"/>
    <path d="M63.7,59.2a4.1,4.1,0,0,1,0,3.5A3,3,0,0,1,62.5,64a2.9,2.9,0,0,1-1.7.3l1.4-.9a3.6,3.6,0,0,0,.9-1.2,5.9,5.9,0,0,0,.5-1.5C63.6,60.3,63.6,59.8,63.7,59.2Z" style="fill: #181558"/>
    <g>
      <path d="M50.5,43.7c-1.6-.3-3,1.5-3.2,3.9s.8,4.6,2.4,4.8,3-1.5,3.2-3.9S52,44,50.5,43.7Z" style="fill: #181558"/>
      <path d="M50.4,44.7c-.5.2-.7,1-.5,1.8s.8,1.3,1.3,1.1.7-1,.5-1.8S50.9,44.5,50.4,44.7Z" style="fill: #fff"/>
      <path d="M48.7,49.8a.8.8,0,0,0-.1,1c.2.4.5.6.8.4a.8.8,0,0,0,.1-1C49.2,49.8,48.9,49.7,48.7,49.8Z" style="fill: #b199c5"/>
    </g>
  </g>
</svg>
