<svg id="Layer_1" data-name="Layer 1" xmlns="http://www.w3.org/2000/svg" viewBox="0 0 120 120">
  <title>Container1</title>
  <g>
    <path d="M79.7,44a17.8,17.8,0,0,0-7.5-7.3,29.9,29.9,0,0,0-27.3-.2,29.1,29.1,0,0,0-3.4,2c-1-12.5,9.5-16.9,19.7-16.9S83.7,26.4,79.7,44Z" style="fill: #fff"/>
    <path d="M77.7,97.2a17,17,0,0,1-3.4-2.6h0A30.2,30.2,0,0,0,73,88.9a17.1,17.1,0,0,0-3.5-6.6S58.1,69.6,51.2,74.9s-.9,11-.9,11a1.2,1.2,0,0,0,.2,1.3l-1.1,3.8c-2.5,2.1-3,8.3-.2,9s3-.7,3.4-1.9a21,21,0,0,1,2.2-3.5h.1l2.6-3.4a8.4,8.4,0,0,0,1.4-2.6,6.2,6.2,0,0,0,.3-2.5,26,26,0,0,1,7.2,5.5,15,15,0,0,0,2.6,3.6h0a5,5,0,0,0,.7,4.3c2.9,1.1,8.4,0,8.4,0S79.2,97.9,77.7,97.2Z" style="fill: #fff"/>
    <path d="M67.9,91.6h-.2a2,2,0,0,0-.4-.8c-.1-.1-.4,0-.4,0h-.2v-.2c0-.3,0-.6,0-.7h-.6c-1.4-2.4-5-4.4-5.1-4.5a.2.2,0,0,1-.1-.2h.2c.2.1,3.6,2,5.1,4.5.5-.1.5,0,.6,0s.1.1.1.8a.7.7,0,0,1,.5.1,2.3,2.3,0,0,1,.5.9.2.2,0,0,1-.1.2Z" style="fill: #371a45"/>
    <path d="M52.1,88.3h-.1a.2.2,0,0,1,0-.2,2.5,2.5,0,0,0,.6-1.4l-.2-.4a.2.2,0,0,1,0-.2h.1c.2-.1.5-.6.6-.8l-.5-.5c-.1-.2,0-.4.2-.7l.2-.4h-.6l-1.7-3.1a.2.2,0,0,1,0-.2,6.1,6.1,0,0,0,.6-1h-.5c-.4,0-.8-.1-.9-.4S51.4,76,52.1,75h.2a.2.2,0,0,1,0,.2,16.5,16.5,0,0,0-2.1,3.3h.6c.3,0,.6.1.8.3a.4.4,0,0,1,0,.3,6.2,6.2,0,0,1-.5,1l1.6,2.9h.5l.2.3a1,1,0,0,1-.3.7l-.2.3.4.4v.2a2.5,2.5,0,0,1-.7,1.1l.2.3h0a3,3,0,0,1-.7,1.6Zm1.2-3.4h0Zm0,0h0Zm0,0h0Zm0,0h0Zm-2-5.8Z" style="fill: #371a45"/>
    <path d="M73.1,100.4a11.2,11.2,0,0,1-3.6-.5h-.2a5.3,5.3,0,0,1-.8-4.6.4.4,0,0,1,.7.2,4.7,4.7,0,0,0,.6,3.9c2.6.9,7.1.1,8,0a1.8,1.8,0,0,0,.3-1.2.9.9,0,0,0-.5-.5A17.1,17.1,0,0,1,74,94.8a.4.4,0,0,1,.5-.5,16.7,16.7,0,0,0,3.3,2.5,1.6,1.6,0,0,1,.9,1,2.7,2.7,0,0,1-.5,1.9h-.2A29.2,29.2,0,0,1,73.1,100.4Zm4.9-.8h0Z" style="fill: #371a45"/>
    <path d="M73,89.3a.4.4,0,0,1-.3-.3,17,17,0,0,0-3.5-6.5h0c-.1-.1-11.3-12.5-17.8-7.3-2,1.6-3.1,3.3-3.1,5.2a7.8,7.8,0,0,0,2.2,5.3.4.4,0,0,1,.1.4.8.8,0,0,0,.1.9.4.4,0,0,1-.5.5,1.6,1.6,0,0,1-.4-1.4,8.2,8.2,0,0,1-2.3-5.7c.1-2.1,1.3-4,3.4-5.7s7.1-1.7,12.1,1.7a41.3,41.3,0,0,1,6.6,5.8,17.5,17.5,0,0,1,3.6,6.7.4.4,0,0,1-.2.5Z" style="fill: #371a45"/>
    <path d="M66.3,92H66A25.8,25.8,0,0,0,59,86.5h0a.4.4,0,0,1,.4-.6h0a26,26,0,0,1,7.3,5.6.4.4,0,0,1,0,.5Z" style="fill: #371a45"/>
    <path d="M50.4,100.6l-1.4-.2a3,3,0,0,1-2-2.4c-.5-2.2.2-5.6,2.1-7.2a.4.4,0,1,1,.5.6c-1.6,1.4-2.3,4.5-1.8,6.5a2.3,2.3,0,0,0,1.5,1.9c2.2.6,2.5-.3,2.9-1.3v-.3a20.9,20.9,0,0,1,2.2-3.6.4.4,0,0,1,.6.4,21.1,21.1,0,0,0-2.1,3.4v.3C52.5,99.5,52.1,100.6,50.4,100.6Z" style="fill: #371a45"/>
    <g>
      <path d="M57.4,91.2l-2.6,3.4h-.1a6.7,6.7,0,0,1-5.3-3.6l1.1-3.8Z" style="fill: #352554"/>
      <path d="M54.7,95h0a7,7,0,0,1-5.6-3.8.4.4,0,0,1,0-.3l1.1-3.8.2-.2h.3l6.9,4,.2.2a.4.4,0,0,1-.1.3l-2.6,3.4h-.4Zm-4.9-4a6.3,6.3,0,0,0,4.8,3.3l2.4-3-6.2-3.5Z" style="fill: #371a45"/>
    </g>
    <path d="M63.2,84.7l-2,.8-1.9,1a.4.4,0,0,1-.4-.6h0L61,85l2.1-.5h.1Z" style="fill: #371a45"/>
    <g>
      <path d="M74.3,94.6c-3.4,1.7-5.4.7-5.4.7a15,15,0,0,1-2.6-3.6A11.9,11.9,0,0,0,73,88.9,30.2,30.2,0,0,1,74.3,94.6Z" style="fill: #352554"/>
      <path d="M70.5,95.9a4.4,4.4,0,0,1-1.8-.3h-.1A15.2,15.2,0,0,1,66,91.9a.4.4,0,0,1,0-.3l.3-.2a11.6,11.6,0,0,0,6.5-2.7h.3l.2.2a30.7,30.7,0,0,1,1.2,5.7.4.4,0,0,1-.2.4A8.7,8.7,0,0,1,70.5,95.9Zm-1.4-1c.3.1,2.1.7,4.8-.6a30.2,30.2,0,0,0-1-4.8,12.4,12.4,0,0,1-6,2.4A14.8,14.8,0,0,0,69.1,95Z" style="fill: #371a45"/>
    </g>
    <g>
      <g style="opacity: 0.30000000000000004">
        <path d="M51.8,93,53,88.1s-1.6-1.5.8-1.4a.2.2,0,0,0,.1-.3c-1.5-1.2-5.9-5.6-.1-10,2.8-2.2,6.5-1.3,9.7.5-3.7-2.4-8.3-4.2-11.6-1.6-6.8,5.2-.9,10.7-.9,10.7a1.1,1.1,0,0,0,.2,1.2L50,90.8c-2.5,2.1-3,8-.2,8.7h.6C49.1,97.8,49.6,94,51.8,93Z" style="fill: #371a45"/>
      </g>
      <g style="opacity: 0.30000000000000004">
        <path d="M59.8,86.9a7.7,7.7,0,0,0,0-.9A1.2,1.2,0,0,0,59.8,86.9Z" style="fill: #371a45"/>
      </g>
      <g style="opacity: 0.30000000000000004">
        <path d="M76.1,99.1c-2.9.1-5.2-1-4.6-3.9v-.2s-2.3-2-2.5-4.2a11.6,11.6,0,0,0-6.4-6.3c0,.5-1.8.4-2.5,1.2a26.3,26.3,0,0,1,7,5.4,15,15,0,0,0,2.6,3.6h0a5,5,0,0,0,.7,4.3c2.9,1.1,8.4,0,8.4,0H76.1Z" style="fill: #371a45"/>
      </g>
    </g>
    <path d="M88.6,37a8.8,8.8,0,0,1-2.9.5H83.6l-.8-.3h5.8Z" style="fill: #371a45"/>
    <path d="M87.7,39.2a5.9,5.9,0,0,1-2.5.1l-1.7-.4-.6-.4.7.2,1.7.3Z" style="fill: #371a45"/>
    <g>
      <circle cx="43.6" cy="51.5" r="2.8" style="fill: #ffb992"/>
      <g style="opacity: 0.6000000000000001">
        <path d="M41.7,51.8a2.8,2.8,0,0,1,2.8-2.8H45a2.8,2.8,0,1,0-1.8,5.3A2.8,2.8,0,0,1,41.7,51.8Z" style="fill: #fff"/>
      </g>
      <path d="M43.6,54.7a3.2,3.2,0,1,1,3.2-3.2A3.2,3.2,0,0,1,43.6,54.7Zm0-5.7a2.5,2.5,0,1,0,2.5,2.5A2.5,2.5,0,0,0,43.6,49Z" style="fill: #371a45"/>
    </g>
    <circle cx="77.4" cy="51.8" r="2.8" style="fill: #ffb992"/>
    <g style="opacity: 0.30000000000000004">
      <circle cx="77.4" cy="51.8" r="2.8" style="fill: #371a45"/>
    </g>
    <path d="M77.4,55a3.2,3.2,0,1,1,3.2-3.2A3.2,3.2,0,0,1,77.4,55Zm0-5.7a2.5,2.5,0,1,0,2.5,2.5A2.5,2.5,0,0,0,77.4,49.3Z" style="fill: #371a45"/>
    <path d="M91.9,45.6C87.4,61.2,78.3,67.5,78.3,67.5l-.9-.9a49.8,49.8,0,0,0,8.3-23,70.1,70.1,0,0,0-.5-19.6,2.8,2.8,0,0,1,.4-2,5.4,5.4,0,0,1,7.4-1.5,2.8,2.8,0,0,1,1.3,2.2A69.5,69.5,0,0,1,91.9,45.6Z" style="fill: #f0ad65"/>
    <g style="opacity: 0.6000000000000001">
      <path d="M78.5,66.6a49.8,49.8,0,0,0,8.3-23,70.1,70.1,0,0,0-.5-19.6,2.8,2.8,0,0,1,.4-2,5,5,0,0,1,3.7-2.3,5.1,5.1,0,0,0-5.1,2.3,2.8,2.8,0,0,0-.4,2,70.1,70.1,0,0,1,.5,19.6,49.8,49.8,0,0,1-8.3,23l.9.9.8-.6Z" style="fill: #fff"/>
    </g>
    <path d="M91.9,45.6C87.4,61.2,78.3,67.5,78.3,67.5l-.9-.9a49.8,49.8,0,0,0,8.3-23A14.3,14.3,0,0,1,91.9,45.6Z" style="fill: #5e3f96"/>
    <g style="opacity: 0.30000000000000004">
      <path d="M94.2,22.9a2.8,2.8,0,0,0-1.3-2.2,5.6,5.6,0,0,0-3.6-.8,5.4,5.4,0,0,1,1.6.7,2.8,2.8,0,0,1,1.3,2.2,69.5,69.5,0,0,1-2.3,22.7c-3.4,11.8-9.4,18.3-12.1,20.7l-.3.5.9.9s9.1-6.3,13.5-21.9A69.5,69.5,0,0,0,94.2,22.9Z" style="fill: #371a45"/>
    </g>
    <path d="M78.3,67.9h-.2l-.9-.9a.4.4,0,0,1-.1-.5c4.4-6.3,7.2-14,8.2-22.8a70.2,70.2,0,0,0-.5-19.5,3.2,3.2,0,0,1,.4-2.2,5.2,5.2,0,0,1,3.3-2.4,6,6,0,0,1,4.6.8,3.2,3.2,0,0,1,1.4,2.5,70.3,70.3,0,0,1-2.3,22.9,48.2,48.2,0,0,1-8.5,17,27.6,27.6,0,0,1-5.2,5.2Zm-.5-1.3.5.4a29.4,29.4,0,0,0,4.8-4.9,47.5,47.5,0,0,0,8.4-16.7h0a69.5,69.5,0,0,0,2.3-22.6,2.5,2.5,0,0,0-1.1-2,5.2,5.2,0,0,0-4-.7,4.5,4.5,0,0,0-2.9,2,2.5,2.5,0,0,0-.3,1.7A71,71,0,0,1,86,43.7,49.9,49.9,0,0,1,77.9,66.6Z" style="fill: #371a45"/>
    <g>
      <path d="M52.3,73.3a3.1,3.1,0,0,0-1,1.6,25.1,25.1,0,0,0,18.3,7.4,2,2,0,0,0,.1-2c-.6-1.1-17.3-7-17.3-7" style="fill: #352554"/>
      <path d="M69,82.7A25.5,25.5,0,0,1,55.9,79,22.5,22.5,0,0,1,51,75.2a.4.4,0,0,1-.1-.3,3.5,3.5,0,0,1,1.2-1.8h.3l8.5,3.1c8.6,3.3,8.9,3.8,9.1,4a2.3,2.3,0,0,1-.1,2.4H69ZM51.7,74.8a23.1,23.1,0,0,0,4.6,3.6,24.8,24.8,0,0,0,13,3.5,1.6,1.6,0,0,0,0-1.5c-.7-.8-10.6-4.5-16.9-6.7A2.9,2.9,0,0,0,51.7,74.8Z" style="fill: #371a45"/>
    </g>
    <g>
      <path d="M54.5,78.6A12.6,12.6,0,0,1,56.3,75l-1.6-.6A11.2,11.2,0,0,0,53.2,78" style="fill: #fff"/>
      <path d="M54.5,78.9h-.1a.4.4,0,0,1-.2-.5,15.9,15.9,0,0,1,1.5-3.3l-.9-.3A10.3,10.3,0,0,0,53.5,78a.4.4,0,0,1-.7-.1,11.4,11.4,0,0,1,1.5-3.7.4.4,0,0,1,.4-.1l1.6.6.2.3a.4.4,0,0,1-.1.3,11.8,11.8,0,0,0-1.6,3.4A.4.4,0,0,1,54.5,78.9Z" style="fill: #371a45"/>
    </g>
    <g>
      <path d="M59,80.8A13.9,13.9,0,0,1,60.8,77l-1.6-.6a12.3,12.3,0,0,0-1.5,3.7" style="fill: #fff"/>
      <path d="M59,81.1h-.1a.4.4,0,0,1-.2-.5,17.3,17.3,0,0,1,1.5-3.5l-.9-.3A11.4,11.4,0,0,0,58,80.2a.4.4,0,0,1-.7-.1,12.5,12.5,0,0,1,1.6-3.9.4.4,0,0,1,.4-.1l1.6.6.2.3a.4.4,0,0,1-.1.3,12.9,12.9,0,0,0-1.7,3.6A.4.4,0,0,1,59,81.1Z" style="fill: #371a45"/>
    </g>
    <g>
      <path d="M61.6,81.8a12.5,12.5,0,0,1,1.5-3.7l-1.7-.5a11,11,0,0,0-1.3,3.6" style="fill: #fff"/>
      <path d="M61.6,82.1h-.1a.4.4,0,0,1-.3-.4,15.7,15.7,0,0,1,1.3-3.4l-.9-.3a10.1,10.1,0,0,0-1.1,3.2.4.4,0,1,1-.7-.1,11.3,11.3,0,0,1,1.4-3.8.4.4,0,0,1,.4-.2l1.7.5.3.2a.4.4,0,0,1-.1.3,11.6,11.6,0,0,0-1.5,3.5A.4.4,0,0,1,61.6,82.1Z" style="fill: #371a45"/>
    </g>
    <g>
      <path d="M68.6,83.2a4.6,4.6,0,0,0,.7-3.2h-1s-.1,2.1-1,3" style="fill: #fff"/>
      <path d="M68.6,83.5h-.2a.4.4,0,0,1-.1-.5,4.2,4.2,0,0,0,.6-2.7h-.4a5.3,5.3,0,0,1-1.1,2.9.4.4,0,1,1-.5-.5,5.1,5.1,0,0,0,.9-2.8.4.4,0,0,1,.4-.3h1a.4.4,0,0,1,.4.3,4.9,4.9,0,0,1-.7,3.5Z" style="fill: #371a45"/>
    </g>
    <g>
      <path d="M75.7,58.2s-.1-1.1-1-1.2a12,12,0,0,1-4.5-.6c-1.7-.8-2.9,5.1,1.1,5.8S75.8,59.1,75.7,58.2Z" style="fill: #33aef2"/>
      <g style="opacity: 0.30000000000000004">
        <path d="M73.7,59.9A3.3,3.3,0,0,1,71,56.7l-.7-.3c-1.7-.8-2.9,5.1,1.1,5.8s3.7-1,4.1-2.3A4.5,4.5,0,0,1,73.7,59.9Z" style="fill: #371a45"/>
      </g>
      <path d="M72.4,62.7H71.3a3.5,3.5,0,0,1-2.9-2.7,3.9,3.9,0,0,1,.7-3.7,1.1,1.1,0,0,1,1.2-.2,8.8,8.8,0,0,0,3.6.6h.8a1.6,1.6,0,0,1,1.3,1.5h0a4.8,4.8,0,0,1-1.4,3.7A3.4,3.4,0,0,1,72.4,62.7Zm-2.5-6h-.3a3.3,3.3,0,0,0-.5,2.9,2.8,2.8,0,0,0,2.3,2.1,3.2,3.2,0,0,0,2.8-.5,4.2,4.2,0,0,0,1.1-3.1c0-.1-.1-.8-.6-.9H74a9.5,9.5,0,0,1-3.9-.6Z" style="fill: #371a45"/>
    </g>
    <path d="M71.4,79.3a2.6,2.6,0,0,1-1.8,1l-2.4-.4L63.7,79a40.4,40.4,0,0,1-11.4-5.7v-.3a2,2,0,0,1,.6-1.8c.7-.6,1.5-2.3,1.5-7.1.1-8.2,5-11.6,15.2-8.3a22.2,22.2,0,0,1,1.1,2.7,37.3,37.3,0,0,1,1.5,6.1,40.8,40.8,0,0,1,0,12.9A3.7,3.7,0,0,1,71.4,79.3Z" style="fill: #fff"/>
    <g style="opacity: 0.30000000000000004">
      <path d="M59.8,75.2a7.6,7.6,0,0,1-.3-6.6s5.2,2.7,13.2,1.6a43,43,0,0,0-.5-5.5,39.4,39.4,0,0,0-1.4-6.1,23.1,23.1,0,0,0-1-2.7c-9.7-3.3-14.5.1-14.5,8.3,0,4.9-.8,6.6-1.5,7.2a2,2,0,0,0-.6,1.8v.3a37.7,37.7,0,0,0,10.9,5.7l3.4.9,2.3.4a2.2,2.2,0,0,0,1-.4C67.5,79.4,61.1,77.7,59.8,75.2Zm8.1-15.6c6.1,1.9-.7,7.9-.7,7.9s-5.7.2-7.6-1.9S61.7,57.7,67.9,59.7Z" style="fill: #371a45"/>
    </g>
    <path d="M65.8,80h-.2a.4.4,0,0,1-.1-.5A27.9,27.9,0,0,0,71,63.6a.4.4,0,0,1,.7,0,28.7,28.7,0,0,1-5.7,16.2Z" style="fill: #f73737"/>
    <path d="M67.2,80.2h0l-3.6-.9-.2-.2a.2.2,0,0,1,.1-.2c7.2-7.2,7.1-18.1,7-20.3a.2.2,0,0,1,.2-.2l.3.2a37.5,37.5,0,0,1,1.5,6.1h0c-.4,6.2-2.1,11.6-5,15.4Zm-3.1-1.3,3,.8c2.8-3.8,4.5-9,4.8-15a38,38,0,0,0-1-4.5,34.1,34.1,0,0,1-.8,6.9A24.3,24.3,0,0,1,64.1,78.9Z" style="fill: #371a45"/>
    <path d="M57.8,60.5H58l.2-.2.5-.3h.5l.6-.2.6-.2H61l1.1-.2,2.3-.3h2.3a.4.4,0,0,1,0,.7H62.2l-2.2.3H58.9l-.5.2h-.5A.1.1,0,0,1,57.8,60.5Z" style="fill: #371a45"/>
    <path d="M69.6,80.7h0l-2.4-.4-3.6-.9a40.6,40.6,0,0,1-11.5-5.7v-.5a2.3,2.3,0,0,1,.7-2.1c.5-.5,1.4-1.9,1.4-6.9s1.2-6.8,3.4-8.4,6.8-2,12.3-.2l.2.2A22.4,22.4,0,0,1,71,58.5a37.6,37.6,0,0,1,1.5,6.1,41.1,41.1,0,0,1,0,13,4.1,4.1,0,0,1-.9,2,3,3,0,0,1-2,1.1Zm-17-7.5a39.8,39.8,0,0,0,11.2,5.5l3.5.9,2.3.4a2.2,2.2,0,0,0,1.5-.9h0a3.4,3.4,0,0,0,.7-1.6,40.3,40.3,0,0,0,0-12.7,36.9,36.9,0,0,0-1.5-6,24.2,24.2,0,0,0-1-2.5c-5.2-1.7-9.1-1.6-11.5.2s-3.1,4.1-3.1,7.8-.6,6.5-1.6,7.4a1.6,1.6,0,0,0-.5,1.4Z" style="fill: #371a45"/>
    <path d="M78.3,67.9h-.2l-.9-.9a.4.4,0,0,1-.1-.5c4.4-6.3,7.2-14,8.2-22.8a.4.4,0,0,1,.4-.3,14.6,14.6,0,0,1,6.4,2,.4.4,0,0,1,.2.4,48.2,48.2,0,0,1-8.5,17,27.6,27.6,0,0,1-5.2,5.2Zm-.5-1.3.5.4a29.4,29.4,0,0,0,4.8-4.9,47.4,47.4,0,0,0,8.3-16.4A13.8,13.8,0,0,0,86,44.1,49.8,49.8,0,0,1,77.9,66.6Z" style="fill: #371a45"/>
    <path d="M84.6,53.4A2.5,2.5,0,0,1,83,55.7l-.5,1.3-.9,2.3-7.1,2.7c-1.2-1.6.4-4,.4-4,3.3-.4,6.7-4,6.7-4a2.3,2.3,0,0,1,1.7-2.2l.9-.2h0l2.1-.3C87,52.6,84.6,53.4,84.6,53.4Z" style="fill: #ffb992"/>
    <g style="opacity: 0.30000000000000004">
      <path d="M82.7,56.5l-.2.5-.9,2.3-7.1,2.7c-1.2-1.6.4-4,.4-4a7.3,7.3,0,0,0,2.2-.7,2.2,2.2,0,0,0,1.6.4A7.4,7.4,0,0,0,82.7,56.5Z" style="fill: #371a45"/>
    </g>
    <path d="M74.5,62.2h-.2c-1.3-1.7.3-4.2.4-4.3h.2c2.9-.4,5.9-3.3,6.4-3.8a2.5,2.5,0,0,1,1.9-2.3l.9-.2h0l2.1-.3.3.2a1.2,1.2,0,0,1,.1,1.1,3.2,3.2,0,0,1-1.8,1.4,2.8,2.8,0,0,1-1.7,2.3L82.8,57l-.9,2.3-.2.2-7.1,2.7Zm.6-4c-.3.4-1.2,2.2-.5,3.4L81.3,59l.9-2.2.5-1.2.2-.2a2.2,2.2,0,0,0,1.4-2,.3.3,0,0,1,.2-.3c.4-.1,1.4-.6,1.6-1.1a.6.6,0,0,0,0-.4l-1.8.3h0l-.9.2A2,2,0,0,0,81.9,54v.2C81.6,54.3,78.4,57.7,75.1,58.2Zm6.5,1.1h0Z" style="fill: #371a45"/>
    <g>
      <path d="M81.6,59.2l-1.4-.4" style="fill: #ffc891"/>
      <path d="M84.1,62.5a1.2,1.2,0,0,1-1.1,1.3,1,1,0,0,1-1.1,1.1s-.7,1.5-3.4-.6a16.4,16.4,0,0,1-11.6,4.6h-.2a10.1,10.1,0,0,0,.6-9.1h0a28.8,28.8,0,0,0,9.7.3,14.2,14.2,0,0,1,5.7-3l-1,2.4c1.4.5,3.4,1.3,3.6,2S84.1,62.5,84.1,62.5Z" style="fill: #ffb992"/>
    </g>
    <path d="M69.9,68.6a14.6,14.6,0,0,1-3.1.2h-.2a10.1,10.1,0,0,0,.6-9.1h0L71,60A11,11,0,0,1,69.9,68.6Z" style="fill: #33aef2"/>
    <g>
      <g style="opacity: 0.30000000000000004">
        <path d="M80.2,58.8l1.4.4,1-2.4-.8.2C81.5,57.5,80.4,58.4,80.2,58.8Z" style="fill: #371a45"/>
      </g>
      <g style="opacity: 0.30000000000000004">
        <path d="M85.2,61.2l-.3-.4c-.1.8-1.2.8-1.2.8a1.2,1.2,0,0,1-1.1,1.3,1,1,0,0,1-1.1,1.1s-.3,1.3-3.1-.7a22.1,22.1,0,0,1-5.2,3.3,3.2,3.2,0,0,1-4.5-2.9,8.5,8.5,0,0,0-1-3.9h-.5a10.1,10.1,0,0,1-.6,9.1h.2a16.4,16.4,0,0,0,11.6-4.6c2.7,2.1,3.4.6,3.4.6a1,1,0,0,0,1.1-1.1,1.2,1.2,0,0,0,1.1-1.3S85.6,62.4,85.2,61.2Z" style="fill: #371a45"/>
      </g>
    </g>
    <g>
      <path d="M81.5,59.6l-1.3-.6h0a.1.1,0,0,1-.1-.2h.2l1.4.2a.4.4,0,1,1-.1.7h-.1Z" style="fill: #371a45"/>
      <path d="M67.4,69.1h-1l-.2-.2a.4.4,0,0,1,0-.3,9.8,9.8,0,0,0,.6-8.8.4.4,0,0,1,0-.3l.4-.2a29,29,0,0,0,9.5.3,14.5,14.5,0,0,1,5.8-3h.4a.4.4,0,0,1,.1.4l-.8,2c3.2,1.1,3.4,1.8,3.5,2.1a1.2,1.2,0,0,1-.1,1.1,1.7,1.7,0,0,1-1,.6A1.5,1.5,0,0,1,83.3,64a1.4,1.4,0,0,1-.3.7,1.4,1.4,0,0,1-.9.4,1.4,1.4,0,0,1-.8.5,3.7,3.7,0,0,1-2.8-1A16.7,16.7,0,0,1,67.4,69.1Zm-.3-.7a16.2,16.2,0,0,0,11-4.5.4.4,0,0,1,.5,0c1.3,1,2,1.1,2.4,1a.7.7,0,0,0,.5-.3l.3-.2c.7,0,.8-.5.8-.7a.4.4,0,0,1,.3-.4.8.8,0,0,0,.8-.9.4.4,0,0,1,.3-.4,1.2,1.2,0,0,0,.8-.3.5.5,0,0,0,0-.5c0-.1-.3-.7-3.4-1.7l-.2-.2a.4.4,0,0,1,0-.3l.7-1.7a14.1,14.1,0,0,0-4.9,2.7h-.2a28.6,28.6,0,0,1-9.2-.2A10.5,10.5,0,0,1,67.1,68.4Z" style="fill: #371a45"/>
    </g>
    <path d="M69.9,68.8h-.1a.3.3,0,0,1-.1-.4,10.8,10.8,0,0,0,1-8.3.3.3,0,1,1,.6-.2,11.4,11.4,0,0,1-1.1,8.7Z" style="fill: #371a45"/>
    <path d="M66.9,68.8,66,70.1h-.3L63.9,70l-1.8-.5L60.4,69l-1.6-.8a.1.1,0,0,1,0-.1h.1l1.7.6,1.7.4,1.7.3,1.7.2h-.3l.8-1.2a.4.4,0,1,1,.6.4Z" style="fill: #371a45"/>
    <path d="M67.1,59.9a.4.4,0,0,1-.3-.2l-.3-.7a.4.4,0,0,1,.6-.4l.4.8a.4.4,0,0,1-.2.5Z" style="fill: #371a45"/>
    <g>
      <g style="opacity: 0.30000000000000004">
        <path d="M64.2,21.8c8.2,1.4,15.5,6.5,13.6,19.3a15.3,15.3,0,0,1,2,2.9C83.4,28,73.9,22.7,64.2,21.8Z" style="fill: #371a45"/>
      </g>
      <path d="M79.7,44.4l-.3-.2A17.4,17.4,0,0,0,72,37a29.5,29.5,0,0,0-26.9-.2,28.6,28.6,0,0,0-3.4,2h-.4a.4.4,0,0,1-.2-.3c-.4-4.7.8-8.5,3.5-11.4,4.7-5.1,12.4-5.8,16.6-5.8s12.2.8,16.6,6.3c3.1,3.9,3.9,9.4,2.3,16.4a.4.4,0,0,1-.3.3ZM58.3,32.9a29.2,29.2,0,0,1,5.4.5,29.8,29.8,0,0,1,8.7,3A18.6,18.6,0,0,1,79.6,43c1.3-6.3.5-11.3-2.4-14.9-4.2-5.3-11.8-6-16-6s-11.6.7-16.1,5.6a13.5,13.5,0,0,0-3.3,10.2l2.9-1.7A30.1,30.1,0,0,1,58.3,32.9Z" style="fill: #371a45"/>
    </g>
    <path d="M79.7,44h0c0,.4-.1.8-.2,1.2a14.8,14.8,0,0,1-2.1,5.7c-2.7,5.7-9.2,8.6-16.8,8.6-9.3,0-15.8-2.7-17.6-11.1A29.4,29.4,0,0,1,41.5,40h0q0-.6,0-1.2v-.2a29.1,29.1,0,0,1,3.4-2l2.2-1h0a29,29,0,0,1,16.5-1.7,30.1,30.1,0,0,1,7.7,2.5l.9.5A17.8,17.8,0,0,1,79.7,44Z" style="fill: #ffb992"/>
    <g style="opacity: 0.6000000000000001">
      <path d="M61.7,59.2c-9.3,0-15.8-2.7-17.6-11.1a29.4,29.4,0,0,1-1.6-8.4h0q0-.6,0-1.2v-.2a29.1,29.1,0,0,1,3.4-2l2.2-1h0l.4-.2-1.4.5h0l-2.2,1a29.1,29.1,0,0,0-3.4,2v.2q0,.6,0,1.2h0a29.4,29.4,0,0,0,1.6,8.4c1.8,8.4,8.4,11.1,17.6,11.1a24,24,0,0,0,9-1.6A24.7,24.7,0,0,1,61.7,59.2Z" style="fill: #fff"/>
    </g>
    <g>
      <path d="M79.7,44h0a15.4,15.4,0,0,1-2.3,6.9A11.6,11.6,0,0,1,74.2,44c-5.6-3.2-5.3-7.3-5.3-7.3a11.7,11.7,0,0,1,2.5-.5l.9.5A17.8,17.8,0,0,1,79.7,44Z" style="fill: #555176"/>
      <path d="M77.5,51.3h-.2a11.8,11.8,0,0,1-3.4-6.9c-5.5-3.3-5.4-7.3-5.4-7.5a.4.4,0,0,1,.2-.3,12,12,0,0,1,2.6-.5h.2l.9.5a18.1,18.1,0,0,1,7.7,7.4.4.4,0,0,1,0,.2h0a15.9,15.9,0,0,1-2.3,7l-.3.2ZM69.2,37.1c.1.9.6,4.1,5.2,6.7a.4.4,0,0,1,.2.3,11.4,11.4,0,0,0,2.9,6.3,15.4,15.4,0,0,0,2-6.3A17.5,17.5,0,0,0,72,37l-.8-.4Z" style="fill: #371a45"/>
    </g>
    <g>
      <path d="M47.1,35.5c0,.1-.1,6.6-2.8,7.8l-1.2,5.1A29.4,29.4,0,0,1,41.5,40q0-.6,0-1.3v-.2a29.1,29.1,0,0,1,3.4-2Z" style="fill: #555176"/>
      <g style="opacity: 0.6000000000000001">
        <path d="M42.5,40q0-.6,0-1.3v-.2a29.1,29.1,0,0,1,3.4-2l1.2-.6v-.4l-2.2,1a29.1,29.1,0,0,0-3.4,2v.2q0,.6,0,1.3a29.4,29.4,0,0,0,1.6,8.4l.4-1.8A28.5,28.5,0,0,1,42.5,40Z" style="fill: #fff"/>
      </g>
      <path d="M43.1,48.8a.4.4,0,0,1-.3-.2A29.7,29.7,0,0,1,41.1,40c0-.4,0-.8,0-1.3h0a.4.4,0,0,1,.2-.3,29.4,29.4,0,0,1,3.5-2l2.2-1h.3a.4.4,0,0,1,.2.3h0c0,.7-.2,6.6-2.9,8l-1.2,5a.4.4,0,0,1-.3.3ZM41.9,38.7c0,.4,0,.8,0,1.3A28.7,28.7,0,0,0,43,47.1l.9-3.9.2-.2c1.8-.8,2.5-4.6,2.6-6.9l-1.6.8Z" style="fill: #371a45"/>
    </g>
    <g style="opacity: 0.30000000000000004">
      <path d="M79.6,43.8h0v-.2h0v-.2h0l-.2-.3h0l-.2-.3h0a18.6,18.6,0,0,0-6.7-5.9l-.9-.5a30.1,30.1,0,0,0-7.7-2.5,29,29,0,0,0-16.5,1.7h0l-2.2,1a29.1,29.1,0,0,0-3.4,2v.2q0,.6,0,1.2v.2a29.1,29.1,0,0,1,3.4-2,5.7,5.7,0,0,0,1.8,1.7,2.5,2.5,0,0,0,1.6.3,82.6,82.6,0,0,1,20.8,0,2.5,2.5,0,0,0,2.1-.7l1-1.2a18.5,18.5,0,0,1,5.2,4.8,14.8,14.8,0,0,1-2.1,5.7c-2.7,5.7-9.2,8.6-16.8,8.6-5.4,0-9.8-.9-13-3.3,3.1,4,8.4,5.5,15.1,5.5s14-2.9,16.8-8.6a14.8,14.8,0,0,0,2.1-5.7c.1-.4.1-.8.2-1.2h0Z" style="fill: #371a45"/>
    </g>
    <path d="M79.7,44.4l-.3-.2A17.4,17.4,0,0,0,72,37a29.5,29.5,0,0,0-26.9-.2,28.6,28.6,0,0,0-3.4,2h-.4a.4.4,0,0,1-.2-.3c-.4-4.7.8-8.5,3.5-11.4,4.7-5.1,12.4-5.8,16.6-5.8s12.2.8,16.6,6.3c3.1,3.9,3.9,9.4,2.3,16.4a.4.4,0,0,1-.3.3ZM58.3,32.9a29.2,29.2,0,0,1,5.4.5,29.8,29.8,0,0,1,8.7,3A18.6,18.6,0,0,1,79.6,43c1.3-6.3.5-11.3-2.4-14.9-4.2-5.3-11.8-6-16-6s-11.6.7-16.1,5.6a13.5,13.5,0,0,0-3.3,10.2l2.9-1.7A30.1,30.1,0,0,1,58.3,32.9Z" style="fill: #371a45"/>
    <path d="M41.5,39.1a.4.4,0,0,1-.4-.3v-.2a.4.4,0,1,1,.7-.1v.2a.4.4,0,0,1-.3.4Z" style="fill: #371a45"/>
    <path d="M79.7,44.4h-.1a.4.4,0,0,1-.3-.4h0a.4.4,0,0,1,.7.1h0A.4.4,0,0,1,79.7,44.4Z" style="fill: #371a45"/>
    <path d="M60.7,59.9c-5,0-8.9-.8-11.8-2.4a12.7,12.7,0,0,1-6.2-8.9A29.7,29.7,0,0,1,41.1,40c0-.4,0-.8,0-1.3h0a.4.4,0,0,1,.2-.3,29.4,29.4,0,0,1,3.5-2l2.2-1h0a29.1,29.1,0,0,1,16.7-1.8,30.6,30.6,0,0,1,7.8,2.5l.9.5a18.1,18.1,0,0,1,7.7,7.4.4.4,0,0,1,0,.2h0a15.9,15.9,0,0,1-2.3,7,14.2,14.2,0,0,1-6.7,6.6A23.6,23.6,0,0,1,60.7,59.9ZM41.9,38.7c0,.4,0,.8,0,1.3a28.9,28.9,0,0,0,1.5,8.3h0c1.6,7.5,7,10.8,17.3,10.8,7.9,0,13.9-3.1,16.5-8.4h0A15.1,15.1,0,0,0,79.4,44,17.5,17.5,0,0,0,72,37l-.9-.5a29.9,29.9,0,0,0-7.6-2.4,28.4,28.4,0,0,0-16.3,1.7h0l-2.2,1Z" style="fill: #371a45"/>
    <g>
      <path d="M72.2,36.7l-1,1.2a2.5,2.5,0,0,1-2.1.7,82.6,82.6,0,0,0-20.8,0,2.5,2.5,0,0,1-1.6-.3,5.7,5.7,0,0,1-1.8-1.7,29.9,29.9,0,0,1,27.3.2Z" style="fill: #33aef2"/>
      <g style="opacity: 0.6000000000000001">
        <path d="M48,38.5a5.7,5.7,0,0,1-1.8-1.7,29.3,29.3,0,0,1,17.6-2.9h-.1a29.3,29.3,0,0,0-18.7,2.7,5.7,5.7,0,0,0,1.8,1.7,2.4,2.4,0,0,0,1.5.3Z" style="fill: #fff"/>
      </g>
      <g style="opacity: 0.30000000000000004">
        <path d="M67.6,34.8l2.7,1.3-1,1.2a2.5,2.5,0,0,1-2.1.7,82.6,82.6,0,0,0-20.8,0h-.3l.5.3a2.5,2.5,0,0,0,1.6.3,82.6,82.6,0,0,1,20.8,0,2.5,2.5,0,0,0,2.1-.7l1-1.2A26.4,26.4,0,0,0,67.6,34.8Z" style="fill: #371a45"/>
      </g>
      <path d="M69.5,39h-.4a82.4,82.4,0,0,0-20.7,0,2.8,2.8,0,0,1-1.9-.4,6,6,0,0,1-1.9-1.8.4.4,0,0,1-.1-.3l.2-.2a30.2,30.2,0,0,1,27.6.2l.2.2a.4.4,0,0,1-.1.3l-1,1.3A2.8,2.8,0,0,1,69.5,39ZM58.7,37.5a77.7,77.7,0,0,1,10.5.7,2.1,2.1,0,0,0,1.8-.6l.7-.8a29.4,29.4,0,0,0-8.1-2.7,28.9,28.9,0,0,0-18.1,2.5,5.1,5.1,0,0,0,1.4,1.3,2.1,2.1,0,0,0,1.4.3A74.1,74.1,0,0,1,58.7,37.5Z" style="fill: #371a45"/>
    </g>
    <path d="M79.7,44.4a.4.4,0,0,1-.4-.4h0a.4.4,0,1,1,.4.4Z" style="fill: #371a45"/>
    <g>
      <ellipse cx="58.5" cy="28.8" rx="1.4" ry="3" style="fill: #fff"/>
      <path d="M58.5,32.2c-1,0-1.8-1.4-1.8-3.4s.8-3.4,1.8-3.4,1.8,1.4,1.8,3.4S59.6,32.2,58.5,32.2Zm0-6c-.5,0-1.1,1.1-1.1,2.6s.6,2.6,1.1,2.6,1.1-1.1,1.1-2.6S59.1,26.2,58.5,26.2Z" style="fill: #371a45"/>
    </g>
    <g>
      <path d="M62.1,21.7a4.8,4.8,0,0,0-3.3,3.1" style="fill: #fff"/>
      <path d="M62.2,22.1h-1l-1,.6-.4.4-.4.4a4.5,4.5,0,0,0-.6,1h-.1a4.7,4.7,0,0,1,.4-1.1l.3-.5.4-.5,1-.8.3-.2H62a.4.4,0,1,1,.2.7h-.1Z" style="fill: #371a45"/>
    </g>
    <path d="M61.8,53.5h-.1c-1.9-.7-1.9-1.8-1.9-1.9h.7s0,.7,1.4,1.2a.4.4,0,0,1-.1.7Z" style="fill: #371a45"/>
    <path d="M61.1,52.9c0,.1,0,.1,0,.1h-.2l-.3.2-.6.4-1.2.4-1.3.2h.5l.5-.2,1-.5h.2l.2-.2.2-.2h.2l.4.3Z" style="fill: #371a45"/>
    <path d="M86.6,57.5A2.2,2.2,0,0,0,85,57c-.7.2-.4,1.6.9,1.7A.8.8,0,0,0,86.6,57.5Z" style="fill: #ffb992"/>
    <path d="M86,59.1h-.2a1.7,1.7,0,0,1-1.5-1.4.8.8,0,0,1,.6-.9,2.5,2.5,0,0,1,1.9.5,1,1,0,0,1,.3,1.2A1,1,0,0,1,86,59.1Zm-.8-1.8H85c-.1,0-.2.1-.2.3a1.1,1.1,0,0,0,1,.9.5.5,0,0,0,.6-.3.5.5,0,0,0-.1-.5h0A2.2,2.2,0,0,0,85.3,57.3Z" style="fill: #371a45"/>
    <path d="M82.7,56.1a.3.3,0,0,1-.1-.6h.3a.3.3,0,0,1,.2.6h-.4Z" style="fill: #371a45"/>
    <path d="M85.7,23.3s.2-.3.8-.7l1-.4,1.4-.2a7.7,7.7,0,0,1,2.5.3l1,.4-1-.2a10.1,10.1,0,0,0-2.4-.2,6.5,6.5,0,0,0-2.3.6Z" style="fill: #371a45"/>
    <rect x="75.8" y="66.8" width="3.6" height="1.21" rx="0.6" ry="0.6" transform="matrix(0.75, 0.66, -0.66, 0.75, 64.45, -34.58)" style="fill: #5e3f96"/>
    <path d="M78.6,69.2l-.5-.2h0L76,67.2a.8.8,0,0,1-.1-1.1l.3-.3.5-.3.5.2,2.1,1.9a.8.8,0,0,1,.1,1.1l-.3.3A.8.8,0,0,1,78.6,69.2Zm0-.7h0l.3-.3a0,0,0,0,0,0-.1l-2.1-1.9h0l-.3.3h0Z" style="fill: #371a45"/>
    <path d="M23.7,61.3c.2,0,.8,0,.8-.1s-.6-.2-.8-.2c-10.9-.6-11.3-.5-11.3-.5S12.8,60.6,23.7,61.3Z" style="fill: #371a45"/>
    <path d="M24,65c.1,0,.5,0,.6-.1s-.4-.2-.5-.2c-7.6-.6-7.8-.5-7.8-.5S16.4,64.4,24,65Z" style="fill: #371a45"/>
    <ellipse cx="26.3" cy="61.2" rx="6.8" ry="3" style="fill: #fff"/>
    <path d="M29.6,63.6h-.1l-.4-.4a.1.1,0,0,1,0-.2h.2l.4.4a.1.1,0,0,1,0,.2Z" style="fill: #f73737"/>
    <path d="M20.5,63.2a.4.4,0,0,1-.1-.7c4.5-1.1,4.5-4,4.5-4.1a.4.4,0,0,1,.7,0c0,.1,0,3.6-5,4.8Z" style="fill: #f73737"/>
    <path d="M27.4,64.4h-.2a.2.2,0,0,1,.1-.3c3.1-1.6,2.4-5,2.4-5.2a.2.2,0,0,1,.5-.1s.7,3.9-2.7,5.7Z" style="fill: #f73737"/>
    <path d="M26.3,64.6c-4,0-7.2-1.5-7.2-3.3s3.2-3.3,7.2-3.3,7.2,1.5,7.2,3.3S30.3,64.6,26.3,64.6Zm0-5.9c-3.9,0-6.5,1.3-6.5,2.6s2.6,2.6,6.5,2.6,6.5-1.3,6.5-2.6S30.2,58.6,26.3,58.6Z" style="fill: #371a45"/>
    <path d="M31.1,60.9H31l-.6-.6a.1.1,0,0,1,0-.2h.2l.6.6a.1.1,0,0,1,0,.2Z" style="fill: #f73737"/>
    <path d="M30.8,61.8h-.1l-.6-.6a.1.1,0,0,1,0-.2h.2l.6.6a.1.1,0,0,1,0,.2Z" style="fill: #f73737"/>
    <path d="M30.3,62.9h-.1l-.4-.4a.1.1,0,0,1,0-.2H30l.4.4a.1.1,0,0,1,0,.2Z" style="fill: #f73737"/>
    <path d="M28.9,60.5h-.1a.1.1,0,0,1,.1-.2l.8-.4h.2a.1.1,0,0,1-.1.2l-.8.4Z" style="fill: #f73737"/>
    <path d="M28.6,61.6h-.1a.1.1,0,0,1,0-.2l.9-.5h.2a.1.1,0,0,1,0,.2l-.9.5Z" style="fill: #f73737"/>
    <path d="M27.8,62.7h0l.9-.3h.1l-.9.3Z" style="fill: #f73737"/>
    <path d="M27.4,63.5h0l.8-.3h.2a.1.1,0,0,1,0,.2l-.9.3Z" style="fill: #f73737"/>
    <path d="M25.7,60.3h-.1l-.5-.5a.1.1,0,0,1,0-.2h.2l.4.5a.1.1,0,0,1,0,.2Z" style="fill: #f73737"/>
    <path d="M23.8,59.7h-.1a.1.1,0,0,1,.1-.1l.8-.3h.1a.1.1,0,0,1-.1.1l-.8.3Z" style="fill: #f73737"/>
    <path d="M25.1,61.2H25l-.5-.6a.1.1,0,0,1,0-.2h.2l.5.6a.1.1,0,0,1,0,.2Z" style="fill: #f73737"/>
    <path d="M24.5,62.1h-.1l-.6-.7a.1.1,0,0,1,0-.2H24l.6.6a.1.1,0,0,1,0,.2Z" style="fill: #f73737"/>
    <path d="M22.9,60.7h-.1a.1.1,0,0,1,.1-.1l1.1-.3H24l-1.1.3Z" style="fill: #f73737"/>
    <path d="M23.1,62.7h-.1a3.1,3.1,0,0,1-.4-.7.1.1,0,0,1,.1-.2h.2l.4.6a.1.1,0,0,1,0,.2Z" style="fill: #f73737"/>
    <path d="M21.8,61.5h0Z" style="fill: #f73737"/>
    <path d="M22.2,63h-.1a1.7,1.7,0,0,1-.2-.7h.2a1.5,1.5,0,0,0,.2.6.1.1,0,0,1,0,.2Z" style="fill: #f73737"/>
    <path d="M20.8,62.3h-.3a.1.1,0,0,1-.1-.1h.4Z" style="fill: #f73737"/>
    <path d="M22.3,57.3h-.5l-1.4.3a5.2,5.2,0,0,0-1.8,1.1,3.6,3.6,0,0,0-.7,1,2.7,2.7,0,0,0,0,2.5,3.6,3.6,0,0,0,.7,1,5.2,5.2,0,0,0,1.8,1.1l1.4.3h0l-1.5-.2a5.1,5.1,0,0,1-1.9-1.1,3.8,3.8,0,0,1-.8-1,3,3,0,0,1,0-2.8,3.8,3.8,0,0,1,.8-1,5.1,5.1,0,0,1,1.9-1.1l1.5-.2Z" style="fill: #371a45"/>
    <path d="M17.2,57l-1.2.9a5.2,5.2,0,0,0-1,1.2l-.4.8v1a4.5,4.5,0,0,0,.2,1.9l.3.8.4.6.7.8.3.3-.4-.2-.8-.8-.4-.6-.4-.8a4.5,4.5,0,0,1-.2-2v-.5l.2-.5.4-.9a4.9,4.9,0,0,1,1.1-1.2A3.1,3.1,0,0,1,17.2,57Z" style="fill: #371a45"/>
    <path d="M16.6,59.1s-.1.3-.3.6a4,4,0,0,0-.1,3.2c.2.4.3.6.2.7s-.2-.2-.5-.6a3.4,3.4,0,0,1,.1-3.4C16.3,59.2,16.6,59,16.6,59.1Z" style="fill: #371a45"/>
    <path d="M23.8,58c.2,0,.8,0,.8-.1s-.6-.2-.8-.2c-10.9-.6-11.3-.5-11.3-.5S12.8,57.3,23.8,58Z" style="fill: #371a45"/>
    <path d="M34.7,60v-.5l-.2-.3a9.3,9.3,0,0,0-1.3-1.8c-1.2-1.3-2.4-2-2.4-2.1l.8.5a11.7,11.7,0,0,1,1.7,1.5,7.4,7.4,0,0,1,1.3,1.8l.2.4v.3C34.7,59.9,34.7,60,34.7,60Z" style="fill: #371a45"/>
    <path d="M32.6,58.9l-.4-.4-1.1-1-1.6-1.3a6.3,6.3,0,0,1,1.8,1.1l1.1,1C32.5,58.7,32.6,58.9,32.6,58.9Z" style="fill: #371a45"/>
    <path d="M32.3,65.2c-.1-.1.6-.7,1.3-1.5l.8-1.2.3-.5s0,.2-.1.6a5.9,5.9,0,0,1-.7,1.3l-1,1.1Z" style="fill: #371a45"/>
    <path d="M26.3,66.6c0-.1,1.5-.5,3.3-1.3l2.2-1.2.9-.5-.8.7-2.2,1.2-2.4.9-.7.2Z" style="fill: #371a45"/>
    <path d="M84.2,44.4a1.3,1.3,0,0,1,0-.5V42.7a29.4,29.4,0,0,0,.2-4.1c0-.8,0-1.6-.1-2.2s-.1-1.3-.2-1.8a16.1,16.1,0,0,1-.2-1.7,6.1,6.1,0,0,1,.4,1.7c.1.5.2,1.1.2,1.8s.1,1.5.1,2.3a21.5,21.5,0,0,1-.3,4.1v1.2Z" style="fill: #371a45"/>
    <path d="M83.5,41.7s0-.1,0-.3v-.7a19.9,19.9,0,0,0,.1-2.3c0-1.8-.2-3.2-.1-3.2a10,10,0,0,1,.5,3.2,11.1,11.1,0,0,1-.2,2.3v.9Z" style="fill: #371a45"/>
    <path d="M92.4,46.9l.3-.8.3-1,.4-1.3c.3-1,.6-2.1.8-3.4s.5-2.8.6-4.3a75.1,75.1,0,0,0,.4-7.9c0-1,0-1.8,0-2.4a5.3,5.3,0,0,1,0-.9,4.1,4.1,0,0,1,.1.9c.1.6.1,1.4.1,2.4a59.9,59.9,0,0,1-.3,7.9c-.2,1.5-.4,3-.7,4.3a32,32,0,0,1-.9,3.5l-.5,1.3-.4,1Z" style="fill: #371a45"/>
    <path d="M87.6,56.4a2.7,2.7,0,0,0-2-.5c-.9.3-.4,1.9,1.1,2.1A.9.9,0,0,0,87.6,56.4Z" style="fill: #ffb992"/>
    <path d="M86.9,58.3h-.2a1.9,1.9,0,0,1-1.8-1.6.9.9,0,0,1,.6-1,3,3,0,0,1,2.3.5,1.2,1.2,0,0,1-.9,2.1ZM86,56.2h-.4a.3.3,0,0,0-.2.4,1.4,1.4,0,0,0,1.3,1.1c.4,0,.7-.1.8-.4a.6.6,0,0,0-.1-.7h0A2.8,2.8,0,0,0,86,56.2Z" style="fill: #371a45"/>
    <path d="M88.2,55.1a3.1,3.1,0,0,0-1.9-.5c-.9.2-.4,1.9,1.1,2A.9.9,0,0,0,88.2,55.1Z" style="fill: #ffb992"/>
    <path d="M87.5,57h-.2a2,2,0,0,1-1.8-1.7.8.8,0,0,1,.7-.9,3.3,3.3,0,0,1,2.1.5h0a1.2,1.2,0,0,1,.3,1.4A1.1,1.1,0,0,1,87.5,57Zm-1-2.1h-.2c-.1,0-.2,0-.2.3a1.4,1.4,0,0,0,1.3,1.2c.4,0,.6-.1.7-.3a.7.7,0,0,0-.1-.7A3.1,3.1,0,0,0,86.6,54.9Z" style="fill: #371a45"/>
    <path d="M89,53.9a2.8,2.8,0,0,0-1.7-.7c-.8,0-.6,1.7.7,2A.8.8,0,0,0,89,53.9Z" style="fill: #ffb992"/>
    <path d="M88.4,55.6H88a1.8,1.8,0,0,1-1.4-1.9.8.8,0,0,1,.8-.7,3.1,3.1,0,0,1,1.9.8h0a1.2,1.2,0,0,1,.1,1.4A1,1,0,0,1,88.4,55.6Zm-1-2.1h0c-.1,0-.2,0-.2.2a1.3,1.3,0,0,0,1,1.2c.3.1.5,0,.7-.2a.6.6,0,0,0,0-.6A2.6,2.6,0,0,0,87.4,53.5Z" style="fill: #371a45"/>
    <path d="M58.9,84.2a11.9,11.9,0,0,1,.3,1.8,7.9,7.9,0,0,1,0,1.9v.9l-.3.9-.4.9L58,91v.2l-.2.2a.4.4,0,0,1-.6-.4h0v-.3l.2-.4.2-.4.2-.4.3-.8v-.8a7.5,7.5,0,0,0,.1-.9c0-.3,0-.6,0-.9s0-1.2,0-1.8h.2Z" style="fill: #371a45"/>
    <g style="opacity: 0.30000000000000004">
      <path d="M32.9,60c-.5,1.4-3.3,2.4-6.8,2.4s-5.8-.9-6.6-2a1.2,1.2,0,0,0-.1.4c0,1.6,3.1,2.8,6.8,2.8s6.8-1.3,6.8-2.8A1.4,1.4,0,0,0,32.9,60Z" style="fill: #371a45"/>
    </g>
    <g style="opacity: 0.30000000000000004">
      <path d="M86.6,51.8a11.3,11.3,0,0,1-1.2,2.4,4.2,4.2,0,0,1-2.1,1.6,3.3,3.3,0,0,0,1.3-2.3,3.2,3.2,0,0,0,1.6-1.1" style="fill: #371a45"/>
    </g>
    <path d="M66.5,42a1.9,1.9,0,0,1-.3,1.1,2.5,2.5,0,0,1-.8.8,3.7,3.7,0,0,1-2.1.6,3.6,3.6,0,0,1-2-.6l-.4-.4-.3-.4a1.7,1.7,0,0,1-.2-1h.3a1.9,1.9,0,0,0,1,1.2,3.6,3.6,0,0,0,1.6.3,3.4,3.4,0,0,0,1.6-.4,1.7,1.7,0,0,0,.9-1.2h0a.3.3,0,0,1,.6,0Z" style="fill: #371a45"/>
    <path d="M55.1,42.2a1.9,1.9,0,0,0-.8-1.2,3,3,0,0,0-1.4-.6,3.4,3.4,0,0,0-1.6.2,2.6,2.6,0,0,0-1.3,1h-.2a2.1,2.1,0,0,1,.4-.9l.2-.2.2-.2.4-.3a3.4,3.4,0,0,1,2-.4,3.3,3.3,0,0,1,1.9.8,2.5,2.5,0,0,1,.6.9,2.1,2.1,0,0,1,.2,1.1.3.3,0,0,1-.7,0Z" style="fill: #371a45"/>
    <g>
      <path d="M50.9,49.7l.6-.6.8-.4.9-.2H54a.5.5,0,0,1-.1.9H51.7l-.7.3h-.1A.1.1,0,0,1,50.9,49.7Z" style="fill: #371a45"/>
      <g>
        <path d="M53.3,43c-1.1-.3-2.3.9-2.6,2.7s.3,3.4,1.5,3.7,2.3-.9,2.6-2.7S54.4,43.2,53.3,43Z" style="fill: #371a45"/>
        <path d="M53.1,43.7c-.4.1-.6.7-.5,1.3s.5,1,.9.9.6-.7.5-1.3S53.5,43.6,53.1,43.7Z" style="fill: #fff"/>
        <path d="M51.6,47.4a.6.6,0,0,0-.1.7c.1.3.4.4.6.3a.6.6,0,0,0,.1-.7C52,47.4,51.8,47.2,51.6,47.4Z" style="fill: #b199c5"/>
      </g>
    </g>
    <g>
      <path d="M64.3,43.7c-1.2-.3-2.4,1-2.6,2.9s.5,3.5,1.7,3.8,2.4-1,2.6-2.9S65.4,43.9,64.3,43.7Z" style="fill: #371a45"/>
      <path d="M64.1,44.4c-.4.1-.6.7-.4,1.4s.6,1,1,.9.6-.7.4-1.4S64.5,44.3,64.1,44.4Z" style="fill: #fff"/>
      <path d="M62.6,48.3a.6.6,0,0,0-.1.8c.1.3.4.5.6.3a.6.6,0,0,0,.1-.8C63.1,48.3,62.8,48.2,62.6,48.3Z" style="fill: #b199c5"/>
    </g>
  </g>
</svg>
