<svg id="Layer_1" data-name="Layer 1" xmlns="http://www.w3.org/2000/svg" viewBox="0 0 120 120">
  <title>Container1</title>
  <g>
    <g>
      <path d="M89,84.7c-1,1.2-2.1,4-5.2,3.1,2.2.7,3.4,5.5,1.7,7.4-6,.1-7.3-3.7-7-6.5-.3,1.4-1.4,6.5-8.8,5.1-1.9-3.8-.5-6.2,2-7.5,0,0-4.9,1.7-5.3-1.8,1.9-3,4-3.3,7.3-2.2a2.8,2.8,0,0,1-.7-4.5c2.7-.8,7.4,2.2,6.8,5.3C82.8,79.8,87.7,81.7,89,84.7Z" style="fill: #57750e"/>
      <path d="M75,85.8c-2-1.4-6.7.5-5,6.6,4.2,0,8.4-1,6.9-5.6-.8-1.2-4.5,1.1-5.6,3.8C71.3,87.3,75,85.8,75,85.8Z" style="fill: #749316"/>
      <path d="M81.3,87.5c3.8-.6,5.5,2.9,4.3,6.4C85.4,92.3,83,88.5,81.3,87.5Z" style="fill: #749316"/>
      <path d="M80,88c.2-1.4,5.6,3.2,5.6,5.9C82.9,93.8,79.4,91.7,80,88Z" style="fill: #749316"/>
      <path d="M75.9,86.9c-1.7.2-4.5,1.8-4.6,3.6C74,91.1,76.6,88.7,75.9,86.9Z" style="fill: #8faf1c"/>
      <path d="M88.3,83.9c-2.4-4.1-9.4-3.6-8.3.7.8-1.4,4.5-2,5.6-1.6-2.4.2-5.3,1.1-4.9,2.7S86.7,86.7,88.3,83.9Z" style="fill: #749316"/>
      <path d="M75.2,83.6c-1.2-4.2-6.8-2.4-8.3.3.5,1.9,6.1,2.1,7.5.8-.3-1.4-3.4-1.8-4.6-1.4C71.4,81.9,74.2,83.1,75.2,83.6Z" style="fill: #749316"/>
      <path d="M78.8,83.5c3-3.5-1.9-5.9-5-6-1.3,1.7-.8,6.4,3.1,6.3.7-1.4-.9-4.1-.9-4.1C77.6,80.6,78.8,83.5,78.8,83.5Z" style="fill: #749316"/>
      <path d="M75,83.1c-.6-2.1-3.7-2.9-6.5-.5C71.8,81.7,74.3,83,75,83.1Z" style="fill: #8faf1c"/>
      <path d="M81.7,81.4c2.5-.6,4.8.8,4.8,1.2s-2.6-.6-5.5.9S80.6,81.7,81.7,81.4Z" style="fill: #8faf1c"/>
      <path d="M75.2,78.1c2.8.1,4.7,1.7,3.9,4.1C78.4,81.9,77,78.3,75.2,78.1Z" style="fill: #8faf1c"/>
      <g>
        <g>
          <path d="M78.1,84.5a1.6,1.6,0,0,0-2.7.7c-.4,1.8,0,2.4-.4,3.3C78.7,89.1,80.3,84.8,78.1,84.5Z" style="fill: #ba3a75"/>
          <path d="M78.5,84.3c.9-1.3,3.1-1,4.2.5s.4,2.6.7,3.3-.4.3-.9-.1-3.2-.6-3.7-2.4S78.5,84.3,78.5,84.3Z" style="fill: #ba3a75"/>
          <path d="M78.1,84.1c-.1-1.4-1.8-2-3.1-1.7s-2,1.3-2.5,1.5-.8.4,0,.5,2.9,2,4.5,1.4S78.1,84.1,78.1,84.1Z" style="fill: #ba3a75"/>
          <path d="M77.3,81.2c-1.2.4-2.2,2.1.7,3.5s3.4-.6,3.1-1.8A3.1,3.1,0,0,0,77.3,81.2Z" style="fill: #ba3a75"/>
          <path d="M76.9,83.4c.3-.6-1.5-.1-1.4-.5s.8-.5,1.2-.4-2.7-.3-3.4.8S76.2,85.2,76.9,83.4Z" style="fill: #e05a90"/>
          <path d="M80.5,83.6c.2-.4,1.3-.3,2.3,1.1s.2,2,.4,2.4.1.6-.4.1-1.4-.6-2.3-1.5-.7-1.8-.2-1.7,1.2.6.8,0S80.3,84,80.5,83.6Z" style="fill: #e05a90"/>
          <path d="M77.8,85.3c.5.3.4-.9.9-.4a1.5,1.5,0,0,1-.5,2c-.9.7-2.5.3-2.4-.8a2.6,2.6,0,0,1,1.5-2C78,84.1,77.3,85,77.8,85.3Z" style="fill: #e05a90"/>
          <path d="M79,81.2c1.6.4,1.7,1.4,1.2,1.5s-.7-.4-1.4-.6-.8.1-1.4-.2S77.2,80.7,79,81.2Z" style="fill: #e05a90"/>
          <path d="M76.6,81.6a3.4,3.4,0,0,0,2.2,1.7c1.3.2,2.1-.5,2.1-1a1.2,1.2,0,0,1,.3,1.2,2.1,2.1,0,0,0-2.2.5,3.1,3.1,0,0,0,1.5,3.2c-1.3-.6-1.5-1.1-1.5-1.1a2,2,0,0,0-.9-1.9c-.6-.3-1.6-.3-2.8,1.2.7-1.5,1.7-1.6,1.8-2.2a.9.9,0,0,0-.9-1A1.2,1.2,0,0,1,76.6,81.6Z" style="fill: #842145"/>
        </g>
        <path d="M78.7,83.9c.7-1,2.7-3.8,3.6-3.5s.7-.8-.2-.7S79.1,82.3,78.7,83.9Z" style="fill: #ed510c"/>
        <path d="M78.4,83.7c-.1-2.7,1.4-4.8.3-5.3s-1.6.3-.6.7S77.8,83.4,78.4,83.7Z" style="fill: #ed510c"/>
        <path d="M78.9,78.5c-.3-.5-.8-.3-.6.2S79.2,79,78.9,78.5Z" style="fill: #ff9929"/>
        <path d="M78.8,79.1H79a1.8,1.8,0,0,1,0,.5.2.2,0,0,1-.2.2.2.2,0,0,1-.2-.2,1.5,1.5,0,0,0,0-.4A.2.2,0,0,1,78.8,79.1Z" style="fill: #ff9929"/>
        <path d="M82.2,79.7h.3a.2.2,0,0,1,.1.3h-.5a.2.2,0,0,1-.2-.2A.2.2,0,0,1,82.2,79.7Z" style="fill: #ff9929"/>
        <path d="M81.4,79.9h.1c.1-.1.2,0,.2.1h-.1C81.4,80.2,81.3,80,81.4,79.9Z" style="fill: #ff9929"/>
        <path d="M81,80.3a.1.1,0,0,1-.1.2A.1.1,0,0,1,81,80.3Z" style="fill: #ff9929"/>
      </g>
    </g>
    <g>
      <g>
        <path d="M35.5,73c-5.8-5.6-22.8-6.5-22.3-3.5S32.4,74.4,35.5,73Z" style="fill: #e2a98c"/>
        <path d="M28.4,69.8c2.2-.6-12.9-2.7-14.4-.6S25.5,70.6,28.4,69.8Z" style="fill: #ffd0bb"/>
        <path d="M36.7,74.4c-9-5.3-31.1-2.9-30.5.9S31.8,81,36.7,74.4Z" style="fill: #e2a98c"/>
        <path d="M28.1,70.1c-1.4,1.5-6.2,1.2-8.9,1,5.3.3,8.9,1,9.1,1.5s-5.8.2-5.8.2c5.3.3,9.8.6,10,1.5S27.4,78,19.8,78.7c5.7.5,16.3-1.7,17.1-4.1" style="fill: #d37272"/>
        <path d="M52.9,83c-1.7.7-2.5,12.2-1.5,13s3.9.5,4.2,1.7-2.9-.1-3.7,0,2.4,2.4.6,3-1.6-2.2-2.6-2.8S45,99.2,45,97.8s3.7-.8,4.3-2,.7-11.8.4-12.8" style="fill: #16232d"/>
        <path d="M56.2,78.9c.2,2.8-2.4,5.6-3,5.8,1.2,1.9-.3,2.5-.7.7-1,2.5-4.5,1.1-3.2-.2-2.4,1.2-2.3-.5-.3-.7-1.6-.7-1.5-6.5-1.5-6.5" style="fill: #e08668"/>
        <path d="M72.3,55.9c3.2,6.5,2.4,21.8-8.8,27.4s-26-.7-30.5-9.2c-1.3-2.4.9-3.3.9-3.3,2.7-5.8,17.6-15.5,27-14.3" style="fill: #004fc1"/>
        <path d="M72.2,57.6c2.4.5,2.3,7.4,1.4,12.4s-18.8,7.6-17,5a23.2,23.2,0,0,0,7.6-11.4c.8-2.3,4.5-3.8,4.5-3.8" style="fill: #0372de"/>
        <path d="M65.8,66.5c-2.9,4.7-5.9,9.2-13.9,9.2s-15.4-5.3-19.2-4.1c-.7.2.1,2.9,1.2,4.1,2.8,3.6,12.2,12.3,25.9,9C71.2,81.9,75,69.6,73.6,65S68.1,62.8,65.8,66.5Z" style="fill: #d37272"/>
        <path d="M38.3,78c-.8.6,2.3,2.9,4.1,1.3S39.1,77.4,38.3,78Z" style="fill: #efa29e"/>
        <path d="M35.7,76.5c.9.2,1.8,1.2,1,1.2S35.2,76.4,35.7,76.5Z" style="fill: #efa29e"/>
        <path d="M41.5,81.1c-.8-1-2.8-.9-2.3-.4S42.5,82.4,41.5,81.1Z" style="fill: #efa29e"/>
        <path d="M66.3,67.1c-2.9,4.7-7,8.6-14.8,9.6-3,.4-10.5.3-9.9,3.5s10.7,6.3,18.2,4.5c11.5-2.8,15.1-14.4,13.7-19S68.6,63.4,66.3,67.1Z" style="fill: #efa29e"/>
        <g>
          <path d="M55.3,55.8c-5.4-6.3-3.5-23.4,8.9-26.6S82.1,38,84.6,41.5c5.2,2.4,2.6,10.7-5.2,14.5S61.9,63.4,55.3,55.8Z" style="fill: #057cdd"/>
          <path d="M63.9,29.9c-7.8,3.4-8.3,12.7-7.3,17.9S58.7,58.8,67.7,58c5.9-.5,13.7-3.5,17.5-8.6s1-7.3-1-8C78.4,30.7,72.4,26.2,63.9,29.9Z" style="fill: #1897d6"/>
          <path d="M73.9,45.3c-1,1.7-1.4,4.2-.1,5.4s2.4,2.4,3.1,1.8,4-4.4,1.7-6.7" style="fill: #057cdd"/>
          <path d="M84.6,41.5c-1.4-.9-4.2,2.3-1.7,4.2S87.6,43.5,84.6,41.5Z" style="fill: #dd7676;opacity: 0.9"/>
          <path d="M60.7,51.3c.6-3.2,8.3-1.3,7.1,1.2S60,54.9,60.7,51.3Z" style="fill: #dd7676;opacity: 0.9"/>
          <path d="M65.7,29.7c-9.2,3.7-3.9,18.5,7.6,14.9S76.4,25.3,65.7,29.7Z" style="fill: #26bbef"/>
          <g>
            <path d="M61.9,39.6c-4.4,2.6-2.4,11.9,3.6,10.3C73.3,47.8,66.5,36.9,61.9,39.6Z" style="fill: #2a70bc"/>
            <path d="M62.1,40.2c-4.2,2.4-2.3,11.4,3.4,9.8C72.9,48,66.5,37.6,62.1,40.2Z" style="fill: #f7aac8"/>
            <path d="M62.3,40.5c-3.1,2.3-2,10.4,3.3,8.7C72.4,47.1,66.1,37.7,62.3,40.5Z" style="fill: #f4e8dc"/>
            <path d="M63.2,39.8c-3.2,2-1.3,9.7,3.3,7.8a3.3,3.3,0,0,0,2.2-3C68,41.6,65.3,38.9,63.2,39.8Z" style="fill: #935337"/>
          </g>
          <g>
            <path d="M78.3,34.5c3.1-.9,7.5,7.2,3.5,8.5S74.7,35.5,78.3,34.5Z" style="fill: #2a70bc"/>
            <path d="M78.4,35c3.2-.9,7,6.8,3.2,8S75,36,78.4,35Z" style="fill: #f7aac8"/>
            <path d="M78.8,35.1c3-.9,6.3,6.3,2.9,7.4S75.6,36.1,78.8,35.1Z" style="fill: #f4e8dc"/>
            <path d="M78.7,34.6c-2.5,1.1-.9,8.3,2.9,7a2.4,2.4,0,0,0,1.3-2.7C82.5,36.9,80.4,34.2,78.7,34.6Z" style="fill: #935337"/>
          </g>
          <path d="M79.8,34.6c-1.8,0-1.9,2.3-1.1,4.3s2.5,2.1,3.2,1.6a2.4,2.4,0,0,0,.6-2.7C82.1,36.5,80.5,34.7,79.8,34.6Z" style="fill: #2d0c00"/>
          <path d="M64.3,39.8c-2.3-.1-2.9,3.4-1.3,5.4A2.8,2.8,0,0,0,68.1,43C67.5,41.5,65.6,39.7,64.3,39.8Z" style="fill: #2d0c00"/>
          <path d="M64.6,45.4c-.9-.6-2.5,1.8-1,2.6S65.1,45.7,64.6,45.4Z" style="fill: #f4e8dc"/>
          <path d="M80.6,39.7c-.6-.5-1.7,1.6-.7,2.2S80.9,40,80.6,39.7Z" style="fill: #f4e8dc"/>
          <path d="M79.3,46.4c.8,1.7.4,4.7-1,5.4s-.7-.4-2.3-.9-3.9-1.3-2.9-2.3" style="fill: #ef9300"/>
          <path d="M78.8,46.5c.5,2.5.2,3.6,0,4s1.2-3.4.1-4.4" style="fill: #ffc41f"/>
          <path d="M78.5,46.6c.5,1.1.2,3.4-.6,3.8s-2.7-1.3-4-1.3" style="fill: #ea4242"/>
          <path d="M77.5,47.7c.6.4.3,2-.1,2.3s-1.7-.4-1.6-.8S76.7,47.1,77.5,47.7Z" style="fill: #fc5959"/>
          <path d="M80.6,36.1c.6,0,.5.9.2.9S80,36.1,80.6,36.1Z" style="fill: #f4e8dc"/>
          <path d="M65.5,41c.7-.1.6,1.1.2,1S64.8,41,65.5,41Z" style="fill: #f4e8dc"/>
          <path d="M72.2,48.8c-1.9-2.6.5-5.3,2.7-5.9s5.2.3,6.4,3c.3.7-2.1.6-3.1,1.4a8.7,8.7,0,0,1-3.3,2c-.6.2-1.2.5-1.9.1Z" style="fill: #ef9300"/>
          <path d="M74.9,42.9A5.3,5.3,0,0,1,81,45.5c0,.4-2,.3-3,.8s-3.3,3-5.1,1.9S72.1,43.8,74.9,42.9Z" style="fill: #ffc41f"/>
          <path d="M76.6,50.1c-1-.4-1.3-.1-.2.5S78.4,50.8,76.6,50.1Z" style="fill: #ffc41f"/>
          <path d="M77.8,42.9c1,.3,1.7,1.7-.6,1.4S75.3,42.3,77.8,42.9Z" style="fill: #ffe443"/>
          <path d="M74.7,45.1c-.9-.2-1.6.4-.9.8S75.3,45.3,74.7,45.1Z" style="fill: #ef9300"/>
          <path d="M62.9,34.9c-1.1-1-2.6.7-2.4,3.3C61.3,35.4,63.3,35.3,62.9,34.9Z" style="fill: #2d0c00"/>
          <path d="M72.8,31.3c0-1.1,1.8-1.6,3.7-.1C74.1,30.3,72.8,31.8,72.8,31.3Z" style="fill: #2d0c00"/>
          <path d="M60,46.3c-1-4.7,1-7.7,4.3-7.2a2,2,0,0,0,1-1.9c.4.9.5,2.5-.2,2.7C62.5,38.8,59.7,41.2,60,46.3Z" style="fill: #2d0c00"/>
          <path d="M77.2,40.5c-1.8-4.4-.5-6.8,2.7-6.3,1.1-.2.9-1.6.9-1.6s.4,2.2-.3,2.5C78.2,34.4,76,35.5,77.2,40.5Z" style="fill: #2d0c00"/>
          <path d="M59.9,31.1c1.1-1.2.5-3.6-.2-4.5,1.5-.5,2.3.3,2,2.3.5-1.7,1.5-3.5,2.9-3.9s3.3.9,3.6,1.4c-1.3-.4-3.5-.1-5.5,2.5,1.4-1.8,5.5-2.5,5.9.6-2.6-1.1-6.4.6-7.7,1.5" style="fill: #057cdd"/>
          <path d="M78.8,46.9c-1,.3-2.3,1.7-3.6,2.1s-1.7-.6-2-.3.4,1,2,.6S77.7,47.4,78.8,46.9Z" style="fill: #ba3000"/>
          <path d="M63.3,28.7c1.7-2.3,4.3-1.7,5.1.1C66.8,28.1,63.3,28.7,63.3,28.7Z" style="fill: #1897d6"/>
          <path d="M62.6,27.7c.1-1.8,2.3-4,5.1-1.8C65.8,25.6,62.6,27.7,62.6,27.7Z" style="fill: #1897d6"/>
          <path d="M61.7,27.5c.3.8.3,2.3-.7,2.8A19.5,19.5,0,0,0,61.7,27.5Z" style="fill: #004fc1"/>
          <path d="M60.8,31.1c1.5-1.9,3.2-2.3,6-2C64.6,29.2,60.8,31.1,60.8,31.1Z" style="fill: #004fc1"/>
          <path d="M65.8,25c2.1.4,1.3,1-.6,1.1S63.8,24.6,65.8,25Z" style="fill: #26bbef"/>
          <path d="M66.9,27.4c1.3.8.6,1.2-.7,1S65.7,26.7,66.9,27.4Z" style="fill: #26bbef"/>
        </g>
        <path d="M42.8,80.6c1.6,1-5.8,14.6-7,15.1s-4.5-.3-4.9.9,3,.2,3.8.4-3.5,1.3-1.8,2.2,2.9-1.4,4-1.8,4.1,1.7,4.3.4-2.8-1.1-3-2.1,7.3-12.9,7.8-13.9" style="fill: #16232d"/>
        <path d="M49.2,80.5c-.6,2.7-3.9,4.7-4.6,4.6.6,2.2-1,2.3-.9.4-1.7,2.1-4.7-.2-3-1.1-2.6.5-2.1-1.1-.1-.7A5.2,5.2,0,0,1,41.8,79" style="fill: #efa29e"/>
        <path d="M26.1,71.9c-6-1-19.2.3-19.3,2.6s19.5,4.2,24-.3c-1.3-.6-10.8-1.2-17.4-.7C20.8,71.5,27.4,72.6,26.1,71.9Z" style="fill: #ffd0bb"/>
        <path d="M71.4,67.9c1,.2,2.1,4.3-1,9.2s-13,8.3-19.8,7.3c-4.6-.7-8.6-3.7-6.8-4.9s6.2,1.5,15.5-3.9C67.1,71.3,68.3,67.2,71.4,67.9Z" style="fill: #f9cbb7"/>
        <path d="M45.9,83.8c.3.7-2,2.3-3.6.9s-.8-2.5.1-2.6A5,5,0,0,1,45.9,83.8Z" style="fill: #f9cbb7"/>
        <path d="M42.7,85.2c.9.3-.3,1.6-1.5,1.1S41.4,84.7,42.7,85.2Z" style="fill: #f9cbb7"/>
        <path d="M40.8,83.8c.2.2-1.3.4-1.6.2s1.4-.6,1.6-.2" style="fill: #f9cbb7"/>
        <path d="M71.2,64.5c1.3.3.7,3.9-.6,3.8S69.6,64.1,71.2,64.5Z" style="fill: #f9cbb7"/>
        <path d="M67.7,67c1,.3-.1,2.1-.8,2S66,66.5,67.7,67Z" style="fill: #f9cbb7"/>
        <path d="M64.7,71.3c.9.2.4,2.6-.9,2.2S63.5,71,64.7,71.3Z" style="fill: #f9cbb7"/>
        <path d="M53.5,78c-1.1-.8-4.7.4-3.4,1.1S54.5,78.7,53.5,78Z" style="fill: #f9cbb7"/>
        <path d="M70.6,71.8c1.9,1.7-1.3,7.3-2.5,6.8s.4-2.1.4-2.1-1.9,3.2-3.4,2.3.8-3.6.8-3.6-.8,1-1.3.3S67.8,70.3,70.6,71.8Z" style="fill: #ffe5dc"/>
        <path d="M66.5,79.4c-2.5,1.4-2.6-.9-2.4-1.4-3,2.3-5.5,3.9-4.7,4.5S64,81.8,66.5,79.4Z" style="fill: #ffe5dc"/>
        <path d="M63.9,74.9c-.2,1.3.5,1.3.5,1.3S62,78.3,61.7,78,63.5,75.7,63.9,74.9Z" style="fill: #ffe5dc"/>
        <path d="M66.9,78.9c.2.6.9.5,1.8-.1-1.5,1.9-4.3,3.5-4.9,2.6A12.8,12.8,0,0,0,66.9,78.9Z" style="fill: #ffe5dc"/>
        <path d="M60.5,78.4c-.2,1,1.4.9,1.4.9s-2.7,1.4-3,.9S60.5,78.4,60.5,78.4Z" style="fill: #ffe5dc"/>
        <path d="M16.6,71.8c-4.3.3-9.9,1.1-9.2,2.7s9.2,1.5,14.7,0c-4.5-.9-12-.5-12-.5C11.6,72.9,16.6,71.8,16.6,71.8Z" style="fill: #ffe9e3"/>
        <path d="M20,68.4c-1.9-.6-7.1-.1-6,.7S21.8,69,20,68.4Z" style="fill: #ffe5dc"/>
        <g>
          <path d="M35.2,65.7s-8-1.5-9.1-.5,8.7,2.1,8.7,2.1-9.7-2.1-10.4-.5,13.7,3.8,13.7,3.8S25.4,68,25.2,69.4s7.3,4.7,14,4.5" style="fill: #56312c"/>
          <path d="M39.7,62.3c-5.1.8-10.2,4.1-7,4.6-3.1.4-3,2.4,1.6,3.5-.5,0-1.4-.6-1.6-.4s2.5,4,8.7,4.6S54,71.3,52.9,69.1" style="fill: #16232d"/>
          <path d="M38.5,65.6a1.7,1.7,0,0,1-1.2-2.4c-2.6.7-5.5,1.8-5.5,2.5S35,66,38.5,65.6Z" style="fill: #45565e"/>
          <path d="M37.3,66.9c-.3,1.6,1.2,2.3,4.3,2.4-4.4.3-9.6-.8-9.8-1.8S37.3,66.9,37.3,66.9Z" style="fill: #45565e"/>
          <path d="M39.9,70.4c-.4,1.1.7,2.3,2.9,3.1-4-.1-9.6-2.3-9.8-3.4S39.9,70.4,39.9,70.4Z" style="fill: #45565e"/>
          <path d="M31.2,65.3c-.9-.6-5.6-.5-5.1-.2S32.3,66.1,31.2,65.3Z" style="fill: #844741"/>
          <path d="M31.2,66.9c-4.2-.9-6.2-.7-6.4-.1s5.1,2.1,7.1,2.5a2.3,2.3,0,0,1-1.4-1.5l-3.7-1A36,36,0,0,1,31.2,66.9Z" style="fill: #844741"/>
          <path d="M31.6,69.6a1.1,1.1,0,0,0,.3.8,12.3,12.3,0,0,0-4-.6A20.2,20.2,0,0,1,32.1,71a5.9,5.9,0,0,0,2.1,1.5c-4.8-.3-8.7-2.5-8.7-3.2S30.7,69.4,31.6,69.6Z" style="fill: #844741"/>
          <path d="M60.4,62.4c2.2,6.6-4.7,12.7-13.1,12.1-4.6-.3-9.4-3.8-2.7-6.4-5.1.8-10.2-1.5-2.8-3.5-4,0-4.1-3.5,4.3-5.6S58.5,57.1,60.4,62.4Z" style="fill: #0372de"/>
          <path d="M56.6,59c4.4,2.1,4.1,8.1-1.3,11S43,71.9,43,69.7s4.3-2.9,4.1-2.9c-4.1.8-7.7.4-7.8-1s2.1-1.2,4.6-2.1c-6.1.6-5.3-2.5,1.5-4.5C50.3,57.7,54.1,57.8,56.6,59Z" style="fill: #1897d6"/>
          <path d="M55.3,58.5c-4.6-1.7-15.4,2.7-9.3,5.6S62.4,61.2,55.3,58.5Z" style="fill: #26bbef"/>
          <path d="M46.5,60.7c-1-.7-5.1.5-3.8,1.3S47.9,61.7,46.5,60.7Z" style="fill: #26bbef"/>
          <path d="M46.7,64.3c-1-.9-6.9.4-5.3,1.5S48.5,65.9,46.7,64.3Z" style="fill: #26bbef"/>
          <path d="M51.8,66.6c1.2.6-.3,2.5-2.8,1.6S50.2,65.9,51.8,66.6Z" style="fill: #26bbef"/>
          <path d="M55.3,64.1c.9.3-.6,1.6-2,1S53.6,63.7,55.3,64.1Z" style="fill: #26bbef"/>
        </g>
        <path d="M37.6,63.7l-3.9,1.1,4.1-.6" style="fill: #16232d"/>
        <path d="M37.5,67.3a15,15,0,0,0-3.9-.1,27.8,27.8,0,0,0,4.6.7" style="fill: #16232d"/>
        <path d="M40.1,70.9a16,16,0,0,0-4.8-.3,24.4,24.4,0,0,0,5.1,1" style="fill: #16232d"/>
        <path d="M33.1,64.9c-.1.2.4.6,1.5.7C31.7,66,31.2,65.7,33.1,64.9Z" style="fill: #758389"/>
        <path d="M33.8,66.8c-.9.3-.6,1,.3,1.4C31.5,67.9,30.7,66.8,33.8,66.8Z" style="fill: #758389"/>
        <path d="M35.2,70.2c-.9.2-1.2.4.7,1.3C32.8,70.8,32,69.7,35.2,70.2Z" style="fill: #758389"/>
        <path d="M38.3,93.6c.4.3-1.2,1.8-.9,2.4s1.7.4,2.4.7.8.9,0,1-1.9-1.2-2.8-1.1-2,1.3-2.6,1.9-1.8.4-1.5-.2,2.5-1.2,2.2-1.5a4.5,4.5,0,0,0-2.6-.1c-.6.2-1-.5,0-.7s2.9.3,3.8-.1S37.9,93.3,38.3,93.6Z" style="fill: #324147"/>
        <path d="M50.6,94.3c-.4-.1-.2,1.4-.7,1.8s-3.2.5-3.9.8-.5.8.3.8,2.9-1.2,3.7-.8.8,1.9,1.2,2.7,1.4.8,1.4.1-1.5-1.9-1-2.5,2.5,0,3,.4,1.1-.1.3-.7-2.9-.1-3.6-.8S50.9,94.4,50.6,94.3Z" style="fill: #324147"/>
        <path d="M38.9,92.6c.3.1-.1.9-.4.7S38.5,92.4,38.9,92.6Z" style="fill: #324147"/>
        <path d="M40.8,88.7c.4,0,.1.7-.2.6S40.5,88.7,40.8,88.7Z" style="fill: #324147"/>
        <path d="M41.2,88.3c.4.1.4-.4.1-.5S41,88.2,41.2,88.3Z" style="fill: #324147"/>
        <path d="M33.2,97.8c.7-.4,1,.2.4.5S32.3,98.3,33.2,97.8Z" style="fill: #526166"/>
        <path d="M52.4,99.4c.5.6-.2,1-.6.5S51.7,98.6,52.4,99.4Z" style="fill: #526166"/>
        <path d="M32.3,95.9c-.4,0-.8.6,0,.6S32.7,95.9,32.3,95.9Z" style="fill: #526166"/>
        <path d="M46.2,96.9c-.4,0-.8.6,0,.6S46.6,96.8,46.2,96.9Z" style="fill: #526166"/>
        <path d="M50.5,93.3c.3,0,.4.8,0,.7S50,93.3,50.5,93.3Z" style="fill: #324147"/>
        <path d="M50.6,87.8c.3,0,.5.5,0,.5S50.3,87.8,50.6,87.8Z" style="fill: #324147"/>
      </g>
      <path d="M89.2,26.7c1-1.1,9.7,4.3,9.6,5.5s-3.2,6.7-2.3,6.8,3-1.2,3.2,1.7-3.8,3.6-4.8,1.3,1-6.7,1.4-7.4-5.3-2.4-5.9-3.4S88.6,27.3,89.2,26.7Z" style="fill: #ff6161"/>
    </g>
  </g>
</svg>
