<svg id="Layer_1" data-name="Layer 1" xmlns="http://www.w3.org/2000/svg" viewBox="0 0 120 120">
  <title>Container1</title>
  <g>
    <g>
      <path d="M27.6,99.2c0,.1-.3.3-.7.3a.5.5,0,0,0-.4.4c-.1.4-.2.7-.3.7s-.3-.3-.3-.7a.5.5,0,0,0-.4-.4c-.4-.1-.7-.2-.7-.3s.3-.3.7-.3a.5.5,0,0,0,.4-.4c.1-.4.2-.7.3-.7s.3.3.3.7a.5.5,0,0,0,.4.4C27.3,98.9,27.6,99,27.6,99.2Z" style="fill: #fff"/>
      <path d="M93,76.4c0,.2-.4.2-.9.2a.6.6,0,0,0-.6.4c-.2.5-.4.7-.5.7s-.2-.4-.2-.9a.6.6,0,0,0-.4-.6c-.5-.2-.7-.4-.7-.5s.4-.2.9-.2a.6.6,0,0,0,.6-.4c.2-.5.4-.7.5-.7s.2.4.2.9a.6.6,0,0,0,.4.6C92.7,76,93,76.2,93,76.4Z" style="fill: #fff"/>
      <path d="M103,23.7c0,.2-.4.4-1,.4a.7.7,0,0,0-.6.6c-.1.6-.3,1-.4,1s-.4-.4-.4-1a.7.7,0,0,0-.6-.6c-.6-.1-1-.3-1-.4s.4-.4,1-.4a.7.7,0,0,0,.6-.6c.1-.6.3-1,.4-1s.4.4.4,1a.7.7,0,0,0,.6.6C102.6,23.3,103,23.5,103,23.7Z" style="fill: #fff"/>
      <circle cx="90" cy="51.6" r="0.5" style="fill: #fff"/>
      <circle cx="92.4" cy="90" r="0.5" transform="translate(-36.1 78.7) rotate(-39.2)" style="fill: #fff"/>
      <circle cx="75.8" cy="87.7" r="0.7" transform="translate(-38.2 108.7) rotate(-59.6)" style="fill: #fff"/>
      <circle cx="24.9" cy="36.8" r="0.8" transform="translate(-3.9 3) rotate(-6.4)" style="fill: #fff"/>
      <circle cx="92.3" cy="13.2" r="0.5" style="fill: #fff"/>
      <circle cx="38.2" cy="15.2" r="0.8" transform="translate(-1.4 4.3) rotate(-6.4)" style="fill: #fff"/>
      <circle cx="21.5" cy="93.7" r="0.6" style="fill: #fff"/>
      <circle cx="101.1" cy="44.4" r="0.3" style="fill: #fff"/>
      <circle cx="77.1" cy="103.2" r="0.3" transform="translate(-47.9 72) rotate(-39.2)" style="fill: #fff"/>
      <circle cx="44.1" cy="29.2" r="0.4" transform="translate(-3 5.1) rotate(-6.4)" style="fill: #fff"/>
      <circle cx="30.2" cy="45.9" r="0.4" transform="translate(-2.3 1.6) rotate(-2.9)" style="fill: #fff"/>
      <circle cx="27" cy="72.6" r="0.3" transform="translate(-45.7 99.4) rotate(-89.9)" style="fill: #fff"/>
      <circle cx="21.4" cy="67.1" r="0.6" transform="translate(-47.6 81.4) rotate(-84)" style="fill: #fff"/>
    </g>
    <g>
      <path d="M72.8,58.9a.3.3,0,0,1-.3-.3V45.9a.3.3,0,0,1,.6,0V58.6A.3.3,0,0,1,72.8,58.9Z" style="fill: #371a45"/>
      <path d="M71.6,58.4a.3.3,0,0,1-.3-.2L68.3,39.6a.3.3,0,0,1,.6-.1L71.9,58a.3.3,0,0,1-.2.3Z" style="fill: #371a45"/>
      <path d="M73.7,59.7h-.1a.3.3,0,0,1-.2-.3l4.2-22.5a.3.3,0,1,1,.6.1L74,59.4A.3.3,0,0,1,73.7,59.7Z" style="fill: #371a45"/>
      <g>
        <path d="M48.9,74.3v2.9l-.8,17-2.7-.4-.9-.2c-2.4-.5-5.3-1.4-6.3-2.8s-.6-11.3,1.3-14.8c.9-1.6,4.5-1.9,7-1.9h2.6Z" style="fill: #fff"/>
        <g style="opacity: 0.35000000000000003">
          <path d="M48.8,76.3v1l-.6,13.5-.2,3.5H46.5l-1.2-.2h-.9c-2.4-.5-5.3-1.4-6.3-2.8s-.9-8.3.4-12.5c-.6,3.7-.5,7.7.4,9a5.6,5.6,0,0,0,2.5,1.6.6.6,0,0,0,.9-.7h0a11.4,11.4,0,0,1-.1-3.1c.3-2.6,1.1-6.2,4.2-8.9Z" style="fill: #371a45"/>
        </g>
        <path d="M48.4,94.8h-.5c-.3,0-8.4-.9-10.3-3.6s-.8-5.9-.7-7.2.9-6.1,2-8.1,9.2-2.1,10-2.1h.5ZM46.4,74.7c-2.6,0-6,.3-6.7,1.7-2,3.5-2.6,12.5-1.3,14.2s6.6,2.8,9.1,3.1l.9-19Z" style="fill: #371a45"/>
        <path d="M38.9,84.1l3.3.6a.7.7,0,0,1,.5.6c.1,1.1.2,3.6-.9,4.4a2.6,2.6,0,0,1-3.1-.4c-.8-.9-.7-3.3-.6-4.5A.7.7,0,0,1,38.9,84.1Z" style="fill: #fff"/>
        <g style="opacity: 0.35000000000000003">
          <path d="M42.7,85.2c.1,1.1.2,3.6-.9,4.4a2.6,2.6,0,0,1-3.1-.4,4.3,4.3,0,0,1-.7-2.8,2.8,2.8,0,0,0,.6,1.3,1.8,1.8,0,0,0,3,0s.2.5.3.5.8-2.1.8-3.3Z" style="fill: #371a45"/>
        </g>
        <path d="M40.5,90.4a3.1,3.1,0,0,1-2.2-.9c-.9-.9-.9-3.2-.7-4.9a1.1,1.1,0,0,1,1.3-1h0l3.3.6a1.1,1.1,0,0,1,.9,1c.1,1.4.1,4-1.2,4.8A2.8,2.8,0,0,1,40.5,90.4Zm-1.8-5.9h-.2c-.2,2.1,0,3.7.4,4.2a2.1,2.1,0,0,0,2.5.3c.6-.4.9-1.9.7-3.9v-.2l-3.3-.6h0Z" style="fill: #371a45"/>
        <path d="M40,89.6h.4l.4-.4a3.1,3.1,0,0,0,.5-.9,6,6,0,0,0,.3-1.1,4.4,4.4,0,0,0,.1-1.1,4.4,4.4,0,0,1,.1,1.2,6.2,6.2,0,0,1-.1,1.2,3.5,3.5,0,0,1-.5,1.1l-.4.5-.2.2h-.3a.3.3,0,1,1-.3-.5Z" style="fill: #371a45"/>
        <path d="M44.3,76.6l-1.2-.2H39.5a.5.5,0,1,1-.2-.9h1.3l1.3.2,1.2.2,1.2.3a.2.2,0,0,1-.1.5Z" style="fill: #371a45"/>
      </g>
      <g>
        <path d="M75.5,20.1h0Z" style="fill: #d66b09"/>
        <path d="M76.3,30.8l1,1.2a.9.9,0,0,1-.6,1.5l-1.5.2a.9.9,0,0,1-1-1.3l.5-1.4A.9.9,0,0,1,76.3,30.8Z" style="fill: #e25a5a"/>
        <g style="opacity: 0.35000000000000003">
          <path d="M76.3,30.8l1,1.2a.9.9,0,0,1-.6,1.5l-1.5.3a.9.9,0,0,1-1-1.3l.5-1.4A.9.9,0,0,1,76.3,30.8Z" style="fill: #371a45"/>
        </g>
        <path d="M74.7,34.3a1.3,1.3,0,0,1-1.2-1.8l.7-2a1.3,1.3,0,0,1,2.2-.4l1.3,1.6A1.3,1.3,0,0,1,77,34l-2.1.3Zm.8-3.5h0l-.2.2-.7,2a.3.3,0,0,0,0,.3h.2l2.1-.3.2-.2a.3.3,0,0,0,0-.3l-1.3-1.6Z" style="fill: #371a45"/>
        <path d="M63.4,20.2c1.2,5.9,8.5,11.9,12.2,11.1s7.9-9.3,6.6-15.1S75.7,6.5,70.5,7.6,62.1,14.3,63.4,20.2Z" style="fill: #00d7ed"/>
        <g style="opacity: 0.7000000000000001">
          <path d="M63.4,20.2h0c-.6-5.4,2.5-10.3,7.4-11.4s10.3,2.7,11.6,8.4a10,10,0,0,0-.2-1.1C81,10.3,75.7,6.5,70.5,7.6S62.1,14.3,63.4,20.2Z" style="fill: #fff"/>
        </g>
        <g style="opacity: 0.35000000000000003">
          <path d="M63.4,20.2c1.2,5.9,8.5,11.9,12.2,11.1s7.9-9.3,6.6-15.1V16c-.1,4.7-4,10.5-7.3,11.2s-10.7-4-11.7-8.9v-.4A12.1,12.1,0,0,0,63.4,20.2Z" style="fill: #371a45"/>
        </g>
        <path d="M74.9,31.9c-1.9,0-4.3-1.2-6.7-3.3a16.5,16.5,0,0,1-5.3-8.3c-1.3-6.1,2.1-12,7.6-13.2s11,2.9,12.3,9a16.5,16.5,0,0,1-1.5,9.8c-1.5,3.3-3.6,5.5-5.5,5.9Zm-2.6-24-1.7.2c-4.9,1-8,6.4-6.8,12s7.4,10.8,11,10.8h.6c3.4-.7,7.4-8.9,6.2-14.5S76.6,7.9,72.3,7.9Z" style="fill: #371a45"/>
        <g style="opacity: 0.5">
          <path d="M71.3,10.4a6.5,6.5,0,0,0-5.3,3c-1.2,1.9-.5,3.4.9,3.1s1.6-2.5,4.8-4.1S73.4,10.3,71.3,10.4Z" style="fill: #fff"/>
        </g>
      </g>
      <g>
        <path d="M68.1,29.9h0Z" style="fill: #d66b09"/>
        <path d="M56,30c1.2,5.9,8.5,11.9,12.2,11.1s7.9-9.3,6.6-15.1-6.5-9.7-11.7-8.6S54.8,24.1,56,30Z" style="fill: #f22"/>
        <g style="opacity: 0.7000000000000001">
          <path d="M56,30h0c-.6-5.4,2.5-10.3,7.4-11.4S73.7,21.3,75,27.1a10,10,0,0,0-.2-1.1c-1.2-5.9-6.5-9.7-11.7-8.6S54.8,24.1,56,30Z" style="fill: #fff"/>
        </g>
        <g style="opacity: 0.35000000000000003">
          <path d="M56.2,28.8c1.2,5.9,8.5,11.9,12.2,11.1s7.9-9.3,6.6-15.1v-.2c-.1,4.7-4,10.5-7.3,11.2S57,31.8,56,26.9v-.4A12.1,12.1,0,0,0,56.2,28.8Z" style="fill: #371a45"/>
        </g>
        <path d="M67.6,41.6c-1.9,0-4.3-1.2-6.7-3.3a16.5,16.5,0,0,1-5.3-8.3,12,12,0,0,1,1.2-8.4,9.4,9.4,0,0,1,14.1-3,12,12,0,0,1,4.6,7.2,16.5,16.5,0,0,1-1.5,9.8c-1.5,3.3-3.6,5.5-5.5,5.9ZM65,17.7l-1.7.2a8.6,8.6,0,0,0-5.7,4.3,11,11,0,0,0-1.1,7.7c1.1,5.3,7.4,10.8,11,10.8h.6c3.4-.7,7.4-8.9,6.2-14.5a11,11,0,0,0-4.2-6.6A8.8,8.8,0,0,0,65,17.7Z" style="fill: #371a45"/>
        <g style="opacity: 0.5">
          <path d="M64,19.9a6.5,6.5,0,0,0-5.3,3c-1.2,1.9-.5,3.4.9,3.1s1.6-2.5,4.8-4.1S66,19.7,64,19.9Z" style="fill: #fff"/>
        </g>
      </g>
      <g>
        <path d="M81.6,30.1h0Z" style="fill: #d66b09"/>
        <path d="M77.2,39.9l.3,1.5a.9.9,0,0,1-1.2,1.1l-1.4-.5a.9.9,0,0,1-.3-1.6l1.2-1A.9.9,0,0,1,77.2,39.9Z" style="fill: #3bd8e0"/>
        <g style="opacity: 0.35000000000000003">
          <path d="M77.2,39.9l.3,1.5a.9.9,0,0,1-1.2,1.1l-1.4-.5a.9.9,0,0,1-.3-1.6l1.1-1A.9.9,0,0,1,77.2,39.9Z" style="fill: #371a45"/>
        </g>
        <path d="M76.7,43.1h-.4l-2-.7a1.3,1.3,0,0,1-.4-2.2l1.6-1.4a1.3,1.3,0,0,1,2.1.7l.4,2.1a1.3,1.3,0,0,1-1.3,1.5Zm-.4-3.6h-.2l-1.6,1.4a.3.3,0,0,0,.1.4l2,.7h.3a.3.3,0,0,0,.1-.2l-.4-2.1a.3.3,0,0,0-.2-.2Z" style="fill: #371a45"/>
        <path d="M71,24.3c-1.7,5.7,1.7,14.5,5.4,15.6s11.4-4.3,13.1-10.1-1-11.6-6.1-13.2S72.7,18.6,71,24.3Z" style="fill: #068fff"/>
        <g style="opacity: 0.7000000000000001">
          <path d="M71,24.3h0c2.1-5,7.2-7.8,11.9-6.4s7.8,7.3,6.2,13l.4-1.1c1.7-5.7-1-11.6-6.1-13.2S72.7,18.6,71,24.3Z" style="fill: #fff"/>
        </g>
        <g style="opacity: 0.35000000000000003">
          <path d="M71,23c-1.7,5.7,1.7,14.5,5.4,15.6s11.4-4.3,13.1-10.1v-.2c-2.3,4.1-8.5,7.3-11.8,6.3s-7.5-8.7-6-13.4v-.4A12.1,12.1,0,0,0,71,23Z" style="fill: #371a45"/>
        </g>
        <path d="M77.4,40.6l-1.2-.2c-1.9-.6-3.8-3-5-6.4a16.5,16.5,0,0,1-.7-9.9h0a12,12,0,0,1,5.1-6.8,9.4,9.4,0,0,1,13.8,4.1,12,12,0,0,1,.5,8.5,16.5,16.5,0,0,1-6,7.9A12,12,0,0,1,77.4,40.6ZM71.5,24.5c-1.6,5.4,1.7,14,5,15s10.8-4.3,12.4-9.7a11,11,0,0,0-.5-7.8,8.4,8.4,0,0,0-12.3-3.7,11,11,0,0,0-4.7,6.2Z" style="fill: #371a45"/>
        <g style="opacity: 0.5">
          <path d="M82.8,19.3a6.5,6.5,0,0,0-6.1.1c-1.9,1.1-2.1,2.7-.7,3.2s2.7-1.4,6.2-1.3S84.7,20.2,82.8,19.3Z" style="fill: #fff"/>
        </g>
      </g>
      <path d="M72.1,67.1a4.9,4.9,0,0,1-1.7.1h-.1a43.1,43.1,0,0,1-7.9,10.6,3.1,3.1,0,0,1-1.1.6c-2.4.9-6.1-.6-6.1-.6l.4-2,1-4.8,1.5-1,.3-.2a31.9,31.9,0,0,0,3.1-2.6,48.5,48.5,0,0,0,6.6-8.1,2.9,2.9,0,0,1,3.3-1.2c1.3.3,1.9.8,2.1,1.6s1.2-.1,1.2,1.5S74.4,66.6,72.1,67.1Z" style="fill: #fff"/>
      <g style="opacity: 0.35000000000000003">
        <path d="M70.4,67.3a43.1,43.1,0,0,1-7.9,10.6c-2.2,2-7.1,0-7.1,0l.5-2.4a9.1,9.1,0,0,0,5.3-.9c6.5-2.9,7-7.3,7.4-9.5A2.6,2.6,0,0,0,70.4,67.3Z" style="fill: #371a45"/>
      </g>
      <g style="opacity: 0.35000000000000003">
        <path d="M71.2,67.2s-2,.2-2.5-2.9a5.6,5.6,0,0,0,2.4.9,4.5,4.5,0,0,0,3.3-.9S73.7,67.3,71.2,67.2Z" style="fill: #371a45"/>
      </g>
      <path d="M57.2,71.3a.5.5,0,0,1-.2-.9h0c.1,0,5.1-2.6,10.9-11.4a3.4,3.4,0,0,1,3.9-1.4,3.3,3.3,0,0,1,2.3,1.5,3.5,3.5,0,0,1-.3,3c-.5,1.2-1.7,1.9-2.6,1.6s-1.5-1.5-.7-4a.5.5,0,0,1,.9.3c-.5,1.7-.3,2.7.2,2.8s1-.2,1.4-1.1a2.7,2.7,0,0,0,.3-2.2,3,3,0,0,0-4.5-.1h0c-6,9-11.1,11.6-11.3,11.7Z" style="fill: #371a45"/>
      <path d="M59,80.8a.5.5,0,0,1-.1-.9S63.6,78.4,70,66.9l.2-.3h.3a4.5,4.5,0,0,0,1.5-.1c1.9-.4,2.5-4.2,2.5-5.4a1.3,1.3,0,0,0-.3-.9h-.4a.5.5,0,0,1-.5-.4.5.5,0,0,1,.4-.5,1.5,1.5,0,0,1,1.1.4,2.1,2.1,0,0,1,.6,1.6c0,1.8-.7,5.9-3.2,6.4H70.7c-6.6,11.6-11.4,13-11.6,13.1Z" style="fill: #371a45"/>
      <path d="M70.5,67.6h-.1a2.4,2.4,0,0,1-1.8-1.1c-.6-1-.5-2.5.3-4.6s1.8-2.1,2-2.1v1h0s-.6.1-1.1,1.5-.8,3.1-.4,3.8a1.4,1.4,0,0,0,1.1.7.5.5,0,0,1-.1,1Z" style="fill: #371a45"/>
      <path d="M61.5,92c-.5,2.5-1.7,8.5-5.1,11.9,0,0,.3,4.6-1.6,6.2s-5,.3-5.8-2.2.3-5.6.9-6.6a16.9,16.9,0,0,0,2.2-6.4H50.4a24,24,0,0,1-5.1,7.7s-.1,4.1-2.7,5.7a4.3,4.3,0,0,1-6.3-2.7c-.5-2.2.8-5.4,1.6-6.6a42.2,42.2,0,0,0,4.3-9.7l.2-.7.6-2.8.5-2.5c.5-2.3.9-4.2,1.1-5.4s.1-.8.3-1.9.4-1.9.6-2.9,1-3.1,1.6-3.1h9.7l1.5.3a3.7,3.7,0,0,1,1.8,1.6,6.4,6.4,0,0,1,.8,2.5l.5,4.2C61.9,82.5,62.3,87.5,61.5,92Z" style="fill: #fff"/>
      <g style="opacity: 0.35000000000000003">
        <path d="M44.1,85.9v.4l-1.1-.5h0Z" style="fill: #371a45"/>
      </g>
      <g style="opacity: 0.35000000000000003">
        <path d="M51,100.7c-.6,1-1.6,4.4-.9,6.6s2.9,2.9,4.6,2.7h0c-1.3,1.1-5,.3-5.8-2.2s.3-5.6.9-6.6a16.9,16.9,0,0,0,2.2-6.4H50.4l-.5,1.1a2.1,2.1,0,0,0-.4-2,.5.5,0,0,1,.6-.7,8.9,8.9,0,0,0,3.2.7A11.3,11.3,0,0,0,58,93a.5.5,0,0,1,.6.7C57.2,95.7,52.1,98.8,51,100.7Z" style="fill: #371a45"/>
      </g>
      <path d="M44.7,77.9c-.4,3.6-1.1,7.2-1.9,10.7a20.9,20.9,0,0,1-.8,2.7l-1,2.6-1.2,2.5-1.3,2.4-.4.6-.2.3v.3l-.5,1.2-.4,1.2a10,10,0,0,0-.2,1.3,6.1,6.1,0,0,0,0,1.3,4,4,0,0,0,.3,1.2,3.5,3.5,0,0,0,.7,1l1,.7a4.2,4.2,0,0,0,2.4.4l1.1-.3.2-.2h.2l.5-.4.7-1,.5-1.2a9.3,9.3,0,0,0,.3-1.3V103c0-.2,0-.4.1-.6v-.2h.2l1.5-1.7,1.3-1.9,1.2-2a18.1,18.1,0,0,0,1-2v-.3h2.3v.5a7.9,7.9,0,0,1-.3,1.8l-.5,1.7a21.8,21.8,0,0,1-1.4,3.2,8.1,8.1,0,0,0-.6,1.5,12.9,12.9,0,0,0-.4,1.6,10.2,10.2,0,0,0-.1,1.6,5.4,5.4,0,0,0,.2,1.5,3,3,0,0,0,.8,1.2,4.1,4.1,0,0,0,1.3.8l1.5.3h.7l.6-.2h.2l.2-.3.4-.6a6.9,6.9,0,0,0,.5-1.5,12.2,12.2,0,0,0,.2-1.6,14.6,14.6,0,0,0,0-1.6v-.2l.2-.2a12.8,12.8,0,0,0,2.2-3,21.4,21.4,0,0,0,1.5-3.4,33.8,33.8,0,0,0,1-3.7l.2-.9.2-.9.2-.9v-.9a36.9,36.9,0,0,0,.2-3.8c0-1.3-.1-2.5-.2-3.8l-.4-3.8c-.1-.6-.1-1.3-.1-1.9s-.1-1.3,0-1.9l.2-.2h.1c.2.6.3,1.2.5,1.9s.2,1.3.3,1.9.3,2.6.4,3.8.1,2.6.2,3.9a37.8,37.8,0,0,1-.2,3.9v1l-.2,1-.2,1-.2.9a34.7,34.7,0,0,1-1,3.8A22.3,22.3,0,0,1,59,101a13.8,13.8,0,0,1-2.4,3.2v-.4a15.5,15.5,0,0,1,0,1.8,13.2,13.2,0,0,1-.2,1.8,7.8,7.8,0,0,1-.6,1.7l-.5.8-.3.4-.2.2-.2.2-1,.4h-1a5.5,5.5,0,0,1-1.8-.4,5.1,5.1,0,0,1-1.6-1,3.9,3.9,0,0,1-1-1.6,6.3,6.3,0,0,1-.3-1.8,11.1,11.1,0,0,1,.1-1.8,13.8,13.8,0,0,1,.4-1.7,8.9,8.9,0,0,1,.7-1.7,20.8,20.8,0,0,0,1.4-3l.5-1.6a7.1,7.1,0,0,0,.2-1.6l.5.5H50.3l.5-.3a19,19,0,0,1-1,2.2l-1.2,2-1.4,1.9a15,15,0,0,1-1.6,1.8l.2-.3c0,.3,0,.5-.1.7v.7a10.3,10.3,0,0,1-.4,1.4,8.2,8.2,0,0,1-.6,1.3,6.2,6.2,0,0,1-.9,1.2,4.9,4.9,0,0,1-1.2.9l-1.5.4a5.2,5.2,0,0,1-2.9-.5,4.5,4.5,0,0,1-1.2-.9,4.4,4.4,0,0,1-.9-1.3,4.9,4.9,0,0,1-.4-1.5,7,7,0,0,1,0-1.5,10.9,10.9,0,0,1,.3-1.4l.4-1.3.6-1.3.2-.3.2-.3.4-.6,1.3-2.4,1.1-2.4,1-2.5a22.6,22.6,0,0,0,.7-2.6L43,83.1l.6-2.6c.2-.9.5-1.8.8-2.6h.2v.2Z" style="fill: #371a45"/>
      <path d="M68.1,82.5a4.2,4.2,0,0,1-1.8-.4.3.3,0,1,1,.3-.5c.1.1,3,1.5,5.3-2.2,1.3-2.1.6-4.3-.2-6.5s-1.3-3.8-.9-5.7a.3.3,0,1,1,.6.1c-.4,1.8.2,3.6.9,5.4s1.7,4.7.2,7S69.4,82.5,68.1,82.5Z" style="fill: #371a45"/>
      <path d="M58.4,91.6h0Z" style="fill: #fff"/>
      <circle cx="61.9" cy="85.6" r="1.7" transform="translate(-24.6 146.3) rotate(-89.2)" style="fill: #fff"/>
      <g style="opacity: 0.35000000000000003">
        <path d="M63.5,85.7a1.7,1.7,0,1,1-3.3,0,1.7,1.7,0,0,1,.2-.7,1.7,1.7,0,0,0,3,0A1.7,1.7,0,0,1,63.5,85.7Z" style="fill: #371a45"/>
      </g>
      <path d="M61.9,87.7h0a2,2,0,1,1,1.5-.6A2,2,0,0,1,61.8,87.7Zm0-3.3a1.3,1.3,0,0,0,0,2.6h0a1.3,1.3,0,0,0,0-2.6Z" style="fill: #371a45"/>
      <g style="opacity: 0.35000000000000003">
        <path d="M60.5,89.6a1.7,1.7,0,0,1-1.6,1.8l-7.9.4a1.7,1.7,0,0,1-1.8-1.6v-.5a13.4,13.4,0,0,1-6,0,43.8,43.8,0,0,1-4.1,8.8c-.8,1.2-2.1,4.3-1.6,6.6a4.3,4.3,0,0,0,5,3.1,4.3,4.3,0,0,1-6.3-2.7c-.5-2.2.8-5.4,1.6-6.6a42.2,42.2,0,0,0,4.3-9.7l.2-.7.6-2.8,1.1.5a13.3,13.3,0,0,0,5.1.4v-.7a1.7,1.7,0,0,1,1.3-1.7h.3l7.9-.4a1.7,1.7,0,0,1,1.8,1.6v4.2Z" style="fill: #371a45"/>
      </g>
      <path d="M59.5,90.1l-7.9.4a1.7,1.7,0,0,1-1.8-1.6l-.2-4.2a1.7,1.7,0,0,1,1.3-1.7h.3l7.9-.4a1.7,1.7,0,0,1,1.8,1.6l.2,3.3v.9A1.7,1.7,0,0,1,59.5,90.1Z" style="fill: #fff"/>
      <g style="opacity: 0.35000000000000003">
        <path d="M59.5,90.1l-7.9.4a1.7,1.7,0,0,1-1.8-1.6l-.2-4.2a1.7,1.7,0,0,1,1.3-1.7l.8.5c.5,3.4,1.6,5,5.8,4.9a7.8,7.8,0,0,0,3.6-.8v.9A1.7,1.7,0,0,1,59.5,90.1Z" style="fill: #371a45"/>
      </g>
      <path d="M51.5,90.8a2.1,2.1,0,0,1-2.1-2l-.2-4.2a2.1,2.1,0,0,1,2-2.2l7.9-.4a2.1,2.1,0,0,1,2.2,2l.2,4.2a2.1,2.1,0,0,1-2,2.2l-7.9.4Zm7.7-8h-.1l-7.9.4A1.3,1.3,0,0,0,50,84.6l.2,4.2A1.3,1.3,0,0,0,51.6,90h0l7.9-.4a1.3,1.3,0,0,0,1.3-1.4l-.2-4.2a1.3,1.3,0,0,0-1.3-1.3Z" style="fill: #371a45"/>
      <path d="M59.8,90h-.3l-7.9.4a1.7,1.7,0,0,1-1.6-.9,1.7,1.7,0,0,1-.2-.7V84.6a1.7,1.7,0,0,1,1.6-1.8h1.7a1.7,1.7,0,0,0-1.3,1.7v4.2a1.7,1.7,0,0,0,1.8,1.6Z" style="fill: #fff"/>
      <g style="opacity: 0.35000000000000003">
        <path d="M59.8,90h-.3l-7.9.4a1.7,1.7,0,0,1-1.8-1.6V86.3a1.6,1.6,0,0,0,1.2,1,1.1,1.1,0,0,0,.9-.6v1.9a1.7,1.7,0,0,0,1.8,1.6Z" style="fill: #371a45"/>
      </g>
      <path d="M51.5,90.8a2.1,2.1,0,0,1-2.1-2l-.2-4.2a2.1,2.1,0,0,1,2-2.2h1.7v.7a1.3,1.3,0,0,0-1,1.4l.2,4.2a1.3,1.3,0,0,0,1.4,1.3l6.2-.3v.7h-.4l-7.9.4Zm.2-7.6h-.4A1.3,1.3,0,0,0,50,84.6l.2,4.2A1.3,1.3,0,0,0,51.6,90H52a2.1,2.1,0,0,1-.6-1.3l-.2-4.2A2.1,2.1,0,0,1,51.7,83.2Z" style="fill: #371a45"/>
      <path d="M55.1,86.5c0,.2-.2,1.4-.2,1.4h-.9a1.5,1.5,0,0,1-.1-2.8h.9S55.1,86.2,55.1,86.5Z" style="fill: #22a7f0"/>
      <g style="opacity: 0.35000000000000003">
        <path d="M55.3,86.5c0,.2-.2,1.4-.2,1.4h-.9a1.5,1.5,0,0,1-.1-2.8H55S55.3,86.2,55.3,86.5Z" style="fill: #371a45"/>
      </g>
      <path d="M54.2,88.2a1.7,1.7,0,0,1-.1-3.4h.6a.6.6,0,0,1,.6.5,10.1,10.1,0,0,1,.2,1.2h0a10.3,10.3,0,0,1-.1,1.2.6.6,0,0,1-.6.5h-.7Zm.6-2.8h-.6c-.4,0-.8.5-.8,1.1s.4,1.1.8,1.1h.7V86.5a10.7,10.7,0,0,0-.2-1.1Z" style="fill: #371a45"/>
      <ellipse cx="55.1" cy="86.5" rx="1.1" ry="1.4" transform="translate(-3.4 2.2) rotate(-2.3)" style="fill: #22a7f0"/>
      <g style="opacity: 0.7000000000000001">
        <path d="M56.2,86.4a1.7,1.7,0,0,1,0,.3,1.2,1.2,0,0,0-1.1-1,1.2,1.2,0,0,0-1,1.2v-.4a1.1,1.1,0,1,1,2.2-.1Z" style="fill: #fff"/>
      </g>
      <g style="opacity: 0.35000000000000003">
        <path d="M56.2,86.4a1.1,1.1,0,1,1-2.2.1,1.7,1.7,0,0,1,0-.4,1.2,1.2,0,0,0,1.1.9,1.2,1.2,0,0,0,1-1.1A1.8,1.8,0,0,1,56.2,86.4Z" style="fill: #371a45"/>
      </g>
      <path d="M55.1,88.2a1.7,1.7,0,0,1-.1-3.4h0a1.7,1.7,0,0,1,.1,3.4Zm0-2.8h0c-.4,0-.8.5-.8,1.1s.4,1.1.8,1.1.8-.5.8-1.1h0C55.8,85.9,55.5,85.4,55,85.4Z" style="fill: #371a45"/>
      <path d="M57.3,90.4a.3.3,0,0,1-.3-.3V88a1.8,1.8,0,0,1,.8-1.5,1.2,1.2,0,0,0,.5-1v-3a.3.3,0,1,1,.6,0v3a1.8,1.8,0,0,1-.8,1.5,1.2,1.2,0,0,0-.5,1v2.1a.3.3,0,0,1-.3.3Z" style="fill: #371a45"/>
      <path d="M43.3,84.2a1.9,1.9,0,0,0-1.4,1.9,2.3,2.3,0,0,0,1,1.8s2.3,1.3,7.1.3c0,0,1.4-1.8-.1-2.9C49.8,85.3,45.3,85.9,43.3,84.2Z" style="fill: #fff"/>
      <g style="opacity: 0.35000000000000003">
        <path d="M50,88.3c-4.8.9-7.1-.3-7.1-.3a2.3,2.3,0,0,1-1-1.8v-.3a2.6,2.6,0,0,0,.8.9s2,1.1,6.2.5a1.8,1.8,0,0,0,1.5-1.4h0C51,86.9,50,88.3,50,88.3Z" style="fill: #371a45"/>
      </g>
      <path d="M46.6,89a8.6,8.6,0,0,1-3.9-.7h0a2.7,2.7,0,0,1-1.1-2.1,2.2,2.2,0,0,1,1.7-2.2h.3c1.8,1.5,6.2,1,6.2,1H50a1.9,1.9,0,0,1,.9,1.3,3.2,3.2,0,0,1-.7,2.1H50A17.8,17.8,0,0,1,46.6,89Zm-3.5-1.4c.2.1,2.4,1.1,6.7.3a2.3,2.3,0,0,0,.4-1.5,1.2,1.2,0,0,0-.4-.7c-.8.1-4.5.4-6.5-1.1a1.5,1.5,0,0,0-1,1.5A1.9,1.9,0,0,0,43.1,87.6Z" style="fill: #371a45"/>
      <path d="M68.6,70.7h-.1a5.7,5.7,0,0,1-4.7-6,.4.4,0,0,1,.4-.3.4.4,0,0,1,.3.4,4.9,4.9,0,0,0,4.1,5.2.4.4,0,0,1-.1.7Z" style="fill: #371a45"/>
      <path d="M73.5,46l1,1.8a.8.8,0,0,1-.7,1.2H71.8a.8.8,0,0,1-.7-1.2l1-1.8A.8.8,0,0,1,73.5,46Z" style="fill: #ffe000"/>
      <g>
        <g style="opacity: 0.35000000000000003">
          <path d="M71,48a.8.8,0,0,0,.8,1h0A.8.8,0,0,1,71,48Z" style="fill: #371a45"/>
        </g>
        <g style="opacity: 0.35000000000000003">
          <path d="M71.8,48h2.1a.8.8,0,0,0,.6-.3l-1-1.7a.8.8,0,0,0-1.3,0l-1,1.7A.8.8,0,0,0,71.8,48Z" style="fill: #371a45"/>
        </g>
        <g style="opacity: 0.35000000000000003">
          <path d="M74,48.9a.8.8,0,0,0,.6-.6A.8.8,0,0,1,74,48.9Z" style="fill: #371a45"/>
        </g>
        <g style="opacity: 0.35000000000000003">
          <path d="M74.6,48.4v0Z" style="fill: #371a45"/>
        </g>
      </g>
      <path d="M73.9,49.5H71.8a1.3,1.3,0,0,1-1.1-1.9l1-1.8a1.3,1.3,0,0,1,1.1-.6h0a1.3,1.3,0,0,1,1.1.6h0l1,1.8a1.3,1.3,0,0,1-1.1,1.9Zm-1-3.4h-.2l-1,1.8a.3.3,0,0,0,0,.3h2.5a.3.3,0,0,0,0-.3l-1-1.8Z" style="fill: #371a45"/>
      <path d="M62.6,33.6c.3,6,6.5,13.1,10.3,12.9s9.3-7.9,9-13.9S77,22.1,71.7,22.3,62.3,27.7,62.6,33.6Z" style="fill: #ffe000"/>
      <g style="opacity: 0.7000000000000001">
        <path d="M62.6,33.6h0c.3-5.4,4.2-9.8,9.1-10s9.8,4.3,10.1,10.2a10,10,0,0,0,0-1.1c-.3-6-4.8-10.6-10.2-10.3S62.3,27.7,62.6,33.6Z" style="fill: #fff"/>
      </g>
      <g style="opacity: 0.35000000000000003">
        <path d="M62.6,32.3c.3,6,6.5,13.1,10.3,12.9s9.3-7.9,9-13.9v-.2c-.8,4.6-5.6,9.7-9,9.9S63,35.4,62.7,30.4c0-.1,0-.3,0-.4A12.1,12.1,0,0,0,62.6,32.3Z" style="fill: #371a45"/>
      </g>
      <path d="M72.8,47.1c-1.9,0-4.5-1.6-6.7-4.3a16.5,16.5,0,0,1-4-9.1,12,12,0,0,1,2.6-8.1,9.6,9.6,0,0,1,7-3.7c5.6-.3,10.4,4.6,10.7,10.8a16.5,16.5,0,0,1-3,9.4c-2,3-4.5,4.9-6.4,5Zm-.6-24.2h-.4a8.6,8.6,0,0,0-6.3,3.3,11,11,0,0,0-2.3,7.4,15.5,15.5,0,0,0,3.7,8.5c2,2.5,4.4,4,6,4,3.5-.2,8.8-7.6,8.5-13.3S77,22.9,72.1,22.9Z" style="fill: #371a45"/>
      <g style="opacity: 0.7000000000000001">
        <path d="M72.1,25.3a6.5,6.5,0,0,0-5.7,2.1c-1.5,1.6-1.1,3.2.4,3.2s2-2.2,5.4-3.3S74.1,25.4,72.1,25.3Z" style="fill: #fff"/>
      </g>
      <path d="M46.7,72.6l-1,3.7L44,83l-.6.2a12.5,12.5,0,0,0-4.8,3.1,15,15,0,0,1-2.8,2c-2.8,1.7-7.6-1.1-3.7-6.3a23,23,0,0,1,10.5-7.9l3-1.1Z" style="fill: #fff"/>
      <g style="opacity: 0.35000000000000003">
        <path d="M44,83a12.8,12.8,0,0,0-5.4,3.4,15,15,0,0,1-2.8,2c-2.3,1.4-6-.2-5-3.8.9,6.2,6.2,2.2,8.1.2s6.5-4.2,6.9-3.5S44,83,44,83Z" style="fill: #371a45"/>
      </g>
      <path d="M34,89.4A4,4,0,0,1,31,88.2c-1.4-1.5-1.2-3.9.6-6.3,4.3-5.9,9.4-7.7,13.2-9l1.7-.6a.5.5,0,0,1,.4.9l-1.8.7c-3.6,1.3-8.6,3.1-12.7,8.7-1.5,2.1-1.8,3.9-.7,5.1a3.1,3.1,0,0,0,3.8.5,14.5,14.5,0,0,0,2.7-2,13.1,13.1,0,0,1,5.3-3.4h.3a.5.5,0,0,1,.3.9h-.3a12.1,12.1,0,0,0-4.9,3.1A15.3,15.3,0,0,1,36,88.9,3.9,3.9,0,0,1,34,89.4Z" style="fill: #371a45"/>
      <g>
        <g>
          <path d="M63.9,62.1h0a.3.3,0,0,1-.4-.2l-2.2-8a.3.3,0,0,1,.2-.4h0a3,3,0,0,1,3.7,2.1l.7,2.7A3,3,0,0,1,63.9,62.1Z" style="fill: #fff"/>
          <path d="M63.9,62.2h-.2l-.2-.2-2.2-8a.4.4,0,0,1,0-.3l.2-.2a3.1,3.1,0,0,1,3.8,2.2l.7,2.7A3.1,3.1,0,0,1,64,62.2Zm-1.4-8.6h-.9a.2.2,0,0,0,0,.1l2.2,8h.2a2.9,2.9,0,0,0,2-3.6l-.7-2.7A2.9,2.9,0,0,0,62.4,53.6Z" style="fill: #371a45"/>
        </g>
        <g style="opacity: 0.35000000000000003">
          <path d="M65.7,57.1l.3,1.3a3,3,0,0,1-2.1,3.7.3.3,0,0,1-.4-.2L63,59.8h.5A3,3,0,0,0,65.7,57.1Z" style="fill: #371a45"/>
        </g>
        <path d="M63.9,62.6h-.4a.8.8,0,0,1-.4-.5L61,54a.8.8,0,0,1,.1-.6l.5-.4a3.5,3.5,0,0,1,4.3,2.4l.7,2.7a3.5,3.5,0,0,1-2.4,4.3Zm0-.9h0ZM61.9,54,64,61.6a2.5,2.5,0,0,0,1.6-3l-.7-2.7A2.5,2.5,0,0,0,61.9,54Z" style="fill: #371a45"/>
        <g>
          <path d="M35.4,60.7h0a.3.3,0,0,1,.4.2l2.2,8a.3.3,0,0,1-.2.4h0A3,3,0,0,1,34,67.1l-.7-2.7A3,3,0,0,1,35.4,60.7Z" style="fill: #fff"/>
          <path d="M36.9,69.4a3.1,3.1,0,0,1-3-2.3l-.7-2.7a3.1,3.1,0,0,1,2.2-3.8h0a.4.4,0,0,1,.5.3l2.2,8a.4.4,0,0,1-.3.5Zm-1.5-8.6a2.9,2.9,0,0,0-2,3.6l.7,2.7a2.9,2.9,0,0,0,3.6,2,.2.2,0,0,0,.1-.2l-2.2-8h-.2Z" style="fill: #371a45"/>
        </g>
        <g style="opacity: 0.35000000000000003">
          <path d="M37.3,66.6l.6,2.2a.3.3,0,0,1-.2.4A3,3,0,0,1,34,67.1l-.3-1.1a3,3,0,0,0,3.1,1h.3Z" style="fill: #371a45"/>
        </g>
        <path d="M36.9,69.8a3.5,3.5,0,0,1-3.4-2.6l-.7-2.7a3.5,3.5,0,0,1,2.4-4.3.8.8,0,0,1,.9.5l2.2,8a.8.8,0,0,1-.1.6l-.5.4Zm-1.6-8.6a2.5,2.5,0,0,0-1.6,3l.7,2.7a2.5,2.5,0,0,0,2.9,1.8Zm.2-.1Zm-.1-.5h0Z" style="fill: #371a45"/>
        <g style="opacity: 0.35000000000000003">
          <path d="M61.7,67.4a11.4,11.4,0,0,1-15.9,9l-.8-.4a11.4,11.4,0,0,1-2.4-1.8l3-1.1c.4-1.7,1-3.1,1.6-3.1h9.7l1.5.3.3-.2A31.9,31.9,0,0,0,61.7,67.4Z" style="fill: #371a45"/>
        </g>
        <g>
          <circle cx="49.7" cy="61.4" r="14.1" transform="translate(-10.9 10.7) rotate(-11.1)" style="fill: #fff"/>
          <path d="M49.6,75.5a14.2,14.2,0,1,1,2.8-.3Zm.1-28.1-2.7.3a14,14,0,1,0,16.4,11h0A14,14,0,0,0,49.7,47.4Z" style="fill: #371a45"/>
        </g>
        <g style="opacity: 0.35000000000000003">
          <path d="M62.9,56.8a14.1,14.1,0,1,1-27.1,7.3v-.7a14.1,14.1,0,0,0,27.2-6.6Z" style="fill: #371a45"/>
        </g>
        <path d="M49.6,75.9A14.5,14.5,0,1,1,63.9,58.6h0A14.5,14.5,0,0,1,52.4,75.6Zm.1-28.1-2.6.3A13.6,13.6,0,1,0,63,58.8h0a13.6,13.6,0,0,0-13.3-11Z" style="fill: #371a45"/>
        <path d="M63.5,59a12.6,12.6,0,0,1-.8,7.8c-.8,1.8-4.8,5.5-10.5,6.7S41.5,72.9,40,71.6a12.6,12.6,0,0,1-3.9-6.8c-1.5-7.1,4-11.4,11.5-13S62,51.9,63.5,59Z" style="fill: #371a45"/>
        <g style="opacity: 0.5">
          <ellipse cx="58.8" cy="59.3" rx="1.8" ry="2.5" transform="translate(-1.7 1.8) rotate(-1.7)" style="fill: #fff"/>
        </g>
        <g style="opacity: 0.5">
          <ellipse cx="57.7" cy="64.6" rx="1.1" ry="1" transform="translate(-12.8 114.9) rotate(-83.7)" style="fill: #fff"/>
        </g>
        <g style="opacity: 0.35000000000000003">
          <path d="M59.4,53A9,9,0,0,1,63.5,59a12.6,12.6,0,0,1-.8,7.8c-.8,1.8-4.8,5.5-10.5,6.7a17.3,17.3,0,0,1-5.8.2c6.9-1.7,11.8-6.2,12.8-8.4a16,16,0,0,0,1.1-9.8A14.2,14.2,0,0,0,59.4,53Z" style="fill: #111a28"/>
        </g>
        <path d="M35.9,59h-.2a.4.4,0,0,1-.2-.6c1.7-4.1,5.9-7.1,11.7-8.3s10.9-.2,14.1,2.7a.4.4,0,0,1-.5.7h-.1c-3-2.7-7.8-3.6-13.3-2.5s-9.5,4-11.1,7.8h0A.4.4,0,0,1,35.9,59ZM61,53h0Z" style="fill: #371a45"/>
        <g style="opacity: 0.5">
          <path d="M40.1,68.4s-3.7-6.6-.5-10.2,8.6-4.7,8.6-4.4-5.7,2.7-7.1,8A28.1,28.1,0,0,0,40.1,68.4Z" style="fill: #fff"/>
        </g>
      </g>
      <path d="M51.9,94.3h3.2l1.6-.2,1.5-.4h0l-1.5.7-1.6.4-1.6.2H51.9a.4.4,0,0,1,0-.7Z" style="fill: #371a45"/>
      <path d="M55.9,100.7a8.8,8.8,0,0,1-5.1-1.9.4.4,0,0,1,.5-.6c.2.1,4.2,3.5,8,.5a.4.4,0,1,1,.5.6A6,6,0,0,1,55.9,100.7Z" style="fill: #371a45"/>
      <path d="M46.1,99.5A6.4,6.4,0,0,1,42.2,98a12.7,12.7,0,0,1-2.6-2.7.4.4,0,0,1,.6-.4c0,.1,3.9,5.6,8,3.3a.4.4,0,0,1,.4.6A5,5,0,0,1,46.1,99.5Z" style="fill: #371a45"/>
      <path d="M41.8,84.3a.4.4,0,0,1-.4-.3c-.6-3.8-3.9-7.1-3.9-7.1a.4.4,0,0,1,.5-.5c.1.1,3.6,3.5,4.2,7.6a.4.4,0,0,1-.3.4Z" style="fill: #371a45"/>
      <path d="M39.6,100.8a5.2,5.2,0,0,0,1.1,1.2,3.7,3.7,0,0,0,1.4.7,3,3,0,0,0,1.5-.1A4.4,4.4,0,0,0,45,102a.5.5,0,0,1,.6.8h-.1a5.3,5.3,0,0,1-1.7.6h-.9l-.9-.2a4.1,4.1,0,0,1-1.4-1A5.3,5.3,0,0,1,39.6,100.8Z" style="fill: #371a45"/>
      <path d="M51.2,102.4a4.3,4.3,0,0,0,1,1,3.4,3.4,0,0,0,1.3.6,3.1,3.1,0,0,0,1.4,0l1.2-.5a.5.5,0,1,1,.5.8h-.1l-1.6.4a3.7,3.7,0,0,1-1.6-.2,3.8,3.8,0,0,1-1.3-.8A4.4,4.4,0,0,1,51.2,102.4Z" style="fill: #371a45"/>
    </g>
  </g>
</svg>
