<svg xmlns="http://www.w3.org/2000/svg" viewBox="0 0 500 500"><g id="freepik--background-simple--inject-244"><path d="M385.15,91.84c-11.09-23.44-22-45.32-56.51-49.2-27.05-3-58.07-3.19-82.87,9.74C224.23,63.62,216,89.21,195.09,101.09c-16.37,9.29-36.55,7-55.27,5.06-38.65-4-75.82,10.67-96.11,45.47-17,29.16-16.72,67.6.73,96.49,6.92,11.47,16.2,21.34,23.5,32.57s12.66,24.64,10.33,37.83c-2,11.05-9,20.43-13.4,30.75-11.76,27.55-2.56,62.11,20.37,81.37,16.1,13.52,37.23,19.59,58.09,22.21,33,4.14,66.61.47,99-7,19.44-4.46,39.13-10.33,59-8.21,16.85,1.81,32.49,9.25,48.41,15.08,18.74,6.85,38.69,11.58,58.56,9.74,24.48-2.26,47-15.47,56.88-38.71,11.44-26.92,3-57.67-5.07-85.8-8.56-30-13.46-58.35-.86-87.87,10.66-25,29.38-56.4,6.84-80.61-14.48-15.55-35.82-20.46-51.75-33.83C399.92,123.55,392.49,107.35,385.15,91.84Z" style="fill:#90CAF9"></path><path d="M385.15,91.84c-11.09-23.44-22-45.32-56.51-49.2-27.05-3-58.07-3.19-82.87,9.74C224.23,63.62,216,89.21,195.09,101.09c-16.37,9.29-36.55,7-55.27,5.06-38.65-4-75.82,10.67-96.11,45.47-17,29.16-16.72,67.6.73,96.49,6.92,11.47,16.2,21.34,23.5,32.57s12.66,24.64,10.33,37.83c-2,11.05-9,20.43-13.4,30.75-11.76,27.55-2.56,62.11,20.37,81.37,16.1,13.52,37.23,19.59,58.09,22.21,33,4.14,66.61.47,99-7,19.44-4.46,39.13-10.33,59-8.21,16.85,1.81,32.49,9.25,48.41,15.08,18.74,6.85,38.69,11.58,58.56,9.74,24.48-2.26,47-15.47,56.88-38.71,11.44-26.92,3-57.67-5.07-85.8-8.56-30-13.46-58.35-.86-87.87,10.66-25,29.38-56.4,6.84-80.61-14.48-15.55-35.82-20.46-51.75-33.83C399.92,123.55,392.49,107.35,385.15,91.84Z" style="fill:#fff;opacity:0.7000000000000001"></path></g><g id="freepik--Shadow--inject-244"><ellipse cx="246.5" cy="464.5" rx="214.5" ry="15.5" style="fill:#263238"></ellipse></g><g id="freepik--Rocket--inject-244"><path d="M225.7,84.52s-6.11-7.86-9.09-7.9-5.79,6.2-7.88,5.87S204.37,75,199,76.69s-6.7,10-10.27,9.7-20.84-30.77-20.84-30.77l-12.44,7.23s18.61,29.68,17,32.89-9.36-.06-13.66,3.61.6,9.41-.22,11.35-6.19.92-7.72,3.48.48,12,.48,12L186.19,99.5l0,0Z" style="fill:#fff;stroke:#263238;stroke-miterlimit:10"></path><path d="M144,48.19,140.72,63l3.87,7.35,9.68-5.09S149.31,59.26,144,48.19Z" style="fill:#90CAF9;stroke:#263238;stroke-miterlimit:10"></path><path d="M160.77,39.35l14,5.68,3.87,7.35L169,57.48S166.88,50,160.77,39.35Z" style="fill:#90CAF9;stroke:#263238;stroke-miterlimit:10"></path><path d="M141,22.4s-7.93,23,13.26,42.82L169.9,57S166.06,30.45,141,22.4Z" style="fill:#fff;stroke:#263238;stroke-miterlimit:10"></path><path d="M149,59.44a51.9,51.9,0,0,0,5.31,5.78L169.9,57a42.44,42.44,0,0,0-2-7.5Z" style="fill:#90CAF9;stroke:#263238;stroke-miterlimit:10"></path><circle cx="150.54" cy="39.84" r="6.14" transform="translate(70.05 173.14) rotate(-73.7)" style="fill:#90CAF9;stroke:#263238;stroke-miterlimit:10"></circle><path d="M154,38a3.85,3.85,0,1,0-1.61,5.21A3.85,3.85,0,0,0,154,38Z" style="fill:#fff;stroke:#263238;stroke-miterlimit:10"></path></g><g id="freepik--Stars--inject-244"><polygon points="446.17 207.99 438 213.66 438.05 223.6 430.13 217.59 420.69 220.71 423.96 211.32 418.08 203.3 428.02 203.51 433.83 195.44 436.7 204.96 446.17 207.99" style="fill:#fff;stroke:#263238;stroke-miterlimit:10"></polygon><polygon points="64.56 247.88 62.6 254.69 67.1 260.17 60.01 260.41 56.19 266.38 53.77 259.71 46.91 257.93 52.51 253.57 52.09 246.49 57.96 250.46 64.56 247.88" style="fill:#fff;stroke:#263238;stroke-miterlimit:10"></polygon><polygon points="179.36 335.93 177.4 342.74 181.9 348.22 174.81 348.46 170.99 354.43 168.58 347.77 161.72 345.98 167.31 341.62 166.89 334.54 172.76 338.51 179.36 335.93" style="fill:#fff;stroke:#263238;stroke-miterlimit:10"></polygon><polygon points="344.48 335.93 342.51 342.74 347.01 348.22 339.93 348.46 336.11 354.43 333.69 347.77 326.83 345.98 332.42 341.62 332 334.54 337.87 338.51 344.48 335.93" style="fill:#fff;stroke:#263238;stroke-miterlimit:10"></polygon><polygon points="99.17 124.23 97.8 129.01 100.95 132.85 95.98 133.01 93.31 137.2 91.61 132.53 86.81 131.27 90.73 128.22 90.43 123.26 94.55 126.05 99.17 124.23" style="fill:#fff;stroke:#263238;stroke-miterlimit:10"></polygon><polygon points="190.6 26.57 186.3 29.07 185.93 34.03 182.23 30.72 177.4 31.89 179.4 27.34 176.79 23.12 181.74 23.62 184.95 19.83 186 24.69 190.6 26.57" style="fill:#fff;stroke:#263238;stroke-miterlimit:10"></polygon><polygon points="455.21 223.38 453.83 228.16 456.99 232 452.02 232.16 449.34 236.35 447.65 231.68 442.84 230.43 446.76 227.37 446.47 222.41 450.58 225.2 455.21 223.38" style="fill:#fff;stroke:#263238;stroke-miterlimit:10"></polygon><polygon points="297.56 47.55 295.59 54.36 300.09 59.84 293.01 60.08 289.19 66.05 286.77 59.39 279.91 57.6 285.5 53.24 285.08 46.16 290.95 50.13 297.56 47.55" style="fill:#fff;stroke:#263238;stroke-miterlimit:10"></polygon></g><g id="freepik--World--inject-244"><circle cx="255.46" cy="208.11" r="133.18" style="fill:#90CAF9;stroke:#263238;stroke-miterlimit:10"></circle><path d="M228.71,331.33a124.33,124.33,0,0,0,21.71,2.76" style="fill:none;stroke:#263238;stroke-miterlimit:10"></path><path d="M212.39,326.6c3.61,1.31,7.28,2.47,11,3.45" style="fill:none;stroke:#263238;stroke-miterlimit:10"></path><path d="M134.19,173.61a126.13,126.13,0,0,0,73.64,151.22" style="fill:none;stroke:#263238;stroke-miterlimit:10"></path><path d="M151.14,137.34a127.3,127.3,0,0,0-11.65,21.32" style="fill:none;stroke:#263238;stroke-miterlimit:10"></path><polygon points="237.41 148.96 250.99 151.77 255.62 156.57 261.65 157.5 263.57 163.22 262.16 167.1 258.05 168.98 247.97 167.34 247.7 166.1 252.46 162.78 249.17 156.71 240.16 155.47 235.36 151.36 237.41 148.96" style="fill:#fff;stroke:#263238;stroke-miterlimit:10"></polygon><path d="M346.83,274.25l-10.77-1.82-13-1.65-9.56,2.12-9.36.14-9.4,4.35-5.48,1.55-3.4.75-5.66,5.14-5.62,3.84-9.5-3.4.25-9.11-5.73-1-6.17,1.37L251.9,274l-.62-5.69-2.84-2.61-4.19,1.58-.55,3.36-5.17,1.47-5.86-4.52-3.5-7,2.71-9.67,9.08-1.37,2.95,1.62,3.71-.83,4-3.8,4.28.34,7.68,8.33,2.09-.78-2.19-7-2.67-3.3-.69-6,10.32-7.47-1-11.76,4-5.11,2.44-8,2.95-1.31,6.07-6.2-.24-2.54-4.87,1.41-1.47-2.27-3.4.76-5,2.4,1.58-4.56L281.7,188l1.85-3.32,5.83,5.83,3.4,2.16,4-2.2-2.74-3.6-7.51-3.18L277.32,177l-8.88-3.53-7.68.41L256.23,171l-5.21-.14-.34,1.37,1.37,9.08,1.92,2.82-.59,10.49-7.26-3.57,0-4.53-7.16-1.64-3.53-2.78-.17-8.06,7.51-8.46-1-7.55-3.33,1.07-2.77-2.3-2-4.42-2.23.17-.13,5.21L228,159.14l-3.94-10.46-2.81-1-4.73-.89-4.39,3.56,7.47,4.49,2.4,5-13-5.86-9.56-6.62L197,139.15l-8.57-.69-5.28,5.38a49.78,49.78,0,0,1-4.08,3.5c-1.41,1-7.13,2.88-7.13,2.88l-.07,5.52-7,1.88,1.37,3.26,11.83-.68,7.3,5.17,2.4,10.8-1.27,10.32,2.88,10-5.29,17,3.15,22.93,5.66,12.35,6.2,9,4.77-.41-2.64-4.6-3.29-3.15-3.05-6.45,2.64-1.23,6.78,10.15,5.28,9.19,1.78,8,7.44,5.79L231,280.54l17,.76,6,3.53,4.8,4.11,6.3,2.16,7.2.35,6.72-1.82s.38,3.15.72,4.7-2.81,7.75-2.81,7.75l-2,6.92,4,6.24,7.41,1.27L298,324.26l4.73.89,1,4.63,1,2A132.7,132.7,0,0,0,362.76,287l-.33-2.27,5-17-4.63-1.89Z" style="fill:#fff;stroke:#263238;stroke-miterlimit:10"></path><path d="M351.85,145.24l-4.69-5.11-5.83-5.83-3.29-9,5.76-.31-.38-3.15-4.08.58,3.05-2.3,3.23-3-.69-3.09-4.8-4.11-2.26-6.47a133.28,133.28,0,0,0-160.8-3.08l8.24,3.46-3.09,6.51-5.59,2.54,1.24,8.47-2.27,1.47-2.33,4.08,1.54,5.49,5.39-.55-1,5.72,5.25-1.16L190.86,123l-.17-5.14,8.5-2.53,1.34-4.19,8.74-2.91-.24-5.45,6.41-1.75s4.08-3.5,5-3.7a37.87,37.87,0,0,1,5.59.38l5.45,2.67L238,99l4.8-4.62,7.23-1a7.86,7.86,0,0,0,3.67.48c1.54-.35,5.69-3.53,5.69-3.53l10.18,3.56,4.32,2,1,4.63,4.77-.41.92-3.12,4.43,1,.24,2.53L276.54,105l6.75,5.62,12.48,3.71,6,5.14,6.92-.89.86-3.43,2.33-1.16-9.39-4.39-5.07.48,3.73-2.13-4.87-4.42,5.18-1.48,7.61,2.2,3.19,7.06,4.28,3.26,4.77,8.33,7.88,3.43,2.27,10.18,8.12,3.06L340,143l0,4.22,3.09,5.14,1.23,2.64,5.45-.24,1.3-5.79Z" style="fill:#fff;stroke:#263238;stroke-miterlimit:10"></path><path d="M349,113.26l.39,1.77-.44,5.28,1.88,4.12,3.67.48,1.3,5.86-4-.72,2.77,16.87-2.19,7.61,4.38,8.09,4.84,2.81,3.7,16.67,6.89,12.06,6.51,8.92,7.51.27,1.1-6.72.83-1a135.56,135.56,0,0,0-2.59-16.38A132.57,132.57,0,0,0,349,113.26Z" style="fill:#fff;stroke:#263238;stroke-miterlimit:10"></path><polygon points="277.25 127.16 254.9 122.73 246.02 125.03 245.16 131.37 240.57 128.18 234.13 131.23 235.77 141.55 242.21 144.33 244.92 137.58 250.58 141.18 262 147.38 265.83 155.92 276.12 164.32 288.6 159.28 287.26 154.73 283.32 150.1 279.96 137.89 281.88 131.96 277.25 127.16" style="fill:#fff;stroke:#263238;stroke-miterlimit:10"></polygon><polygon points="295.42 130.25 290.52 130.04 287.26 134.33 291.41 142.79 295.42 141.9 295.42 130.25" style="fill:#fff;stroke:#263238;stroke-miterlimit:10"></polygon><polygon points="325.42 129.74 313.7 126.51 310.71 123.29 308.45 124.77 311.98 130.46 315.62 138.07 320.66 138.89 321.31 137.45 317.5 133.44 326.21 134.74 325.42 129.74" style="fill:#fff;stroke:#263238;stroke-miterlimit:10"></polygon><polygon points="260.06 261.14 259.1 262.65 268.97 263.37 273.63 266.87 279.63 266.18 281.04 262.31 273.67 262.65 260.06 261.14" style="fill:#fff;stroke:#263238;stroke-miterlimit:10"></polygon><polygon points="288.82 260.9 282.75 264.19 284.23 266.46 292.25 264.67 293.25 261.86 290.54 262.79 288.82 260.9" style="fill:#fff;stroke:#263238;stroke-miterlimit:10"></polygon></g><g id="freepik--Airplane--inject-244"><polygon points="415 77.52 357.47 62.24 371.24 80 415 77.52" style="fill:#fff;stroke:#263238;stroke-linecap:round;stroke-linejoin:round"></polygon><polygon points="371.24 80 370.81 91.95 415 77.52 371.24 80" style="fill:#fff;stroke:#263238;stroke-linecap:round;stroke-linejoin:round"></polygon><polygon points="376.45 85.97 370.81 91.95 415 77.52 376.45 85.97" style="fill:#fff;stroke:#263238;stroke-linecap:round;stroke-linejoin:round"></polygon><polygon points="415 77.52 376.45 85.97 386.5 103.48 415 77.52" style="fill:#fff;stroke:#263238;stroke-linecap:round;stroke-linejoin:round"></polygon><path d="M361.77,89.21l-1.48.2" style="fill:none;stroke:#263238;stroke-linecap:round;stroke-linejoin:round"></path><path d="M357.33,89.83C324.51,94.51,119.43,125.56,76.6,176c-38.08,44.85,25.2,57.41,40,59.68" style="fill:none;stroke:#263238;stroke-linecap:round;stroke-linejoin:round;stroke-dasharray:2.9882700443267822,2.9882700443267822"></path><path d="M118,235.89c.95.14,1.48.19,1.48.19" style="fill:none;stroke:#263238;stroke-linecap:round;stroke-linejoin:round"></path></g><g id="freepik--character-2--inject-244"><path d="M372.29,290.16l-14.48-19.65s-4.55-1.87-5-3.11a62.11,62.11,0,0,0-2.69-6.62,3.36,3.36,0,0,1-.31-.93.88.88,0,0,1,1.61-.6,13.28,13.28,0,0,1,1,1.53,2.46,2.46,0,0,0,.87,1.11s1.41,1.37,1,.34-1.86-7.24-2.27-8.48,0-1.86,1-1.86,2.48,5.37,2.48,5.37c-.27-1.24-.54-2.49-.82-3.73l-.6-2.77a4.56,4.56,0,0,1-.35-2.26c.21-.74.89-1.56,1.57-.75,1,1.24,3.1,8.07,3.1,8.07v-5.38s1.24-1.45,2.07,0,1.16,6.43,1.16,6.43l.48-1.63c.14-.46.13-1.3.47-1.67.64-.7,1,.72,1.2,1.21.62,1.66-.21,13-.21,13l-.2,2.07L384.09,286l-9.73,6.42Z" style="fill:#bfbfbf;stroke:#263238;stroke-linecap:round;stroke-linejoin:round"></path><path d="M411.05,278.9s-7.44-12.23-20.2-11.17S374.37,281.29,374.1,284s-3.19,4.15-4.25,4.25c-2.66.27-2.13,4.25-1.07,5.58l1.07,1.33s1.28,9.49,2.92,10.37c3.46,1.86,10.37,1.86,10.37,1.86l.8,4L398,310.27s-1.59-1.33,0-3.73,8.78-4.25,12.23-9.83S411.85,282.62,411.05,278.9Z" style="fill:#bfbfbf;stroke:#263238;stroke-linecap:round;stroke-linejoin:round"></path><path d="M411.05,278.9s-7.44-12.23-20.2-11.17a20.79,20.79,0,0,0-2.6.4c2.21.32,5.61,1.39,6.32,4.92,1.06,5.32-5.32,9-5.05,12.23s2.92,7.44,3.72,7.44,6.38,2.66,5.32,6.11-4,4-1.6,6.65a3.87,3.87,0,0,0,1.22.87c1.85-2.3,8.71-4.21,12.07-9.64S411.85,282.62,411.05,278.9Z" style="fill:#263238;stroke:#263238;stroke-linecap:round;stroke-linejoin:round"></path><path d="M405.47,275.71s2.12-11.17,4.78-14.62,4.52,2.12,4.52,2.12,8.51-7.44,14.09-5.31-.8,6.11-.8,6.11,9.31-1.33,11.7,5.58-3.46,8.51-3.46,8.51,7.18,7.18,4,9.3-9.83,1.6-9.83,1.6,5.58,1.86,2.65,4.52-10.1-2.66-10.1-2.66.8,5.85-3.19,5.85-6.64-6.91-6.64-6.91-2.66,4.25-4.79,1.33S404.94,277,405.47,275.71Z" style="fill:#263238;stroke:#263238;stroke-linecap:round;stroke-linejoin:round"></path><path d="M404.14,280.76A12.11,12.11,0,0,1,410,270.13c6.38-4,6.91-.27,6.91-.27s5.85-5.32,10.9-1.33,0,9,0,9S443,276.51,441.35,281s-8.24,5.32-8.24,5.32,8.24,8,4.52,10.37-10.9,0-10.9,0,2.93,3.72-2.65,5.31-8.51-4.25-8.51-4.25,1.86,2.39-5.05,1.86-7.18-9-7.18-9S396.7,289.8,404.14,280.76Z" style="fill:#263238;stroke:#263238;stroke-linecap:round;stroke-linejoin:round"></path><path d="M391.65,294.05s4.78-5.32,6.91-.8-2.66,11.43-6.91,8.24" style="fill:#bfbfbf;stroke:#263238;stroke-linecap:round;stroke-linejoin:round"></path><path d="M379.66,286c-.21,1.15-.92,2-1.56,1.87s-1-1.16-.79-2.31.92-2,1.57-1.87S379.88,284.88,379.66,286Z" style="fill:#263238"></path><path d="M378.09,280s3.45-2.13,4.25,3.46" style="fill:none;stroke:#263238;stroke-linecap:round;stroke-linejoin:round"></path><path d="M372.24,295.91s2.13,1.33,5.85-1.06" style="fill:none;stroke:#263238;stroke-linecap:round;stroke-linejoin:round"></path><path d="M397.76,397.72s10.79,14.27,13,14.27,33.3-12.69,33.3-12.69a17,17,0,0,1,5.71,4.76c1.91,2.85.32,7.3,4.13,7.3s2.54-9.52,1.27-13-3.81-12.69-6-13.64-9.83,5.71-9.83,5.71L425,395.18c-1.9.63-13.32,2.54-13.32,2.54Z" style="fill:#bfbfbf;stroke:#263238;stroke-linecap:round;stroke-linejoin:round"></path><path d="M449.15,384.71c-1.53-.65-5.6,2.29-8,4.2,2.35,1.92,6.1,4.68,6.1,4.68a21,21,0,0,1-2.86,2.22c-1.9,1.27-.32,3.49-.32,3.49a17,17,0,0,1,5.71,4.76c1.91,2.85.32,7.3,4.13,7.3s2.54-9.52,1.27-13S451.37,385.66,449.15,384.71Z" style="fill:#fff;stroke:#263238;stroke-linecap:round;stroke-linejoin:round"></path><path d="M455,411c2.47-1.67,1.34-9.57.21-12.68-1.27-3.49-3.81-12.69-6-13.64-.61-.26-1.62.05-2.76.64a58.23,58.23,0,0,1,6.14,10.76c2.16,5.39,3.45,10.57,2.59,14.23C455.06,410.58,455,410.81,455,411Z" style="fill:#90CAF9;stroke:#263238;stroke-linecap:round;stroke-linejoin:round"></path><path d="M373.65,395.18s-.95,11.1,1,14.27,9.2,34.26,9.2,35.21a39.49,39.49,0,0,1-.63,4.13s-2.54,7-7.3,9.51-7.61,5.71-5.07,7,14.27-2.22,17.45-3.49,10.15-3.49,10.46-6.34S394,444.35,394,442.76s1.91-15.23,1.59-22.52-4.76-15.55-4.76-15.55l.32-7.93Z" style="fill:#bfbfbf;stroke:#263238;stroke-linecap:round;stroke-linejoin:round"></path><path d="M398.71,455.45c.21-1.87-1.89-6.05-3.37-9.16l-9,3.77a4.5,4.5,0,0,0-1.9-3.49,1.46,1.46,0,0,0-.82-.29c-.19,1.19-.45,2.51-.45,2.51s-2.54,7-7.3,9.51-7.61,5.71-5.07,7,14.27-2.22,17.45-3.49S398.4,458.3,398.71,455.45Z" style="fill:#fff;stroke:#263238;stroke-linecap:round;stroke-linejoin:round"></path><path d="M398.71,455.45a6,6,0,0,0-.37-2.26A81.29,81.29,0,0,1,382,461.26c-6.3,2.24-10,2.79-12.13,2.8a1.46,1.46,0,0,0,.94,1.22c2.54,1.27,14.27-2.22,17.45-3.49S398.4,458.3,398.71,455.45Z" style="fill:#90CAF9;stroke:#263238;stroke-linecap:round;stroke-linejoin:round"></path><path d="M374.91,355.41l-10.77,43.26s7.61,4.76,29.5,3.17,33.62-9.52,33.62-9.52-1.9-5.39-2.85-6.34a50,50,0,0,1-3.17-4.12L412,352Z" style="fill:#fff;stroke:#263238;stroke-linecap:round;stroke-linejoin:round"></path><line x1="380.95" y1="359.97" x2="377.46" y2="374.88" style="fill:none;stroke:#263238;stroke-linecap:round;stroke-linejoin:round"></line><line x1="392.69" y1="360.28" x2="392.69" y2="370.12" style="fill:none;stroke:#263238;stroke-linecap:round;stroke-linejoin:round"></line><line x1="406.64" y1="359.33" x2="411.72" y2="376.46" style="fill:none;stroke:#263238;stroke-linecap:round;stroke-linejoin:round"></line><path d="M401.76,312.47s-4.92-3.26-10.1-3.26-12.38-.23-12.38-.23-18.44-8.33-23-11.5-17.3-18.15-17.3-18.15a34.57,34.57,0,0,0,1.22-5.6c0-1.44-.16-2.72-.16-4.48s.48-3.69-1.28-3.53-1.12,3.37-1,3.85-1,3.36-1,3.36-1-5.28-1.44-7.53-.8-5.28-1.44-5.28-1.6.8-1.44,1.6.3,8.37.3,8.37l-1.1-1.32L329.42,262c-.8-2.4-2.24-1.12-2.24.32s2.24,9,2.24,9l-.8.8s-2.88-5.28-3.36-6.08-1.28-.49-.64,1.92a71,71,0,0,0,2.56,6.88L323.34,272c-.64-.48-1.28,1.12,0,2.08a34.49,34.49,0,0,1,4.64,5.13,63.75,63.75,0,0,0,5.29,5s11.85,17.94,15.05,21.3,8.49,8.49,8.49,8.49,7.53,5.13,11.05,7.37L378.43,328l.64,2.73-4.16,24.66s-.16,3.2,13.93,3.52,21.94-3,22.9-5.44-4.8-26.11-6.08-32.83S401.76,312.47,401.76,312.47Z" style="fill:#bfbfbf;stroke:#263238;stroke-linecap:round;stroke-linejoin:round"></path><path d="M401.76,312.47s-4.92-3.26-10.1-3.26c-1.92,0-4.1,0-6.1-.07,3.37,1.44,8.58,5,7.76,13.16-1.06,10.57-6.82,17.19-14.6,10.51l-3.81,22.6s-.16,3.2,13.93,3.52,21.94-3,22.9-5.44-4.8-26.11-6.08-32.83S401.76,312.47,401.76,312.47Z" style="fill:#90CAF9;stroke:#263238;stroke-linecap:round;stroke-linejoin:round"></path></g><g id="freepik--character-1--inject-244"><path d="M60.94,418.92l-6.59,5.37s-6.58,2.43-9.27,4.39-.49,5.85.73,7.31,4.64,3.17,6.83,6.35,5.37,7.8,9.27,9,5.37.49,5.37-2.19-4.15-8.3-4.64-10.74-1-7.56-1-7.56L66.3,425Z" style="fill:#fff;stroke:#263238;stroke-linecap:round;stroke-linejoin:round"></path><path d="M61.67,430.87l-2.68.25-1.71.73-4.09-7.12a45.82,45.82,0,0,0-8.11,3.95c-2.68,1.95-.49,5.85.73,7.31s4.64,3.17,6.83,6.35,5.37,7.8,9.27,9,5.37.49,5.37-2.2-4.15-8.29-4.64-10.73S61.67,430.87,61.67,430.87Z" style="fill:#fff;stroke:#263238;stroke-linecap:round;stroke-linejoin:round"></path><path d="M81.91,372.09l-1,27.32L59,419.9l8.29,11.46,31-22.93,6.83-15.61-19-20S81.91,370.62,81.91,372.09Z" style="fill:#263238;stroke:#263238;stroke-linecap:round;stroke-linejoin:round"></path><path d="M102.65,435.26l-2.93,14.39s-3.9,9.76-2.68,11.71,13.66,3.42,17.31,3.9,10.25.49,12.44-1,1.22-3.17-.24-3.9-10.49-7.08-11.71-7.81-3.17-3.66-3.17-3.66l3.17-9.76Z" style="fill:#fff;stroke:#263238;stroke-linecap:round;stroke-linejoin:round"></path><path d="M126.79,464.29c2.2-1.47,1.22-3.17-.24-3.9s-10.49-7.08-11.71-7.81-3.17-3.66-3.17-3.66-2.93,1.22-2.93,2.2v1.7l-9.26-2.56c-.82,2.16-3.48,9.44-2.44,11.1,1.22,1.95,13.66,3.42,17.31,3.9S124.6,465.75,126.79,464.29Z" style="fill:#fff;stroke:#263238;stroke-linecap:round;stroke-linejoin:round"></path><path d="M81.91,373.55l25.37,28.3L99,436.24l17.8,4.88s11-39.27,11.71-41.71-12.19-25.61-12.19-25.61a23.58,23.58,0,0,0-11.71-5.13C97,367.45,81.91,373.55,81.91,373.55Z" style="fill:#263238;stroke:#263238;stroke-linecap:round;stroke-linejoin:round"></path><path d="M137.72,270.29l7.47-5.17s1-8.27,1.15-9,3.91-5.52,4.71-5.86a22.57,22.57,0,0,0,3.68-1.72c.46-.46,1.72-.35,1.61.46a16.62,16.62,0,0,1-.92,2.64s2.75-3.45,2.87-1-2.64,4.83-3,6.32-1.26,6.09-1.26,6.09,4.13-4.25,4.71-5.17,1.84.12,1.38,1.5-2.19,3.79-2.87,6-4.49,4.37-5.75,4.71-2.76.81-2.76.81l-9.19,10.34-4.94-9.43Z" style="fill:#fff;stroke:#263238;stroke-linecap:round;stroke-linejoin:round"></path><path d="M155.42,251.68s-2.07,2.87-2.07,3.44A29.43,29.43,0,0,1,152,259" style="fill:none;stroke:#263238;stroke-linecap:round;stroke-linejoin:round"></path><path d="M153.81,249.27s-2.64,4.13-3.33,5.28a13,13,0,0,0-.92,4" style="fill:none;stroke:#263238;stroke-linecap:round;stroke-linejoin:round"></path><path d="M149.44,252a36.22,36.22,0,0,0-1.61,3.56c0,.35-.23,2.3-.23,2.3" style="fill:none;stroke:#263238;stroke-linecap:round;stroke-linejoin:round"></path><path d="M138.49,270.84a10.26,10.26,0,0,1,1.65,5.3c.17,3.31,2,6.78,2.49,6.95s3.64,0,3.14,2.48a12.42,12.42,0,0,1-2,4.47s-.66,10.1-1.49,11.75-11.91.67-11.91.67-4.47,8.6-4.47,9.1-14.4-6.79-14.4-6.79l.49-5.46a35.42,35.42,0,0,1-6.62-6,21.47,21.47,0,0,1-4.3-7.12,28.85,28.85,0,0,1,2.31-11.91c2.65-6,12.42-9.94,22.19-10.6S138.49,270.84,138.49,270.84Z" style="fill:#fff;stroke:#263238;stroke-linecap:round;stroke-linejoin:round"></path><path d="M126.07,282.1c.17-1.49-1-5.47-1-5.47l-3.31-8.11s-10.56,4.53-19.35,8.39a29,29,0,0,0-1.34,9.32,21.47,21.47,0,0,0,4.3,7.12,35.42,35.42,0,0,0,6.62,6,22.91,22.91,0,0,1,4.47-1s-6.62-5.13-3.81-7.95,6.63,0,7,.5,2.81.66,2.81-.33a25.52,25.52,0,0,0-1-4.14S125.91,283.59,126.07,282.1Z" style="fill:#263238;stroke:#263238;stroke-linecap:round;stroke-linejoin:round"></path><path d="M125.74,278.29l9.27-4-.83-6.46,3.31,5,4.8-3s-1.65-7-12.08-10.1-18.87-2.32-27.48,6.46-1.49,26.15-1.49,26.15l11.42-6.13v-6.12l2.65,3.81Z" style="fill:#263238;stroke:#263238;stroke-linecap:round;stroke-linejoin:round"></path><path d="M138.13,280.91c.29,1.06.2,2-.2,2.11s-1-.66-1.24-1.72-.2-2,.2-2.11S137.84,279.85,138.13,280.91Z" style="fill:#263238"></path><path d="M139,280.33s-1.5-1.83-3.33-1" style="fill:none;stroke:#263238;stroke-linecap:round;stroke-linejoin:round"></path><path d="M134.18,278.12a4.12,4.12,0,0,1,3.65-2.48" style="fill:none;stroke:#263238;stroke-linecap:round;stroke-linejoin:round"></path><path d="M142.13,292.69a4.58,4.58,0,0,1-5.3-1.49" style="fill:none;stroke:#263238;stroke-linecap:round;stroke-linejoin:round"></path><path d="M129.65,314.12l-20.48-12.88s-30.43,56.18-32.48,62.91.58,10,8.19,11.41,16.39-1.17,20.19-2.63,12,3.22,12,3.22,1.46,1.75,2.05.29.87-6.44.87-8.78,10.83-44.18,10.83-48.57S129.65,314.12,129.65,314.12Z" style="fill:#90CAF9;stroke:#263238;stroke-linecap:round;stroke-linejoin:round"></path><path d="M124.63,327s-17.31,5.33-21,5.66" style="fill:none;stroke:#263238;stroke-linecap:round;stroke-linejoin:round"></path><path d="M104,342.43c-1.29.75-2.43,1.41-3.37,1.93" style="fill:none;stroke:#263238;stroke-linecap:round;stroke-linejoin:round"></path><path d="M124.63,329.7s-9.45,6-17.08,10.62" style="fill:none;stroke:#263238;stroke-linecap:round;stroke-linejoin:round"></path><path d="M111.26,369.1a35.78,35.78,0,0,1,3.38,1.9" style="fill:none;stroke:#263238;stroke-linecap:round;stroke-linejoin:round"></path><path d="M96.66,366.34s4.71-1,11.41,1.42" style="fill:none;stroke:#263238;stroke-linecap:round;stroke-linejoin:round"></path><path d="M107.12,304.75l3.8-6.14s3.52.29,8.78,3.8,10,11.71,10,11.71Z" style="fill:#90CAF9;stroke:#263238;stroke-linecap:round;stroke-linejoin:round"></path><path d="M146.33,321.73l30.14-16.1v-9.36l3.8-7.32s.86-1.77,2.32-.89l-.73,1.16,1.48-1.81s1.21-1.11,2-1.92,1.49,0,1.72.46.17.2.17.2a2,2,0,0,1,1.61-.23c1.28.57-1.26,4.94-1.26,4.94s3.21-2.41,3.21-.92-3.79,5.59-3.79,5.59,4-2.37,4-1-5.4,6.21-5.4,6.21A32,32,0,0,1,183,308a9.07,9.07,0,0,1-3.67,3.67s-24.59,20.69-28.84,22.75a10.75,10.75,0,0,1-7.93.69l2.64-13Z" style="fill:#fff;stroke:#263238;stroke-linecap:round;stroke-linejoin:round"></path><path d="M187.24,286.15s-3.44,4.71-3.9,5.28a41.18,41.18,0,0,0-2,4.14" style="fill:none;stroke:#263238;stroke-linecap:round;stroke-linejoin:round"></path><path d="M183.34,287.41a59.81,59.81,0,0,0-3.45,5.52c-.23.8-.46,1.83-.46,1.83" style="fill:none;stroke:#263238;stroke-linecap:round;stroke-linejoin:round"></path><path d="M187.59,290.86s-2.3,3-2.64,3.67-1.38,2.19-1.38,2.19" style="fill:none;stroke:#263238;stroke-linecap:round;stroke-linejoin:round"></path><line x1="187.01" y1="295.53" x2="185.45" y2="297.33" style="fill:none;stroke:#263238;stroke-linecap:round;stroke-linejoin:round"></line><path d="M118.24,310.9l29.55,8.48-7,25.17s-23.12-19-24.29-20.78" style="fill:#90CAF9;stroke:#263238;stroke-linecap:round;stroke-linejoin:round"></path><polygon points="130.38 302.46 125.63 301.4 127.63 307.06 130.38 302.46" style="fill:#263238;stroke:#263238;stroke-linecap:round;stroke-linejoin:round"></polygon></g><g id="freepik--Clouds--inject-244"><path d="M138.54,76.15a11.14,11.14,0,0,0-14.37-10.66,16.31,16.31,0,0,0-30.74-.06,10.91,10.91,0,0,0-3-.42,11.14,11.14,0,0,0-2.31,22L130,87A11.14,11.14,0,0,0,138.54,76.15Z" style="fill:#fff;stroke:#263238;stroke-miterlimit:10"></path><path d="M148.51,81.68a5.47,5.47,0,0,0-7.07-5.24,8,8,0,0,0-15.13,0,5.48,5.48,0,1,0-2.6,10.64l20.6,0A5.48,5.48,0,0,0,148.51,81.68Z" style="fill:#fff;stroke:#263238;stroke-miterlimit:10"></path><path d="M443.1,139.73a11.14,11.14,0,0,0-14.37-10.66A16.32,16.32,0,0,0,398,129a10.89,10.89,0,0,0-3-.42,11.14,11.14,0,0,0-2.31,22l41.88-.08A11.14,11.14,0,0,0,443.1,139.73Z" style="fill:#fff;stroke:#263238;stroke-miterlimit:10"></path><path d="M453.07,145.27a5.48,5.48,0,0,0-5.48-5.48A5.56,5.56,0,0,0,446,140a8,8,0,0,0-15.13,0,5.42,5.42,0,0,0-1.46-.2,5.48,5.48,0,0,0-1.14,10.84l20.61,0A5.48,5.48,0,0,0,453.07,145.27Z" style="fill:#fff;stroke:#263238;stroke-miterlimit:10"></path><path d="M123.2,237.93a11.13,11.13,0,0,0-14.36-10.67,16.32,16.32,0,0,0-30.75-.06,11.29,11.29,0,0,0-3-.42,11.14,11.14,0,0,0-2.31,22l41.88-.08A11.11,11.11,0,0,0,123.2,237.93Z" style="fill:#fff;stroke:#263238;stroke-miterlimit:10"></path><path d="M133.17,243.46a5.48,5.48,0,0,0-5.48-5.48,5.61,5.61,0,0,0-1.59.23,8,8,0,0,0-15.12,0,5.48,5.48,0,1,0-2.61,10.64l20.61,0A5.48,5.48,0,0,0,133.17,243.46Z" style="fill:#fff;stroke:#263238;stroke-miterlimit:10"></path></g><g id="freepik--Text--inject-244"><path d="M223.74,393.5h-2.38l-4.21-26.1h1.67l3.92,23.79,3.8-23.68h1.83l3.65,23.6,3.77-23.71h1.53l-4.18,26.1H230.9l-3.5-21.36Z" style="fill:#263238"></path><path d="M239.85,373.78c0-3.81,1.75-6.6,5.71-6.6s5.78,2.79,5.78,6.6v13.34c0,3.81-1.76,6.6-5.78,6.6s-5.71-2.79-5.71-6.6Zm1.72,13.46c0,2.83,1.12,4.92,4,4.92s4.06-2.09,4.06-4.92V373.67c0-2.84-1.16-4.93-4.06-4.93s-4,2.09-4,4.93Z" style="fill:#263238"></path><path d="M259.61,367.4c4,0,5.6,2.2,5.6,5.89v2.28c0,3.05-1.2,4.81-3.77,5.4,2.68.6,3.77,2.5,3.77,5.33v4.07a5.84,5.84,0,0,0,.63,3.13h-1.79a6.09,6.09,0,0,1-.56-3.13v-4.1c0-3.47-1.9-4.44-4.88-4.44h-2.73V393.5h-1.71V367.4Zm-1,12.86c3.06,0,4.85-.85,4.85-4.36v-2.46c0-2.8-1.08-4.47-3.91-4.47h-3.7v11.29Z" style="fill:#263238"></path><path d="M268.56,393.5V367.4h1.72v24.53h8.2v1.57Z" style="fill:#263238"></path><path d="M286.79,367.4c4,0,5.78,2.65,5.78,6.49V387c0,3.84-1.75,6.49-5.78,6.49h-5.74V367.4Zm0,24.53c2.9,0,4.1-2,4.1-4.84V373.81c0-2.87-1.23-4.84-4.1-4.84h-4v23Z" style="fill:#263238"></path><path d="M178.54,415.31v3.46c0,4.18-2.09,6.57-6.12,6.57s-6.11-2.39-6.11-6.57V405.2c0-4.17,2.09-6.56,6.11-6.56s6.12,2.39,6.12,6.56v2.54h-3.88v-2.8c0-1.86-.82-2.57-2.13-2.57s-2.12.71-2.12,2.57V419c0,1.87.82,2.54,2.12,2.54s2.13-.67,2.13-2.54v-3.72Z" style="fill:#263238"></path><path d="M185.14,425H181v-26.1h4.11v11.18h4.66V398.94H194V425H189.8V413.85h-4.66Z" style="fill:#263238"></path><path d="M197,398.94h4.1V425H197Z" style="fill:#263238"></path><path d="M204,398.94h4.1v22.37h6.75V425H204Z" style="fill:#263238"></path><path d="M216.68,398.94h6.49c4.1,0,6.11,2.27,6.11,6.45v13.2c0,4.17-2,6.45-6.11,6.45h-6.49Zm4.1,3.73v18.64h2.31c1.31,0,2.09-.67,2.09-2.54V405.2c0-1.86-.78-2.53-2.09-2.53Z" style="fill:#263238"></path><path d="M240.47,425a7.85,7.85,0,0,1-.38-3.21v-4.1c0-2.42-.82-3.32-2.68-3.32H236V425h-4.1v-26.1h6.19c4.25,0,6.08,2,6.08,6V407c0,2.69-.86,4.44-2.69,5.3,2.05.85,2.72,2.83,2.72,5.55v4a7.69,7.69,0,0,0,.45,3.17ZM236,402.67v8h1.6c1.53,0,2.47-.67,2.47-2.76v-2.57c0-1.86-.64-2.68-2.09-2.68Z" style="fill:#263238"></path><path d="M251,409.94h5.63v3.73H251v7.64h7.08V425H246.88v-26.1h11.18v3.73H251Z" style="fill:#263238"></path><path d="M264.25,406.14V425h-3.69v-26.1h5.15l4.21,15.62V398.94h3.65V425h-4.21Z" style="fill:#263238"></path><path d="M276.41,398.94h3.95l-.6,7.68H277Z" style="fill:#263238"></path><path d="M288.75,398.64c4,0,6,2.39,6,6.56V406h-3.88v-1.08c0-1.86-.74-2.57-2.05-2.57s-2.05.71-2.05,2.57c0,5.37,8,6.38,8,13.83,0,4.18-2.09,6.57-6.12,6.57s-6.11-2.39-6.11-6.57v-1.6h3.88V419c0,1.87.82,2.54,2.12,2.54s2.13-.67,2.13-2.54c0-5.36-8-6.37-8-13.83C282.71,401,284.76,398.64,288.75,398.64Z" style="fill:#263238"></path><path d="M303,398.94h6.49c4.1,0,6.12,2.27,6.12,6.45v13.2c0,4.17-2,6.45-6.12,6.45H303Zm4.11,3.73v18.64h2.31c1.3,0,2.09-.67,2.09-2.54V405.2c0-1.86-.79-2.53-2.09-2.53Z" style="fill:#263238"></path><path d="M331.4,425h-4.14l-.7-4.74h-5l-.71,4.74h-3.76l4.17-26.1h6Zm-9.35-8.28H326l-2-13.2Z" style="fill:#263238"></path><path d="M335.32,416.39l-5.18-17.45h4.28l3.14,11.89,3.13-11.89h3.91l-5.18,17.45V425h-4.1Z" style="fill:#263238"></path></g></svg>