<svg id="Layer_1" data-name="Layer 1" xmlns="http://www.w3.org/2000/svg" viewBox="0 0 120 120">
  <title>Container1</title>
  <g>
    <g>
      <path d="M86.4,82.4c-2.4-1.3,1.7-4.8-.3-6s-3.5,3-8.1,4.8-8.2-1.6-8.2-1.6l1.3-1.8.6-.8a10.2,10.2,0,0,0,2,1.1,4.2,4.2,0,0,0,2.3.3,5.5,5.5,0,0,0,2.1-.8c1.7-1.1,6.5-8.2,11.1-4.7,2.9,2.2,2,5.9.4,8S87.3,82.9,86.4,82.4Z" style="fill: #b0401e"/>
      <g style="opacity: 0.6000000000000001">
        <path d="M87.1,82.6a6.3,6.3,0,0,0,1.2-1.1c1.8-2.2,2.8-6-.1-8.2a4.9,4.9,0,0,0-4.9-.4,4.7,4.7,0,0,1,5.6.2c2.9,2.2,2,5.9.4,8A4.2,4.2,0,0,1,87.1,82.6Z" style="fill: #fff"/>
      </g>
      <g style="opacity: 0.2">
        <path d="M86.4,82.4c-2.4-1.3,1.7-4.8-.3-6s-3.5,3-8.1,4.8-8.2-1.6-8.2-1.6l1.3-1.8,2.5.3,2.3.3H77s2.1,1.1,5.5-2.2,3.9-2.1,4.8-1.5-1,5.2.2,6.2,1.3.6,2-.1C88.5,82.2,87.3,82.9,86.4,82.4Z" style="fill: #440203"/>
      </g>
      <path d="M87,83.1l-.9-.2c-1.6-.9-1-2.6-.5-3.8s.6-1.9.1-2.2-1.3,0-2.7,1.4a14.8,14.8,0,0,1-5,3.5A8.5,8.5,0,0,1,69.5,80l-.3-.3,2.5-3.3.4.3c2.1,1.4,3.6,1.9,5.7.5l1.4-1.3a19.5,19.5,0,0,1,4.4-3.6,5.1,5.1,0,0,1,5.9.3c2.9,2.2,2.4,5.8.8,8.3A4.4,4.4,0,0,1,87,83.1Zm-1.7-7.3a1.9,1.9,0,0,1,1,.3c1.3.8.8,2.2.3,3.4s-.7,2.1,0,2.5,1.9-.4,2.8-1.8,2.1-4.9-.6-6.9-6.1.3-9,3.2A11.6,11.6,0,0,1,78.3,78c-2.4,1.6-4.3,1.1-6.4-.3l-1.3,1.8a7.4,7.4,0,0,0,7.3,1.2,14,14,0,0,0,4.6-3.2C83.4,76.6,84.3,75.8,85.3,75.8Z" style="fill: #440203"/>
    </g>
    <path d="M93.9,65.2c-.4.6-1.5.5-1.5.5a1.3,1.3,0,0,1-.9,1.5,17.7,17.7,0,0,1-5.8.3,21.4,21.4,0,0,0-8.3.9,15.3,15.3,0,0,1,.4,11.2c-2,5.4-9.5,5.6-9.5,5.6L56.4,82.3,47,80l-3.9-.9s1.7-2.9,3.6-6.5a81.7,81.7,0,0,0,4-8.8,21.9,21.9,0,0,0,.9-3l3.1-.3,14.3-1.5a83.4,83.4,0,0,1,8.9-.6c5.4-.1,11.8.5,14.7,3s.8,1.8.8,1.8S94.4,64.5,93.9,65.2Z" style="fill: #b0401e"/>
    <path d="M91.5,67.2a1.3,1.3,0,0,0,.9-1.5s1.1.1,1.5-.5-.7-1.9-.7-1.9.7-.5-.8-1.8A13.1,13.1,0,0,0,86.2,59s-4.9,3.8-1.8,8.4h1.3A17.7,17.7,0,0,0,91.5,67.2Z" style="fill: #ffc669"/>
    <ellipse cx="62.6" cy="73.8" rx="7.6" ry="8.1" style="fill: #ffc669"/>
    <path d="M68.3,85.7h-.1L42.3,79.4l.3-.6c.1-.1,7.2-12.3,8.4-18a.5.5,0,1,1,1,.2c-1.1,5.3-6.7,15.2-8.2,17.8l24.5,5.9c.7,0,7.2-.5,8.9-5.3a14.9,14.9,0,0,0-.4-10.8l-.2-.5.5-.2a21.7,21.7,0,0,1,8.5-.9,17,17,0,0,0,5.6-.3.8.8,0,0,0,.6-1v-.6h.7c.3,0,.9-.1,1.1-.3s-.2-.9-.6-1.3l-.4-.4.4-.3c0-.1-.1-.4-.8-1-5.2-4.6-23-2.3-23.2-2.3a.5.5,0,1,1-.1-1c.7-.1,18.4-2.4,24,2.5a2.5,2.5,0,0,1,1.1,1.8v.3c.4.5,1,1.5.5,2.3a1.9,1.9,0,0,1-1.4.7,1.7,1.7,0,0,1-1.3,1.5,17.9,17.9,0,0,1-6,.3,22.4,22.4,0,0,0-7.6.7,15.6,15.6,0,0,1,.2,11c-2.1,5.6-9.6,5.9-9.9,5.9ZM92.9,62.9h0Z" style="fill: #440203"/>
    <g style="opacity: 0.30000000000000004">
      <path d="M93.9,65.2c-.4.6-1.5.5-1.5.5a1.3,1.3,0,0,1-.9,1.5,17.7,17.7,0,0,1-5.8.3,21.4,21.4,0,0,0-8.3.9,15.3,15.3,0,0,1,.4,11.2c-1.3,3.5-4.9,4.8-7.3,5.3l-2.2.3-9.6-2.3-2.4-.6L47,80l-3.9-.9.4-.6,1.9.5h9.3l1.5.3a4.1,4.1,0,0,0,4.7-2.6,5.2,5.2,0,0,1,5.1-3.6c2.9,0,6,2.9,6,2.9l.2,4.5-.6.8a5.2,5.2,0,0,0,2.1-.4c1.3-.7,1.9-.7,2.6-2.4a15.3,15.3,0,0,0-.4-11.2,21.4,21.4,0,0,1,8.3-.9,17.7,17.7,0,0,0,5.8-.3,1.3,1.3,0,0,0,.9-1.5s1.1.1,1.5-.5-.7-1.9-.7-1.9.6-.5-.6-1.6l1.4.9c1.4,1.3.8,1.8.8,1.8S94.4,64.5,93.9,65.2Z" style="fill: #440203"/>
    </g>
    <path d="M73.7,76.1s-3.1-2.9-6-2.9c-6.5,0-5.9,8.7-5.9,8.7a4,4,0,0,0-2.1,2.4,5.2,5.2,0,0,0,.4,4.1c1.5,2.9,5.4,4,6.6,4s4.1-.6,5.1-5,.9-5.4,2.1-6.9" style="fill: #b0401e"/>
    <g>
      <path d="M72.4,84.5h0c.1.2,0,.9.1,1.2S72.5,84.7,72.4,84.5Z" style="fill: #ffc669"/>
      <path d="M70.1,81.4c-3-2.3-7.3-1-8.2-.9s-.1,1.5-.1,1.5a4,4,0,0,0-2.1,2.4,5.2,5.2,0,0,0,.4,4.1c1.5,2.9,5.4,4,6.6,4s4.1-.6,5.1-5l.6-2.9h0A8,8,0,0,0,70.1,81.4Z" style="fill: #ffc669"/>
    </g>
    <g style="opacity: 0.6000000000000001">
      <path d="M73.1,75.9A13.7,13.7,0,0,0,67,74.4c-3.6.2-5.1,3.4-5.4,5.8.1-2.6.8-6.9,5.4-7.2,2.9-.2,6.2,2.5,6.2,2.5Z" style="fill: #fff"/>
    </g>
    <g style="opacity: 0.30000000000000004">
      <path d="M73.9,80.6c-1.2,1.4-1.1,1.9-2.1,6.9s-3.3,5-5.1,5-5.1-1.1-6.6-4a5.9,5.9,0,0,1-.6-2.3c1.6,2.6,5.2,3.6,6.4,3.6s4.1-.6,5.1-5l.8-4.1a1.1,1.1,0,0,1,2.1-.1Z" style="fill: #440203"/>
    </g>
    <path d="M73.6,76.2l-2-1.1-2-1-1-.3h-1a5,5,0,0,0-2.1.5,4.5,4.5,0,0,0-1.6,1.3,6.8,6.8,0,0,0-1,1.9,11.1,11.1,0,0,0-.5,2.2c0,.4-.1.7-.1,1.1s0,.8,0,1.1v.3l-.3.2h-.3l-.3.2-.6.6-.4.7a4,4,0,0,0-.3.8,4.8,4.8,0,0,0,.6,3.3l.2.4.3.4.6.6,1.4,1.1,1.7.7h3.4a3.4,3.4,0,0,0,1.4-.9,5,5,0,0,0,1-1.4l.2-.4V87.7l.2-.9.2-.9.4-1.9a9,9,0,0,1,.5-1.9,3.2,3.2,0,0,1,.5-.9l.8-.7H74a.2.2,0,0,1,0,.1h0l-.3.9-.3.8-.2.9-.2.9L72.6,86l-.2.9-.2.9v.5l-.2.5v.5l-.2.5a6,6,0,0,1-1.2,1.7,4.4,4.4,0,0,1-1.8,1.1H66.5l-1-.2H65l-.5-.2-1.8-.8a8.4,8.4,0,0,1-1.6-1.2l-.7-.8-.3-.4-.3-.4a6.4,6.4,0,0,1-.7-1.9,5.2,5.2,0,0,1,0-2.1,5,5,0,0,1,.3-1l.5-.9.7-.8.4-.3h.5l-.3.5c0-.4,0-.8,0-1.2s0-.8.1-1.2a12.1,12.1,0,0,1,.5-2.4A7.8,7.8,0,0,1,63,75a5.5,5.5,0,0,1,2-1.6,6.2,6.2,0,0,1,2.5-.6h1.3l1.2.3a9.3,9.3,0,0,1,2.2,1.1A7,7,0,0,1,73.8,76a.2.2,0,0,1,0,.2h-.2Z" style="fill: #440203"/>
    <path d="M58.2,85h0a20,20,0,0,1-2.6-.4.5.5,0,0,1,.2-1l2.4.4a.5.5,0,0,1,0,1Z" style="fill: #440203"/>
    <path d="M61.7,81.5H63l.5.3.2.2h-.1l.4-.2,1-.2h1l.8.5a6.3,6.3,0,0,1,1.1,1.3,9,9,0,0,1,.8,1.5h-.1l-1-1.3-.6-.6-.6-.5-.6-.3h-.6l-.6.2-.3.2h-.3l-.4.3-.4-.3h-.3l-.3-.2h-.7a.5.5,0,0,1-.1-1Z" style="fill: #440203"/>
    <path d="M53.5,69.9s-3.1-2.9-6-2.9c-6.5,0-5.9,8.7-5.9,8.7a4,4,0,0,0-2.1,2.4,5.2,5.2,0,0,0,.4,4.1c1.5,2.9,5.4,4,6.6,4s4.1-.6,5.1-5,.9-5.4,2.1-6.9" style="fill: #b0401e"/>
    <path d="M39.4,80s-.2-4.6,3.7-4l.5.6s2.5-2.5,5.4,3.5l.6,3.8-.6,1.5-4.1.8-3-1.2A5.6,5.6,0,0,1,39.4,80Z" style="fill: #ffc669"/>
    <g style="opacity: 0.6000000000000001">
      <path d="M53.7,74.2l-.2.3-.2-3.2s-3.1-2.9-6-2.9-5.3,3.2-5.7,5.8c.1-2.5,1-7.3,5.9-7.3,2.9,0,6,2.9,6,2.9Z" style="fill: #fff"/>
    </g>
    <path d="M46.7,86.7h-.2c-1.3,0-5.4-1.1-7-4.3a5.6,5.6,0,0,1-.4-4.5,4.7,4.7,0,0,1,2-2.5c0-1.2,0-4.9,2.1-7.2a5.6,5.6,0,0,1,4.3-1.7h0c3.1,0,6.2,2.9,6.3,3a.5.5,0,0,1-.7.7s-3-2.7-5.7-2.7h0A4.6,4.6,0,0,0,44,69c-2.2,2.3-1.9,6.7-1.8,6.8v.4h-.3A3.5,3.5,0,0,0,40,78.3a4.6,4.6,0,0,0,.4,3.7c1.4,2.7,5,3.7,6.2,3.7s3.7-.4,4.6-4.6l.5-2.4c.5-2.8.7-3.4,1.7-4.6a.5.5,0,1,1,.8.7c-.9,1-1,1.5-1.5,4.2l-.5,2.4C51.4,85,49.6,86.7,46.7,86.7Z" style="fill: #440203"/>
    <path d="M48.4,79.5a.5.5,0,0,1-.4-.3c-1-1.7-1.8-2.9-3-2.9a2.5,2.5,0,0,0-1.1.5l-.4.2-.3-.3a1.6,1.6,0,0,0-1.5-.4.5.5,0,0,1-.2-1,2.7,2.7,0,0,1,2.1.4,2.9,2.9,0,0,1,1.4-.4c1.6.1,2.7,1.4,3.8,3.4a.5.5,0,0,1-.2.7Z" style="fill: #440203"/>
    <path d="M54.2,83.3l12.1,3.3c6.6,1.4,13.1-.2,15.9,2s1.8,3.9.8,7.1c0,.1-.1.1-.1,0v-.7c0-.2,0-.3,0-.5V92.5h0V92h0l-.3-.7h-.6l-.2-.2h-.5l-.5-.2h-.1c-2.8-1-7.5-.4-12.5-1h-1L52.2,85.1l-3-.8-7-1.7-.9-.3c-4.8-1.7-8.7-4.4-11.6-4.7H28.1l-.7.3H27l-.3.2h-.1l-.2.3h-.1l-.5.6-.2.3-.2.4-.2.4-.5,1.2h-.1c.4-3.4,2.3-5.9,4-6.3,3.4-.7,8.5,3.6,15.1,5.3l3.3.8Z" style="fill: #ff0"/>
    <path d="M82.9,94.9c0,.1,0,.1,0,.2v1.2l-.2.4a6.5,6.5,0,0,1-3.6,3.7c-4.1,1.5-9.8.6-13.7-.2l-2.4-.5-2.2-.6-3.9-1-2.4-.6-4.1-1H50l-3-.7-6.1-1.5-2.4-.6c-3.8-1-9.3-2.8-12.4-6a6.4,6.4,0,0,1-1.6-4.2,9.5,9.5,0,0,1,0-1.2v-.3l.5-1.2.2-.4.2-.4.2-.3.5-.6h.1l.2-.3h.1l.3-.2h.4l.7-.3h1.4c2.9.4,6.3,3.2,11.6,4.8l1.4.4h.6l-1.1-.3,3.7.9,3.5.9,1.1.3,1.9.4,1,.2,1.8.4,1.6.4h.6l9.8,2.4-1-.2h.5l1.4.3c5.5,1,9.8,0,12.5,1h.1l.5.2h.5l.2.2h.6l.3.7h0v.3h0v1.9C82.9,94.5,82.9,94.7,82.9,94.9Z" style="fill: #1599fc"/>
    <polygon points="54.4 97.6 50.3 96.6 45.7 83.4 49.2 84.3 50.3 84.6 54.4 97.6" style="fill: #ff0"/>
    <polygon points="60.7 99.1 56.8 98.2 52.2 85 53.2 85.3 55 85.7 56.6 86.1 60.7 99.1" style="fill: #ff0"/>
    <g style="opacity: 0.30000000000000004">
      <path d="M83,94c0,.1,0,.1,0,.2v1.2l-.2.4a6.5,6.5,0,0,1-3.6,3.7c-4.1,1.5-9.8.6-13.7-.2l-2.4-.5L50.1,95.6l-3-.7L41,93.3l-2.4-.6c-3.8-1-9.3-2.8-12.4-6a6.4,6.4,0,0,1-1.6-4.2,9.5,9.5,0,0,1,0-1.2h0a5.8,5.8,0,0,0,1.4,2.7c3,3.2,8.5,5,12.4,6l2.4.6L47,92.1l3,.7L62.9,96l2.4.5c3.9.8,9.6,1.7,13.7.2A6.5,6.5,0,0,0,82.6,93l.2-.4v.9C83,93.6,83,93.8,83,94Z" style="fill: #440203"/>
    </g>
    <g style="opacity: 0.6000000000000001">
      <path d="M82.7,92.9l-.2-.4H82l-.2-.2h-.5l-.5-.2h-.1c-2.7-1-7,0-12.5-1l-1.4-.3h-.5l1,.2-9.8-2.4-2.2-.6-1.8-.4-4-1-7.1-1.8,1.1.3h-.6l-1.4-.4c-5.3-1.6-8.7-4.4-11.6-4.8H28.4l-.7.3h-.4l-.3.2H27l-.2.3h-.1l-.5.6-.2.3-.2.4-.2.4L25,83.1v.3a9.5,9.5,0,0,0,0,1.2,8.1,8.1,0,0,0,.1,1.1,7.4,7.4,0,0,1-.4-2.4,9.5,9.5,0,0,1,0-1.2v-.3l.5-1.2.2-.4.2-.4.2-.3.5-.6h.1l.2-.3h.1l.3-.2h.4l.7-.3h1.4c2.9.4,6.3,3.2,11.6,4.8l1.4.4h.6l-1.1-.3,7.1,1.8,4,1,1.8.4,2.2.6,9.8,2.4-1-.2h.5l1.4.3c5.5,1,9.8,0,12.5,1h.1l.5.2h.5l.2.2h.6l.3.7h0v.3h0v.4Z" style="fill: #fff"/>
    </g>
    <g>
      <path d="M82.9,96.2h-.1a.6.6,0,0,1-.5-.6v-.4h0v-.2c0-.2,0-.3,0-.5V93.1h0v-.4h0v-.3h0l-.2-.6H80.7l-.4-.2h-.1a20.5,20.5,0,0,0-6.1-.6,54,54,0,0,1-6.3-.4l-1-.2h0L51.5,85.3,49,84.8,42,83l-1-.3a54.4,54.4,0,0,1-5.8-2.5A20.5,20.5,0,0,0,29.5,78H28.2l-.5.2h-.3l-.2.2H27l-.2.2h-.1l-.4.6-.2.3-.2.4-.2.4-.5,1.2a.5.5,0,0,1-1-.2c.4-3.7,2.6-6.3,4.4-6.7s4.7.8,7.6,2.2a41.4,41.4,0,0,0,7.7,3.1l3.3.8,7.5,1.6,11.8,3.1a41.2,41.2,0,0,0,8.3.7c3.3,0,6.1.1,7.8,1.4s1.9,4.4.9,7.6A.6.6,0,0,1,82.9,96.2Zm.1-4.4h0A4,4,0,0,0,81.9,89c-1.4-1.1-4.1-1.2-7.2-1.2a41.9,41.9,0,0,1-8.5-.7h0L54.4,83.9l-7.5-1.6-3.3-.8a42.2,42.2,0,0,1-7.9-3.2c-2.8-1.4-5.2-2.5-7-2.2a4,4,0,0,0-2.2,1.8h.6l.9-.4h1.6a21.1,21.1,0,0,1,6.1,2.3,53.6,53.6,0,0,0,5.7,2.5l.9.3,7,1.7,2.5.6L67,88.2H68a53.2,53.2,0,0,0,6.2.4,21,21,0,0,1,6.4.7h.1l.6.2h.5l.3.2h.7v.2ZM24.2,81.7h0Z" style="fill: #440203"/>
      <path d="M73.6,101.7a41.7,41.7,0,0,1-8.4-1l-2.2-.5h-.2l-22-5.5-2.4-.6c-6.1-1.6-10.2-3.6-12.6-6.2a7.3,7.3,0,0,1-1.7-5.8h0v-.3l.5-1.3.2-.4.2-.4.2-.3.5-.7v-.2l.3-.3h.1l.3-.3h.5l.9-.4h1.6a16.8,16.8,0,0,1,5.1,2,39.1,39.1,0,0,0,6.6,2.8l.7.2h.2l1.1.3-.2,1h-.6L41,82.8a39.9,39.9,0,0,1-6.8-2.9A16.3,16.3,0,0,0,29.4,78H28.2l-.5.2h-.3l-.2.2H27l-.2.2h-.1l-.4.6-.2.3-.2.4-.2.4-.5,1.2v.2a6.4,6.4,0,0,0,1.4,5c2.2,2.4,6.2,4.3,12.1,5.9l2.4.6,22,5.5h.2l2.2.5c6,1.3,10.4,1.3,13.4.2a6.3,6.3,0,0,0,3.5-3.8v-.9h0v-.2c0-.2,0-.3,0-.5V93.1h0v-.4h0v-.3h0l-.2-.6H80.7l-.4-.2h-.1a16.2,16.2,0,0,0-5.1-.5,39.5,39.5,0,0,1-7.3-.5l-1.5-.3h-.6l.2-1h0l1.1.2h1a38.9,38.9,0,0,0,7.2.5,16.8,16.8,0,0,1,5.4.5h.1l.5.2h.5l.3.2h.7v.2l.3.8h0v.3h0v.4h0v1.4c0,.2,0,.4,0,.5v1.4h0a7.1,7.1,0,0,1-4.1,4.4A16.2,16.2,0,0,1,73.6,101.7Z" style="fill: #440203"/>
    </g>
    <path d="M56.4,82.3a3.8,3.8,0,0,1-.2,1c-.8,1.9-2.5-.4-2.5-.4s-.7,1.5-1.5,1.5-1.8-1.6-1.8-1.6-1,1-1.9.6S47.3,81.9,47,80a39.6,39.6,0,0,1-.3-7.4A44.2,44.2,0,0,1,48,62.9a13.3,13.3,0,0,1,1.8-4.2l3.9-5.1.9,6.9.5,4.1.6,4.7C55.1,74.2,56.7,79.4,56.4,82.3Z" style="fill: #b0401e"/>
    <path d="M56.1,77.6a6.8,6.8,0,0,0-9.5-.3A14.5,14.5,0,0,0,47,80c.3,1.9.8,3.2,1.5,3.5s1.9-.6,1.9-.6.6,1.6,1.8,1.6S53.6,83,53.6,83s1.7,2.3,2.5.4a3.8,3.8,0,0,0,.2-1A18.1,18.1,0,0,0,56.1,77.6Z" style="fill: #ffc669"/>
    <g style="opacity: 0.30000000000000004">
      <path d="M55.7,69.4c-.6,4.8,1,10,.7,12.9a3.8,3.8,0,0,1-.2,1c-.8,1.9-2.5-.4-2.5-.4s-.7,1.5-1.5,1.5-1.8-1.6-1.8-1.6-1,1-1.9.6-1.1-1.3-1.4-3a2,2,0,0,0,.9,1.2c1,.4,1.9-.6,1.9-.6s.6,1.6,1.8,1.6,1.5-1.5,1.5-1.5,1.7,2.3,2.5.4c.1-.3-1.9-8,0-12.5" style="fill: #440203"/>
    </g>
    <path d="M55.9,69.4c.1.7.1,1.4.2,2.1v2.1c.1,1.4.3,2.8.4,4.3s.2,1.4.2,2.2a11.8,11.8,0,0,1,0,2.3,4.2,4.2,0,0,1-.3,1.2l-.4.6a1.3,1.3,0,0,1-.7.4h-.8l-.6-.3-.5-.4-.4-.5h.9l-.3.6-.4.5-.6.5h-.9l-.7-.3-.6-.5-.4-.5-.2-.3-.2-.3.8.2-.2.2-.3.2-.6.3H48.2l-.6-.5-.4-.5a6.3,6.3,0,0,1-.4-1.1,15.1,15.1,0,0,1-.4-2.2c-.1-.7-.2-1.4-.2-2.2a51.2,51.2,0,0,1,.2-8.6c.2-1.4.4-2.9.7-4.3a23.6,23.6,0,0,1,1.3-4.2,10.2,10.2,0,0,1,1.1-2l1.3-1.7,1.3-1.7.7-.8.9-.7h.2a.2.2,0,0,1,0,.2l-.5,1-.6.9-1.3,1.7-1.3,1.7a9.2,9.2,0,0,0-1,1.8,22.6,22.6,0,0,0-1.2,4c-.3,1.4-.5,2.8-.7,4.2a50.2,50.2,0,0,0-.2,8.5c0,.7.1,1.4.2,2.1a14.2,14.2,0,0,0,.4,2l.4.9.2.4.2.2h.7l.4-.2H50l.5-.5.3.7v.4l.3.4.3.3h.6l.3-.3.6-.9.4-.7.5.6.3.4.3.3.3.2h.4l.2-.3a3.3,3.3,0,0,0,.2-.9,10.9,10.9,0,0,0,0-2.1c-.1-.7-.1-1.4-.2-2.1s-.4-2.9-.5-4.3,0-.7,0-1.1,0-.7,0-1.1a8.4,8.4,0,0,1,.4-2.2h.3Z" style="fill: #440203"/>
    <g style="opacity: 0.30000000000000004">
      <path d="M80.1,58.5c-3.8,4.5-10.8,6.7-18.9,7.2a44.7,44.7,0,0,1-7.2-.1,30.2,30.2,0,0,1-5.2-1c-1.1-.3-.3.2-1.2-.2.6-2,.7-4.4,1.6-5.5l4.2,2,16.5-1.7A96.2,96.2,0,0,1,80.1,58.5Z" style="fill: #440203"/>
    </g>
    <g style="opacity: 0.30000000000000004">
      <path d="M44,58v0Z" style="fill: #440203"/>
    </g>
    <g style="opacity: 0.30000000000000004">
      <path d="M43.9,58.5v0Z" style="fill: #440203"/>
    </g>
    <g>
      <path d="M42.7,96.4c-.4,1.7-2.6,2.7-4.8,2.1s-3.6-2.4-3.1-4.2l.6-2.2,7.9,2Z" style="fill: #05c1b7"/>
      <path d="M39.2,99.2l-1.4-.2c-2.4-.6-4-2.8-3.5-4.8l.7-2.7,8.9,2.3-.7,2.7A3.9,3.9,0,0,1,39.2,99.2Zm-3.5-6.4-.4,1.7c-.4,1.5.9,3.1,2.8,3.6s3.8-.3,4.1-1.8l.4-1.7Zm7,3.6h0Z" style="fill: #440203"/>
      <ellipse cx="39.3" cy="93.3" rx="3.3" ry="4.1" transform="translate(-60.8 108.2) rotate(-75.6)" style="fill: #60f4e9"/>
      <path d="M43.3,94.3h0c-.5,1.7-2.6,2.6-4.7,2.1s-3.6-2.4-3.1-4.2a2.7,2.7,0,0,1,.8-1.3,4.3,4.3,0,0,1,3.9-.8C42.3,90.7,43.7,92.5,43.3,94.3Z" style="fill: #60f4e9"/>
      <g style="opacity: 0.30000000000000004">
        <path d="M43.3,94.3h0a4.3,4.3,0,0,1-3.9.8c-2.2-.6-3.6-2.4-3.1-4.2h0a4.3,4.3,0,0,1,3.9-.8C42.3,90.7,43.7,92.5,43.3,94.3Z" style="fill: #440203"/>
      </g>
      <path d="M39.8,97.1l-1.4-.2a5.1,5.1,0,0,1-2.8-1.8,3.3,3.3,0,0,1,1.3-5.2,5.1,5.1,0,0,1,3.4-.2c2.4.6,4,2.8,3.5,4.8h0A3.9,3.9,0,0,1,39.8,97.1Zm-.9-6.6a3.8,3.8,0,0,0-1.6.3,2.3,2.3,0,0,0-.9,3.7,4.1,4.1,0,0,0,2.3,1.5c1.9.5,3.8-.3,4.1-1.8s-.9-3.1-2.8-3.6Zm4.4,3.8h0Z" style="fill: #440203"/>
      <g>
        <path d="M41.9,92.3l-4.5-1.6a2.1,2.1,0,0,1-1.1-3h0a2.1,2.1,0,0,1,2.6-1l4.5,1.6a2.1,2.1,0,0,1,1.3,2.4h0A2.1,2.1,0,0,1,41.9,92.3Z" style="fill: #ff0d0d"/>
        <g style="opacity: 0.30000000000000004">
          <path d="M41.9,92.3l-4.5-1.7a2.1,2.1,0,0,1-1.1-3h0a2.1,2.1,0,0,1,2.6-1l4.5,1.7a2.1,2.1,0,0,1,1.3,2.4h0A2.1,2.1,0,0,1,41.9,92.3Z" style="fill: #440203"/>
        </g>
        <path d="M43,93.1h-.8l-5.4-2a2.2,2.2,0,0,1-1.2-3.1L36,87a2.2,2.2,0,0,1,2.7-1L43.9,88a2.2,2.2,0,0,1,1.4,2.5l-.2.8A2.2,2.2,0,0,1,44,92.8ZM42.5,92a1.2,1.2,0,0,0,1.6-.9l.2-.8a1.2,1.2,0,0,0-.7-1.4L38.4,87a1.2,1.2,0,0,0-1.5.5l-.4.7a1.2,1.2,0,0,0,.6,1.7l5.4,2Z" style="fill: #440203"/>
        <path d="M40.5,93.9h0a2.5,2.5,0,0,1-2.7-1h0l2.8-7.5,2.7,1Z" style="fill: #ed4f4f"/>
        <path d="M40.5,93.9h0a2.5,2.5,0,0,1-2.7-1h0l2.8-7.5,2.7,1Z" style="fill: #ff0d0d"/>
        <g style="opacity: 0.30000000000000004">
          <path d="M43.4,86.4l-2.8,7.5a2.5,2.5,0,0,1-2.7-1l.2-.6a2.5,2.5,0,0,0,1.7.2l2.4-6.5Z" style="fill: #440203"/>
        </g>
        <path d="M39.9,94.5a3,3,0,0,1-2.5-1.3v-.2l3.1-8.3L44,86.1l-3.1,8.3h-1Zm.7-.6h0Zm-2.2-1.1a2,2,0,0,0,1.8.7l2.5-6.8L40.9,86Z" style="fill: #440203"/>
      </g>
      <path d="M45.5,88.1c-.4,1.7-2.6,2.7-4.8,2.1s-3.6-2.4-3.1-4.2l.6-2.2,7.9,2Z" style="fill: #05c1b7"/>
      <path d="M42,90.9l-1.4-.2c-2.4-.6-4-2.8-3.5-4.8l.7-2.7,8.9,2.3L46,88.2a3.4,3.4,0,0,1-2,2.3A4.8,4.8,0,0,1,42,90.9Zm-3.5-6.4-.4,1.7c-.4,1.5.9,3.1,2.8,3.6a4.1,4.1,0,0,0,2.7-.2A2.5,2.5,0,0,0,45,88l.4-1.7Z" style="fill: #440203"/>
      <ellipse cx="42.1" cy="84.9" rx="3.3" ry="4.1" transform="translate(-50.6 104.6) rotate(-75.6)" style="fill: #60f4e9"/>
      <path d="M42.2,86.3h-.5a1.8,1.8,0,0,1-1-.6,1.3,1.3,0,0,1-.2-1.1,1.5,1.5,0,0,1,1.9-.9,1.8,1.8,0,0,1,1,.6,1.3,1.3,0,0,1-.5,2ZM42,84.5a.5.5,0,0,0-.5.2.3.3,0,0,0,.1.3l.4.3h.5l.2-.2h0a.3.3,0,0,0-.1-.3l-.4-.3Z" style="fill: #440203"/>
      <path d="M42.5,88.7l-1.4-.2a5.1,5.1,0,0,1-2.8-1.8,3.4,3.4,0,0,1-.7-3c.5-2,2.9-3.1,5.4-2.5a5.1,5.1,0,0,1,2.8,1.8,3.4,3.4,0,0,1,.7,3A3.9,3.9,0,0,1,42.5,88.7Zm-.9-6.6a2.9,2.9,0,0,0-3,1.9,2.5,2.5,0,0,0,.5,2.1,4.1,4.1,0,0,0,2.3,1.5c1.9.5,3.8-.3,4.1-1.8a2.5,2.5,0,0,0-.5-2.1,4.1,4.1,0,0,0-2.3-1.5Z" style="fill: #440203"/>
    </g>
    <g>
      <path d="M67.5,102.2c-.4,1.7-2.6,2.7-4.8,2.1s-3.6-2.4-3.1-4.2l.6-2.2,7.9,2Z" style="fill: #05c1b7"/>
      <path d="M63.9,105l-1.4-.2c-2.4-.6-4-2.8-3.5-4.8l.7-2.7,8.9,2.3-.7,2.7A3.9,3.9,0,0,1,63.9,105Zm-3.5-6.4-.4,1.7c-.4,1.5.9,3.1,2.8,3.6s3.8-.3,4.1-1.8l.4-1.7Zm7,3.6h0Z" style="fill: #440203"/>
      <ellipse cx="64.1" cy="99" rx="3.3" ry="4.1" transform="translate(-47.7 136.5) rotate(-75.6)" style="fill: #60f4e9"/>
      <path d="M68,100h0c-.5,1.7-2.6,2.6-4.7,2.1s-3.6-2.4-3.1-4.2a2.7,2.7,0,0,1,.8-1.3,4.3,4.3,0,0,1,3.9-.8C67.1,96.4,68.5,98.3,68,100Z" style="fill: #60f4e9"/>
      <g style="opacity: 0.30000000000000004">
        <path d="M68,100h0a4.3,4.3,0,0,1-3.9.8c-2.2-.6-3.6-2.4-3.1-4.2h0a4.3,4.3,0,0,1,3.9-.8C67.1,96.4,68.5,98.3,68,100Z" style="fill: #440203"/>
      </g>
      <path d="M64.5,102.8l-1.4-.2a5.1,5.1,0,0,1-2.8-1.8,3.3,3.3,0,0,1,1.3-5.2,5.3,5.3,0,0,1,6.2,1.6,3.4,3.4,0,0,1,.7,3A3.9,3.9,0,0,1,64.5,102.8Zm-.9-6.6a3.8,3.8,0,0,0-1.6.3,2.3,2.3,0,0,0-.9,3.7,4.1,4.1,0,0,0,2.3,1.5c1.9.5,3.8-.3,4.1-1.8a2.5,2.5,0,0,0-.5-2.1,4.1,4.1,0,0,0-2.3-1.5Z" style="fill: #440203"/>
      <g>
        <path d="M66.6,98l-4.5-1.7a2.1,2.1,0,0,1-1.1-3h0a2.1,2.1,0,0,1,2.6-1l4.5,1.7a2.1,2.1,0,0,1,1.3,2.4h0A2.1,2.1,0,0,1,66.6,98Z" style="fill: #ff0d0d"/>
        <g style="opacity: 0.30000000000000004">
          <path d="M66.6,98l-4.5-1.7a2.1,2.1,0,0,1-1.1-3h0a2.1,2.1,0,0,1,2.6-1l4.5,1.7a2.1,2.1,0,0,1,1.3,2.4h0A2.1,2.1,0,0,1,66.6,98Z" style="fill: #440203"/>
        </g>
        <path d="M67.7,98.8h-.8l-5.4-2a2.2,2.2,0,0,1-1.2-3.1l.4-.7a2.2,2.2,0,0,1,2.7-1l5.2,1.9A2.2,2.2,0,0,1,70,96.2l-.2.8a2.2,2.2,0,0,1-1.1,1.5Zm-.4-1.1a1.2,1.2,0,0,0,1.6-.9L69,96a1.2,1.2,0,0,0-.7-1.4l-5.2-1.9a1.2,1.2,0,0,0-1.5.5l-.4.7a1.2,1.2,0,0,0,.6,1.7l5.4,2Z" style="fill: #440203"/>
        <path d="M65.3,99.7h0a2.5,2.5,0,0,1-2.7-1h0l2.8-7.5,2.7,1Z" style="fill: #ed4f4f"/>
        <path d="M65.3,99.7h0a2.5,2.5,0,0,1-2.7-1h0l2.8-7.5,2.7,1Z" style="fill: #ff0d0d"/>
        <g style="opacity: 0.30000000000000004">
          <path d="M68.1,92.1l-2.8,7.5a2.5,2.5,0,0,1-2.7-1l.2-.6a2.5,2.5,0,0,0,1.7.2L67,91.7Z" style="fill: #440203"/>
        </g>
        <path d="M64.6,100.2a3,3,0,0,1-2.5-1.3v-.2l3.1-8.3,3.7,1.4-3.1,8.3h-1Zm.7-.6h0Zm-2.2-1.1a2,2,0,0,0,1.8.7l2.5-6.8-1.8-.7Z" style="fill: #440203"/>
      </g>
      <path d="M70.2,93.8c-.4,1.7-2.6,2.7-4.8,2.1s-3.6-2.4-3.1-4.2l.6-2.2,7.9,2Z" style="fill: #05c1b7"/>
      <path d="M66.7,96.7l-1.4-.2a5.1,5.1,0,0,1-2.8-1.8,3.4,3.4,0,0,1-.7-3l.7-2.7,8.9,2.3L70.7,94A3.9,3.9,0,0,1,66.7,96.7Zm-3.5-6.4-.4,1.7a2.5,2.5,0,0,0,.5,2.1,4.1,4.1,0,0,0,2.3,1.5c1.9.5,3.8-.3,4.1-1.8l.4-1.7Zm7,3.6h0Z" style="fill: #440203"/>
      <ellipse cx="66.8" cy="90.7" rx="3.3" ry="4.1" transform="translate(-37.6 132.9) rotate(-75.6)" style="fill: #60f4e9"/>
      <path d="M67,92h-.5a1.4,1.4,0,1,1,1.9-.9h0a1.3,1.3,0,0,1-.7.8Zm-.2-1.8a.5.5,0,0,0-.5.3c0,.2.1.5.5.6h.5l.2-.2h0c0-.2-.1-.5-.5-.6Zm1.2.7h0Z" style="fill: #440203"/>
      <path d="M67.3,94.5l-1.4-.2a5.1,5.1,0,0,1-2.8-1.8,3.4,3.4,0,0,1-.7-3c.5-2,2.9-3.1,5.4-2.5a5.1,5.1,0,0,1,2.8,1.8,3.4,3.4,0,0,1,.7,3A3.9,3.9,0,0,1,67.3,94.5Zm-.9-6.6a2.9,2.9,0,0,0-3,1.9,2.5,2.5,0,0,0,.5,2.1,4.1,4.1,0,0,0,2.3,1.5c1.9.5,3.8-.3,4.1-1.8a2.5,2.5,0,0,0-.5-2.1A4.1,4.1,0,0,0,67.5,88Z" style="fill: #440203"/>
    </g>
    <g>
      <g>
        <path d="M44.5,42.7l-.8,9.2a6.6,6.6,0,0,1-9.2-.8l-.6-.8a6.6,6.6,0,0,1,10.6-7.6Z" style="fill: #b0401e"/>
        <path d="M39.5,53.5h-.6a6.6,6.6,0,0,1-4.5-2.3l-.6-.8a6.6,6.6,0,0,1,10.7-7.7h0L43.8,52h0A6.6,6.6,0,0,1,39.5,53.5Zm0-13.1A6.5,6.5,0,0,0,34,50.3l.6.8a6.5,6.5,0,0,0,9.1.8l.8-9.2a6.5,6.5,0,0,0-3.9-2.2Z" style="fill: #440203"/>
      </g>
      <g style="opacity: 0.6000000000000001">
        <path d="M43.5,41.9a6.6,6.6,0,0,0-8.5,9.3l.6.8.9.9a6.5,6.5,0,0,1-2.1-1.7l-.6-.8a6.6,6.6,0,0,1,9.7-8.5Z" style="fill: #fff"/>
      </g>
      <path d="M39.5,54A7.1,7.1,0,1,1,45,42.4a.5.5,0,0,1-.8.7,6,6,0,1,0-.7,8.5.5.5,0,0,1,.7.8A7.1,7.1,0,0,1,39.5,54Z" style="fill: #440203"/>
      <g>
        <circle cx="39.2" cy="47" r="3" transform="translate(-21.9 50.9) rotate(-53.9)" style="fill: #fe914a"/>
        <path d="M39.2,50a3.1,3.1,0,1,1,2.5-1.3A3,3,0,0,1,39.2,50Zm0-6h-.5a2.9,2.9,0,1,0,.5,0Z" style="fill: #440203"/>
      </g>
      <g style="opacity: 0.2">
        <path d="M44.5,42.7l-.8,9.2a6.6,6.6,0,0,1-9.2-.8l-.6-.8c2.6-.7,8.3-2.8,6.6-9.9A6.5,6.5,0,0,1,44.5,42.7Z" style="fill: #440203"/>
      </g>
      <path d="M39.2,50.5A3.5,3.5,0,1,1,42,49.1,3.5,3.5,0,0,1,39.2,50.5Zm0-6h-.4a2.4,2.4,0,1,0,.4,0Z" style="fill: #440203"/>
      <g>
        <path d="M83,33.2A24,24,0,0,1,84.6,39a15.9,15.9,0,0,1,.1,3.9c-.5,5.4-3.4,11.4-7.1,14.3A32.5,32.5,0,0,1,69.1,62l-3.4,1.1h0l-2.1.5a31.2,31.2,0,0,1-6.6.5c-8.7-.2-12.4-3.3-14.5-6.6a12.2,12.2,0,0,1-1.4-3.2h0a14.8,14.8,0,0,1-.5-3.5,17.1,17.1,0,0,1,.6-5.2,15.3,15.3,0,0,1-.7-8.5c1.5-6.8,7.8-9.9,7.8-9.9-.7-3.8,5.2-4.1,6.4-4.1-.9,0-4-.3-3.9-2.7s4.3-3.4,7.4-3,8.3,3.3,8.3,3.3A20.8,20.8,0,0,1,83,33.2Z" style="fill: #b0401e"/>
        <path d="M57.8,64.2h-.7c-9.4-.2-12.8-3.9-14.6-6.7a12.3,12.3,0,0,1-1.4-3.2h0a14.8,14.8,0,0,1-.5-3.5,17.4,17.4,0,0,1,.6-5.2,15.5,15.5,0,0,1-.7-8.5c1.4-6.4,7.2-9.7,7.8-10a2.7,2.7,0,0,1,.6-2.2c1.1-1.3,3.4-1.7,4.9-1.8a4.1,4.1,0,0,1-2.3-1.1,2.1,2.1,0,0,1-.6-1.6,2.5,2.5,0,0,1,.9-1.9c1.5-1.3,4.5-1.5,6.6-1.2s8,3.2,8.3,3.4A20.8,20.8,0,0,1,83.1,33.2,24.2,24.2,0,0,1,84.7,39a16,16,0,0,1,.1,4c-.6,5.6-3.5,11.5-7.1,14.4a32.6,32.6,0,0,1-8.5,4.8l-3.4,1.1h0l-2.1.5A31.4,31.4,0,0,1,57.8,64.2Zm-16.6-10a12.2,12.2,0,0,0,1.4,3.2c1.7,2.7,5.1,6.4,14.4,6.6a31.3,31.3,0,0,0,6.5-.5l2-.5h0L69.1,62a32.4,32.4,0,0,0,8.4-4.7c3.6-2.8,6.5-8.7,7.1-14.3a15.8,15.8,0,0,0-.1-3.9,24,24,0,0,0-1.6-5.8h0A20.7,20.7,0,0,0,66.6,20.7h0c-.1,0-5.2-3-8.2-3.3s-5-.1-6.5,1.2a2.3,2.3,0,0,0-.9,1.8,2,2,0,0,0,.5,1.5,5.1,5.1,0,0,0,3.3,1.1h0c-1,0-4.5.2-5.8,1.8a2.6,2.6,0,0,0-.5,2.2h0c-.1,0-6.3,3.2-7.8,9.9a15.3,15.3,0,0,0,.7,8.5h0a17.2,17.2,0,0,0-.6,5.2,14.7,14.7,0,0,0,.5,3.5Z" style="fill: #440203"/>
      </g>
      <g style="opacity: 0.2">
        <path d="M48.4,26.4s2,1.4,5.8-.8,4.4-1.3,3.6-.7-5.1,4.2-7.5,3.7S48.4,26.4,48.4,26.4Z" style="fill: #440203"/>
      </g>
      <g style="opacity: 0.2">
        <path d="M84.7,43c-.5,5.4-3.4,11.4-7.1,14.3A32.5,32.5,0,0,1,69.1,62l-3.4,1.1h0l-2.1.5a31.2,31.2,0,0,1-6.6.5c-8.7-.2-12.4-3.3-14.5-6.6a12.2,12.2,0,0,1-1.4-3.2h0a14.8,14.8,0,0,1-.5-3.5c2.1,4.9,6,13.9,24.1,9.9C75.9,58.2,81.6,49.9,84.7,43Z" style="fill: #440203"/>
      </g>
      <g style="opacity: 0.6000000000000001">
        <path d="M54.8,23a33.8,33.8,0,0,1-4,1.9A3.1,3.1,0,0,0,49,28.1,23,23,0,0,0,40.6,37c1.5-6.8,7.8-9.9,7.8-9.9C47.7,23.2,53.6,23,54.8,23Z" style="fill: #fff"/>
      </g>
      <g style="opacity: 0.6000000000000001">
        <path d="M83,33.2l-1,.4C75.5,22,65.7,22.4,65.7,22.4l-2.5-1.6c-.4.6-1.9.7-3.5.4s-3.2-1.3-3-2.1l.2-.3a5.4,5.4,0,0,0-3.9.8C51,21.3,54.8,23,54.8,23s-4-.3-3.9-2.7,4.3-3.4,7.4-3,8.3,3.3,8.3,3.3A20.8,20.8,0,0,1,83,33.2Z" style="fill: #fff"/>
      </g>
      <path d="M57.8,64.7h-.7c-7.3-.2-12.1-2.4-15-6.9a12.8,12.8,0,0,1-1.5-3.4h0a17.3,17.3,0,0,1,0-8.8c-2.3-6.7-.2-11.5,2-14.3a17.9,17.9,0,0,1,5.1-4.5,3.1,3.1,0,0,1,.7-2.3,5.9,5.9,0,0,1,3.3-1.7l-.7-.5a2.6,2.6,0,0,1-.7-1.9,2.9,2.9,0,0,1,1.1-2.2c1.6-1.4,4.6-1.6,6.9-1.3s7.7,3,8.4,3.4c9.8,1.5,16.8,8.7,18.4,18.8h0a21.1,21.1,0,0,1-1.5,10.3,19.9,19.9,0,0,1-5.8,8.5,33,33,0,0,1-8.6,4.8l-3.4,1.1h0l-2.1.5A31.9,31.9,0,0,1,57.8,64.7ZM41.7,54.1a11.7,11.7,0,0,0,1.4,3.1c1.7,2.6,5,6.2,14.1,6.4a30.8,30.8,0,0,0,6.4-.5l2-.5h0l3.3-1.1a31.9,31.9,0,0,0,8.3-4.7C81.8,53.3,85,45,84.1,39.1h0c-1.5-9.6-8.2-16.5-17.5-17.9h-.2c-.1,0-5.1-2.9-8.1-3.3s-4.8,0-6.1,1.1a1.9,1.9,0,0,0-.7,1.4,1.5,1.5,0,0,0,.4,1.2,4.7,4.7,0,0,0,2.9,1,.5.5,0,0,1,0,1.1c-2,0-4.5.5-5.5,1.6a2.1,2.1,0,0,0-.4,1.8.5.5,0,0,1-.3.6,16.7,16.7,0,0,0-5.1,4.4c-3,3.9-3.6,8.4-1.8,13.4a.5.5,0,0,1,0,.3,16.5,16.5,0,0,0-.1,8.4h0Zm0,0h0Z" style="fill: #440203"/>
      <g>
        <path d="M74,44.3a12.8,12.8,0,0,1-.6,1.6h0a7,7,0,0,1,2.1.5,4.3,4.3,0,0,1,2.7,2.7l.2.6a7.5,7.5,0,0,1-.2,3.1v.5a12.1,12.1,0,0,1-2.6,4.4A17.2,17.2,0,0,1,69.1,62a20.2,20.2,0,0,1-3.4,1.1h0l-2.1.5a31.2,31.2,0,0,1-6.6.5c-8.7-.2-12.4-3.3-14.5-6.6a12.2,12.2,0,0,1-1.4-3.2h-.1l-.2-.8a10.9,10.9,0,0,1-.2-2.1,5.8,5.8,0,0,1,.2-1.4,2.6,2.6,0,0,1,3.1-2,15.9,15.9,0,0,1-1.6-6h0c0-.1,0-.1,0-.2a5.2,5.2,0,0,1,1.3-3.6c3.6-3.8,6.7.1,10.7,0s9.2-9.2,16.3-4.9a7.9,7.9,0,0,1,3.9,6.3A13.2,13.2,0,0,1,74,44.3Z" style="fill: #ffc669"/>
        <path d="M57.8,64.2h-.7c-9.4-.2-12.8-3.9-14.6-6.7a12.3,12.3,0,0,1-1.4-3.2h-.1l-.2-.8a10.8,10.8,0,0,1-.2-2.2,5.8,5.8,0,0,1,.2-1.4,2.7,2.7,0,0,1,3-2.1,15.9,15.9,0,0,1-1.6-5.9h0c0-.1,0-.1,0-.2a5.2,5.2,0,0,1,1.3-3.7c2.4-2.5,4.5-1.7,6.8-.9a10.6,10.6,0,0,0,3.9.9c1.4,0,2.9-1.2,4.6-2.5s7.1-5.2,11.7-2.4a7.9,7.9,0,0,1,3.9,6.3,13.3,13.3,0,0,1-.7,5.1h0a13.9,13.9,0,0,1-.6,1.5,7.2,7.2,0,0,1,2,.5,4.4,4.4,0,0,1,2.7,2.8l.2.7a7.6,7.6,0,0,1-.2,3.1l-.2.5a12.2,12.2,0,0,1-2.6,4.4,17.3,17.3,0,0,1-6.2,4.3,20.4,20.4,0,0,1-3.4,1.1h0l-2.1.5A31.4,31.4,0,0,1,57.8,64.2Zm-16.6-10a12.2,12.2,0,0,0,1.4,3.2c1.7,2.7,5.1,6.4,14.4,6.6a31.2,31.2,0,0,0,6.5-.5l2-.5h0A20.3,20.3,0,0,0,69.1,62a17.1,17.1,0,0,0,6.2-4.3,12.1,12.1,0,0,0,2.5-4.4v-.5a7.5,7.5,0,0,0,.2-3v-.6a4.2,4.2,0,0,0-2.6-2.7,7,7,0,0,0-2-.5h-.1a12.9,12.9,0,0,0,.6-1.6h0a13.1,13.1,0,0,0,.7-5.1A7.8,7.8,0,0,0,70.8,33c-4.5-2.8-8.3-.1-11.5,2.4-1.8,1.3-3.3,2.5-4.7,2.5a10.7,10.7,0,0,1-4-.9c-2.2-.8-4.4-1.6-6.7.9a5.1,5.1,0,0,0-1.3,3.6c0,.1,0,.1,0,.2h0a15.9,15.9,0,0,0,1.6,6h-.1a2.6,2.6,0,0,0-3,2,5.7,5.7,0,0,0-.2,1.4,10.7,10.7,0,0,0,.2,2.1l.2.8h.1Z" style="fill: #440203"/>
      </g>
      <g>
        <ellipse cx="49.7" cy="46.3" rx="2.4" ry="3.4" transform="translate(-9.7 13.4) rotate(-14)" style="fill: #440203"/>
        <ellipse cx="50.2" cy="45.6" rx="0.7" ry="1.2" transform="translate(-9.6 13.5) rotate(-14)" style="fill: #fff"/>
      </g>
      <path d="M67.8,41.3l-1.2.9-1,1-.4.5-.2.3h-.2a6.3,6.3,0,0,0-.5,1.3l-1.1-.7h.3l.3-.2.6-.3,1.3-.3H67l1.2.4a.2.2,0,0,1,.1.3H66.9l-1.1.2-1,.4h-.9a.7.7,0,0,1-1.1-.7,6.1,6.1,0,0,1,.7-1.6l.5-.7.6-.6,1.4-.9a5,5,0,0,1,1.6-.5.2.2,0,0,1,.1.4Z" style="fill: #440203"/>
      <g style="opacity: 0.2">
        <path d="M78.1,49.1l.2.6a7.5,7.5,0,0,1-.2,3.1v.5a12.1,12.1,0,0,1-2.6,4.4A17.2,17.2,0,0,1,69.1,62l-3.4,1.1h0l-2.1.5a31.2,31.2,0,0,1-6.6.5c-8.7-.2-12.4-3.3-14.5-6.6a12.2,12.2,0,0,1-1.4-3.2h-.1a14.7,14.7,0,0,1-.5-3.3l.2.3c2.2,4.9,6.3,13.5,24,9.6l1.1-.3h0c7.8-2.2,10.5-6.6,10.8-9.7a5.2,5.2,0,0,0-1.4-4.3A4.3,4.3,0,0,1,78.1,49.1Z" style="fill: #440203"/>
      </g>
      <g style="opacity: 0.2">
        <path d="M51.7,52.5s4.9,5.9,6.1,8.3a47.9,47.9,0,0,0-2.5-7.2S52.9,54.3,51.7,52.5Z" style="fill: #440203"/>
      </g>
      <g style="opacity: 0.6000000000000001">
        <path d="M42.5,41.7c.1,2,1.6,4.9,2.6,6.6a.5.5,0,0,1-.5.8,4.4,4.4,0,0,0-3.5.7,2.6,2.6,0,0,1,3.1-2A15.9,15.9,0,0,1,42.5,41.7Z" style="fill: #fff"/>
      </g>
      <g style="opacity: 0.6000000000000001">
        <path d="M74.7,39.2c-3.3-6.8-8.3-6.6-11-5.3-1.1.6-4,3-5.5,4a7.7,7.7,0,0,1-7.7.7c-5.5-3.1-8,.4-8,2.8a5.2,5.2,0,0,1,1.3-3.6c3.6-3.8,6.7.1,10.7,0s9.2-9.2,16.3-4.9A7.9,7.9,0,0,1,74.7,39.2Z" style="fill: #fff"/>
      </g>
      <path d="M57.8,64.7h-.7c-7.3-.2-12.1-2.4-15-6.9a12.8,12.8,0,0,1-1.5-3.4h0c-.2-.7-1-4.3.5-6.2a3,3,0,0,1,2.1-1.1c-.8-1.9-2.5-6.9.1-9.7s5-1.9,7.3-1a10.3,10.3,0,0,0,3.8.8c1.2,0,2.8-1.2,4.4-2.4,3.3-2.4,7.3-5.4,12.2-2.4a8.7,8.7,0,0,1,4.1,8.6,15.4,15.4,0,0,1-1.1,4.4c1.3.2,3.7,1,4.5,3.5a9.1,9.1,0,0,1-1.3,7,16.4,16.4,0,0,1-8,6.6,20.9,20.9,0,0,1-3.5,1.1h0l-2.1.5A31.9,31.9,0,0,1,57.8,64.7ZM41.7,54.1a11.7,11.7,0,0,0,1.4,3.1c1.7,2.6,5,6.2,14.1,6.4a30.8,30.8,0,0,0,6.4-.5l2-.5h0a19.8,19.8,0,0,0,3.3-1c7.5-3.2,9.6-9.2,8.7-12.3s-4.2-2.8-4.2-2.8a.5.5,0,0,1-.5-.8A14.4,14.4,0,0,0,74.1,41a7.5,7.5,0,0,0-3.6-7.6c-4.3-2.6-7.8,0-11,2.3s-3.4,2.5-5,2.6a11.2,11.2,0,0,1-4.2-.9c-2.3-.8-4.1-1.5-6.2.7s.4,9.1.4,9.2a.5.5,0,0,1-.5.8,2.2,2.2,0,0,0-2,.7c-1.3,1.5-.3,5.1-.3,5.2h0Zm24,9h0Zm-24-9h0Z" style="fill: #440203"/>
      <path d="M92,38.5a7.9,7.9,0,0,1,.4,1.6h0a8.1,8.1,0,0,1-12.8,7.5l-1-.9h0V44.4l.2-7.1v-2h0l.6-.5h0A8.1,8.1,0,0,1,92,38.5Z" style="fill: #b0401e"/>
      <g style="opacity: 0.6000000000000001">
        <path d="M92.1,38.3a7.9,7.9,0,0,1,.4,1.6,8.9,8.9,0,0,0-7.1-5.4c-3.4-.5-5.5,1.7-6.5,2.7s-.6.5-.8.2.3-1.6.9-2.2l.6-.6h0a8.1,8.1,0,0,1,12.5,3.7Z" style="fill: #fff"/>
      </g>
      <g style="opacity: 0.2">
        <path d="M92,38.5a8.1,8.1,0,0,1-12.4,9.2h0l-1-.9c-.7-.7-1.4-1.7-.7-2.3s.5-.2.8,0,3.9,4,8.1,2.1S91.3,41.4,92,38.5Z" style="fill: #440203"/>
      </g>
      <path d="M78.8,35.2a4.5,4.5,0,0,1,1.8-1.7,7.4,7.4,0,0,1,2.4-.8,10.5,10.5,0,0,1,2.5,0,8.6,8.6,0,0,1,4.6,2l.9.9.2.2h.2l.4.5a9.2,9.2,0,0,1,1,2.3,8.6,8.6,0,0,1-.1,5,9.2,9.2,0,0,1-1.1,2.3l-.4.5h-.2l-.2.2-.9.9a8.6,8.6,0,0,1-4.7,1.8,9.5,9.5,0,0,1-2.5-.2l-.6-.2H80.7l-.6-.3-.5-.3h-.2l-.2-.2-.2-.2-.2-.3-.3-.6a.2.2,0,0,1,.1-.3h.1l1.1.5.5.3.5.3.5.3h1.6l2.2.2a8.3,8.3,0,0,0,2.2-.5A8.2,8.2,0,0,0,89,47.2l.8-.7.2-.2h.2l.3-.4a8.1,8.1,0,0,0,1-2,7.5,7.5,0,0,0,.1-4.4,8.1,8.1,0,0,0-.9-2l-.3-.5h-.2l-.2-.2-.8-.8a8.2,8.2,0,0,0-1.9-1.2,8.3,8.3,0,0,0-2.1-.6,7.5,7.5,0,0,0-2.2.1H81.6l-.5.2-2.1,1h-.3A.2.2,0,0,1,78.8,35.2Z" style="fill: #440203"/>
      <g>
        <circle cx="84.9" cy="41.4" r="3.7" transform="translate(-9.4 47.3) rotate(-29.6)" style="fill: #fe914a"/>
        <path d="M84.9,45.1h-1a3.7,3.7,0,1,1,1,.1Zm0-7.4a3.6,3.6,0,1,0,1,.1Z" style="fill: #440203"/>
      </g>
      <path d="M84.9,45.6l-1.1-.2a4.2,4.2,0,1,1,1.1.2Zm0-7.4a3.1,3.1,0,1,0,2.7,1.6A3.1,3.1,0,0,0,84.9,38.2Z" style="fill: #440203"/>
      <path d="M48.9,27h0v.2l.2.3.6.4a3,3,0,0,0,1.8-.1h.5l.5-.2.9-.5a7.8,7.8,0,0,1,2-.8h0l.2.2a.2.2,0,0,1,0,.1A4.7,4.7,0,0,1,54,28.2l-1,.5-.5.2H52l-1.2.2-1.3-.2a2.5,2.5,0,0,1-1.1-.8l-.4-.6v-.5h0a.5.5,0,1,1,1.1-.2Z" style="fill: #440203"/>
      <path d="M56.8,50.9s-2.8-.3-2.3-1.6,2.2.7,2.2.7,1.7-2.2,2.3-.9S56.8,50.9,56.8,50.9Z" style="fill: #440203"/>
      <path d="M63.9,49a2,2,0,0,1,.2.7,2.7,2.7,0,0,1,0,.7,3,3,0,0,1-.2.7l-.3.7a4,4,0,0,1-1,1.1,3.7,3.7,0,0,1-1.4.6H59.7l-1.4-.5a4.8,4.8,0,0,1-1.2-.9l-.2-.3-.2-.3-.2-.3-.2-.3,1-.2v1.3a3.7,3.7,0,0,1-.6,1.2,2.9,2.9,0,0,1-1.1.9l-1.3.3a3,3,0,0,1-1.3-.2,2.8,2.8,0,0,1-1.1-.8,3.2,3.2,0,0,1-.6-1.1,3.2,3.2,0,0,1-.1-1.2h.2a5.2,5.2,0,0,0,1.3,1.6,2.7,2.7,0,0,0,1.7.6H55l.6-.5a2.6,2.6,0,0,0,.4-.8v-.7h0a.6.6,0,0,1,1-.2v.2l.2.2.2.2.2.2.9.7,1,.3h1.1a2.9,2.9,0,0,0,1.7-1.2l.5-1,.6-1.1h.2Z" style="fill: #440203"/>
      <path d="M63.7,50.2a13.5,13.5,0,0,1,.8,4.9c-.2,4.7-4.1,5.7-5.2,5.5a2.5,2.5,0,0,1-1.3-.7A6.1,6.1,0,0,1,56.7,57a15.2,15.2,0,0,0-1.4-3.4c1.5-.7,1.5-2.7,1.5-2.7a4,4,0,0,0,4,2.2A3.6,3.6,0,0,0,63.7,50.2Z" style="fill: #440203"/>
      <g>
        <path d="M64.4,55.1c-.2,4.7-4.1,5.7-5.2,5.5a2.5,2.5,0,0,1-1.3-.7,4.7,4.7,0,0,1,2.5-4.3A4.9,4.9,0,0,1,64.4,55.1Z" style="fill: #fe3a65"/>
        <path d="M59.6,60.7h-.4a2.6,2.6,0,0,1-1.3-.7h0a4.7,4.7,0,0,1,2.5-4.4,5,5,0,0,1,4.1-.4h0a5.8,5.8,0,0,1-2.2,4.6A4.8,4.8,0,0,1,59.6,60.7ZM58,59.8a2.4,2.4,0,0,0,1.2.7,4.1,4.1,0,0,0,3-.9,5.7,5.7,0,0,0,2.2-4.4,4.8,4.8,0,0,0-3.9.5A4.6,4.6,0,0,0,58,59.8Z" style="fill: #440203"/>
      </g>
      <path d="M59.6,61.1h-.5a3,3,0,0,1-1.5-.9,6.5,6.5,0,0,1-1.4-3.1,14.5,14.5,0,0,0-1.4-3.2.5.5,0,0,1,0-.4l.3-.3c1.1-.6,1.2-2.2,1.2-2.3a.5.5,0,0,1,1-.2,3.4,3.4,0,0,0,3.4,1.9A3.1,3.1,0,0,0,63.1,50a.5.5,0,0,1,1,0,14.2,14.2,0,0,1,.8,5.1,6.3,6.3,0,0,1-2.4,5A5.2,5.2,0,0,1,59.6,61.1ZM56,53.8a14.1,14.1,0,0,1,1.2,3,5.6,5.6,0,0,0,1.1,2.6,1.9,1.9,0,0,0,1,.6,3.7,3.7,0,0,0,2.6-.8,5.2,5.2,0,0,0,2-4.1,11.5,11.5,0,0,0-.3-3.2,3.8,3.8,0,0,1-2.7,1.8,4.2,4.2,0,0,1-3.8-1.3A3.3,3.3,0,0,1,56,53.8Z" style="fill: #440203"/>
    </g>
  </g>
</svg>
