<svg id="Layer_1" data-name="Layer 1" xmlns="http://www.w3.org/2000/svg" xmlns:xlink="http://www.w3.org/1999/xlink" viewBox="0 0 240 120">
  <defs>
    <clipPath id="clip-path">
      <path d="M45.7,97.4c26.1-4.6,29.7,13.5,46.2,10.6s16.8-21.2,16.8-21.2-6.5-17.1-23.1-14.1S71.7,92.8,45.7,97.4Z" style="fill: none"/>
    </clipPath>
  </defs>
  <title>Container1</title>
  <g>
    <g>
      <g>
        <g style="clip-path: url(#clip-path)">
          <polygon points="45.7 97.4 48.7 108.9 44.8 108.6 45.7 97.4" style="fill: #ec1c24"/>
          <polygon points="45.8 96.3 49.1 108.9 48.7 108.9 45.7 97.4 45.8 96.3" style="fill: #ec1c24"/>
          <polygon points="45.9 95.1 49.5 108.9 49.1 108.9 45.8 96.3 45.9 95.1" style="fill: #ec1c24"/>
          <polygon points="45.9 94 49.8 109 49.5 108.9 45.9 95.1 45.9 94" style="fill: #ec1c24"/>
          <polygon points="46 92.9 50.2 109 49.8 109 45.9 94 46 92.9" style="fill: #ec1c24"/>
          <polygon points="46.1 91.8 50.6 109 50.2 109 46 92.9 46.1 91.8" style="fill: #ec1c24"/>
          <polygon points="46.2 90.6 51 109.1 50.6 109 46.1 91.8 46.2 90.6" style="fill: #ec1c24"/>
          <polygon points="46.3 89.5 51.4 109.1 51 109.1 46.2 90.6 46.3 89.5" style="fill: #ec1d24"/>
          <polygon points="46.4 88.4 51.8 109.1 51.4 109.1 46.3 89.5 46.4 88.4" style="fill: #ec1d24"/>
          <polygon points="46.5 87.3 52.2 109.2 51.8 109.1 46.4 88.4 46.5 87.3" style="fill: #ec1d24"/>
          <polygon points="46.5 86.1 52.5 109.2 52.2 109.2 46.5 87.3 46.5 86.1" style="fill: #ec1d24"/>
          <polygon points="46.6 85 52.9 109.2 52.5 109.2 46.5 86.1 46.6 85" style="fill: #ec1d24"/>
          <polygon points="46.7 83.9 53.3 109.2 52.9 109.2 46.6 85 46.7 83.9" style="fill: #ec1e24"/>
          <polygon points="46.8 82.8 53.7 109.3 53.3 109.2 46.7 83.9 46.8 82.8" style="fill: #ec1e24"/>
          <polygon points="46.9 81.6 54.1 109.3 53.7 109.3 46.8 82.8 46.9 81.6" style="fill: #ec1e24"/>
          <polygon points="47 80.6 47 80.6 54.5 109.3 54.1 109.3 46.9 81.6 47 80.6" style="fill: #ec1f24"/>
          <polygon points="47 80.6 47.3 80.5 54.9 109.4 54.5 109.3 47 80.6" style="fill: #ec1f24"/>
          <polygon points="47.3 80.5 47.7 80.4 55.2 109.4 54.9 109.4 47.3 80.5" style="fill: #ec1f24"/>
          <polygon points="47.7 80.4 48 80.3 55.6 109.4 55.2 109.4 47.7 80.4" style="fill: #ec2024"/>
          <polygon points="48 80.3 48.4 80.2 56 109.4 55.6 109.4 48 80.3" style="fill: #ec2024"/>
          <polygon points="48.4 80.2 48.8 80.1 56.4 109.5 56 109.4 48.4 80.2" style="fill: #ec2024"/>
          <polygon points="48.8 80.1 49.1 80 56.8 109.5 56.4 109.5 48.8 80.1" style="fill: #ed2124"/>
          <polygon points="49.1 80 49.5 79.9 57.2 109.5 56.8 109.5 49.1 80" style="fill: #ed2124"/>
          <polygon points="49.5 79.9 49.8 79.8 57.6 109.6 57.2 109.5 49.5 79.9" style="fill: #ed2124"/>
          <polygon points="49.8 79.8 50.2 79.7 57.9 109.6 57.6 109.6 49.8 79.8" style="fill: #ed2224"/>
          <polygon points="50.2 79.7 50.5 79.6 58.3 109.6 57.9 109.6 50.2 79.7" style="fill: #ed2224"/>
          <polygon points="50.5 79.6 50.9 79.5 58.7 109.6 58.3 109.6 50.5 79.6" style="fill: #ed2324"/>
          <polygon points="50.9 79.5 51.2 79.5 59.1 109.7 58.7 109.6 50.9 79.5" style="fill: #ed2324"/>
          <polygon points="51.2 79.5 51.6 79.4 59.5 109.7 59.1 109.7 51.2 79.5" style="fill: #ed2424"/>
          <polygon points="51.6 79.4 51.9 79.3 59.9 109.7 59.5 109.7 51.6 79.4" style="fill: #ed2424"/>
          <polygon points="51.9 79.3 52.3 79.2 60.3 109.8 59.9 109.7 51.9 79.3" style="fill: #ed2524"/>
          <polygon points="52.3 79.2 52.7 79.1 60.6 109.8 60.3 109.8 52.3 79.2" style="fill: #ed2524"/>
          <polygon points="52.7 79.1 53 79 61 109.8 60.6 109.8 52.7 79.1" style="fill: #ed2624"/>
          <polygon points="53 79 53.4 78.9 61.4 109.9 61 109.8 53 79" style="fill: #ed2624"/>
          <polygon points="53.4 78.9 53.7 78.8 61.8 109.9 61.4 109.9 53.4 78.9" style="fill: #ed2724"/>
          <polygon points="53.7 78.8 54.1 78.7 62.2 109.9 61.8 109.9 53.7 78.8" style="fill: #ed2724"/>
          <polygon points="54.1 78.7 54.4 78.6 62.6 109.9 62.2 109.9 54.1 78.7" style="fill: #ed2824"/>
          <polygon points="54.4 78.6 54.8 78.5 63 110 62.6 109.9 54.4 78.6" style="fill: #ed2824"/>
          <polygon points="54.8 78.5 55.1 78.4 63.3 110 63 110 54.8 78.5" style="fill: #ed2924"/>
          <polygon points="55.1 78.4 55.5 78.3 63.7 110 63.3 110 55.1 78.4" style="fill: #ed2a24"/>
          <polygon points="55.5 78.3 55.8 78.3 64.1 110.1 63.7 110 55.5 78.3" style="fill: #ee2a24"/>
          <polygon points="55.8 78.3 56.2 78.2 64.5 110.1 64.1 110.1 55.8 78.3" style="fill: #ee2b24"/>
          <polygon points="56.2 78.2 56.5 78.1 64.9 110.1 64.5 110.1 56.2 78.2" style="fill: #ee2b24"/>
          <polygon points="56.5 78.1 56.9 78 65.3 110.1 64.9 110.1 56.5 78.1" style="fill: #ee2c24"/>
          <polygon points="56.9 78 57.3 77.9 65.7 110.2 65.3 110.1 56.9 78" style="fill: #ee2d24"/>
          <polygon points="57.3 77.9 57.6 77.8 66 110.2 65.7 110.2 57.3 77.9" style="fill: #ee2d24"/>
          <polygon points="57.6 77.8 58 77.7 66.4 110.2 66 110.2 57.6 77.8" style="fill: #ee2e24"/>
          <polygon points="58 77.7 58.3 77.6 66.8 110.3 66.4 110.2 58 77.7" style="fill: #ee2f24"/>
          <polygon points="58.3 77.6 58.7 77.5 67.2 110.3 66.8 110.3 58.3 77.6" style="fill: #ee2f24"/>
          <polygon points="58.7 77.5 59 77.4 67.6 110.3 67.2 110.3 58.7 77.5" style="fill: #ee3024"/>
          <polygon points="59 77.4 59.4 77.3 68 110.4 67.6 110.3 59 77.4" style="fill: #ee3124"/>
          <polygon points="59.4 77.3 59.7 77.2 68.4 110.4 68 110.4 59.4 77.3" style="fill: #ee3224"/>
          <polygon points="59.7 77.2 60.1 77.2 68.7 110.4 68.4 110.4 59.7 77.2" style="fill: #ee3225"/>
          <polygon points="60.1 77.2 60.4 77.1 69.1 110.4 68.7 110.4 60.1 77.2" style="fill: #ef3325"/>
          <polygon points="60.4 77.1 60.8 77 69.5 110.5 69.1 110.4 60.4 77.1" style="fill: #ef3425"/>
          <polygon points="60.8 77 61.2 76.9 69.9 110.5 69.5 110.5 60.8 77" style="fill: #ef3525"/>
          <polygon points="61.2 76.9 61.5 76.8 70.3 110.5 69.9 110.5 61.2 76.9" style="fill: #ef3525"/>
          <polygon points="61.5 76.8 61.9 76.7 70.7 110.6 70.3 110.5 61.5 76.8" style="fill: #ef3625"/>
          <polygon points="61.9 76.7 62.2 76.6 71.1 110.6 70.7 110.6 61.9 76.7" style="fill: #ef3725"/>
          <polygon points="62.2 76.6 62.6 76.5 71.4 110.6 71.1 110.6 62.2 76.6" style="fill: #ef3825"/>
          <polygon points="62.6 76.5 62.9 76.4 71.8 110.6 71.4 110.6 62.6 76.5" style="fill: #ef3925"/>
          <polygon points="62.9 76.4 63.3 76.3 72.2 110.7 71.8 110.6 62.9 76.4" style="fill: #ef3925"/>
          <polygon points="63.3 76.3 63.6 76.2 72.6 110.7 72.2 110.7 63.3 76.3" style="fill: #ef3a25"/>
          <polygon points="63.6 76.2 64 76.1 73 110.7 72.6 110.7 63.6 76.2" style="fill: #ef3b25"/>
          <polygon points="64 76.1 64.3 76 73.4 110.8 73 110.7 64 76.1" style="fill: #ef3c25"/>
          <polygon points="64.3 76 64.7 76 73.8 110.8 73.4 110.8 64.3 76" style="fill: #f03d25"/>
          <polygon points="64.7 76 65.1 75.9 74.1 110.8 73.8 110.8 64.7 76" style="fill: #f03e25"/>
          <polygon points="65.1 75.9 65.4 75.8 74.5 110.9 74.1 110.8 65.1 75.9" style="fill: #f03e25"/>
          <polygon points="65.4 75.8 65.8 75.7 74.9 110.9 74.5 110.9 65.4 75.8" style="fill: #f03f25"/>
          <polygon points="65.8 75.7 66.1 75.6 75.3 110.9 74.9 110.9 65.8 75.7" style="fill: #f04025"/>
          <polygon points="66.1 75.6 66.5 75.5 75.7 110.9 75.3 110.9 66.1 75.6" style="fill: #f04125"/>
          <polygon points="66.5 75.5 66.8 75.4 76.1 111 75.7 110.9 66.5 75.5" style="fill: #f04225"/>
          <polygon points="66.8 75.4 67.2 75.3 76.5 111 76.1 111 66.8 75.4" style="fill: #f04325"/>
          <polygon points="67.2 75.3 67.5 75.2 76.8 111 76.5 111 67.2 75.3" style="fill: #f04425"/>
          <polygon points="67.5 75.2 67.9 75.1 77.2 111.1 76.8 111 67.5 75.2" style="fill: #f04525"/>
          <polygon points="67.9 75.1 68.2 75 77.6 111.1 77.2 111.1 67.9 75.1" style="fill: #f14625"/>
          <polygon points="68.2 75 68.6 74.9 78 111.1 77.6 111.1 68.2 75" style="fill: #f14725"/>
          <polygon points="68.6 74.9 69 74.8 78.4 111.1 78 111.1 68.6 74.9" style="fill: #f14825"/>
          <polygon points="69 74.8 69.3 74.8 78.8 111.2 78.4 111.1 69 74.8" style="fill: #f14925"/>
          <polygon points="69.3 74.8 69.7 74.7 79.2 111.2 78.8 111.2 69.3 74.8" style="fill: #f14a25"/>
          <polygon points="69.7 74.7 70 74.6 79.6 111.2 79.2 111.2 69.7 74.7" style="fill: #f14b25"/>
          <polygon points="70 74.6 70.4 74.5 79.9 111.3 79.6 111.2 70 74.6" style="fill: #f14c25"/>
          <polygon points="70.4 74.5 70.7 74.4 80.3 111.3 79.9 111.3 70.4 74.5" style="fill: #f14d25"/>
          <polygon points="70.7 74.4 71.1 74.3 80.7 111.3 80.3 111.3 70.7 74.4" style="fill: #f14e25"/>
          <polygon points="71.1 74.3 71.4 74.2 81.1 111.4 80.7 111.3 71.1 74.3" style="fill: #f24f25"/>
          <polygon points="71.4 74.2 71.8 74.1 81.5 111.4 81.1 111.4 71.4 74.2" style="fill: #f25025"/>
          <polygon points="71.8 74.1 72.1 74 81.9 111.4 81.5 111.4 71.8 74.1" style="fill: #f25125"/>
          <polygon points="72.1 74 72.5 73.9 82.3 111.4 81.9 111.4 72.1 74" style="fill: #f25225"/>
          <polygon points="72.5 73.9 72.8 73.8 82.6 111.5 82.3 111.4 72.5 73.9" style="fill: #f25325"/>
          <polygon points="72.8 73.8 73.2 73.7 83 111.5 82.6 111.5 72.8 73.8" style="fill: #f25425"/>
          <polygon points="73.2 73.7 73.6 73.6 83.4 111.5 83 111.5 73.2 73.7" style="fill: #f25525"/>
          <polygon points="73.6 73.6 73.9 73.6 83.8 111.6 83.4 111.5 73.6 73.6" style="fill: #f25625"/>
          <polygon points="73.9 73.6 74.3 73.5 84.2 111.6 83.8 111.6 73.9 73.6" style="fill: #f25725"/>
          <polygon points="74.3 73.5 74.6 73.4 84.6 111.6 84.2 111.6 74.3 73.5" style="fill: #f35825"/>
          <polygon points="74.6 73.4 75 73.3 85 111.6 84.6 111.6 74.6 73.4" style="fill: #f35925"/>
          <polygon points="75 73.3 75.3 73.2 85.3 111.7 85 111.6 75 73.3" style="fill: #f35a25"/>
          <polygon points="75.3 73.2 75.7 73.1 85.7 111.7 85.3 111.7 75.3 73.2" style="fill: #f35c25"/>
          <polygon points="75.7 73.1 76 73 86.1 111.7 85.9 111.7 85.7 111.7 75.7 73.1" style="fill: #f35d25"/>
          <rect x="81.1" y="72.3" width="0.4" height="39.96" transform="translate(-20.6 23.4) rotate(-14.6)" style="fill: #f35e26"/>
          <rect x="81.4" y="72.2" width="0.4" height="39.96" transform="translate(-20.6 23.5) rotate(-14.6)" style="fill: #f35f26"/>
          <rect x="81.8" y="72.1" width="0.4" height="39.96" transform="translate(-20.6 23.6) rotate(-14.6)" style="fill: #f36026"/>
          <rect x="82.1" y="72" width="0.4" height="39.96" transform="matrix(0.97, -0.25, 0.25, 0.97, -20.52, 23.69)" style="fill: #f46126"/>
          <rect x="82.5" y="71.9" width="0.4" height="39.96" transform="translate(-20.5 23.8) rotate(-14.6)" style="fill: #f46226"/>
          <rect x="82.8" y="71.9" width="0.4" height="39.96" transform="translate(-20.4 23.9) rotate(-14.6)" style="fill: #f46426"/>
          <rect x="83.2" y="71.8" width="0.4" height="39.96" transform="translate(-20.4 23.9) rotate(-14.6)" style="fill: #f46526"/>
          <rect x="83.5" y="71.7" width="0.4" height="39.96" transform="translate(-20.4 24) rotate(-14.6)" style="fill: #f46626"/>
          <rect x="83.9" y="71.6" width="0.4" height="39.96" transform="translate(-20.3 24.1) rotate(-14.6)" style="fill: #f46726"/>
          <rect x="84.2" y="71.5" width="0.4" height="39.96" transform="translate(-20.3 24.2) rotate(-14.6)" style="fill: #f46826"/>
          <rect x="84.6" y="71.4" width="0.4" height="39.96" transform="translate(-20.3 24.3) rotate(-14.6)" style="fill: #f46a26"/>
          <rect x="85" y="71.3" width="0.4" height="39.96" transform="matrix(0.97, -0.25, 0.25, 0.97, -20.24, 24.38)" style="fill: #f56b26"/>
          <rect x="85.3" y="71.2" width="0.4" height="39.96" transform="translate(-20.2 24.5) rotate(-14.6)" style="fill: #f56c26"/>
          <rect x="85.7" y="71.1" width="0.4" height="39.96" transform="translate(-20.2 24.5) rotate(-14.6)" style="fill: #f56d26"/>
          <rect x="86" y="71" width="0.4" height="39.96" transform="matrix(0.97, -0.25, 0.25, 0.97, -20.14, 24.64)" style="fill: #f56f26"/>
          <rect x="86.4" y="70.9" width="0.4" height="39.96" transform="translate(-20.1 24.7) rotate(-14.6)" style="fill: #f57026"/>
          <rect x="86.7" y="70.8" width="0.4" height="39.96" transform="translate(-20.1 24.8) rotate(-14.6)" style="fill: #f57126"/>
          <rect x="87.1" y="70.7" width="0.4" height="39.96" transform="translate(-20 24.9) rotate(-14.6)" style="fill: #f57226"/>
          <rect x="87.4" y="70.7" width="0.4" height="39.96" transform="translate(-20 25) rotate(-14.6)" style="fill: #f67426"/>
          <rect x="87.8" y="70.6" width="0.4" height="39.96" transform="translate(-20 25.1) rotate(-14.6)" style="fill: #f67526"/>
          <rect x="88.1" y="70.5" width="0.4" height="39.96" transform="translate(-19.9 25.2) rotate(-14.6)" style="fill: #f67626"/>
          <rect x="88.5" y="70.4" width="0.4" height="39.96" transform="translate(-19.9 25.2) rotate(-14.6)" style="fill: #f67726"/>
          <rect x="88.9" y="70.3" width="0.4" height="39.96" transform="translate(-19.9 25.3) rotate(-14.6)" style="fill: #f67926"/>
          <rect x="89.2" y="70.2" width="0.4" height="39.96" transform="translate(-19.8 25.4) rotate(-14.6)" style="fill: #f67a26"/>
          <rect x="89.6" y="70.1" width="0.4" height="39.96" transform="translate(-19.8 25.5) rotate(-14.6)" style="fill: #f67b26"/>
          <rect x="89.9" y="70" width="0.4" height="39.96" transform="translate(-19.8 25.6) rotate(-14.6)" style="fill: #f77d26"/>
          <rect x="90.3" y="69.9" width="0.4" height="39.96" transform="translate(-19.7 25.7) rotate(-14.6)" style="fill: #f77e26"/>
          <rect x="90.6" y="69.8" width="0.4" height="39.96" transform="translate(-19.7 25.8) rotate(-14.6)" style="fill: #f77f26"/>
          <rect x="91" y="69.7" width="0.4" height="39.96" transform="translate(-19.7 25.8) rotate(-14.6)" style="fill: #f78126"/>
          <rect x="91.3" y="69.6" width="0.4" height="39.96" transform="translate(-19.6 25.9) rotate(-14.6)" style="fill: #f78226"/>
          <rect x="91.7" y="69.5" width="0.4" height="39.96" transform="matrix(0.97, -0.25, 0.25, 0.97, -19.58, 26.02)" style="fill: #f78426"/>
          <rect x="92" y="69.5" width="0.4" height="39.96" transform="translate(-19.5 26.1) rotate(-14.6)" style="fill: #f78526"/>
          <rect x="92.4" y="69.4" width="0.4" height="39.96" transform="translate(-19.5 26.2) rotate(-14.6)" style="fill: #f88626"/>
          <rect x="92.8" y="69.3" width="0.4" height="39.96" transform="translate(-19.5 26.3) rotate(-14.6)" style="fill: #f88826"/>
          <rect x="93.1" y="69.2" width="0.4" height="39.96" transform="translate(-19.4 26.4) rotate(-14.6)" style="fill: #f88927"/>
          <rect x="93.5" y="69.1" width="0.4" height="39.96" transform="translate(-19.4 26.4) rotate(-14.6)" style="fill: #f88a27"/>
          <rect x="93.8" y="69" width="0.4" height="39.96" transform="translate(-19.4 26.5) rotate(-14.6)" style="fill: #f88c27"/>
          <rect x="94.2" y="68.9" width="0.4" height="39.96" transform="translate(-19.3 26.6) rotate(-14.6)" style="fill: #f88d27"/>
          <rect x="94.5" y="68.8" width="0.4" height="39.96" transform="matrix(0.97, -0.25, 0.25, 0.97, -19.31, 26.71)" style="fill: #f98f27"/>
          <rect x="94.9" y="68.7" width="0.4" height="39.96" transform="translate(-19.3 26.8) rotate(-14.6)" style="fill: #f99027"/>
          <rect x="95.2" y="68.6" width="0.4" height="39.96" transform="matrix(0.97, -0.25, 0.25, 0.97, -19.24, 26.88)" style="fill: #f99227"/>
          <rect x="95.6" y="68.5" width="0.4" height="39.96" transform="translate(-19.2 27) rotate(-14.6)" style="fill: #f99327"/>
          <rect x="95.9" y="68.4" width="0.4" height="39.96" transform="translate(-19.2 27.1) rotate(-14.6)" style="fill: #f99427"/>
          <rect x="96.3" y="68.4" width="0.4" height="39.96" transform="translate(-19.1 27.1) rotate(-14.6)" style="fill: #f99627"/>
          <polygon points="91.6 68.9 91.7 68.9 92 69 102 107.5 101.7 107.6 91.6 68.9" style="fill: #f99727"/>
          <polygon points="92.4 69 102.4 107.4 102 107.5 92 69 92.4 69" style="fill: #fa9927"/>
          <polygon points="92.8 69 102.7 107.3 102.4 107.4 92.4 69 92.8 69" style="fill: #fa9a27"/>
          <polygon points="93.2 69 103.1 107.3 102.7 107.3 92.8 69 93.2 69" style="fill: #fa9c27"/>
          <polygon points="93.5 69.1 103.5 107.2 103.1 107.3 93.2 69 93.5 69.1" style="fill: #fa9d27"/>
          <polygon points="93.9 69.1 103.8 107.1 103.5 107.2 93.5 69.1 93.9 69.1" style="fill: #fa9f27"/>
          <polygon points="94.3 69.1 104.2 107 103.8 107.1 93.9 69.1 94.3 69.1" style="fill: #faa027"/>
          <polygon points="94.7 69.2 104.5 106.9 104.2 107 94.3 69.1 94.7 69.2" style="fill: #fba227"/>
          <polygon points="95.1 69.2 104.9 106.8 104.5 106.9 94.7 69.2 95.1 69.2" style="fill: #fba327"/>
          <polygon points="95.5 69.2 105.2 106.7 104.9 106.8 95.1 69.2 95.5 69.2" style="fill: #fba527"/>
          <polygon points="95.9 69.3 105.6 106.6 105.2 106.7 95.5 69.2 95.9 69.3" style="fill: #fba627"/>
          <polygon points="96.3 69.3 105.9 106.5 105.6 106.6 95.9 69.3 96.3 69.3" style="fill: #fba827"/>
          <polygon points="96.6 69.3 106.3 106.4 105.9 106.5 96.3 69.3 96.6 69.3" style="fill: #fbaa27"/>
          <polygon points="97 69.3 106.6 106.3 106.3 106.4 96.6 69.3 97 69.3" style="fill: #fcab27"/>
          <polygon points="97.4 69.4 107 106.2 106.6 106.3 97 69.3 97.4 69.4" style="fill: #fcad27"/>
          <polygon points="97.8 69.4 107.4 106.1 107 106.2 97.4 69.4 97.8 69.4" style="fill: #fcae27"/>
          <polygon points="98.2 69.4 107.7 106.1 107.4 106.1 97.8 69.4 98.2 69.4" style="fill: #fcb027"/>
          <polygon points="98.6 69.5 108.1 106 107.7 106.1 98.2 69.4 98.6 69.5" style="fill: #fcb127"/>
          <polygon points="99 69.5 108.4 105.8 108.4 105.9 108.1 106 98.6 69.5 99 69.5" style="fill: #fcb327"/>
          <polygon points="99.3 69.5 108.5 104.7 108.4 105.8 99 69.5 99.3 69.5" style="fill: #fdb528"/>
          <polygon points="99.7 69.5 108.6 103.6 108.5 104.7 99.3 69.5 99.7 69.5" style="fill: #fdb628"/>
          <polygon points="100.1 69.6 108.7 102.4 108.6 103.6 99.7 69.5 100.1 69.6" style="fill: #fdb828"/>
          <polygon points="100.5 69.6 108.7 101.3 108.7 102.4 100.1 69.6 100.5 69.6" style="fill: #fdb928"/>
          <polygon points="100.9 69.6 108.8 100.2 108.7 101.3 100.5 69.6 100.9 69.6" style="fill: #fdbb28"/>
          <polygon points="101.3 69.7 108.9 99.1 108.8 100.2 100.9 69.6 101.3 69.7" style="fill: #febd28"/>
          <polygon points="101.7 69.7 109 97.9 108.9 99.1 101.3 69.7 101.7 69.7" style="fill: #febe28"/>
          <polygon points="102 69.7 109.1 96.8 109 97.9 101.7 69.7 102 69.7" style="fill: #fec028"/>
          <polygon points="102.4 69.8 109.2 95.7 109.1 96.8 102 69.7 102.4 69.8" style="fill: #fec228"/>
          <polygon points="102.8 69.8 109.3 94.6 109.2 95.7 102.4 69.8 102.8 69.8" style="fill: #fec328"/>
          <polygon points="103.2 69.8 109.3 93.4 109.3 94.6 102.8 69.8 103.2 69.8" style="fill: #fec528"/>
          <polygon points="103.6 69.8 109.4 92.3 109.3 93.4 103.2 69.8 103.6 69.8" style="fill: #ffc728"/>
          <polygon points="104 69.9 109.5 91.2 109.4 92.3 103.6 69.8 104 69.9" style="fill: #ffc828"/>
          <polygon points="104.4 69.9 109.6 90.1 109.5 91.2 104 69.9 104.4 69.9" style="fill: #ffca28"/>
          <polygon points="109.6 90.1 104.4 69.9 111.1 70.4 109.6 90.1" style="fill: #ffca28"/>
        </g>
        <path d="M87,108.5c-4.9-.4-8.7-2.6-12.7-5-6.7-3.9-14.2-8.4-28.6-5.9a.3.3,0,0,1-.3-.2h0a.3.3,0,0,1,.2-.3c14.4-2.6,20-9,25-14.7s7.6-8.7,15-10.1c16.6-2.9,23.3,14.1,23.4,14.3h0c0,.2-.5,18.5-17,21.5A19.6,19.6,0,0,1,87,108.5ZM56.6,96.5c8,.6,13.2,3.7,18,6.6s10.1,6,17.3,4.7c15.7-2.8,16.5-19.8,16.6-20.9s-7.1-16.7-22.7-13.9C78.5,74.2,75,78.2,71,82.8S61.8,93.4,51.1,96.4A38.9,38.9,0,0,1,56.6,96.5Z" style="fill: #390075"/>
      </g>
      <g style="opacity: 0.5">
        <path d="M57.4,96.8c13.2-6.9,14.2-18.3,27.4-20.6,16.5-2.9,23.1,14.1,23.1,14.1a24.5,24.5,0,0,1-.5,4.1,27.4,27.4,0,0,0,1.5-7.6s-6.5-17.1-23.1-14.1-13.9,20.1-40,24.7A42.4,42.4,0,0,1,57.4,96.8Z" style="fill: #fff"/>
      </g>
      <path d="M66.2,94.1c15.2-2.7,22.2,9,31.8,7.3s9.4-14.7,9.4-14.7-4.2-12.2-13.8-10.5S81.4,91.4,66.2,94.1Z" style="fill: #ffd553"/>
      <g style="opacity: 0.30000000000000004">
        <path d="M105.8,97.8a18.8,18.8,0,0,1-10.1,5C82,105.2,77.2,93.2,61.2,91.6a40.3,40.3,0,0,1-15.5,5.8c26.1-4.6,29.7,13.5,46.2,10.6A18.7,18.7,0,0,0,105.8,97.8Z" style="fill: #390075"/>
        <path d="M87.1,108.4c-4.9-.4-8.7-2.6-12.7-5-6.7-4-14.2-8.4-28.7-5.9v-.3a40.5,40.5,0,0,0,15.4-5.7h.1c7.5.8,12.6,3.8,17.2,6.5s10.1,6,17.4,4.7a18.7,18.7,0,0,0,10-5l.7-.7-.4.8a18.7,18.7,0,0,1-14,10.3A19.5,19.5,0,0,1,87.1,108.4ZM56.6,96.6c7.9.6,13.2,3.7,18,6.6s10.1,6,17.4,4.7a18.4,18.4,0,0,0,13.3-9.3,19.2,19.2,0,0,1-9.5,4.4c-7.4,1.3-12.3-1.6-17.6-4.7s-9.6-5.7-17-6.4a37.9,37.9,0,0,1-11.5,4.9A39.8,39.8,0,0,1,56.6,96.6Z" style="fill: #390075"/>
      </g>
      <path d="M86.8,109.6c-5.1-.4-9.1-2.7-13.3-5.1-6.7-3.8-14.3-8.1-28.4-5.6a1.3,1.3,0,1,1-.5-2.6c14.1-2.5,19.8-8.9,24.8-14.5s8.2-9.1,15.9-10.5a20.2,20.2,0,0,1,18.9,6.4,28.9,28.9,0,0,1,5.6,8.6,1.3,1.3,0,0,1,.1.5,28.8,28.8,0,0,1-2.3,10,20.2,20.2,0,0,1-15.6,12.5A21.1,21.1,0,0,1,86.8,109.6ZM56.2,95.6c8.1.6,13.6,3.8,18.6,6.6s10.1,5.7,16.9,4.5c14.4-2.5,15.6-17.4,15.7-19.7s-7.1-15.6-21.5-13.1c-6.9,1.2-10.4,5.1-14.4,9.6S63.6,92.4,56.2,95.6Z" style="fill: #390075"/>
    </g>
    <g>
      <path d="M119.6,69.6s-6-.2-7.4-3.4-1.1-12.8,1.8-15.8,7.4-1.3,7.4-1.3" style="fill: #f2101c"/>
      <path d="M119.6,69.7h0c-.2,0-6.1-.3-7.5-3.4s-1.1-12.8,1.8-15.9,7.2-1.3,7.5-1.3h0c-.1,0-5.4-.8-7.3,1.2s-3.8,11.3-1.8,15.7,7.3,3.3,7.3,3.3h0Z" style="fill: #390075"/>
    </g>
    <g style="opacity: 0.30000000000000004">
      <path d="M121.5,49.2v1.4c-1.2-.1-5.4-.5-7.1,1.3s-3.2,7.5-2.8,11.8c-.8-4.5.2-10.7,2.6-13.2S121.5,49.2,121.5,49.2Z" style="fill: #fff"/>
    </g>
    <path d="M119.6,70.2h0c-.3,0-6.4-.3-7.9-3.7s-1.1-13.3,1.9-16.4,7.7-1.5,7.9-1.4a.6.6,0,0,1-.2,1.1c-1.4-.2-5.4-.5-6.9,1.1s-3.6,10.9-1.7,15.2,6.9,3,6.9,3a.6.6,0,0,1,0,1.1Z" style="fill: #000072"/>
    <path d="M114.8,61.5h0a.6.6,0,0,1-.5-.6c.1-.7.6-7.3,1.9-9.1s5.1-1.9,5.3-1.9a.6.6,0,0,1,0,1.1c-.9,0-3.4.2-4.3,1.4s-1.6,6.6-1.7,8.5A.6.6,0,0,1,114.8,61.5Z" style="fill: #000072"/>
    <g style="opacity: 0.30000000000000004">
      <path d="M112.2,66.2c1.4,3.1,7.4,3.4,7.4,3.4l.2-2.9c-1.7-.1-5.6-.6-6.9-3a17.7,17.7,0,0,1-1.6-6.9C111,60.1,111.2,64,112.2,66.2Z" style="fill: #000072"/>
    </g>
    <g>
      <path d="M116.9,61.4a26.7,26.7,0,0,1-4-1.1,30,30,0,0,0,.1,4.6,2.8,2.8,0,0,0,3.2,1.6C117.1,65.9,116.9,61.4,116.9,61.4Z" style="fill: #d83c2d"/>
      <path d="M115.5,66.7l-1.3-.3a2.4,2.4,0,0,1-1.4-1.5,29.4,29.4,0,0,1-.1-4.7h.1a26.8,26.8,0,0,0,4,1.1h.1c0,.2.2,4.6-.8,5.2Zm-2.6-6.3a28,28,0,0,0,.1,4.5,2.2,2.2,0,0,0,1.3,1.4,2.2,2.2,0,0,0,1.7.2c.8-.4.8-3.6.7-4.9A27.1,27.1,0,0,1,112.9,60.4Z" style="fill: #000072"/>
    </g>
    <path d="M115.5,67.1a3.7,3.7,0,0,1-1.5-.3,2.8,2.8,0,0,1-1.7-1.8,28.6,28.6,0,0,1-.1-4.8.5.5,0,0,1,.2-.4h.5a26.4,26.4,0,0,0,3.9,1.1.5.5,0,0,1,.4.5c.1,1.5.1,5-1.1,5.6ZM113.3,61a22.8,22.8,0,0,0,.1,3.8,1.8,1.8,0,0,0,1.1,1.1,2,2,0,0,0,1.3.2c.4-.2.6-2.2.5-4.2Z" style="fill: #000072"/>
    <g style="opacity: 0.30000000000000004">
      <path d="M112.9,64.9a2.8,2.8,0,0,0,3.2,1.6c.3-.2.5-.8.6-1.5s-2.7-.4-3-1.7a16,16,0,0,1-.1-2.9l-.7-.3A30.1,30.1,0,0,0,112.9,64.9Z" style="fill: #000072"/>
    </g>
    <path d="M144.7,55.1a19.6,19.6,0,0,1-7.4,2.9,15.6,15.6,0,0,1-.8-3.4,12.6,12.6,0,0,1-.1-2,15.5,15.5,0,0,1,.4-2.9h.1a19.2,19.2,0,0,0,6.3-2Z" style="fill: #4089ff"/>
    <g style="opacity: 0.30000000000000004">
      <path d="M144.7,55.1a19.6,19.6,0,0,1-7.4,2.9,15.6,15.6,0,0,1-.8-3.4,15.2,15.2,0,0,1,.3-4.9h.5a13.5,13.5,0,0,0,0,2.8h0a3.2,3.2,0,0,0,4.4,2.4l2.6-1.3Z" style="fill: #000072"/>
    </g>
    <path d="M137,58.5v-.3a15.9,15.9,0,0,1-.8-3.5,15.5,15.5,0,0,1,.3-5v-.4h.4s2.1,0,6.3-1.9l.6-.3,1.6,8.2-.3.2a19.9,19.9,0,0,1-7.6,3Zm.2-8.3a14.6,14.6,0,0,0-.2,4.3,16.5,16.5,0,0,0,.6,2.9,19.3,19.3,0,0,0,6.5-2.6l-1.2-6.4A19.9,19.9,0,0,1,137.2,50.2Z" style="fill: #000072"/>
    <path d="M143.3,47.8a33.7,33.7,0,0,0,8.2-6.1,8,8,0,0,1,3-1.9c1.8-.6,4.2-1.4,4.8-1.1s-1.4,2.6-1.4,2.6a5.4,5.4,0,0,1,.9,2.3c0,1.1-.6,1.9-2.3,2.6l-.9.3a4.8,4.8,0,0,0-2,1c-2.2,1.8-7.2,5.9-9.2,6.5Z" style="fill: #ffcfae"/>
    <g style="opacity: 0.30000000000000004">
      <path d="M158.9,43.7c.1,1.1-.6,1.9-2.3,2.6l-.9.3a4.8,4.8,0,0,0-2,1c-2.2,1.8-7.2,5.9-9.2,6.5l-.4-1.9c2-.5,7-4.6,9.1-6.4a2.7,2.7,0,0,1,1.5-.7c.3-.1,1.5.5,2.3.1s1.3-1.9,1.4-2.7A3.9,3.9,0,0,1,158.9,43.7Z" style="fill: #000072"/>
    </g>
    <path d="M144.1,54.7l-1.4-7.1.3-.2a33.5,33.5,0,0,0,8.1-6,8.6,8.6,0,0,1,3.2-2c4.2-1.5,4.9-1.2,5.2-1a1.1,1.1,0,0,1,.7,1c0,.9-1,1.8-1.7,2.2a5.2,5.2,0,0,1,.8,2.2c.1,1.4-.8,2.4-2.7,3.1l-1,.3a4.3,4.3,0,0,0-1.8.9c-2.6,2.2-7.4,6-9.4,6.6Zm-.3-6.6,1,5.3c1.5-.7,4.6-2.9,8.5-6.2a5.3,5.3,0,0,1,2.2-1.1l.8-.3c1.9-.7,2.1-1.5,2-2.1a4.9,4.9,0,0,0-.9-2.1l-.3-.4.4-.3c.8-.5,1.7-1.3,1.6-1.7h-.2s-.7-.3-4.4,1.1a7.6,7.6,0,0,0-2.8,1.8A34.4,34.4,0,0,1,143.8,48.1Z" style="fill: #000072"/>
    <g>
      <path d="M157.1,92.4A286.7,286.7,0,0,1,116,99.7a56.8,56.8,0,0,1-2.6-26.3,260,260,0,0,0,37.1-6.6" style="fill: #fdd800"/>
      <path d="M116,99.8h-.1a56.6,56.6,0,0,1-2.6-26.3h.1a261.2,261.2,0,0,0,37.1-6.6h0a261.4,261.4,0,0,1-37.1,6.6,56.4,56.4,0,0,0,2.6,26.1,287.9,287.9,0,0,0,41-7.3h0A288.1,288.1,0,0,1,116,99.8Z" style="fill: #390075"/>
    </g>
    <g style="opacity: 0.4">
      <path d="M113.4,73.4a260,260,0,0,0,37.1-6.6l.5,2.1a265.4,265.4,0,0,1-30.4,5.8,8.7,8.7,0,0,0-7.6,8.3c0,1.6,0,3.1.1,4.7A65.4,65.4,0,0,1,113.4,73.4Z" style="fill: #fff"/>
    </g>
    <g style="opacity: 0.35000000000000003">
      <path d="M113.4,73.4h1a64,64,0,0,0,.7,16.9c.8,4.7,5.8,7.2,10.2,6.7a288.4,288.4,0,0,0,31.4-6.1l.4,1.6A286.7,286.7,0,0,1,116,99.7,56.8,56.8,0,0,1,113.4,73.4Z" style="fill: #000072"/>
    </g>
    <path d="M115.6,100.3l-.2-.4a57,57,0,0,1-2.6-26.5v-.5h.5a260.7,260.7,0,0,0,37.1-6.6.6.6,0,0,1,.3,1.1,261.9,261.9,0,0,1-36.8,6.5A55.8,55.8,0,0,0,116.4,99,287.4,287.4,0,0,0,157,91.8a.6.6,0,1,1,.3,1.1,288.6,288.6,0,0,1-41.2,7.3Z" style="fill: #000072"/>
    <g>
      <path d="M109.5,73.8l3.9-.4A56.8,56.8,0,0,0,116,99.7l-4.3.4A52.9,52.9,0,0,1,109.5,73.8Z" style="fill: #fff"/>
      <path d="M111.6,100.2h0a52.7,52.7,0,0,1-2.2-26.3h.1l3.9-.4h.1a56.4,56.4,0,0,0,2.6,26.2H116l-4.3.4Zm-2-26.3a52.5,52.5,0,0,0,2.2,26.1l4.1-.4a56.5,56.5,0,0,1-2.6-26.1Z" style="fill: #000072"/>
    </g>
    <path d="M111.3,100.7v-.4a53.1,53.1,0,0,1-2.2-26.6v-.4h.5l3.9-.4h.7v.7a55.9,55.9,0,0,0,2.6,26l.2.7h-.7l-4.3.4ZM110,74.3a51.9,51.9,0,0,0,2.1,25.2l3.2-.3A56.9,56.9,0,0,1,112.7,74Z" style="fill: #000072"/>
    <path d="M107.9,73.9h1.6a52.9,52.9,0,0,0,2.2,26.3h-1.7a12.9,12.9,0,0,1-7.4-1.6,10.6,10.6,0,0,1-4.6-5.3,18.1,18.1,0,0,1-.4-11.1A11.8,11.8,0,0,1,107.9,73.9Z" style="fill: #fc277e"/>
    <g style="opacity: 0.35000000000000003">
      <path d="M108.2,73.9a52.9,52.9,0,0,0,.9,15.1,56.5,56.5,0,0,1,.4-15.2Z" style="fill: #000072"/>
      <path d="M110.3,95.6h-1.1a12.9,12.9,0,0,1-7.4-1.6,10.6,10.6,0,0,1-4.6-5.3l-.3-1.1a19,19,0,0,0,1.1,5.6,10.6,10.6,0,0,0,4.6,5.3,12.9,12.9,0,0,0,7.4,1.6h1.7Q110.9,97.8,110.3,95.6Z" style="fill: #000072"/>
    </g>
    <g style="opacity: 0.4">
      <path d="M107.9,73.9h1.6a52.9,52.9,0,0,0,2.2,26.3h-.5a50.8,50.8,0,0,1-4.2-21.9,1.2,1.2,0,0,0-1.5-1.2h0a12.2,12.2,0,0,0-7.9,5.2h0A11.8,11.8,0,0,1,107.9,73.9Z" style="fill: #fff"/>
    </g>
    <path d="M109,100.8a13.1,13.1,0,0,1-6.8-1.8,11.2,11.2,0,0,1-4.9-5.6A18.7,18.7,0,0,1,97,81.9a12.3,12.3,0,0,1,10.9-8.6h2.3v.7a52,52,0,0,0,2.2,26l.2.7H109Zm-.2-26.4H108a11.2,11.2,0,0,0-9.9,7.8A17.6,17.6,0,0,0,98.5,93a10,10,0,0,0,4.4,5,12.3,12.3,0,0,0,7.1,1.6h1A53,53,0,0,1,108.8,74.4Zm-.9-.5h0Z" style="fill: #000072"/>
    <g>
      <path d="M151,66.7c5.4-.5,11.5,1.6,16.7,2.9a61.8,61.8,0,0,1,6.4,1.8,2.6,2.6,0,0,1,1.3,3.8,43.5,43.5,0,0,1-4.2,5.3c-3.7,4.3-8.3,9.5-13.6,11.7-1.9.1-4.4-.9-4.9-2.9s3.4-5.2,3.4-5.2-5.7-.8-6.4-3.5,3.9-6.1,3.9-6.1-4.7-.7-5.2-3A4.6,4.6,0,0,1,151,66.7Z" style="fill: #ffdaa4"/>
      <path d="M157.5,92.4c-2,0-4.3-1-4.8-3s2.5-4.6,3.3-5.1c-1.1-.2-5.6-1.1-6.2-3.6s2.9-5.4,3.7-6l-1.2-.3c-1.6-.4-3.6-1.3-3.9-2.8a4.7,4.7,0,0,1,2.7-4.9h0c4.5-.4,9.5,1,14,2.1l2.8.7,1.4.3a45.3,45.3,0,0,1,5.1,1.4,2.7,2.7,0,0,1,1.6,1.7,2.7,2.7,0,0,1-.2,2.3,39.6,39.6,0,0,1-3.8,4.9l-.4.4c-3.2,3.7-8.1,9.4-13.7,11.7h-.2Zm-3.8-17.7h0s-4.5,3.4-3.8,6,6.2,3.4,6.3,3.5h0s-3.9,2.8-3.4,5.1,2.8,2.9,4.8,2.9c5.5-2.4,10.4-8,13.6-11.7l.4-.4a39.5,39.5,0,0,0,3.8-4.9,2.5,2.5,0,0,0,.2-2.1,2.5,2.5,0,0,0-1.5-1.6,45.2,45.2,0,0,0-5-1.4l-1.4-.3-2.8-.7c-4.4-1.2-9.4-2.5-13.9-2.1a4.5,4.5,0,0,0-2.6,4.7c.5,2.2,5.1,2.9,5.1,2.9h0Z" style="fill: #000072"/>
    </g>
    <g style="opacity: 0.35000000000000003">
      <path d="M150.1,73.8h0Z" style="fill: #6b184e"/>
      <path d="M149.8,74h.3v.2h-.3Z" style="fill: #000072"/>
    </g>
    <g style="opacity: 0.35000000000000003">
      <path d="M156.1,67.1c3.9.7,7.8,1.6,11.6,2.5a60.6,60.6,0,0,1,6.4,1.8,2.6,2.6,0,0,1,1.3,3.8,43.5,43.5,0,0,1-4.2,5.3c-3.7,4.3-8.3,9.5-13.6,11.7a5.7,5.7,0,0,1-3.4-.8c5.2-2.3,9.7-7.2,13.3-11.4a43.1,43.1,0,0,0,4.2-5.3,2.7,2.7,0,0,0-1.3-3.8,60.7,60.7,0,0,0-6.4-1.9Z" style="fill: #000072"/>
    </g>
    <g style="opacity: 0.4">
      <path d="M154.1,85.1c1.3,1.3.5,4.2.9,5.8a3,3,0,0,0,.5,1.1,3.9,3.9,0,0,1-2.7-2.7A4.1,4.1,0,0,1,154.1,85.1Z" style="fill: #fff"/>
    </g>
    <g style="opacity: 0.4">
      <path d="M151.9,82.2a4.6,4.6,0,0,0,.9,1.8,4.8,4.8,0,0,1-3-3.4,5.1,5.1,0,0,1,2.1-5.2C153,77,151.4,80.3,151.9,82.2Z" style="fill: #fff"/>
    </g>
    <g style="opacity: 0.4">
      <path d="M151,66.7c5.4-.5,11.5,1.6,16.7,2.9a63.7,63.7,0,0,1,6.4,1.8,2.7,2.7,0,0,1,1.3,1.1L170,71c-4.9-1.2-10.1-2.6-15.1-2.8a4.3,4.3,0,0,0-4.2,2.6,3.6,3.6,0,0,0-.2,2.3,4.7,4.7,0,0,0,.6,1.4,4.1,4.1,0,0,1-2.7-3A4.6,4.6,0,0,1,151,66.7Z" style="fill: #fff"/>
    </g>
    <path d="M167.7,69.6a62.4,62.4,0,0,1,6.4,1.8,2.6,2.6,0,0,1,1.3,3.8,45,45,0,0,1-4.2,5.3,8.2,8.2,0,0,1-3.7-4.8A8.6,8.6,0,0,1,167.7,69.6Z" style="fill: #000072"/>
    <g style="opacity: 0.30000000000000004">
      <path d="M167.7,69.6a64.5,64.5,0,0,1,6.4,1.8,2.6,2.6,0,0,1,1.7,2.5,2.7,2.7,0,0,0-1-.7l-2-.6c-2.6-.7-5.5,1.6-4.8,4.3h0a7.7,7.7,0,0,1-.5-1.2A8.9,8.9,0,0,1,167.7,69.6Z" style="fill: #fff"/>
    </g>
    <path d="M171.4,81.3,171,81a8.8,8.8,0,0,1-4-5.2,9.2,9.2,0,0,1,.2-6.5l.2-.4h.5l1.4.4a45.3,45.3,0,0,1,5.1,1.4,3.2,3.2,0,0,1,1.9,2,3.2,3.2,0,0,1-.3,2.7,38.7,38.7,0,0,1-3.7,4.8l-.6.7Zm-3.3-11a8.2,8.2,0,0,0,0,5.3,7.8,7.8,0,0,0,3.1,4.3l.3-.3a37.9,37.9,0,0,0,3.6-4.6,2,2,0,0,0,.2-1.7,2.1,2.1,0,0,0-1.2-1.3,44.5,44.5,0,0,0-4.9-1.4Z" style="fill: #000072"/>
    <path d="M157.4,92.8c-2.3,0-4.8-1.1-5.3-3.4a4.8,4.8,0,0,1,1.5-4.7,5.4,5.4,0,0,1-2.4-9.7,4.5,4.5,0,0,1-3.4-3.5,5.1,5.1,0,0,1,2.9-5.5h.2c4.6-.4,9.6,1,14.1,2.2l2.8.7.7.2-.3.6a8.1,8.1,0,0,0-.2,5.7,7.7,7.7,0,0,0,3.5,4.5l.6.3-.5.5c-3.7,4.2-8.3,9.5-13.8,11.9h-.4Zm-1.8-9.2a.6.6,0,0,1,.6.4c0,.1.1.5-.5.7a3.7,3.7,0,0,0-2.5,4.3c.4,1.9,2.7,2.5,4.2,2.5,5-2.2,9.4-7,12.9-11a9,9,0,0,1-3.4-4.8,9.4,9.4,0,0,1,0-5.9l-2.2-.6c-4.3-1.2-9.2-2.5-13.6-2.1a4,4,0,0,0-2.2,4.2,3.5,3.5,0,0,0,4,2.7c.6-.1.7.3.8.4s.1.5-.5.7a4.4,4.4,0,0,0,2.2,8.5Z" style="fill: #000072"/>
    <g style="opacity: 0.30000000000000004">
      <path d="M140.4,72.8c1.8-.4,3.3-.2,3.5.5s-1.2,1.5-3,1.9-3.3.1-3.5-.6S138.6,73.2,140.4,72.8Z" style="fill: #fff"/>
    </g>
    <path d="M140.1,67.8l-1.5.5-13.2,4.6-6.9-7.5s-.7-8.3,3.6-15.2l3.3-5.4,12.2.6a78.5,78.5,0,0,0,.2,12.2c.2,1.3.4,2.6.6,3.8s1.2,5,1.5,5.9Z" style="fill: #4089ff"/>
    <path d="M125.2,73.6,118,65.6v-.2c0-.3-.7-8.6,3.7-15.6l3.2-5.4.2-.3,13.2.7v.6a78.4,78.4,0,0,0,.2,12.1,74.7,74.7,0,0,0,2.2,10.1l.2.5Zm-6.2-8.4,6.5,7.1,13.8-4.8a74.9,74.9,0,0,1-2.1-9.7A74.9,74.9,0,0,1,137,46l-11.3-.6-3.1,5.1C118.8,56.6,119,63.9,119.1,65.2Z" style="fill: #000072"/>
    <g style="opacity: 0.35000000000000003">
      <path d="M118.7,67.8c.3,3.1,1.2,7.2,3.6,10a50.1,50.1,0,0,0,6.8,6.8l6.7-7.8-1.6-1.7-2.7,3.2a4.3,4.3,0,0,1-6.3.3c-1-1-2.2-2.2-3.4-3.7A16.1,16.1,0,0,1,118.7,67.8Z" style="fill: #293856"/>
      <path d="M129.1,84.7H129a50.7,50.7,0,0,1-6.8-6.8c-1.9-2.3-3.1-5.7-3.6-10.1h.2a15.8,15.8,0,0,0,3.1,7c1.1,1.3,2.2,2.5,3.4,3.7a4.2,4.2,0,0,0,6.1-.3l2.8-3.2,1.7,1.8ZM119,69.4a16.9,16.9,0,0,0,3.4,8.4,51.5,51.5,0,0,0,6.7,6.7l6.6-7.7-1.5-1.5-2.6,3.1a4.4,4.4,0,0,1-3.2,1.5,4.3,4.3,0,0,1-3.3-1.3c-1.2-1.2-2.3-2.4-3.4-3.7A14.7,14.7,0,0,1,119,69.4Z" style="fill: #000072"/>
    </g>
    <g>
      <path d="M131.2,72l4.6,4.7-6.7,7.8a50,50,0,0,1-6.8-6.8c-3.1-3.7-3.6-9.5-3.8-12.4v-.3a.6.6,0,0,1,1.1-.5,17.5,17.5,0,0,0,9.1,4,31.3,31.3,0,0,0,9.1-.8l2.2-.5.6,1.8h-.3l-6.4,1.3-2.2.4A.7.7,0,0,0,131.2,72Z" style="fill: #fff"/>
      <path d="M129.1,84.7H129a50.6,50.6,0,0,1-6.8-6.8c-2.2-2.6-3.5-7-3.8-12.5v-.3a.7.7,0,0,1,1.2-.6,17.4,17.4,0,0,0,9,4,30.9,30.9,0,0,0,9.1-.8l2.2-.5h.1l.6,2-6.9,1.3-2.2.4a.6.6,0,0,0-.3,1l4.7,4.8Zm-10-20.2h-.2a.5.5,0,0,0-.3.5v.3c.2,5.5,1.5,9.8,3.7,12.4a51.4,51.4,0,0,0,6.7,6.7l6.6-7.7-4.6-4.7a.8.8,0,0,1,.4-1.3l2.2-.4,6.7-1.3-.5-1.6-2.1.5a31.1,31.1,0,0,1-9.2.8,17.6,17.6,0,0,1-9.1-4Z" style="fill: #000072"/>
    </g>
    <g style="opacity: 0.30000000000000004">
      <path d="M135.8,76.7l-6.7,7.8a50,50,0,0,1-6.8-6.8c-3.2-3.8-3.7-9.9-3.8-12.7a.6.6,0,0,1,.9-.6c.4,3.1,1.2,7,3.6,9.8l2.4,2.7a5.5,5.5,0,0,0,8.1-.2l1.1-1.3Z" style="fill: #000072"/>
    </g>
    <path d="M129.2,85.4l-.4-.3a50.2,50.2,0,0,1-6.9-6.9c-2.4-2.8-3.7-7.2-3.9-13.1a1.2,1.2,0,0,1,2-.9,16.9,16.9,0,0,0,8.7,3.9c4.8.5,11-1.2,11.1-1.3l.5-.2.9,3-7.4,1.5-2.2.4h-.1a.1.1,0,0,0,0,.1l5,5.1ZM119.1,65h-.1c.2,5.5,1.5,9.8,3.6,12.4a52.8,52.8,0,0,0,6.3,6.3l6-7-4.2-4.4a1.2,1.2,0,0,1,.7-2.1l2.2-.4,6.1-1.2-.2-.7c-1.7.4-6.8,1.6-11,1.2a18.2,18.2,0,0,1-9.4-4.2Z" style="fill: #000072"/>
    <g>
      <polygon points="129.7 83.9 140.4 92.4 144 88.3 135 77.7 129.7 83.9" style="fill: #ffcbbd"/>
      <path d="M140.4,92.5l-10.9-8.6,5.5-6.4h.1l9,10.7Zm-10.6-8.6,10.6,8.4,3.5-4L135,77.8Z" style="fill: #000072"/>
    </g>
    <g>
      <polygon points="129.7 83.9 131.4 85.2 137 89.7 139 91.3 140.4 92.4 144 88.3 139.2 82.6 138.2 81.5 136.4 79.3 135 77.7 129.7 83.9" style="fill: #ffcbbd"/>
      <path d="M140.4,92.5l-10.8-8.6,5.5-6.4,9.1,10.8Zm-10.6-8.6,10.6,8.4,3.5-3.9L135,77.8Z" style="fill: #000072"/>
    </g>
    <g style="opacity: 0.35000000000000003">
      <path d="M138.8,88.8a14,14,0,0,0,.2,2.5Z" style="fill: #293856"/>
      <path d="M138.9,91.3a14.2,14.2,0,0,1-.2-2.5h.2l.2,2.5Z" style="fill: #000072"/>
    </g>
    <path d="M140.5,93,129,84l6-7,9.6,11.4Zm-10.1-9.2,10,7.9,3-3.4L135,78.4Z" style="fill: #000072"/>
    <g>
      <path d="M142.7,93.8c1,.2,3-.5,3.9-4.4s.4-7.8-2.4-8.9-4.4,1.4-4,5.4S139.5,93.1,142.7,93.8Z" style="fill: #fff"/>
      <path d="M143,93.9h-.4c-2.5-.5-2.5-3-2.5-5.7,0-.8,0-1.6-.1-2.3-.2-2.3.4-4.2,1.7-5.1a2.5,2.5,0,0,1,2.5-.3c2.9,1.1,3,6.5,2.4,9S144.1,93.9,143,93.9Zm.2-13.5a2.3,2.3,0,0,0-1.4.5c-1.2.9-1.8,2.7-1.6,5s.1,1.6.1,2.3c0,2.7,0,5,2.4,5.5h0c.9.2,2.9-.5,3.7-4.4s.4-7.7-2.3-8.8Z" style="fill: #000072"/>
    </g>
    <g style="opacity: 0.35000000000000003">
      <path d="M140.1,85.9c.3,3.4-.6,7.3,2.6,7.9,1,.2,3-.5,3.9-4.4a12.2,12.2,0,0,0,.3-2.4c-.9,3.3-2.7,4-3.7,3.8-3.2-.7-2.3-4.5-2.6-7.9v-.3A7.4,7.4,0,0,0,140.1,85.9Z" style="fill: #000072"/>
    </g>
    <path d="M143,94.3h-.4l-1-.4-.7-.6h0c-1.1-1.2-1.1-3.1-1.1-5.1s0-1.5-.1-2.3a6.6,6.6,0,0,1,1.3-4.9,3.1,3.1,0,0,1,2.2-1.1h0l1.2.2c3.1,1.2,3.3,6.8,2.7,9.4S144.3,94.3,143,94.3Zm.1-13.5a2.2,2.2,0,0,0-1.5.8,5.8,5.8,0,0,0-1,4.2c.1.8.1,1.6.1,2.4s0,3.6.8,4.5h0l.5.4.8.3c.8.2,2.5-.5,3.3-4.1s.3-7.4-2.1-8.3h-.9Z" style="fill: #000072"/>
    <g style="opacity: 0.35000000000000003">
      <path d="M129.7,83.9l1.7,1.3,5.6,4.4,1.2,1,.8.7a14,14,0,0,1-.2-2.5c0-.9,0-1.9-.1-2.9a7.4,7.4,0,0,1,.4-3.3l-.9-1.1a5.1,5.1,0,0,0-1.6,4.2h0a.6.6,0,0,1-1,.5L134,84.9a1.7,1.7,0,0,1-.2-2.5l2.7-3.1L135,77.7l-4.1,4.8Z" style="fill: #000072"/>
    </g>
    <g style="opacity: 0.35000000000000003">
      <polygon points="134.4 49 133.6 49.7 133.6 49.7 134.4 49" style="fill: #293856"/>
      <polygon points="133.5 49.9 133.5 49.6 133.6 49.6 134.4 49 134.5 49.1 134.5 49.1 133.5 49.9" style="fill: #000072"/>
    </g>
    <g>
      <path d="M138.7,91l2.5,2c-1.3-1.5-.8-4.4-1-7.1s1.2-5.5,3-5.6c-.2,0-5.2-.2-5.2,5.3A18.9,18.9,0,0,0,138.7,91Z" style="fill: #f2101c"/>
      <path d="M141.2,93.1h-.1l-2.5-2h0a19.2,19.2,0,0,1-.7-5.4,5.4,5.4,0,0,1,1.5-4.1,5.5,5.5,0,0,1,3.8-1.3h0a2.5,2.5,0,0,0-1.8.9,6.2,6.2,0,0,0-1.1,4.5c.1.8.1,1.6.1,2.3s0,3.7,1,4.7a.1.1,0,0,1,0,.1ZM138.8,91l2,1.6a9.4,9.4,0,0,1-.6-4.4c0-.8,0-1.6-.1-2.3a6.3,6.3,0,0,1,1.2-4.6,3,3,0,0,1,1.1-.8,5,5,0,0,0-2.8,1.2,5.2,5.2,0,0,0-1.4,4A19.2,19.2,0,0,0,138.8,91Z" style="fill: #390075"/>
    </g>
    <g style="opacity: 0.35000000000000003">
      <path d="M138,85.6a19,19,0,0,0,.7,5.4l2.5,2c-.9-1-1-2.5-1-4.3l-1.6-1.3a16.5,16.5,0,0,1-.6-2.9A8.3,8.3,0,0,0,138,85.6Z" style="fill: #000072"/>
    </g>
    <path d="M140.9,93.4l-2.6-2.1h0a19.3,19.3,0,0,1-.8-5.5,5.7,5.7,0,0,1,1.6-4.4,5.8,5.8,0,0,1,4.1-1.4v1a2.2,2.2,0,0,0-1.5.8,5.8,5.8,0,0,0-1,4.2c.1.8.1,1.6.1,2.4s0,3.6.8,4.5Zm-1.8-2.7.8.6a17.4,17.4,0,0,1-.2-3.2c0-.8,0-1.5-.1-2.3a7,7,0,0,1,1-4.6l-.9.6a4.8,4.8,0,0,0-1.3,3.7A19.2,19.2,0,0,0,139.1,90.7Z" style="fill: #000072"/>
    <path d="M130.9,83.1h-.3c-.4-.3-10.1-7.9-10.5-17.4a.6.6,0,1,1,1.1,0c.3,8.9,9.9,16.4,10,16.5a.6.6,0,0,1,.1.8Z" style="fill: #000072"/>
    <g>
      <path d="M118.7,60.5s4.7,2.4,8-.1,3.8-6.8,3.2-8.1-7.9-2-7.9-2l1.6-1.7s8.7.1,9.4,4.3-1.3,9-5.9,10.6-8.5-.8-8.5-.8a5.6,5.6,0,0,1-.2-1.2A1.5,1.5,0,0,1,118.7,60.5Z" style="fill: #f2101c"/>
      <path d="M124,64.1a13.9,13.9,0,0,1-5.6-1.2h0a5.7,5.7,0,0,1-.2-1.2,1.6,1.6,0,0,1,.4-1.2h.1s4.7,2.4,7.9-.1,3.8-6.8,3.2-8-5.3-1.7-7.9-1.9h-.1l1.6-1.7h.1c.4,0,8.8.1,9.5,4.4s-1.2,9.1-6,10.7A9.4,9.4,0,0,1,124,64.1Zm-5.4-1.4c.4.2,4.5,2.1,8.4.8s6.5-6.5,5.9-10.5-8.7-4.3-9.3-4.3l-1.4,1.6c1.1.1,7.3.8,7.8,2s.2,5.6-3.2,8.2-7.5.4-8,.1a1.5,1.5,0,0,0-.3,1A6.1,6.1,0,0,0,118.6,62.7Z" style="fill: #390075"/>
    </g>
    <g style="opacity: 0.30000000000000004">
      <path d="M127,63.5c-4.2,1.4-8.5-.8-8.5-.8a5.7,5.7,0,0,1-.2-1.2h0c.9.4,4.7,1.9,8.3.7s6.5-6.1,6-10.3a3.2,3.2,0,0,1,.3.9C133.6,57.2,131.7,62,127,63.5Z" style="fill: #000072"/>
    </g>
    <path d="M124,64.6a14.1,14.1,0,0,1-5.7-1.3H118v-.2a6.1,6.1,0,0,1-.2-1.3,2,2,0,0,1,.5-1.6l.3-.3.4.2s4.4,2.2,7.4,0,3.5-6.5,3-7.4-3.8-1.3-7.5-1.7h-1.1l2.5-2.8h.3c.4,0,9.2.1,10,4.8s-1.2,9.5-6.3,11.2A10,10,0,0,1,124,64.6Zm-5-2.2c.9.4,4.5,1.8,7.8.6s6.2-6.1,5.5-10-6.1-3.8-8.6-3.8l-.6.7,2.7.4c3.6.6,4.4,1.3,4.6,1.8s.1,6.2-3.4,8.8-6.7.9-8.1.4a1.3,1.3,0,0,0,0,.4A7,7,0,0,0,119,62.4Z" style="fill: #000072"/>
    <g style="opacity: 0.30000000000000004">
      <path d="M140.5,69.2h-.3l-1.6-.9-.8-.5-4.4-2.5-.2.3c-.1.3-1.1-.1-1.1-.1s-6-5.5-6-5.5l2.9-5.7,7.3,5.1a.5.5,0,0,1,.2.6l2.1,1.3c.5,2.7,1.2,5,1.5,5.9Z" style="fill: #000072"/>
    </g>
    <path d="M135.9,57.9l8.6,5.6a8.1,8.1,0,0,0,2.2,1c1.9.6,5.7,1.8,4.7,3a7,7,0,0,1-5.4,1.8c-2.8-.4-3.2-.5-4.5-1.2l-9.1-5.1Z" style="fill: #ffcfae"/>
    <g style="opacity: 0.30000000000000004">
      <path d="M151.4,67.4a7,7,0,0,1-5.4,1.8c-2.8-.4-3.2-.5-4.5-1.2l-9.1-5.1,1.1-1.5,8.5,4.8c1.4.7,1.8.8,4.5,1.2a6.8,6.8,0,0,0,4.6-1.1C151.5,66.6,151.7,67,151.4,67.4Z" style="fill: #000072"/>
    </g>
    <path d="M146.8,69.8h-.9c-2.8-.4-3.3-.5-4.7-1.2L132,63.4l-.6-.3,4.3-6,9.1,5.9a7.6,7.6,0,0,0,2,.9c4.8,1.4,5.1,2.4,5.2,2.8a1.2,1.2,0,0,1-.2,1.1h0A7.6,7.6,0,0,1,146.8,69.8Zm-13.7-7.1,8.6,4.8c1.3.6,1.6.8,4.4,1.1A6.5,6.5,0,0,0,151,67h0c0-.2-.9-1-4.5-2a8.7,8.7,0,0,1-2.3-1.1L136,58.6Z" style="fill: #000072"/>
    <path d="M129,52.4l7.3,5.1a.5.5,0,0,1,.2.7l-3.2,5.5a.5.5,0,0,1-.7.2l-6.4-4" style="fill: #4089ff"/>
    <g style="opacity: 0.30000000000000004">
      <path d="M133.2,63.8a.5.5,0,0,1-.7.2l-6.4-4h0a1.7,1.7,0,0,1,2.5-.9l5.1,3a.5.5,0,0,0,.7-.2Z" style="fill: #000072"/>
    </g>
    <path d="M132.8,64.7l-.6-.2-6.4-4a.6.6,0,0,1,.6-1l6.4,4,3.2-5.5-7.2-5.1a.6.6,0,0,1,.7-.9l7.3,5.1a1.1,1.1,0,0,1,.3,1.4l-3.2,5.5a1.1,1.1,0,0,1-.7.5Zm3.2-6.6h0Z" style="fill: #000072"/>
    <path d="M145.4,67.2l1.8.3.9.4.4.3.2.2v.2a.3.3,0,0,1-.1.3h-.3l-.6-.5-.7-.4-1.7-.7h0Z" style="fill: #000072"/>
    <path d="M146.6,65.8l1.2.2,1.1.3,1.1.5.5.4a1.5,1.5,0,0,1,.4.6.3.3,0,0,1-.1.3h-.3a2.1,2.1,0,0,0-.7-.7l-1-.5-2.1-.8h0Z" style="fill: #000072"/>
    <g>
      <ellipse cx="132.3" cy="30.3" rx="19.3" ry="21.4" transform="translate(94 160.4) rotate(-86.5)" style="fill: #64cbff"/>
      <path d="M132.6,49.6h-1.5c-11.8-.7-21-10-20.3-20.6s10.8-18.7,22.7-18,21,10,20.3,20.6S143.8,49.6,132.6,49.6ZM110.9,29h.1c-.6,10.6,8.4,19.7,20.2,20.4h1.5c11.1,0,20.4-7.8,21-17.9s-8.4-19.7-20.2-20.4S111.6,18.4,111,29Z" style="fill: #000072"/>
    </g>
    <path d="M132.6,50.1h-1.5c-12.1-.7-21.5-10.2-20.8-21.2h0c.7-10.9,11.1-19.2,23.2-18.5S155,20.7,154.3,31.6,144,50.1,132.6,50.1ZM111.5,29c-.6,10.3,8.2,19.2,19.7,19.9h1.4c10.8,0,19.9-7.6,20.5-17.4s-8.2-19.2-19.7-19.9S112.1,18.7,111.5,29Z" style="fill: #000072"/>
    <g>
      <path d="M120.1,49.1c1,1.7,5.4,3.2,10.8,3.5s10-.6,11.2-2.2l.2-2.9a.2.2,0,0,0-.3-.1c-1.5,1.4-5.9,2.1-10.9,1.8s-9.2-1.6-10.6-3.1a.2.2,0,0,0-.3.1Z" style="fill: #fff"/>
      <path d="M133.1,52.7H131c-5.3-.3-9.9-1.8-10.9-3.6h0l.2-2.9.2-.2h.3c1.4,1.6,5.6,2.8,10.5,3.1s9.3-.4,10.8-1.8h.3a.3.3,0,0,1,.1.2l-.2,2.9h0C141.2,51.8,137.5,52.7,133.1,52.7ZM120.2,49c1,1.7,5.5,3.1,10.8,3.4s9.9-.6,11.1-2.1l.2-2.9h-.1c-1.6,1.4-6,2.2-10.9,1.9s-9.2-1.6-10.6-3.2h-.1Z" style="fill: #000072"/>
    </g>
    <path d="M120.1,49.1c1,1.7,5.4,3.2,10.8,3.5s10-.6,11.2-2.2l.2-2.9a.2.2,0,0,0-.3-.1c-1.5,1.4-5.9,2.1-10.9,1.8s-9.2-1.6-10.6-3.1a.2.2,0,0,0-.3.1Z" style="fill: #fff"/>
    <g style="opacity: 0.30000000000000004">
      <path d="M120.3,46.4v.9c0-.1.2-.2.3-.1s5.6,2.4,10.6,2.7,9.3-.3,10.9-1.4.3,0,.3.1v-.9c0-.1-.2-.2-.3-.1s-5.8,1.7-10.9,1.4-9.2-1.4-10.6-2.7S120.3,46.3,120.3,46.4Z" style="fill: #fff"/>
    </g>
    <g style="opacity: 0.30000000000000004">
      <path d="M120.2,47.5v1.4c1,1.8,5.4,3.4,10.8,3.7s10-.7,11.2-2.4V48.8c-1.2,1.7-5.8,2.7-11.2,2.4S121.2,49.3,120.2,47.5Z" style="fill: #000072"/>
    </g>
    <path d="M133.1,53.2h-2.2c-5.6-.3-10.2-1.9-11.3-3.8h-.1l.2-3.1a.7.7,0,0,1,1.3-.4c1.3,1.5,5.5,2.7,10.2,3s9-.4,10.5-1.7a.7.7,0,0,1,1.2.6v1.9a2.8,2.8,0,0,1-1.5,2.3A19.6,19.6,0,0,1,133.1,53.2Zm-12.4-4.3c.9,1.3,4.8,2.7,10.3,3.1s7.8-.2,9.7-1.2a1.7,1.7,0,0,0,.9-1.4V48.3c-2.1,1.2-6.1,1.7-10.6,1.5s-8.4-1.3-10.3-2.7Z" style="fill: #000072"/>
    <g>
      <g>
        <ellipse cx="144.2" cy="39.4" rx="3.1" ry="2.6" transform="translate(99.1 181.9) rotate(-87.7)" style="fill: #ffcbbd"/>
        <path d="M144.1,42.6H144a3,3,0,0,1-2.6-3.3,3.5,3.5,0,0,1,.9-2.2,2.5,2.5,0,0,1,2-.9,3,3,0,0,1,2.6,3.3,3.5,3.5,0,0,1-.9,2.2A2.5,2.5,0,0,1,144.1,42.6Zm.1-6.2a2.4,2.4,0,0,0-1.7.8,3.3,3.3,0,0,0-.8,2.1,2.8,2.8,0,0,0,2.4,3.1,2.4,2.4,0,0,0,1.8-.8,3.3,3.3,0,0,0,.8-2.1,2.8,2.8,0,0,0-2.4-3.1Z" style="fill: #000072"/>
      </g>
      <g style="opacity: 0.30000000000000004">
        <path d="M146.8,39.5a2.7,2.7,0,1,1-5.3-.2,3.5,3.5,0,0,1,.5-1.7,2.8,2.8,0,0,0,2.5,2.9,2.6,2.6,0,0,0,2.3-1.3C146.8,39.3,146.8,39.4,146.8,39.5Z" style="fill: #17172b"/>
        <path d="M144.1,42.6H144a3,3,0,0,1-2.6-3.3,3.6,3.6,0,0,1,.5-1.7h.2a2.7,2.7,0,0,0,2.4,2.8,2.5,2.5,0,0,0,2.2-1.3h.2c0,.1,0,.2,0,.3h0A3,3,0,0,1,144.1,42.6Zm-2.2-4.6a3.5,3.5,0,0,0-.3,1.3,2.6,2.6,0,1,0,5.1.2,2.6,2.6,0,0,1-2.2,1.1A2.9,2.9,0,0,1,141.9,37.9Zm4.9,1.5h0Z" style="fill: #000072"/>
      </g>
      <path d="M144.1,43.1H144a3.5,3.5,0,0,1-3.1-3.8,4,4,0,0,1,1-2.5,3,3,0,0,1,2.3-1,3.5,3.5,0,0,1,3.1,3.8,4,4,0,0,1-1,2.5A3,3,0,0,1,144.1,43.1Zm.1-6.2a1.9,1.9,0,0,0-1.4.7,2.8,2.8,0,0,0-.7,1.8,2.3,2.3,0,0,0,2,2.6,1.9,1.9,0,0,0,1.5-.7,2.8,2.8,0,0,0,.7-1.8,2.3,2.3,0,0,0-2-2.6Z" style="fill: #000072"/>
      <ellipse cx="118.9" cy="38.4" rx="3.1" ry="2.6" transform="translate(75.9 155.7) rotate(-87.7)" style="fill: #ffcfae"/>
      <g style="opacity: 0.30000000000000004">
        <path d="M121.5,38.5a2.7,2.7,0,1,1-5.3-.2V38a2.6,2.6,0,0,0,2.2,1.6,2.8,2.8,0,0,0,2.7-2.7A3.5,3.5,0,0,1,121.5,38.5Z" style="fill: #000072"/>
      </g>
      <path d="M118.9,42.1h-.1a3,3,0,0,1-2.3-1.2,4.1,4.1,0,0,1,.2-5.1,3,3,0,0,1,2.3-1,3.5,3.5,0,0,1,3.1,3.8h0a4,4,0,0,1-1,2.5A3,3,0,0,1,118.9,42.1Zm.1-6.2a1.9,1.9,0,0,0-1.4.7,2.9,2.9,0,0,0-.1,3.6,1.8,1.8,0,0,0,2.9.1,2.8,2.8,0,0,0,.7-1.8,2.3,2.3,0,0,0-2-2.6Z" style="fill: #000072"/>
      <path d="M143.8,42.9h0c-.2,4.4-6,5.2-6,5.2a28.6,28.6,0,0,1-6.3.4h-.3a28.7,28.7,0,0,1-6-.9s-5.8-1.3-5.6-5.7a2.8,2.8,0,0,1,.8-1.8l.3-.3s-.2-1.7-.3-3.1v-.2c0-.6-.1-1.1-.1-1.5a9.6,9.6,0,0,1,.3-2.1c1.2-4.8,6-7.3,11.8-7.1s9.3,2.6,10.8,6.5a8.9,8.9,0,0,1,.5,3.3v.4c0,.3-.1.8-.2,1.4s-.6,3.3-.6,3.3l.2.2A2.8,2.8,0,0,1,143.8,42.9Z" style="fill: #ffcfae"/>
      <g>
        <path d="M132.4,25.8h0Z" style="fill: #ffcbbd"/>
        <path d="M132.4,25.9h0Z" style="fill: #000072"/>
      </g>
      <g>
        <path d="M132.4,25.8h0Z" style="fill: #ffcbbd"/>
        <path d="M132.4,25.9h0Z" style="fill: #000072"/>
      </g>
      <g>
        <path d="M132.3,25.8h0Z" style="fill: #ffcbbd"/>
        <path d="M132.4,25.9h0Z" style="fill: #000072"/>
      </g>
      <path d="M132.9,49.1h-1.4a29.3,29.3,0,0,1-6.4-.9c-.2-.1-6.2-1.5-6-6.3a3.4,3.4,0,0,1,1.1-2.4c-.1-.9-.4-3.6-.4-4.6a9.1,9.1,0,0,1,3.9-7.4,14.6,14.6,0,0,1,8.7-2.4h.1a14.6,14.6,0,0,1,8.5,3,9.1,9.1,0,0,1,3.3,7.7c-.1,1-.5,3.6-.7,4.5a3.4,3.4,0,0,1,.9,2.4c-.2,4.8-6.3,5.7-6.5,5.8A29.7,29.7,0,0,1,132.9,49.1Zm-1.3-1.2a28.2,28.2,0,0,0,6.2-.4c.1,0,5.4-.9,5.6-4.7a2.3,2.3,0,0,0-.7-1.7.6.6,0,0,1-.2-.6s.7-3.6.7-4.7a7.9,7.9,0,0,0-2.9-6.8,14.1,14.1,0,0,0-15.9-.6,7.9,7.9,0,0,0-3.4,6.5c0,1.1.4,4.7.4,4.7a.6.6,0,0,1-.2.5,2.2,2.2,0,0,0-.8,1.7c-.2,3.8,5.1,5.1,5.2,5.1a28.2,28.2,0,0,0,6.1.9h.1Z" style="fill: #000072"/>
      <polygon points="122 32.6 121.6 36 121.1 40.1 119.7 40.1 119.3 36.7 118.8 33.3 120.6 32.9 122 32.6" style="fill: #94452f"/>
      <path d="M120.2,40.7h-.1a1.3,1.3,0,0,1-1.3-1.2l-.8-6.2a.6.6,0,0,1,1.1-.2l.8,6.2.2.2.2-.2.8-6.8a.6.6,0,1,1,1.1.1l-.8,6.8A1.4,1.4,0,0,1,120.2,40.7Z" style="fill: #000072"/>
      <path d="M145.1,31.8l-.7,3.4-1.1,5.2a.8.8,0,0,1-.3.4h-.5a.8.8,0,0,1-.7-.7l-.2-4.3V33.1l1.5-.8Z" style="fill: #94452f"/>
      <path d="M142.6,41.6h-.1a1.4,1.4,0,0,1-1.3-1.3l-.3-7.2a.6.6,0,0,1,1.2,0l.3,7.2.2.2.2-.2,1.8-8.6a.6.6,0,0,1,1.1.2L144,40.5A1.3,1.3,0,0,1,142.6,41.6Z" style="fill: #000072"/>
      <g style="opacity: 0.30000000000000004">
        <path d="M132.4,25.8h0Z" style="fill: #6b184e"/>
        <path d="M132.4,25.9h0Z" style="fill: #000072"/>
      </g>
      <g style="opacity: 0.30000000000000004">
        <path d="M143.8,42.9h0c-.2,4.4-6,5.2-6,5.2a28.6,28.6,0,0,1-6.3.4h-.3a28.7,28.7,0,0,1-6-.9s-5.8-1.3-5.6-5.7a2.8,2.8,0,0,1,.1-.8c.7,3.5,5.5,4.7,5.5,4.7a28.8,28.8,0,0,0,6,.9h.3a28.6,28.6,0,0,0,6.3-.4s4.9-.7,5.9-4.2A2.8,2.8,0,0,1,143.8,42.9Z" style="fill: #000072"/>
      </g>
      <g style="opacity: 0.30000000000000004">
        <path d="M144.4,35.7c0,.3-.2,1.1-.3,1.7a10.4,10.4,0,0,1-5.1-1,18.7,18.7,0,0,1-4.5-3.4,18,18,0,0,0,.5,3.2.6.6,0,0,1-.8.8,19.5,19.5,0,0,1-7.8-4.4,15.6,15.6,0,0,0,.6,2.7.6.6,0,0,1-.9.7,10.6,10.6,0,0,1-3.8-2.4c-.5,1.8-2.6,3.3-3.3,3.7V35.6c0-.6,1.3-.3,1.3-.6a9.6,9.6,0,0,1,.3-2.1c1.2-4.8,6-7.3,11.8-7.1s9.3,2.6,10.8,6.5a8.9,8.9,0,0,1,.5,3.3C143.7,35.7,144.4,35.5,144.4,35.7Z" style="fill: #000072"/>
      </g>
      <path d="M122.5,32a10.6,10.6,0,0,0,3.8,2.4.6.6,0,0,0,.9-.7,15.6,15.6,0,0,1-.6-2.7,19.5,19.5,0,0,0,7.8,4.4.6.6,0,0,0,.8-.8,18.1,18.1,0,0,1-.5-3.2,18.7,18.7,0,0,0,4.5,3.4,8.6,8.6,0,0,0,5.3.9l.8-3.9s3.2-1.6,4.1-3a13.7,13.7,0,0,1-3.8-1.7,12.5,12.5,0,0,0,2.4-3.3c-2.1-.3-8.8-3.3-12.3-4.2s-8.8-1.1-14.1,3.8-6.2,4-6.2,4l3.1,4.2.6,3.8S121.4,35.9,122.5,32Z" style="fill: #94452f"/>
      <g>
        <path d="M127.1,33.6a.6.6,0,0,1,0,.4,10.5,10.5,0,0,1-.2-1.4h0Z" style="fill: #925a4d"/>
        <path d="M127.1,34.1H127a10.4,10.4,0,0,1-.2-1.4h.2l.2.9h0a.7.7,0,0,1,0,.5Z" style="fill: #000072"/>
      </g>
      <g style="opacity: 0.5">
        <path d="M148,23.4a8.8,8.8,0,0,1-.9,1.5C144.3,24,139,21.8,136,21s-8.4-.6-14.1,3.8a12.3,12.3,0,0,1-6.5,2.2s2-.1,6.2-4,10.6-4.7,14.1-3.8S145.9,23.1,148,23.4Z" style="fill: #fff"/>
      </g>
      <g style="opacity: 0.30000000000000004">
        <path d="M149.2,28.8c-.9,1.4-4.1,3-4.1,3l-.8,3.9a8.6,8.6,0,0,1-5.3-.9,18.7,18.7,0,0,1-4.5-3.4,18,18,0,0,0,.5,3.2.6.6,0,0,1-.8.8,19.5,19.5,0,0,1-7.8-4.4,15.6,15.6,0,0,0,.6,2.7.6.6,0,0,1-.9.7,10.6,10.6,0,0,1-3.8-2.4c-1.1,3.9-3.6,3.5-3.6,3.5l-.3-1.9c.8-.2,2.2-.9,2.9-3.4a10.6,10.6,0,0,0,3.8,2.4.6.6,0,0,0,.9-.7,15.6,15.6,0,0,1-.6-2.7,19.5,19.5,0,0,0,7.8,4.4.6.6,0,0,0,.8-.8,18,18,0,0,1-.5-3.2,18.7,18.7,0,0,0,4.5,3.4,8.8,8.8,0,0,0,2.9.9,2.6,2.6,0,0,0,2.9-2.1h0a4,4,0,0,1,1.8-2.6l1.6-1.1Z" style="fill: #000072"/>
      </g>
      <path d="M144.4,36.2h-.1a.6.6,0,0,1-.4-.7h0l.8-3.9a.6.6,0,0,1,.3-.4,17.2,17.2,0,0,0,3.4-2.2,11.4,11.4,0,0,1-3.2-1.6.6.6,0,0,1,0-.9,13.1,13.1,0,0,0,2-2.5l-4.9-1.7c-2.4-.9-4.9-1.8-6.6-2.3a14.2,14.2,0,0,0-13.6,3.7,18,18,0,0,1-5.6,3.9l2.6,3.5v.2l.6,3.8a.6.6,0,1,1-1.1.2l-.6-3.7-3-4.1a.6.6,0,0,1,.4-.9s1.9-.2,5.9-3.8,9.2-5.3,14.7-4a70.6,70.6,0,0,1,6.8,2.3,44.5,44.5,0,0,0,5.5,1.8l.4.3a.6.6,0,0,1,0,.5,12,12,0,0,1-2.1,2.9,15.9,15.9,0,0,0,3.1,1.3.6.6,0,0,1,.3.9c-.9,1.3-3.3,2.7-4.1,3.1l-.7,3.6A.6.6,0,0,1,144.4,36.2Z" style="fill: #000072"/>
      <path d="M142.7,36.3h0a9.1,9.1,0,0,1-3.9-1.1,17.2,17.2,0,0,1-3.4-2.4c.1.6.2,1.1.3,1.5a1.2,1.2,0,0,1-1.5,1.5,19.2,19.2,0,0,1-6.8-3.5l.3,1.1a1.2,1.2,0,0,1-1.7,1.4,15.8,15.8,0,0,1-3.3-1.9,5.4,5.4,0,0,1-1.4,2.2.6.6,0,1,1-.8-.9,5,5,0,0,0,1.4-2.5.6.6,0,0,1,1-.2,10.6,10.6,0,0,0,3.5,2.2h.1a15.4,15.4,0,0,1-.6-2.8.6.6,0,0,1,1-.5,19.1,19.1,0,0,0,7.5,4.2h.1a18.7,18.7,0,0,1-.6-3.3.6.6,0,0,1,1-.4,18.2,18.2,0,0,0,4.3,3.3,7.8,7.8,0,0,0,3.4.9.6.6,0,0,1,0,1.2Z" style="fill: #000072"/>
      <g>
        <path d="M129,42.8a2.8,2.8,0,0,0,.4,1.7,2.3,2.3,0,0,0,1.9,1.1,2.5,2.5,0,0,0,1.9-.9,2.6,2.6,0,0,0,.7-1.6c0-.6-.2-.6-.7-.5l-.6.2a3.5,3.5,0,0,1-1.3.2,3.6,3.6,0,0,1-1.3-.4l-.5-.2C129.3,42.2,129,42.2,129,42.8Z" style="fill: #000072"/>
        <path d="M129.6,42.6a1.1,1.1,0,0,0,1,1.1h1.6a1.1,1.1,0,0,0,1.1-1.1h0l-.6.2a3.5,3.5,0,0,1-1.3.2,3.6,3.6,0,0,1-1.3-.4l-.5-.2h0Z" style="fill: #fff;stroke: #000072;stroke-linecap: round;stroke-linejoin: round;stroke-width: 0px"/>
        <g>
          <path d="M129.5,44.5a2.3,2.3,0,0,0,1.9,1.1,2.5,2.5,0,0,0,1.9-.9c-.3-.2-1.3-.6-1.7-.2a.2.2,0,1,1-.3,0C130.8,44,129.8,44.3,129.5,44.5Z" style="fill: #ff4aa1"/>
          <path d="M131.5,45.6h-.1a2.4,2.4,0,0,1-1.9-1.1h0c.3-.2,1.4-.4,1.8,0v.2l.2-.2c.5-.4,1.5,0,1.8.2h0A2.5,2.5,0,0,1,131.5,45.6Zm-1.9-1.1a2.3,2.3,0,0,0,1.8,1,2.4,2.4,0,0,0,1.8-.8c-.3-.2-1.2-.5-1.6-.2a.6.6,0,0,0-.2.3h-.1a.6.6,0,0,0-.1-.3C130.8,44.1,129.9,44.3,129.5,44.5Z" style="fill: #390075"/>
        </g>
        <path d="M131.5,45.8h-.1a2.6,2.6,0,0,1-2-1.1,3.1,3.1,0,0,1-.6-2h0a.9.9,0,0,1,.3-.7.8.8,0,0,1,.7,0l.4.2h.2l1.2.3,1.2-.2h.6a.7.7,0,0,1,1,.8A3,3,0,0,1,131.5,45.8Zm-2.1-3.3a.7.7,0,0,0-.1.3h0a2.5,2.5,0,0,0,.5,1.6,2.1,2.1,0,0,0,1.6.8,2.4,2.4,0,0,0,2.3-2.2c0-.2,0-.3,0-.3h-.9a3.7,3.7,0,0,1-1.3.2,3.9,3.9,0,0,1-1.4-.4H130l-.4-.2Zm-.3.3h0Z" style="fill: #000072"/>
      </g>
      <path d="M138.7,40.7a3.7,3.7,0,0,0-.8-1.2l-.5-.3h-1.2l-.5.4a2.8,2.8,0,0,0-.4,1.4H135a2.5,2.5,0,0,1-.1-.9,2.2,2.2,0,0,1,.2-.9V39l.2-.2.4-.3.5-.2h1.5a2,2,0,0,1,.8.6,2.5,2.5,0,0,1,.5,1.7h-.3Z" style="fill: #000072"/>
      <path d="M124.5,39.9a2.5,2.5,0,0,1,.6-1.7,2,2,0,0,1,.8-.6h1.5l.5.2.4.3v.4a2.2,2.2,0,0,1,.2.9,2.5,2.5,0,0,1-.2.9h-.3a2.8,2.8,0,0,0-.4-1.4l-.4-.4h-1.2l-.5.3a3.7,3.7,0,0,0-.9,1.2h-.3Z" style="fill: #000072"/>
    </g>
    <path d="M152.5,43.2h.6l.4-.2.4-.3.3-.2h.9l.2.2h.1l.2.3.3.5.3.3h.1l.2-.2a1,1,0,0,0,0-.4,3.3,3.3,0,0,0-.3-1l-.3-.4-.3-.3-1-.5h0l.7-.2h.7l.4.2.3.3.4.6a3.3,3.3,0,0,1,.4,1.3,2,2,0,0,1-.1.8,1.3,1.3,0,0,1-.6.7h-.5l-.5-.2-.6-.5-.4-.5-.2-.2h-.1l-.7.3H153a1.2,1.2,0,0,1-.6-.4.1.1,0,0,1,0-.1h.1Z" style="fill: #000072"/>
    <path d="M156.9,46.5c-2.2,0-3.1-2.1-3.2-3.2a.4.4,0,0,1,.7-.1c0,.1.3,2.6,2.6,2.6a.4.4,0,0,1,0,.7Z" style="fill: #000072"/>
    <path d="M156.4,42.3a.4.4,0,0,1-.1-.9l1.5-.5a.4.4,0,0,1,.3.8,8.3,8.3,0,0,1-1.7.5Z" style="fill: #000072"/>
    <g style="opacity: 0.5">
      <path d="M122.1,19.1l-2,2.5a21.1,21.1,0,0,0-1.6,2.6,19.5,19.5,0,0,0-1.2,2.8l-.3.7-.3.7-.4.7-.5.8h-.1a1.1,1.1,0,0,1-1.5.2l-.3-.4a5,5,0,0,1-.3-1,7.3,7.3,0,0,1-.1-1,8.5,8.5,0,0,1,0-1l.2-1a13.3,13.3,0,0,1,1.6-3.5,13.6,13.6,0,0,1,2.5-2.9,11.8,11.8,0,0,1,3.1-2,1,1,0,0,1,1.1,1.6Z" style="fill: #fff"/>
    </g>
    <g style="opacity: 0.5">
      <path d="M124.6,15.5l.5-.4.5-.3.5-.3.5-.3,2.3-.8,2.4-.4,1.2.2a3.1,3.1,0,0,1,1.2.7,1.3,1.3,0,0,1,0,1.8h-.1l-.5.4-.5.3-.5.2h-.5l-2,.2-2,.2h-2.2a1,1,0,0,1-.7-1.8Z" style="fill: #fff"/>
    </g>
  </g>
</svg>
