<svg id="Layer_1" data-name="Layer 1" xmlns="http://www.w3.org/2000/svg" viewBox="0 0 120 120">
  <title>Container1</title>
  <g>
    <g>
      <g>
        <path d="M68.6,84.6s3-2.1,5.4-1.5,4.3,3.9,2.3,7.1-7.7.9-7.7.9Z" style="fill: #61547a"/>
        <g style="opacity: 0.30000000000000004">
          <path d="M68.6,84.6v.6c1-.6,3.1-1.6,4.8-1.1a4.5,4.5,0,0,1,2.6,6.5l.2-.3c2-3.2.3-6.4-2.3-7.1S68.6,84.6,68.6,84.6Z" style="fill: #fff"/>
        </g>
        <g style="opacity: 0.30000000000000004">
          <path d="M76.4,90.1h0c-2.3,4-7.8,1-7.8,1V84.6a10.6,10.6,0,0,1,2.9-1.4v3.6a3.5,3.5,0,0,0,4.8,3.4Z" style="fill: #181558"/>
        </g>
        <path d="M72.6,92.8a9.6,9.6,0,0,1-4.3-1.1.7.7,0,0,1-.4-.6V84.6a.7.7,0,0,1,.3-.6c.1-.1,3.3-2.3,6-1.6a5.1,5.1,0,0,1,3.4,3,5.6,5.6,0,0,1-.7,5.1A4.8,4.8,0,0,1,72.6,92.8Zm-3.3-2.2c1.2.5,4.7,1.9,6.4-.8a4.3,4.3,0,0,0,.5-3.9,3.7,3.7,0,0,0-2.4-2.2c-1.5-.4-3.6.6-4.5,1.2Z" style="fill: #181558"/>
      </g>
      <path d="M52.6,68.6c-14.1,4.9-21.3-6.8-22-8.4s1-3.4,1-3.4c-.4-3,2.9-2.5,2.9-2.5s.8-3.8,5.9.8l.6.5C44,58,48.5,58.8,52,59.1h.3l.2,6.8v2.6Z" style="fill: #61547a"/>
      <g style="opacity: 0.30000000000000004">
        <path d="M38.9,54c-3.1-1.6-3.4.6-3.8,1.1s-1.3.1-2,.7-.3,1.4-.8,1.8-2.2.7-1,3.4a17,17,0,0,0,2.6,3.7,17.9,17.9,0,0,1-3.4-4.4c-1.3-2.7,1-3.4,1-3.4-.4-3,2.8-2.5,2.8-2.5S35,51.1,38.9,54Z" style="fill: #fff"/>
      </g>
      <g style="opacity: 0.30000000000000004">
        <path d="M52.6,68.6h0c-14.1,4.9-21.3-6.8-22-8.4a2.8,2.8,0,0,1-.2-2.3v.3c.9,2.5,7.6,11.1,20,8.5A1.8,1.8,0,0,1,52.6,68.6Z" style="fill: #181558"/>
      </g>
      <path d="M46,70.4a17.1,17.1,0,0,1-9.8-3.1,20,20,0,0,1-6.3-6.9,3.4,3.4,0,0,1-.2-2.9,2.6,2.6,0,0,1,1.1-1.2,2.6,2.6,0,0,1,.7-2,3.4,3.4,0,0,1,2.4-.8,2.6,2.6,0,0,1,1.5-1.4c1.4-.4,3.1.3,5.3,2.3s8.1,3.7,11.7,3.9a.7.7,0,1,1-.1,1.4c-3.8-.2-9.1-1.1-12.5-4.2s-3.5-2.2-4-2a1.3,1.3,0,0,0-.8.9.7.7,0,0,1-.8.5,2.4,2.4,0,0,0-1.8.4,1.5,1.5,0,0,0-.3,1.3.7.7,0,0,1-.5.8h0a1.4,1.4,0,0,0-.8.7,2.2,2.2,0,0,0,.2,1.7A18.7,18.7,0,0,0,37,66.2c4.5,3.1,9.7,3.7,15.4,1.7a.7.7,0,1,1,.5,1.3A20.7,20.7,0,0,1,46,70.4Z" style="fill: #181558"/>
      <ellipse cx="37.1" cy="59.9" rx="2.3" ry="2.3" transform="translate(-29 35.6) rotate(-38.1)" style="fill: #fff"/>
      <circle cx="33.2" cy="59.6" r="0.9" transform="translate(-30.5 35.2) rotate(-39.9)" style="fill: #fff"/>
      <circle cx="34.1" cy="57.1" r="0.9" transform="translate(-28.7 35.1) rotate(-39.9)" style="fill: #fff"/>
      <circle cx="36.8" cy="56.1" r="0.9" transform="translate(-27.4 36.6) rotate(-39.9)" style="fill: #fff"/>
      <path d="M47.9,84.7c-6-1.2-11,5.4-14.2,1.3s5.7-12.3,12.4-11.1" style="fill: #61547a"/>
      <path d="M36.3,88.1a3.8,3.8,0,0,1-3.1-1.6c-1.3-1.6-1.3-3.7,0-5.8,2.2-3.7,8.1-7.3,13-6.4a.7.7,0,1,1-.2,1.4c-4.3-.7-9.7,2.5-11.6,5.8-.7,1.1-1.3,2.8-.1,4.2s3.1,1.1,5.9-.1,4.9-2.1,7.9-1.5a.7.7,0,1,1-.3,1.4c-2.5-.5-4.9.5-7,1.4A12.2,12.2,0,0,1,36.3,88.1Z" style="fill: #181558"/>
      <path d="M74.8,79.6c-.8,7.7-4,13.5-11.7,13.1a20.7,20.7,0,0,1-5.3-1.1C53,90.1,48.1,88.3,44.7,84l-.8-1.2c-1.7-2.6-1.4-5.3-.3-8.3a65.7,65.7,0,0,1,3.2-6.8c1.9-3.8,4-8,4.6-12.8l20.3,1.3A73.1,73.1,0,0,1,74.7,70,47.3,47.3,0,0,1,74.8,79.6Z" style="fill: #fff"/>
      <path d="M74.9,79.7a28.4,28.4,0,0,1-.5,3.3c-.7,3.3-2,6-4.2,7.7s-6.7,2.9-12.4,1-10.6-3.7-13.9-8.8c-1.7-2.6-1.4-5.3-.3-8.3h0C51.4,82.2,69.4,80.5,74.9,79.7Z" style="fill: #61547a"/>
      <g style="opacity: 0.30000000000000004">
        <path d="M74.4,83c-.7,3.3-2,6-4.2,7.7l-1-2.4A14.1,14.1,0,0,0,74.4,83Z" style="fill: #181558"/>
      </g>
      <path d="M74.8,70.1c-6.4-.5-13.7-2.9-19.1-3.2a28.9,28.9,0,0,0-4.3,0,18.8,18.8,0,0,0-4.5.9c.6-1.1.7-2.5,1.2-3.6s2.2-3.8,2.8-5.9a25.9,25.9,0,0,0,.7-3.3l20.3,1.3c.4,1.2.7,2.4,1,3.6l.6,2.3A70.9,70.9,0,0,1,74.7,70Z" style="fill: #61547a"/>
      <path d="M72.5,56A68.2,68.2,0,0,1,75,66.4,55.3,55.3,0,0,1,75.7,77a32.8,32.8,0,0,1-.6,5.4,19.1,19.1,0,0,1-1.8,5.2,12.3,12.3,0,0,1-1.6,2.3,10.2,10.2,0,0,1-2.1,1.9,9.9,9.9,0,0,1-2.6,1.2,11.8,11.8,0,0,1-2.8.5,18.2,18.2,0,0,1-5.4-.6l-1.3-.4L56.3,92l-2.5-.9a28.5,28.5,0,0,1-4.9-2.4,18.9,18.9,0,0,1-4.2-3.6l-.4-.5-.4-.5-.8-1.2a7.9,7.9,0,0,1-1-2.7,9.4,9.4,0,0,1,0-2.9,15.6,15.6,0,0,1,.7-2.7A42,42,0,0,1,45,69.7l1.3-2.3,1.4-2.2a.4.4,0,0,1,.6.3,21.9,21.9,0,0,1-.9,2.5l-1.1,2.4a40.7,40.7,0,0,0-2.1,4.8,14.2,14.2,0,0,0-.6,2.4,8,8,0,0,0,0,2.4,6.7,6.7,0,0,0,.8,2.2l.7,1,.4.5.4.5a17.4,17.4,0,0,0,3.8,3.3,27.3,27.3,0,0,0,4.6,2.3l2.5.9L58,91l1.2.4a16.8,16.8,0,0,0,5,.6,9.2,9.2,0,0,0,4.7-1.4,9.6,9.6,0,0,0,3.2-3.7,17.8,17.8,0,0,0,1.6-4.8,31.4,31.4,0,0,0,.6-5.1,53.9,53.9,0,0,0-.7-10.4,66.8,66.8,0,0,0-2.5-10.2h0a.7.7,0,1,1,1.3-.4Z" style="fill: #181558"/>
      <g style="opacity: 0.30000000000000004">
        <polygon points="86.5 66.8 86.5 66.8 86.5 66.8 86.5 66.8" style="fill: #fff"/>
      </g>
      <path d="M93.2,59.2c-.6,1.6-6,12.4-18.5,10.8L72,69.5l-.4-6.7L71.4,60l1.4-.2a24,24,0,0,0,6.6-2.1,13,13,0,0,0,3.6-2.7c4.6-5,5.8-1.3,5.8-1.3s3.2-.8,3.1,2.2C92,55.9,94.2,56.4,93.2,59.2Z" style="fill: #61547a"/>
      <g style="opacity: 0.30000000000000004">
        <path d="M72,69.5h0c14.4,3.6,20.6-8.6,21.2-10.3a2.8,2.8,0,0,0,0-2.3v.3C92.5,59.8,84.2,68.8,72,69.5Z" style="fill: #181558"/>
      </g>
      <path d="M71.3,59.4a29.1,29.1,0,0,0,4.8-1.1l1.2-.4,1.1-.5,1.1-.5,1-.6.5-.3.5-.4.4-.4.4-.4.2-.2.2-.2.5-.5,1-.9,1.2-.8a4,4,0,0,1,1.5-.5h.9l.8.4.6.6.2.3v.2h.1l-.8-.5H90a3.3,3.3,0,0,1,1.3.3,2.4,2.4,0,0,1,1,1.1,3.1,3.1,0,0,1,.3,1.3h0v-.2h0l.6.4a2.5,2.5,0,0,1,.9,1.2,3.1,3.1,0,0,1,.1,1.4,5.2,5.2,0,0,1-.3,1.2l-.5,1.1-.5,1-1.2,1.8a20.6,20.6,0,0,1-3,3.3,16.8,16.8,0,0,1-7.9,4,16.6,16.6,0,0,1-4.4.2,15.9,15.9,0,0,1-4.3-1,.3.3,0,0,1,.2-.7h0l4.2.3a18.1,18.1,0,0,0,4.1-.4,16,16,0,0,0,3.9-1.3l1.8-1,1.6-1.2a18.9,18.9,0,0,0,2.8-3l1.2-1.7.5-.9.4-.9a2.5,2.5,0,0,0,.2-1.6,1.1,1.1,0,0,0-.4-.5l-.3-.2h-.1l-.4-.3-.2-.4v-.2h0a1.7,1.7,0,0,0-.1-.7.9.9,0,0,0-.4-.4l-.8-.2h-.9a.7.7,0,0,1-.8-.4h-.1v-.2l-.3-.3A1,1,0,0,0,87,53l-.9.3-.9.6-.9.8-.4.4-.2.2-.2.2-.5.5-.5.4-.5.4-.5.4-1.1.7-1.2.6-1.2.5-1.2.4a30.4,30.4,0,0,1-5.1,1.1.7.7,0,0,1-.2-1.4Z" style="fill: #181558"/>
      <path d="M37.6,37.8c.9.7,2,1.1,2.7.1l.6-1a12.9,12.9,0,0,1,1.5-2.3,14.2,14.2,0,0,1,3.8-3.1.9.9,0,0,0,.5-.9c-.4-2-2-3.3-5.3-3.4a6.9,6.9,0,0,0-4.5,1.5l-.3.3h-.4a3.2,3.2,0,0,0-.5.9A6.3,6.3,0,0,0,37.6,37.8Z" style="fill: #61547a"/>
      <g style="opacity: 0.30000000000000004">
        <path d="M36.9,28.8c4.6-2.5,8.2,1.4,9.3,2.8a.9.9,0,0,0,.5-.9c-.4-2-2-3.3-5.3-3.4A6.9,6.9,0,0,0,36.9,28.8Z" style="fill: #fff"/>
      </g>
      <g style="opacity: 0.30000000000000004">
        <path d="M37.6,37.8c.9.7,2,1.1,2.7.1l.6-1a2.4,2.4,0,0,1-1.7-.5,7.1,7.1,0,0,1-2.5-7.4h-.4a3.2,3.2,0,0,0-.5.9A6.3,6.3,0,0,0,37.6,37.8Z" style="fill: #181558"/>
      </g>
      <path d="M39.4,39.3a5,5,0,0,1-3.5-2.1,7.1,7.1,0,0,1-.9-6.9,6.3,6.3,0,0,1,5.5-3.8,7,7,0,0,1,6.9,3.8.7.7,0,0,1-1.3.7,5.6,5.6,0,0,0-5.5-3,4.9,4.9,0,0,0-4.3,2.9,5.7,5.7,0,0,0,.7,5.6,3.6,3.6,0,0,0,2.4,1.5.7.7,0,0,1,.1,1.4Z" style="fill: #181558"/>
      <path d="M70.7,27.5c.2,1.6,1.8.6,4.9,2.8A18.1,18.1,0,0,1,78,32.4a2.1,2.1,0,0,0,3-.4,6.3,6.3,0,0,0,0-7.6c-1-1.5-3.8-2.3-6.3-1.6S70.5,25.4,70.7,27.5Z" style="fill: #61547a"/>
      <g style="opacity: 0.30000000000000004">
        <path d="M77.3,31.7l.7.7a2.1,2.1,0,0,0,3-.4,6.3,6.3,0,0,0,0-7.6,3.6,3.6,0,0,0-1.2-1.1,6.7,6.7,0,0,1-.4,7.5A2.3,2.3,0,0,1,77.3,31.7Z" style="fill: #181558"/>
      </g>
      <g style="opacity: 0.30000000000000004">
        <path d="M79.5,23.2c-5.1-1.2-7.6,3.5-8.2,5.1-.4-.2-.6-.4-.7-.8-.2-2,1.1-3.7,4.2-4.6A6.9,6.9,0,0,1,79.5,23.2Z" style="fill: #fff"/>
      </g>
      <path d="M79.4,34a.7.7,0,0,1-.1-1.4,3.6,3.6,0,0,0,2-2.1,5.7,5.7,0,0,0-.8-5.6,4.9,4.9,0,0,0-4.9-1.7A5.6,5.6,0,0,0,71,27.5a.7.7,0,0,1-1.4-.3,7,7,0,0,1,5.7-5.4,6.3,6.3,0,0,1,6.4,2.3,7.1,7.1,0,0,1,.9,7,4.8,4.8,0,0,1-3,3Z" style="fill: #181558"/>
      <g style="opacity: 0.30000000000000004">
        <path d="M79.5,57.7a15.1,15.1,0,0,1-4.1,3.4l-1.9,1-1.8.7a41.5,41.5,0,0,1-9,2.2A40,40,0,0,1,51.3,65l-2-.4-.8-.2a13.9,13.9,0,0,1-4.3-2.1,12.4,12.4,0,0,1-4.4-7v-.6c3.1,2.5,7.6,3.3,11.2,3.5a25.9,25.9,0,0,0,.7-3.3l20.3,1.3c.4,1.2.7,2.4,1,3.6A24,24,0,0,0,79.5,57.7Z" style="fill: #181558"/>
      </g>
      <path d="M38,51.8l.2.8a12.4,12.4,0,0,0,4.8,7.1,16.3,16.3,0,0,0,5.5,2.4,41.2,41.2,0,0,0,14.5.4,41.1,41.1,0,0,0,13.8-4.2,16.3,16.3,0,0,0,4.7-3.7,12.4,12.4,0,0,0,2.7-8.1,9.7,9.7,0,0,0,0-1.1C83.7,41.4,81.1,34,78,31a27.4,27.4,0,0,0-4.2-3.4c-3.3-2.1-7.5-3.3-14.7-2.9H57.9l-1.2.2c-7.1,1.4-10.8,3.8-13.5,6.7A27.7,27.7,0,0,0,40,36C37.7,39.9,37.2,47.9,38,51.8Z" style="fill: #fff"/>
      <g style="opacity: 0.30000000000000004">
        <path d="M38.1,51.8l.2.8A12.4,12.4,0,0,0,43,59.7a16.3,16.3,0,0,0,5.5,2.4,41.2,41.2,0,0,0,14.5.4,41.1,41.1,0,0,0,13.8-4.2,16.3,16.3,0,0,0,4.7-3.7,12.4,12.4,0,0,0,2.7-8.1,9.7,9.7,0,0,0,0-1.1l-.2-1h0a12.4,12.4,0,0,1-2.7,8.1,16.3,16.3,0,0,1-4.7,3.7,41.1,41.1,0,0,1-13.8,4.2,41.1,41.1,0,0,1-14.5-.4,16.3,16.3,0,0,1-5.5-2.4A12.4,12.4,0,0,1,38,50.6h0C38,50.9,38,51.4,38.1,51.8Z" style="fill: #181558"/>
      </g>
      <path d="M70.4,60.5,73.9,59l1.7-.8.8-.4.8-.5A17,17,0,0,0,80,55.1l1.2-1.3a10.9,10.9,0,0,0,1.6-3.1,11.5,11.5,0,0,0,.4-1.7,16.3,16.3,0,0,0,.2-1.8V45.4a22.9,22.9,0,0,0-.7-3.6,32.6,32.6,0,0,0-1.2-3.5A28.3,28.3,0,0,0,80,34.9a15.7,15.7,0,0,0-2-3l-1.3-1.3-.7-.6-.7-.6a19.1,19.1,0,0,0-3-2,16.2,16.2,0,0,0-3.4-1.3H68l-.9-.2-1.8-.3H57l-.9.2-.9.2-.9.2-.9.2-.9.3-.9.3-.9.3-.8.4-.8.4-1.6.9a16.2,16.2,0,0,0-2.9,2.2A19.7,19.7,0,0,0,42.3,34l-1,1.5-.5.8-.4.8a16.7,16.7,0,0,0-1.1,3.4,28.1,28.1,0,0,0-.6,3.6,34.2,34.2,0,0,0-.2,3.7,21.9,21.9,0,0,0,.3,3.6v.8l.3.9.7,1.7a10.7,10.7,0,0,0,2,2.9l1.3,1.2,1.5,1a18.1,18.1,0,0,0,3.4,1.3l.9.2.9.2,1.8.3,3.7.6h0a.4.4,0,0,1,0,.7,21,21,0,0,1-3.8,0l-1.9-.2-1-.2-.9-.3a19.5,19.5,0,0,1-3.7-1.4,12.7,12.7,0,0,1-3.2-2.4,12.3,12.3,0,0,1-2.3-3.3,15.5,15.5,0,0,1-.7-1.8l-.3-.9v-1a23.5,23.5,0,0,1-.3-3.9,35.7,35.7,0,0,1,.2-3.8,29.9,29.9,0,0,1,.6-3.8,18,18,0,0,1,1.2-3.7l.5-.9.5-.8,1.1-1.6a21.2,21.2,0,0,1,2.5-3l.7-.7.8-.6.8-.6.8-.5,1.7-.9.9-.4.9-.4.9-.3.9-.3.9-.3.9-.3.9-.2.9-.2.9-.2,1-.2h7.7l1.9.3,1,.2h.9a17.7,17.7,0,0,1,3.7,1.4,20.6,20.6,0,0,1,3.3,2.1l.7.6.7.6,1.4,1.4a17.1,17.1,0,0,1,2.2,3.3,29.2,29.2,0,0,1,1.6,3.5,34.1,34.1,0,0,1,1.2,3.7,24.3,24.3,0,0,1,.7,3.8v2a16.4,16.4,0,0,1-.2,2,13,13,0,0,1-.5,1.9,12.4,12.4,0,0,1-1.9,3.5L81,56.1a18.4,18.4,0,0,1-3.1,2.4L77,59l-.9.5-1.8.8a18.6,18.6,0,0,1-3.7,1,.4.4,0,0,1-.2-.7Z" style="fill: #181558"/>
      <path d="M77.1,49.6s3-1.1,1.5-4.8-8.3-5.5-10.1-4.9A3.2,3.2,0,0,0,66.2,43c0,1,.3,5.7,3.1,6.8A11.9,11.9,0,0,0,77.1,49.6Z" style="fill: #61547a"/>
      <path d="M53.5,52.8s4.3-1.1,2.9-6.1-2.7-5.2-5.3-4.7-6.3,3.4-7.4,5.3-.9,5.1-.1,6.3,2.5,1.3,5,.8A21.5,21.5,0,0,0,53.5,52.8Z" style="fill: #61547a"/>
      <path d="M65.6,50.6a4.4,4.4,0,0,1-.1.7,2.8,2.8,0,0,1-.2.7,2,2,0,0,1-.5.7l-.8.4a2.4,2.4,0,0,1-1.6-.4,3,3,0,0,1-1.1-1.2h1a2.9,2.9,0,0,1-.8,1.4,2.4,2.4,0,0,1-1.5.8l-.9-.2-.7-.5a3.3,3.3,0,0,1-.6-1.4.3.3,0,0,1,.2-.3h.3l.3.5.4.4a1,1,0,0,0,.8.3,1.6,1.6,0,0,0,.8-.5,2.1,2.1,0,0,0,.5-.9l.3-1.4.7,1.3a2.1,2.1,0,0,0,.7.8,1.5,1.5,0,0,0,.9.3.9.9,0,0,0,.7-.5,3.4,3.4,0,0,0,.4-1.1h0a.4.4,0,0,1,.7.1Z" style="fill: #181558"/>
      <polygon points="61.6 48.9 62.3 51.7 61.2 51.8 61.3 48.9 61.6 48.9" style="fill: #181558"/>
      <path d="M58.4,49.6c.1.9,1.6,1.5,3.2,1.3s2.9-1.1,2.8-2-1.5-.7-3.1-.5S58.3,48.7,58.4,49.6Z" style="fill: #181558"/>
      <g style="opacity: 0.30000000000000004">
        <path d="M60.1,48.8c0,.3.6.4,1.2.3s1.1-.3,1.1-.6-.5-.2-1.1-.1S60.1,48.6,60.1,48.8Z" style="fill: #fff"/>
      </g>
      <path d="M48.3,39.1c-.3-.3,1-4.6,4.1-4.2,1.1.2,1.1,1.1.5,1.5s-1.5.5-2.2.9S48.6,39.4,48.3,39.1Z" style="fill: #5f7093"/>
      <path d="M71.2,35.9c.2-.4-2.3-4.2-5.1-2.9-1,.5-.7,1.4-.1,1.6s1.6.1,2.4.3S71.1,36.3,71.2,35.9Z" style="fill: #5f7093"/>
      <ellipse cx="76.3" cy="50.3" rx="3.1" ry="1.5" transform="matrix(0.99, -0.14, 0.14, 0.99, -6.28, 11.17)" style="fill: #ff67a0"/>
      <ellipse cx="47.7" cy="54.9" rx="3" ry="1.4" transform="translate(-7.2 7.2) rotate(-8)" style="fill: #ff67a0"/>
      <g style="opacity: 0.30000000000000004">
        <polygon points="62.4 92.7 62.4 92.7 62.4 92.7 62.4 92.7" style="fill: #fff"/>
      </g>
      <g style="opacity: 0.2">
        <path d="M69.4,92.2A33.9,33.9,0,0,1,64,93.8a8.2,8.2,0,0,0-3.4,1.5c-4.7,3.7-15.1,4.4-14.7-7.2.2-5.3,4.7-7.5,6.9-8.3h0l.9.7,6.1,4.8a104.5,104.5,0,0,0,9,6.5H69Z" style="fill: #390075"/>
      </g>
      <path d="M70.5,90.2c-4.3,3-6,.8-11.6,4.3l-1.4.9c-3.8,1.4-4.3.5-6.5-1.5-5.5-5.1,1.6-21.5,13.5-12.3" style="fill: #61547a"/>
      <g style="opacity: 0.30000000000000004">
        <path d="M70.5,90.2c-4.3,3-6,.8-11.6,4.3l-1.4.9c-3.8,1.4-4.3.5-6.5-1.5a7,7,0,0,1-1.9-5.6,5.9,5.9,0,0,0,1.7,3.1c2.1,2,2.3,1.9,6.1.5.3-.1,2-4.4,2-5.8,1.5,3.3,6.8,4.2,10.4,2.2Z" style="fill: #181558"/>
      </g>
      <g style="opacity: 0.30000000000000004">
        <path d="M64.5,81.6c-7.1-3.4-12.5-.2-15,4.4C51,80.5,56.7,75.7,64.5,81.6Z" style="fill: #fff"/>
      </g>
      <path d="M70.9,90.8A11.7,11.7,0,0,1,68,92.3a19.2,19.2,0,0,1-3.1.7,13.9,13.9,0,0,0-2.8.7A16.7,16.7,0,0,0,59.4,95l-.6.4-.6.5-.4.2h-.4l-.8.2-1.6.3H54l-.9-.3a5.5,5.5,0,0,1-1.4-1l-1.1-1.1a6.5,6.5,0,0,1-1.8-2.9,9.5,9.5,0,0,1-.4-3.3,12.2,12.2,0,0,1,.6-3.2,11.8,11.8,0,0,1,1.5-2.9,10.1,10.1,0,0,1,2.3-2.4,8.1,8.1,0,0,1,3-1.4l1.7-.2h1.7a9.7,9.7,0,0,1,3,1.1,12,12,0,0,1,2.5,1.9.3.3,0,0,1-.4.5h0l-2.6-1.4-.7-.3-.7-.2-.7-.2h-.7a6.8,6.8,0,0,0-2.8.1A6.9,6.9,0,0,0,53.6,81a9.8,9.8,0,0,0-3.2,4.6,10.7,10.7,0,0,0-.6,2.8,8,8,0,0,0,.3,2.8,5.1,5.1,0,0,0,1.4,2.3l1.1,1,1.1.7a2.3,2.3,0,0,0,1.2.2l1.4-.3.7-.2h.5l.6-.4.7-.4a18.1,18.1,0,0,1,2.9-1.4,15.3,15.3,0,0,1,3.1-.8,18,18,0,0,0,2.9-.6,10.3,10.3,0,0,0,2.5-1.3h0a.7.7,0,0,1,.8,1.1Z" style="fill: #181558"/>
      <g>
        <path d="M58.8,94.5a7.7,7.7,0,0,1-6.4,1.7,5.3,5.3,0,0,1-4.2-3.7c-.9-2.3-.6-7.8,2-9.6a2.2,2.2,0,0,1,2.4-.4h.2a3.6,3.6,0,0,1,2.1-.2,2.6,2.6,0,0,1,2.1,2l.2.2a3,3,0,0,1,1.7,1.7c.4,1,0,5.2-2.2,7.5" style="fill: #686779"/>
        <path d="M59.3,95.1a10.4,10.4,0,0,1-2.4,1.4l-1.4.4-1.4.2H51.9l-.7-.2L50,95.9l-1.1-1a6.4,6.4,0,0,1-.8-1.2l-.2-.3v-1a9.9,9.9,0,0,1-.4-2.8,13.8,13.8,0,0,1,.3-2.7,9.9,9.9,0,0,1,.9-2.7,6.1,6.1,0,0,1,.8-1.2l.3-.3.3-.3.3-.2.3-.2a3.1,3.1,0,0,1,1.6-.4l.9.2h.1l1.5-.3h1.6A3.3,3.3,0,0,1,57.2,83l.4.7v.4h-.2a3.9,3.9,0,0,1,1.3.9l.5.6.2.4v.2h.1a4.1,4.1,0,0,1,.1.8,6.9,6.9,0,0,1,0,.7,9.9,9.9,0,0,1-.2,1.4,10.9,10.9,0,0,1-.9,2.6,7.1,7.1,0,0,1-1.7,2.2.3.3,0,0,1-.5-.5h0a10.3,10.3,0,0,0,1.7-4.6c.1-.4.1-.8.1-1.2s0-.4,0-.6a2.8,2.8,0,0,0-.1-.5h-.1v-.2l-.3-.4-.8-.6h-.2l-.2-.2-.2-.3h-.1v-.2l-.2-.4a1.9,1.9,0,0,0-.7-.6h-.9l-1,.2H51.8l-.9.3h-.2l-.2.2-.2.2-.2.2-.6.9a8.5,8.5,0,0,0-.8,2.3,12.5,12.5,0,0,0-.2,2.5,8.6,8.6,0,0,0,.3,2.4v1.1l.6,1a4.3,4.3,0,0,0,1.9,1.2l.6.2H54l1.2-.2,1.1-.4A9,9,0,0,0,58.4,94h0a.7.7,0,0,1,.8,1.1Z" style="fill: #6b184e"/>
      </g>
      <path d="M58.8,94.5a7.7,7.7,0,0,1-6.4,1.7,5.3,5.3,0,0,1-4.2-3.7c-.9-2.3-.6-7.8,2-9.6a2.2,2.2,0,0,1,2.4-.4h.2a3.6,3.6,0,0,1,2.1-.2,2.6,2.6,0,0,1,2.1,2l.2.2a3,3,0,0,1,1.7,1.7c.4,1,0,5.2-2.2,7.5" style="fill: #61547a"/>
      <g style="opacity: 0.30000000000000004">
        <path d="M58.8,94.5a7.7,7.7,0,0,1-6.4,1.7,5.3,5.3,0,0,1-4.2-3.7,10.1,10.1,0,0,1-.4-4.4,6.7,6.7,0,0,0,.4,1.6,5.3,5.3,0,0,0,4.2,3.7,7.1,7.1,0,0,0,5-.8l-.7,1Z" style="fill: #181558"/>
      </g>
      <path d="M59.3,95.1a10.4,10.4,0,0,1-2.4,1.4l-1.4.4-1.4.2H51.9l-.7-.2L50,95.9l-1.1-1a6.4,6.4,0,0,1-.8-1.2l-.2-.3v-1a9.9,9.9,0,0,1-.4-2.8,13.8,13.8,0,0,1,.3-2.7,9.9,9.9,0,0,1,.9-2.7,6.1,6.1,0,0,1,.8-1.2l.3-.3.3-.3.3-.2.3-.2a3.1,3.1,0,0,1,1.6-.4l.9.2h.1l1.5-.3h1.6A3.3,3.3,0,0,1,57.2,83l.4.7v.4h-.2a3.9,3.9,0,0,1,1.3.9l.5.6.2.4v.2h.1a4.1,4.1,0,0,1,.1.8,6.9,6.9,0,0,1,0,.7,9.9,9.9,0,0,1-.2,1.4,10.9,10.9,0,0,1-.9,2.6,7.1,7.1,0,0,1-1.7,2.2.3.3,0,0,1-.5-.5h0a10.3,10.3,0,0,0,1.7-4.6c.1-.4.1-.8.1-1.2s0-.4,0-.6a2.8,2.8,0,0,0-.1-.5h-.1v-.2l-.3-.4-.8-.6h-.2l-.2-.2-.2-.3h-.1v-.2l-.2-.4a1.9,1.9,0,0,0-.7-.6h-.9l-1,.2H51.8l-.9.3h-.2l-.2.2-.2.2-.2.2-.6.9a8.5,8.5,0,0,0-.8,2.3,12.5,12.5,0,0,0-.2,2.5,8.6,8.6,0,0,0,.3,2.4v1.1l.6,1a4.3,4.3,0,0,0,1.9,1.2l.6.2H54l1.2-.2,1.1-.4A9,9,0,0,0,58.4,94h0a.7.7,0,0,1,.8,1.1Z" style="fill: #181558"/>
      <ellipse cx="52.8" cy="90.1" rx="2.7" ry="2.4" transform="translate(-42.8 131.9) rotate(-83.2)" style="fill: #fff"/>
      <ellipse cx="56.3" cy="87.7" rx="1.1" ry="0.9" transform="translate(-41.1 124.8) rotate(-78.2)" style="fill: #fff"/>
      <ellipse cx="54" cy="85.6" rx="1.1" ry="0.9" transform="translate(-40.8 120.9) rotate(-78.2)" style="fill: #fff"/>
      <ellipse cx="51.1" cy="85.8" rx="1.1" ry="0.9" transform="translate(-43.4 118.2) rotate(-78.2)" style="fill: #fff"/>
      <ellipse cx="86.4" cy="59.2" rx="2.3" ry="2.3" transform="matrix(0.62, -0.79, 0.79, 0.62, -13.48, 90.73)" style="fill: #fff"/>
      <circle cx="90.3" cy="58.9" r="0.9" transform="translate(-12.8 90.5) rotate(-50.1)" style="fill: #fff"/>
      <circle cx="89.5" cy="56.4" r="0.9" transform="translate(-11.2 88.9) rotate(-50.1)" style="fill: #fff"/>
      <circle cx="86.8" cy="55.3" r="0.9" transform="translate(-11.3 86.5) rotate(-50.1)" style="fill: #fff"/>
      <g>
        <path d="M52.3,43.3c-1.5,0-2.7,1.7-2.6,3.9s1.3,4,2.8,4,2.7-1.7,2.6-3.9S53.8,43.3,52.3,43.3Z" style="fill: #000072"/>
        <g>
          <path d="M52.3,44.2c-.4.2-.6,1-.3,1.7s.9,1.1,1.4.8.6-1,.3-1.7S52.8,44,52.3,44.2Z" style="fill: #fff"/>
          <path d="M53.1,46.9h-.3a1.6,1.6,0,0,1-.9-.9,1.4,1.4,0,0,1,.3-1.8h.6a1.6,1.6,0,0,1,.9.9,1.4,1.4,0,0,1-.3,1.8Zm-.5-2.7h-.3c-.4.2-.5.9-.2,1.6a1.5,1.5,0,0,0,.8.8h.5c.4-.2.5-.9.2-1.6a1.5,1.5,0,0,0-.8-.8Z" style="fill: #000072"/>
        </g>
        <g>
          <path d="M51.3,49a.7.7,0,0,0,0,.9c.2.3.6.4.8.3a.7.7,0,0,0,0-.9C51.8,48.9,51.5,48.8,51.3,49Z" style="fill: #b199c5"/>
          <path d="M51.8,50.4h-.1a.9.9,0,0,1-.6-.4.8.8,0,0,1,0-1.1h.4a.9.9,0,0,1,.6.4.8.8,0,0,1,0,1.1Zm-.5-1.3c-.2.1-.1.5.1.7l.4.3H52c.2-.1.1-.5-.1-.7l-.4-.3Z" style="fill: #000072"/>
        </g>
      </g>
      <g>
        <path d="M69.9,41c1.5-.3,2.9,1.3,3.2,3.4s-.7,4.1-2.1,4.4-2.9-1.3-3.2-3.4S68.5,41.2,69.9,41Z" style="fill: #000072"/>
        <g>
          <path d="M70.1,41.9c.5.2.7.9.5,1.6s-.7,1.2-1.2,1-.7-.9-.5-1.6S69.6,41.7,70.1,41.9Z" style="fill: #fff"/>
          <path d="M69.6,44.6h-.2c-.5-.2-.8-.9-.6-1.7a1.6,1.6,0,0,1,.7-1h.6c.5.2.8.9.6,1.7a1.6,1.6,0,0,1-.7,1Zm.3-2.7h-.3a1.5,1.5,0,0,0-.6.9c-.2.7,0,1.4.5,1.5h.5a1.5,1.5,0,0,0,.6-.9c.2-.7,0-1.4-.5-1.5h-.2Z" style="fill: #000072"/>
        </g>
        <g>
          <path d="M71.9,46.4a.7.7,0,0,1,.1.9c-.2.4-.5.5-.7.4a.7.7,0,0,1-.1-.9C71.3,46.4,71.6,46.3,71.9,46.4Z" style="fill: #b199c5"/>
          <path d="M71.4,47.9h-.3a.8.8,0,0,1-.1-1.1.9.9,0,0,1,.5-.5h.4a.8.8,0,0,1,.1,1.1.9.9,0,0,1-.5.5Zm.3-1.4h-.1l-.4.3c-.1.3-.1.6.1.7h.2l.4-.3c.1-.3.1-.6-.1-.7Z" style="fill: #000072"/>
        </g>
      </g>
    </g>
    <path d="M31.4,74.6s-7.2,9.3,1.7,13.6c0,0,6.8-.4,6.4-8.5,0,0,.8-2.1-1.7-4.2,0,0-2.5-2.5-3.8-.8Z" style="fill: #61547a"/>
    <path d="M40.2,87a10.4,10.4,0,0,1-2.4,1.4l-1.4.4L35,89H32.9l-.7-.2-1.3-.6-1.1-1a6.4,6.4,0,0,1-.8-1.2l-.2-.3v-1a9.9,9.9,0,0,1-.4-2.8,13.8,13.8,0,0,1,.3-2.7,9.9,9.9,0,0,1,.9-2.7A6.1,6.1,0,0,1,30,75l.3-.3.3-.3.3-.2.3-.2a3.1,3.1,0,0,1,1.6-.4l.9.2h.1l1.5-.3h1.6a3.3,3.3,0,0,1,1.2,1.1l.4.7v.4h-.2a3.9,3.9,0,0,1,1.3.9l.5.6.2.4v.2h.1a4.1,4.1,0,0,1,.1.8,6.9,6.9,0,0,1,0,.7,9.9,9.9,0,0,1-.2,1.4,10.9,10.9,0,0,1-.9,2.6,7.1,7.1,0,0,1-1.7,2.2.3.3,0,0,1-.5-.5h0a10.3,10.3,0,0,0,1.7-4.6c.1-.4.1-.8.1-1.2s0-.4,0-.6a2.8,2.8,0,0,0-.1-.5h-.1v-.2l-.3-.4-.8-.6h-.2l-.2-.2-.2-.3h-.1v-.2l-.2-.4a1.9,1.9,0,0,0-.7-.6h-.9l-1,.2H32.7l-.9.3h-.2l-.2.2-.2.2-.2.2-.6.9a8.5,8.5,0,0,0-.8,2.3,12.5,12.5,0,0,0-.2,2.5,8.6,8.6,0,0,0,.3,2.4V85l.6,1a4.3,4.3,0,0,0,1.9,1.2l.6.2H35l1.2-.2,1.1-.4a9,9,0,0,0,2.1-1.2h0a.7.7,0,0,1,.8,1.1Z" style="fill: #181558"/>
    <ellipse cx="33.7" cy="82" rx="2.7" ry="2.4" transform="translate(-51.7 105.8) rotate(-83.2)" style="fill: #fff"/>
    <ellipse cx="37.2" cy="79.6" rx="1.1" ry="0.9" transform="translate(-48.3 99.7) rotate(-78.2)" style="fill: #fff"/>
    <ellipse cx="34.9" cy="77.5" rx="1.1" ry="0.9" transform="matrix(0.2, -0.98, 0.98, 0.2, -48.08, 95.82)" style="fill: #fff"/>
    <ellipse cx="32" cy="77.8" rx="1.1" ry="0.9" transform="matrix(0.2, -0.98, 0.98, 0.2, -50.7, 93.13)" style="fill: #fff"/>
  </g>
</svg>
