<svg width="1198" height="870" viewBox="0 0 1198 870" fill="none" xmlns="http://www.w3.org/2000/svg">
<g clip-path="url(#clip0_271_286)">
<rect width="1198" height="870" fill="white"/>
<path d="M260 522.486V523.621L307 523.167L260 522.486Z" fill="#363636"/>
<path d="M62 522.486V523.621L109 523.167L62 522.486Z" fill="#363636"/>
<g filter="url(#filter0_d_271_286)">
<path fill-rule="evenodd" clip-rule="evenodd" d="M1103.68 261.043C1091.17 287.949 1065.58 292.929 1041.35 270.594C1016.67 247.843 1001.56 204.251 1003.96 166.94C1001.83 171.515 1000.08 176.724 998.785 182.54C989.844 222.563 1005.57 276.193 1033.92 302.326C1062.26 328.458 1092.49 317.198 1101.43 277.175C1102.58 271.996 1103.33 266.589 1103.68 261.043Z" fill="white"/>
</g>
<g filter="url(#filter1_d_271_286)">
<path fill-rule="evenodd" clip-rule="evenodd" d="M1107.18 71.3248C1091.85 89.5869 1063.17 100.208 1041.58 95.2308C1022.72 90.8837 1015.25 76.0173 1022 59.7234C1021.34 60.5013 1020.71 61.2931 1020.11 62.0981C1005.35 81.8019 1011.63 101.982 1034.14 107.171C1056.66 112.36 1086.88 100.594 1101.64 80.8902C1104.04 77.6922 1105.88 74.4817 1107.18 71.3248Z" fill="white"/>
</g>
<rect x="51" y="88.6936" width="1001.86" height="721.306" rx="36" fill="#FBF9FF"/>
<mask id="mask0_271_286" style="mask-type:alpha" maskUnits="userSpaceOnUse" x="622" y="0" width="613" height="886">
<path d="M742.614 76.6236C846.613 65.8061 847.4 21.0339 834.794 0H1235V441.503V883.005L622 885.328L623.797 845.742C625.868 800.138 651.333 760.034 671.519 719.088C704.311 652.571 653.839 604.857 645.706 585.768C623.678 549.774 629.273 454.565 672.909 420.893C736.343 371.944 760.18 299.599 716.614 259.168C574.797 127.556 674.857 82.6333 742.614 76.6236Z" fill="url(#paint0_linear_271_286)"/>
</mask>
<g mask="url(#mask0_271_286)">
<path d="M1285.7 -0.130615H569.595V882.304H1285.7V-0.130615Z" fill="url(#paint1_linear_271_286)"/>
<path style="mix-blend-mode:screen" d="M1278.37 207.82C1280.56 201.847 1281.71 195.517 1281.75 189.127C1281.8 181.04 1280.06 173.049 1276.68 165.762C1277.78 161.374 1278.35 156.861 1278.37 152.327C1278.37 126.041 1260.91 105.013 1239.5 105.013C1218.09 105.013 1209.63 116.695 1204 133.051C1198.93 124.873 1191.04 119.616 1182.03 119.616C1173.01 119.616 1156.11 132.467 1154.42 148.822C1147.66 148.822 1141.46 151.743 1136.95 156.416C1134.14 147.654 1126.81 141.229 1118.36 141.229C1113.74 141.324 1109.32 143.198 1105.97 146.486C1096.39 134.803 1083.43 127.794 1068.78 127.794L1058.64 128.962C1049.06 113.19 1033.85 102.676 1016.38 102.676C991.593 102.676 970.747 123.705 965.113 151.743C958.352 145.318 949.901 141.229 940.322 141.229C933.959 141.217 927.718 143.037 922.293 146.486C915.532 133.635 903.137 125.457 889.615 125.457C876.093 125.457 865.952 132.467 859.191 143.565C853.682 139.104 847.009 136.459 840.035 135.971C836.654 122.536 825.949 112.606 813.554 112.606C807.536 112.621 801.729 114.905 797.215 119.032C789.891 109.101 779.749 102.676 767.917 102.676C746.508 102.676 729.042 123.705 729.042 149.991C713.266 152.911 700.871 167.515 696.927 186.207C691.4 182.446 684.945 180.418 678.334 180.365C671.724 180.418 665.268 182.446 659.742 186.207C656.925 172.188 646.783 162.257 634.388 162.257C621.993 162.257 616.922 168.099 612.415 176.276C606.217 170.435 598.329 167.515 589.878 167.515C581.427 167.515 571.849 171.603 565.088 178.029C552.693 155.832 531.846 141.229 508.183 141.229C470.434 141.229 440.01 178.029 440.01 223.591C440.01 269.153 470.434 305.953 508.183 305.953C536.354 305.953 560.581 284.925 571.286 255.718C576.812 259.479 583.268 261.507 589.878 261.56C596.739 261.448 603.411 259.21 609.034 255.134C614.668 272.658 628.754 284.925 645.093 284.925C654.671 284.925 663.686 280.836 670.447 273.826L677.771 274.995C685.265 275.037 692.574 272.579 698.617 267.985C705.942 279.083 716.647 286.093 729.605 286.093C742.564 286.093 759.466 274.41 765.1 258.055C770.136 260.799 775.751 262.204 781.439 262.144C794.961 262.144 806.23 253.966 813.554 241.699C817.498 262.728 832.71 278.499 851.303 278.499C869.896 278.499 878.91 268.569 885.671 253.382C892.996 262.728 903.137 268.569 914.405 268.569C925.674 268.569 945.957 255.718 951.027 237.026C955.535 257.471 970.747 272.658 988.776 272.658C1000.61 272.658 1011.31 266.233 1018.07 256.302C1025.4 266.817 1036.1 273.826 1048.5 273.826C1060.89 273.826 1072.16 266.817 1079.49 255.134C1084.18 257.717 1089.39 259.118 1094.7 259.223C1102.01 259.182 1109.11 256.726 1114.98 252.213C1120.62 280.252 1140.9 301.28 1165.69 301.28C1178.08 301.28 1189.92 296.023 1198.93 286.677C1207.94 296.607 1220.34 303.033 1233.86 303.033C1262.6 303.033 1286.26 274.41 1286.26 239.947C1286.12 228.741 1283.42 217.729 1278.37 207.82Z" fill="url(#paint2_linear_271_286)"/>
<path d="M1233.86 71.133C1204.57 42.5106 1180.34 36.6693 1164 36.0852C1118.36 33.7486 1097.52 72.3012 1055.26 61.7869C1029.91 55.3615 1033.85 40.7582 1006.81 30.828C952.156 10.3834 927.365 67.6282 876.658 48.3519C848.487 37.8375 840.036 13.8882 805.668 13.3041C789.329 12.7199 784.821 17.9771 770.736 16.2247C739.185 10.3834 709.324 -26.4168 711.014 -40.4359C714.394 -67.3059 836.655 -80.1568 1263.16 -45.6931L1233.86 71.133Z" fill="url(#paint3_linear_271_286)"/>
<path d="M1329.64 364.367C1255.27 308.874 1199.49 304.785 1162.31 311.211C1064.84 329.319 997.792 437.967 940.323 404.088C926.238 395.91 904.265 373.713 869.897 373.129C852.994 372.545 851.304 377.218 836.092 376.049C798.906 372.545 791.582 342.754 764.538 339.249C737.494 335.744 727.353 367.287 690.167 379.554C652.982 391.821 621.43 371.376 597.204 362.03C555.511 346.259 490.155 348.011 386.486 428.621C474.943 396.494 540.862 402.335 585.372 413.434C637.77 426.869 667.067 450.234 738.057 455.491C797.216 460.164 799.47 445.561 843.416 452.57C936.38 467.758 945.958 534.933 1002.86 532.596C1079.49 529.092 1093.57 405.256 1193.86 369.624C1245.69 350.932 1295.28 365.535 1329.64 380.722" fill="url(#paint4_linear_271_286)"/>
<path d="M1280.63 776.179C1197.8 734.705 1147.1 739.379 1115.55 752.814C1096.95 760.407 1086.25 770.337 1061.46 773.842C1015.82 780.268 995.538 755.15 954.972 746.388C877.784 730.032 849.613 798.96 783.694 785.525C722.845 773.842 719.464 711.924 660.306 672.203C616.359 642.997 539.171 623.721 391.557 681.55C531.284 609.117 617.486 608.533 671.574 623.137C698.054 630.146 732.986 645.333 783.694 638.908C834.401 632.483 849.613 612.038 898.63 614.375C947.647 616.711 944.267 633.651 982.016 634.819C1038.92 635.987 1059.77 597.435 1109.35 584C1143.15 574.654 1196.11 576.406 1273.3 628.978L1280.63 776.179Z" fill="url(#paint5_linear_271_286)"/>
<path style="mix-blend-mode:screen" d="M632.698 425.701C636.078 421.028 697.491 363.199 697.491 363.199C697.491 363.199 649.6 437.383 645.656 441.472C641.713 445.561 636.078 446.145 632.698 441.472C631.008 439.217 630.09 436.442 630.09 433.586C630.09 430.73 631.008 427.956 632.698 425.701V425.701Z" fill="url(#paint6_linear_271_286)"/>
<path style="mix-blend-mode:screen" d="M757.214 117.863L787.638 88.6567L763.411 125.457C763.042 125.943 762.572 126.336 762.035 126.606C761.498 126.876 760.909 127.016 760.313 127.016C759.716 127.016 759.127 126.876 758.59 126.606C758.054 126.336 757.583 125.943 757.214 125.457C756.341 124.399 755.861 123.052 755.861 121.66C755.861 120.268 756.341 118.921 757.214 117.863V117.863Z" fill="url(#paint7_linear_271_286)"/>
<path style="mix-blend-mode:screen" d="M949.337 756.903L979.761 727.696L955.535 764.496C955.165 764.982 954.695 765.375 954.158 765.645C953.621 765.916 953.032 766.056 952.436 766.056C951.839 766.056 951.25 765.916 950.713 765.645C950.177 765.375 949.706 764.982 949.337 764.496C948.464 763.438 947.984 762.092 947.984 760.7C947.984 759.307 948.464 757.961 949.337 756.903Z" fill="url(#paint8_linear_271_286)"/>
<path style="mix-blend-mode:screen" d="M1020.89 336.329C1023.71 332.824 1147.1 187.375 1149.35 189.128C1151.61 190.88 1030.47 341.002 1027.65 344.506C1024.84 348.011 1021.46 348.595 1019.2 346.259C1016.95 343.922 1018.08 339.833 1020.89 336.329Z" fill="url(#paint9_linear_271_286)"/>
<path style="mix-blend-mode:screen" d="M594.95 76.3904C597.767 72.8856 721.155 -72.5629 723.408 -70.8105C725.662 -69.0581 603.964 81.0635 601.711 84.5683C599.457 88.073 595.513 88.6572 593.259 86.3206C591.006 83.9841 592.133 79.8952 594.95 76.3904Z" fill="url(#paint10_linear_271_286)"/>
<path d="M397.192 465.421C438.885 522.666 467.619 530.844 486.212 527.339C504.805 523.834 516.073 506.894 539.736 510.983C563.4 515.072 563.963 530.26 585.937 534.349C607.91 538.437 611.29 527.339 633.827 525.002C676.646 520.329 682.844 558.298 723.973 554.793C748.2 553.041 754.398 538.437 791.583 536.101C802.486 535.328 813.436 535.72 824.261 537.269C794.4 513.904 769.046 506.31 751.017 503.39C713.268 497.548 698.056 511.567 661.998 498.717C634.39 489.371 635.517 478.272 610.163 472.431C584.81 466.589 574.105 480.024 539.173 477.104C504.241 474.183 498.044 459.58 463.675 455.491C434.941 452.57 411.841 459.58 397.192 465.421Z" fill="url(#paint11_linear_271_286)"/>
<path d="M436.63 852.116C517.198 778.515 564.525 777.347 593.259 790.198C621.994 803.049 634.952 834.592 672.137 836.928C709.323 839.265 714.957 816.484 751.016 818.236C787.074 819.988 788.764 839.265 823.696 852.116C889.616 876.065 909.335 819.404 972.438 841.017C1010.19 853.868 1015.82 878.402 1073.29 897.094C1089.98 902.575 1107.15 906.293 1124.56 908.192C1071.6 932.726 1029.34 935.062 1000.61 932.726C939.76 927.468 920.04 898.846 859.755 904.687C814.118 908.776 812.991 926.3 771.299 925.132C721.718 923.964 717.211 899.43 661.433 889.5C605.654 879.57 592.133 900.598 537.481 893.005C492.408 887.163 457.476 866.719 436.63 852.116Z" fill="url(#paint12_linear_271_286)"/>
<g style="mix-blend-mode:screen" opacity="0.6">
<path d="M988.778 237.026L989.341 239.947L992.158 241.115L989.341 241.699L988.778 244.62L988.215 241.699L985.397 241.115L988.215 239.947L988.778 237.026Z" fill="#714268"/>
</g>
<g style="mix-blend-mode:screen" opacity="0.6">
<path d="M947.648 687.975L948.775 690.895L951.029 692.064L948.775 692.648L947.648 696.153L947.085 692.648L944.831 692.064L947.085 690.895L947.648 687.975Z" fill="#714268"/>
</g>
<g style="mix-blend-mode:screen" opacity="0.6">
<path d="M988.778 82.8157L989.341 85.7363L992.158 86.3205L989.341 87.4887L988.778 90.4094L988.215 87.4887L985.397 86.3205L988.215 85.7363L988.778 82.8157Z" fill="#714268"/>
</g>
<g style="mix-blend-mode:screen" opacity="0.6">
<path d="M685.659 16.2249L686.222 19.1455L689.039 20.3138L686.222 20.8979L685.659 24.4027L685.095 20.8979L682.278 20.3138L685.095 19.1455L685.659 16.2249Z" fill="#714268"/>
</g>
<g style="mix-blend-mode:screen" opacity="0.6">
<path d="M780.878 159.337L782.568 165.762L787.639 167.514L782.568 169.267L780.878 175.692L779.751 169.267L774.117 167.514L779.751 165.762L780.878 159.337Z" fill="#714268"/>
</g>
<g style="mix-blend-mode:screen" opacity="0.6">
<path d="M696.926 292.518L697.49 295.439L700.307 296.607L697.49 297.191L696.926 300.696L696.363 297.191L693.546 296.607L696.363 295.439L696.926 292.518Z" fill="#714268"/>
</g>
<path style="mix-blend-mode:screen" d="M941.172 585.821L922.568 574.685L870.943 667.39L889.547 678.526L941.172 585.821Z" fill="url(#paint13_linear_271_286)"/>
<path style="mix-blend-mode:screen" d="M936.934 583.884L926.132 577.418L844.568 723.886L855.37 730.352L936.934 583.884Z" fill="url(#paint14_linear_271_286)"/>
<path d="M905.515 622.912L902.743 625.068C904.822 603.515 911.752 589.864 915.909 582.68L917.295 580.525L919.374 577.651L920.76 576.214L925.611 579.088L930.461 581.962L933.233 583.398H934.619V585.554L933.233 588.427L931.847 591.301C927.69 599.922 920.067 611.417 905.515 622.912Z" fill="url(#paint15_linear_271_286)"/>
<path d="M911.752 610.699L909.673 612.136C912.445 597.767 917.295 587.709 920.76 582.68L922.146 581.243L923.532 579.088H924.225L926.997 580.525L929.769 581.962H931.847V585.554L930.462 587.709C926.304 594.175 921.453 602.078 911.752 610.699Z" fill="url(#paint16_linear_271_286)"/>
<path d="M965.107 589.146L949.169 571.185L966.493 540.293L976.194 570.467L965.107 589.146Z" fill="#F1F2F2"/>
<path d="M963.723 589.146C963.439 589.92 963.422 590.772 963.675 591.558C963.927 592.343 964.434 593.014 965.109 593.457C965.855 593.751 966.677 593.768 967.435 593.507C968.192 593.245 968.839 592.72 969.266 592.02L981.047 570.467L975.503 566.875L963.723 589.146Z" fill="#E6E7E8"/>
<path d="M978.968 565.438L976.196 567.594L981.74 571.186V567.594C981.76 567.238 981.694 566.884 981.55 566.561C981.406 566.239 981.186 565.958 980.912 565.745C980.637 565.531 980.316 565.392 979.977 565.338C979.638 565.285 979.291 565.319 978.968 565.438Z" fill="url(#paint17_linear_271_286)"/>
<path d="M969.266 594.894L962.337 590.583L963.723 589.146L969.266 592.739V594.894Z" fill="#E6E7E8"/>
<path d="M971.256 594.981L964.654 591.029L963.393 593.294L969.994 597.245L971.256 594.981Z" fill="url(#paint18_linear_271_286)"/>
<path d="M902.743 551.788L925.611 557.535L942.935 526.643L913.138 532.39L902.743 551.788Z" fill="#F1F2F2"/>
<path d="M904.129 552.506C903.702 553.206 903.054 553.731 902.297 553.993C901.539 554.255 900.718 554.237 899.971 553.943C899.296 553.5 898.79 552.829 898.537 552.044C898.285 551.258 898.302 550.406 898.585 549.632L910.365 528.079L915.909 531.672L904.129 552.506Z" fill="#E6E7E8"/>
<path d="M915.908 527.361V530.953L910.364 527.361L913.136 525.206C913.459 525.086 913.806 525.052 914.145 525.106C914.484 525.159 914.805 525.299 915.08 525.512C915.354 525.726 915.574 526.006 915.718 526.329C915.863 526.651 915.928 527.006 915.908 527.361V527.361Z" fill="url(#paint19_linear_271_286)"/>
<path d="M896.506 551.069L903.435 554.661V553.224L897.892 549.632L896.506 551.069Z" fill="#E6E7E8"/>
<path d="M892.626 553.136L899.228 557.087L900.489 554.822L893.887 550.871L892.626 553.136Z" fill="url(#paint20_linear_271_286)"/>
<path d="M985.899 502.934V483.536C985.875 482.792 985.666 482.066 985.292 481.43C984.917 480.794 984.39 480.27 983.762 479.908C983.134 479.546 982.426 479.359 981.707 479.366C980.989 479.372 980.284 479.571 979.662 479.944L963.724 490.721L960.952 492.158L983.82 505.808L985.899 502.934Z" fill="url(#paint21_linear_271_286)"/>
<path d="M962.338 492.157C955.013 497.448 948.869 504.308 944.321 512.273L918.682 558.253L951.251 578.369L976.89 532.389C981.498 524.263 984.336 515.19 985.205 505.807L962.338 492.157Z" fill="white"/>
<g style="mix-blend-mode:multiply">
<path d="M969.267 496.468L971.346 494.313L983.126 481.381L985.205 479.944C984.573 479.566 983.856 479.367 983.126 479.367C982.397 479.367 981.68 479.566 981.048 479.944L965.11 490.721L962.338 492.158C955.013 497.449 948.869 504.309 944.321 512.274L918.682 558.254L928.383 564.001L954.022 518.021C958.447 510.361 963.551 503.146 969.267 496.468V496.468Z" fill="#F1F2F2"/>
</g>
<g style="mix-blend-mode:multiply">
<path d="M985.206 505.808V483.536C985.182 482.804 984.979 482.089 984.615 481.461C984.252 480.832 983.739 480.31 983.127 479.944C983.82 479.944 983.82 481.381 983.127 482.818L977.583 499.342V502.216C974.635 510.701 970.923 518.879 966.496 526.642L940.856 572.622L950.558 578.37L976.197 532.39C981.048 524.323 984.124 515.247 985.206 505.808V505.808Z" fill="#F1F2F2"/>
</g>
<path d="M957.336 579.67L920.129 557.399C919.466 557.002 918.618 557.237 918.236 557.925L917.609 559.051C917.226 559.738 917.453 560.617 918.116 561.014L955.323 583.285C955.986 583.682 956.834 583.446 957.216 582.759L957.844 581.633C958.226 580.946 957.999 580.067 957.336 579.67Z" fill="url(#paint22_linear_271_286)"/>
<path d="M942.936 585.554L917.297 570.467L920.069 567.593L922.841 565.438L943.629 578.37V581.243L942.936 585.554Z" fill="#E6E7E8"/>
<path d="M943.628 581.243L920.067 567.593L922.839 565.438L943.628 578.37V581.243Z" fill="#CECECE"/>
<path d="M945.839 586.225L920.034 570.779L917.824 574.748L943.629 590.195L945.839 586.225Z" fill="url(#paint23_linear_271_286)"/>
<g style="mix-blend-mode:multiply">
<g style="mix-blend-mode:multiply">
<path d="M966.495 494.313L968.574 492.158L981.74 479.944C983.126 479.226 983.819 478.507 984.512 479.226C983.88 478.847 983.163 478.648 982.433 478.648C981.703 478.648 980.986 478.847 980.354 479.226L964.416 490.002L961.644 491.439C954.319 496.73 948.175 503.59 943.628 511.555L917.988 557.535L923.532 561.127L949.171 515.147C953.922 507.354 959.76 500.333 966.495 494.313V494.313Z" fill="#F1F2F2"/>
</g>
<g style="mix-blend-mode:multiply">
<path d="M985.205 505.808V483.536C985.182 482.804 984.979 482.089 984.615 481.461C984.251 480.832 983.739 480.31 983.126 479.944C983.819 480.663 984.512 481.381 983.819 482.818L980.354 500.779V503.652C978.316 512.478 975.048 520.949 970.653 528.798L945.014 574.777L950.557 578.37L976.197 532.39C981.048 524.323 984.123 515.247 985.205 505.808V505.808Z" fill="#F1F2F2"/>
</g>
</g>
<path d="M965.053 513.346L971.054 516.938C972.487 517.795 973.532 519.208 973.96 520.864C974.388 522.521 974.164 524.285 973.337 525.771L964.328 541.947C964.145 542.277 963.842 542.518 963.487 542.617C963.132 542.715 962.754 542.664 962.435 542.473L947.432 533.493C947.114 533.302 946.882 532.988 946.787 532.62C946.691 532.252 946.741 531.86 946.925 531.53L955.933 515.353C956.76 513.868 958.123 512.785 959.72 512.341C961.318 511.897 963.02 512.129 964.453 512.987L965.053 513.346Z" fill="url(#paint24_linear_271_286)"/>
<path d="M958.872 543.166L944.32 534.545C943.819 534.124 943.476 533.534 943.35 532.879C943.223 532.223 943.321 531.542 943.627 530.953L950.556 518.021C951.284 516.748 952.247 515.635 953.39 514.747C954.533 513.859 955.833 513.213 957.216 512.847C958.6 512.48 960.039 512.399 961.453 512.609C962.867 512.819 964.226 513.315 965.455 514.07C966.683 514.825 967.757 515.823 968.613 517.008C969.469 518.192 970.092 519.54 970.446 520.975C970.8 522.409 970.878 523.902 970.676 525.367C970.473 526.833 969.994 528.243 969.266 529.516L962.337 542.448C961.93 542.967 961.361 543.323 960.729 543.454C960.097 543.585 959.44 543.483 958.872 543.166V543.166ZM964.416 515.866C963.374 515.232 962.22 514.822 961.023 514.66C959.825 514.498 958.608 514.587 957.445 514.922C956.281 515.257 955.194 515.831 954.249 516.611C953.304 517.39 952.519 518.358 951.942 519.458L945.013 532.39C944.829 532.39 944.653 532.466 944.523 532.6C944.393 532.735 944.32 532.918 944.32 533.108C944.32 533.299 944.393 533.482 944.523 533.616C944.653 533.751 944.829 533.827 945.013 533.827L959.565 542.448H960.951L967.88 529.516C968.635 528.456 969.164 527.243 969.434 525.955C969.704 524.668 969.709 523.336 969.447 522.047C969.185 520.757 968.663 519.54 967.916 518.475C967.168 517.41 966.211 516.521 965.109 515.866H964.416Z" fill="#A5B7C6"/>
<path d="M961.883 519.902C962.84 518.184 962.272 515.987 960.615 514.995C958.958 514.003 956.839 514.592 955.882 516.31C954.925 518.028 955.493 520.225 957.15 521.217C958.807 522.209 960.926 521.62 961.883 519.902Z" fill="#7281F2"/>
<path style="mix-blend-mode:screen" d="M857.185 264.832L847.224 258.392L816.483 309.507L826.444 315.946L857.185 264.832Z" fill="url(#paint25_linear_271_286)"/>
<path style="mix-blend-mode:screen" d="M854.794 263.274L848.831 259.411L800.267 339.987L806.23 343.85L854.794 263.274Z" fill="url(#paint26_linear_271_286)"/>
<path d="M837.007 284.447H835.506C837.007 272.666 840.758 265.598 843.76 261.671V259.315H844.51L846.761 260.886L849.763 262.457H852.014V265.598C849.012 272.666 845.261 278.949 837.007 284.447Z" fill="url(#paint27_linear_271_286)"/>
<path d="M840.714 278.735H839.907C841.333 272.604 843.794 266.799 847.171 261.6H852.013C849.393 268.073 845.547 273.906 840.714 278.735V278.735Z" fill="url(#paint28_linear_271_286)"/>
<path d="M870.392 267.312L861.918 256.829L872.703 239.895L877.326 256.829L870.392 267.312Z" fill="#F1F2F2"/>
<path d="M869.901 267.121C869.761 267.331 869.671 267.569 869.637 267.819C869.603 268.068 869.627 268.322 869.707 268.561C869.786 268.8 869.92 269.018 870.096 269.197C870.273 269.377 870.488 269.513 870.726 269.597H873.201L880.627 257.221L877.327 254.746L869.901 267.121Z" fill="#E6E7E8"/>
<path d="M878.976 254.175H877.325L880.627 255.888V254.175C880.627 254.023 880.54 253.878 880.385 253.771C880.23 253.664 880.02 253.604 879.801 253.604C879.582 253.604 879.373 253.664 879.218 253.771C879.063 253.878 878.976 254.023 878.976 254.175Z" fill="url(#paint29_linear_271_286)"/>
<path d="M872.924 269.597L868.521 267.883L869.402 267.312L872.924 269.026V269.597Z" fill="#E6E7E8"/>
<path d="M873.991 270.773L870.016 268.198L869.266 269.441L873.242 272.016L873.991 270.773Z" fill="url(#paint30_linear_271_286)"/>
<path d="M836.606 244.628L849.358 247.891L859.718 230.756L842.982 234.02L836.606 244.628Z" fill="#F1F2F2"/>
<path d="M836.526 244.464H834.298C834.084 244.387 833.891 244.261 833.732 244.096C833.573 243.93 833.453 243.729 833.381 243.509C833.309 243.288 833.288 243.054 833.318 242.823C833.348 242.593 833.43 242.373 833.556 242.18L840.239 230.756L843.21 233.041L836.526 244.464Z" fill="#E6E7E8"/>
<path d="M844.31 231.613V234.183L841.009 231.613H842.66C842.66 231.386 842.747 231.168 842.901 231.007C843.056 230.846 843.266 230.756 843.485 230.756C843.704 230.756 843.914 230.846 844.069 231.007C844.223 231.168 844.31 231.386 844.31 231.613Z" fill="url(#paint31_linear_271_286)"/>
<path d="M833.305 244.179L836.606 246.749V245.892L833.965 243.322L833.305 244.179Z" fill="#E6E7E8"/>
<path d="M829.892 245.783L833.867 248.358L834.617 247.115L830.641 244.539L829.892 245.783Z" fill="url(#paint32_linear_271_286)"/>
<path d="M883.925 218.535V208.158C883.948 207.763 883.873 207.369 883.707 207.011C883.542 206.652 883.29 206.341 882.976 206.103C882.661 205.866 882.293 205.711 881.904 205.652C881.515 205.592 881.117 205.631 880.747 205.763L871.211 211.351H869.622L882.336 219.333L883.925 218.535Z" fill="url(#paint33_linear_271_286)"/>
<path d="M870.834 212.479C866.762 215.494 863.347 219.402 860.819 223.94L845.411 249.32L863.13 261.6L878.537 236.221C881.317 231.781 883.157 226.753 883.93 221.484L870.834 212.479Z" fill="white"/>
<g style="mix-blend-mode:multiply">
<path d="M875.034 215.253H875.814L882.829 207.909H882.05L872.695 213.621H871.136C867.016 216.625 863.56 220.521 861.002 225.044L845.411 250.339L850.868 253.603L866.459 228.308L875.034 215.253Z" fill="#F1F2F2"/>
</g>
<g style="mix-blend-mode:multiply">
<path d="M883.867 220.442V208.094C883.967 207.647 883.947 207.178 883.81 206.742C883.673 206.306 883.424 205.919 883.092 205.625C883.092 205.625 883.092 206.448 883.092 207.271L879.992 217.149V218.795C878.095 223.687 875.759 228.373 873.017 232.789L857.517 258.307L862.942 261.6L878.442 236.082C881.345 231.374 883.2 226.025 883.867 220.442V220.442Z" fill="#F1F2F2"/>
</g>
<path d="M866.104 261.025L845.565 247.719C845.199 247.482 844.717 247.597 844.488 247.977L844.12 248.588C843.891 248.967 844.002 249.467 844.368 249.704L864.908 263.011C865.274 263.248 865.756 263.132 865.984 262.753L866.353 262.142C866.582 261.762 866.47 261.262 866.104 261.025Z" fill="url(#paint34_linear_271_286)"/>
<path d="M857.807 263.885L843.21 255.807L845.643 254.338L846.454 253.604L858.618 260.213V261.682L857.807 263.885Z" fill="#E6E7E8"/>
<path d="M858.616 261.6L846.51 254.33L847.266 253.604L858.616 260.146V261.6Z" fill="#CECECE"/>
<path d="M860.003 264.524L846.089 255.51L844.772 257.694L858.686 266.708L860.003 264.524Z" fill="url(#paint35_linear_271_286)"/>
<g style="mix-blend-mode:multiply">
<g style="mix-blend-mode:multiply">
<path d="M873.384 214.207H874.946L882.759 207.727H881.978L872.603 213.397H871.04C866.911 216.379 863.447 220.247 860.883 224.737L845.258 249.847L848.383 251.467L864.009 226.357C866.536 221.848 869.696 217.753 873.384 214.207V214.207Z" fill="#F1F2F2"/>
</g>
<g style="mix-blend-mode:multiply">
<path d="M883.541 220.687V208.536C883.642 208.096 883.622 207.635 883.484 207.206C883.346 206.777 883.095 206.396 882.76 206.106C883.031 206.265 883.25 206.504 883.389 206.793C883.528 207.081 883.581 207.406 883.541 207.726L881.197 217.446V219.067C879.768 223.946 877.663 228.585 874.947 232.837L859.321 257.947L862.446 259.567L878.072 234.457C880.79 230.306 882.651 225.618 883.541 220.687V220.687Z" fill="#F1F2F2"/>
</g>
</g>
<path d="M873.669 224.87C874.899 225.667 875.774 226.937 876.1 228.403C876.426 229.868 876.178 231.407 875.409 232.683L871.269 239.552C871.159 239.734 870.984 239.864 870.782 239.912C870.58 239.96 870.368 239.924 870.192 239.81L862.242 234.659C862.066 234.545 861.941 234.363 861.894 234.154C861.848 233.945 861.883 233.725 861.993 233.543L865.719 227.36C866.488 226.085 867.714 225.179 869.127 224.84C870.54 224.502 872.025 224.76 873.255 225.557L873.669 224.87Z" fill="url(#paint36_linear_271_286)"/>
<path d="M867.889 241.038L860.472 236.278C860.215 236.123 860.007 235.889 859.874 235.606C859.742 235.324 859.692 235.005 859.73 234.692L863.439 227.553C863.667 226.587 864.104 225.692 864.715 224.94C865.327 224.189 866.095 223.602 866.958 223.227C867.821 222.852 868.755 222.699 869.683 222.782C870.611 222.864 871.508 223.179 872.302 223.701C873.095 224.223 873.762 224.938 874.249 225.787C874.736 226.636 875.03 227.596 875.106 228.589C875.181 229.582 875.038 230.58 874.686 231.502C874.334 232.425 873.784 233.246 873.081 233.899L869.372 241.038H867.889ZM871.597 225.966C870.494 225.321 869.209 225.127 867.981 225.418C866.753 225.71 865.666 226.469 864.922 227.553L861.214 234.692C861.148 234.813 861.114 234.949 861.114 235.089C861.114 235.228 861.148 235.365 861.214 235.485L868.631 240.245H869.372L873.081 233.105C873.684 231.925 873.866 230.551 873.593 229.238C873.32 227.925 872.611 226.762 871.597 225.966Z" fill="#A5B7C6"/>
<path d="M869.897 227.766C870.583 226.625 870.544 225.316 869.811 224.842C869.077 224.367 867.926 224.908 867.24 226.049C866.554 227.189 866.593 228.498 867.326 228.973C868.06 229.447 869.211 228.906 869.897 227.766Z" fill="#7281F2"/>
<g opacity="0.36">
<path opacity="0.36" d="M769.043 839.265C767.487 844.351 764.409 848.791 760.256 851.942C756.103 855.093 751.089 856.791 745.943 856.789L738.055 855.621L735.238 854.452C730.252 852.061 726.197 847.983 723.74 842.889C721.283 837.794 720.57 831.985 721.716 826.414V823.494C722.731 820.334 724.342 817.415 726.455 814.906C728.569 812.398 731.142 810.35 734.026 808.883C736.909 807.415 740.046 806.557 743.252 806.357C746.459 806.158 749.672 806.622 752.704 807.722L758.338 810.643L763.409 815.316C766.86 819.59 768.842 824.933 769.043 830.503C769.538 833.401 769.538 836.367 769.043 839.265V839.265Z" fill="url(#paint37_linear_271_286)"/>
<path opacity="0.36" d="M764.536 814.731C761.719 818.82 757.211 824.078 752.704 825.83C748.197 827.582 731.858 829.335 722.843 838.681C721.679 834.703 721.486 830.488 722.28 826.414C742.563 821.157 753.831 814.731 759.465 810.643L764.536 814.731Z" fill="url(#paint38_linear_271_286)"/>
<path opacity="0.36" d="M770.734 829.919L761.72 835.76C754.959 841.018 751.578 848.027 746.508 856.205L738.62 855.037L735.803 853.868C744.817 840.433 760.03 828.751 769.044 822.325C769.985 824.75 770.556 827.312 770.734 829.919V829.919Z" fill="url(#paint39_linear_271_286)"/>
</g>
<g opacity="0.36">
<path opacity="0.36" d="M969.057 350.932C967.305 356.328 963.978 361.026 959.536 364.375C955.095 367.724 949.759 369.558 944.267 369.624L935.816 368.456L932.999 367.288C927.734 364.687 923.444 360.358 920.795 354.971C918.146 349.584 917.287 343.442 918.35 337.497V333.992C920.655 327.224 925.425 321.66 931.639 318.494C937.852 315.328 945.015 314.81 951.592 317.052L957.789 319.973L963.423 325.23C967.162 329.831 969.339 335.577 969.621 341.586C969.962 344.711 969.771 347.875 969.057 350.932Z" fill="url(#paint40_linear_271_286)"/>
<path opacity="0.36" d="M963.986 324.062C961.169 328.151 956.099 333.992 951.028 335.745C945.957 337.497 928.491 339.834 918.913 349.18C917.63 344.823 917.436 340.2 918.35 335.745C940.323 329.903 952.718 322.894 958.352 318.221L963.986 324.062Z" fill="url(#paint41_linear_271_286)"/>
<path opacity="0.36" d="M970.746 340.418L961.168 346.843C953.844 352.101 950.463 360.278 944.829 369.04L936.378 367.872L933.561 366.704C943.139 352.101 960.041 339.25 969.619 332.824C970.344 335.286 970.723 337.844 970.746 340.418V340.418Z" fill="url(#paint42_linear_271_286)"/>
</g>
<g opacity="0.27">
<path opacity="0.27" d="M987.087 784.941C985.397 782.604 968.494 790.198 949.901 801.296C931.309 812.395 916.096 824.077 917.787 826.998C920.04 828.75 936.379 821.741 954.972 810.642C973.565 799.544 988.214 787.277 987.087 784.941ZM954.409 809.474C937.506 819.404 922.857 826.414 921.167 824.661C920.04 822.909 932.999 812.395 950.465 802.464C967.931 792.534 982.016 785.525 983.706 787.277C984.833 789.029 971.311 798.96 954.409 809.474Z" fill="url(#paint43_linear_271_286)"/>
<path opacity="0.27" d="M966.804 812.979C965.752 816.322 963.722 819.244 960.997 821.337C958.271 823.43 954.984 824.592 951.592 824.661L946.521 823.493H944.831C941.529 821.871 938.846 819.149 937.212 815.76C935.578 812.372 935.087 808.513 935.817 804.801V803.049C936.513 800.935 937.607 798.985 939.033 797.311C940.46 795.637 942.192 794.272 944.13 793.295C946.067 792.317 948.172 791.747 950.323 791.617C952.474 791.486 954.629 791.798 956.663 792.534L960.607 794.287L963.987 797.207C966.306 799.986 967.69 803.472 967.931 807.138C967.891 809.138 967.51 811.116 966.804 812.979V812.979Z" fill="url(#paint44_linear_271_286)"/>
<path opacity="0.27" d="M963.424 796.623C961.733 799.544 958.353 803.048 955.536 804.217C952.719 805.385 941.451 806.553 935.253 812.978C934.422 810.341 934.229 807.533 934.69 804.801C948.775 801.296 956.099 796.623 960.043 794.286L963.424 796.623Z" fill="url(#paint45_linear_271_286)"/>
<path opacity="0.27" d="M967.368 807.137L961.17 811.226C956.663 814.731 954.409 819.404 951.029 825.245L945.958 824.077H944.268C950.465 815.315 960.607 807.137 966.804 803.049C967.152 804.383 967.341 805.756 967.368 807.137V807.137Z" fill="url(#paint46_linear_271_286)"/>
<path opacity="0.27" d="M954.972 810.642C936.379 821.741 919.476 829.334 917.786 826.998L921.167 824.661C922.857 826.414 937.506 819.404 954.408 809.474C971.311 799.544 984.833 789.029 983.706 787.277L987.086 784.94C988.213 787.277 974.128 798.96 954.972 810.642Z" fill="url(#paint47_linear_271_286)"/>
</g>
<g opacity="0.45">
<path opacity="0.45" d="M1032.72 123.705C1030.47 120.784 1006.8 130.714 980.324 146.486C953.844 162.257 932.997 178.613 935.251 182.118C938.068 185.038 961.168 175.108 987.649 158.753C1014.13 142.397 1034.41 127.209 1032.72 123.705ZM986.522 158.168C962.858 172.188 942.575 181.534 940.322 179.781C938.631 176.861 957.224 162.841 981.451 148.238C1005.68 133.635 1025.96 124.289 1028.21 127.209C1029.34 129.546 1010.75 143.565 986.522 158.168Z" fill="url(#paint48_linear_271_286)"/>
<path opacity="0.45" d="M1003.99 163.426C1002.48 168.107 999.612 172.191 995.78 175.118C991.948 178.046 987.337 179.675 982.577 179.782L975.253 178.613L972.999 177.445C968.318 175.194 964.498 171.382 962.149 166.618C959.8 161.854 959.058 156.412 960.041 151.159V148.239C960.996 145.242 962.512 142.471 964.504 140.084C966.495 137.697 968.922 135.742 971.644 134.33C974.367 132.919 977.331 132.079 980.368 131.86C983.405 131.64 986.453 132.045 989.338 133.051L994.972 135.972L999.48 140.061C1002.78 143.976 1004.75 148.897 1005.11 154.08C1005.34 157.242 1004.96 160.419 1003.99 163.426Z" fill="url(#paint49_linear_271_286)"/>
<path opacity="0.45" d="M999.48 140.06C996.663 144.149 992.719 148.822 988.212 150.575C983.705 152.327 968.493 154.08 960.041 162.257C958.925 158.471 958.731 154.457 959.478 150.575C978.634 145.318 989.339 139.476 994.41 135.387L999.48 140.06Z" fill="url(#paint50_linear_271_286)"/>
<path opacity="0.45" d="M1005.11 154.664L996.663 160.505C990.466 165.178 987.085 172.188 982.015 179.781L974.69 178.613L972.437 177.445C980.888 164.594 995.537 153.495 1003.99 147.654C1004.7 149.919 1005.08 152.282 1005.11 154.664Z" fill="url(#paint51_linear_271_286)"/>
<path opacity="0.45" d="M987.085 159.337C960.605 175.108 938.068 185.039 934.688 182.702L939.758 179.781C942.575 182.118 962.858 172.772 985.958 158.169C1009.06 143.565 1028.21 129.546 1027.09 126.625L1032.16 123.705C1034.41 127.21 1014.13 143.565 987.085 159.337Z" fill="url(#paint52_linear_271_286)"/>
</g>
<g filter="url(#filter2_d_271_286)">
<path fill-rule="evenodd" clip-rule="evenodd" d="M1129.19 155.716C1117.88 173.58 1095.58 181.17 1075.87 172.676C1056.16 164.184 1045.62 142.463 1049.84 121.557C1048.36 123.898 1047.07 126.414 1045.99 129.094C1036.72 152.23 1047.27 178.774 1069.57 188.381C1091.87 197.989 1117.47 187.021 1126.75 163.885C1127.82 161.197 1128.63 158.463 1129.19 155.716Z" fill="white"/>
</g>
</g>
</g>
<defs>
<filter id="filter0_d_271_286" x="934.277" y="107.94" width="233.407" height="275.476" filterUnits="userSpaceOnUse" color-interpolation-filters="sRGB">
<feFlood flood-opacity="0" result="BackgroundImageFix"/>
<feColorMatrix in="SourceAlpha" type="matrix" values="0 0 0 0 0 0 0 0 0 0 0 0 0 0 0 0 0 0 127 0" result="hardAlpha"/>
<feOffset dx="1" dy="4"/>
<feGaussianBlur stdDeviation="31.5"/>
<feComposite in2="hardAlpha" operator="out"/>
<feColorMatrix type="matrix" values="0 0 0 0 1 0 0 0 0 1 0 0 0 0 1 0 0 0 1 0"/>
<feBlend mode="normal" in2="BackgroundImageFix" result="effect1_dropShadow_271_286"/>
<feBlend mode="normal" in="SourceGraphic" in2="effect1_dropShadow_271_286" result="shape"/>
</filter>
<filter id="filter1_d_271_286" x="950.123" y="0.723389" width="221.062" height="174.673" filterUnits="userSpaceOnUse" color-interpolation-filters="sRGB">
<feFlood flood-opacity="0" result="BackgroundImageFix"/>
<feColorMatrix in="SourceAlpha" type="matrix" values="0 0 0 0 0 0 0 0 0 0 0 0 0 0 0 0 0 0 127 0" result="hardAlpha"/>
<feOffset dx="1" dy="4"/>
<feGaussianBlur stdDeviation="31.5"/>
<feComposite in2="hardAlpha" operator="out"/>
<feColorMatrix type="matrix" values="0 0 0 0 1 0 0 0 0 1 0 0 0 0 1 0 0 0 1 0"/>
<feBlend mode="normal" in2="BackgroundImageFix" result="effect1_dropShadow_271_286"/>
<feBlend mode="normal" in="SourceGraphic" in2="effect1_dropShadow_271_286" result="shape"/>
</filter>
<filter id="filter2_d_271_286" x="980.627" y="62.5574" width="212.562" height="196.304" filterUnits="userSpaceOnUse" color-interpolation-filters="sRGB">
<feFlood flood-opacity="0" result="BackgroundImageFix"/>
<feColorMatrix in="SourceAlpha" type="matrix" values="0 0 0 0 0 0 0 0 0 0 0 0 0 0 0 0 0 0 127 0" result="hardAlpha"/>
<feOffset dx="1" dy="4"/>
<feGaussianBlur stdDeviation="31.5"/>
<feComposite in2="hardAlpha" operator="out"/>
<feColorMatrix type="matrix" values="0 0 0 0 1 0 0 0 0 1 0 0 0 0 1 0 0 0 1 0"/>
<feBlend mode="normal" in2="BackgroundImageFix" result="effect1_dropShadow_271_286"/>
<feBlend mode="normal" in="SourceGraphic" in2="effect1_dropShadow_271_286" result="shape"/>
</filter>
<linearGradient id="paint0_linear_271_286" x1="752.069" y1="0" x2="752.069" y2="649.047" gradientUnits="userSpaceOnUse">
<stop stop-color="#3B119E"/>
<stop offset="1" stop-color="#6B2FF7"/>
</linearGradient>
<linearGradient id="paint1_linear_271_286" x1="927.775" y1="273.61" x2="927.775" y2="879.027" gradientUnits="userSpaceOnUse">
<stop stop-color="#842990"/>
<stop offset="1" stop-color="#2A0077"/>
</linearGradient>
<linearGradient id="paint2_linear_271_286" x1="862.475" y1="-85.3906" x2="862.475" y2="286.274" gradientUnits="userSpaceOnUse">
<stop stop-color="#5F1D67"/>
<stop offset="1"/>
</linearGradient>
<linearGradient id="paint3_linear_271_286" x1="986.98" y1="-23.8291" x2="986.98" y2="286.73" gradientUnits="userSpaceOnUse">
<stop stop-color="#842990"/>
<stop offset="1" stop-color="#2A0077"/>
</linearGradient>
<linearGradient id="paint4_linear_271_286" x1="857.885" y1="210.483" x2="857.885" y2="715.593" gradientUnits="userSpaceOnUse">
<stop stop-color="#842990"/>
<stop offset="1" stop-color="#2A0077"/>
</linearGradient>
<linearGradient id="paint5_linear_271_286" x1="836.232" y1="388.228" x2="836.232" y2="736.306" gradientUnits="userSpaceOnUse">
<stop stop-color="#842990"/>
<stop offset="1" stop-color="#2A0077"/>
</linearGradient>
<linearGradient id="paint6_linear_271_286" x1="663.703" y1="362.609" x2="663.703" y2="446.309" gradientUnits="userSpaceOnUse">
<stop/>
<stop offset="0.23" stop-color="#030101"/>
<stop offset="0.42" stop-color="#0E0502"/>
<stop offset="0.6" stop-color="#1F0C05"/>
<stop offset="0.77" stop-color="#381508"/>
<stop offset="0.94" stop-color="#58210D"/>
<stop offset="1" stop-color="#65260F"/>
</linearGradient>
<linearGradient id="paint7_linear_271_286" x1="771.463" y1="88.242" x2="771.463" y2="127.39" gradientUnits="userSpaceOnUse">
<stop/>
<stop offset="0.23" stop-color="#030101"/>
<stop offset="0.42" stop-color="#0E0502"/>
<stop offset="0.6" stop-color="#1F0C05"/>
<stop offset="0.77" stop-color="#381508"/>
<stop offset="0.94" stop-color="#58210D"/>
<stop offset="1" stop-color="#65260F"/>
</linearGradient>
<linearGradient id="paint8_linear_271_286" x1="964.025" y1="727.48" x2="964.025" y2="766.629" gradientUnits="userSpaceOnUse">
<stop/>
<stop offset="0.23" stop-color="#030101"/>
<stop offset="0.42" stop-color="#0E0502"/>
<stop offset="0.6" stop-color="#1F0C05"/>
<stop offset="0.77" stop-color="#381508"/>
<stop offset="0.94" stop-color="#58210D"/>
<stop offset="1" stop-color="#65260F"/>
</linearGradient>
<linearGradient id="paint9_linear_271_286" x1="1082.68" y1="216.27" x2="1118.98" y2="310.898" gradientUnits="userSpaceOnUse">
<stop/>
<stop offset="0.23" stop-color="#030101"/>
<stop offset="0.42" stop-color="#0E0502"/>
<stop offset="0.6" stop-color="#1F0C05"/>
<stop offset="0.77" stop-color="#381508"/>
<stop offset="0.94" stop-color="#58210D"/>
<stop offset="1" stop-color="#65260F"/>
</linearGradient>
<linearGradient id="paint10_linear_271_286" x1="654.568" y1="-45.6328" x2="690.868" y2="48.9953" gradientUnits="userSpaceOnUse">
<stop/>
<stop offset="0.23" stop-color="#030101"/>
<stop offset="0.42" stop-color="#0E0502"/>
<stop offset="0.6" stop-color="#1F0C05"/>
<stop offset="0.77" stop-color="#381508"/>
<stop offset="0.94" stop-color="#58210D"/>
<stop offset="1" stop-color="#65260F"/>
</linearGradient>
<linearGradient id="paint11_linear_271_286" x1="610.789" y1="409.52" x2="610.789" y2="618.913" gradientUnits="userSpaceOnUse">
<stop stop-color="#842990"/>
<stop offset="1" stop-color="#2A0077"/>
</linearGradient>
<linearGradient id="paint12_linear_271_286" x1="780.967" y1="615.829" x2="780.967" y2="953.544" gradientUnits="userSpaceOnUse">
<stop stop-color="#842990"/>
<stop offset="1" stop-color="#2A0077"/>
</linearGradient>
<linearGradient id="paint13_linear_271_286" x1="884.44" y1="664.793" x2="912.659" y2="617.649" gradientUnits="userSpaceOnUse">
<stop/>
<stop offset="0.09" stop-color="#090301"/>
<stop offset="0.23" stop-color="#220D05"/>
<stop offset="0.42" stop-color="#4A1C0B"/>
<stop offset="0.63" stop-color="#823013"/>
<stop offset="0.87" stop-color="#C84B1E"/>
<stop offset="1" stop-color="#F15A24"/>
</linearGradient>
<linearGradient id="paint14_linear_271_286" x1="857.09" y1="714.417" x2="901.676" y2="639.93" gradientUnits="userSpaceOnUse">
<stop/>
<stop offset="0.09" stop-color="#090301"/>
<stop offset="0.23" stop-color="#220D05"/>
<stop offset="0.42" stop-color="#4A1C0B"/>
<stop offset="0.63" stop-color="#823013"/>
<stop offset="0.87" stop-color="#C84B1E"/>
<stop offset="1" stop-color="#F15A24"/>
</linearGradient>
<linearGradient id="paint15_linear_271_286" x1="906.577" y1="624.233" x2="931.29" y2="582.947" gradientUnits="userSpaceOnUse">
<stop offset="0.04" stop-color="#FCEE21"/>
<stop offset="0.61" stop-color="#FBB03B"/>
<stop offset="0.62" stop-color="#FBAE3B"/>
<stop offset="0.79" stop-color="#F6812E"/>
<stop offset="0.92" stop-color="#F26527"/>
<stop offset="1" stop-color="#F15A24"/>
</linearGradient>
<linearGradient id="paint16_linear_271_286" x1="913.489" y1="611.821" x2="931.201" y2="582.23" gradientUnits="userSpaceOnUse">
<stop offset="0.04" stop-color="#FCEE21"/>
<stop offset="0.61" stop-color="#FBB03B"/>
<stop offset="0.62" stop-color="#FBAE3B"/>
<stop offset="0.79" stop-color="#F6812E"/>
<stop offset="0.92" stop-color="#F26527"/>
<stop offset="1" stop-color="#F15A24"/>
</linearGradient>
<linearGradient id="paint17_linear_271_286" x1="982.003" y1="564.425" x2="982.001" y2="570.247" gradientUnits="userSpaceOnUse">
<stop stop-color="#FF51B1"/>
<stop offset="1" stop-color="#861396"/>
</linearGradient>
<linearGradient id="paint18_linear_271_286" x1="967.769" y1="590.953" x2="967.773" y2="597.326" gradientUnits="userSpaceOnUse">
<stop stop-color="#FF51B1"/>
<stop offset="1" stop-color="#861396"/>
</linearGradient>
<linearGradient id="paint19_linear_271_286" x1="915.989" y1="524.911" x2="915.987" y2="530.733" gradientUnits="userSpaceOnUse">
<stop stop-color="#FF51B1"/>
<stop offset="1" stop-color="#861396"/>
</linearGradient>
<linearGradient id="paint20_linear_271_286" x1="896.187" y1="550.837" x2="896.184" y2="557.207" gradientUnits="userSpaceOnUse">
<stop stop-color="#FF51B1"/>
<stop offset="1" stop-color="#861396"/>
</linearGradient>
<linearGradient id="paint21_linear_271_286" x1="977.352" y1="478.807" x2="977.356" y2="505.555" gradientUnits="userSpaceOnUse">
<stop stop-color="#FF51B1"/>
<stop offset="1" stop-color="#861396"/>
</linearGradient>
<linearGradient id="paint22_linear_271_286" x1="937.041" y1="557.06" x2="937.04" y2="583.399" gradientUnits="userSpaceOnUse">
<stop stop-color="#FF51B1"/>
<stop offset="1" stop-color="#861396"/>
</linearGradient>
<linearGradient id="paint23_linear_271_286" x1="931.565" y1="570.663" x2="931.566" y2="590.001" gradientUnits="userSpaceOnUse">
<stop stop-color="#FF51B1"/>
<stop offset="1" stop-color="#861396"/>
</linearGradient>
<linearGradient id="paint24_linear_271_286" x1="960.52" y1="512.764" x2="960.522" y2="543.294" gradientUnits="userSpaceOnUse">
<stop stop-color="#606BF1"/>
<stop offset="0.24" stop-color="#5F5AE9"/>
<stop offset="0.71" stop-color="#5B2ED3"/>
<stop offset="1" stop-color="#5911C5"/>
</linearGradient>
<linearGradient id="paint25_linear_271_286" x1="824.445" y1="308.228" x2="841.216" y2="282.286" gradientUnits="userSpaceOnUse">
<stop/>
<stop offset="0.09" stop-color="#090301"/>
<stop offset="0.23" stop-color="#220D05"/>
<stop offset="0.42" stop-color="#4A1C0B"/>
<stop offset="0.63" stop-color="#823013"/>
<stop offset="0.87" stop-color="#C84B1E"/>
<stop offset="1" stop-color="#F15A24"/>
</linearGradient>
<linearGradient id="paint26_linear_271_286" x1="807.132" y1="334.405" x2="833.619" y2="293.521" gradientUnits="userSpaceOnUse">
<stop/>
<stop offset="0.09" stop-color="#090301"/>
<stop offset="0.23" stop-color="#220D05"/>
<stop offset="0.42" stop-color="#4A1C0B"/>
<stop offset="0.63" stop-color="#823013"/>
<stop offset="0.87" stop-color="#C84B1E"/>
<stop offset="1" stop-color="#F15A24"/>
</linearGradient>
<linearGradient id="paint27_linear_271_286" x1="837.004" y1="285.847" x2="851.296" y2="263.994" gradientUnits="userSpaceOnUse">
<stop offset="0.04" stop-color="#FCEE21"/>
<stop offset="0.61" stop-color="#FBB03B"/>
<stop offset="0.62" stop-color="#FBAE3B"/>
<stop offset="0.79" stop-color="#F6812E"/>
<stop offset="0.92" stop-color="#F26527"/>
<stop offset="1" stop-color="#F15A24"/>
</linearGradient>
<linearGradient id="paint28_linear_271_286" x1="840.928" y1="279.894" x2="852.162" y2="262.959" gradientUnits="userSpaceOnUse">
<stop offset="0.04" stop-color="#FCEE21"/>
<stop offset="0.61" stop-color="#FBB03B"/>
<stop offset="0.62" stop-color="#FBAE3B"/>
<stop offset="0.79" stop-color="#F6812E"/>
<stop offset="0.92" stop-color="#F26527"/>
<stop offset="1" stop-color="#F15A24"/>
</linearGradient>
<linearGradient id="paint29_linear_271_286" x1="880.336" y1="254.301" x2="880.282" y2="256.605" gradientUnits="userSpaceOnUse">
<stop stop-color="#FF51B1"/>
<stop offset="1" stop-color="#861396"/>
</linearGradient>
<linearGradient id="paint30_linear_271_286" x1="871.804" y1="268.44" x2="871.678" y2="272.012" gradientUnits="userSpaceOnUse">
<stop stop-color="#FF51B1"/>
<stop offset="1" stop-color="#861396"/>
</linearGradient>
<linearGradient id="paint31_linear_271_286" x1="843.622" y1="230.908" x2="843.493" y2="234.356" gradientUnits="userSpaceOnUse">
<stop stop-color="#FF51B1"/>
<stop offset="1" stop-color="#861396"/>
</linearGradient>
<linearGradient id="paint32_linear_271_286" x1="832.635" y1="244.732" x2="832.509" y2="248.304" gradientUnits="userSpaceOnUse">
<stop stop-color="#FF51B1"/>
<stop offset="1" stop-color="#861396"/>
</linearGradient>
<linearGradient id="paint33_linear_271_286" x1="879.458" y1="205.565" x2="878.94" y2="220.369" gradientUnits="userSpaceOnUse">
<stop stop-color="#FF51B1"/>
<stop offset="1" stop-color="#861396"/>
</linearGradient>
<linearGradient id="paint34_linear_271_286" x1="855.928" y1="247.842" x2="855.402" y2="262.319" gradientUnits="userSpaceOnUse">
<stop stop-color="#FF51B1"/>
<stop offset="1" stop-color="#861396"/>
</linearGradient>
<linearGradient id="paint35_linear_271_286" x1="852.693" y1="255.939" x2="852.294" y2="266.796" gradientUnits="userSpaceOnUse">
<stop stop-color="#FF51B1"/>
<stop offset="1" stop-color="#861396"/>
</linearGradient>
<linearGradient id="paint36_linear_271_286" x1="869.509" y1="224.725" x2="868.915" y2="240.956" gradientUnits="userSpaceOnUse">
<stop stop-color="#606BF1"/>
<stop offset="0.24" stop-color="#5F5AE9"/>
<stop offset="0.71" stop-color="#5B2ED3"/>
<stop offset="1" stop-color="#5911C5"/>
</linearGradient>
<linearGradient id="paint37_linear_271_286" x1="746.875" y1="807.913" x2="731.413" y2="851.224" gradientUnits="userSpaceOnUse">
<stop stop-color="#D84774"/>
<stop offset="0.54" stop-color="#92278F"/>
<stop offset="1" stop-color="#00007A"/>
</linearGradient>
<linearGradient id="paint38_linear_271_286" x1="755.316" y1="811.816" x2="725.343" y2="827.341" gradientUnits="userSpaceOnUse">
<stop stop-color="#D84774"/>
<stop offset="0.54" stop-color="#92278F"/>
<stop offset="1" stop-color="#00007A"/>
</linearGradient>
<linearGradient id="paint39_linear_271_286" x1="767.912" y1="827.956" x2="735.6" y2="857.039" gradientUnits="userSpaceOnUse">
<stop stop-color="#D84774"/>
<stop offset="0.54" stop-color="#92278F"/>
<stop offset="1" stop-color="#00007A"/>
</linearGradient>
<linearGradient id="paint40_linear_271_286" x1="949.096" y1="318.527" x2="932.484" y2="365.059" gradientUnits="userSpaceOnUse">
<stop stop-color="#D84774"/>
<stop offset="0.54" stop-color="#92278F"/>
<stop offset="1" stop-color="#00007A"/>
</linearGradient>
<linearGradient id="paint41_linear_271_286" x1="958.167" y1="322.717" x2="925.965" y2="339.399" gradientUnits="userSpaceOnUse">
<stop stop-color="#D84774"/>
<stop offset="0.54" stop-color="#92278F"/>
<stop offset="1" stop-color="#00007A"/>
</linearGradient>
<linearGradient id="paint42_linear_271_286" x1="967.771" y1="338.508" x2="933.055" y2="369.752" gradientUnits="userSpaceOnUse">
<stop stop-color="#D84774"/>
<stop offset="0.54" stop-color="#92278F"/>
<stop offset="1" stop-color="#00007A"/>
</linearGradient>
<linearGradient id="paint43_linear_271_286" x1="952.149" y1="783.948" x2="952.149" y2="826.373" gradientUnits="userSpaceOnUse">
<stop stop-color="#F79663"/>
<stop offset="1" stop-color="#D84774"/>
</linearGradient>
<linearGradient id="paint44_linear_271_286" x1="949.433" y1="793.528" x2="939.023" y2="822.691" gradientUnits="userSpaceOnUse">
<stop stop-color="#D84774"/>
<stop offset="1" stop-color="#AF008F"/>
</linearGradient>
<linearGradient id="paint45_linear_271_286" x1="937.969" y1="808.031" x2="961.641" y2="796.493" gradientUnits="userSpaceOnUse">
<stop stop-color="#D84774"/>
<stop offset="1" stop-color="#AF008F"/>
</linearGradient>
<linearGradient id="paint46_linear_271_286" x1="939.079" y1="820.631" x2="964.666" y2="811.856" gradientUnits="userSpaceOnUse">
<stop stop-color="#D84774"/>
<stop offset="1" stop-color="#AF008F"/>
</linearGradient>
<linearGradient id="paint47_linear_271_286" x1="952.262" y1="784.362" x2="952.262" y2="826.396" gradientUnits="userSpaceOnUse">
<stop stop-color="#F79663"/>
<stop offset="1" stop-color="#D84774"/>
</linearGradient>
<linearGradient id="paint48_linear_271_286" x1="983.699" y1="122.355" x2="983.699" y2="181.674" gradientUnits="userSpaceOnUse">
<stop stop-color="#F79663"/>
<stop offset="1" stop-color="#D84774"/>
</linearGradient>
<linearGradient id="paint49_linear_271_286" x1="987.116" y1="135.575" x2="972.56" y2="176.349" gradientUnits="userSpaceOnUse">
<stop stop-color="#D84774"/>
<stop offset="1" stop-color="#AF008F"/>
</linearGradient>
<linearGradient id="paint50_linear_271_286" x1="963.861" y1="156.031" x2="996.969" y2="139.901" gradientUnits="userSpaceOnUse">
<stop stop-color="#D84774"/>
<stop offset="1" stop-color="#AF008F"/>
</linearGradient>
<linearGradient id="paint51_linear_271_286" x1="965.422" y1="173.642" x2="1001.19" y2="161.379" gradientUnits="userSpaceOnUse">
<stop stop-color="#D84774"/>
<stop offset="1" stop-color="#AF008F"/>
</linearGradient>
<linearGradient id="paint52_linear_271_286" x1="983.851" y1="122.934" x2="983.851" y2="181.709" gradientUnits="userSpaceOnUse">
<stop stop-color="#F79663"/>
<stop offset="1" stop-color="#D84774"/>
</linearGradient>
<clipPath id="clip0_271_286">
<rect width="1198" height="870" fill="white"/>
</clipPath>
</defs>
</svg>
