<svg id="Layer_1" data-name="Layer 1" xmlns="http://www.w3.org/2000/svg" xmlns:xlink="http://www.w3.org/1999/xlink" viewBox="0 0 1856 753.6">
  <defs>
    <linearGradient id="linear-gradient" x1="932.34" y1="3.68" x2="932.34" y2="757.25" gradientUnits="userSpaceOnUse">
      <stop offset="0" stop-color="#fbfdfe" stop-opacity="0"/>
      <stop offset="0.02" stop-color="#fbfdfe" stop-opacity="0.05"/>
      <stop offset="0.18" stop-color="#fbfdfe" stop-opacity="0.45"/>
      <stop offset="0.32" stop-color="#fbfdfe" stop-opacity="0.75"/>
      <stop offset="0.41" stop-color="#fbfdfe" stop-opacity="0.93"/>
      <stop offset="0.46" stop-color="#fbfdfe"/>
      <stop offset="0.98" stop-color="#6ddae7"/>
    </linearGradient>
  </defs>
  <title>Footer</title>
  <rect x="2.8" y="3.7" width="1859" height="753.57" style="fill: url(#linear-gradient)"/>
  <g>
    <g>
      <path d="M33,386.5c-5.7-28.8,31.2-28.5,37-1.3C62.3,400.8,33,386.5,33,386.5Z" style="fill: #57750e"/>
      <path d="M43,367.6c4.8-5.1,22.5-2.2,24.9,14.6C61.1,381.7,34.3,376.7,43,367.6Z" style="fill: #749316"/>
      <path d="M61,369.4c-4-3.7-13.5-2.4-6.4,5.7S69.5,377.3,61,369.4Z" style="fill: #96b523"/>
      <path d="M-5.2,388.1c19.5-11,26.9-9.8,80.4-2.4S209.7,367.5,218.6,343c4.7-12.2-18.1-19.7-16.2-33.6,5.7,8.3,22.6,24.1,41.9,24.3S289.3,320,289.3,320s13.5-16.1,10.9-16.1-13.4,20.1-23.4,29.3c-7.2,6.6-19,10.4-32.3,14.4-9.7,2.9-61.4,55.3-141.6,67.2-30,4.5-84.3-15.5-108.1,6.8V388.1Z" style="fill: #993e00"/>
      <path d="M283.7,322.2c-3.1,8.1-4.8,13.8-35,11.7,18.7-4.7,26.2-6,38.8-17.3C289.2,324.7,283.7,322.2,283.7,322.2Z" style="fill: #702d00"/>
      <path d="M205.6,313.2c-.7,1.8,3.7,8.8,7.2,12.5s14.9,11.4,13.8,16.1c-3.5,15.4-43.7,32.8-87.3,41.7,20.9-4.3,70.7-19,79.6-43-.4-5.4-17.9-20.9-17.9-31.9C201.2,307.4,205.6,313.2,205.6,313.2Z" style="fill: #702d00"/>
      <path d="M40.2,383.4s-8,1.6-8.7,5.3,13.2,8.6,25.7,12.7,68.6,9.1,94.2-2.1c-7.2,3.1-23.7,12.4-46.4,15.3-17.4,2.2-38.9-.8-60-4.8-32.6-3-44.1,7.3-50.2,13.5V394.1C-5.2,394.2,14.7,379.1,40.2,383.4Z" style="fill: #702d00"/>
      <path d="M211.2,320.4c2.6,6.4,18,14.1,18.1,20,.3,11-29.8,26.9-50.5,34C128.4,391.8,54,385.3,55.4,390.1s51.7,11.6,75,8.5c33.5-4.6,57-11.2,107.5-51.8,4.8-3.9,20.1-1.6,33.1-11.6-3.6,2-19.2,3.7-31.4,1.6C231.8,335.4,211.2,320.4,211.2,320.4Z" style="fill: #9e5c04"/>
      <path d="M-5.3,405.8c3.9,1.6,8.9-.2,13.2-4.1,9.6-8.8,10.4-22.4,4.2-25.8-3.6-4.6-11.7-12-17.5-7" style="fill: #485b0b"/>
      <path d="M29.6,386.9s9.1-3.2,6-15.3C31.5,356,8.7,350.7-5.2,357.8v11.4c1.4,21.3,16.1,28.2,28,23.7,15-6,2.8-26.9-11.6-29.9" style="fill: #57750e"/>
      <path d="M208.8,317.1c-3.2-5.4,9.9-18.1,23.9.6-5.2.8-11,12.9-23.8,5.5-4.2-4.1,2.1-10.6,9.1-9.1" style="fill: #57750e"/>
      <path d="M17.4,415.6c6-17.9,16.8-18.2,24.5-17.8,12.9.8,20.1,19.8,3.5,29.6s-34.9,11-40.2,20.1c-4.3-29.9-6.9-45.9,11.1-55.1,8.2-4.2,20.3-2.9,20.7,7.6" style="fill: #749316"/>
      <path d="M36.8,397.8c-8.4,1.4-20.1,12.9-25.5,34.8,13.7-7.9,39.6-9.1,42-21.7S41.3,397.1,36.8,397.8Z" style="fill: #8faf1c"/>
      <path d="M35.7,395c-9.8-13.2-33.1-.4-27.7,22.7,2.2,3.7,7.5-15.5,25.3-18.8C37.1,399,35.7,395,35.7,395Z" style="fill: #8faf1c"/>
      <path d="M32,378.3c8.7-6.6-.6-27.5-29.7-22,4.5,4.2,1.7,21.9,5.5,28.2s19.3,8.6,20.6-.2-7.9-20-12.8-21.5C23.3,363.4,32,378.3,32,378.3Z" style="fill: #749316"/>
      <path d="M36.8,397.8c8.5-1.8,18.3,3.8,6.6,9.9s-21.8,11.4-24,11S23.2,400.8,36.8,397.8Z" style="fill: #b3d32a"/>
      <path d="M32.5,372.7c3.7-5.3-2.3-14.3-12.3-13.8C23.7,363.1,30.4,375.7,32.5,372.7Z" style="fill: #96b523"/>
      <path d="M208.3,320.3c1.4,4.5,9.4,3.5,13.6.3s8.5-4.3,10.4-3.6c-5.7-8.8-12.9-9.8-17.7-8.7a7.6,7.6,0,0,0-5.6,5.6c3.7-2,10.5-3.9,17,.6C217.5,311.5,206.9,315.9,208.3,320.3Z" style="fill: #749316"/>
      <g>
        <path d="M203.5,310.5c3-4.9-3.1-20.3-19.9-9.3,3.9,2.2,5.1,13.6,17.4,11.5,4.7-2.1,1.5-9.1-4.7-10.1" style="fill: #57750e"/>
        <path d="M203.3,304.7c-.7-6.9-8.2-9.8-18-4.5,2.9.8,3,5.1,8.3,7.3s8.2,1.5,7.5-2.3-7.1-6.1-7.1-6.1C200.9,297.8,203.3,304.7,203.3,304.7Z" style="fill: #749316"/>
      </g>
      <path d="M54.1,396.5c-1.6-2.2-3.6-2.8-6.7-4.1a10.3,10.3,0,0,1-6-7c-.5-2.5-1.3-1.2-.5.9a8.8,8.8,0,0,1,.2,6.9C43.1,394.4,48.4,392.9,54.1,396.5Z" style="fill: #842145"/>
      <g>
        <g>
          <path d="M35.1,382c3.3-.7,10.2,2.7,6.8,9.4s-6.3,7.8-7.2,11.5C21.2,395,27.2,377,35.1,382Z" style="fill: #ba3a75"/>
          <path d="M34.4,380.2c.7-6.6-7.2-11.4-14.4-9.4s-8,7.4-10.9,8.5.5,1.9,2.9,2,11.7,6.6,18,2.2C34,382.7,34.4,380.2,34.4,380.2Z" style="fill: #ba3a75"/>
          <path d="M35.9,380.5c3.7-4.1,11-1.6,14.4,2.7s3,9.1,4.2,11.1,1.5,3.5-1.5,1.6-14.2-1.2-17.7-7.2S35.9,380.5,35.9,380.5Z" style="fill: #ba3a75"/>
          <path d="M46,373.2c2.8,4.4,1.5,12.4-11.5,9.2-10.4-2.6-9.4-10.6-5.2-13.8S42.1,367,46,373.2Z" style="fill: #ba3a75"/>
          <path d="M41.5,381.5c.9-2.7,5,3.8,5.6,2s-1.2-3.5-2.9-4.4c3.2-.9,9.4,6,8.5,11.3S39.1,389.1,41.5,381.5Z" style="fill: #e05a90"/>
          <path d="M29.7,372.8c.3-1.7-3.5-4.3-10.4-2.5-3.5.9-5.9,5.6-7.5,6.6s-1.8,1.7.9,1.4,6,1.6,11.3,1.2,6.8-4,4.8-4.9-5.1-1.3-2.7-2.1S29.5,374.7,29.7,372.8Z" style="fill: #e05a90"/>
          <path d="M33.9,385.2c-2.4-.4,1-4.1-2-3.6s-4.8,2.9-3.8,7.8,7,7.5,9.7,3.7,1.4-9.3.4-10.3S36.3,385.7,33.9,385.2Z" style="fill: #e05a90"/>
          <path d="M40.7,368.8c-6.2-2.9-9.1,0-7.5,1.7s3.3.4,6,1.9,2.2,2.3,5,3S47.6,372.1,40.7,368.8Z" style="fill: #e05a90"/>
          <path d="M47.2,376.4c.1.7-7,2.2-11.6-.4s-5.6-7-4.1-8.5c-2.1.3-4,1.6-4.1,3,2,.2,4.8,2.8,5.8,7.3,0,1.2-5.1,7.3-13,6.2,5.6,1.6,7.8.3,7.8.3a8,8,0,0,1,7.8-3.5c2.5.4,5.8,3.3,5.7,10.9,1.7-6.4-1.3-9.5.1-11.5a3.5,3.5,0,0,1,5.4-.8A4.7,4.7,0,0,0,47.2,376.4Z" style="fill: #842145"/>
        </g>
        <path d="M34.7,378.3c.4-4.9,1.5-18.9-2.3-20.4s-.3-4.5,2.7-1.7S37.3,372.4,34.7,378.3Z" style="fill: #ed510c"/>
        <path d="M35.9,378.6c7.2-8.4,8.2-18.9,12.8-17.7s4.1,5.1,0,3.9S38.8,379.4,35.9,378.6Z" style="fill: #ed510c"/>
        <path d="M48.1,360.8c2.2-.8,3.5,1.1,1.6,2.2S45.6,361.8,48.1,360.8Z" style="fill: #ff9929"/>
        <path d="M46.7,363.1c-.3-.3-.8-.6-1.1-.3a9.8,9.8,0,0,0-1.3,1.4.9.9,0,0,0,1.2,1.2,5.9,5.9,0,0,1,.9-1.1A.8.8,0,0,0,46.7,363.1Z" style="fill: #ff9929"/>
        <path d="M34.5,355.9l-1.1-.6a.8.8,0,0,0-1,.6c-.2.5.2.9.6,1h.1l.3.2.3.2a.8.8,0,0,0,1.1-.3A.7.7,0,0,0,34.5,355.9Z" style="fill: #ff9929"/>
        <path d="M36.3,358.8c-.1-.1-.1-.2-.1-.3a.4.4,0,0,0-.9,0,1.1,1.1,0,0,0,.1.5C35.6,359.5,36.4,359.4,36.3,358.8Z" style="fill: #ff9929"/>
        <path d="M36.8,361.2a.4.4,0,0,0,0,.9A.4.4,0,0,0,36.8,361.2Z" style="fill: #ff9929"/>
      </g>
      <g>
        <path d="M332.6,317c-2.9,3.5-6.3,11.9-15.5,9.1,6.6,2,10,16.4,5,22.1-17.8.2-21.7-11.1-20.8-19.4-.9,4.1-4.1,19.3-26.2,15-5.6-11.4-1.5-18.3,6-22.3,0,0-14.5,4.9-15.6-5.4,5.5-9,11.9-9.8,21.6-6.4-5.6-2.3-6.3-10.4-2.1-13.5,8.1-2.3,21.8,6.6,20.3,15.7C314.4,302.6,328.8,308.3,332.6,317Z" style="fill: #57750e"/>
        <path d="M291.2,320.3c-5.9-4.3-19.9,1.4-14.9,19.5,12.3.1,25-3,20.5-16.7-2.3-3.5-13.3,3.2-16.6,11.2C280.2,324.7,291.2,320.3,291.2,320.3Z" style="fill: #749316"/>
        <path d="M309.8,325.3c11.1-1.7,16.3,8.5,12.9,19C322,339.7,314.9,328.3,309.8,325.3Z" style="fill: #749316"/>
        <path d="M306,326.8c.7-4.3,16.5,9.3,16.7,17.4C314.6,344,304.2,337.7,306,326.8Z" style="fill: #749316"/>
        <path d="M293.9,323.6c-5.1.7-13.5,5.2-13.7,10.6C288.3,336.1,296.1,328.9,293.9,323.6Z" style="fill: #8faf1c"/>
        <path d="M330.8,314.8c-7-12.1-28-10.7-24.5,2.1,2.3-4.2,13.2-6,16.6-4.7-7.1.7-15.6,3.4-14.7,7.9S325.7,322.9,330.8,314.8Z" style="fill: #749316"/>
        <path d="M291.7,313.8c-3.6-12.4-20.3-7.1-24.7.9,1.4,5.7,18.2,6.2,22.4,2.3-.9-4.1-10.1-5.4-13.6-4.2C280.4,308.7,288.6,312.3,291.7,313.8Z" style="fill: #749316"/>
        <path d="M302.4,313.4c8.9-10.3-5.7-17.5-14.7-17.7-3.8,4.9-2.4,19.1,9.1,18.6,2.2-4.1-2.7-12.1-2.7-12.1C298.7,304.8,302.4,313.4,302.4,313.4Z" style="fill: #749316"/>
        <path d="M291.1,312.2c-1.6-6.2-10.9-8.7-19.2-1.6C281.7,308.1,289.2,312.1,291.1,312.2Z" style="fill: #8faf1c"/>
        <path d="M311,307.3c7.2-1.9,14.2,2.3,14.2,3.5s-7.6-1.9-16.2,2.7C304.3,315.9,308,308.1,311,307.3Z" style="fill: #8faf1c"/>
        <path d="M291.9,297.6c8.2.4,14.1,5,11.7,12.2C301.4,308.8,297.1,298,291.9,297.6Z" style="fill: #8faf1c"/>
        <g>
          <g>
            <path d="M300.3,316.5c-1.6-1.9-7-3.2-8.1,2.2s-.1,7.2-1.2,9.8C302.1,330.2,306.9,317.3,300.3,316.5Z" style="fill: #ba3a75"/>
            <path d="M301.5,315.8c2.7-4,9.3-3.1,12.4,1.4s1,7.9,2.2,9.8-1.1.9-2.6-.3-9.6-1.6-11.1-7C300.5,317.3,301.5,315.8,301.5,315.8Z" style="fill: #ba3a75"/>
            <path d="M300.5,315.2c-.2-4.1-5.4-6-9.3-5.1s-5.9,3.7-7.5,4.3-2.4,1.3.1,1.6,8.5,5.9,13.2,4.1S300.5,315.2,300.5,315.2Z" style="fill: #ba3a75"/>
            <path d="M298.1,306.5c-3.5,1.2-6.6,6.3,2.2,10.4,7,3.4,10.2-1.6,9.2-5.4S303.1,304.8,298.1,306.5Z" style="fill: #ba3a75"/>
            <path d="M296.8,313.3c.8-1.9-4.6-.2-4.1-1.5s2.3-1.4,3.6-1.1c-1.4-2-7.9-.9-9.9,2.5S294.8,318.6,296.8,313.3Z" style="fill: #e05a90"/>
            <path d="M307.5,313.9c.7-1.1,3.9-.9,7,3.4,1.6,2.1.7,5.9,1.2,7.2s.2,1.8-1.1.4-4.1-1.8-6.9-4.5-2.1-5.4-.4-4.9,3.5,1.6,2.4,0S306.8,315,307.5,313.9Z" style="fill: #e05a90"/>
            <path d="M299.4,318.9c1.6.9,1.3-2.8,2.8-1.1s1.3,3.9-1.5,6-7.3,1-7.1-2.3,3.5-5.9,4.5-6S297.9,318,299.4,318.9Z" style="fill: #e05a90"/>
            <path d="M303.1,306.5c4.8,1.2,5.1,4.1,3.5,4.4s-2-1.3-4.2-1.6-2.3.3-4.1-.6S297.8,305.2,303.1,306.5Z" style="fill: #e05a90"/>
            <path d="M296.1,307.8c-.3.3,2.9,4.4,6.6,5.1s6.4-1.4,6.2-2.8c1,1.1,1.5,2.8.9,3.6-1.2-.8-4.1-.6-6.6,1.5-.5.7-.5,6.5,4.5,9.5-3.9-1.7-4.5-3.4-4.5-3.4a5.9,5.9,0,0,0-2.8-5.5c-1.6-.9-4.7-.8-8.2,3.5,2-4.4,5.1-4.7,5.3-6.5a2.6,2.6,0,0,0-2.7-2.9A3.2,3.2,0,0,1,296.1,307.8Z" style="fill: #842145"/>
          </g>
          <path d="M302.1,314.6c2.1-2.9,7.9-11.3,10.6-10.4s2.2-2.3-.7-2.2S303.4,310.1,302.1,314.6Z" style="fill: #ed510c"/>
          <path d="M301.3,314.2c-.2-7.9,4.1-14.4.9-15.8s-4.7.9-1.8,2.2S299.4,313.3,301.3,314.2Z" style="fill: #ed510c"/>
          <path d="M302.7,298.7c-.9-1.4-2.4-.9-1.9.5S303.7,300.3,302.7,298.7Z" style="fill: #ff9929"/>
          <path d="M302.4,300.6a.6.6,0,0,1,.8.3,7.4,7.4,0,0,1,.1,1.4.7.7,0,0,1-.5.7c-.3,0-.7-.2-.7-.5a4.9,4.9,0,0,0,0-1.1C301.9,301,302,300.7,302.4,300.6Z" style="fill: #ff9929"/>
          <path d="M312.5,302l.9.2a.6.6,0,0,1,.3.8.6.6,0,0,1-.8.3h-.6c-.3,0-.5-.4-.5-.7S312.2,302,312.5,302Z" style="fill: #ff9929"/>
          <path d="M310.2,302.9l.2-.2c.3-.3.7.1.5.4l-.3.3C310.3,303.6,310,303.2,310.2,302.9Z" style="fill: #ff9929"/>
          <path d="M308.9,304c.3.3-.1.7-.4.5S308.6,303.8,308.9,304Z" style="fill: #ff9929"/>
        </g>
      </g>
    </g>
    <g>
      <path d="M85.9,343.1c-10.4-10-41.2-11.7-40.2-6.3S80.2,345.6,85.9,343.1Z" style="fill: #e2a98c"/>
      <path d="M73.2,337.3c4.1-1.1-23.2-4.8-26-1.1S67.9,338.8,73.2,337.3Z" style="fill: #ffd0bb"/>
      <path d="M88,345.5c-16.2-9.6-56.1-5.3-54.9,1.7S79.2,357.5,88,345.5Z" style="fill: #e2a98c"/>
      <path d="M72.5,337.8c-2.6,2.7-11.2,2.1-16,1.9,9.6.5,16.1,1.7,16.4,2.7s-10.5.4-10.5.4c9.5.5,17.7,1.1,18.1,2.8s-9.2,6.6-23,7.9c10.3.9,29.3-3.1,30.8-7.3" style="fill: #d37272"/>
      <path d="M117.2,361.2c-3.1,1.3-4.6,22-2.7,23.5s7.1.9,7.5,3.1-5.3-.2-6.7,0,4.4,4.4,1,5.4-2.9-4-4.6-5-8.8,2.1-8.7-.4,6.7-1.5,7.8-3.5,1.3-21.1.7-23" style="fill: #16232d"/>
      <path d="M123.1,353.7c.3,5-4.3,10.1-5.5,10.4,2.2,3.4-.6,4.5-1.4,1.2-1.9,4.5-8.2,2.1-5.8-.3-4.2,2.2-4.1-.9-.5-1.2-2.8-1.3-2.8-11.7-2.8-11.7" style="fill: #e08668"/>
      <path d="M152.1,312.3c5.8,11.7,4.3,39.4-15.9,49.5s-46.8-1.4-55-16.7c-2.3-4.4,1.6-6,1.6-6,4.8-10.4,31.8-28,48.7-25.7" style="fill: #004fc1"/>
      <path d="M152,315.3c4.3.9,4.2,13.3,2.6,22.3s-33.9,13.6-30.6,9.1a41.7,41.7,0,0,0,13.6-20.5c1.4-4.1,8.1-6.7,8.1-6.7" style="fill: #0372de"/>
      <path d="M140.4,331.4c-5.3,8.4-10.7,16.6-25.1,16.6-12.1,0-27.8-9.6-34.6-7.3-1.4.4.2,5.3,2.1,7.4,5,6.5,21.9,22.2,46.8,16.1,20.7-5,27.4-27.2,24.9-35.6S144.6,324.7,140.4,331.4Z" style="fill: #d37272"/>
      <path d="M90.9,352.1c-1.6,1,4.2,5.3,7.3,2.3S92.5,351.1,90.9,352.1Z" style="fill: #efa29e"/>
      <path d="M86.3,349.3c1.6.3,3.2,2.2,1.7,2.2S85.4,349.2,86.3,349.3Z" style="fill: #efa29e"/>
      <path d="M96.7,357.7c-1.4-1.9-5-1.6-4.1-.8S98.4,360.1,96.7,357.7Z" style="fill: #efa29e"/>
      <path d="M141.4,332.4c-5.3,8.4-12.6,15.5-26.7,17.3-5.4.7-19,.5-17.9,6.3s19.2,11.4,32.8,8.1c20.7-5,27.2-25.9,24.7-34.3S145.5,325.8,141.4,332.4Z" style="fill: #efa29e"/>
      <g>
        <path d="M121.6,312.1c-9.8-11.3-6.3-42.2,16.1-47.9,24.9-6.3,32.2,15.6,36.7,21.9,9.4,4.4,4.7,19.3-9.4,26.1S133.5,325.8,121.6,312.1Z" style="fill: #057cdd"/>
        <path d="M137.1,265.4c-14.1,6.1-14.9,23-13.1,32.4s3.7,19.7,19.9,18.3c10.6-.9,24.7-6.3,31.5-15.5,5.4-7.3,1.8-13.2-1.7-14.4C163.2,266.7,152.4,258.7,137.1,265.4Z" style="fill: #1897d6"/>
        <path d="M155.2,293.2c-1.8,3.1-2.6,7.7-.1,9.7s4.4,4.3,5.5,3.3,7.2-7.9,3.1-12" style="fill: #057cdd"/>
        <path d="M174.4,286.2c-2.4-1.6-7.5,4.1-3,7.5S179.8,289.9,174.4,286.2Z" style="fill: #dd7676;opacity: 0.8999999761581421;isolation: isolate"/>
        <path d="M131.4,304c1.1-5.7,15-2.4,12.9,2.1S130.1,310.5,131.4,304Z" style="fill: #dd7676;opacity: 0.8999999761581421;isolation: isolate"/>
        <path d="M140.4,265c-16.5,6.7-7,33.2,13.6,26.9S159.7,257.1,140.4,265Z" style="fill: #26bbef"/>
        <g>
          <path d="M133.5,283c-7.9,4.7-4.3,21.5,6.5,18.5C154,297.6,141.8,278.1,133.5,283Z" style="fill: #2a70bc"/>
          <path d="M133.8,284c-7.5,4.4-4.1,20.5,6.2,17.7C153.4,298,141.7,279.3,133.8,284Z" style="fill: #f7aac8"/>
          <path d="M134.1,284.5c-5.6,4.1-3.6,18.8,5.9,15.7C152.4,296.3,141.1,279.4,134.1,284.5Z" style="fill: #f4e8dc"/>
          <path d="M135.8,283.2c-5.9,3.6-2.4,17.5,5.9,14,2.8-1.2,4.1-3.5,4.1-5.5C144.4,286.4,139.6,281.7,135.8,283.2Z" style="fill: #935337"/>
        </g>
        <g>
          <path d="M163.1,273.6c5.6-1.6,13.5,12.9,6.2,15.3S156.5,275.5,163.1,273.6Z" style="fill: #2a70bc"/>
          <path d="M163.3,274.7c5.8-1.6,12.5,12.2,5.8,14.3C160.8,291.7,157.1,276.5,163.3,274.7Z" style="fill: #f7aac8"/>
          <path d="M163.9,274.9c5.4-1.6,11.4,11.4,5.2,13.4S158.2,276.5,163.9,274.9Z" style="fill: #f4e8dc"/>
          <path d="M163.8,273.9c-4.6,2.1-1.7,14.9,5.2,12.5,1.7-.6,2.7-3,2.2-4.8C170.6,278.1,166.8,273.2,163.8,273.9Z" style="fill: #935337"/>
        </g>
        <path d="M165.7,273.9c-3.2.1-3.5,4.1-2,7.7s4.5,3.8,5.8,2.9,1.6-3,1.1-4.8S167,274.2,165.7,273.9Z" style="fill: #2d0c00"/>
        <path d="M137.9,283.1c-4.1-.2-5.3,6.1-2.3,9.8s10.2,1.7,9.1-4C143.6,286.3,140.1,283.1,137.9,283.1Z" style="fill: #2d0c00"/>
        <path d="M138.4,293.3c-1.6-1.1-4.4,3.3-1.7,4.7S139.2,293.8,138.4,293.3Z" style="fill: #f4e8dc"/>
        <path d="M167.2,283.1c-1.1-.9-3,2.8-1.2,4.1S167.7,283.7,167.2,283.1Z" style="fill: #f4e8dc"/>
        <path d="M164.9,295.1c1.4,2.9.8,8.5-1.8,9.8-.7.3-1.2-.8-4.1-1.6-4.6-1.2-7.1-2.4-5.2-4.1" style="fill: #ef9300"/>
        <path d="M164,295.4c.9,4.6.3,6.6,0,7.2,1.2-.3,2.2-6.1.2-7.9" style="fill: #ffc41f"/>
        <path d="M163.3,295.4c.9,1.9.4,6.1-1,6.9s-4.9-2.2-7.3-2.4" style="fill: #ea4242"/>
        <path d="M161.6,297.5c1,.8.5,3.5-.3,4.1s-3-.8-2.9-1.5S160.2,296.3,161.6,297.5Z" style="fill: #fc5959"/>
        <path d="M167.1,276.6c1-.1.9,1.6.3,1.6S166.1,276.7,167.1,276.6Z" style="fill: #f4e8dc"/>
        <path d="M139.9,285.3c1.2-.1,1.1,1.9.4,1.9S138.7,285.5,139.9,285.3Z" style="fill: #f4e8dc"/>
        <path d="M152.1,299.5c-3.5-4.7.9-9.7,4.8-10.6s9.4.4,11.6,5.4c.5,1.2-3.9,1.1-5.6,2.6s-3.3,3-5.9,3.7-2.2.9-3.5.2Z" style="fill: #ef9300"/>
        <path d="M156.9,288.8c4.7-1.6,9.9,1.8,11,4.8,0,.8-3.6.6-5.4,1.4s-5.9,5.4-9.1,3.5S151.9,290.4,156.9,288.8Z" style="fill: #ffc41f"/>
        <path d="M160,301.9c-1.7-.7-2.3-.2-.3.9S163.1,303.2,160,301.9Z" style="fill: #ffc41f"/>
        <path d="M162.1,288.8c1.8.4,3.1,3.1-1,2.5S157.6,287.7,162.1,288.8Z" style="fill: #ffe443"/>
        <path d="M156.5,292.9c-1.6-.4-2.8.6-1.6,1.4S157.6,293.2,156.5,292.9Z" style="fill: #ef9300"/>
        <path d="M135.4,274.4c-1.9-1.7-4.7,1.3-4.3,6C132.3,275.4,136,275.1,135.4,274.4Z" style="fill: #2d0c00"/>
        <path d="M153.1,267.9c0-2,3.4-2.9,6.6-.3C155.4,266.1,153.2,268.8,153.1,267.9Z" style="fill: #2d0c00"/>
        <path d="M130,295.1c-1.7-8.5,1.8-13.8,7.7-12.9,2-.9,1.8-3.4,1.8-3.4.8,1.7.9,4.5-.3,4.8C134.5,281.4,129.6,285.7,130,295.1Z" style="fill: #2d0c00"/>
        <path d="M161.1,284.6c-3.2-8-.9-12.3,4.9-11.4,1.9-.4,1.6-2.9,1.6-2.9s.7,4.1-.5,4.5C162.8,273.6,159,275.5,161.1,284.6Z" style="fill: #2d0c00"/>
        <path d="M129.8,267.6c2-2.2.9-6.5-.3-8,2.6-.9,4.1.6,3.6,4.2.9-3.1,2.6-6.2,5.3-7.1s5.9,1.6,6.6,2.5c-2.3-.6-6.2-.3-9.9,4.4,2.4-3.2,9.9-4.6,10.6,1-4.7-2-11.5,1-13.9,2.7" style="fill: #057cdd"/>
        <path d="M164,296.1c-1.7.5-4.1,3.2-6.6,3.9s-3.1-1-3.6-.4.7,1.8,3.5,1S161.9,297,164,296.1Z" style="fill: #ba3000"/>
        <path d="M136,263.2c3.1-4.1,7.8-3.1,9.1.1C142.3,262.2,136,263.2,136,263.2Z" style="fill: #1897d6"/>
        <path d="M134.8,261.4c.2-3.3,4.1-7.2,9.2-3.2C140.4,257.8,134.8,261.4,134.8,261.4Z" style="fill: #1897d6"/>
        <path d="M133.1,261c.4,1.6.6,4.1-1.3,5.1A33.2,33.2,0,0,0,133.1,261Z" style="fill: #004fc1"/>
        <path d="M131.6,267.6c2.8-3.4,5.8-4.1,10.7-3.6C138.4,264.1,131.6,267.6,131.6,267.6Z" style="fill: #004fc1"/>
        <path d="M140.5,256.6c3.9.7,2.3,1.8-1.2,2.1S136.8,255.9,140.5,256.6Z" style="fill: #26bbef"/>
        <path d="M142.5,260.9c2.4,1.4,1.1,2.1-1.3,1.8S140.3,259.6,142.5,260.9Z" style="fill: #26bbef"/>
      </g>
      <path d="M99.1,356.8c2.8,1.8-10.4,26.3-12.7,27.2s-8.1-.6-8.9,1.6,5.4.3,6.8.8-6.3,2.4-3.2,4,5.3-2.5,7.2-3.3,7.4,3.1,7.7.6-5.1-2-5.4-3.7,13.1-23.3,14.1-25" style="fill: #16232d"/>
      <path d="M110.6,356.5c-1.2,4.8-7.1,8.5-8.3,8.4,1.1,3.9-1.9,4.1-1.6.8-3.1,3.8-8.4-.4-5.4-2-4.7.9-3.7-2-.2-1.3-1.6-4.6,2.1-8.5,2.1-8.5" style="fill: #efa29e"/>
      <path d="M69,341.1c-10.9-1.8-34.6.6-34.7,4.7s35.2,7.6,43.2-.6c-2.4-1.1-19.6-2.2-31.3-1.2C59.5,340.4,71.4,342.3,69,341.1Z" style="fill: #ffd0bb"/>
      <path d="M150.5,333.8c1.8.4,3.7,7.8-1.8,16.7-6.9,11-23.5,15-35.7,13.2-8.3-1.2-15.5-6.7-12.2-8.7s11.1,2.7,28-7C142.8,339.9,145,332.5,150.5,333.8Z" style="fill: #f9cbb7"/>
      <path d="M104.7,362.5c.5,1.2-3.5,4.1-6.5,1.6s-1.4-4.5.1-4.7S104.2,361.2,104.7,362.5Z" style="fill: #f9cbb7"/>
      <path d="M98.9,365c1.7.6-.5,2.8-2.7,2S96.5,364.2,98.9,365Z" style="fill: #f9cbb7"/>
      <path d="M95.5,362.6c.3.4-2.3.7-2.8.3s2.5-1.1,2.8-.4" style="fill: #f9cbb7"/>
      <path d="M150.3,327.7c2.3.5,1.2,7.1-1.1,6.9S147.4,327.1,150.3,327.7Z" style="fill: #f9cbb7"/>
      <path d="M143.9,332.3c1.7.5-.1,3.8-1.5,3.7S140.9,331.4,143.9,332.3Z" style="fill: #f9cbb7"/>
      <path d="M138.5,339.9c1.7.4.6,4.7-1.6,4S136.4,339.4,138.5,339.9Z" style="fill: #f9cbb7"/>
      <path d="M118.4,352c-2-1.5-8.5.8-6.1,2.1S120.1,353.3,118.4,352Z" style="fill: #f9cbb7"/>
      <path d="M149.2,340.9c3.4,3.1-2.4,13.1-4.6,12.3s.7-3.8.7-3.8-3.4,5.9-6.2,4.1,1.4-6.5,1.4-6.5-1.4,1.9-2.4.5S144.1,338.2,149.2,340.9Z" style="fill: #ffe5dc"/>
      <path d="M141.7,354.7c-4.5,2.5-4.7-1.6-4.3-2.5-5.4,4.2-9.8,7-8.5,8.2S137.3,358.9,141.7,354.7Z" style="fill: #ffe5dc"/>
      <path d="M137.1,346.6c-.3,2.3.9,2.3.9,2.3-1.9,2.3-4.3,3.8-4.8,3.2S136.4,347.9,137.1,346.6Z" style="fill: #ffe5dc"/>
      <path d="M142.6,353.7c.4,1.1,1.7.9,3.3-.3-2.8,3.5-7.8,6.2-8.8,4.7C139.3,357.3,142.6,353.7,142.6,353.7Z" style="fill: #ffe5dc"/>
      <path d="M131,352.8c-.3,1.8,2.4,1.6,2.4,1.6-2.2,1.4-4.9,2.5-5.4,1.6S131,352.8,131,352.8Z" style="fill: #ffe5dc"/>
      <path d="M51.7,341c-7.9.5-17.8,2-16.7,4.8s16.6,2.7,26.5,0c-8.2-1.6-21.7-.8-21.7-.8C42.7,343,51.7,341,51.7,341Z" style="fill: #ffe9e3"/>
      <path d="M57.9,334.8c-3.4-1-12.8-.3-10.7,1.4C51.6,339.7,61.2,335.8,57.9,334.8Z" style="fill: #ffe5dc"/>
      <g>
        <path d="M85.3,329.9s-14.4-2.7-16.5-.9,15.7,3.9,15.7,3.9-17.5-3.8-18.6-.9,24.8,6.9,24.8,6.9-23-4.6-23.3-2.1,13.1,8.5,25.2,8" style="fill: #56312c"/>
        <path d="M93.4,323.8c-9.1,1.5-18.4,7.4-12.7,8.4-5.6.7-5.4,4.3,2.8,6.4-.9,0-2.6-1-2.9-.7-2,2.2,4.5,7.2,15.7,8.3,13.5,1.4,23-6,21-10.1" style="fill: #16232d"/>
        <path d="M91.3,329.8a3,3,0,0,1-2.1-4.3c-4.6,1.3-9.8,3.3-9.9,4.5S85,330.5,91.3,329.8Z" style="fill: #45565e"/>
        <path d="M89.1,332.1c-.5,2.9,2.2,4.1,7.8,4.4-8,.5-17.3-1.4-17.6-3.3S89.1,332.1,89.1,332.1Z" style="fill: #45565e"/>
        <path d="M93.8,338.5c-.7,1.9,1.2,4.1,5.2,5.6-7.2-.2-17.3-4.1-17.6-6.1S93.8,338.5,93.8,338.5Z" style="fill: #45565e"/>
        <path d="M78.1,329.3c-1.6-1.1-10.2-.9-9.2-.3S80,330.7,78.1,329.3Z" style="fill: #844741"/>
        <path d="M78,332c-7.6-1.7-11-1.2-11.5-.2s9.1,3.8,12.9,4.5a4.1,4.1,0,0,1-2.6-2.7l-6.6-1.7A66.2,66.2,0,0,1,78,332Z" style="fill: #844741"/>
        <path d="M78.8,337a2,2,0,0,0,.5,1.5c-2.8-1.2-7.2-1.1-7.2-1.1a34.1,34.1,0,0,1,7.6,2.2,11,11,0,0,0,3.9,2.8c-8.5-.6-15.7-4.6-15.6-5.8S77.4,336.5,78.8,337Z" style="fill: #844741"/>
        <path d="M130.8,324c4.1,11.9-8.5,23-23.6,21.8-8.2-.5-16.8-6.8-4.9-11.6-9.1,1.5-18.4-2.7-4.9-6.3-7.2,0-7.5-6.4,7.9-10.2S127.2,314.5,130.8,324Z" style="fill: #0372de"/>
        <path d="M123.9,317.8c7.9,3.9,7.3,14.6-2.4,19.9s-22.2,3.4-22.2-.5,7.8-5.3,7.3-5.2c-7.3,1.5-13.9.8-14.1-1.9-.1-1.1,3.8-2.2,8.3-3.8-11,1.1-9.5-4.4,2.8-8.1C112.7,315.5,119.5,315.7,123.9,317.8Z" style="fill: #1897d6"/>
        <path d="M121.5,316.9c-8.2-3.1-27.7,4.9-16.7,10.2S134.4,321.9,121.5,316.9Z" style="fill: #26bbef"/>
        <path d="M105.8,320.9c-1.7-1.2-9.2.9-6.8,2.3S108.2,322.8,105.8,320.9Z" style="fill: #26bbef"/>
        <path d="M106.2,327.5c-1.8-1.6-12.5.7-9.6,2.8S109.2,330.2,106.2,327.5Z" style="fill: #26bbef"/>
        <path d="M115.2,331.6c2.2,1-.6,4.5-5.1,2.9S112.5,330.4,115.2,331.6Z" style="fill: #26bbef"/>
        <path d="M121.6,327.2c1.6.5-1,2.8-3.6,1.8S118.6,326.2,121.6,327.2Z" style="fill: #26bbef"/>
      </g>
      <path d="M89.7,326.3c-.6,0-6.9,2.1-6.9,2.1l7.3-1" style="fill: #16232d"/>
      <path d="M89.4,332.8c-2.5-.7-7.1-.2-7.1-.2a50.4,50.4,0,0,0,8.3,1.2" style="fill: #16232d"/>
      <path d="M94.2,339.3c-3.4-1-8.6-.5-8.6-.5,2.8,1.2,9.1,1.8,9.1,1.8" style="fill: #16232d"/>
      <path d="M81.6,328.5c-.3.4.8,1.1,2.7,1.2C79.1,330.4,78,329.9,81.6,328.5Z" style="fill: #758389"/>
      <path d="M82.8,331.9c-1.6.6-1,1.9.5,2.4C78.7,333.9,77.2,331.8,82.8,331.9Z" style="fill: #758389"/>
      <path d="M85.3,337.9c-1.6.3-2.2.8,1.2,2.4C81,339.2,79.5,337.1,85.3,337.9Z" style="fill: #758389"/>
      <path d="M90.9,380.2c.8.5-2.2,3.3-1.6,4.3s3,.8,4.3,1.3,1.4,1.7-.1,1.8-3.5-2.2-5.1-2-3.5,2.3-4.7,3.4-3.3.8-2.8-.4,4.5-2.2,3.9-2.8-3.7-.4-4.7-.1-1.7-.9,0-1.4,5.3.5,6.9-.2S90.3,379.7,90.9,380.2Z" style="fill: #324147"/>
      <path d="M113,381.5c-.6-.1-.3,2.6-1.3,3.3s-5.8.9-7.1,1.5-.9,1.5.5,1.5,5.3-2.2,6.7-1.4,1.6,3.5,2.2,4.8,2.5,1.5,2.5.2-2.8-3.5-1.8-4.5,4.6,0,5.4.7,1.9-.2.5-1.2-5.3-.2-6.6-1.5S113.7,381.6,113,381.5Z" style="fill: #324147"/>
      <path d="M92,378.3c.6.3-.1,1.6-.8,1.3S91.3,378.1,92,378.3Z" style="fill: #324147"/>
      <path d="M95.4,371.3c.6,0,.3,1.4-.4,1S94.9,371.3,95.4,371.3Z" style="fill: #324147"/>
      <path d="M96.3,370.7c.8.3.7-.8.2-.9S95.7,370.5,96.3,370.7Z" style="fill: #324147"/>
      <path d="M81.7,387.8c1.2-.7,1.9.3.8.9S80.1,388.7,81.7,387.8Z" style="fill: #526166"/>
      <path d="M116.3,390.6c.9,1.1-.3,1.9-1.1.9S115.2,389.2,116.3,390.6Z" style="fill: #526166"/>
      <path d="M80.1,384.4c-.8.1-1.6,1-.1,1S80.9,384.3,80.1,384.4Z" style="fill: #526166"/>
      <path d="M105.1,386.1c-.8.1-1.6,1-.1,1S105.9,386,105.1,386.1Z" style="fill: #526166"/>
      <path d="M112.9,379.7c.6,0,.7,1.4,0,1.3S112.1,379.7,112.9,379.7Z" style="fill: #324147"/>
      <path d="M113.1,369.8c.6,0,.9.9,0,.9S112.5,369.8,113.1,369.8Z" style="fill: #324147"/>
    </g>
  </g>
  <circle cx="1622.7" cy="149.3" r="66.7" transform="translate(369.7 1191.2) rotate(-45)" style="fill: #ffc41f"/>
  <path d="M1729,205a19.2,19.2,0,0,1-19.2,19.2,18.7,18.7,0,0,1-9.1-2.3,12.4,12.4,0,0,1-22.3-6.3h0a16.4,16.4,0,0,1-31.8,5.3,19.8,19.8,0,0,1-9.1,2.3,19.2,19.2,0,1,1,0-38.4,19.2,19.2,0,0,1,37.4-6.3,20.7,20.7,0,0,1,6.3-1,19.1,19.1,0,0,1,17.7,11.7,18.8,18.8,0,0,1,10.9-3.4A19.2,19.2,0,0,1,1729,205Z" style="fill: #fcfcfc;stroke: #f4f4f4;stroke-miterlimit: 10"/>
  <path d="M1605.8,156.3a25.6,25.6,0,0,1-25.6,25.6,26.1,26.1,0,0,1-12.1-3,16.6,16.6,0,0,1-29.9-8.5h-.1a22,22,0,0,1-42.5,7.1,26.1,26.1,0,0,1-12.1,3,25.6,25.6,0,1,1,0-51.3,25.6,25.6,0,0,1,49.9-8.3,26.4,26.4,0,0,1,8.5-1.4,25.7,25.7,0,0,1,23.7,15.8,25.8,25.8,0,0,1,40.4,21Z" style="fill: #fcfcfc;stroke: #f4f4f4;stroke-miterlimit: 10"/>
  <g>
    <path d="M1867,579.1l-7.9,174.4H-3V624c116.2-11.2,225.2-52.9,353.8-46.1,143.9,7.6,318.5,64.1,466.5,68.3C1118.3,654.5,1551,545,1867,579.1Z" style="fill: #39b54a"/>
    <g>
      <path d="M352.2,605.6c.6-4.4,4.5-8.5,10.4-10.9a13,13,0,0,0-9.8.5,20.1,20.1,0,0,0-6.3,5,15.7,15.7,0,0,1,1.2-11c-6,2-9.8,6.3-9.4,10.5-2.8-3-7.9-5.1-13.5-5.4,5.8,2.5,9.1,6.9,8,11.2C338.5,605.6,344.2,605.8,352.2,605.6Z" style="fill: #588531"/>
      <path d="M710.3,637.3a51.4,51.4,0,0,1,12.7-9.9c-6.5-1.1-14,.6-17.7,4.1a18.2,18.2,0,0,1,3.4-9.9c-5.8,1.9-9.9,5.5-10.7,9.5a21.7,21.7,0,0,0-8.6-3.3c2.8,2.8,4,6,3.2,9.3A140.7,140.7,0,0,0,710.3,637.3Z" style="fill: #588531"/>
      <path d="M1386.2,659.2a20.8,20.8,0,0,0-10-10.4c5.7-1.2,12,.3,15.8,3.8a7.1,7.1,0,0,1,.6-8,11.8,11.8,0,0,1,8.6-4.1c-.6,4-1.3,8.1-1.9,12.1a31.5,31.5,0,0,1,16.9-6.5,22.1,22.1,0,0,0-7.8,12.9C1400.5,658.4,1392.4,659.4,1386.2,659.2Z" style="fill: #588531"/>
    </g>
  </g>
  <g>
    <g>
      <g>
        <path d="M1202.3,380.1a79.6,79.6,0,0,1-6.3-12.9,5.2,5.2,0,0,1-.4-1.9,1.7,1.7,0,0,1,1.1-1.6,2.4,2.4,0,0,1,1.8.5,18.8,18.8,0,0,1,4.8,4.4,41,41,0,0,1,3.2-10.1,5.4,5.4,0,0,1,1.1-1.7,1.8,1.8,0,0,1,1.8-.4c.9.4,1.1,1.6,1.1,2.6a61.6,61.6,0,0,1-.8,7.6,32.2,32.2,0,0,1,6.3-6.6,2.4,2.4,0,0,1,2.2-.4c1.5.6,1.2,2.3.8,3.6s-1.8,4.2-2.7,6.8a14.5,14.5,0,0,1,7-4.9c1-.4,2.2-.4,2.8.6a2.1,2.1,0,0,1,0,1.9c-1.4,2.8-3.1,5.5-4.8,8.4a10.9,10.9,0,0,0,2.6-1.9,5.5,5.5,0,0,1,3.5-1.8,2.2,2.2,0,0,1,1.8.8c1,1.1.3,2.6-.5,3.7a44.3,44.3,0,0,1-12.6,12.7C1211.7,386.7,1205.7,385.7,1202.3,380.1Z" style="fill: #f2a7a0"/>
        <polygon points="1216.4 388 1188.3 465.9 1173.6 441.3 1204.4 381.6 1216.4 388" style="fill: #f2a7a0"/>
      </g>
      <g>
        <g>
          <path d="M1125.6,468.8c1.5-3.3,2.5-5.1,1.2-7.7s-4.8-2.7-6.2-1.7c-1.8-2.2-3.7-4.4-6.3-5.2s-5.5.4-5.5,3.1a3.7,3.7,0,0,0-4.1,4.8c-1.9.6-4.1,2.2-3.1,7-1.5,1.5-1.4,4.3-.2,6,3.1,4.1,8.4,7.5,13.4,7C1119.1,478.2,1123.3,474,1125.6,468.8Z" style="fill: #fdbab2"/>
          <path d="M1108.6,457.4a5.6,5.6,0,0,1,3.3,1.8c2.6,2.6,5.7,6.8,4.2,9s-10.3-4.6-10.3-4.6" style="fill: #fdbab2;stroke: #aa5861;stroke-miterlimit: 10"/>
          <path d="M1120.5,459.8s-7.6,7.9-4.9,10.3,7.5-2.5,7.5-2.5" style="fill: #fdbab2;stroke: #aa5861;stroke-miterlimit: 10"/>
          <path d="M1105.8,462a5.6,5.6,0,0,1,3.3,1.8c2.6,2.6,5.7,6.8,4.2,9s-9.6-3.6-9.6-3.6" style="fill: #fdbab2;stroke: #aa5861;stroke-miterlimit: 10"/>
          <path d="M1102,469.5s1.2-1.8,4.1-.3,6.8,5,5.4,7-7.5-1.4-7.5-1.4" style="fill: #fdbab2;stroke: #aa5861;stroke-miterlimit: 10"/>
        </g>
        <path d="M1113.8,481.9l19.7,10.1a10,10,0,0,0,12.2-2.3l5.3-5.9-6-23.4-9.2,15.2-13.5-3.4Z" style="fill: #fdbab2"/>
      </g>
      <polygon points="1184.4 430.6 1202.1 449 1184.1 473.5 1174.5 454 1184.4 430.6" style="fill: #e65c49"/>
      <polygon points="1147.9 455.1 1134.2 471.7 1152.3 486.3 1156.5 468.6 1154 456.1 1147.9 455.1" style="fill: #e65c49"/>
      <g>
        <g>
          <path d="M1220.9,550.9c-8.5,2.3-15.9-4.8-20.7-11.1-3.5-4.7-6.7-12.7-6.7-12.7l22.8-8.5a33.2,33.2,0,0,1,5.2,8.5A29.3,29.3,0,0,1,1220.9,550.9Z" style="fill: #635ba9"/>
          <path d="M1220.9,550.9c-8.5,2.3-15.9-4.8-20.7-11.1,5,4.3,13.4,9.7,20.1,8.8,0,0,6.2-5.8,1.2-21.5A29.3,29.3,0,0,1,1220.9,550.9Z" style="fill: #e1dbff"/>
        </g>
        <g>
          <g>
            <path d="M1142.2,574.6c-6.4-1.4-10,.1-11.9,1.6a5.9,5.9,0,0,0-1.9,2.4l27.4,17.1.9-2.3,2.2-5.5.4-3.4Z" style="fill: #635ba9"/>
            <path d="M1130.3,576.2a5.9,5.9,0,0,0-1.9,2.4l27.4,17.1.9-2.3Z" style="fill: #e1dbff"/>
          </g>
          <g>
            <polygon points="1176.6 529.1 1173.4 539.3 1169.2 552.1 1158.5 585.5 1141.8 575.1 1148.7 541.3 1150.7 532 1152.9 520.5 1153.6 517.4 1161.8 521.7 1176.6 529.1" style="fill: #fdbab2"/>
            <polygon points="1173.4 539.3 1169.2 552.1 1148.7 541.3 1150.7 532 1173.4 539.3" style="fill: #e38a8a"/>
          </g>
        </g>
        <g>
          <path d="M1231.6,534.3a12.8,12.8,0,0,1-10.6,5.5,13.6,13.6,0,0,1-5.8-1.3l-4.9-2.5-12-6,18.9-22.8,4.3,3.6,7.7,6.4A12.6,12.6,0,0,1,1231.6,534.3Z" style="fill: #fdbab2"/>
          <polygon points="1221.6 510.8 1210.3 535.9 1198.3 530 1217.3 507.2 1221.6 510.8" style="fill: #e38a8a"/>
        </g>
        <g>
          <polygon points="1221.4 508 1203.8 535.6 1182.3 522.5 1175.8 545.3 1145.3 537.1 1150.9 512.7 1152.4 506.2 1155.3 501.4 1160.3 493 1179.3 491.3 1198 489.5 1199.2 490.5 1221.4 508" style="fill: #4c2d29"/>
          <polygon points="1199.2 490.5 1150.9 512.7 1152.4 506.2 1155.3 501.4 1179.3 491.3 1198 489.5 1199.2 490.5" style="fill: #3b201f"/>
        </g>
      </g>
      <g>
        <path d="M1198.5,489.8l-46.1,16.3a54.9,54.9,0,0,1-2.1-5.7c-.5-1.9-1-3.9-1.3-5.9s-.7-4.4-.9-6.7-.3-5.3-.3-7.8.1-3.4.1-5.1.3-4.5.4-6.5a126.9,126.9,0,0,1,2-13.5l30.4-1.8a73.9,73.9,0,0,0,2.6,10.7l1.6,4.5c.6,1.6,1.2,3,1.9,4.4a61.5,61.5,0,0,0,2.9,5.5c1.1,2,2.4,3.8,3.4,5.4s2.6,3.5,3.5,4.6Z" style="fill: #ef6a51"/>
        <g>
          <path d="M1176.3,454.3a60.6,60.6,0,0,1-4.4,5.5c-2.2,2.4-4.8,4.6-7.1,4.8s-4-1.3-5.8-3.3a39.9,39.9,0,0,1-5.2-7h22.5Z" style="fill: #fdbab2"/>
          <path d="M1176.3,454.3a60.6,60.6,0,0,1-4.4,5.5,45.2,45.2,0,0,1-12.9,1.5,39.9,39.9,0,0,1-5.2-7Z" style="fill: #e38a8a"/>
        </g>
        <path d="M1196.8,488l-46.5,12.4c-.5-1.9-1-3.9-1.3-5.9l44.3-11.1C1194.6,485.4,1195.9,487,1196.8,488Z" style="fill: #fa9570"/>
        <path d="M1189.8,478.1l-41.7,9.8c-.3-2.6-.3-5.3-.3-7.8l39.1-7.4C1187.9,474.5,1188.9,476.4,1189.8,478.1Z" style="fill: #fa9570"/>
        <path d="M1185,468.1l-37.1,6.7c.1-2.3.3-4.5.4-6.5l35-4.7Z" style="fill: #fa9570"/>
      </g>
      <g>
        <g>
          <ellipse cx="1130" cy="435.3" rx="8.6" ry="9.9" transform="matrix(0.32, -0.95, 0.95, 0.32, 353.04, 1364.18)" style="fill: #fdbab2"/>
          <ellipse cx="1130" cy="437.6" rx="5.1" ry="6.9" transform="translate(350.9 1365.7) rotate(-71.2)" style="fill: #e38a8a"/>
        </g>
        <g>
          <ellipse cx="1194.1" cy="440.7" rx="9.9" ry="8.6" transform="translate(-69.1 284.1) rotate(-13.2)" style="fill: #fdbab2"/>
          <ellipse cx="1195.1" cy="442.7" rx="6.9" ry="5.1" transform="translate(-69.5 284.4) rotate(-13.2)" style="fill: #e38a8a"/>
        </g>
        <path d="M1131.7,432.2c1.1-17.3,17.8-37.8,38.7-35.8,17.3,1.7,25.4,22.9,24.1,40.2s-17,22.5-34.3,21S1130.6,449.4,1131.7,432.2Z" style="fill: #fdbab2"/>
        <path d="M1131.9,427.5a55.7,55.7,0,0,1,10.8-15.6c2.3,1.8,5.6,1.1,8.3,0s5.5-2.5,8.4-1.8,4.2,2.3,6.6,2.4,5.3-2.1,8.1-2.1,3.7,1.1,5.5,1.7a7.4,7.4,0,0,0,6.1-.3c2.9,7,5.8,14,8.8,21-.9-4.6-.5-9.3-.7-14s-1.2-9.6-4.5-13-7.1-4.6-11.3-5.5c-9.2-2.1-19.2-2.1-27.8,1.7S1134.6,414,1131.9,427.5Z" style="fill: #e38a8a"/>
        <g>
          <g>
            <g>
              <path d="M1137.5,433.7c-.2-4.1,3.4-7.7,8.1-7.8s8.5,3,8.7,7.2-2.8,7.5-8.3,7.5S1137.7,437.8,1137.5,433.7Z" style="fill: #fff"/>
              <path d="M1154.4,433.8a8.5,8.5,0,0,0-4.7-6.9,8.4,8.4,0,0,0-12.2,6.9,8.4,8.4,0,1,1,16.8,0Z" style="fill: #1f1313"/>
            </g>
            <g>
              <circle cx="1148.6" cy="434" r="4.4" style="fill: #1f1313"/>
              <circle cx="1145.9" cy="431.4" r="1.1" style="fill: #fff"/>
            </g>
          </g>
          <g>
            <g>
              <path d="M1187.4,438.1c1.1-4.1-1.8-8.3-6.3-9.4s-9.1,1.1-10,5.2,1.1,7.9,6.5,9.1S1186.3,442.1,1187.4,438.1Z" style="fill: #fff"/>
              <path d="M1170.8,434.7a8.2,8.2,0,0,1,6-5.7,8.4,8.4,0,0,1,9.2,3.6,8,8,0,0,1,1.2,5.5,8.5,8.5,0,0,0-10.7-10.6A8.8,8.8,0,0,0,1170.8,434.7Z" style="fill: #1f1313"/>
            </g>
            <g>
              <path d="M1178.1,435.5a2.1,2.1,0,0,0-4.1-.1" style="fill: #061521"/>
              <circle cx="1176.1" cy="435.5" r="4.4" style="fill: #1f1313"/>
              <circle cx="1173.4" cy="432.8" r="1.1" style="fill: #fff"/>
            </g>
          </g>
          <path d="M1159.9,436.6a10.5,10.5,0,0,0,.1,3.7,2.1,2.1,0,0,1-1.4-1.8A1.8,1.8,0,0,1,1159.9,436.6Z" style="fill: #c96974"/>
          <g>
            <path d="M1160.1,450.9a9.2,9.2,0,0,0,10.2-1.1,7.5,7.5,0,0,0,1.4-9l-.9-.4a40.6,40.6,0,0,1-14.2,1.5h-.7A8.4,8.4,0,0,0,1160.1,450.9Z" style="fill: #4d2238"/>
            <path d="M1156.6,441.9a4.4,4.4,0,0,0,1.8,2,8.3,8.3,0,0,0,4.1.8,15,15,0,0,0,5.5-1,9.1,9.1,0,0,0,3.7-2.9l-.4-.5A43.9,43.9,0,0,1,1156.6,441.9Z" style="fill: #fff"/>
          </g>
          <g>
            <path d="M1152.1,417a5.7,5.7,0,0,0-5.1-2.9,8.4,8.4,0,0,0-5.5,2.4,11.2,11.2,0,0,0-3.1,5.2A14.6,14.6,0,0,1,1152.1,417Z" style="fill: #ffa03b"/>
            <path d="M1174.8,419.4a8.2,8.2,0,0,1,8.2-2.6c2.9.8,5.3,3.3,6.3,7.4A18.5,18.5,0,0,0,1174.8,419.4Z" style="fill: #ffa03b"/>
          </g>
        </g>
        <g>
          <path d="M1197.2,409.6c1.8,10.9.6,22.3-3.1,31.4a68.8,68.8,0,0,0-8.4-32.1c-1.8,1.7-4.7,1.1-7,.3s-4.8-2.1-7.1-1.2-2.4,1.5-3.7,1.8c-3.3,1-6.2-2.1-9.5-2.6-5.4-.9-10.7,4.9-15.5,2.7a42.2,42.2,0,0,0-11.4,25.4,57,57,0,0,1,4.1-24.4,4.2,4.2,0,0,1-2.6-1.9,6.7,6.7,0,0,1-1-3.9c.2-2.5,1.5-4.8,2.8-6.9s4.7-7.4,8.6-8.9,9.5,0,13.9-1.5,6.6-4.5,10.4-4.2,6.4,4.1,10.2,4.6,6.5-1.3,9.2.4a5.7,5.7,0,0,1,1.5,1.4c.9,1.3,1.5,2.9,2.3,4.3s4.2,4.3,6,6.7S1199.1,407.3,1197.2,409.6Z" style="fill: #ffa03b"/>
          <path d="M1188.5,389.9a7.3,7.3,0,0,0-3.6-.4c-2.6.4-4.9,1.8-7.5,1.6s-6.7-3.2-10.3-3-5.6,2.5-8.5,3.4-7.8,0-11.7.5a15.9,15.9,0,0,0-11,7.5,20.7,20.7,0,0,0-2.9,9.4,6.7,6.7,0,0,1-1-3.9c.2-2.5,1.5-4.8,2.8-6.9s4.7-7.4,8.6-8.9,9.5,0,13.9-1.5,6.6-4.5,10.4-4.2,6.4,4.1,10.2,4.6,6.5-1.3,9.2.4A4.3,4.3,0,0,1,1188.5,389.9Z" style="fill: #ffc05c"/>
        </g>
      </g>
    </g>
    <g>
      <g>
        <path d="M834.9,523.7l12.4,18a14.1,14.1,0,0,0,16.2,5l15.9-5.6-4.1-17.3-16.5,5.6-15.5-13.5Z" style="fill: #8e5448"/>
        <path d="M880.1,520.7l-18.5,6.8,7.3,22,15.7-4.1C884.6,545.5,884.8,527.2,880.1,520.7Z" style="fill: #e88b2e"/>
        <g>
          <path d="M847.3,511.1c1.7-3.2,2.7-4.9,1.7-7.7s-4.7-3-6.1-1.9c-1.7-2.3-3.4-4.7-6.1-5.5s-5.5.1-5.7,2.8a3.7,3.7,0,0,0-4.4,4.5c-2,.4-4.2,2-3.5,6.8a4.8,4.8,0,0,0-.4,6c2.9,4.2,7.9,7.9,13,7.7C840.3,520.3,844.6,516.2,847.3,511.1Z" style="fill: #8e5448"/>
          <path d="M830.9,498.9a5.6,5.6,0,0,1,3.3,1.9c2.5,2.7,5.4,7.1,3.7,9.2s-10.1-5.1-10.1-5.1" style="fill: #8e5448;stroke: #5e2e2e;stroke-miterlimit: 10"/>
          <path d="M842.6,502s-7.9,7.5-5.5,10,7.7-2,7.7-2" style="fill: #8e5448;stroke: #5e2e2e;stroke-miterlimit: 10"/>
          <path d="M827.9,503.3a5.6,5.6,0,0,1,3.3,1.9c2.5,2.7,5.4,7.1,3.7,9.2s-9.3-4.1-9.3-4.1" style="fill: #8e5448;stroke: #5e2e2e;stroke-miterlimit: 10"/>
          <path d="M823.6,510.6s1.3-1.7,4.1,0,6.5,5.4,4.9,7.3-7.4-1.8-7.4-1.8" style="fill: #8e5448;stroke: #5e2e2e;stroke-miterlimit: 10"/>
        </g>
      </g>
      <g>
        <path d="M923.6,434.3c15.9,20.3,15.7,44.8,6.7,71.6l-21.5-4.8c9.2-21.7,12.5-38.5,2-61.5Z" style="fill: #854840"/>
        <polygon points="920.8 531.9 933.3 503.9 909.7 493.7 900.5 516.3 920.8 531.9" style="fill: #e88b2e"/>
        <g>
          <path d="M907.2,440.3c-3.6.2-5.6.4-7.7-1.8s-.7-5.5.8-6.3c-1.3-2.5-2.7-5.1-2.4-7.8s2.4-4.9,5-3.9a3.7,3.7,0,0,1,6-2c1.3-1.6,3.6-2.9,7.6-.3,1.9-.9,4.6.4,5.6,2.2,2.6,4.4,3.8,10.6,1.4,15.1C918.5,437.9,912.9,440.1,907.2,440.3Z" style="fill: #854840"/>
          <path d="M903.1,420.3a5.9,5.9,0,0,0,.4,3.8c1.3,3.4,4.1,7.9,6.7,7.3,4.3-1-.3-11.3-.3-11.3" style="fill: #854840;stroke: #5e2e2e;stroke-miterlimit: 10"/>
          <path d="M900.9,432.2s10.2-4,11.4-.5-5.1,6-5.1,6" style="fill: #854840;stroke: #5e2e2e;stroke-miterlimit: 10"/>
          <path d="M908.5,419.4a5.9,5.9,0,0,0,.4,3.8c1.3,3.4,4.1,7.9,6.7,7.3,4.3-1,.4-10.2.4-10.2" style="fill: #854840;stroke: #5e2e2e;stroke-miterlimit: 10"/>
          <path d="M916.9,418.7s-2,.4-1.8,3.7,2,8.2,4.5,7.7,1.6-7.4,1.6-7.4" style="fill: #854840;stroke: #5e2e2e;stroke-miterlimit: 10"/>
        </g>
      </g>
      <g>
        <g>
          <path d="M974.4,587c4.5-4.8,8.3-5.5,10.7-5.4a6.8,6.8,0,0,1,2.9.9L974.9,612l-2-1.4-4.9-3.3-2.2-2.6Z" style="fill: #ef6a51"/>
          <path d="M985.1,581.7a6.8,6.8,0,0,1,2.9.9l-13.1,29.5-2-1.4Z" style="fill: #ffe9d6"/>
        </g>
        <g>
          <path d="M863.9,610c-6.5.8-9.4,3.4-10.7,5.5a7.1,7.1,0,0,0-1.1,2.9l31.5,6.8v-2.5l.2-5.9-.9-3.3Z" style="fill: #ef6a51"/>
          <path d="M853.3,615.5a7.1,7.1,0,0,0-1.1,2.9l31.5,6.8v-2.5Z" style="fill: #ffe9d6"/>
        </g>
        <g>
          <path d="M974.7,586.3l-7.3,21.5-59.9-31.5c-24.4,11.4-25.4,17.6-22.9,40.2L862.9,610c-4.1-20.8-.3-26.8,14.4-45.6l2.4-3.1,2.3-3.9,1.1-1.8,15.9.6,29.1,1.1,1.7,1.1Z" style="fill: #635ba9"/>
          <path d="M929.6,558.5l-52.4,5.9,2.4-3.1,2.3-3.9,17-1.1,29.1,1.1Z" style="fill: #51428f"/>
        </g>
      </g>
      <g>
        <path d="M909.5,512.5s18.4,19.4,19.9,45.9l-49.9,2.7a67.3,67.3,0,0,0,0-40.3Z" style="fill: #febb34"/>
        <path d="M885.7,519.9s7.5,6.9,11.9,5.5,6.8-10.9,6.8-10.9Z" style="fill: #75413c"/>
      </g>
      <g>
        <g>
          <ellipse cx="919.3" cy="492.9" rx="10.3" ry="8.9" transform="translate(-121 416.4) rotate(-24)" style="fill: #8e5448"/>
          <ellipse cx="919.7" cy="495.3" rx="7.1" ry="5.2" transform="translate(-122.3 422.4) rotate(-24.3)" style="fill: #75413c"/>
        </g>
        <g>
          <ellipse cx="858.7" cy="513.1" rx="10.3" ry="8.9" transform="translate(-31.5 56.9) rotate(-3.7)" style="fill: #8e5448"/>
          <ellipse cx="859.4" cy="515.2" rx="7.1" ry="5.2" transform="translate(-29.1 52) rotate(-3.4)" style="fill: #75413c"/>
        </g>
        <g>
          <path d="M917.8,486.7c-5.9-16.8-25.6-31.9-45.8-24.2-16.7,6.4-21.4,28.9-15.6,45.7s23.7,15.9,40.3,11.5S923.7,503.5,917.8,486.7Z" style="fill: #8e5448"/>
          <path d="M855.9,505.4a53.1,53.1,0,0,1,5.5-29.2,32.8,32.8,0,0,0,19.8-4.8,14.3,14.3,0,0,0-4-3.3,62.7,62.7,0,0,1,18.1-.9,2.4,2.4,0,0,0-1.1-1.9,33.3,33.3,0,0,1,16.8,9.3c-2.6-6.7-9-11.4-15.9-13.3s-14.4-1-21.2,1-10.7,4-14.4,8.1a24.4,24.4,0,0,0-5.7,13.5,55.4,55.4,0,0,0,.4,14.8" style="fill: #75413c"/>
        </g>
        <g>
          <g>
            <path d="M889,472.8a6.1,6.1,0,0,1,3.6-4.8,8.1,8.1,0,0,1,6.1-.1,11.6,11.6,0,0,1,4.9,3.5C899.1,469.2,892.9,470.1,889,472.8Z" style="fill: #4b2b27"/>
            <path d="M871.4,478.5a8.2,8.2,0,0,0-8.5-.6c-2.6,1.5-4.1,4.5-3.9,8.8C860.9,481.3,866.3,479.2,871.4,478.5Z" style="fill: #4b2b27"/>
          </g>
          <g>
            <g>
              <g>
                <path d="M909.4,483.1c-1.1-4.1-5.7-6.6-10.4-5.4s-7.6,5.5-6.5,9.7,4.6,6.2,10.3,4.1S910.5,487.3,909.4,483.1Z" style="fill: #fff"/>
                <path d="M892.7,488.2a8.7,8.7,0,0,1,2.6-8.2,8.7,8.7,0,0,1,14.1,3.1,8.8,8.8,0,0,0-3.5-5.4,8.7,8.7,0,0,0-11.3,1.1A9.1,9.1,0,0,0,892.7,488.2Z" style="fill: #1f1313"/>
              </g>
              <g>
                <circle cx="899.6" cy="487.3" r="4.5" style="fill: #1f1313"/>
                <circle cx="901.5" cy="483.8" r="1.1" style="fill: #fff"/>
              </g>
            </g>
            <g>
              <g>
                <path d="M863.4,498.9c-1.9-3.9.1-8.7,4.4-10.8s9.3-.8,11.3,3.1,1,7-5.1,9.2S865.4,502.8,863.4,498.9Z" style="fill: #fff"/>
                <path d="M879.4,491.9a8.8,8.8,0,0,0-7.3-4.6,8.6,8.6,0,0,0-8.5,5.6,9,9,0,0,0-.1,5.9,8.5,8.5,0,0,1-.8-6.4,8.8,8.8,0,0,1,9.3-6.5A8.9,8.9,0,0,1,879.4,491.9Z" style="fill: #1f1313"/>
              </g>
              <g>
                <path d="M871.1,495.7a2.1,2.1,0,0,1,4.1-1" style="fill: #061521"/>
                <circle cx="873.1" cy="495.3" r="4.5" style="fill: #1f1313"/>
                <circle cx="875.2" cy="492" r="1.1" style="fill: #fff"/>
              </g>
            </g>
          </g>
          <g>
            <path d="M887.3,491a12.2,12.2,0,0,1,1.6,3.4,2.1,2.1,0,0,0,.5-2.2A2.3,2.3,0,0,0,887.3,491Z" style="fill: #5e2e2e"/>
            <g>
              <path d="M898.4,507.2a11.6,11.6,0,0,1-11.9,3.9,10.1,10.1,0,0,1-7.3-8.3v-1.1a91.2,91.2,0,0,1,19.7-6.2h.4A10.5,10.5,0,0,1,898.4,507.2Z" style="fill: #361629"/>
              <path d="M899,495.5c.2,2.6-2.6,4.2-6.2,5.5a43.9,43.9,0,0,1-13.6,1.9v-1.1A85.5,85.5,0,0,1,899,495.5Z" style="fill: #fff"/>
            </g>
          </g>
        </g>
        <g>
          <path d="M905.5,469.2a52.1,52.1,0,0,0-15.7-7,5.1,5.1,0,0,1,2.4,3.3,57.3,57.3,0,0,0-19.7,1.7c1.1,1.2,2.6,2.6,4,3.9a62.2,62.2,0,0,1-16.6,3.3c-6.4,9.9-4.7,24.6-2.3,36.3a66.7,66.7,0,0,1-9.4-34.8,11.2,11.2,0,0,1,2.1-6.4l.4-.5a84.6,84.6,0,0,0,9.8-17.7l2.5,5.7A52.7,52.7,0,0,1,891,444.8c-1.1,2.2-2,4.5-3.3,6.9a46.9,46.9,0,0,1,23.2-1.1c-2.5,3.1-4.9,6.1-6.6,8.5a25.6,25.6,0,0,1,8.3,2.8,29.8,29.8,0,0,1,4.1,2.6c-1.8,1.2-3.4,2.4-4.7,3.1a86.8,86.8,0,0,1,6.6,21.8A108.8,108.8,0,0,0,905.5,469.2Z" style="fill: #4b2b27"/>
          <path d="M898.4,460.4l5.1-7.7a47,47,0,0,0-23.1,3.2l3.5-5.5a45.8,45.8,0,0,0-23.4,13.6c-.3-1.5-.6-3.1-.9-4.6a35.6,35.6,0,0,1-8.9,9.7,84.6,84.6,0,0,0,9.8-17.7L863,457a52.7,52.7,0,0,1,28.1-12.2c-1.1,2.2-2,4.5-3.3,6.9a46.9,46.9,0,0,1,23.2-1.1c-2.5,3.1-4.9,6.1-6.6,8.5a25.6,25.6,0,0,1,8.3,2.8A45.5,45.5,0,0,0,898.4,460.4Z" style="fill: #633d35"/>
        </g>
      </g>
    </g>
    <g>
      <path d="M714,436.5c1.4,4.1,6.5,6.4,11.4,7s9.9-.4,14.7.1,10.1,2.6,11.6,6.7a7.2,7.2,0,0,0-6.7-1,13.9,13.9,0,0,1,3,18.2c-.5-4.2-5.1-7-9.7-8.2s-9.5-1.1-14-2.5c-7.4-2.2-13.1-8.4-14.2-15.3Z" style="fill: #863a06"/>
      <path d="M659.1,438.5c-3.8,2.7-8.7,3.2-13.4,3.3s-9.5.2-13.6,2.2-7.5,6.8-6.3,11.3a3.9,3.9,0,0,1,3.7-3.3,13.7,13.7,0,0,0,7.6,20.3c-1.8-4.1.4-9,3.8-12s7.7-4.6,11.6-6.6,7.8-5,8.8-9.4A16.2,16.2,0,0,1,659.1,438.5Z" style="fill: #863a06"/>
      <g>
        <g>
          <path d="M731.9,464.9a47.1,47.1,0,0,1,.4-12.7,2.3,2.3,0,0,1,1.1-1.9c1-.3,1.8.7,2.2,1.7a17.2,17.2,0,0,1,1.6,7.2,29.7,29.7,0,0,1,9.8-6.2c1-.4,2.4-.6,3,.3s-.1,1.9-.7,2.7-2.9,3.6-4.4,5.3a20.9,20.9,0,0,1,8.3-2.1c.9-.1,2,.1,2.4.9s-.5,2-1.4,2.6a35,35,0,0,1-6.4,3.5,6.1,6.1,0,0,0,4,.2,7.5,7.5,0,0,1,4,.1c1.2.5,2.1,2.1,1.4,3.3a3.9,3.9,0,0,1-2.3,1.2l-6.8,1.7c1.1.7,2.6.4,3.9.5s2.9.6,3.1,1.9a2.4,2.4,0,0,1-1.3,2.2,6.5,6.5,0,0,1-2.6.6c-2.3.3-12.2-.4-12.2-.4S732.2,467.4,731.9,464.9Z" style="fill: #fdbab2"/>
          <polygon points="726.7 491.7 739.5 476.8 732.7 464.4 720.1 476.5 726.7 491.7" style="fill: #fdbab2"/>
        </g>
        <g>
          <path d="M689.5,464l8.1-8.7,2.6,1.2c4.9,2.3,13,10.3,13,10.3l5.3,5.5,9.2-6.2,11.1,17.7L727,494.1a15.7,15.7,0,0,1-19.7,1.1l-8.2-5.7Z" style="fill: #f07fb3"/>
          <polygon points="722.3 469 734.5 488.3 740.1 484.9 728.5 464 722.3 469" style="fill: #d44e79"/>
        </g>
      </g>
      <g>
        <g>
          <path d="M644.1,387.6a42.5,42.5,0,0,0,2.4-12.4c0-.8,0-1.8-.7-2.1s-1.9.4-2.6,1.1a17.8,17.8,0,0,0-3.1,6.7,27.6,27.6,0,0,0-8.2-8.1c-.9-.6-2.2-1.1-3-.4s-.4,1.9.1,2.8a65.9,65.9,0,0,0,3.2,6.1,21,21,0,0,0-7.7-3.9c-.9-.3-2-.4-2.6.4s.1,2.1.8,2.9a40.5,40.5,0,0,0,5.5,4.8,6.6,6.6,0,0,1-3.9-.6,6.7,6.7,0,0,0-3.9-.8c-1.3.3-2.6,1.6-2.1,2.8a3.3,3.3,0,0,0,1.9,1.7l6.3,3.1c-1.2.4-2.6-.1-4-.4s-3,0-3.4,1.2a2.3,2.3,0,0,0,.8,2.5,6.3,6.3,0,0,0,2.5,1.1c2.2.7,12,2.4,12,2.4S643.2,390,644.1,387.6Z" style="fill: #fdbab2"/>
          <polygon points="643.3 415 634 397.6 643.3 386.9 652.9 401.5 643.3 415" style="fill: #fdbab2"/>
        </g>
        <polygon points="681.2 456.7 649.8 391.8 633.7 408.1 664.8 472.5 681.2 456.7" style="fill: #f07fb3"/>
        <polygon points="635.5 413.3 653.4 395.5 650 389.1 631.1 406.4 635.5 413.3" style="fill: #d44e79"/>
      </g>
      <g>
        <g>
          <path d="M633,497c-5.5-3.5-7-7.1-7.3-9.5a7.8,7.8,0,0,1,.3-3.1l31.4,7.2-1,2.3-2.3,5.5-2.2,2.7Z" style="fill: #ef6a51"/>
          <path d="M625.6,487.5a7.8,7.8,0,0,1,.3-3.1l31.4,7.2-1,2.3Z" style="fill: #ffe9d6"/>
        </g>
        <g>
          <path d="M650.2,524.5a32.2,32.2,0,0,1-3.7,2.3l-2.8,1.5c-5.4,2.7-12.8,5.3-16.7,1.6-9.4-8.6,6-32.8,6-32.8s4.1.6,10.6,2.1l5.3,18.8Z" style="fill: #fdbab2"/>
          <path d="M631.1,507l12.6,21.3,2.8-1.5,2.4-8.9-3.5-18.1C639.2,502.8,636.7,503.9,631.1,507Z" style="fill: #e38a8a"/>
        </g>
      </g>
      <g>
        <g>
          <path d="M648.9,586.6c-.3,6.5-2.6,9.7-4.5,11.1a6.6,6.6,0,0,1-2.8,1.3l-9.7-30.8,2.5-.4,5.9-.8,3.4.5Z" style="fill: #ef6a51"/>
          <path d="M644.3,597.8a6.6,6.6,0,0,1-2.8,1.3l-9.7-30.8,2.5-.4Z" style="fill: #ffe9d6"/>
        </g>
        <g>
          <polygon points="689.3 532 687.5 534.5 680.2 544.2 680.1 544.4 648.9 586.3 639.8 567.5 656.1 538.9 656.9 537.4 660.9 530.6 663.9 525.1 665.5 522.5 680.8 528.6 689.3 532" style="fill: #fdbab2"/>
          <polygon points="687.5 534.5 680.2 544.2 656.1 538.9 656.9 537.4 660.9 530.6 687.5 534.5" style="fill: #e38a8a"/>
        </g>
      </g>
      <g>
        <path d="M672.1,451.8l-15.2,37.4,45.7,14.3s3-20.3-.5-40.5a11.4,11.4,0,0,0-10-9.3Z" style="fill: #f07fb3"/>
        <g>
          <path d="M696.4,451.2a22.3,22.3,0,0,1-1.3,6.6c-1.2,3.1-3.5,5.9-7.8,5.5a11.6,11.6,0,0,1-8.2-5.2,22,22,0,0,1-3.2-6.6Z" style="fill: #fdbab2"/>
          <path d="M696.4,451.2a22.3,22.3,0,0,1-1.3,6.6,34,34,0,0,1-16,.3,22,22,0,0,1-3.2-6.6Z" style="fill: #e38a8a"/>
        </g>
        <g>
          <g>
            <path d="M656.9,488.7l45.4,17.7,1.9-19s-.5-6.8-1.6-9.5l-29.9-6.8-13.6,10.3Z" style="fill: #6b68b3"/>
            <path d="M665.5,486.5l-7,.6-20.7,14s2.2,17.1,14.1,24.4l11-4-4.7,8.5s17.3,12.2,28.1,9.3l10.7-16.8a33.4,33.4,0,0,0,5.1-15.2l.2-1.9Z" style="fill: #6b68b3"/>
          </g>
          <g>
            <polygon points="672.2 472 675.8 476.1 679.6 473.2 677.3 448.9 669.9 446.7 672.2 472" style="fill: #585394"/>
            <circle cx="675.8" cy="471.8" r="1.5" style="fill: #febb34"/>
          </g>
          <g>
            <path d="M678.5,478.1l17.8,3.3-2.5,11.3-4.1,1.6a8.9,8.9,0,0,1-9.2-1.7l-4.1-3.7Z" style="fill: #585394"/>
            <g>
              <path d="M657.3,489.8a271.3,271.3,0,0,0,43.5,18.4" style="fill: none;stroke: #585394;stroke-miterlimit: 10"/>
              <path d="M678.7,499.9s-7,15.1-13.7,20.3" style="fill: none;stroke: #585394;stroke-miterlimit: 10"/>
              <path d="M682.2,501.6S678,516,671.1,513.8" style="fill: none;stroke: #585394;stroke-miterlimit: 10"/>
              <path d="M696.1,506.8s-2,8,2.5,10.5" style="fill: none;stroke: #585394;stroke-miterlimit: 10"/>
              <path d="M663.3,492.6s-7.7,7.1-14.7,2.5" style="fill: none;stroke: #585394;stroke-miterlimit: 10"/>
            </g>
          </g>
          <g>
            <polygon points="696.1 477 699.2 480.6 702.4 479.4 703.5 457.5 697.6 455.3 696.1 477" style="fill: #585394"/>
            <circle cx="699.8" cy="476.9" r="1.5" style="fill: #febb34"/>
          </g>
          <polygon points="658.5 527.9 687.9 538.7 685.3 545.4 655.3 534.5 658.5 527.9" style="fill: #afa5e6"/>
          <polygon points="654 525.6 638.5 500 632 504 647 528.6 654 525.6" style="fill: #afa5e6"/>
        </g>
      </g>
      <g>
        <g>
          <ellipse cx="718.6" cy="431.1" rx="10.1" ry="8.9" transform="translate(-111.2 313.9) rotate(-22.9)" style="fill: #fdbab2"/>
          <ellipse cx="718.9" cy="433.4" rx="7" ry="5.2" transform="translate(-112.1 314.2) rotate(-22.9)" style="fill: #e38a8a"/>
        </g>
        <g>
          <ellipse cx="657.2" cy="440.8" rx="8.9" ry="10.1" transform="translate(189.2 1078.9) rotate(-87.6)" style="fill: #fdbab2"/>
          <ellipse cx="656.4" cy="443.1" rx="5.2" ry="7" transform="translate(186.2 1080.3) rotate(-87.6)" style="fill: #e38a8a"/>
        </g>
        <path d="M719.1,426.8c-2.5-17.5-14.2-38.7-39.1-34.7-19,3-27.4,26.2-24.9,43.7s19,21.8,36.6,18.9S721.5,444.4,719.1,426.8Z" style="fill: #fdbab2"/>
        <path d="M654.9,433.8a56.5,56.5,0,0,1,5.5-21.2,37.8,37.8,0,0,0,21.1-8.5,6.6,6.6,0,0,0-.4,2.3,29.3,29.3,0,0,0,15.6-4.8,12.2,12.2,0,0,0,10.9,4,23.7,23.7,0,0,1-1.1-3,33.3,33.3,0,0,1,10,14.1c-1.1-7-2.4-14.4-7.6-19.1s-9-4.8-14.1-5.6a58.5,58.5,0,0,0-17.1-.8,28.6,28.6,0,0,0-15.5,6.6,26.2,26.2,0,0,0-7.8,13.6,38,38,0,0,0-.2,15.8" style="fill: #e38a8a"/>
        <g>
          <path d="M688.4,425.3a13.2,13.2,0,0,1,.8,3.7,2,2,0,0,0-.8-3.7Z" style="fill: #c96974"/>
          <g>
            <path d="M695.5,442.8a10.8,10.8,0,0,1-11.6,1.2,8.1,8.1,0,0,1-3.9-9.3l.9-.5a45,45,0,0,0,16-1.8l.8-.3A9.1,9.1,0,0,1,695.5,442.8Z" style="fill: #4d2238"/>
            <path d="M696.8,432.3a4.6,4.6,0,0,1-1.4,2.6,9.5,9.5,0,0,1-4.3,1.8,17.4,17.4,0,0,1-6.4.3,10.5,10.5,0,0,1-4.8-2.2,2.3,2.3,0,0,0,.3-.7A46.6,46.6,0,0,0,696.8,432.3Z" style="fill: #fff"/>
          </g>
          <g>
            <path d="M695.3,408.6a6,6,0,0,1,4.8-3.6,8.3,8.3,0,0,1,5.9,1.7,11.6,11.6,0,0,1,3.8,4.9C706,408,699.8,407.1,695.3,408.6Z" style="fill: #863a06"/>
            <path d="M673,414.3a8.5,8.5,0,0,0-8.7-1.6c-2.9,1.1-5,4.1-5.5,8.3A19.1,19.1,0,0,1,673,414.3Z" style="fill: #863a06"/>
          </g>
          <g>
            <g>
              <path d="M679,428.5c-4.3-5.5-13.3-3.6-13,4.4a6.7,6.7,0,0,1-.3-4.8,6.9,6.9,0,0,1,13.3.4Z" style="fill: #1f1313"/>
              <path d="M666.2,428.1a4.2,4.2,0,0,1-4-1.5,3.4,3.4,0,0,0,3.3,2.6A3.7,3.7,0,0,0,666.2,428.1Z" style="fill: #1f1313"/>
              <path d="M665.6,430.3a4.3,4.3,0,0,1-3.9-.6,3.3,3.3,0,0,0,3.8,1.8C665.7,430.9,665.8,430.5,665.6,430.3Z" style="fill: #1f1313"/>
            </g>
            <g>
              <path d="M695.4,425c1.2-6.9,10-9.6,13.5-2.4a7.1,7.1,0,0,0-2-4.3,6.9,6.9,0,0,0-9.8.1A6.9,6.9,0,0,0,695.4,425Z" style="fill: #1f1313"/>
              <path d="M706.4,418.5a4.2,4.2,0,0,0,2.7-3.3,3.4,3.4,0,0,1-1.7,4Z" style="fill: #1f1313"/>
              <path d="M707.9,420.1a4.1,4.1,0,0,0,3.1-2.4,3.4,3.4,0,0,1-2.5,3.3C708.2,420.8,707.8,420.3,707.9,420.1Z" style="fill: #1f1313"/>
            </g>
          </g>
        </g>
        <g>
          <path d="M702.9,397.5c.2,2.5,2.1,4.9,3.2,7-5.8-.9-8.1-3-9.2-6.9-2.2,3.3-9.1,5.8-12.9,5.3,1.7-1.8,4.5-5.5,4.9-7.4-7.4,8.4-18.1,13-27.4,15.1,1.7-4.4,2.6-6.3,3.4-9.5-7.4,6.4-10.6,26.9-8.5,39.8-9.9-18.6-7.8-35.1.3-45.9s26-16.8,41.5-8.2c12.3-4.3,21.6,10.7,22.9,26.2a39.5,39.5,0,0,1-1.6,15.9C717.6,418.1,711.1,403.1,702.9,397.5Z" style="fill: #863a06"/>
          <path d="M721.1,413.3c-1.4-5.1-3.2-10.1-6.3-14.4-4.3-5.8-11.9-9.9-18.8-7.8a36.4,36.4,0,0,0-26.8-2.6,35.8,35.8,0,0,0-12.5,6.7c9.2-12.2,26-16.8,41.5-8.2C710.5,382.7,719.7,397.7,721.1,413.3Z" style="fill: #a15815"/>
        </g>
      </g>
    </g>
  </g>
</svg>
