<svg width="36" height="36" viewBox="0 0 36 36" fill="none" xmlns="http://www.w3.org/2000/svg">
<rect width="36" height="36" fill="#E1F8F5"/>
<path d="M24.4 10H14.8C13.92 10 13.2 10.72 13.2 11.6V21.2C13.2 22.08 13.92 22.8 14.8 22.8H24.4C25.28 22.8 26 22.08 26 21.2V11.6C26 10.72 25.28 10 24.4 10ZM22 14H20.4V18.296C20.4 19.312 19.68 20.248 18.672 20.376C18.3571 20.419 18.0364 20.3865 17.7365 20.2812C17.4366 20.1758 17.166 20.0006 16.9472 19.7701C16.7284 19.5395 16.5675 19.2602 16.4779 18.9552C16.3883 18.6502 16.3726 18.3283 16.432 18.016C16.592 17.136 17.376 16.456 18.272 16.4C18.776 16.368 19.232 16.528 19.6 16.808V13.2C19.6 12.76 19.96 12.4 20.4 12.4H22C22.44 12.4 22.8 12.76 22.8 13.2C22.8 13.64 22.44 14 22 14ZM10.8 13.2C10.36 13.2 10 13.56 10 14V24.4C10 25.28 10.72 26 11.6 26H22C22.44 26 22.8 25.64 22.8 25.2C22.8 24.76 22.44 24.4 22 24.4H12.4C11.96 24.4 11.6 24.04 11.6 23.6V14C11.6 13.56 11.24 13.2 10.8 13.2Z" fill="#2FA692"/>
</svg>
