<?xml version="1.0" encoding="utf-8"?>
<!-- Generator: Adobe Illustrator 21.1.0, SVG Export Plug-In . SVG Version: 6.00 Build 0)  -->
<svg version="1.1" id="Layer_1" xmlns="http://www.w3.org/2000/svg" xmlns:xlink="http://www.w3.org/1999/xlink" x="0px" y="0px"
	 viewBox="0 0 600 400" style="enable-background:new 0 0 600 400;" xml:space="preserve">
<style type="text/css">
	.st0{fill:#FFFFFF;}
	.st1{fill:#FFDEE7;}
	.st2{fill:#EAC096;}
	.st3{fill:#263238;}
	.st4{fill:#E2A760;}
	.st5{fill:#F8DCFF;}
	.st6{clip-path:url(#SVGID_2_);}
	.st7{opacity:0.4;enable-background:new    ;}
	.st8{fill:#BA68C8;}
	.st9{fill:#FFE5C5;}
	.st10{opacity:0.2;}
	.st11{fill:#FFDCAE;}
	.st12{fill:#FFC0E0;}
	.st13{clip-path:url(#SVGID_4_);}
	.st14{fill:#FF71A8;}
	.st15{clip-path:url(#SVGID_6_);}
	.st16{opacity:0.25;}
	.st17{opacity:0.27;}
	.st18{clip-path:url(#SVGID_8_);}
	.st19{opacity:9.000000e-02;}
</style>
<rect class="st0" width="600" height="400"/>
<path class="st1" d="M84.8,146.6c-10.4-27.6-7.1-58.8,9.7-83c15.8-22.8,44.1-44.7,94.6-35.8c109,19.2,69,68.2,198.7,6.6
	S559.3,107.9,512,155c-39.2,39,1.7,105.4,16.7,126.8c6.7,9.5,10,21.1,9,32.6c-2.8,31.3-37,75.9-226.8,40.3
	c0,0-110.5-12.2-213.1,29.1s-85-163.3-25.5-151.8C114.4,240.3,98,181.5,84.8,146.6z"/>
<g id="freepik--character-3--inject-234_3_">
	<g>
		<path class="st2" d="M483.8,283.1c-2.5,6.3-8.1,13.7-19.9,19.8c-27.1,14.2-82.3-8.7-115.6-7.3c-21.9,1-58,19.1-97.4,30.3l0,0
			c-20.7,5.9-42.3,9.9-63.2,8.5c-19.5-1.3-36.4-5.1-49.7-10.9c-11.1-4.9-19.6-11.3-24.8-18.9v-21.6H483.8z"/>
	</g>
	<g>
		<path class="st3" d="M113.1,331.7c-0.3,0-0.6-0.3-0.6-0.6v-48c0-0.3,0.3-0.6,0.6-0.6s0.6,0.3,0.6,0.6v48
			C113.7,331.5,113.4,331.7,113.1,331.7z"/>
	</g>
	<g>
		<polyline class="st4" points="489.6,253.2 126.6,253.2 105.2,276.2 105.2,285.2 490.9,285.2 		"/>
		<path class="st3" d="M493,285.8H107.4c-0.3,0-0.6-0.3-0.6-0.6v-9c0-0.1,0.1-0.3,0.1-0.4l21.4-23c0.1-0.1,0.3-0.2,0.4-0.2h363
			c0.3,0,0.6,0.3,0.6,0.6c0,0.3-0.3,0.6-0.6,0.6H129l-21,22.7v8.2H493c0.3,0,0.6,0.3,0.6,0.6S493.3,285.8,493,285.8z"/>
	</g>
	<g>
		<path class="st3" d="M505.4,276.8H111.9c-0.3,0-0.6-0.3-0.6-0.6s0.3-0.6,0.6-0.6h393.5c0.3,0,0.6,0.3,0.6,0.6
			S505.7,276.8,505.4,276.8z"/>
	</g>
	<g>
		<polygon class="st0" points="374.1,261.6 374.1,270.7 421.9,270.7 416.6,260.4 		"/>
		<path class="st3" d="M421.9,271.3h-47.8c-0.3,0-0.6-0.3-0.6-0.6v-9.2c0-0.3,0.2-0.6,0.5-0.6l42.4-1.2c0.2,0,0.4,0.1,0.5,0.3
			l5.3,10.3c0.1,0.2,0.1,0.4,0,0.5C422.3,271.2,422.1,271.3,421.9,271.3z M374.7,270.2H421l-4.7-9.2l-41.6,1.2V270.2z"/>
	</g>
	<g>
		<polygon class="st0" points="426.1,261.6 457.1,257.7 479.4,265.6 451,272.6 		"/>
		<path class="st3" d="M451,273.2c-0.1,0-0.2,0-0.2,0l-24.9-11c-0.2-0.1-0.4-0.3-0.3-0.6c0-0.2,0.2-0.4,0.5-0.5l31-3.9
			c0.1,0,0.2,0,0.3,0l22.3,7.9c0.2,0.1,0.4,0.3,0.4,0.6c0,0.2-0.2,0.5-0.4,0.5l-28.4,7C451.1,273.2,451,273.2,451,273.2z
			 M428.2,261.9L451,272l26.4-6.5l-20.4-7.2L428.2,261.9z"/>
	</g>
	<g>
		<path class="st5" d="M431.9,255.6c-1,0.2-1.9,0.3-2.9,0.2c-3.4-0.1-6.8-0.4-10.2-0.9c-3.6-0.6-4.5-1.5-4.5-1.5l-59-0.2h-7
			c-0.8,2.9-3.3,4.9-6.2,5.2c-4.1,0.6-14.8-1.3-16.2-2.8c-4.7-4.9-3.2-16.8,0.4-18.5c0,0,5.2-16.2,10.5-28
			c5.7-12.6,21.9-27.2,42.9-29.6c20.9-2.4,41.2,21.2,48.1,32.9c4.2,7.1,7.7,14.7,10.4,22.5c0,0,2.8,2.6,3.3,5.5
			C442.4,246.4,441.4,252.5,431.9,255.6z"/>
	</g>
	<g>
		<defs>
			<path id="SVGID_1_" d="M431.9,255.6c-1,0.2-1.9,0.3-2.9,0.2c-3.4-0.1-6.8-0.4-10.2-0.9c-3.6-0.6-4.5-1.5-4.5-1.5l-59-0.2h-7
				c-0.8,2.9-3.3,4.9-6.2,5.2c-4.1,0.6-14.8-1.3-16.2-2.8c-4.7-4.9-3.2-16.8,0.4-18.5c0,0,5.2-16.2,10.5-28
				c5.7-12.6,21.9-27.2,42.9-29.6c20.9-2.4,41.2,21.2,48.1,32.9c4.2,7.1,7.7,14.7,10.4,22.5c0,0,2.8,2.6,3.3,5.5
				C442.4,246.4,441.4,252.5,431.9,255.6z"/>
		</defs>
		<clipPath id="SVGID_2_">
			<use xlink:href="#SVGID_1_"  style="overflow:visible;"/>
		</clipPath>
		<g class="st6">
			<g class="st7">
				<path class="st8" d="M430.7,254.4c-0.5,0.6-1.1,1-1.7,1.4c-3.4-0.1-6.8-0.4-10.2-0.9c-3.6-0.6-4.5-1.5-4.5-1.5l-59-0.2
					c-3.9-2.6-6.5-5.5-7-8.7c-1.5-10.8-9.1-12.1-16-11.2c0,0,2.2-6.5,7.4-6.2s9.8,6.2,9.8,6.2c-0.8-7.9-11-20.5-7.9-19.9
					c3.1,0.7,10.2,8.9,10.5,9.3c-0.2-0.4-4.6-9.7-0.8-9.3s7.5,15.2,7.5,15.2s13,7.9,21.5,9c8.5,1.1,29.7-10.6,29.7-10.6l0.9,7.8
					c0,0,11.5-7.3,16.8-3.8S433.9,250.5,430.7,254.4z"/>
			</g>
			<g class="st7">
				<path class="st8" d="M380.6,220.6c-2.8-4.6-13.9-10.1-13.9-10.1l-5.7,3.2c-13.3-10.4-4.5-24.4-4.5-24.4c3.6-4.5,38.4-7.1,45.2,0
					c6.8,7.1,6,16.6,3,23.1l-7.4-3.3c0,0-10.7,3.1-13.3,11.4"/>
			</g>
		</g>
	</g>
	<g>
		<path class="st3" d="M340.3,259.1c-4.8,0-13.4-1.5-14.8-3.1c-3.1-3.2-3.6-9.1-2.7-13.5c0.6-2.9,1.7-5,3-5.8
			c0.6-2,5.5-16.9,10.5-27.8c5.9-13.1,22.7-27.6,43.3-29.9c19.9-2.3,40.4,19.2,48.6,33.2c4.2,7.1,7.7,14.7,10.4,22.4
			c0.5,0.5,2.9,3,3.3,5.7c0.9,5.1,0.9,12.3-9.9,15.8c0,0,0,0-0.1,0c-1,0.2-2,0.3-3.1,0.2c-3.4-0.1-6.9-0.4-10.3-0.9
			c-2.9-0.5-4.2-1.1-4.6-1.5l-58.8-0.2h-6.6c-1,2.9-3.6,4.9-6.6,5.2C341.6,259.1,341,259.1,340.3,259.1z M382.5,180
			c-1,0-1.9,0.1-2.9,0.2c-20.2,2.3-36.6,16.5-42.4,29.3c-5.3,11.6-10.5,27.8-10.5,27.9c0,0.1-0.2,0.3-0.3,0.3
			c-1.1,0.5-2.1,2.5-2.6,5.1c-0.8,4-0.3,9.6,2.4,12.5c1.2,1.3,11.6,3.2,15.7,2.6c2.7-0.2,5-2.1,5.8-4.7c0.1-0.2,0.3-0.4,0.5-0.4h7
			l59,0.2c0.1,0,0.3,0.1,0.4,0.2l0,0c0,0,0.9,0.8,4.2,1.3c3.3,0.5,6.8,0.8,10.1,0.9c0.9,0.1,1.9,0,2.8-0.2c9.8-3.2,10-9.4,9.1-14.5
			c-0.5-2.6-3.1-5.1-3.1-5.2c-0.1-0.1-0.1-0.1-0.1-0.2c-2.8-7.7-6.3-15.3-10.4-22.4C419.5,199.7,401,180,382.5,180z M431.9,255.6
			L431.9,255.6L431.9,255.6z"/>
	</g>
	<g>
		<path class="st8" d="M376.9,218.2c0,0-4.7,6.4-4.4,13.1c0,0,7.1-4.4,9-9.6c0,0,5.5,8.5,12,8.3c0,0-5.2-9.6-7.6-11.1
			c5.6-3.8,10.1-9,13-15.1c0,0-4.3,0.4-4.2-1.1c0,0-8.7,14.4-13.1,15.4c-4.8-2.5-8.6-6.7-10.5-11.7l-9.5-1.2
			C361.6,205.2,368.9,215.7,376.9,218.2z"/>
		<path class="st3" d="M372.4,231.9c-0.1,0-0.2,0-0.3-0.1c-0.2-0.1-0.3-0.3-0.3-0.5c-0.2-5.7,2.9-11.1,4.1-12.9
			c-7.8-2.9-14.5-12.6-14.8-13c-0.1-0.2-0.1-0.4,0-0.6c0.1-0.2,0.3-0.3,0.6-0.3l9.5,1.2c0.2,0,0.4,0.2,0.5,0.4
			c1.9,4.9,5.5,8.9,10.1,11.3c3.5-1.1,10.2-11.2,12.6-15.1c0.1-0.2,0.4-0.3,0.6-0.2c0.2,0.1,0.4,0.3,0.4,0.6c0,0,0,0.1,0.1,0.1
			c0.5,0.4,2.4,0.5,3.5,0.4c0.2,0,0.4,0.1,0.5,0.2c0.1,0.2,0.1,0.4,0,0.6c-2.8,6-7.2,11.1-12.6,14.9c2.5,2.4,6.6,9.8,7.1,10.8
			c0.1,0.2,0.1,0.4,0,0.5c-0.1,0.2-0.3,0.3-0.5,0.3c-5.6,0.2-10.3-5.5-11.9-7.7c-2.4,4.9-8.6,8.8-8.9,8.9
			C372.6,231.9,372.5,231.9,372.4,231.9z M362.8,205.9c2.1,2.7,8,9.8,14.2,11.8c0.2,0.1,0.3,0.2,0.4,0.4c0.1,0.2,0,0.4-0.1,0.5
			c0,0.1-4.1,5.7-4.3,11.7c1.9-1.3,6.5-4.8,8-8.7c0.1-0.2,0.3-0.3,0.5-0.4c0.2,0,0.4,0.1,0.5,0.3c0,0.1,4.9,7.4,10.6,8
			c-1.7-3.1-5.2-9-6.9-10c-0.2-0.1-0.3-0.3-0.3-0.5c0-0.2,0.1-0.4,0.2-0.5c5.3-3.6,9.5-8.4,12.4-14c-1,0-2.5,0-3.3-0.6
			c-1.9,3.1-8.9,13.9-13,14.9c-0.1,0-0.3,0-0.4,0c-4.8-2.5-8.6-6.7-10.7-11.7L362.8,205.9z"/>
	</g>
	<g>
		<path class="st5" d="M380.3,216.6c-2.5-4.6-12.4-10.1-12.4-10.1l-5.1,3.2c-11.8-10.4-4-24.4-4-24.4c3.2-4.5,34.2-7.1,40.3,0
			c6.1,7.1,5.4,16.6,2.7,23.1l-6.5-3.2c0,0-9.5,3.1-11.8,11.4"/>
		<path class="st3" d="M383.4,217.2c-0.1,0-0.1,0-0.2,0c-0.3-0.1-0.5-0.4-0.4-0.7c2.4-8.5,11.8-11.7,12.2-11.8c0.1,0,0.3,0,0.4,0
			l6,2.9c2.4-6.3,2.9-15.2-2.8-22c-3.1-3.6-12.9-4.5-21.2-4.1c-8.8,0.4-16.8,2.2-18.2,4.1c-0.3,0.5-7.3,13.5,3.6,23.4l4.7-3
			c0.2-0.1,0.4-0.1,0.6,0c0.4,0.2,10.1,5.6,12.6,10.3c0.1,0.3,0,0.6-0.2,0.8c-0.3,0.1-0.6,0-0.8-0.2c-2.2-4-10.3-8.7-11.9-9.7
			l-4.8,3c-0.2,0.1-0.5,0.1-0.7-0.1c-12-10.6-4.2-25-4.1-25.1c1.9-2.7,11.3-4.3,19.1-4.6c4.1-0.2,17.9-0.4,22.1,4.5
			c6.3,7.3,5.5,17,2.8,23.7c-0.1,0.1-0.2,0.3-0.3,0.3c-0.1,0.1-0.3,0-0.4,0l-6.3-3.1c-1.4,0.5-9.2,3.7-11.3,11
			C383.9,217,383.6,217.2,383.4,217.2z"/>
	</g>
	<g>
		<path class="st3" d="M356.3,252.2c0,0-0.1,0-0.1,0c-0.3-0.1-0.5-0.4-0.4-0.7c0-0.1,2-8.7-1.6-20c-3.6-11.2-14.7-18.9-14.8-19
			c-0.3-0.2-0.3-0.5-0.1-0.8c0.2-0.3,0.5-0.3,0.8-0.1c0.5,0.3,11.5,7.9,15.2,19.6c3.7,11.6,1.7,20.2,1.6,20.6
			C356.8,252,356.6,252.2,356.3,252.2z"/>
	</g>
	<g>
		<path class="st3" d="M355.9,236.7C355.9,236.7,355.9,236.7,355.9,236.7c-0.3,0-0.6-0.3-0.6-0.6c0.5-11.1-3.7-17.5-3.7-17.6
			c-0.2-0.3-0.1-0.6,0.2-0.8c0.3-0.2,0.6-0.1,0.8,0.2c0.2,0.3,4.4,6.8,3.9,18.2C356.5,236.4,356.2,236.7,355.9,236.7z"/>
	</g>
	<g>
		<path class="st3" d="M414.3,254.1c-0.2,0-0.5-0.2-0.5-0.4c-9.8-30.3,7.7-44.8,7.9-44.9c0.2-0.2,0.6-0.2,0.8,0.1
			c0.2,0.2,0.2,0.6-0.1,0.8c-0.2,0.1-17,14.2-7.5,43.7c0.1,0.3-0.1,0.6-0.4,0.7C414.4,254.1,414.3,254.1,414.3,254.1z"/>
	</g>
	<g>
		<path class="st3" d="M412.3,236.7c-0.2,0-0.4-0.1-0.5-0.4c-2.3-6,1.8-20.5,1.9-21.1c0.1-0.3,0.4-0.5,0.7-0.4
			c0.3,0.1,0.5,0.4,0.4,0.7c0,0.1-4.1,14.7-2,20.4c0.1,0.3,0,0.6-0.3,0.7C412.4,236.7,412.4,236.7,412.3,236.7z"/>
	</g>
	<g>
		<path class="st9" d="M367.2,199.8c0,0,7.4,10.2,13.9,13.8c4.3-3.4,7.7-7.7,9.9-12.7c3.7-8.2-23.1-1.1-23.1-1.1"/>
		<path class="st3" d="M381.2,214.2c-0.1,0-0.2,0-0.3-0.1c-6.6-3.6-13.8-13.5-14.1-13.9c-0.2-0.3-0.1-0.6,0.1-0.8
			c0.2-0.2,0.5-0.1,0.7,0c0.1-0.1,0.1-0.1,0.2-0.1c2.1-0.5,20.2-5.3,23.6-1.4c0.7,0.8,0.8,1.9,0.2,3.2c-2.3,5-5.7,9.5-10,12.9
			C381.4,214.1,381.3,214.2,381.2,214.2z M368.3,200.3c1.9,2.4,7.6,9.6,12.8,12.6c4-3.3,7.3-7.5,9.4-12.3c0.6-1.3,0.1-1.8,0-2
			C388.1,195.9,373.9,198.9,368.3,200.3z"/>
	</g>
	<g>
		<path class="st9" d="M405.2,167.3c0,0,3.1-1.9,4.4-0.2c1.2,1.7-0.7,11.3-1.1,12.3c-0.4,1-0.7,0.5-2.4,3.9s-2.6,2-2.7,0.1"/>
		<path class="st3" d="M404.3,185.9c-0.1,0-0.1,0-0.2,0c-0.7-0.1-1.2-1-1.3-2.4c0-0.3,0.2-0.6,0.5-0.6c0.3,0,0.6,0.2,0.6,0.5
			c0,0.9,0.3,1.4,0.4,1.4c0,0,0.4-0.1,1.2-1.8c1.1-2.2,1.6-2.8,1.9-3.2c0.2-0.2,0.3-0.3,0.4-0.6c0.5-1.3,2.2-10.4,1.2-11.8
			c-0.9-1.2-3.6,0.4-3.6,0.4c-0.3,0.2-0.6,0.1-0.8-0.2c-0.2-0.3-0.1-0.6,0.2-0.8c0.1-0.1,3.6-2.2,5.1-0.1c1.5,2-0.6,11.9-1.1,12.9
			c-0.2,0.5-0.4,0.7-0.6,0.9c-0.3,0.4-0.8,0.9-1.8,3C406.1,184.5,405.3,185.9,404.3,185.9z"/>
	</g>
	<g>
		<path class="st9" d="M354.1,170.1c0,0-3.3-1.5-4.4,0.2c-1.1,1.8,1.9,11.1,2.5,12.1c0.6,1,0.8,0.4,2.8,3.6c2,3.2,2.8,1.7,2.7-0.1"
			/>
		<path class="st3" d="M356.9,188.5c-0.9,0-1.8-1.2-2.4-2.1c-1.2-2-1.8-2.4-2.1-2.8c-0.2-0.2-0.4-0.4-0.7-0.9
			c-0.5-0.9-3.7-10.6-2.5-12.7c1.3-2.2,4.9-0.5,5.1-0.5c0.3,0.1,0.4,0.5,0.3,0.7c-0.1,0.3-0.5,0.4-0.7,0.3c0,0-2.9-1.3-3.7,0
			c-0.8,1.4,1.8,10.4,2.5,11.6c0.2,0.3,0.3,0.4,0.5,0.6c0.4,0.4,1,0.9,2.3,3c1,1.6,1.4,1.6,1.4,1.6c0,0,0.3-0.5,0.2-1.4
			c0-0.3,0.2-0.6,0.5-0.6c0.3,0,0.6,0.2,0.6,0.5c0.1,1.4-0.3,2.3-1,2.6C357.1,188.5,357,188.5,356.9,188.5z"/>
	</g>
	<g>
		<path class="st9" d="M378.1,142.9c19.9-1.1,25,15.3,26.1,31.6c1.9,26.2-9.9,26.7-23.2,27.4c-13.6,0.8-22.8,4.2-26.1-25.6
			C353.2,160.4,358.6,144,378.1,142.9z"/>
		<path class="st3" d="M372.2,203c-8.9,0-15.2-3.4-17.7-26.6c-1.2-10.8,1-20,6.1-26.1c4.1-4.9,10.1-7.6,17.6-8h0
			c16.4-0.9,25.1,9.6,26.7,32.1c0.8,10.6-0.7,17.9-4.4,22.1c-4.4,5-11.5,5.4-18.9,5.9l-0.3,0c-1.1,0.1-2.2,0.1-3.3,0.2
			C375.8,202.8,373.9,203,372.2,203z M378.2,143.4c-7.2,0.4-12.9,3-16.8,7.6c-4.9,5.8-7,14.7-5.8,25.2c2.9,26.8,10.6,26.2,22.2,25.3
			c1.1-0.1,2.2-0.2,3.3-0.2l0.3,0c7.2-0.4,14-0.8,18.2-5.5c3.5-4,4.9-11,4.2-21.3C402.1,152.5,394.1,142.6,378.2,143.4L378.2,143.4z
			"/>
	</g>
	<g>
		<path class="st3" d="M362.8,173.6c-0.1,0-0.2,0-0.3-0.1c-0.2-0.2-0.3-0.5-0.1-0.8c5.1-6.8,10.8-4,10.9-4c0.3,0.1,0.4,0.5,0.2,0.8
			c-0.1,0.3-0.5,0.4-0.8,0.3c-0.2-0.1-5-2.4-9.5,3.7C363.2,173.5,363,173.6,362.8,173.6z"/>
	</g>
	<g>
		<path class="st3" d="M396.6,171.7c-0.2,0-0.3-0.1-0.4-0.2c-4.9-5.3-10.4-3-10.5-3c-0.3,0.1-0.6,0-0.7-0.3c-0.1-0.3,0-0.6,0.3-0.7
			c0.1,0,6.3-2.7,11.7,3.3c0.2,0.2,0.2,0.6,0,0.8C396.8,171.6,396.7,171.7,396.6,171.7z"/>
	</g>
	<g>
		<path class="st3" d="M371.6,177.6c0.1,1.6-0.7,3-1.7,3c-1.1,0.1-2-1.2-2.1-2.8c-0.1-1.6,0.7-3,1.7-3
			C370.6,174.7,371.5,176,371.6,177.6z"/>
	</g>
	<g>
		<path class="st3" d="M391.5,176.5c0.1,1.6-0.7,3-1.7,3c-1.1,0.1-2-1.2-2.1-2.8c-0.1-1.6,0.7-3,1.8-3
			C390.4,173.6,391.4,174.9,391.5,176.5z"/>
	</g>
	<g>
		<path class="st3" d="M400.1,182.2c-0.2,0-0.4-0.1-0.5-0.3c-0.1-0.3,0-0.6,0.2-0.8c0.1,0,2.5-1.5,5.1-8.7c0.1-0.3,0.4-0.4,0.7-0.3
			c0.3,0.1,0.4,0.4,0.3,0.7c-2.8,7.8-5.5,9.2-5.6,9.3C400.3,182.2,400.2,182.2,400.1,182.2z"/>
	</g>
	<g>
		<path class="st3" d="M360.6,184.4c-0.1,0-0.1,0-0.2,0c-0.2-0.1-4.3-1.6-6-7.8c-0.1-0.3,0.1-0.6,0.4-0.7c0.3-0.1,0.6,0.1,0.7,0.4
			c1.5,5.6,5.1,7,5.3,7.1c0.3,0.1,0.4,0.4,0.3,0.7C361.1,184.3,360.8,184.4,360.6,184.4z"/>
	</g>
	<g>
		<path class="st8" d="M358.8,183c0,0,16.5-1.3,20.7-1.8s22.3-0.6,22.3-0.6s-0.4,15.4-3.5,19.3c-6.1,7.5-25.3,9.3-34.3,2.1
			C361.7,200.2,358.8,183,358.8,183z"/>
		<path class="st3" d="M379.7,207c-6.1,0-12.2-1.5-16.1-4.6c-2.4-1.8-5-17.6-5.3-19.4c0-0.2,0-0.3,0.1-0.4c0.1-0.1,0.2-0.2,0.4-0.2
			c0.2,0,16.6-1.3,20.7-1.8c4.1-0.5,21.6-0.6,22.4-0.6c0.1,0,0.3,0.1,0.4,0.2c0.1,0.1,0.2,0.3,0.2,0.4c0,0.6-0.4,15.7-3.7,19.6
			C395.1,204.7,387.3,207,379.7,207z M359.5,183.5c1.1,6.6,3.3,16.9,4.8,18.1c9.2,7.3,27.8,5,33.6-2c2.6-3.3,3.3-15.5,3.4-18.4
			c-3.1,0-18,0.2-21.6,0.6C375.9,182.2,362.5,183.2,359.5,183.5z"/>
	</g>
	<g>
		<path class="st3" d="M389.5,156c0,0-0.1,7.3-13.2,13.2c0,0,2.9-1.9,4-8.3c0,0-11.8,6.5-17.5,7.7l-5.7,1.2l-2.1,11.8
			c0,0-4.9-14.7-5.5-23.6c-0.6-8.9,3.9-22.9,22.6-25.8c18.7-2.9,29.7,8.2,29.7,8.2s12.2,4.8,2.7,37.2c-1-3.9-2.5-7.7-4.3-11.3
			C397.5,161.4,389.5,156,389.5,156z"/>
	</g>
	<g>
		<path class="st9" d="M325.7,252.6c-3.1-6,0.3-13.5,8.6-14.7c8.3-1.2,16.6,3.8,13.9,13.3S329.7,260.2,325.7,252.6z"/>
		<path class="st3" d="M337.3,258.9c-4.6,0-9.9-1.9-12-6v0c-1.6-3-1.6-6.4-0.1-9.4c1.7-3.3,5-5.5,9.1-6.1c5.1-0.7,10,0.8,12.7,3.9
			c1.6,1.8,3.2,5.1,1.8,10.1c-1.1,4.1-4.8,6.9-9.9,7.4C338.4,258.9,337.8,258.9,337.3,258.9z M336.8,238.3c-0.8,0-1.6,0.1-2.4,0.2
			c-3.8,0.5-6.8,2.5-8.3,5.5c-1.4,2.7-1.3,5.7,0.1,8.4c0,0,0,0,0,0c1.9,3.7,7.2,5.9,12.6,5.4c4.6-0.5,7.9-2.9,8.9-6.6
			c1-3.6,0.4-6.7-1.6-9.1C344,239.7,340.6,238.3,336.8,238.3z"/>
	</g>
	<g>
		<path class="st9" d="M340.8,240.6c0,0,31.7,6.2,39.5,5.5c7.9-0.7,17.3-5.8,20.9-4.1c3.6,1.7,8.6,10.8,9.5,12.1
			c0.8,1.3-4.1,4-6.8,3.9c-1.7-0.2-3.3-0.7-4.8-1.5c0,0-2.5,5.3-16,1.1c0,0-42.9,8.1-53.8-0.7c-6.8-5.5-4.8-10.5,0.2-13.5"/>
		<path class="st3" d="M349.6,261.5c-8.7,0-16.6-1-20.6-4.2c-3.2-2.6-4.7-5.3-4.5-7.9c0.2-2.4,1.9-4.7,4.9-6.5
			c0.3-0.2,0.6-0.1,0.8,0.2c0.2,0.3,0.1,0.6-0.2,0.8c-2.6,1.5-4.2,3.5-4.3,5.6c-0.2,2.2,1.3,4.7,4.1,7c10.5,8.5,52.9,0.7,53.3,0.6
			c0.1,0,0.2,0,0.3,0c12.8,4,15.3-0.8,15.3-0.8c0.1-0.1,0.2-0.2,0.3-0.3c0.1,0,0.3,0,0.4,0c1.4,0.8,3,1.3,4.6,1.5
			c2,0.1,5.5-1.6,6.2-2.8c0.1-0.1,0.1-0.2,0.1-0.2c-0.1-0.1-0.2-0.4-0.4-0.7c-1.4-2.4-5.7-9.8-8.8-11.2c-1.8-0.8-5.8,0.4-9.9,1.6
			c-3.4,1-7.2,2.2-10.7,2.5c-7.8,0.7-38.4-5.2-39.7-5.5c-0.3-0.1-0.5-0.4-0.4-0.7c0.1-0.3,0.4-0.5,0.7-0.4
			c0.3,0.1,31.7,6.2,39.4,5.5c3.4-0.3,7.2-1.5,10.5-2.5c4.5-1.4,8.5-2.6,10.7-1.6c3,1.4,6.8,7.3,9.3,11.6c0.2,0.3,0.3,0.5,0.4,0.7
			c0.1,0.2,0.3,0.7-0.1,1.4c-1,1.6-4.9,3.4-7.3,3.3c-1.6-0.2-3.1-0.6-4.6-1.4c-1,1.3-4.8,4.5-16.2,1
			C381.1,258.4,364.4,261.5,349.6,261.5z"/>
	</g>
	<g>
		<path class="st3" d="M399.1,256.9c-0.2,0-0.4-0.1-0.5-0.3c0,0-0.5-1.1,0-2.3c0.4-1,1.4-1.7,3-2.2c0.5-1.1,1.4-3.4,1-4.7
			c-0.1-0.3,0.1-0.6,0.4-0.7c0.3-0.1,0.6,0.1,0.7,0.4c0.6,2-1,5.4-1.2,5.7c-0.1,0.1-0.2,0.3-0.4,0.3c-1.3,0.4-2.2,0.9-2.5,1.6
			c-0.3,0.7,0,1.3,0,1.4c0.1,0.3,0,0.6-0.3,0.8C399.3,256.9,399.2,256.9,399.1,256.9z"/>
	</g>
	<g>
		<path class="st3" d="M405.4,255c-2.2,0-3.8-1.9-3.9-2c-0.2-0.2-0.2-0.6,0.1-0.8c0.2-0.2,0.6-0.2,0.8,0.1c0,0,1.6,2,3.5,1.5
			c0.3-0.1,0.6,0.1,0.7,0.4c0.1,0.3-0.1,0.6-0.4,0.7C406,254.9,405.7,255,405.4,255z"/>
	</g>
	<g>
		<path class="st3" d="M383.1,258.1c-0.1,0-0.3,0-0.4-0.1c-0.2-0.2-0.3-0.5-0.1-0.8c0,0,0.7-1.1-0.1-3.6c-0.1-0.3,0.1-0.6,0.4-0.7
			c0.3-0.1,0.6,0.1,0.7,0.4c1,3.2,0,4.5-0.1,4.7C383.5,258,383.3,258.1,383.1,258.1z"/>
	</g>
	<g>
		<path class="st9" d="M428.9,233.8c2.7-0.8,5.7-0.1,7.8,1.8c4.1,3.2,8.3,19.3-3.9,22.7C420.6,261.6,414.4,235.5,428.9,233.8z"/>
		<path class="st3" d="M430.7,259.1c-2.4,0-4.7-1.1-6.6-3.1c-3.8-4.1-5.2-11.3-3.4-16.4c1.3-3.6,4.2-5.8,8-6.3
			c2.9-0.8,6-0.1,8.3,1.9c2.8,2.2,5.2,9.3,4,15c-0.6,3.1-2.6,7.1-8.2,8.7C432.2,259,431.4,259.1,430.7,259.1z M431.2,234
			c-0.7,0-1.4,0.1-2.1,0.3c0,0-0.1,0-0.1,0c-4.4,0.5-6.3,3.3-7.2,5.6c-1.7,4.7-0.4,11.4,3.1,15.3c1.5,1.7,4.1,3.5,7.7,2.5
			c5.1-1.4,6.8-5,7.4-7.8c1.2-5.7-1.4-12.2-3.6-13.9C434.9,234.7,433,234,431.2,234z M428.9,233.8L428.9,233.8L428.9,233.8z"/>
	</g>
	<g>
		<path class="st9" d="M435.1,239.7c0,0-18.1-28.6-21.9-37.9l-11.2,4.9c0.3,1.3,10.3,42.9,22.3,49.6c7.6,4.3,11.6,0.6,12.4-5.2"/>
		<path class="st3" d="M430.2,258.8c-1.8,0-3.9-0.6-6.2-1.9c-12.5-7-22.5-49.6-22.6-50c-0.1-0.3,0.1-0.5,0.3-0.6l11.2-4.9
			c0.1-0.1,0.3-0.1,0.4,0c0.1,0.1,0.3,0.2,0.3,0.3c3.7,9.1,21.7,37.5,21.8,37.8c0.2,0.3,0.1,0.6-0.2,0.8c-0.3,0.2-0.6,0.1-0.8-0.2
			c-0.7-1.1-17.5-27.8-21.7-37.5l-10.3,4.5c1.1,4.5,10.7,42.5,21.9,48.8c3.2,1.8,6,2.2,8,1.3c1.9-0.9,3.1-3.1,3.6-6.1
			c0-0.3,0.3-0.5,0.6-0.5c0.3,0,0.5,0.3,0.5,0.6c-0.5,3.4-2,5.8-4.2,6.9C432.2,258.6,431.2,258.8,430.2,258.8z"/>
	</g>
	<g>
		<path class="st9" d="M404.1,208.1c0,0-5-0.4-6.4-4.1c-1.4-3.7,5.3-13.2,5.3-13.2s-1.4-6.5,0.4-7.4c1.8-0.9,6.7-4.4,8.2-3.3
			s3.2,4.5,3.5,8.5c0.3,4.1-2.2,15.5-2.2,15.5"/>
		<path class="st3" d="M404.1,208.7C404,208.7,404,208.7,404.1,208.7c-0.3,0-5.4-0.5-6.9-4.5c-1.4-3.7,4.1-11.9,5.3-13.6
			c-0.3-1.6-1.2-6.8,0.8-7.7c0.4-0.2,0.9-0.5,1.6-0.9c3.1-1.9,5.8-3.3,7.2-2.4c1.9,1.3,3.5,5.1,3.7,9c0.3,4.1-2.1,15.2-2.2,15.7
			c-0.1,0.3-0.4,0.5-0.7,0.4c-0.3-0.1-0.5-0.4-0.4-0.7c0-0.1,2.5-11.4,2.2-15.3c-0.3-4-1.9-7.2-3.2-8.1c-0.9-0.6-4.4,1.4-6,2.4
			c-0.7,0.4-1.2,0.7-1.7,0.9c-0.8,0.4-0.7,3.8-0.1,6.7c0,0.2,0,0.3-0.1,0.4c-1.8,2.6-6.4,9.9-5.3,12.7c1.3,3.3,5.9,3.8,5.9,3.8
			c0.3,0,0.5,0.3,0.5,0.6C404.6,208.5,404.4,208.7,404.1,208.7z"/>
	</g>
	<g>
		<path class="st0" d="M403,190.7c0,0,3.1-2.6,5.1-2.8"/>
		<path class="st3" d="M403,191.3c-0.2,0-0.3-0.1-0.4-0.2c-0.2-0.2-0.2-0.6,0.1-0.8c0.1-0.1,3.3-2.8,5.4-2.9c0.3,0,0.6,0.2,0.6,0.5
			c0,0.3-0.2,0.6-0.5,0.6c-1.5,0.1-3.9,1.9-4.8,2.7C403.3,191.3,403.1,191.3,403,191.3z"/>
	</g>
	<g>
		<path class="st0" d="M406.3,188.5c0.3-1.4,0.4-2.7,0.4-4.1"/>
		<path class="st3" d="M406.3,189.1c0,0-0.1,0-0.1,0c-0.3-0.1-0.5-0.4-0.4-0.7c0.3-1.3,0.4-2.7,0.4-4c0-0.3,0.3-0.6,0.6-0.6
			c0.3,0,0.6,0.3,0.6,0.6c0,1.4-0.1,2.8-0.4,4.2C406.8,188.9,406.5,189.1,406.3,189.1z"/>
	</g>
	<g class="st10">
		<g>
			<path class="st0" d="M383.1,161.5c-0.1,0-0.3,0-0.4-0.1c-0.2-0.2-0.3-0.6-0.1-0.8c7.7-9,6.3-20.3,6.3-20.5c0-0.3,0.2-0.6,0.5-0.6
				c0.3,0,0.6,0.2,0.6,0.5c0.1,0.5,1.5,11.9-6.5,21.3C383.5,161.4,383.3,161.5,383.1,161.5z"/>
		</g>
		<g>
			<path class="st0" d="M362.8,161.5c-0.3,0-0.5-0.2-0.6-0.5c-0.1-0.3,0.1-0.6,0.5-0.7c10.8-1.9,19.5-10.1,22.2-20.8
				c0.1-0.3,0.4-0.5,0.7-0.4c0.3,0.1,0.5,0.4,0.4,0.7C383.3,151,374.2,159.5,362.8,161.5C362.9,161.5,362.9,161.5,362.8,161.5z"/>
		</g>
		<g>
			<path class="st0" d="M360.8,153.1c-0.6,0-1.3,0-2-0.1c-0.3,0-0.5-0.3-0.5-0.6c0-0.3,0.3-0.5,0.6-0.5
				c16.7,1.1,20.5-11.8,20.6-12.3c0.1-0.3,0.4-0.5,0.7-0.4c0.3,0.1,0.5,0.4,0.4,0.7C380.5,140,376.8,153.1,360.8,153.1z"/>
		</g>
		<g>
			<path class="st0" d="M403.3,162.1c-0.2,0-0.5-0.1-0.5-0.4c-1.9-5.5-8.3-10.8-8.4-10.8c-0.2-0.2-0.3-0.5-0.1-0.8
				c0.2-0.2,0.5-0.3,0.8-0.1c0.3,0.2,6.7,5.5,8.7,11.3c0.1,0.3-0.1,0.6-0.3,0.7C403.4,162.1,403.3,162.1,403.3,162.1z"/>
		</g>
		<g>
			<path class="st0" d="M401.8,147.9c-0.1,0-0.2,0-0.3-0.1c-2.1-1.5-6.7-1.8-6.8-1.8c-0.3,0-0.5-0.3-0.5-0.6c0-0.3,0.3-0.5,0.6-0.5
				c0.2,0,5,0.3,7.3,2c0.3,0.2,0.3,0.5,0.1,0.8C402.2,147.8,402,147.9,401.8,147.9z"/>
		</g>
	</g>
</g>
<g id="freepik--character-2--inject-234_3_">
	<g>
		<path class="st4" d="M440.3,313.8H51c0,35,28.4,54.4,63.4,54.4c0,0,0,0,0,0h262.4C411.9,368.2,440.3,348.8,440.3,313.8
			C440.3,313.8,440.3,313.8,440.3,313.8z"/>
	</g>
	<g>
		<path class="st11" d="M263.8,203.9l11.7-25.9c0.6-5.5,1.7-11,3.3-16.3c2.4-7.5,8.7-37.8,8-51.7s17.5,3.2,17.5,3.2
			s-1.2,54.4-3.2,62c-2,7.6-19.5,78.5-19.5,78.5"/>
		<path class="st3" d="M281.6,254.2c0,0-0.1,0-0.1,0c-0.3-0.1-0.5-0.4-0.4-0.6c0.2-0.7,17.5-71,19.5-78.5c1.9-7.2,3.1-57.7,3.2-61.6
			c-3.2-2.9-11.6-9.7-14.9-8.1c-1.1,0.5-1.6,2.1-1.5,4.7c0.8,14.3-5.7,44.8-8,51.9c-1.5,5.3-2.7,10.8-3.3,16.2c0,0.1,0,0.1,0,0.2
			l-11.7,25.9c-0.1,0.3-0.4,0.4-0.7,0.3c-0.3-0.1-0.4-0.4-0.3-0.7l11.6-25.9c0.6-5.5,1.8-11,3.3-16.4c2.2-7,8.7-37.3,7.9-51.5
			c-0.2-3,0.5-4.9,2.1-5.7c4.7-2.2,15.1,7.3,16.3,8.4c0.1,0.1,0.2,0.2,0.2,0.4c0,2.2-1.2,54.6-3.2,62.1c-2,7.5-19.3,77.7-19.5,78.4
			C282,254,281.8,254.2,281.6,254.2z"/>
	</g>
	<g>
		<path class="st12" d="M293.4,218.5l-2.9,3.9l-0.5,0.7c0,0-4.5,45.3-13.6,63.6c-0.4,0.9-0.9,1.8-1.4,2.5
			c-10.1,16.2-23.9-69.5-23.9-69.5s4.6-16.7,12.6-19.8l3.4-9.4C267,190.5,291.6,210.1,293.4,218.5z"/>
	</g>
	<g>
		<defs>
			<path id="SVGID_3_" d="M293.4,218.5l-2.9,3.9l-0.5,0.7c0,0-4.5,45.3-13.6,63.6c-0.4,0.9-0.9,1.8-1.4,2.5
				c-10.1,16.2-23.9-69.5-23.9-69.5s4.6-16.7,12.6-19.8l3.4-9.4C267,190.5,291.6,210.1,293.4,218.5z"/>
		</defs>
		<clipPath id="SVGID_4_">
			<use xlink:href="#SVGID_3_"  style="overflow:visible;"/>
		</clipPath>
		<g class="st13">
			<g class="st7">
				<path class="st14" d="M290.5,222.4l-0.5,0.7c0,0-4.5,45.3-13.6,63.6c-6-7.6-4.3-26.1-2.9-29c2-4,6.7,1,6.7,1s-3.9-14.7-4.5-18.9
					c-0.6-4.2,4.2,2.2,7,4.5s3.4-12.6,2.1-17.1c-1.3-4.5-17.7-26-12.5-23.6C276.1,205.5,285.6,216.6,290.5,222.4z"/>
			</g>
		</g>
	</g>
	<g>
		<path class="st3" d="M272.3,291.8c-0.2,0-0.3,0-0.5-0.1c-9.8-2-20.8-69.1-21.3-72c0-0.1,0-0.2,0-0.2c0.2-0.7,4.7-16.7,12.7-20
			l3.3-9.2c0.1-0.2,0.2-0.3,0.4-0.3c0.2,0,0.3,0,0.5,0.1c1,0.8,24.8,19.8,26.6,28.3c0,0.1,0,0.3-0.1,0.4l-3.3,4.5
			c-0.3,2.9-4.8,46-13.7,63.6c-0.4,0.9-0.9,1.7-1.4,2.6C274.4,291,273.4,291.8,272.3,291.8z M251.5,219.7
			c3.1,19.3,12.9,69.5,20.4,71c0.8,0.2,1.7-0.4,2.5-1.8c0.5-0.8,1-1.6,1.4-2.5c9-18,13.5-63,13.6-63.4c0-0.1,0-0.2,0.1-0.3l3.3-4.4
			c-2-7.5-21.9-24-25.6-27l-3.1,8.7c-0.1,0.1-0.2,0.3-0.3,0.3C256.5,203.2,252,218.3,251.5,219.7z"/>
	</g>
	<g>
		<path class="st12" d="M274.1,251.3c5.3,15.8,8.1,32.4,8.4,49c0.1,4.7,0.1,9.6-0.1,14.7H173.9l-0.1-50.9c0,0,12.3-19.8,40-25.7
			c21.4-4.6,39.4-25,39.4-25c1.4,1.5,2.7,3,4,4.7"/>
	</g>
	<g>
		<defs>
			<path id="SVGID_5_" d="M274.1,251.3c5.3,15.8,8.1,32.4,8.4,49c0.1,4.7,0.1,9.6-0.1,14.7H173.9l-0.1-50.9c0,0,12.3-19.8,40-25.7
				c21.4-4.6,39.4-25,39.4-25c1.4,1.5,2.7,3,4,4.7"/>
		</defs>
		<clipPath id="SVGID_6_">
			<use xlink:href="#SVGID_5_"  style="overflow:visible;"/>
		</clipPath>
		<g class="st15">
			<g class="st16">
				<path class="st14" d="M282.4,315.1H175c2.8-14.9,10.3-27.3,15.3-26c8.1,2.1,10.9,16.8,15.2,20.9c4.3,4.2,12.9-1.6,25.8-4.9
					c12.9-3.2,25.1,6.9,32.1,5.9c4-0.6,12.7-6.1,19.1-10.7C282.7,305,282.6,309.9,282.4,315.1z"/>
			</g>
			<g class="st17">
				<path class="st14" d="M197.6,248.1c0,0-6.2,2.7-8.5,16c0,0,7.1-3.5,11.3-3.8c4.3-0.3,27.7,12.1,27.7,12.1s5.4-20.5,11.5-25.8
					c6-5.3,18.1-4.2,18.1-4.2s-10.9-12-20.8-12.2c-4-0.1-10.6,8.4-18,11.2C208.6,245.3,197.6,248.1,197.6,248.1z"/>
			</g>
		</g>
	</g>
	<g>
		<path class="st3" d="M282.4,315.6H173.9c-0.3,0-0.5-0.2-0.5-0.5l-0.1-50.9c0-0.1,0-0.2,0.1-0.3c0.1-0.2,12.8-20,40.3-25.9
			c21-4.5,39-24.6,39.2-24.8c0.1-0.1,0.2-0.2,0.4-0.2c0.2,0,0.3,0.1,0.4,0.2c1.4,1.5,2.8,3.1,4,4.7c0.2,0.2,0.1,0.6-0.1,0.7
			c-0.2,0.2-0.6,0.1-0.7-0.1c-1.1-1.5-2.3-2.9-3.5-4.2c-2.8,3-19.7,20.5-39.3,24.7c-26,5.5-38.5,23.6-39.6,25.3l0.1,50.2h107.5
			c0.2-4.9,0.3-9.6,0.1-14.2c-0.3-16.6-3.1-33.1-8.3-48.9c-0.1-0.3,0.1-0.6,0.3-0.7c0.3-0.1,0.6,0.1,0.7,0.3
			c5.3,15.9,8.1,32.5,8.4,49.2c0.1,4.7,0.1,9.6-0.1,14.7C282.9,315.3,282.6,315.6,282.4,315.6z"/>
	</g>
	<g>
		<path class="st12" d="M230.9,256.7c0,0,7.5-22.2,11.1-22.5s12.7,5.5,12.7,5.5c-16-25.7-40.2-11.9-50.4-6
			c-20.7,12.2-18.1,30.5-18.1,30.5s8.1-8.9,11.7-10c3.6-1.1,20,10,20,10"/>
		<path class="st3" d="M217.9,264.7c-0.1,0-0.2,0-0.3-0.1c-6.5-4.4-17.1-10.7-19.6-9.9c-3.5,1.1-11.4,9.8-11.5,9.9
			c-0.1,0.2-0.4,0.2-0.5,0.2c-0.2-0.1-0.3-0.2-0.4-0.4c0-0.2-2.4-18.8,18.4-31.1c9.5-5.6,34.6-20.4,51.1,6.1
			c0.1,0.2,0.1,0.5-0.1,0.7c-0.2,0.2-0.5,0.2-0.7,0.1c-2.5-1.6-9.6-5.7-12.3-5.4c-2.2,0.2-7.6,13.1-10.6,22.2
			c-0.1,0.3-0.4,0.4-0.7,0.3c-0.3-0.1-0.4-0.4-0.3-0.7c1.3-3.8,7.8-22.5,11.5-22.9c2.7-0.3,8,2.6,11,4.3
			c-15.9-22.9-39.4-9.1-48.4-3.8c-17.2,10.1-18.1,24.6-18,28.8c2.2-2.3,8-8.3,11.1-9.3c3.8-1.2,18.8,8.9,20.5,10.1
			c0.2,0.2,0.3,0.5,0.1,0.7C218.2,264.6,218,264.7,217.9,264.7z"/>
	</g>
	<g>
		<path class="st11" d="M232.5,237.4c-1.5,12.9-10.5,22.1-10.5,22.1c-18.2-4.4-21.5-16.5-21.5-16.5c0.3-0.3,0.6-0.7,0.8-1.1
			c1-1.8,2.2-6.2-0.9-14.8c-0.8-2.3-1.8-4.5-2.9-6.7l32.5-5.6c-1.6,3.9-2,8.2-1.4,12.3c0.2,1.3,0.5,2.5,0.9,3.8
			C230.3,233.1,231.3,235.3,232.5,237.4z"/>
		<path class="st3" d="M222,259.9c0,0-0.1,0-0.1,0c-18.3-4.5-21.7-16.3-21.9-16.8c-0.1-0.2,0-0.4,0.2-0.5c0.3-0.3,0.5-0.6,0.7-1
			c1-1.7,2.1-5.9-1-14.4c-0.8-2.3-1.8-4.5-2.8-6.7c-0.1-0.2-0.1-0.3,0-0.5c0.1-0.1,0.2-0.3,0.4-0.3l32.5-5.6c0.2,0,0.4,0,0.5,0.2
			c0.1,0.1,0.2,0.4,0.1,0.5c-1.5,3.8-2,8-1.3,12.1c0.2,1.3,0.5,2.5,0.9,3.7c0.7,2.3,1.6,4.4,2.8,6.4c0.1,0.1,0.1,0.2,0.1,0.3
			c-1.5,12.9-10.5,22.3-10.6,22.4C222.3,259.9,222.2,259.9,222,259.9z M201.2,243.1c0.6,1.8,4.8,11.7,20.7,15.7
			c1.3-1.5,8.7-10,10.1-21.3c-1.2-2-2.2-4.2-2.8-6.5c-0.4-1.2-0.7-2.5-0.9-3.8c-0.6-3.9-0.3-8,1.1-11.7l-30.9,5.3
			c1,2,1.8,4.1,2.6,6.1c3.2,8.9,1.9,13.4,0.9,15.3C201.7,242.4,201.4,242.8,201.2,243.1z"/>
	</g>
	<g>
		<path class="st14" d="M244.4,256.3c-1.9-2.3-20.8,4.6-20.8,4.6s-21.4,5-20.7,8.6c0.7,3.6,4.6,11.5,8.9,10.5
			c4.3-1,9.9-11.3,9.9-11.3l-4.7,20.4h4.7l3-20.9c4.2,5.2,7.3,16.5,7.3,16.5l2.7-3.8c-1.8-6-7.9-14.7-7.9-14.7s13.1,5.2,16.3,5.7
			C246.3,272.2,246.3,258.6,244.4,256.3z M210.9,274.5c-1.4,0.3-1.9-1.4-2.4-3.6c-0.5-2.2,10.6-5.2,10.6-5.2
			S212.2,274.2,210.9,274.5z M241.1,265.6c-1.4,0.8-13.3-2.8-13.3-2.8s13.4-3.9,13.9-2.4S242.5,264.8,241.1,265.6L241.1,265.6z"/>
		<path class="st3" d="M221.6,289.5h-4.7c-0.2,0-0.3-0.1-0.4-0.2c-0.1-0.1-0.1-0.3-0.1-0.5l4-17.1c-2,3.2-5.5,7.9-8.5,8.7
			c-1.1,0.3-2.3,0-3.4-0.7c-3.1-2-5.5-7.3-6.1-10.2c-0.7-3.8,16-8,21.1-9.2c4.5-1.6,19.3-6.9,21.3-4.4l0,0c1.8,2.2,1.9,12,0.1,15.1
			c-0.7,1.2-1.4,1.3-2,1.3c-2.6-0.3-11.2-3.6-14.8-5.1c1.8,2.7,5.7,8.8,7,13.4c0,0.2,0,0.3-0.1,0.5l-2.7,3.8
			c-0.1,0.2-0.3,0.3-0.5,0.2c-0.2,0-0.4-0.2-0.4-0.4c0-0.1-2.7-9.8-6.4-15.3l-2.8,19.6C222.1,289.4,221.9,289.5,221.6,289.5z
			 M217.6,288.5h3.6l3-20.4c0-0.2,0.2-0.4,0.4-0.4c0.2-0.1,0.4,0,0.6,0.2c3.5,4.4,6.2,12.7,7,15.6l1.9-2.7
			c-1.8-5.9-7.7-14.2-7.8-14.3c-0.1-0.2-0.1-0.5,0-0.6c0.1-0.2,0.4-0.3,0.6-0.2c0.1,0.1,13.1,5.2,16.2,5.6c0.3,0,0.6-0.2,0.9-0.7
			c1.6-3,1.4-12.3,0-13.9c0,0,0,0,0,0c-1-1.2-11.3,1.5-20.2,4.8c-10.1,2.4-20.8,6.1-20.4,8c0.5,2.8,2.9,7.8,5.6,9.5
			c0.9,0.6,1.8,0.8,2.6,0.6c4-1,9.5-11,9.5-11.1c0.1-0.2,0.4-0.3,0.7-0.2c0.2,0.1,0.4,0.4,0.3,0.6L217.6,288.5z M210.5,275.1
			c-1.6,0-2.2-2.3-2.6-4c-0.6-2.4,7.5-4.9,11-5.9c0.2-0.1,0.5,0,0.6,0.2s0.1,0.4,0,0.6c-1.6,2-7,8.7-8.5,9l0,0
			C210.8,275.1,210.7,275.1,210.5,275.1z M217.6,266.7c-4.9,1.5-8.8,3.3-8.6,4.1c0.6,2.5,1,3.3,1.8,3.2
			C211.4,273.8,214.6,270.3,217.6,266.7z M240.4,266.2c-2.9,0-10.3-2.2-12.8-3c-0.2-0.1-0.4-0.3-0.4-0.5c0-0.2,0.2-0.4,0.4-0.5
			c2.9-0.8,12.4-3.5,14.1-2.6c0.3,0.1,0.4,0.4,0.4,0.5c0.1,0.5,1.3,4.6-0.7,5.8c0,0-0.1,0.1-0.2,0.1
			C241,266.2,240.7,266.2,240.4,266.2z M229.6,262.8c5.1,1.5,10.4,2.7,11.2,2.4c0,0,0,0,0.1,0c0.8-0.6,0.8-2.7,0.3-4.5
			C240.2,260.2,234.8,261.4,229.6,262.8z"/>
	</g>
	<g>
		<path class="st14" d="M222.1,266.9l-2.1-5c0,0,3.7-2.5,6.1-1.8l-0.5,4.8"/>
		<path class="st3" d="M222.1,267.4c-0.2,0-0.4-0.1-0.5-0.3l-2.1-5c-0.1-0.2,0-0.5,0.2-0.6c0.2-0.1,3.9-2.7,6.6-1.9
			c0.2,0.1,0.4,0.3,0.4,0.6l-0.5,4.8c0,0.3-0.3,0.5-0.6,0.5c-0.3,0-0.5-0.3-0.5-0.6l0.5-4.4c-1.7-0.2-4,1-4.9,1.6l2,4.6
			c0.1,0.3,0,0.6-0.3,0.7C222.2,267.4,222.2,267.4,222.1,267.4z"/>
	</g>
	<g>
		<path class="st11" d="M293.5,115.9c-0.9,0.2-10.6-2.7-11.7-10.5s-7.9-17.9-7.9-17.9s1.7-3.9,5.3-1.9c2.1,1.1,3.1,6.2,8.2,8.5
			c1.2-3.6,1.9-7.3,2.2-11.1c0.7-6.9,1.3-15.8,4-16.5s2.9,1.3,2.9,2.9s-0.9,12,0,13.6c0.9,1.6,4.9-15.8,6-16.6
			c2.8-2.1,4.2,1.7,4.2,1.7s-3.8,16.7-3.3,18c0.4,1.3,5.8-10.7,6-12.2c0.3-1.6,3.3-0.6,3.3,2.2c0.1,2.2-5.3,14.7-4.9,16
			c0.4,1.3,4-7.8,5-8.5s3.4,0.4,1.4,6.7c-1.8,5.1-3.2,10.3-4.2,15.5c-1.1,6.2-6.2,10.5-10.5,10.1"/>
		<path class="st3" d="M300.4,116.5c-0.2,0-0.4,0-0.6,0c-0.3,0-0.5-0.3-0.5-0.6c0-0.3,0.3-0.5,0.6-0.5c3.8,0.4,8.8-3.5,9.9-9.6
			c1-5.3,2.5-10.5,4.2-15.6c1.2-3.6,0.8-5.5,0.1-6c-0.3-0.2-0.6-0.2-0.7-0.1c-0.4,0.3-1.4,2.4-2.2,4c-1.9,3.9-2.4,4.7-3.1,4.7
			c-0.3,0-0.5-0.2-0.6-0.5c-0.3-0.8,0.5-3.1,2.4-8.2c1.2-3.3,2.5-7,2.5-7.9c0-1.5-1.1-2.4-1.8-2.5c-0.4,0-0.4,0.2-0.4,0.3
			c-0.1,0.8-4.9,12.7-6.4,12.8c-0.3,0-0.6-0.2-0.7-0.5c-0.4-1.4,2.4-14,3.3-18.1c-0.2-0.5-0.8-1.6-1.7-1.8c-0.5-0.1-1.1,0-1.7,0.5
			c-0.4,0.5-1.6,4.4-2.5,7.6c-2.3,7.7-2.8,9.2-3.6,9.3c-0.3,0-0.5-0.1-0.7-0.4c-0.7-1.2-0.5-6.4-0.2-11.6c0.1-1.1,0.1-1.9,0.1-2.3
			c0-0.9-0.1-1.8-0.6-2.3c-0.3-0.3-0.9-0.3-1.7-0.1c-2.2,0.5-2.9,8.7-3.5,14.7l-0.1,1.3c-0.3,3.8-1.1,7.6-2.2,11.2
			c0,0.1-0.1,0.3-0.3,0.3c-0.1,0.1-0.3,0.1-0.4,0c-3.3-1.5-5-4.1-6.3-6.1c-0.7-1.1-1.3-2.1-2-2.4c-0.9-0.5-1.8-0.6-2.6-0.4
			c-1,0.4-1.7,1.3-1.9,1.8c1.1,1.7,6.8,10.7,7.8,17.9c1.1,7.3,10,10.1,11.1,10c0.3-0.1,0.6,0.1,0.6,0.4c0.1,0.3-0.1,0.6-0.4,0.6
			c-0.7,0.2-3.9-0.7-6.7-2.6c-2.3-1.5-5.1-4.2-5.7-8.3c-1.1-7.6-7.7-17.6-7.8-17.7c-0.1-0.1-0.1-0.3,0-0.5c0-0.1,0.9-2,2.7-2.6
			c1.1-0.4,2.2-0.2,3.4,0.4c0.9,0.5,1.6,1.6,2.4,2.8c1.2,1.8,2.6,4,5.3,5.4c1-3.4,1.7-6.9,2-10.4l0.1-1.3c0.8-8.7,1.6-14.9,4.3-15.6
			c1.1-0.3,2-0.2,2.6,0.3c0.9,0.7,1,1.9,1,3.1c0,0.4,0,1.2-0.1,2.3c-0.1,2.6-0.5,8.2-0.2,10.3c0.7-1.5,1.7-5.1,2.6-8
			c1.6-5.4,2.3-7.7,2.9-8.1c0.9-0.7,1.8-0.9,2.6-0.7c1.6,0.5,2.4,2.5,2.4,2.6c0,0.1,0,0.2,0,0.3c-1.5,6.6-3,13.9-3.3,16.7
			c1.5-2.6,4.8-9.8,5-11.1c0.1-0.8,0.8-1.2,1.6-1.2c1.3,0.1,2.8,1.4,2.8,3.5c0,1.1-1,4-2.6,8.3c-0.7,1.9-1.6,4.3-2,5.9
			c0.4-0.8,1-1.9,1.4-2.7c1.4-2.8,2-4.1,2.5-4.4c0.6-0.4,1.3-0.3,1.9,0.1c0.8,0.6,1.9,2.3,0.3,7.2c-1.7,5-3.2,10.2-4.2,15.5
			C309.6,112.5,304.6,116.5,300.4,116.5z"/>
	</g>
	<g>
		<path class="st3" d="M295.7,102.3c-0.2,0-0.4-0.1-0.5-0.4c-1.2-4-5-6.2-7.9-7.3c-0.3-0.1-0.4-0.4-0.3-0.7c0.1-0.3,0.4-0.4,0.7-0.3
			c3.2,1.3,7.2,3.7,8.6,8c0.1,0.3-0.1,0.6-0.4,0.7C295.8,102.3,295.8,102.3,295.7,102.3z"/>
	</g>
	<g>
		<path class="st3" d="M309.1,95.3c-0.2,0-0.4-0.1-0.5-0.4c-4.1-11.2-15.4-11.4-15.5-11.4c-0.3,0-0.5-0.2-0.5-0.5
			c0-0.3,0.3-0.5,0.5-0.5c0.1,0,12.2,0.3,16.5,12.2c0.1,0.3,0,0.6-0.3,0.7C309.2,95.3,309.1,95.3,309.1,95.3z"/>
	</g>
	<g>
		<path class="st12" d="M190.9,279.3c3.4,7.6,5.6,18.9,4.1,35.9l-17.5,5.2l-22.7,4.3c0,0-11.8-23.3,1.5-35.7c0,0,3.6-12.6,17.4-24.8
			c1.4,0.2,2.7,0.6,3.9,1.1"/>
	</g>
	<g>
		<defs>
			<path id="SVGID_7_" d="M190.9,279.3c3.4,7.6,5.6,18.9,4.1,35.9l-17.5,5.2l-22.7,4.3c0,0-11.8-23.3,1.5-35.7
				c0,0,3.6-12.6,17.4-24.8c1.4,0.2,2.7,0.6,3.9,1.1"/>
		</defs>
		<clipPath id="SVGID_8_">
			<use xlink:href="#SVGID_7_"  style="overflow:visible;"/>
		</clipPath>
		<g class="st18">
			<g class="st7">
				<path class="st14" d="M195,315.2l-10.7,3.2c-1-2.3-1.5-4.8-1.4-7.4c-0.6-17.9-19-22-19-22c7.1-3.7,15.5,3.4,16.6,5.3
					c-1.3-3.3-3.7-10.5,0.1-9.6c5.8,1.4,11.3,12.3,11.3,12.3s-2.8-17.1,0.5-14.1l0,0C194.9,290.4,196.3,300.8,195,315.2z"/>
			</g>
		</g>
	</g>
	<g>
		<path class="st3" d="M154.8,325.3c-0.2,0-0.4-0.1-0.5-0.3c-0.1-0.2-11.8-23.7,1.5-36.3c0.5-1.5,4.5-13.5,17.5-25
			c0.1-0.1,0.3-0.2,0.4-0.1c1.4,0.2,2.8,0.6,4.1,1.2c0.3,0.1,0.4,0.4,0.3,0.7c-0.1,0.3-0.4,0.4-0.7,0.3c-1.1-0.5-2.3-0.9-3.5-1.1
			c-13.4,11.9-17,24.3-17,24.4c0,0.1-0.1,0.2-0.1,0.2c-12,11.2-3,31.8-1.6,34.7l22.3-4.2l17.1-5.1c1.2-14.7-0.1-26.6-4.1-35.3
			c-0.1-0.3,0-0.6,0.3-0.7s0.6,0,0.7,0.3c4.1,9,5.4,21.1,4.1,36.2c0,0.2-0.2,0.4-0.4,0.5l-17.5,5.2L154.8,325.3
			C154.9,325.3,154.9,325.3,154.8,325.3z M195,315.2L195,315.2L195,315.2z"/>
	</g>
	<g>
		<path class="st11" d="M145.1,323.1c-5.3-7.1,0.7-14.1,4.5-19.6c3.8-5.5,6.9-10.7,6.9-10.7s13.3-1,20.4,7.3
			c7.1,8.3,8.4,14.9,5,20.8C178.6,326.8,154.5,335.6,145.1,323.1z"/>
		<path class="st3" d="M159.9,330c-5.1,0-11.2-1.3-15.2-6.6c-5-6.7-0.4-13.3,3.4-18.7c0.4-0.5,0.7-1.1,1.1-1.6
			c3.7-5.4,6.9-10.6,6.9-10.7c0.1-0.1,0.2-0.2,0.4-0.3c0.6,0,13.7-0.9,20.8,7.5c7.1,8.4,8.7,15.2,5.1,21.4
			c-2.1,3.6-11.4,8.2-20.7,8.7C161.2,330,160.5,330,159.9,330z M156.9,293.3c-0.7,1.1-3.5,5.7-6.8,10.5c-0.4,0.5-0.7,1-1.1,1.6
			c-3.8,5.3-8,11.3-3.4,17.4c0,0,0,0,0,0c4.2,5.6,11.1,6.4,16.2,6.1c8.8-0.5,17.9-4.8,19.8-8.2c3.3-5.8,1.8-12.2-5-20.2
			C170.3,293.1,158.8,293.3,156.9,293.3z"/>
	</g>
	<g class="st19">
		<path class="st3" d="M229.6,230.8c-5,5.3-15.5,14-28.2,11.1c1-1.8,2.2-6.2-0.9-14.8h28.3C228.9,228.3,229.2,229.6,229.6,230.8z"/>
	</g>
	<g>
		<path class="st11" d="M245.1,179.3c0,0,4.2-3.3,6.3-1.2c2.1,2.2,1.1,16.5,0.7,18c-0.4,1.6-1,0.8-2.7,6c-1.7,5.2-3.3,3.4-3.8,0.7"
			/>
		<path class="st3" d="M247.1,206.1C247.1,206.1,247.1,206.1,247.1,206.1c-1-0.1-1.8-1.2-2.1-3.1c-0.1-0.3,0.1-0.6,0.4-0.6
			c0.3-0.1,0.6,0.1,0.6,0.4c0.3,1.5,0.8,2.2,1.1,2.2c0,0,0.8,0,1.7-3c1.1-3.4,1.7-4.3,2.2-5c0.2-0.3,0.4-0.6,0.5-1.1
			c0.4-1.5,1.3-15.6-0.6-17.5c-1.7-1.8-5.5,1.2-5.6,1.2c-0.2,0.2-0.6,0.1-0.7-0.1c-0.2-0.2-0.1-0.6,0.1-0.7c0.2-0.1,4.6-3.6,7-1.1
			c2.4,2.5,1.2,17.1,0.8,18.5c-0.2,0.7-0.4,1-0.7,1.4c-0.4,0.6-1,1.5-2,4.7C249.1,204.9,248.2,206.1,247.1,206.1z"/>
	</g>
	<g>
		<path class="st11" d="M171.8,192.9c0,0-5.1-1.6-6.3,1.2c-1.2,2.8,4.9,15.8,5.8,17.1s1.2,0.4,4.7,4.7c3.5,4.3,4.3,2,3.8-0.7"/>
		<path class="st3" d="M179,218.7c-0.9,0-2-0.8-3.4-2.6c-2.2-2.6-3-3.3-3.6-3.7c-0.4-0.3-0.7-0.5-1.1-1c-0.9-1.2-7.3-14.4-5.9-17.6
			c1.4-3.2,6.7-1.5,6.9-1.5c0.3,0.1,0.4,0.4,0.3,0.7c-0.1,0.3-0.4,0.4-0.7,0.3c0,0-4.6-1.4-5.6,0.9c-1.1,2.5,4.8,15.3,5.8,16.5
			c0.3,0.4,0.5,0.6,0.9,0.8c0.6,0.4,1.6,1.1,3.8,3.9c2,2.5,2.7,2.2,2.7,2.2c0.3-0.1,0.5-0.9,0.2-2.4c-0.1-0.3,0.1-0.6,0.4-0.6
			c0.3-0.1,0.6,0.1,0.6,0.4c0.2,0.9,0.4,3-0.8,3.6C179.4,218.7,179.2,218.7,179,218.7z"/>
	</g>
	<g>
		<path class="st11" d="M200.7,142.6c28.6-5.3,38.9,17.5,43.6,40.9c7.6,37.6-8.7,45.3-27.8,48.8c-19.5,3.6-32.9,5.4-43.1-37
			C167.9,172.6,172.6,147.8,200.7,142.6z"/>
		<path class="st3" d="M203,234.5c-4.1,0-8.1-0.8-11.7-3c-7.7-4.8-13.6-16.3-18.4-36.1c-3.7-15.3-2.3-29,3.9-38.6
			c5-7.8,13-12.7,23.8-14.7l0,0c23.3-4.3,37.8,9.2,44.3,41.3c3.3,16.5,2.3,28.3-3.1,36.3c-5.8,8.5-15.9,11.4-25.1,13.1
			C211.9,233.6,207.3,234.5,203,234.5z M208.8,142.3c-2.6,0-5.2,0.3-8.1,0.8l0,0c-10.4,1.9-18.2,6.7-23.1,14.2
			c-6.1,9.4-7.4,22.8-3.8,37.8c10.3,42.6,23.8,40.1,42.5,36.6c9-1.7,18.9-4.5,24.4-12.7c5.2-7.7,6.2-19.3,2.9-35.5
			C238.2,155.6,227,142.3,208.8,142.3z M200.7,142.6L200.7,142.6L200.7,142.6z"/>
	</g>
	<g>
		<path class="st3" d="M183.3,183c-0.1,0-0.2,0-0.3-0.1c-0.3-0.1-0.3-0.5-0.2-0.7c5.9-10.6,14.5-7.7,14.6-7.7
			c0.3,0.1,0.4,0.4,0.3,0.7s-0.4,0.4-0.7,0.3c-0.3-0.1-7.9-2.6-13.4,7.2C183.7,182.9,183.5,183,183.3,183z"/>
	</g>
	<g>
		<path class="st3" d="M231.7,174c-0.1,0-0.2,0-0.3-0.1c-8.2-6.9-15.9-2.4-16-2.4c-0.3,0.2-0.6,0.1-0.7-0.2
			c-0.2-0.3-0.1-0.6,0.2-0.7c0.1,0,8.5-4.9,17.3,2.5c0.2,0.2,0.3,0.5,0.1,0.7C232,173.9,231.8,174,231.7,174z"/>
	</g>
	<g>
		<path class="st3" d="M197.1,189.1c0.4,2.3-0.5,4.4-2,4.7c-1.6,0.3-3.1-1.4-3.5-3.7s0.5-4.4,2-4.7
			C195.1,185.1,196.6,186.7,197.1,189.1z"/>
	</g>
	<g>
		<path class="st3" d="M225.5,183.8c0.4,2.3-0.5,4.4-2,4.7c-1.6,0.3-3.1-1.4-3.5-3.7s0.5-4.4,2-4.7
			C223.5,179.8,225.1,181.4,225.5,183.8z"/>
	</g>
	<g>
		<path class="st3" d="M240,152.5c-4.8-7.2-12.4-12.1-21-13.3c-11.8-6-30.1-2-44.6,8.3s-7.4,31.1-7.2,32.6
			c1.1,8.6,7.4,19.9,7.4,19.9s0.7-18.7,2.7-24.7c0.5-7.7,4.6-15.8,4.6-15.8c-1.2,3-0.9,8.3-0.6,11.7c0.7-0.5,1.4-1,2.1-1.4
			c0,0,1.5-0.9,4-2.2c0.5-3,1.6-7.8,4.7-10c-1.7,2.7-2.7,5.8-2.6,9c3.8-1.8,7.8-3.1,12-4.1l1.7-0.4c0.8-1.2,1.6-2.4,2.5-3.5
			c2.7-3.2,3.2-5.1,3.2-5.1s0.8,1.5-3.6,8.2c1.9-0.3,3.8-0.5,5.7-0.4c2-3.2,3.2-6.9,3.6-10.7c0.2,3.7-0.5,7.4-1.9,10.8
			c3.1-2.7,5.1-12.1,5.1-12.1c9.5,0.4,11.5,7.7,12.8,10c1.3,2.3,4.5,4.7,6.8,9.4c2.3,4.7,7.7,20,7.7,20S248,164.6,240,152.5z"/>
	</g>
	<g>
		<path class="st3" d="M239.6,195.1c-0.2,0-0.3-0.1-0.4-0.2c-0.2-0.2-0.1-0.6,0.1-0.7c0.1,0,3.4-2.6,5.8-13.7
			c0.1-0.3,0.3-0.5,0.6-0.4c0.3,0.1,0.5,0.3,0.4,0.6c-2.6,11.6-6.1,14.2-6.3,14.3C239.8,195,239.7,195.1,239.6,195.1z"/>
	</g>
	<g>
		<path class="st3" d="M182.9,205.5c0,0-0.1,0-0.1,0c-0.3-0.1-6.4-1.5-9.9-10.1c-0.1-0.3,0-0.6,0.3-0.7c0.3-0.1,0.6,0,0.7,0.3
			c3.3,8.1,9.1,9.4,9.1,9.4c0.3,0.1,0.5,0.3,0.4,0.6C183.4,205.4,183.2,205.5,182.9,205.5z"/>
	</g>
	<g>
		<path class="st14" d="M180.2,204.1c0,0,22.8-11.5,28.7-12.9s32.9,1.5,32.9,1.5s1.1,25.9-2.7,32c-3.9,6.1-29.3,14.2-44.3,8.9
			C190.8,232.1,180.2,204.1,180.2,204.1z"/>
		<path class="st3" d="M206.2,235.8c-4.2,0-8.1-0.5-11.6-1.8c-4.1-1.4-13.8-26.8-14.9-29.7c-0.1-0.3,0-0.5,0.3-0.7
			c0.9-0.5,22.9-11.5,28.8-13c5.9-1.5,32,1.3,33.1,1.5c0.3,0,0.5,0.2,0.5,0.5c0,1.1,1.1,26.1-2.8,32.3
			C236.6,229.6,220.4,235.8,206.2,235.8z M180.9,204.4c4.3,11.2,11.4,27.7,14.1,28.6c14.9,5.3,40-2.8,43.7-8.7
			c3.5-5.5,2.8-27.7,2.7-31.2c-3.6-0.4-27-2.8-32.3-1.4C203.7,193,184,202.8,180.9,204.4z"/>
	</g>
	<g>
		<path class="st3" d="M273.4,165.5c0,0-0.2-0.7-0.6-2c-2.1-4.7-5.6-11.6-9.4-15.7c2.2,1.9,4.2,4.1,5.9,6.4
			c-3.3-7.4-8.6-15.6-15.5-15.3c-12.4,0.6-22.6,16.4-22.6,16.4l3.7,4.1l0,0l1,1.1c0,0,8.6-8.2,13.9-6s11.9,24.6,11.9,24.6
			c0.6-4,0.5-8-0.4-11.9c2.8,5.8,4.8,11.1,4.8,11.1c1.9-1.2,3.6-2.7,4.8-4.6c-1-4.4-2.6-10.1-5.3-13.9c0,0,3.7,2.8,6.9,10.6
			C273.2,168.8,273.5,167.2,273.4,165.5z"/>
	</g>
	<g>
		<path class="st3" d="M141.2,190.1c0,0-0.1-0.8-0.2-2c0.3-5.1,1.1-12.8,3.1-18c-1.4,2.6-2.5,5.3-3.2,8.1c0.4-8.1,2.4-17.7,8.9-19.8
			c11.8-3.9,27,7.2,27,7.2l-2,5.2l0,0l-0.5,1.4c0,0-11-4.5-15.2-0.7c-4.2,3.9-2.3,27.2-2.3,27.2c-2-3.5-3.3-7.3-3.9-11.3
			c-0.5,6.4-0.5,12.1-0.5,12.1c-2.2-0.4-4.3-1.3-6.1-2.6c-0.7-4.5-1.2-10.4,0-14.8c0,0-2.4,3.9-2.6,12.3
			C142.6,193.1,141.8,191.7,141.2,190.1z"/>
	</g>
	<g>
		<path class="st3" d="M439.2,315.6H49.9c-0.3,0-0.5-0.2-0.5-0.5s0.2-0.5,0.5-0.5h389.2c0.3,0,0.5,0.2,0.5,0.5
			S439.5,315.6,439.2,315.6z"/>
	</g>
	<g>
		<path class="st11" d="M165.8,305.1c0,0,44.6,8.8,55.7,7.7c11.1-1,24.4-8.1,29.5-5.8c5.1,2.3,12.2,15.1,13.3,17
			c1.1,1.9-5.8,5.7-9.6,5.5c-2.4-0.3-4.7-1-6.8-2.2c0,0-3.5,7.6-22.6,1.6c0,0-60.5,11.4-75.7-1c-9.6-7.7-6.8-14.8,0.4-19"/>
		<path class="st3" d="M178.1,334.3c-12.1,0-23.3-1.4-28.8-5.9c-4.5-3.6-6.6-7.3-6.3-11c0.3-3.4,2.6-6.5,6.7-8.9
			c0.3-0.1,0.6-0.1,0.7,0.2c0.1,0.3,0.1,0.6-0.2,0.7c-3.8,2.2-6,5.1-6.2,8.1c-0.2,3.2,1.8,6.7,5.9,10.1c14.9,12.1,74.7,1,75.3,0.9
			c0.1,0,0.2,0,0.3,0c18.3,5.7,21.9-1.2,21.9-1.3c0.1-0.1,0.2-0.2,0.3-0.3c0.1,0,0.3,0,0.4,0c2,1.1,4.3,1.8,6.6,2.1
			c3,0.1,7.9-2.3,9-4c0.3-0.4,0.1-0.6,0.1-0.7c-0.1-0.2-0.2-0.4-0.4-0.7c-5.4-9.3-9.6-14.7-12.6-16.1c-2.7-1.2-8.3,0.5-14.2,2.3
			c-4.7,1.4-10.1,3.1-15,3.6c-11,1.1-54-7.4-55.9-7.7c-0.3-0.1-0.5-0.3-0.4-0.6c0.1-0.3,0.3-0.5,0.6-0.4c0.4,0.1,44.7,8.7,55.6,7.7
			c4.8-0.5,10.1-2.1,14.8-3.5c6.4-1.9,11.9-3.6,14.9-2.2c4.8,2.2,11.1,13,13.1,16.5c0.2,0.3,0.3,0.6,0.4,0.7
			c0.2,0.4,0.4,0.9-0.1,1.7c-1.3,2.2-6.8,4.7-10,4.5c-2.3-0.3-4.5-0.9-6.5-2c-1.2,1.6-6.2,6.6-22.8,1.4
			C222.9,330,199.1,334.3,178.1,334.3z"/>
	</g>
	<g>
		<path class="st3" d="M247.9,327.9c-0.2,0-0.4-0.1-0.5-0.3c0-0.1-0.7-1.5,0-3c0.6-1.3,2-2.3,4.1-3c0.4-0.9,2.1-4.8,1.5-6.9
			c-0.1-0.3,0.1-0.6,0.4-0.7c0.3-0.1,0.6,0.1,0.7,0.4c0.8,2.8-1.5,7.7-1.6,7.9c-0.1,0.1-0.2,0.2-0.3,0.3c-2,0.6-3.2,1.4-3.7,2.5
			c-0.5,1.1,0,2.1,0,2.1c0.1,0.3,0,0.6-0.2,0.7C248.1,327.9,248,327.9,247.9,327.9z"/>
	</g>
	<g>
		<path class="st3" d="M256.8,325.1c-3,0-5.1-2.6-5.2-2.7c-0.2-0.2-0.2-0.6,0.1-0.7c0.2-0.2,0.6-0.2,0.7,0.1c0,0,2.4,2.9,5.3,2.3
			c0.3-0.1,0.6,0.1,0.6,0.4c0.1,0.3-0.1,0.6-0.4,0.6C257.5,325.1,257.1,325.1,256.8,325.1z"/>
	</g>
	<g>
		<path class="st3" d="M225.4,329.5c-0.1,0-0.2,0-0.3-0.1c-0.2-0.2-0.3-0.5-0.1-0.7c0,0,1.1-1.5-0.1-5.4c-0.1-0.3,0.1-0.6,0.4-0.7
			c0.3-0.1,0.6,0.1,0.7,0.4c1.4,4.5,0,6.3-0.1,6.3C225.7,329.4,225.5,329.5,225.4,329.5z"/>
	</g>
	<g class="st10">
		<g>
			<path class="st0" d="M199.6,158.8c-0.1,0-0.3-0.1-0.4-0.2c-0.2-0.2-0.2-0.5,0-0.8c4.7-4.6,8-10.4,9.6-16.8
				c0.1-0.3,0.4-0.5,0.6-0.4c0.3,0.1,0.5,0.4,0.4,0.6c-1.6,6.6-5,12.5-9.9,17.3C199.8,158.8,199.7,158.8,199.6,158.8z"/>
		</g>
		<g>
			<path class="st0" d="M211.1,156.6c-0.1,0-0.1,0-0.2,0c-0.3-0.1-0.4-0.4-0.3-0.7c2.6-6.1,2.3-14.4,2.3-14.5c0-0.3,0.2-0.5,0.5-0.6
				c0.3,0,0.5,0.2,0.6,0.5c0,0.4,0.3,8.7-2.4,15C211.5,156.4,211.3,156.6,211.1,156.6z"/>
		</g>
		<g>
			<path class="st0" d="M185.5,163.3c0,0-0.1,0-0.1,0c-0.3-0.1-0.4-0.4-0.4-0.7c1.7-6.1,6.5-10.1,10.8-13.7c2.7-2.2,5-4.1,6-6.2
				c0.1-0.3,0.5-0.4,0.7-0.2c0.3,0.1,0.4,0.5,0.2,0.7c-1.1,2.2-3.5,4.2-6.3,6.5c-4.1,3.4-8.9,7.3-10.4,13.1
				C185.9,163.1,185.7,163.3,185.5,163.3z"/>
		</g>
		<g>
			<path class="st0" d="M175.1,164.9C175.1,164.9,175.1,164.9,175.1,164.9c-0.3,0-0.5-0.3-0.5-0.6c0.7-10.7,13.6-18.6,14.1-18.9
				c0.3-0.2,0.6-0.1,0.7,0.2c0.2,0.3,0.1,0.6-0.2,0.7c-0.5,0.3-12.9,7.8-13.6,18C175.6,164.7,175.4,164.9,175.1,164.9z"/>
		</g>
	</g>
	<g>
		<path class="st3" d="M223.4,308c-0.2,0-0.4-0.1-0.5-0.3c-0.1-0.3,0-0.6,0.2-0.7c28.4-15.7,34.1-53.1,34.1-53.5
			c0-0.3,0.3-0.5,0.6-0.4c0.3,0,0.5,0.3,0.4,0.6c-0.1,0.4-5.8,38.4-34.7,54.3C223.5,308,223.5,308,223.4,308z"/>
	</g>
	<g>
		<path class="st3" d="M280.4,180.9c-0.5,0-1-0.1-1.4-0.3c-0.3-0.1-0.4-0.5-0.2-0.7c0.1-0.3,0.5-0.4,0.7-0.2
			c1.6,0.9,7.5-1.8,10.8-3.7c0.3-0.1,0.6-0.1,0.7,0.2c0.1,0.3,0.1,0.6-0.2,0.7C290.1,177.4,283.8,180.9,280.4,180.9z"/>
	</g>
	<g>
		<path class="st8" d="M277.2,341.4l-9.2-15.1c0,0,33.5-2.8,39.8-5.4c6.3-2.5,19.4,3.1,19.4,3.1s7.8-6.6,18.4-5.2
			c16.5,2.1,34,2.2,36.1,2.4l19.7,12.6c0,0-46.4,1.9-58,6.9l-8,1.3C335.4,341.9,301.6,340.4,277.2,341.4z"/>
		<path class="st3" d="M335.4,342.4C335.4,342.4,335.4,342.4,335.4,342.4c-0.4,0-34.1-1.5-58.2-0.5c-0.2,0-0.4-0.1-0.5-0.3
			l-9.2-15.1c-0.1-0.2-0.1-0.4,0-0.5c0.1-0.2,0.2-0.3,0.4-0.3c0.3,0,33.5-2.8,39.7-5.3c6-2.4,17.4,2.1,19.5,3
			c1.5-1.1,8.8-6.4,18.5-5.1c13,1.7,26.4,2.1,32.8,2.2c1.7,0,2.8,0.1,3.3,0.1c0.1,0,0.2,0,0.2,0.1l19.7,12.6
			c0.2,0.1,0.3,0.4,0.2,0.6c-0.1,0.2-0.3,0.4-0.5,0.4c-0.5,0-46.4,1.9-57.8,6.9c0,0-0.1,0-0.1,0L335.4,342.4
			C335.5,342.4,335.4,342.4,335.4,342.4z M296.6,340.5c19.1,0,37.6,0.8,38.8,0.8l7.9-1.2c10.5-4.5,47.9-6.5,56.4-6.9l-18.2-11.6
			c-0.5,0-1.6-0.1-3.1-0.1c-6.4-0.2-19.9-0.6-32.9-2.3c-10.2-1.3-17.9,5-18,5.1c-0.2,0.1-0.4,0.2-0.6,0.1c-0.1-0.1-12.9-5.5-19-3.1
			c-5.9,2.3-33.7,4.9-39.1,5.3l8.6,14.1C283.5,340.6,290.1,340.5,296.6,340.5z"/>
	</g>
	<g>
		<path class="st0" d="M270.4,324.7l8.4,14.1c0,0,44.7-2.9,56.7,1.3l4.3-1.3c0,0,18.1-7.5,51.4-6.7L375,318.2
			c0,0-32.1-16.8-48.1,0.4c0,0-3.2-3.6-18.5-5.9S270.4,324.7,270.4,324.7z"/>
		<path class="st3" d="M335.5,340.6c-0.1,0-0.1,0-0.2,0c-11.7-4.1-56.1-1.3-56.5-1.2c-0.2,0-0.4-0.1-0.5-0.3L270,325
			c-0.1-0.2-0.1-0.6,0.2-0.7c0.9-0.6,23.1-14.3,38.4-12.1c12.6,1.9,17.1,4.6,18.4,5.7c16.2-16.7,48.1-0.3,48.4-0.1
			c0,0,0.1,0,0.1,0.1l16.2,13.9c0.2,0.1,0.2,0.4,0.2,0.6c-0.1,0.2-0.3,0.3-0.5,0.3c0,0,0,0,0,0c-32.8-0.8-51,6.6-51.2,6.6l-4.4,1.3
			C335.6,340.6,335.6,340.6,335.5,340.6z M309.1,337.2c10.7,0,21.3,0.5,26.5,2.2l4.2-1.2c0.1-0.1,17.9-7.3,50.1-6.7l-15.1-12.9
			c-1.5-0.7-32.2-16.1-47.4,0.3c-0.1,0.1-0.2,0.2-0.4,0.2c-0.2,0-0.3-0.1-0.4-0.2c0,0-3.4-3.5-18.2-5.7c-13.8-2-34,9.7-37.2,11.6
			l8,13.3C281.5,338.1,295.4,337.2,309.1,337.2z"/>
	</g>
	<g>
		<path class="st3" d="M336.8,334.3C336.8,334.3,336.8,334.3,336.8,334.3c-0.2,0-0.4-0.1-0.4-0.2l-9.9-15.1
			c-0.2-0.2-0.1-0.6,0.2-0.7c0.2-0.2,0.6-0.1,0.7,0.2l9.6,14.6c1.9-1.5,9.5-6.6,22.9-8c9.5-0.9,19,0.8,27.6,4.9
			c0.3,0.1,0.4,0.4,0.3,0.7c-0.1,0.3-0.4,0.4-0.7,0.3c-8.4-4-17.8-5.7-27-4.8c-15,1.5-22.7,8.1-22.8,8.1
			C337.1,334.2,336.9,334.3,336.8,334.3z"/>
	</g>
	<g>
		<path class="st0" d="M336.8,333.7c0,0-7.1-4.2-22.1-6.3c-14.9-2.2-32.2,8.7-32.2,8.7"/>
		<path class="st3" d="M282.6,336.6c-0.2,0-0.3-0.1-0.4-0.2c-0.2-0.2-0.1-0.6,0.2-0.7c0.2-0.1,17.6-10.9,32.5-8.8
			c14.9,2.2,22,6.2,22.3,6.4c0.3,0.1,0.3,0.5,0.2,0.7c-0.1,0.3-0.5,0.3-0.7,0.2c-0.1,0-7.3-4.1-21.9-6.3
			c-14.6-2.1-31.6,8.5-31.8,8.6C282.8,336.6,282.7,336.6,282.6,336.6z"/>
	</g>
	<g>
		<path class="st3" d="M336.8,336.4c-0.1,0-0.1,0-0.2,0c-0.1,0-7.2-3.2-19.8-4.3c-8.3-0.5-16.5,0.5-24.4,3.2
			c-0.3,0.1-0.6-0.1-0.7-0.3c-0.1-0.3,0.1-0.6,0.3-0.7c8-2.7,16.3-3.8,24.8-3.3c11.7,1,18.6,3.7,19.9,4.3c2.5-1.1,25.4-11,43-5.5
			c0.3,0.1,0.4,0.4,0.3,0.7c-0.1,0.3-0.4,0.4-0.7,0.3c-18.1-5.7-42.2,5.5-42.4,5.6C337,336.4,336.9,336.4,336.8,336.4z"/>
	</g>
	<g>
		<path class="st0" d="M332.2,337.2c1.1-1.4,2.8-2.2,4.6-2.2c3.1,0,3.1,2.2,3.1,2.2"/>
		<path class="st3" d="M332.2,337.7c-0.1,0-0.2,0-0.3-0.1c-0.2-0.2-0.3-0.5-0.1-0.7c1.2-1.5,3.1-2.4,5-2.4h0c1.3,0,2.2,0.3,2.9,1
			c0.7,0.7,0.7,1.6,0.7,1.7c0,0.3-0.3,0.5-0.5,0.5c-0.3,0-0.5-0.3-0.5-0.5c0,0,0-0.5-0.4-1c-0.5-0.5-1.3-0.6-2.3-0.7
			c-1.6,0-3,0.7-4,2C332.6,337.6,332.4,337.7,332.2,337.7z"/>
	</g>
</g>
<ellipse transform="matrix(0.7386 -0.6741 0.6741 0.7386 -9.2114 50.4072)" class="st14" cx="60.4" cy="37.1" rx="12.7" ry="12.7"/>
<ellipse transform="matrix(0.7386 -0.6741 0.6741 0.7386 -32.6138 49.6326)" class="st14" cx="47.7" cy="66.9" rx="6.4" ry="6.4"/>
<ellipse transform="matrix(0.752 -0.6592 0.6592 0.752 -79.6534 449.9772)" class="st8" cx="558.1" cy="330.8" rx="12.7" ry="12.7"/>
<ellipse transform="matrix(0.752 -0.6592 0.6592 0.752 -102.4157 448.5368)" class="st8" cx="544.8" cy="360.4" rx="6.4" ry="6.4"/>
</svg>
