<svg width="36" height="36" viewBox="0 0 36 36" fill="none" xmlns="http://www.w3.org/2000/svg">
<rect width="36" height="36" fill="#FFF3E0"/>
<path d="M21.6577 8L22.1276 9.26984L23.3974 9.73972L22.1276 10.2096L21.6577 11.4794L21.1878 10.2096L19.918 9.73972L21.1878 9.26984L21.6577 8Z" fill="#EA1B4A"/>
<path d="M7.73972 20.9237L8.2096 22.1935L9.47944 22.6634L8.2096 23.1333L7.73972 24.4031L7.26984 23.1333L6 22.6634L7.26984 22.1935L7.73972 20.9237Z" fill="#EA1B4A"/>
<path d="M22.9004 10.4854L23.1689 11.211L23.8945 11.4795L23.1689 11.748L22.9004 12.4736L22.6319 11.748L21.9062 11.4795L22.6319 11.211L22.9004 10.4854Z" fill="#EA1B4A"/>
<path d="M8.98241 23.4091L9.25091 24.1347L9.97653 24.4032L9.25091 24.6717L8.98241 25.3973L8.7139 24.6717L7.98828 24.4032L8.7139 24.1347L8.98241 23.4091Z" fill="#EA1B4A"/>
<path d="M10.1054 16.7654C10.3988 15.5541 11.3512 14.705 12.5597 14.3398L18.6025 12.5138C19.811 12.1485 21.0743 12.3281 21.9894 13.1742C25.3938 16.0745 27.5449 21.3743 26.2754 22.9927C25.006 24.6112 19.8882 20.7693 17.9747 21.3475C16.0611 21.9258 14.0283 27.9286 11.9743 27.3144C10.0209 26.6698 8.87696 21.0657 10.1054 16.7654V16.7654ZM19.1496 17.9614L20.1568 17.6571L20.4676 18.6858L21.4747 18.3814L21.1639 17.3527L22.171 17.0484L21.8601 16.0197L20.853 16.3241L20.5422 15.2954L19.535 15.5998L19.8459 16.6284L18.8388 16.9328L19.1496 17.9614ZM13.8666 20.1192C14.022 20.6336 14.5492 20.9233 15.0528 20.7711C15.5563 20.6189 15.8348 20.0857 15.6794 19.5714C15.524 19.0571 14.9968 18.7673 14.4932 18.9195C13.9897 19.0717 13.7112 19.6049 13.8666 20.1192ZM11.3313 18.6401C11.4868 19.1545 12.014 19.4442 12.5175 19.292C13.0211 19.1399 13.2996 18.6067 13.1442 18.0923C12.9887 17.578 12.4615 17.2883 11.958 17.4404C11.4544 17.5926 11.1759 18.1258 11.3313 18.6401Z" fill="#F7B026"/>
</svg>
