<svg id="Layer_1" data-name="Layer 1" xmlns="http://www.w3.org/2000/svg" viewBox="0 0 207 207">
  <title>Pragati_Web_Icons</title>
  <rect width="207" height="207" style="fill: #ffc840"/>
  <rect x="21.5" y="21.5" width="164" height="164.02" rx="17.5" ry="17.5" style="fill: #fff"/>
  <g>
    <ellipse cx="103.5" cy="157.1" rx="63.5" ry="14.2" style="fill: #e6e6e6"/>
    <g>
      <path d="M132.6,153a7.2,7.2,0,0,0-.6-5.4l-7.7-15.3-6.4-13.1c-.2-.4-.8-.9-.5-1.3s.8.1,1.3.2a24.6,24.6,0,0,0,12.4-.7,17.2,17.2,0,0,0,4-2,22,22,0,0,1,8.8-3.6,24.8,24.8,0,0,1,4.8-.4c.2,0,.5.2.7-.2s.7.3,1,.5A23.3,23.3,0,0,1,159,127a23,23,0,0,1-1.5,11.9,22.5,22.5,0,0,1-5.3,7.9,23,23,0,0,1-14.2,6.6,35,35,0,0,1-4.4,0A1.1,1.1,0,0,1,132.6,153Z" style="fill: #2da9e1"/>
      <path d="M130.6,148.6l-2.5-4.9-3.8-7.6a2.4,2.4,0,0,0-.5-.9.5.5,0,0,0-.2-.4l-.9-1.7-1.1-2.2L114.4,116l-5.8-11.7a7.1,7.1,0,0,1-.8-3.5c.1-3.4,0-6.7,0-10.1V68.3c0-1.7,0-1.7,1.7-1.8a2,2,0,0,0,2.2-2.2c0-2.1,0-4.2,0-6.3s-.7-2.3-2.3-2.3H81.8a1.8,1.8,0,0,0-2.1,1.4c0,1.7-.4,3.4.2,5a.5.5,0,0,1-.1.4,2.8,2.8,0,0,0-.2,1.6c0,.4.2.4.5.2s.5-.6,1-.7-.4.6-.7.9a.8.8,0,0,0-.2.8,2,2,0,0,0,1.6,1.1,5,5,0,0,1,1.6.1q0,17.8,0,35.5a2.1,2.1,0,0,1-.2.9l-8.5,17.1-.4.9-1.5,3-2,4c-.6,1.3-1.3,2.5-1.9,3.8l-.4.8-4.7,9.5c-1.2,2.3-2.3,4.6-3.4,7a4.5,4.5,0,0,0,1.1,5.2,4.9,4.9,0,0,0,3.6,1.3h61.4A4.7,4.7,0,0,0,130.6,148.6Zm-3.8,3.9a4.4,4.4,0,0,1-1.4.1H64.6a1.7,1.7,0,0,1-1.4-2.1,6.2,6.2,0,0,1,.5-1.3l7-14.1a.9.9,0,0,0,.1-.4h-.1c.3-.1.4-.3.3-.7h.2c.7-1.2,1.2-2.5,1.9-3.7a.4.4,0,0,0,0-.3h.2c.8-1.4,1.4-2.8,2.1-4.2a.9.9,0,0,0,.1-.7h.2c.7-1,1.1-2.2,1.7-3.3a.6.6,0,0,0,0-.3c.3-.1.3-.4.2-.6H78a3.3,3.3,0,0,0,.6-.9L86.3,104a3.7,3.7,0,0,0,.4-1.5v-.2q0-18.7,0-37.4c0-.1,0-.2,0-.3s-.3-1.1-1.1-1.1H83.5c-.5,0-.8-.2-.8-.8s0-2.1,0-3.1.3-.8.8-.8h24.4a.6.6,0,0,1,.7.7c0,1.1,0,2.1,0,3.2s-.3.8-.8.8h-2c-1,0-1.2.2-1.2,1.2s0,2.1,0,3.2-.1.9-1,1h-2.2a1.3,1.3,0,0,0-1.2.8,1.2,1.2,0,0,0,1.2,1.8H104c.5,0,.7.2.7.7s0,2.1,0,3.2-.3.7-.7.7h-2.3c-1,0-1.4.4-1.5,1.1s.2,1.1,1.2,1.4h2.5c.6,0,.9.2.9.8s0,1.7,0,2.6-.3.9-.9.8h-2.2c-1,.1-1.5.7-1.5,1.4s.6,1.1,1.5,1.1h2.2c.5,0,.8.2.8.7s0,2,0,3.1-.2.8-.8.8a17.3,17.3,0,0,0-2.5.2c-.9.1-1.3.5-1.3,1.2s.5,1.2,1.4,1.2h2.2c.9,0,1,.1,1,.9,0,3,0,6,0,9a4.5,4.5,0,0,0,.8,2.4l11.2,22.5c1.4,2.8,2.8,5.5,4.1,8.3a3.8,3.8,0,0,0,.7,1.2h0l.6.4h.4l.6-.4a.5.5,0,0,1-.6.4h-.5s-.1.1-.1.2a1.7,1.7,0,0,0,.2.6l4.6,9.3c.5.9.9,1.8,1.3,2.8A1.6,1.6,0,0,1,126.9,152.6Z" style="fill: #123d69"/>
      <path d="M123,137a.5.5,0,0,1-.6.4Z" style="fill: #123d67"/>
      <path d="M66.2,133.8l-5.3,10.7c-.7,1.4-1.4,2.7-2,4.1a7.3,7.3,0,0,0-.3,4c-.4.3-.7,0-.9-.2a5.5,5.5,0,0,1-2.1-4.1,8.8,8.8,0,0,1,0-.9q0-22.7,0-45.4a2.4,2.4,0,0,1,.2-1.5,1.6,1.6,0,0,1,1-.2h8.4a1.8,1.8,0,0,1,1,.2c.6,1.1.2,1.8-1,1.8H63.5c-.3,0-.6.2-.6.5s.3.6.6.6h1.9c.6,0,.9.3,1,.9s0,1.8,0,2.7-.3.9-1,1H63.6c-.4,0-.8.1-.8.5s.4.6.8.6h1.7c.8,0,1,.2,1,1s0,.6,0,.9c0,6.8,0,13.6,0,20.4A8.8,8.8,0,0,1,66.2,133.8Z" style="fill: #e94e1b"/>
      <path d="M66.2,133.8c0-3.2,0-6.3,0-9.5q0-7,0-14c0-.7-.2-1-.9-.9H63.5c-.6,0-1-.3-1-.8s.4-.9,1-.9h2c.5,0,.6-.2.6-.6s0-1.9,0-2.9-.1-.6-.6-.6h-2c-.6,0-1-.2-1.1-.8s.4-.9,1.1-.9h1.6c.7.1,1-.2.9-.9v-.5a2.5,2.5,0,0,1-.2-1.5c0-.6-.2-.8-.8-.8H63.5c-.8-.1-1.2-.5-1.2-1.1s.5-.9,1.2-1h1.7c.5,0,.7-.2.7-.7s0-1.5,0-2.3-.2-.7-.7-.7H63.6a1.1,1.1,0,0,1-1.2-.8,1,1,0,0,1,.5-1.2h2.3a.6.6,0,0,0,.7-.7c0-.6,0-1.1,0-1.7s.3-1.2,1.2-1.3h.6c.3,0,.7.2.8-.1a1.6,1.6,0,0,0,0-1.3c-.1-.3-.3-.3-.6-.3H54.3c-.4,0-1-.1-1.1.6s.1,1.1.9,1.1,1.8,0,1.8,1.9q0,5.4,0,10.8a2.4,2.4,0,0,1-.1,1.1c0,.3-.1.5-.1.8q0,21.2,0,42.4c0,1.5,0,3,0,4.4a5.1,5.1,0,0,0,2.1,4.2c.2.1.3.3.6.3a7.7,7.7,0,0,0,1.9,3.1,3.4,3.4,0,0,1-1.5-.2,7.4,7.4,0,0,1-5.4-7.3q0-14,0-28t0-28c0-.7-.1-1.4,0-2.1s-.2-.6-.6-.6h-.9a1.2,1.2,0,0,1-1.3-1.3q0-2.3,0-4.5a1.1,1.1,0,0,1,1.2-1.2H69.5c1.5,0,1.8.3,1.8,1.8s0,2.5,0,3.7a1.3,1.3,0,0,1-1.4,1.4c-1.4.1-1.4.1-1.4,1.5q0,16.1,0,32.2c0,.2,0,.4,0,.6a5.5,5.5,0,0,1-1.2,1.5,1.9,1.9,0,0,0-.4,2.3,1.9,1.9,0,0,1,.1,1.9,1.3,1.3,0,0,0,0,1.2c.1.2.3.5.2.8Z" style="fill: #123d69"/>
      <path d="M123,137a.5.5,0,0,1-.6.4Z" style="fill: #123d68"/>
      <path d="M141.4,54.6a2.7,2.7,0,0,1,2.7,2.7,2.7,2.7,0,1,1-5.4,0A2.6,2.6,0,0,1,141.4,54.6Z" style="fill: #2daae0"/>
      <path d="M52.3,71A2.7,2.7,0,0,1,55,68.3a2.7,2.7,0,0,1,0,5.4A2.7,2.7,0,0,1,52.3,71Z" style="fill: #e94e1b"/>
      <path d="M158.5,142.1a25.7,25.7,0,0,1-27.2,13.3,11.3,11.3,0,0,0,1.4-2.3,23.1,23.1,0,0,0,24.2-32.7,22.9,22.9,0,0,0-6.8-8.5l-.6-.4a24,24,0,0,0-7.1-3.5.8.8,0,0,1-.6-.9c0-2,0-3.9,0-5.9,0-.4-.1-.6-.6-.6H139a.9.9,0,0,1-1.3-.4.8.8,0,0,1,.3-1.3,7,7,0,0,1,2.9-.2c.6,0,.8-.2.8-.8s0-2.1,0-3.1-.1-.6-.6-.6h-2.3c-.6,0-1.1-.3-1.1-.9s.4-.9,1.1-.9h2.3c.4,0,.6-.1.6-.5s0-2.2,0-3.3-.1-.5-.5-.5H139c-.8,0-1.2-.3-1.2-1s.5-.9,1.2-.9h2.1c.4,0,.6-.1.6-.5s0-2.3,0-3.4-.1-.5-.5-.5h-2.4c-.7,0-1-.3-1-1s.4-.9,1.1-.9H141c.6.1.8-.2.7-.8s0-1.1,0-1.6.2-.7.7-.7h2.1c.4,0,.5-.1.5-.5a15.9,15.9,0,0,1,0-2c0-.5-.2-.6-.6-.6H126.8c-.4.3-.1,1.1-.1,1.7s0,.3,0,.4.1,1,.9.9h1.9c.5,0,.7.2.6.6s0,.7-.1,1.1v.9c0,1,0,2,0,3.1,0,8.2,0,16.4,0,24.6a.9.9,0,0,1-.7,1,23.6,23.6,0,0,0-8.6,4.8,24.4,24.4,0,0,0-3.2,3.4l-.7.9-1.1-2.2c-.1-.3.1-.4.2-.6a24.7,24.7,0,0,1,10.7-7.9,1.2,1.2,0,0,0,1-1.4c0-8.3,0-16.6,0-24.8,0-.2,0-.5,0-.7s-.3-.3-.6-.3a5.4,5.4,0,0,1-1.8-.1,1.3,1.3,0,0,1-1-1.4c0-.5,0-1,0-1.5s0-.7,0-1.1,0-1.5,0-2.2a1.4,1.4,0,0,1,1.6-1.6h20.5a1.3,1.3,0,0,1,1.3,1.3c0,1.8,0,3.5,0,5.3a1.3,1.3,0,0,1-1.2,1.3h-.5c-1.7,0-1.7,0-1.7,1.8,0,8.1,0,16.1,0,24.2a1.1,1.1,0,0,0,.9,1.2,24.9,24.9,0,0,1,15.1,15.8A24.3,24.3,0,0,1,158.5,142.1Z" style="fill: #143d68"/>
      <path d="M109.5,46.3a2.5,2.5,0,0,1-2.5,2.5,2.6,2.6,0,0,1-2.4-2.5,2.5,2.5,0,1,1,4.9,0Z" style="fill: #95c020"/>
      <path d="M133,89.5a2.1,2.1,0,0,1-2-2.1,2.1,2.1,0,0,1,4.1.1A2,2,0,0,1,133,89.5Z" style="fill: #2fa9e1"/>
      <path d="M63.1,80.8a2,2,0,0,1-2.1-2,2,2,0,0,1,2-2.1,2.1,2.1,0,0,1,2.1,2A2.1,2.1,0,0,1,63.1,80.8Z" style="fill: #e94f1d"/>
      <path d="M93.5,37.8a2,2,0,0,1-2.1,2,2.1,2.1,0,0,1,.1-4.1A2,2,0,0,1,93.5,37.8Z" style="fill: #94c022"/>
      <path d="M138.1,98.8c-.6,1.1-.3,1.6.9,1.7a1.8,1.8,0,0,1-1.2,1.7,1.8,1.8,0,0,1-2-.4,1.8,1.8,0,0,1-.5-1.9C135.7,98.8,136.8,98.4,138.1,98.8Z" style="fill: #2ea9df"/>
      <path d="M134.9,66.6a2,2,0,0,1-3.8-1.4C132.7,64.2,134.2,64.8,134.9,66.6Z" style="fill: #2fa8df"/>
      <path d="M67.4,131.4A1.9,1.9,0,0,1,67,129a1.1,1.1,0,0,0-.1-1.1,2,2,0,0,1,.3-2.8l1.2-1.3v1.4a1.8,1.8,0,0,0-.4,2.7,1.4,1.4,0,0,1,0,1.3,3.4,3.4,0,0,0-.2,1.4Z" style="fill: #123d69"/>
      <path d="M134.9,66.6l-1-1.1a1.3,1.3,0,0,0-1.7-.5l-1.1.2a2,2,0,0,1,2.7-1.3A2,2,0,0,1,134.9,66.6Z" style="fill: #5ab8e1"/>
      <path d="M67.8,130.6a1.2,1.2,0,0,1,0-1.3,1.8,1.8,0,0,0-.1-1.7c-.6-1.2-.4-2,.9-2.6,0,1.3,0,2.5,0,3.8A4.3,4.3,0,0,1,67.8,130.6Z" style="fill: #163e65"/>
      <path d="M133,113.6a1,1,0,0,1-1-1,1,1,0,0,1,1-1.1,1,1,0,0,1,1,1A1,1,0,0,1,133,113.6Z" style="fill: #31a9df"/>
      <path d="M139,77.7a.9.9,0,0,1-1,1,1,1,0,0,1-1-1.1,1,1,0,0,1,2,.1Z" style="fill: #32a9de"/>
      <path d="M122.1,137.3h-.1c-.3-.1-.5-.3-.4-.6Z" style="fill: #4d6e8a"/>
      <path d="M123,137a.5.5,0,0,1-.6.4Z" style="fill: #4d6e8a"/>
      <path d="M126.3,152.9H65.4a2.7,2.7,0,0,1-1.8-.4,1.8,1.8,0,0,1-.6-2.4l2.7-5.5,4.6-9.3.2-.2v-.3a1.8,1.8,0,0,0,.4-.7h.1l2-4.2h.1a31.4,31.4,0,0,1,1.5-3.3l.7-1.6.2-.2a22.1,22.1,0,0,1,1.6-3.2v-.3a1.2,1.2,0,0,0,.3-.7h.2l3.8-7.7L86,104a3.3,3.3,0,0,0,.4-1.2,1.4,1.4,0,0,1,1-.3h16.4a1.3,1.3,0,0,1,1,.2,4,4,0,0,0,.6,1.8l8.8,17.7,6,11.8a16.9,16.9,0,0,0,1.3,2.6,1.5,1.5,0,0,0,.4.8l3.3,6.7,2.9,5.9A1.9,1.9,0,0,1,126.3,152.9Z" style="fill: #93c020"/>
      <path d="M101.3,78.4A3,3,0,0,1,98,79.9a3.3,3.3,0,0,1-2.6-2.4,3.4,3.4,0,0,1,2.6-4.2,3.3,3.3,0,0,1,3.9,2.8h-.7a1,1,0,0,0-.8.9C100.2,77.9,100.8,78.1,101.3,78.4Z" style="fill: #94c020"/>
      <path d="M62.9,90.6a1.1,1.1,0,0,1-.9-1.2,1,1,0,0,1,.8-.9A1,1,0,0,1,64,89a.9.9,0,0,1-.1,1.1l-.4.4Z" style="fill: #e35423"/>
      <path d="M94.2,64.7a2.7,2.7,0,1,1-5.4,0,2.7,2.7,0,0,1,5.4,0Z" style="fill: #94c020"/>
      <path d="M93.5,96.6a2,2,0,0,1-2.1,2.1,2.1,2.1,0,0,1-2.1-2.1,2,2,0,0,1,2.1-2A1.9,1.9,0,0,1,93.5,96.6Z" style="fill: #94bf22"/>
      <path d="M60.8,94.5a1.2,1.2,0,0,1-1.2,1.2,1.2,1.2,0,0,1-1.2-1.3,1.3,1.3,0,0,1,1.2-1.2A1.2,1.2,0,0,1,60.8,94.5Z" style="fill: #e7501f"/>
    </g>
  </g>
</svg>
