<svg id="Layer_1" data-name="Layer 1" xmlns="http://www.w3.org/2000/svg" viewBox="0 0 207 207">
  <title>Pragati_Web_Icons</title>
  <rect width="207" height="207" style="fill: #06b3ff"/>
  <rect x="21.5" y="21.5" width="164" height="164.02" rx="17.5" ry="17.5" style="fill: #fff"/>
  <g>
    <path d="M29.2,55.3a2.4,2.4,0,0,1,2.3-3.4c2-.1,3.4.9,4.7,2.4,1.7-1.4,2.4-3.5,3.6-5.2h0c.9-2.7,2.2-5.2,2.8-8.2a9.7,9.7,0,0,0,3.7,2.8l3,.2a7,7,0,0,1-4.1.4c-.9.1-1.8-1-2.5-.4s-.5,1.6-.7,2.4a33.5,33.5,0,0,1-5.7,10.4C34.6,59.1,30.2,57.6,29.2,55.3Z" style="fill: #fefefe"/>
    <path d="M58.8,102.5v.2a13.3,13.3,0,0,0,.1,1.4,16.8,16.8,0,0,0,.4,2.2,12.1,12.1,0,0,0,1.2,3.1h0l.4.7,1,1.4.2.3v.3a.4.4,0,0,1-.1.4c-.2.3-.6.1-.9.1l-.8-.2h-.5l-.8-.3h-.5c-.7-.2-.9.1-1,.7a6.2,6.2,0,0,0,.1,1.5,6.8,6.8,0,0,0,.3,1.2l.3.6c.4,1,1.2,1.9,1.6,2.8l.3.4,1.2,1.2.5.3,1,.7h.1c.2.1.4.3.5.5a.4.4,0,0,1,0,.2l-.3.3h-2l-.5.2a1.1,1.1,0,0,0-.4,1,2.8,2.8,0,0,0,.4,1.4l.2.3.6,1v.2l.7.7.2.2,1.7,1.1.5.3,1.4.6,1.1.4.9.3h1.2l3.3.3a1.5,1.5,0,0,1,.8.1l.2.2a22.1,22.1,0,0,1-5.6-.7,9.6,9.6,0,0,1-4-1.7l-1.5-1-1.1-1.1-.6-.9a3.2,3.2,0,0,1-.8-1.8c-.2-1,.2-1.5,1.2-1.7a9.8,9.8,0,0,1,2.2-.2c-.1-.5-.6-.4-.7-.8l-.8-.5a8.5,8.5,0,0,1-2.1-2,15.7,15.7,0,0,1-1.6-2.7,6.1,6.1,0,0,1-.8-3.7c.1-1,.5-1.2,1.5-.8h0c.6-.1,1.1.4,1.7.5l1.6.4-.3-.8-.8-1.1a13.7,13.7,0,0,1-2.2-9,.8.8,0,0,1,.4-.8h0c.8-.9,1.3,0,1.9.3s1.7,1.8,2.8,2.4-.7-.1-.9-.3-1.3-1.3-2-1.9h-.2c-.3-.2-.7-.5-1.1-.3h-.2l-.2.2a4.5,4.5,0,0,0-.2,1.2c0,.1,0,.2,0,.4A0,0,0,0,1,58.8,102.5Z" style="fill: #fefefe"/>
    <path d="M49.2,60.3l.6-.5c1.2-.9,2.3-.3,3.3.4a1.6,1.6,0,0,1,.9.9c.4.4.4,1.3,1.3,1.3l3.9-4c0-.1,0-.2.2-.2a32.3,32.3,0,0,1,3.1-4.2h0c-.1-.5.2-1.1.6-1.1s.6.7.8,1.1c1.4,2.4,2.5,5.1,4.8,7,.3.2.6.5.4.9a27.7,27.7,0,0,1-8.7,11.2c-2,1.6-5.6-.3-5.8-2.9a1.9,1.9,0,0,1,1.9-2.2,3.5,3.5,0,0,1,3.6,2.3h0c.5.5.9.7,1.5.1a32.2,32.2,0,0,0,5.5-6.6,1.1,1.1,0,0,0-.2-1.5,8.5,8.5,0,0,1-1.9-2.3c-1.2-1.1-1.8-2.6-2.7-4l-1.8,2.4a3.8,3.8,0,0,1-1.1,1.4,17.7,17.7,0,0,1-4.9,4.6,4,4,0,0,1-5.8-2.8C48.6,61.2,48.6,60.6,49.2,60.3Z" style="fill: #fefefe"/>
    <path d="M68.1,77.6l2.5-1.1,4.3-3.1a7.9,7.9,0,0,1-3,3.3,21.3,21.3,0,0,1-5.2,2.8,3.3,3.3,0,0,1-4.5-2.9c-.2-1.5.9-2.2,2.6-1.9h.1A3,3,0,0,1,66.7,77C66.9,78.2,67.4,78,68.1,77.6Z" style="fill: #fefefe"/>
    <path d="M76.9,88.4a11.8,11.8,0,0,1-.5-2.6A17.3,17.3,0,0,1,71.3,88,2.1,2.1,0,0,1,69,85.3c.1-.2.2-.5.6-.4s1.5-.5,1.9.6,1.2,1.5,2.3.9l3.3-1.7h0c.4-.3.9-1,.9.2s.5,2.7.6,4a.8.8,0,0,1-.1,1.3,12.2,12.2,0,0,1-6.1,3.1,2,2,0,0,1-2.3-2.1c0-.5,0-1.1.8-1a1.5,1.5,0,0,1,1.6.8c.5,1.6,1.5,1.2,2.5.6l1-.5C77,90.6,77.5,89.8,76.9,88.4Z" style="fill: #fefefe"/>
    <path d="M121.1,82.6a35.8,35.8,0,0,0-4.6-2.1l-.6-.2-.7-.2h-.4a1.9,1.9,0,0,1-1.3-.9h0a2,2,0,0,1-.2-.7v-.4l-.4-1.1-.3-.5-1.1-1.9-.2-.4a5,5,0,0,0-1.1-1.1l-.3-.2-.2-.2-.3-.2-.8-.4h-.6l-1.5-.3h0l-1.5.2-.9.4a1.6,1.6,0,0,0-.6.5l-.2.6a1.1,1.1,0,0,0,.3,1l.5.5.2.2h0l.2.3h0c.1.2.1.3,0,.4l-.4.2H104l-1.5.2h0l-.9.3h-.1l-.3.2-.2.2-.3.3h-.2l-.5.4-.3.3-.2.3-.2.2h-.1l-.7.2H97.7l-.8.2-1.6.5h0l-.6.3h-.3l-.6.2-1.7.9-.6.5a9.9,9.9,0,0,1-1.6,1.1h-.2a2.7,2.7,0,0,0-.7.8l-.2.3c-.6.8-.9,1.7-1.6,2.4h-.1l-.4.7h-.1v.3l-.7,1.7v.3c-.2.1,0,.4-.1.6l-.3.7h0L84.9,92l-.3.8-.2.7-.3,1.1V95h0v.5L83.6,97h-.2c-.2.3-.6.6-.5,1h0a2.8,2.8,0,0,1-1,1l-.3.3-1,1h0l-.3.5-.2.2-.4.6a9.4,9.4,0,0,0-.8,1.6v.3a10,10,0,0,0-.5,3.8c0,.3.1.6-.1.8l-.3.2H78a.8.8,0,0,1-.7-.4l-.6-.7-2.3-2.3h0l-.6-.6a36.3,36.3,0,0,1-4.9-7.4v-.2l-.4-.8-.2-.3c-.2-.3-.2-.7-.5-1l-.2-.4-.7-1.3-.3-.5a10.7,10.7,0,0,0-1.5-2h-.5a.8.8,0,0,0-.7.1l-.3.3a1.6,1.6,0,0,0-.3.7v.3h0l-.2.7v.3a29.4,29.4,0,0,0-.1,4.5h0a20.1,20.1,0,0,0,.4,2.7l.3,1.4a4,4,0,0,1,.3,1.2h-.1a20.5,20.5,0,0,1-1-10.3,3.5,3.5,0,0,1,.3-1.4h0c.1-.2.1-.4.3-.5s1.2-1,1.9-.2a5.8,5.8,0,0,1,1.4,1.9A9.8,9.8,0,0,1,68,95.1a.8.8,0,0,1,.2.8c.7.2.7,1,1,1.5a40.2,40.2,0,0,0,4.3,6.6l.4.6c.7.2,1,.9,1.4,1.4a13.2,13.2,0,0,1,2.2,2.2l.4.3c.6,0,.3-.4.3-.7a10.3,10.3,0,0,1,1.4-6c.2-.3.2-.6.6-.7a4.6,4.6,0,0,1,1.7-1.9l.9-.8c.2-.4-.2-.5-.4-.7s.8-.2.9-.7h0l.4-1.7.7-2.7c.4-1,.3-2.1,1.1-2.9s-.2-.2-.1-.4A17.5,17.5,0,0,1,87,86c.7-.7,1-1.8,1.7-2.4h0c.1-.7.7-.9,1.1-1.4s1-.8,1.6-1h0a5.7,5.7,0,0,1,3.1-1.6h0a7.5,7.5,0,0,1,3.3-1,3.3,3.3,0,0,1,1.7-.4c-.1-1,.6-1.2,1.3-1.4h.1c.2-.8,1-.7,1.5-.9a4.3,4.3,0,0,1,1.9-.2c.2-.4-.4-.3-.4-.6s-1.4-1.3-.7-2.6.2-.3.5-.4a4,4,0,0,1,4.4-.4,2.2,2.2,0,0,1,1.7.8h0a3.4,3.4,0,0,1,1.8,1.9,5.2,5.2,0,0,1,1,1.7,5.3,5.3,0,0,1,.8,2.1c.2,1.5,1.6,1.3,2.5,1.9a24.4,24.4,0,0,1,5.9,2.7l2.1,1.3a22.2,22.2,0,0,1,7.3,8.8c2.6,5.9,2.4,11.9.4,17.9l-.2.3a9.6,9.6,0,0,1-1.1,3.1l-.5,1a10.8,10.8,0,0,1-1.6,2.5,3.2,3.2,0,0,1-1.1,1.2h.1c.6.2,1.2-.3,1.8-.2,2.4-.8,4.9-1.2,7.4-1.9h.4l1.1-.4a28.7,28.7,0,0,1,3.6-1.3l3.7-1.9c.2-.1.3-.2.4,0l3.8-2.5c2.8-1.8,5.5-3.8,8.1-5.7h.5a4.6,4.6,0,0,1,1.6-1.2,10.9,10.9,0,0,1,3.6-1.8h.3c.8-.3,1.3,0,1.4.9a5.2,5.2,0,0,1-.7,3.4,1.4,1.4,0,0,1-.4.8,3,3,0,0,1-.8,1.8c-.8,1.5-1.9,2.8-2.9,4.2h0l-1.4,1.7a23.4,23.4,0,0,1,4.6-2.8h1.2c.5.3.7.7.6,1.6a6.8,6.8,0,0,1-1.4,3.9c-1.8,2.9-4.5,4.9-7.3,6.8.6.4,1-.2,1.6-.1h.3c.8-.1,1.7-.7,2.3.1s-.1,1.7-.6,2.5l-.8,1.3h0a9.7,9.7,0,0,1-2,1.9l-1.5,1a11.7,11.7,0,0,1-3.6,1.8,5.4,5.4,0,0,1-1.8.5c-.3.3-.8.1-1,.5a16.5,16.5,0,0,1,3.3-.1c.5.1,1.2-.1,1.4.6v.2c.4.9-.5,1.3-.8,1.9a7.2,7.2,0,0,1-2.2,1.5l-.4.2a12.1,12.1,0,0,1-3.1,1.1,24,24,0,0,1-8,1c-.4,0-.4,0-.5.3l1.6,1c.5.4,1.3.5,1.5,1.4s.5.5.1.8-1,.6-1.6.7a23.4,23.4,0,0,1-8.5-.8c-.3-.1-.7-.5-1.1-.1l.7.8v.2c.3.4.8.8.5,1.2s-.8.2-1.2.2a12,12,0,0,0-2.2-.2h2c.4.1.8.3,1.1-.1h.1a.3.3,0,0,0,0-.2h0l-.4-.5h-.1c-.2-.4-.7-.6-.6-1.1h.9l.5.2,1.5.4,2.8.4h1.3a8,8,0,0,0,2.5-.1h0l1.4-.4a.5.5,0,0,0,.1-.8h0v-.2a3.9,3.9,0,0,0-1.4-1.1h-.1l-.8-.5-.3-.2h-.2v-.5l.2-.2c.3-.2.6,0,.9,0h4.6l2.7-.6.9-.3,1.6-.6.5-.2.6-.3.4-.2,1.2-.8.4-.4c.3-.5,1-.9.7-1.7h0l-.2-.2H153a4.4,4.4,0,0,0-1.8-.2h-1.9c-.2,0-.4,0-.5-.2h0a.3.3,0,0,1,0-.2l.3-.3h.8l.7-.2.8-.2h.2l1-.4,1.9-.9.6-.4,1.7-1.1.4-.4,1-1,.4-.4a10.4,10.4,0,0,1,.9-1.4l.2-.3.2-.4h0v-.2c.1-.3.3-.7,0-1h-2.5a1.5,1.5,0,0,1-1.2,0h0v-.2c-.1-.4.3-.5.6-.7l2.7-2a20.5,20.5,0,0,0,3.9-4.3l.3-.5h0a5.4,5.4,0,0,0,.8-4,.8.8,0,0,0-.1-.4H163a15.7,15.7,0,0,0-3.5,2c-.3.2-.6.6-1.1.4h0a.5.5,0,0,1-.1-.3c0-.3.3-.4.4-.6l.9-.9h0c.9-1.4,2-2.8,2.9-4.3l.3-.3h0a3.2,3.2,0,0,0,.4-.9v-.4l.5-1.1.2-.5a9.7,9.7,0,0,0,.4-2,1.5,1.5,0,0,0-.1-1l-.4-.4h-.9a22.8,22.8,0,0,0-5.1,3h-.2l-1.5,1c-2.6,1.8-5.1,3.7-7.7,5.4a21.1,21.1,0,0,1-3,1.7l-.7.3-2.7,1.3-.7.3-.5.2-2.3.8-.7.3a2.7,2.7,0,0,1-1.2.4l-1.7.3-5.1,1.2-.9.2h-.1a3.8,3.8,0,0,1-1.7.3H127l.2-.3.6-.7.2-.3a15.9,15.9,0,0,0,1.6-2.4V115h0l.4-.9.3-.6.6-1.5.2-.8v-.3l.3-1a25.5,25.5,0,0,0,1-10.1v-.9a25.2,25.2,0,0,0-1.3-5.2h0v-.4h0a8.1,8.1,0,0,0-1.7-3c-1.2-1.6-2.1-3.5-4-4.6l-.5-.4-.2-.2h0l-.8-.8h-.2l-1.7-1.1h-.2Z" style="fill: #fefefe"/>
    <path d="M120.6,118.6a11.8,11.8,0,0,1-6,3.1,33.6,33.6,0,0,1-11.6,1,40.6,40.6,0,0,1-17.6-5.9,14.4,14.4,0,0,1-5.8-6.5,10.8,10.8,0,0,1-.8-5.8v-.7h0a6.9,6.9,0,0,1,1.2-2.5h0c.5-.7,1.3-1.2,1.7-1.9l.9-.8H83a.4.4,0,0,1,.6.1h0v.9h0v.3l.3-.2h.1l.6-.3h.1a19.5,19.5,0,0,0,2.4.9h.5a2,2,0,0,1,1,1c.7,1.4,1.7,2.8,1.5,4.5v.2h0v.2h-.1a5.5,5.5,0,0,1-1.4.8l-.6.2H85.1l-.9.3c-.1.3.1.3.3.4a6.8,6.8,0,0,0,2.3.5,1.8,1.8,0,0,1,1.3.3h.1c-.2,1-1.2,1.6-1.7,2.5h-.1v.2h0c-.1.1-.1.2.2.2h.4l1.4-.2a16,16,0,0,0,5.4-2.2h.1a13.1,13.1,0,0,0,3.3-3.1,6.4,6.4,0,0,0,1.4-3.9s0-.1,0-.1h0V102l.3-1.2a18.5,18.5,0,0,1,1.3-2.9l.3-.4.4-.7.2-.4.2-.2h.2a3.3,3.3,0,0,0,.8-.8h0a14.6,14.6,0,0,1,5.6-4.3,7.4,7.4,0,0,1,9.5,2.9,13,13,0,0,1,2,5.8,25.2,25.2,0,0,1-1.8,11.8c-.3.9-.1,1.3.7,1.7a8.3,8.3,0,0,1,2.1,1.3A2.5,2.5,0,0,1,120.6,118.6Z" style="fill: #feeb4a"/>
    <polygon points="97.8 78.6 97.8 78.6 97.8 78.6 97.8 78.6" style="fill: #52b6fa"/>
    <path d="M130,93.7a20,20,0,0,0-5.1-8.3l-.2-.2h0l-.8-.8h-.2l-1.9-1.3h-.2a59.1,59.1,0,0,0-5.8-2.6h-.2l-1.1-.3a1.2,1.2,0,0,1-1.1-1.3h-.1c-.2-.7-.6-1.4-.8-2.2a5.2,5.2,0,0,0-1-1.7,9.5,9.5,0,0,0-1.8-1.9h0l-1.6-.8h0a5.2,5.2,0,0,0-4.4.4c-.2,0-.3.2-.5.4a2,2,0,0,0,.7,2.6h0l.5.3h0l.6.3h-1.3c-.7.1-1.5,0-2.1.6h0c.7.5,1.3-.2,1.9-.1a5.2,5.2,0,0,0-4,3.3c-.3-.4.2-.9-.3-1.2h-.1a3.3,3.3,0,0,0-.5.9c.1-.5.1-.7-.1-.7h-.9c-1.1.3-2.2.6-3.3,1h0a20.6,20.6,0,0,0-3.1,1.6h0c-.6.2-1,.8-1.6,1s-.9.8-1.1,1.3h0c-.8.7-1,1.7-1.7,2.4h.7a2,2,0,0,1,1.8.4,5.5,5.5,0,0,1,1.4,1.6v.2h0v.3a8.5,8.5,0,0,0,.5,1l.3.5h0a4.1,4.1,0,0,1,.2.8h0v2.2h0c.1.9,0,1.9,0,2.8s0,.2,0,.3h0a2.2,2.2,0,0,0,.2,1h0v.2A4.3,4.3,0,0,0,94,98.7l.4.3h0l.9.9h.2l.2.3a2.5,2.5,0,0,0,.8.5l.3.2.7.6h0l.3.3h.6c.4-.5.3-1.2.7-1.7l1.2-2.7.8-1.6h.1a5.7,5.7,0,0,0,1-1.1l1-1.3.2-.4.7-.7h0l.3-.2.5-.5.2-.3h0l.6-.5.4-.2,2.3-1.4.6-.3h0l1.3-.4h.4a8.4,8.4,0,0,1,2.6,0h.7a5.5,5.5,0,0,1,1.5.6h0l.6.4a14.5,14.5,0,0,1,2.7,2.9l.3.3h0a3.4,3.4,0,0,1,.5.9v.5l.2.4h0l.2.7h0l.2.6a9.9,9.9,0,0,1,.3,1.3h0c.2,1.1.3,2.3.5,3.4h0l.2.7v.2h.1a10.4,10.4,0,0,0,.7,1.6c2.1,3.2,4.9,2.9,6.9.1l.2-.4A12.5,12.5,0,0,0,130,93.7ZM100,82.1h.5a3.1,3.1,0,0,0,1.3-.4,14.9,14.9,0,0,0,2.7-2.1c.9-.8,1.9-1.5,3.4-.9a4.1,4.1,0,0,0-2.2.8h-.1c-.7.5-1.2,1.3-2,1.8l-.4.3h-.5l-.9.3a2.8,2.8,0,0,1-2.3-.4Zm-.6-.3a2.2,2.2,0,0,1-.7-1.5A3,3,0,0,0,99.4,81.9Z" style="fill: #52b6fa"/>
    <path d="M91.9,139.5h0Z" style="fill: #52b6fa"/>
    <path d="M163.3,101.9H163a10.9,10.9,0,0,0-3.6,1.8,4.6,4.6,0,0,0-1.6,1.2l-1.6,1.3-2.4,1.9a51.3,51.3,0,0,1-10.9,6.9,48.9,48.9,0,0,1-9.2,3l-7.8,2h-.6a36.6,36.6,0,0,1-6.7,3.4h-.1v.2a12.1,12.1,0,0,0-1.9,4.4v.3h0a7.7,7.7,0,0,0-.1,1.3h-.1c-.2-.1-.3.1-.4.2a7.2,7.2,0,0,0-.7.9,19,19,0,0,1-3.6,3.4c-.1-.9,0-1.6-.1-2.4s0-.6-.4-.7-.5.2-.7.5a7.5,7.5,0,0,0-.5,1.1h0v.2a17,17,0,0,1-5.1,6.4c-.4-.6-.3-1.1-.4-1.6s-.2-1-.6-1.1-.7.4-.9.7a13.4,13.4,0,0,0-2.4,5.1,12.7,12.7,0,0,1-1.9-3c-.2-.3-.2-.9-.7-.8h-.1c-.4.1-.4.7-.4,1.1a17.4,17.4,0,0,1-.1,2.3,5.2,5.2,0,0,1-1.7-2,12.5,12.5,0,0,1-1-3.8c0-.3,0-.6-.3-.7s-.5.3-.6.6a6.1,6.1,0,0,1-.5,1.4,3,3,0,0,1-.6-1.7h0v-.4a1.7,1.7,0,0,0,0-.7.4.4,0,0,0-.4-.2h-.1c-.3.4-.2.8-.3,1.3s-.1-.5-.4-.4l-.2.2a.7.7,0,0,0,0,.4h0a18.7,18.7,0,0,0,.7,3.1h0c.3.5.4,1.1.6,1.6h0l1.4,3,.4.5a5.3,5.3,0,0,0,1,1.2h.2a15.2,15.2,0,0,0,7.2,3.9c4.4,1,8.8,1.5,12.9-.9l.2.5h0l.4,1v.6l.2.2.4.7h0v.2l.8,1.1h0l.2.3a6.1,6.1,0,0,0,1.2,1.1h.2c3.2,1.7,5.4.9,6.6-2.3a11.9,11.9,0,0,0,.5-1.7,15.4,15.4,0,0,0,.3-2.3h0v-1.3h0c0-.2,0-.3,0-.5h0c0-.2,0-.3,0-.5s0-.2,0-.3h0v-.4h0v-.4a2.4,2.4,0,0,0-.2-.8l-.2-.3.3.2,1.2.4h1.4c.8.1,1.6.6,2.4-.1v-.4h-.1l-.7-.4c-1.9-1.1-3.8-2.1-5.6-3.4a8,8,0,0,1-2.9-3.2,1.7,1.7,0,0,0-.6-.7h-.2l-.2-.2h-.2l-.3-.2-.2-.2h0a2.3,2.3,0,0,1-.7-.7h0l-.2-.4a2,2,0,0,0-.5-.7l-.2-.3h0a4.4,4.4,0,0,1-.5-1.4,7.4,7.4,0,0,1-.2-2.4v-.9a7.3,7.3,0,0,1,1.4-3.2h0l.3-.3h0l.7-.6.7-.5.3-.2h.2a14.5,14.5,0,0,1,2.8-1.2h.2l.7-.2.6-.2h.2c3-.9,6.2-1.6,9.2-2.4h0l1.3-.3,1.7-.5h0a42.9,42.9,0,0,0,5.4-2.4h.5a9.7,9.7,0,0,0,1.2-.6l.3-.3h0l.9-.6h.3l.2-.2h.3l1-.7h.2l1.1-.8h0l.2-.2,3.5-2.8.3-.3.5-.4.2-.2.5-.4.3-.3h0l.8-.7.2-.2.5-.4.3-.2h0l.8-.8h0l.2-.2.5-.4h.2l.7-.5h0l.4-.2.4-.3h0l.5-.5h.1a10.6,10.6,0,0,1,2-1.3l.4-.3.2-.2Zm-46.4,31a8.3,8.3,0,0,1-.3-1.7C116.7,131.8,116.8,132.4,116.9,132.9Z" style="fill: #52b6fa"/>
    <path d="M129.8,115.2a10.8,10.8,0,0,1-1.6,2.5,5.7,5.7,0,0,0-1.1,1.2h0l-.2.3v.2h-.1a1.8,1.8,0,0,1-.6.5l-.6.3a22.5,22.5,0,0,1-6.5,3.3h-.4a1.7,1.7,0,0,1-.8.3h-.6l-1.4.3h0l-3.2.3h-8.7l-3.1-.6h-1a3.4,3.4,0,0,1-1.4-.2l-.8-.4h0l-2.2-.7-.8-.3h-.5L93,122h-.8l-.9-.4-2.4-1.1-.9-.4a7.1,7.1,0,0,1-2.7-1.7l-.3-.3-.7-.5-.4-.2-.7-.5-.3-.2-.4-.3a18.9,18.9,0,0,1-2.4-2.8,3.1,3.1,0,0,1-.5-.8h-.1v-.3l-.2-.4-.5-1.1v-1.8a12.7,12.7,0,0,1,.3-4.1c.1-.3,0-.6.3-.7h.2a17.2,17.2,0,0,0,.1,4.6,12.4,12.4,0,0,0,4.9,7.3c5,3.8,10.7,5.6,16.8,6.7a32.7,32.7,0,0,0,14.1-.8,11.2,11.2,0,0,0,5.4-2.8c1.3-1.4,1.2-2.8-.4-4a9.9,9.9,0,0,0-2.2-1.3c-.8-.3-.8-.7-.5-1.5a25.6,25.6,0,0,0,2-10c-.1-3.5-.8-6.8-3.5-9.3a6.6,6.6,0,0,0-7-1.4,13.7,13.7,0,0,0-6.4,4.7c-.2.3-.4.8-1,.7l.2-.3a8.3,8.3,0,0,1,1.6-2.1,7.4,7.4,0,0,1,1.4-1.5l.3-.3a5.5,5.5,0,0,1,1.3-1.1l2.1-1.4,2.5-.8h2.5a6.6,6.6,0,0,1,3.1,1.4,9.5,9.5,0,0,1,2.7,2.8,12.3,12.3,0,0,1,.8,1.7h0a15.2,15.2,0,0,1,.6,1.7h0v.2a38,38,0,0,1,.8,5.5h0v.2a17.4,17.4,0,0,1-.5,4.7,15.3,15.3,0,0,1-.6,2.2c-.2.4-.1.7.2.8h.4a14.6,14.6,0,0,1,2.5.1h.2a9.7,9.7,0,0,1,3.2,1.3l.3.2h.2a6.8,6.8,0,0,1,2.5,2.9Z" style="fill: #eac31f"/>
    <path d="M151.9,164.9a1,1,0,0,1-.8.7h-.7a15.2,15.2,0,0,1-4.8-1.1,35.8,35.8,0,0,1-18-13.6l-.2-.2h0l-.2-.4h0c0-.7-.1-1.5-.1-2.2s0-.9-.1-1.4h0c0-.1,0-.3,0-.4v-.4h0c.1-.4-.3-.9-.1-1.1h.2a1.3,1.3,0,0,1,1.2.4l.3.3.2.2c.9,1.1,2,2,2.9,3a1.3,1.3,0,0,0,.7.4,1.5,1.5,0,0,1,.7.6,6.8,6.8,0,0,0,2,1.9l.5.4a2.4,2.4,0,0,0,1.2,1.1,35.5,35.5,0,0,0,5.6,4.4,15.9,15.9,0,0,1,1.7,1.1l2.2,1.4,1.7,1.1a17.4,17.4,0,0,1,3.7,2.8C151.9,163.9,152.5,164.3,151.9,164.9Z" style="fill: #52b6fa"/>
    <polygon points="131.4 111.1 131.4 111.1 131.4 111.1 131.4 111.1" style="fill: #3895d5"/>
    <path d="M131.4,111.1h0c-.3,1.1-1,2-1.1,3.1l-.5,1V115a12.7,12.7,0,0,0-2.4-2.6,8.5,8.5,0,0,0-6.6-1.9c-.8.1-.9-.3-.7-.8a26.1,26.1,0,0,0,1.2-7.5h.1c.7.8.8,1.8,1.6,2.6,2.2,2.3,4.5,1.3,5.8-.7s1.9-6.7.9-10.1a20,20,0,0,0-5.5-8.6l-.7-.8h.4a22.2,22.2,0,0,1,7.3,8.8c.3,1.4.9,2.8,1.2,4.2A26.3,26.3,0,0,1,131.4,111.1Z" style="fill: #3895d5"/>
    <path d="M164.5,114.9a12.4,12.4,0,0,1-1,2.4c-1.8,2.9-4.5,4.9-7.3,6.8v.2h-.2l-.6.2h-.1l-3.7,1.8h0l-1.5.7-.7.3h0a31.5,31.5,0,0,1-4.6,1.4h-.2l-1.6.3h-.5a.3.3,0,0,1,0-.2l.3-.3.8-.4.5-.4.8-.6.4-.2h0a3.5,3.5,0,0,0,1.5-2.5,2.6,2.6,0,0,0-.1-.8v-.3h0V123h.1a.9.9,0,0,1,.6-.4c4.3-1.2,7.8-3.6,11.2-6.4,1.5-1.2,2.7-2.6,4.3-3.7l.7-.4h.5A3.3,3.3,0,0,1,164.5,114.9Z" style="fill: #52b6fa"/>
    <path d="M164.6,103.7a12.1,12.1,0,0,1-.6,2.6,1.4,1.4,0,0,1-.4.8c-.2.6-.6,1.2-.8,1.8s-1.9,2.8-2.9,4.2h0a8.4,8.4,0,0,0-1.5,1.5l-.7.8-.3.3-.4.3h-.2l-.5.5H156l-2.2,1.6-.3.2-2.3,1.4-.3.2h0l-.6.3-.3.2-.7.4h-.1c-.4.2-.8.7-1.2.5h-.2v-.2c-.1-.4.5-.6.7-1h.1a4.2,4.2,0,0,1,.9-1.4,1.7,1.7,0,0,0,.4-.9,2.7,2.7,0,0,0-.2-1.2l-.2-.5h-.1c0-.5.3-.7.6-.9,3.9-3.2,7.4-6.7,11-10.2h.1l.4-.5h.1l.2-.2a6.1,6.1,0,0,1,1.5-.9h.4a.8.8,0,0,1,.8.1C164.6,102.8,164.7,103.2,164.6,103.7Z" style="fill: #52b6fa"/>
    <path d="M81.8,127.3h-.1l-1.5,1.1h-.1l-.6.4-.3.2a24.9,24.9,0,0,1-3.7,1.4l-.5.2H73.2a26.9,26.9,0,0,1-3.9-.3l-1.2-.2h-.3a20.3,20.3,0,0,1-4-1.6l-1.5-1a3.6,3.6,0,0,0-1.1-1.1l-.6-.9A8.9,8.9,0,0,1,60,124h0a1.1,1.1,0,0,1,.8-1.4h1.4l1.6.5,3.9,1.4a19.1,19.1,0,0,0,8.1.5,3.5,3.5,0,0,1,1.3-.1h.2l.2.2h.2a2.6,2.6,0,0,0,.8.8h.3a5,5,0,0,0,2,.4h.5C81.6,126.8,82.1,126.7,81.8,127.3Z" style="fill: #52b6fa"/>
    <path d="M76.2,124.1a16.9,16.9,0,0,1-4.5.3H69.9a23.5,23.5,0,0,1-5.9-1.9h-.2l-.4-.3a2.1,2.1,0,0,0-.9-.5l-.8-.5a19.5,19.5,0,0,0-2.1-2,15.7,15.7,0,0,1-1.6-2.7,10.1,10.1,0,0,1-.7-3.4c.1-1.1.2-1.3,1.4-1.1h0l1.1.5H60a39.7,39.7,0,0,0,7,4.8,22,22,0,0,0,4.4,1.7c.5.1,1,.2,1.3.7h0c0,.1,0,.3,0,.4a3.4,3.4,0,0,0,2.9,3.5h0a.7.7,0,0,1,.6.5h.1Z" style="fill: #52b6fa"/>
    <path d="M72.6,109h0v.7h0v.9a1.6,1.6,0,0,0,.2,1v.2h0c0,.3-.1.4-.2.4s-.5-.2-.8-.3h0l-.3-.2-.4-.3a17.7,17.7,0,0,1-2.2-1.7h-.1c-1.1-1.2-2.5-2.2-3.3-3.7l-.2-.4h0l-.7-1.1h0l-.2-.4v-.3h0a7.2,7.2,0,0,1-.3-.8h0V103a23.6,23.6,0,0,1-1.1-9.4V93a4.2,4.2,0,0,0,.2-1.5h0c.1-.2.1-.4.3-.5s1-.6,1.3-.4l.2.3h0l.3.5.5,1.1.5,1.2h.1a13.3,13.3,0,0,1,.7,1.9h0v.5a52,52,0,0,0,2.4,6.8,25.6,25.6,0,0,0,2.7,4.8A3.2,3.2,0,0,1,72.6,109Z" style="fill: #52b6fa"/>
    <path d="M153,136a19.4,19.4,0,0,0-2.2,1.5l-.4.2c-1.1.2-2.1.7-3.1,1.1h-.5a36.8,36.8,0,0,1-8.1.8h-1.2l-1.3-.2a24.6,24.6,0,0,1-4.1-1.1h-.4l-.7-.3h0l-1.6-.7c-.2-.1-.5-.2-.5-.5h0a.3.3,0,0,1,.2-.3h1.1a3.1,3.1,0,0,0,2.8-1v-.2l.4-.6h1a35.9,35.9,0,0,0,14.1-.1l3.4-.6a3,3,0,0,1,1.3,0l.5.2C154.2,135,153.3,135.4,153,136Z" style="fill: #52b6fa"/>
    <path d="M159.8,126.4l-.8,1.3h0a10,10,0,0,0-2,1.9l-1.5,1-3.6,1.7h0c-.6.1-1.1.4-1.7.5H150l-1.2.4-1,.3-1.2.2-1.2.2h-.7a48.7,48.7,0,0,1-9.7-.4h-.1a.5.5,0,0,1,0-.3c.1-.1.3-.2.6-.2h.2l1.9-.3h.2l.8-.3.4-.2.8-.5.4-.2.5-.6h.2a49.2,49.2,0,0,0,7.1-1.2,46,46,0,0,0,10-4.3l1-.7.8-.2h.2C160.7,124.9,160,125.6,159.8,126.4Z" style="fill: #53b7fa"/>
    <path d="M71.6,113.6h0a1.2,1.2,0,0,1-.6.7l-.3.3a1.2,1.2,0,0,0-.1,1.2l.3.6H71c.1.2.3.4.3.5v.2H71c-.2.1-.6,0-.8-.1l-1.9-.8h-.2l-1.4-.7h-.5l-.3-.2a13.4,13.4,0,0,1-2.1-1.6h0L62.1,112l-.5-.5-.8-1.1a17.2,17.2,0,0,1-2-5.9,7.8,7.8,0,0,1,.2-3.9h0a1.3,1.3,0,0,1,1.5.2h.2c1.2,1.6,2.1,3.5,3.2,5.2a22.3,22.3,0,0,0,6.8,6.5C71,112.9,71.6,113,71.6,113.6Z" style="fill: #52b6fa"/>
    <path d="M103.9,156.4a32,32,0,0,1-4.1,3.4,16,16,0,0,0-2.3,2c.2.3.5.3.7.4s.7.4.7.9-.4.7-.8.8l-1.3.3a6,6,0,0,0-2,.5,3.3,3.3,0,0,0-2.1,3.7c.1.7.4,1.4.1,2h-.1a2.7,2.7,0,0,1-2.1-.2h-.1V170h0a7.1,7.1,0,0,1-.4-2.5,5.4,5.4,0,0,1,.4-1.9c-.1.1.5-.6-.1-.1a3.2,3.2,0,0,0-.6,2.3h0c0,.1,0,.2,0,.3a4.5,4.5,0,0,1,0,.8h0a.6.6,0,0,1-.3.4h0a1.5,1.5,0,0,1-1.7-.3l-.3-.2a1.8,1.8,0,0,1-.4-1.4l-.2-.6h0a1.9,1.9,0,0,1,.3-1.4h.2l.9-1.1h0a7.3,7.3,0,0,1,2.8-1.8l1.7-.6a7.7,7.7,0,0,0,4.3-3l2.1-2.5,1.6-2.1a1.8,1.8,0,0,0,.4-1,1.2,1.2,0,0,0-.1-.4l.2-.3h.2a1.1,1.1,0,0,1,.9.4l.4.4c.5.4,1.2.6,1.7,1h.1C104.9,155.4,104.4,155.9,103.9,156.4Z" style="fill: #fca205"/>
    <path d="M144.3,163.8a36.9,36.9,0,0,1-12.6-8.3c-1.6-1.6-2.8-3.4-4.2-5v.5h0l-.3,1h0l-.4.9h0l-.3,1h.1a6.3,6.3,0,0,1,1.4,1.2,32.7,32.7,0,0,0,13.4,10,8.5,8.5,0,0,0,3.4.7h.1a.3.3,0,0,0,0-.3h-.1a2.5,2.5,0,0,1-.8-.6l-.6-.6,1,.2h.3a20.1,20.1,0,0,0,4.3.9,3.2,3.2,0,0,0,2-.3h.3A20.8,20.8,0,0,1,144.3,163.8Zm-1.6.5h-.1a14.1,14.1,0,0,1-1.6-.7c.6.1,1,.6,1.6.7h.1Z" style="fill: #3696d6"/>
    <path d="M118.3,153.8a.5.5,0,0,1-.4.5h-3.2l-4.1-.5-1.8-.4-1.1-.3a36.6,36.6,0,0,1-6-2.2H101l-.4-.3-.3-.2a3.2,3.2,0,0,0-1.2-.6h0a4.4,4.4,0,0,1-1.4-1.1l-2.2-2.2h-.1a.7.7,0,0,1-.1-.4h.1c1,.4,1.6,1.4,2.5,1.9a20.8,20.8,0,0,0,14.9,2.5,4.5,4.5,0,0,0,2.8-1.4c.5-.6.4,0,.5.3s.4,1.4.6,2h0c.3.4.3,1,.8,1.2l.8,1.1A1.3,1.3,0,0,1,118.3,153.8Z" style="fill: #3896d5"/>
    <path d="M92.6,95.6c0,.1,0,.2,0,.2a1,1,0,0,1-.1.4h0l-.2.2h-.4a1.6,1.6,0,0,1-1-.8V94.6c0-.3-.1-.5-.1-.8a12,12,0,0,0-.3-1.3v-.3h0c0-.1,0,0,0-.1s0,.1,0,.2h0a5.5,5.5,0,0,1-.5,2.9h-.3a2.8,2.8,0,0,0-2.8.3l-.3.2-.8.6h0c-.7.3-.9,1.1-1.5,1.5h-.2a.5.5,0,0,1-.4-.6h0V97c.1-.7.4-1.3.6-2h0v-.4h0c0-.6.3-1.1.3-1.7h0c.5-.9.5-2,1.1-2.9s-.2-.2-.1-.4.5-1.5,1.1-2.1h.2a3.7,3.7,0,0,1,4.1.9l.4.4c.4.2.2.7.5,1a9.3,9.3,0,0,1,.6,2.1h0v.2h0c.1.4,0,.7.1,1.1h0c0,.3,0,.6,0,.9S92.6,95,92.6,95.6Z" style="fill: #fdeb4a"/>
    <path d="M142.1,143.3c-1.4.8-3,.6-4.5.6a31.8,31.8,0,0,1-6.7-1.1h-1l-2-.9-.3-.2-.9-.4a5.6,5.6,0,0,1-1.6-1.3l-.3-.2-.8-.8-.2-.2h-.1l-.2-.3V138a.4.4,0,0,1,.2-.5h.4a6.4,6.4,0,0,0,1.4-.1h.6a1.9,1.9,0,0,1,1.9.3,14.4,14.4,0,0,0,4.7,1.8,83.2,83.2,0,0,1,8.8,3.1h.3C142.4,142.7,142.6,142.9,142.1,143.3Z" style="fill: #52b6f9"/>
    <path d="M139.7,171.4l-.3.3a6.2,6.2,0,0,1-2.5,0l-1-.3h0c-.8-.6-1.7-.9-2.5-1.3h0l-1.9-1.3-1.1-.8a28,28,0,0,0-2.2-2.4l-.6-.7h-.1a13.6,13.6,0,0,1-2.2-3.1c-.5-1-1-2-1.4-3h-.1c-.1-.6.2-.9.7-1.2h.4c1,1.1,1.7,2.5,2.7,3.6a24.6,24.6,0,0,0,11.7,8.5h.4v.2C139.9,170.4,139.6,170.9,139.7,171.4Z" style="fill: #52b6fa"/>
    <path d="M89.7,130.4a2.4,2.4,0,0,1-.4.7,15.7,15.7,0,0,1-2.3,2.7h-.1l-.5.4-.8.7h0l-1.9,1.2h0l-2.1,1h0c-1.3.4-2.5,1.1-4,.8s-.2-.4-.2-.6l.2-.2a22.5,22.5,0,0,1,3.4-2.9,46.3,46.3,0,0,0,5.7-5l.3-.2h2.6A.8.8,0,0,1,89.7,130.4Z" style="fill: #52b6f9"/>
    <path d="M125.4,156.2h-.1l-.2.3h0l-.5.6-.2.2h-.1a1.8,1.8,0,0,0-.8,1.1h0l-3.7,4.2a3.8,3.8,0,0,0-1.1,1.3h-.1l-.2.2h0c-.6.6-.6.8.2,1.7h.1l.2.2a3,3,0,0,1,.5,1.2c.1.5.2,1-.1,1.4h0l-.3.2c-.4.1-.7-.2-1.1-.3h0a4.3,4.3,0,0,0-2.3-.3h-.4a6.1,6.1,0,0,0-3.1,2.2h0a3,3,0,0,0-.2.9,2.6,2.6,0,0,0,.1.9,3.3,3.3,0,0,1,.1,1.3h0l-.2.7c-.5,1.1-1.3,1.4-2.7.8h0v-.2c.2-.2.6-.2.9-.2s.9-.4.8-1l-.2-.7c-.9-2.8,1.9-6.2,4.7-5.9.5.1,1.3.3,1.5-.3s-.6-.8-1-1.1-.3-.9.1-1.2,2.6-2.9,4-4.2a16.1,16.1,0,0,0,2.2-2.7,3.9,3.9,0,0,0,.4-1.6s0,0,0,0h0a19,19,0,0,0,2.3-.9h.3l.2.3A.9.9,0,0,1,125.4,156.2Z" style="fill: #e57f03"/>
    <path d="M153.8,134.1h-.3a41.8,41.8,0,0,0-5.7.9,33.8,33.8,0,0,1-14.2-.4h0l-.3-.4a.7.7,0,0,1-.1-.6l.2-.3.3-.2h1.2a22.5,22.5,0,0,0,3.8.4,46.9,46.9,0,0,0,6.8-.1h.1l2.2-.2h3.9a2.8,2.8,0,0,1,2,.5Z" style="fill: #3796d6"/>
    <path d="M157.8,105.1v.3c-.3.6-.9.8-1.4,1.2a57.5,57.5,0,0,1-12,8.3,43.6,43.6,0,0,1-8.9,3.2l-8.9,2.4h-1.1v-.2c.2-.3.7-.4.9-.7l.4-.3h.3l1.7-.4h.1l7.8-1.9,1.1-.4a24.8,24.8,0,0,0,3.7-1.2h.2c1.3-.5,2.5-1.3,3.8-1.8l3.8-2.5c2.8-1.8,5.5-3.8,8.1-5.7Z" style="fill: #afe8fc"/>
    <path d="M163.8,111.9l-.4.3c-3.9,3.5-7.8,7.2-12.7,9.4-1.2.5-2.5.8-3.7,1.4h-.3a.5.5,0,0,1-.3-.4c-.1-.3.2-.4.4-.6h.2l1.1-.4h.3c.3-.2.7-.2.9-.6l.6-.4a1.4,1.4,0,0,0,1.2-.7l2.3-1.4a6.4,6.4,0,0,0,2.7-1.9l.4-.4.9-.4,1.1-.8h0a23.4,23.4,0,0,1,4.6-2.8Z" style="fill: #3695d5"/>
    <path d="M72.7,112.9c0,.3-.3.4-.6.5h0l-.3.2h-.4c-.5-.8-1.4-1-2.1-1.5a23.5,23.5,0,0,1-7.2-8.1l-1.8-3h.4c1.1.7,1.7,1.8,2.8,2.4h.2a1.4,1.4,0,0,0,.4,1h0c.4.6.6,1.4,1.2,1.8s2.2,2.4,3.3,3.7a8.2,8.2,0,0,0,2.7,2.1h0l.3.2.6.2A.4.4,0,0,1,72.7,112.9Z" style="fill: #3795d5"/>
    <path d="M72.8,119.5h-.4c-.3-.5-.9-.4-1.4-.6a23.3,23.3,0,0,1-7.9-3.9,28.3,28.3,0,0,1-3.5-2.8h.6l1.6.4-.3-.8.4.2a12.6,12.6,0,0,1,1.9,1.8c.6,1,1.6,1.3,2.4,1.9h0a9.9,9.9,0,0,0,1.9,1h.1l2.8,1,.9.2h.2c.5.1,1,.2,1.2.8h0A.9.9,0,0,1,72.8,119.5Z" style="fill: #3695d7"/>
    <path d="M78.8,110.3h-.1c-.4.2-.7-.2-1-.4a24.9,24.9,0,0,1-4-3.9,41.9,41.9,0,0,1-6-9.6l-.9-2v-.3l-.3-.6L66,93l-.3-.5-.2-.2a6.8,6.8,0,0,1-.6-1.2h0a.3.3,0,0,1,0-.2c0-.1.2-.1.4.1a5.8,5.8,0,0,1,1.4,1.9A9.7,9.7,0,0,0,68,95.1a.8.8,0,0,1,.2.8c.5.4.5,1.1,1,1.5a40.2,40.2,0,0,0,4.3,6.6l.4.6c1.2,1.2,2.3,2.5,3.6,3.6l.4.3.2.2.3.3A2,2,0,0,1,78.8,110.3Z" style="fill: #aee7fc"/>
    <path d="M142,142.5h-.2c-.8.1-1.5-.5-2.2-.8-2.8-1-5.6-1.9-8.4-2.7a8.5,8.5,0,0,1-3.1-1.4,1.7,1.7,0,0,0-2-.3,1.1,1.1,0,0,1,0-.3c.1-.6.8-.6,1.2-.9h.2l.8.2.7.3,1.2.7a25.9,25.9,0,0,0,6.9,2l1.1.3h.3l.4.4h.1c.6.2.9.8,1.6.8S141.9,141.7,142,142.5Z" style="fill: #3797d6"/>
    <path d="M46.4,43.6a9.7,9.7,0,0,1-3.7-2.8c-.7,3-1.9,5.5-2.8,8.2.7.3.3.8.1,1.1l-.5,1,.6-1.2a.6.6,0,0,0-.2-.8c-1.2,1.7-1.9,3.8-3.6,5.2-1.3-1.5-2.7-2.5-4.7-2.4a2.4,2.4,0,0,0-2.3,3.4c1,2.3,5.4,3.8,7.3,1.4a33.5,33.5,0,0,0,5.7-10.4c.3-.8.2-1.9.7-2.4s1.6.5,2.5.4h.1C45.9,44.1,46.4,44.4,46.4,43.6ZM30.5,55.3c-.8-1-.5-1.7.8-2.2h.2a3.3,3.3,0,0,1,3.4,1.3H35c.5.5,1.1.8,1.7.5l-1.1.9A3.7,3.7,0,0,1,30.5,55.3Z" style="fill: #c62827"/>
    <path d="M91,133.8c0,.1,0,.2,0,.4h0v.2h0v.3h-.1l-.2.2-2,1.3-1,.5c-.4.2-.8.4-1.1.1s-.1-.7.1-1.1v-.3h.1l.4-.7a18.5,18.5,0,0,1,1.5-1.8,14.3,14.3,0,0,0,1.3-1.7v-.2h.5l.2.2v.7h0c0,.3.1.7.2,1h0C91,133.4,91,133.6,91,133.8Z" style="fill: #51b6fa"/>
    <path d="M107.4,154.1l-.7.4a2.2,2.2,0,0,1-1.6.1h-.5a9.6,9.6,0,0,1-2.3-1.2,1.5,1.5,0,0,0-.8-.4h-.2c.2-.8-.4-1.2-.7-1.7s-.1-.4,0-.5h.1l.5.2a38.7,38.7,0,0,0,4.3,1.8l1.9.6.4.2C107.9,153.5,107.8,153.8,107.4,154.1Z" style="fill: #3894d2"/>
    <path d="M132,144.8h-.1l-5.7-3.4c-1.6-1-3.1-2.1-3.9-4.1-.1-.3-.5-.4-.8-.6h.3c.6-.1,1.1.3,1.6.5v.2h0a1.1,1.1,0,0,0,.2.6l.3.4h.1c.5.3.7,1,1.4,1.1l1.2,1.3c1.3.7,2.6,1.1,3.9,1.9l.4.3h.1l.7.8C131.4,144.3,132.2,144.4,132,144.8Z" style="fill: #3896d5"/>
    <path d="M87.1,129.1h0c-1.4,2-3.4,3.3-5.2,4.8s-2.6,1.9-3.7,3l-.5.3h-.2c-.3-.3.1-.4.1-.7l2.8-2.8h.1v-.2a5,5,0,0,1,1-1h.1l.2-.2a8.1,8.1,0,0,0,1.7-1.5l.3-.5a1.4,1.4,0,0,1,.9-.9h.3a4.3,4.3,0,0,0,.8-.8c.2-.2.4-.5.7-.4A.6.6,0,0,1,87.1,129.1Z" style="fill: #3796d5"/>
    <path d="M101.2,154.1a53.5,53.5,0,0,1-6,7.1,3.8,3.8,0,0,1-1.7.7,13.4,13.4,0,0,0-5.6,2.9l-.6.7a6.9,6.9,0,0,1,1-1.6h0a.5.5,0,0,1,.3-.4c.2-.1.4-.2.4-.4s.6-.6,1-.7a4.9,4.9,0,0,0,2.1-.7l.8-.3h0c.7.1,1.2-.3,1.7-.7h0a10.7,10.7,0,0,0,2.7-2.9A18.3,18.3,0,0,0,101,153l.2.2C101.5,153.4,101.5,153.7,101.2,154.1Z" style="fill: #fbcf6b"/>
    <path d="M78.3,90.2a12.2,12.2,0,0,1-6.1,3.1,2,2,0,0,1-2.3-2.1c0-.5,0-1.1.8-1,.1,1.8.1,1.8,1.1,2.3s0-1.1.5-1.5c.5,1.6,1.5,1.2,2.5.6l1-.5c1.2-.5,1.8-1.2,1.2-2.6a11.8,11.8,0,0,1-.5-2.6A17.3,17.3,0,0,1,71.3,88,2.1,2.1,0,0,1,69,85.3c.1-.2.2-.5.6-.4s0,1.2.4,1.7.4.6.7.5.3-.5.3-.8-.2-.8.4-.8c.2,1.7,1.2,1.5,2.3.9l3.3-1.7h.1v.3h0v.2a8.8,8.8,0,0,1,.1.9,6.4,6.4,0,0,0,.3,2.2c.1.2,0,.6.4.3h.3A.8.8,0,0,1,78.3,90.2Z" style="fill: #ae55b1"/>
    <path d="M67.3,62.7l-.5-.3a1.1,1.1,0,0,1,.2,1.5,32.2,32.2,0,0,1-5.5,6.6c-.6.6-1,.4-1.5-.1h0a3.5,3.5,0,0,0-3.6-2.3,1.9,1.9,0,0,0-1.9,2.2c.1,2.6,3.8,4.4,5.8,2.9A27.7,27.7,0,0,0,69,62C68.4,62.1,67.9,62.9,67.3,62.7ZM59,72.6c-1.1.2-1.9-.5-2.7-1.1a1.5,1.5,0,0,1-.8-1.5A1.3,1.3,0,0,1,57,69h.4c.8.3,1.4,1,2.1,1.5H60a.5.5,0,0,0-.1.7C60.6,72.3,59.7,72.4,59,72.6Z" style="fill: #c08d35"/>
    <path d="M69,62c-.5.7-1,1-1.7.7l-.5-.3a8.5,8.5,0,0,1-1.9-2.3c-.8-1.4-1.6-2.8-2.5-4.1a1.4,1.4,0,0,1,0-1.8h0c.5-.8,1-.4,1.5,0,1.4,2.4,2.5,5.1,4.8,7C68.9,61.3,69.3,61.5,69,62Z" style="fill: #f8ca0e"/>
    <path d="M119.7,154.7a.2.2,0,0,1-.1.3h-.2a5.7,5.7,0,0,0-2.7-.4,26.3,26.3,0,0,1-7.3-.7c-.9-.2-1.5.3-2.1.7H107a2.8,2.8,0,0,1-2.4,0l-.3-.2a5.7,5.7,0,0,1-2.1-1.3l.5.2a13.1,13.1,0,0,0,2.1.9,3,3,0,0,0,2.4-.4.8.8,0,0,0,.4-.5c0-.3-.3-.3-.4-.3a35.1,35.1,0,0,1-5.1-1.9l-.4-.2h-.2l-.4-.2h-.4c-.1,0-.1.1-.1.3a3.3,3.3,0,0,0-1.5-1.4h.4a33.2,33.2,0,0,0,10.6,3.9,41.2,41.2,0,0,0,7.5.6c.6,0,.5-.4.5-.6a.2.2,0,0,1,.1-.2A6.2,6.2,0,0,0,119.7,154.7Z" style="fill: #1c5d8c"/>
    <path d="M60.5,58.4a3.8,3.8,0,0,1-1.1,1.4c-1.6,1.5-3,3.1-4.9,4.3a2.9,2.9,0,0,1-3.5-.4c-1.1-.8-2.4-1.6-1.7-3.4l.6-.5c.4-.3.9-.1,1.4-.1l.2.2h.1c.6.8.9,2,2.3,1.6h.1a1.1,1.1,0,0,1,.6.6c.2.4.5.5.8.1h0a16.3,16.3,0,0,0,3.9-4c0-.1,0-.2.2-.2s.6-.9,1.1-.5S60.5,58.2,60.5,58.4Z" style="fill: #fbcb0c"/>
    <path d="M71.9,76.7a21.3,21.3,0,0,1-5.2,2.8,3.3,3.3,0,0,1-4.5-2.9c-.2-1.5.9-2.2,2.6-1.9l-.4.5c-1.3,1-1.3,2.2.1,3.1s.8.5,1.2.3.2-.8.1-1.3h0l-.2-.4-.4-.9-.2-.4v-.3a.9.9,0,0,1,.1-.5A3,3,0,0,1,66.7,77c.2,1.1.7.9,1.4.6l2.5-1.1C71.1,76.3,71.5,76.1,71.9,76.7Z" style="fill: #227f22"/>
    <path d="M131.7,110.8l-.2.3h0c.1-.4.1-.9.2-1.3s.7-2.5.8-3.8a24.8,24.8,0,0,0,.1-7v-.3a23.2,23.2,0,0,0-1.3-5h-.1v-.4a.4.4,0,0,1,.1-.3C133.8,98.9,133.6,104.8,131.7,110.8Z" style="fill: #376689"/>
    <path d="M104.3,76.2a7.2,7.2,0,0,0-3.2,1.7,8.3,8.3,0,0,0-1.1,1.7c-.1.2-.2.6-.6.5s-.2-.5-.2-.7.3-.6.2-1h.1V78l.2-.3.3-.3.7-.6h.1a.7.7,0,0,1,.7-.3h.1A7,7,0,0,1,104.3,76.2Z" style="fill: #a4e0fb"/>
    <path d="M142.1,143.3c-.3.7-1,.6-1.6.7a23.4,23.4,0,0,1-8.5-.8c-.3-.1-.7-.5-1.1-.1h-.1l-.9-.5-2-.9-.3-.2-1-.6c.4-.1.7.1,1,.3a22.1,22.1,0,0,0,3.9,1.6h0l.9.2,1.5.4,2.8.4h3.8A10.2,10.2,0,0,0,142.1,143.3Z" style="fill: #336c96"/>
    <path d="M132.3,148.8H132l-.5-.4-3-3a2.3,2.3,0,0,0-1.4-.8v1.2h0c0,.1.1.3,0,.4h-.3c0-1-.1-2.1-1.2-2.6l2.2.9,1.5.5,1.3.2,1.2-.2h.1a.4.4,0,0,0-.1-.3h-.1c-.1-.1-.3-.3-.3-.4h0V144c.3.4.8.8.5,1.2s-.8.2-1.2.2a12,12,0,0,0-2.2-.2h0Z" style="fill: #326d94"/>
    <path d="M66.2,78.9a1.6,1.6,0,0,1-2-.2,3.4,3.4,0,0,1-1.4-2.2c-.3-1.6,1.2-1.2,2-1.8h.1v1.2a2.1,2.1,0,0,0,.4.9l.7.5C66.3,77.8,67,78.4,66.2,78.9Z" style="fill: #0bcb06"/>
    <path d="M59.3,59.9a17.7,17.7,0,0,1-4.9,4.6,4,4,0,0,1-5.8-2.8c-.1-.5-.1-1.1.5-1.4-.1,1.8,1.2,2.6,2.4,3.4s2.4.3,3.7-.4S57.6,60.6,59.3,59.9Z" style="fill: #c1881f"/>
    <path d="M74.9,130.6a.4.4,0,0,1,0,.1h0a16,16,0,0,1-3.5,1.9l-.8.4h-.4a.7.7,0,0,1-.7.1h0a.3.3,0,0,1,.1-.4,40.5,40.5,0,0,0,3.9-1.8h0a22.1,22.1,0,0,1-5.6-.7h1.4a19.7,19.7,0,0,0,5.7.1v.2Z" style="fill: #3e7299"/>
    <path d="M80.2,101.1h0l-.4.9a5.2,5.2,0,0,0-.6,1.5l-.3.8a8.8,8.8,0,0,0,.4,6.2,5.5,5.5,0,0,1,.7,1.8h-.3a3.1,3.1,0,0,1-.9-1.8h0v-.8a3.1,3.1,0,0,0-.5-.8l-.2-.2c.6,0,.3-.4.3-.7a10.3,10.3,0,0,1,1.4-6c.2-.3.2-.6.6-.7Z" style="fill: #ab8a40"/>
    <path d="M145.2,170.1a9.4,9.4,0,0,1-4.4-.5l-1.2-.4c.2.8.5,1.5,0,2.2a.7.7,0,0,1-.1-.4c0-.4.1-.7,0-1.1l-.2-.3a3.2,3.2,0,0,1-.8-1h.3c1.5.3,2.8,1,4.3,1.2a5.8,5.8,0,0,0,2.2-.1c1-.3,1.1-.5.7-1.5a.9.9,0,0,1-.1-.4h.2C147.4,168.9,147.1,169.7,145.2,170.1Z" style="fill: #366c91"/>
    <path d="M153.7,134l-.7-.2-1.8-.2h-1.1c-1.2.2-2.4,0-3.6.1h-1.1l4-.8h.6c-.3.3-.8.1-1,.5a16.5,16.5,0,0,1,3.3-.1C152.8,133.4,153.5,133.2,153.7,134Z" style="fill: #30678d"/>
    <path d="M71.5,86.7c-.1.3,0,.6-.3.8a.8.8,0,0,1-1-.2,1.8,1.8,0,0,1-.6-2.4c.6.1,1.5-.5,1.9.6S71.6,86.3,71.5,86.7Z" style="fill: #f47ff6"/>
    <path d="M103.4,81.9a3.2,3.2,0,0,1-3.5.5,2.4,2.4,0,0,1-1.2-2.9c.2-.7,0-.9-.3-1h-.6a3.3,3.3,0,0,1,1.7-.4h-.1c-.8,1.5-.7,2.5.2,3.5l.9.2a4.6,4.6,0,0,0,1.8-.2c.3-.1.6-.3.9-.2h.2Z" style="fill: #256997"/>
    <path d="M164.1,105.6a8.9,8.9,0,0,0,.4-2.2c0-.7-.4-.8-.9-.6a5.2,5.2,0,0,0-1.8,1.1h-.2v-.2h0a9.4,9.4,0,0,1,2.2-1.5h-.3c.8-.3,1.3,0,1.4.9a5.2,5.2,0,0,1-.7,3.4A3.5,3.5,0,0,1,164.1,105.6Z" style="fill: #3b719a"/>
    <path d="M64.9,60.1c-1.2-1.1-1.8-2.6-2.7-4l-1.8,2.4c-.2-1.4-.8.2-1.1-.2a32.3,32.3,0,0,1,3.1-4.2h0c-.3,1.7,1.1,2.7,1.6,4.1S65,59.2,64.9,60.1Z" style="fill: #b98a3a"/>
    <path d="M63.9,103.3h-.2a20.5,20.5,0,0,1-1-10.3h.1v.4a34,34,0,0,0,.1,4.3h0c.1.9.2,1.8.4,2.7a24.7,24.7,0,0,0,.6,2.5Z" style="fill: #366488"/>
    <path d="M71.9,92.9c-1,.1-1.3-.6-1.5-1.4a1.6,1.6,0,0,1,.3-1.3,1.5,1.5,0,0,1,1.6.8,1.9,1.9,0,0,1,0,.5C72.1,92,72.8,92.8,71.9,92.9Z" style="fill: #f882fa"/>
    <path d="M60.8,110.4a13.7,13.7,0,0,1-2.2-9,.8.8,0,0,1,.4-.8,12.4,12.4,0,0,0-.2,1.6v.4a0,0,0,0,1,0,0v.2a13,13,0,0,0,.5,3.6,17.5,17.5,0,0,0,1.2,3.1h0v.2C60.6,109.8,60.8,110.1,60.8,110.4Z" style="fill: #366c91"/>
    <path d="M78.8,134.4c-3.1,1.3-6.3,1.8-9.6.3h.3a15.1,15.1,0,0,0,8.8-.4h.5Z" style="fill: #366c92"/>
    <path d="M147.4,138.9a24,24,0,0,1-8,1c-.4,0-.4,0-.5.3a.2.2,0,0,1,0,.2h-.1l-.4-.4v-.2h0v-.2h.5a30.8,30.8,0,0,0,4.1-.2h1.4l2.6-.4h.3Z" style="fill: #437291"/>
    <path d="M136.7,117l-1.6.5-6,1.4h-.2a.1.1,0,0,1,0-.1h.1c2.4-.8,4.9-1.2,7.4-1.9Z" style="fill: #5f7f8f"/>
    <path d="M151.9,164.9c0,.7-.6.8-1.1,1a10.7,10.7,0,0,1-5.1-.4l-1.4-.5h.2c1.9.6,3.9,1.2,5.9.8l.7-.2h.1C151.5,165.4,151.7,165,151.9,164.9Z" style="fill: #3b7094"/>
    <path d="M92.2,135h0a2.9,2.9,0,0,1-.3,1.4c-.3.2-.2-.8-.6-.2h-.2l-.4-1.4h0v-.2c0-.2,0-.5.2-.6H91a2.2,2.2,0,0,0,1,.5h.1A.3.3,0,0,1,92.2,135Z" style="fill: #4091c8"/>
    <path d="M121.9,82.8h-.3l-.5-.2-4.6-2.1-.8-.4h.3A24.4,24.4,0,0,1,121.9,82.8Z" style="fill: #36688c"/>
    <path d="M159.9,113.1l-1.4,1.7h0a2.3,2.3,0,0,1-1.5,1.1h-.4a21.9,21.9,0,0,0,2.8-2.5c.1-.1.2-.5.4-.5h.2Z" style="fill: #29628c"/>
    <path d="M105.7,75.7h-1.5l-1.6.2h0l-.8.4h-.4l-.5.2c.2-.8,1-.7,1.5-.9a4.3,4.3,0,0,1,1.9-.2c.2-.4-.4-.3-.4-.6h.3A4,4,0,0,1,105.7,75.7Z" style="fill: #31658d"/>
    <path d="M66.3,93.6H66l-1-2c-.3-.6-.5-1.2-1.2-1.1l-.6.2c.7-.9,1.2-1,1.9-.2h-.3V91l.7,1.1A10.4,10.4,0,0,1,66.3,93.6Z" style="fill: #2c6b95"/>
    <path d="M165,113.5a6.8,6.8,0,0,1-1.4,3.9,1.9,1.9,0,0,1,.2-.8h0a10.6,10.6,0,0,0,.6-1.2,5.2,5.2,0,0,0,.1-3.2v-.3C164.8,112.3,165,112.6,165,113.5Z" style="fill: #427599"/>
    <path d="M63.9,122.2h-.1a3.3,3.3,0,0,1-1.7.2H60.5c-.5.2-.5.7-.5,1.2h-.2c-.2-1,.2-1.5,1.2-1.7a9.8,9.8,0,0,1,2.2-.2c-.1-.5-.6-.4-.7-.8h.4l.9.6A.4.4,0,0,1,63.9,122.2Z" style="fill: #2c6187"/>
    <path d="M53.9,61.1a4.3,4.3,0,0,0-.1.5h0c-.9.8-1.5.1-2.2-.4s-.7-.8-.2-1.3h.1c.6-.3,1,.5,1.6.3A1.6,1.6,0,0,1,53.9,61.1Z" style="fill: #f6dc7b"/>
    <path d="M74.9,73.3a7.9,7.9,0,0,1-3,3.3l-1.2-.2Z" style="fill: #267e26"/>
    <path d="M77.5,108.2l-.7-.5a13.3,13.3,0,0,1-2.3-2.3h0l-.6-.8c.7.2,1,.9,1.4,1.4A13.2,13.2,0,0,1,77.5,108.2Z" style="fill: #527287"/>
    <path d="M120.2,169.8h-.6a4.2,4.2,0,0,1-1.7-.7h.6a.9.9,0,0,0,.8-.2c.2-.2.2-.6,0-1.2v-.2l-.3-.8v-.4h.1a3.2,3.2,0,0,1,.8,2.8C119.5,169.6,119.7,169.7,120.2,169.8Z" style="fill: #9f4e1e"/>
    <path d="M159.8,126.4a1.1,1.1,0,0,1,.1-.6l.2-.4v-.4h0c0-.3.2-.7-.1-1H160a2.4,2.4,0,0,0-1,.2,1.3,1.3,0,0,1-.9,0h0c.8-.1,1.7-.7,2.3.1S160.3,125.7,159.8,126.4Z" style="fill: #3b6b8d"/>
    <path d="M58.7,111.5h0c-1-.1-1.2.4-1.3,1.3a4.1,4.1,0,0,0,.2,1.1l.3,1.2a3.9,3.9,0,0,1,.1.8,6.1,6.1,0,0,1-.8-3.7c.1-1,.5-1.2,1.5-.8Z" style="fill: #326386"/>
    <path d="M130.3,168a10.9,10.9,0,0,1-2.9-3.1h-.1l.6.6,2.3,2.3h.1Z" style="fill: #336383"/>
    <path d="M145.5,113.5l-.6.4a17.7,17.7,0,0,1-2.7,1.3h-.7l3.7-1.9C145.2,113.3,145.4,113.2,145.5,113.5Z" style="fill: #557387"/>
    <path d="M68.1,130.2h-.2a9.6,9.6,0,0,1-4-1.7l.8.2,1.4.6.8.3h.3Z" style="fill: #386b8e"/>
    <path d="M141.7,115.3h-.1l-.6.3a10.5,10.5,0,0,1-2.3.8h-.9a28.7,28.7,0,0,1,3.6-1.3h.3Z" style="fill: #5e7d8c"/>
    <path d="M97.5,158.1h0a11.4,11.4,0,0,1-2.4,2.4l-.5.3h0l2.7-2.9Z" style="fill: #a37147"/>
    <path d="M84,98.3h-.5c-.2-.2-.4-.3-.6-.1h-.1c.2-.4-.2-.5-.4-.7s.8-.2.9-.7h.2a.2.2,0,0,1,0,.1h0c0,.3.1.5.4.6H84C84.3,98,84.1,98.2,84,98.3Z" style="fill: #1c1105"/>
    <path d="M87.5,86.1a2.3,2.3,0,0,1-.7,1l-.2.2c-.4.5-.4,1.2-.8,1.7l-.4.4A17.5,17.5,0,0,1,87,86h.5Z" style="fill: #a8873d"/>
    <path d="M81.7,132.9c-.4.3-.6.8-1,.9h-.2c-.7-.2-1.1.5-1.7.5h0v-.2a4.8,4.8,0,0,1,2.6-1.4h.2A.2.2,0,0,1,81.7,132.9Z" style="fill: #29628a"/>
    <path d="M155.5,130.6a11.7,11.7,0,0,1-3.6,1.8.3.3,0,0,1,0-.1h0l.8-.4,1.9-.9Z" style="fill: #386a8f"/>
    <path d="M80.4,134l-.4.6a9.3,9.3,0,0,1-1.6,1.6l-.7.5A14.7,14.7,0,0,1,80.4,134Z" style="fill: #416488"/>
    <path d="M108.2,71.6h0l-1.7-.2h0l-1.5.2-1.2.4a4,4,0,0,1,4.4-.4h0Z" style="fill: #386c8f"/>
    <path d="M81.6,137.2h0a4.8,4.8,0,0,1-4,.8h1.3l1.6-.4,1.1-.2Z" style="fill: #437190"/>
    <path d="M144.6,165.8h-.4c-.6-.3-1-.9-1.5-1.3h0l1.8.6h-.2c-.1.1-.4-.1-.3.2A2.8,2.8,0,0,0,144.6,165.8Z" style="fill: #285e87"/>
    <path d="M87.1,134.6v.2a2,2,0,0,1-.4.8h-.3l.2-1.1c-.5,0-.6.6-1.1.5h0l.2-.3c.3-.4.7-.6,1-1H87C87.3,133.9,87.2,134.3,87.1,134.6Z" style="fill: #32668c"/>
    <path d="M88.5,136.4c-.1.3-.4.4-.7.5s-1.1.7-1.6.3,0-1.1.1-1.6h.2a3.3,3.3,0,0,1-.2.6h0a.5.5,0,0,0,.1.6.5.5,0,0,0,.6.1l.5-.3.4-.2h.6Z" style="fill: #306388"/>
    <path d="M59.2,58.4a7.5,7.5,0,0,1-3.9,4h0Z" style="fill: #b08639"/>
    <path d="M78.4,88.9h-.3a4.1,4.1,0,0,1-.8-2.5h0c0-.3,0-.5-.1-.8v-.2h0v-.3H77c.4-.3.9-1,.9.2S78.3,87.5,78.4,88.9Z" style="fill: #a155a4"/>
    <path d="M94.5,79.6h0l-.7.4-1.7.9-.7.3h0A5.7,5.7,0,0,1,94.5,79.6Z" style="fill: #256997"/>
    <path d="M84.3,94.6a7.6,7.6,0,0,1-.8,2.6h-.2l.4-1.7c.3-.2.2-.6.4-.7h.2Z" style="fill: #ab8133"/>
    <path d="M150.4,137.7a12.1,12.1,0,0,1-3.1,1.1h-.1l.8-.3,1.6-.6Z" style="fill: #407196"/>
    <path d="M49.4,43.8a7,7,0,0,1-4.1.4h.1l.9-.5Z" style="fill: #622d2b"/>
    <path d="M97.8,78.6h0l-.9.4-1.6.5h0l-.8.2a7.5,7.5,0,0,1,3.3-1Z" style="fill: #256997"/>
    <path d="M116,80.1h-.8c-1.2-.3-1.6-.4-1.7-1h0a4,4,0,0,1-.1-.5h0C113.7,79.7,115.1,79.6,116,80.1Z" style="fill: #41708e"/>
    <path d="M131.4,111.1h0a9.6,9.6,0,0,1-1.1,3.1,3,3,0,0,1,.1-.8,6.5,6.5,0,0,1,.6-1.5l.4-.8h0Z" style="fill: #3c6687"/>
    <path d="M125.1,161.7a7.6,7.6,0,0,1-1.4-3l.4.6a9.1,9.1,0,0,1,.8,1.7Z" style="fill: #386a8c"/>
    <path d="M93.9,144.2a7.2,7.2,0,0,1-1.4-3h0l.4.6a9.2,9.2,0,0,1,.8,1.6Z" style="fill: #376a8c"/>
    <path d="M91.9,139.5h0a8.3,8.3,0,0,1-.8-3.1h.2l.4,2h0Z" style="fill: #346a90"/>
    <path d="M61.7,120.7a8.5,8.5,0,0,1-2.1-2l.6.3a4.6,4.6,0,0,1,1.2,1.2Z" style="fill: #37698e"/>
    <path d="M118.8,166.2v.2h0l-.2-.2h-.1c-.8-.8-.9-1-.1-1.5l.4-.3-.2.2h0C117.9,165.2,118.1,165.7,118.8,166.2Z" style="fill: #a75529"/>
    <path d="M159,127.7a9.7,9.7,0,0,1-2,1.9l.3-.6,1-1,.6-.3Z" style="fill: #396687"/>
    <path d="M97.6,148.5a8.8,8.8,0,0,1-2.2-2.2l.6.4a5.6,5.6,0,0,1,1.2,1.2Z" style="fill: #3d6180"/>
    <path d="M85.6,89.8l-.3.9h0a13.9,13.9,0,0,1-.4,1.4l-.3.7h-.1C84.8,91.7,84.8,90.6,85.6,89.8Z" style="fill: #ab8a3c"/>
    <path d="M100.8,76.7l-.2.3a6.7,6.7,0,0,1-1.1,1.3h-.1a.2.2,0,0,1,0-.1h0C99.4,77.2,100.1,77,100.8,76.7Z" style="fill: #52b6fa"/>
    <path d="M135,151.3l-.6-.3a3,3,0,0,1-1.2-1.2l-.2-.4Z" style="fill: #34688e"/>
    <path d="M103.5,74.3l.5.7h0c-1.2-.6-1.4-1.3-.7-2.6a3.4,3.4,0,0,0,0,.9A2.7,2.7,0,0,0,103.5,74.3Z" style="fill: #325f81"/>
    <path d="M84.6,92.7v1.8a.8.8,0,0,0-.2.4h-.1a.5.5,0,0,1-.3.3l.7-2.7h.1Z" style="fill: #a7883c"/>
    <path d="M111.7,74.4l-.4-.4-1.1-1.1-.4-.5h0A3.4,3.4,0,0,1,111.7,74.4Z" style="fill: #437394"/>
    <path d="M124,84.2h-.4l-1.6-1.2-.3-.2h.3Z" style="fill: #29587d"/>
    <path d="M81.9,99.2l-.2.5a4.2,4.2,0,0,1-1,1h0l-.5.4h0A4.6,4.6,0,0,1,81.9,99.2Z" style="fill: #aa8632"/>
    <path d="M135.8,171.4a6.5,6.5,0,0,1-2.5-1.4h0l.6.2,1.3.7h0l.5.5Z" style="fill: #366383"/>
    <path d="M128.9,118.9h0l-2.2.7h-.3a.8.8,0,0,1,.6-.7h.1c.6.2,1.2-.3,1.8-.2h0Z" style="fill: #607278"/>
    <path d="M68,95.1l-.5-.4a3.5,3.5,0,0,1-.7-1.3l-.2-.6A9.8,9.8,0,0,1,68,95.1Z" style="fill: #517084"/>
    <path d="M69.5,132.8v.3h0a1.2,1.2,0,0,0-.2,1.2v.2h-.1C68,134,68.1,133.7,69.5,132.8Z" style="fill: #2f5c7e"/>
    <path d="M153,136a7.2,7.2,0,0,1-2.2,1.5l.4-.5a4,4,0,0,1,1.2-.8Z" style="fill: #386a89"/>
    <path d="M60.9,100.9h-.4a1.2,1.2,0,0,0-1-.4H59C59.7,99.7,60.3,100.6,60.9,100.9Z" style="fill: #457697"/>
    <path d="M85.6,135h0a3.5,3.5,0,0,1-1.9,1.2h0l.4-.4h0l1-.6Z" style="fill: #37668a"/>
    <polygon points="85.6 135 85.6 135 85.6 135 85.6 135" style="fill: #37668a"/>
    <path d="M83.7,136.2h0a3.6,3.6,0,0,1-2.1,1h0l.4-.3,1.2-.6h.5Z" style="fill: #3b6c8d"/>
    <path d="M133.3,170.1h0a4.3,4.3,0,0,1-1.9-1.3l.5.2a3.5,3.5,0,0,1,1.1.7l.3.4Z" style="fill: #325a7d"/>
    <path d="M113.5,78.2h-.1l-.2-.4a6.6,6.6,0,0,1-.4-1.1,3.9,3.9,0,0,1-.1-.7A5.3,5.3,0,0,1,113.5,78.2Z" style="fill: #3a6b90"/>
    <path d="M92.2,161.7l-.5.4a2.1,2.1,0,0,1-1,.4h-.6Z" style="fill: #9f7247"/>
    <path d="M139.4,171.7a2.9,2.9,0,0,1-2.5,0Z" style="fill: #305a76"/>
    <path d="M158.1,124.1H158a1.3,1.3,0,0,1-1.9.4l-.2-.2.3-.3h0c.6.4,1-.2,1.6-.1Z" style="fill: #396889"/>
    <path d="M146.2,167.4H146a2.2,2.2,0,0,1-1.3-1.3h0v-.3A5.6,5.6,0,0,1,146.2,167.4Z" style="fill: #466c8e"/>
    <path d="M91,134.1H91v.2h0a.7.7,0,0,1-.1.5h-.3v-.2c.2-.6,0-1.2.1-1.8H91C91.2,133.5,91.4,133.8,91,134.1Z" style="fill: #1b4966"/>
    <path d="M140.5,141.1h-.3a1.5,1.5,0,0,1-.8-.5l-.3-.2h-.2v-.2Z" style="fill: #305e82"/>
    <path d="M53.1,60.2c-.7.5-1-.4-1.6-.3H49.7C51,58.9,52,59.5,53.1,60.2Z" style="fill: #af7c27"/>
    <path d="M143.9,158.2l-.5-.2-.9-.6-.3-.3A2.6,2.6,0,0,1,143.9,158.2Z" style="fill: #3c698a"/>
    <path d="M147.8,160.7l-.5-.2-.9-.6-.3-.3A2.6,2.6,0,0,1,147.8,160.7Z" style="fill: #3c688a"/>
    <path d="M95.4,146.2c-.4-.5-.9-.9-1-1.6l.3.2c.3.3.4.7.7.9s0,.1,0,.2h0Z" style="fill: #305a7e"/>
    <path d="M62.4,127.7l-1.1-1.1h.3a1.2,1.2,0,0,1,.7.7Z" style="fill: #40698f"/>
    <path d="M94.7,160.7l-.3.3a1.3,1.3,0,0,1-.9.4H93l1.7-.7Z" style="fill: #9d6c41"/>
    <path d="M109.8,72.5h-.4l-.8-.4-.4-.3h0a2.2,2.2,0,0,1,1.7.8Z" style="fill: #386c8f"/>
    <path d="M60.4,112l-.3.2h-.3l-.7-.4-.3-.3h0C59.3,111.5,59.8,111.9,60.4,112Z" style="fill: #225a81"/>
    <path d="M55.3,62.4c-1.3,1.7-.8-.8-1.5-.7h0c-.1-.2-.1-.4.2-.5s.4,1.3,1.3,1.3Z" style="fill: #ae822c"/>
    <path d="M89.8,82.2a1.1,1.1,0,0,1-.1.3,1.8,1.8,0,0,1-.7.8l-.3.3h0C88.8,82.9,89.4,82.6,89.8,82.2Z" style="fill: #456078"/>
    <path d="M60.7,125.6a3.2,3.2,0,0,1-.8-1.8h.2v.4l.4.9A1.8,1.8,0,0,1,60.7,125.6Z" style="fill: #3f6e90"/>
    <path d="M151.9,132.4a5.4,5.4,0,0,1-1.8.5h0l.6-.2.8-.2h.4A.3.3,0,0,0,151.9,132.4Z" style="fill: #346789"/>
    <path d="M163.6,107.1a3,3,0,0,1-.8,1.8,2.1,2.1,0,0,1,.1-.5h0a3.1,3.1,0,0,1,.4-.9Z" style="fill: #457390"/>
    <path d="M92.5,141.2h0a2.4,2.4,0,0,1-.6-1.7h0l.3.4h0a2.2,2.2,0,0,1,.3.8,3.4,3.4,0,0,1,0,.5Z" style="fill: #346a90"/>
    <path d="M119.9,163a6.1,6.1,0,0,1-1.1,1.3v-.5a1.5,1.5,0,0,1,.6-.7Z" style="fill: #9b542a"/>
    <path d="M63.1,92.1h0a2.3,2.3,0,0,1-.2.7V93a3.5,3.5,0,0,1,.3-1.4A1.5,1.5,0,0,1,63.1,92.1Z" style="fill: #286287"/>
    <path d="M63.8,54.1c-.5-.1-1-.4-1.5,0h0c-.1-.5.2-1.1.6-1.1S63.6,53.6,63.8,54.1Z" style="fill: #b98a3a"/>
    <path d="M128.2,117.7a3.2,3.2,0,0,1-1.1,1.2v-.3a1.6,1.6,0,0,1,.6-.7Z" style="fill: #a78034"/>
    <path d="M136.6,152.8h-.5a1,1,0,0,1-.7-.7v-.3Z" style="fill: #3b6888"/>
    <path d="M69.2,97.4l-.4-.2a2,2,0,0,1-.4-.8l-.2-.4C68.9,96.1,68.8,96.9,69.2,97.4Z" style="fill: #516d7c"/>
    <path d="M122.7,157.8a17.3,17.3,0,0,1-2,2.7l-5,5.2c.5.4,1.1.5,1.4,1s.4.5.2.9-.5.3-.8.3h-1.1c-2.7-.4-5.4,3.1-4.5,5.6a2.8,2.8,0,0,1,.1.4c.3,1.5.2,1.6-1.2,1.6h-.7l-.6-.4h0l-.2-.4a7.8,7.8,0,0,1-.3-4.5,4.6,4.6,0,0,1,.4-1.2l-.6,1.2a3.7,3.7,0,0,0-.3,1.4,5.8,5.8,0,0,0,.2,1.7h0a1.8,1.8,0,0,1,.2.7h0l-.2.2h0c-.5.4-1,0-1.5-.3s-.4-.5-.7-.7a.7.7,0,0,1-.3-.7v-.5h0v-.6h0a8.1,8.1,0,0,1,.2-1.8h0l.3-.7a6.8,6.8,0,0,1,4.6-3.6,9.8,9.8,0,0,0,5.1-3.2,27.7,27.7,0,0,0,3.5-4.6,2.8,2.8,0,0,0,.5-1h0a1,1,0,0,0,0-.4v-.2a.8.8,0,0,1,.5-.8h.1a6.4,6.4,0,0,1,2.8,1h0A1.1,1.1,0,0,1,122.7,157.8Z" style="fill: #fca307"/>
    <path d="M107.3,154.6a.9.9,0,0,1-.4.7,44.6,44.6,0,0,1-6.1,4.9l-.5.3-.6.6-.4.4h0a4.3,4.3,0,0,0,1.1.5h.2a1.3,1.3,0,0,1,.5.6v.2a2.9,2.9,0,0,1,.3,1.3,1.6,1.6,0,0,1-.2.7.7.7,0,0,1-.7.4h-.2l-1.1-.2h0l-2.1-.2h-.5a3.3,3.3,0,0,0-2.3,1.2h-.1v.2a4.3,4.3,0,0,0-.7,2,2.7,2.7,0,0,0,.1.8,1.8,1.8,0,0,1-.3,1.1h-.1a.5.5,0,0,1-.5,0h0a14.7,14.7,0,0,1-.3-3.1c.2-1.8,2-3.3,4.2-3.4h.3c.7-.1,1.7-.1,1.8-.9s-.9-.6-1.4-.9l-.3-.2a17.5,17.5,0,0,1,3.2-2.7,28.1,28.1,0,0,0,3.6-3c.4-.5,1-.9.6-1.7h2.8Z" style="fill: #e48003"/>
    <path d="M108.4,174c.1.3.5.7.3,1.1v.2h0a.5.5,0,0,1-.4-.5v-.4a6.1,6.1,0,0,1-.2-4.3c.5-.5.4-1.4,1.5-1.8A7.2,7.2,0,0,0,108.4,174Z" style="fill: #f9c967"/>
    <path d="M90.7,169.8c.1.2.1.3,0,.4l-.2.2a.5.5,0,0,1-.4-.5v-.4l-.2-.5h0a3.8,3.8,0,0,1,.7-3.7l.7-.6a6.7,6.7,0,0,0-.8,3.5A3.3,3.3,0,0,0,90.7,169.8Z" style="fill: #f7c766"/>
    <path d="M90,169.6v.3c-.2-.3-.5-.3-.8-.2a1.4,1.4,0,0,1-1.8-.7l.6.2h.2c1,.3,1.3.1,1.3-1a4.9,4.9,0,0,1,.3-2.3c.1-.3.2-.8.7-.8a3.9,3.9,0,0,0-.7,2.6h0A11.5,11.5,0,0,0,90,169.6Z" style="fill: #a55419"/>
    <path d="M108.2,174.7c-1.3.3-1.8.1-2.6-1.2h.4c.3.2.4.5.8.7h1c.3-.2,0-.6,0-.8a4.5,4.5,0,0,1,.1-3.6,5.6,5.6,0,0,0-.1,1.7,11.6,11.6,0,0,0,.3,1.8h0l.2.7h0v.5Z" style="fill: #a75712"/>
    <path d="M93.3,170.4a2.1,2.1,0,0,1-2.7,0c.7,0,1.4.4,2.1.1h.6Z" style="fill: #9b5a26"/>
    <path d="M86.3,111.7l1.7-2.2c.1-.4.4-.4.8-.4s-.1,1-.1,1.5a22.3,22.3,0,0,0,4.6-2.3l.7-.6a7.5,7.5,0,0,0,1.8-1.7c.3-.3.4-.8.7-1.1a2.2,2.2,0,0,1-2,0c-1.9-.7-3.2-2.1-4.7-3.3l-2.1-1.8a2.4,2.4,0,0,0-3-.7h-.4l-.4.4c-.5-.3-.4-.7-.1-1.1a3.5,3.5,0,0,1,4.2-.1c1.9,1.1,3.4,2.6,5.2,3.8a4.7,4.7,0,0,0,2.6,1,2.6,2.6,0,0,0,2.2-.8h.3l.3.3c.2,2.6-1.3,4.4-3,6L93.9,110c-1.2.4-2.2,1.2-3.4,1.6a16.9,16.9,0,0,1-3.6.8C86.3,112.5,86.2,112.2,86.3,111.7Z" style="fill: #e57f03"/>
    <path d="M89,109.2c-.3,0-.7-.1-.9.2s-2.5-.1-3.7-.7-1-.1-.6-.8a16.9,16.9,0,0,1,3.3-.5,2.2,2.2,0,0,0,1.4-.5,3.2,3.2,0,0,1,1.2-.6c.5-.2.8,0,.8.4s-.7.7-1.2.9a2.9,2.9,0,0,0,1.2-.5,3.5,3.5,0,0,1,3-.4c.5.1,1,.3.8,1l-.6.5A5.5,5.5,0,0,1,89,109.2Z" style="fill: #f68e9c"/>
    <path d="M94.2,107.9c-.1-.7-.6-.8-1.1-.9a4,4,0,0,0-2.7.4,1.7,1.7,0,0,1-1.4.3c.4-.4,1.1-.3,1.2-.9s-.3-.5-.6-.5v-.2l.9-.8A2.3,2.3,0,0,1,93,105c.5.3,1-.2,1.5-.1l1.1.2c.5.2.7.5.3,1A5,5,0,0,1,94.2,107.9Z" style="fill: #f06a7a"/>
    <path d="M115.1,107.1a10.8,10.8,0,0,1-10-1.9,4.4,4.4,0,0,0-2.2-1,2.1,2.1,0,0,1,1.3-.8h.4a14.8,14.8,0,0,0,3.5,2.4,11,11,0,0,0,2.8.8c1.2.2,2.4,0,3.6.1S115.2,106.7,115.1,107.1Z" style="fill: #120e02"/>
    <path d="M90.5,105.5a1.2,1.2,0,0,1-.9.6c.3-2.1-1-3.6-1.9-5.3s-.7-.1-.9-.4.2-.3,0-.5-.8-.9-1.5-.5a1,1,0,0,1-.8-.3,2.2,2.2,0,0,1,3.3.6,15.2,15.2,0,0,1,2.6,4.2A1.5,1.5,0,0,1,90.5,105.5Z" style="fill: #cb6c0d"/>
    <path d="M106.2,99.5a19.3,19.3,0,0,1,2.1-2.3,4,4,0,0,1,3.4-1.4c.3.7-.3.7-.7.9a16.3,16.3,0,0,0-2.4,1.5,11.4,11.4,0,0,0-1.7,1.9c-.2.3-.5,1-1,.3S106.1,99.8,106.2,99.5Z" style="fill: #fcef84"/>
    <path d="M113.5,92.4c2.3.1,3.9,1.9,4.2,4.9A9.6,9.6,0,0,0,113.5,92.4Z" style="fill: #1d1b03"/>
    <path d="M86.3,111.7c.1.8.6.7,1.1.6a16.4,16.4,0,0,0,5.6-2c.3-.2.5-.5.9-.2a15.9,15.9,0,0,1-8.2,2.6C85.7,112.2,86.2,112,86.3,111.7Z" style="fill: #a95f05"/>
    <path d="M114.9,98.2a11.8,11.8,0,0,1,1.3,7.3v.9a.3.3,0,0,1-.5,0,1.4,1.4,0,0,1,0-.9,12.1,12.1,0,0,0-.7-6.4,1.7,1.7,0,0,1-.1-.7Z" style="fill: #b3880b"/>
    <path d="M87,99.9c.1.2.6,0,.4.4s-.4,0-.6.1a6.3,6.3,0,0,1-2.5-1.1l.2-.2c.3,0,.6,0,.8.2A2.5,2.5,0,0,1,87,99.9Z" style="fill: #191101"/>
    <path d="M111.7,96c-1.4-.2-2.4.6-3.5,1.3a3.8,3.8,0,0,1,4.8-1.2l-.2.2A1.3,1.3,0,0,1,111.7,96Z" style="fill: #a98710"/>
    <path d="M88.4,106.9c-.5.7-1.2.6-1.9.7l-2.8.4a4.1,4.1,0,0,1,2.2-.6Z" style="fill: #b96541"/>
    <path d="M106.2,99.5c.1.4-.2.6-.2.9a8.1,8.1,0,0,1-1.2,2.9h-.4C104.9,102.1,105.2,100.6,106.2,99.5Z" style="fill: #ac890f"/>
    <path d="M113,96.1a3.8,3.8,0,0,1,1.9,2.1h-.1c-.8-.2-1.1-1.1-1.7-1.5a.7.7,0,0,1-.2-.5Z" style="fill: #ab7d04"/>
    <path d="M83.9,98.7c-.4.3-.1.7,0,1l-.6.5.2-1.7.4-.2A.3.3,0,0,1,83.9,98.7Z" style="fill: #955001"/>
    <path d="M98.7,102.7c-.3.1-.4,0-.3-.3s.2-1.2.8-1.6Z" style="fill: #656d5b"/>
    <path d="M115.6,106.5h.4c.1.1.5,0,.2.2l-1,.4-.4-.2C114.9,106.4,115.3,106.5,115.6,106.5Z" style="fill: #6d5705"/>
    <path d="M100.4,98.1a2.6,2.6,0,0,1,.8-1.6A2.9,2.9,0,0,1,100.4,98.1Z" style="fill: #55745e"/>
    <path d="M83.9,98.7v-.4c.1-.1.1-.3,0-.4a3.2,3.2,0,0,1,1.4-1.6c3.2-1.8,5.5,0,7.8,1.8l2.3,1.9.5.4.8.4c.5.6,1.3.9,1.4,1.8s-2.2,1.4-3.6.8a12.8,12.8,0,0,1-3.4-2.3L88,98.8A3.5,3.5,0,0,0,83.9,98.7Z" style="fill: #fda206"/>
    <path d="M103.4,81.9c-1,.2-2,.9-3,.4l-.7-.4c1.7.2,2.9-.8,4-1.9a8.5,8.5,0,0,1,2.2-1.6c.9-.4,1.6-.3,2.6.6a3.7,3.7,0,0,0-2.6.8c-.7,0-.9.7-1.4,1.1l-1.1,1Z" style="fill: #3695d4"/>
    <path d="M95.5,100.2c-1-.2-1.5-1.2-2.3-1.7a12.7,12.7,0,0,0-4.1-2.5,4.1,4.1,0,0,0-3.3.4.3.3,0,0,1-.4-.1l1-.8c.9-.4,1.9-.9,2.9-.3h.2c.3-.2.6,0,.9.1a9.9,9.9,0,0,0,1.7,1.2c.5-.2.3-.6.3-1s0-1.8,0-2.7.3.4.3.6a24.4,24.4,0,0,1,0,2.9,1.3,1.3,0,0,0,.5,1.3l1,1C94.6,99.1,95.2,99.5,95.5,100.2Z" style="fill: #fcd36c"/>
    <path d="M111.4,75.2h-.3a6.8,6.8,0,0,0-5.4-2.1c-.4,0-1.2-.1-1.2-.6s.7-.5,1.2-.6a5.7,5.7,0,0,1,5.2,2.4C111.2,74.5,111.5,74.8,111.4,75.2Z" style="fill: #ade7fd"/>
    <path d="M121.4,102a24.8,24.8,0,0,1-1.2,7.7c-.2.5-.1.6.5.6a9.5,9.5,0,0,1,5.9,1.4c.3.2.7.3.7.8a9.8,9.8,0,0,0-6.9-1.8c-.8.1-.7-.3-.5-.8a21.9,21.9,0,0,0,1.1-9.5c-.1-1.3-.4-2.6-.6-3.8a.2.2,0,0,1,0-.3,12.6,12.6,0,0,1,.8,3.9C121.2,100.7,121.4,101.3,121.4,102Z" style="fill: #3e5e5a"/>
    <path d="M86.7,87.4a1.6,1.6,0,0,1,.8-1.2c.8-.6,1.5-.3,2.2.3a3.5,3.5,0,0,1,1.6,2A4.7,4.7,0,0,0,86.7,87.4Z" style="fill: #e6c323"/>
    <path d="M93.2,97.6c-.5-.3-.9-.4-.7-1.3a7.2,7.2,0,0,0-.1-3.5V91.5a10,10,0,0,1,.4,4.3A3,3,0,0,0,93.2,97.6Z" style="fill: #6a6a4b"/>
    <path d="M103.4,81.9a17.6,17.6,0,0,1,2-2.1c.1-.1.3-.3.5,0S104.5,81.6,103.4,81.9Z" style="fill: #0b5b91"/>
    <path d="M116.3,90.1a13.5,13.5,0,0,0-3.3-1.3.3.3,0,0,1,.4-.1C114.5,89,115.6,89.1,116.3,90.1Z" style="fill: #4f6a5a"/>
    <path d="M111,88.8a20.4,20.4,0,0,1-2.8.8,4.4,4.4,0,0,1,2.3-.8A.3.3,0,0,1,111,88.8Z" style="fill: #426259"/>
    <path d="M95.5,100.2c-.4-.6-1.1-.9-1.4-1.6a4.4,4.4,0,0,1,1.7,1.8C95.7,100.4,95.6,100.3,95.5,100.2Z" style="fill: #6a6a4b"/>
    <path d="M98.1,102.5c-.2-.8-1.2-1-1.4-1.8a3.5,3.5,0,0,1,1.7,1.7Z" style="fill: #656d5b"/>
    <path d="M89.7,86.4a2.5,2.5,0,0,0-2.2-.3l-.2-.2A1.8,1.8,0,0,1,89.7,86.4Z" style="fill: #3f6163"/>
    <path d="M111,88.8h-.4a5.1,5.1,0,0,1,2.9,0H111Z" style="fill: #1e6172"/>
    <path d="M92.4,91.5a6.4,6.4,0,0,1-.6-2.1A2.7,2.7,0,0,1,92.4,91.5Z" style="fill: #6a6a4b"/>
    <path d="M104.4,92.4a6.8,6.8,0,0,1-1.4,1.5A2.3,2.3,0,0,1,104.4,92.4Z" style="fill: #4a675b"/>
    <path d="M120.4,96.2v.3a6.1,6.1,0,0,1-.6-1.9A2.9,2.9,0,0,1,120.4,96.2Z" style="fill: #44544e"/>
    <path d="M119.8,94.6a3.3,3.3,0,0,1-.8-1.7A2.4,2.4,0,0,1,119.8,94.6Z" style="fill: #416765"/>
    <path d="M106.1,91a5.2,5.2,0,0,1-1.3,1.1A1.7,1.7,0,0,1,106.1,91Z" style="fill: #425f55"/>
    <path d="M149.7,118.5c-.4.4-.4,1-.8,1.3l-.2.2c-1.2.7-2.2,1.6-3.4,2.3a.5.5,0,0,0-.2.8c.8,1,.4,1.9-.3,2.8a8.4,8.4,0,0,1-4.4,2.8c-.8.2-1.4.5-1.5,1.5s-.9,1.2-1.7,1.4a15.9,15.9,0,0,1-4.4.6c-.7,0-1,.1-.7.9s-.2,2.4-1.8,2.3a7.5,7.5,0,0,0-4.8,1,3.9,3.9,0,0,1-3.4.2.9.9,0,0,0-.7,0h-.2a5.3,5.3,0,0,1-1.2-1.4l-.3-.5a6.8,6.8,0,0,1-1.1-4.7,7.1,7.1,0,0,1,1.5-3.6,16.5,16.5,0,0,1,6.9-2.8c3.3-.7,6.5-1.3,9.7-2.2a37.7,37.7,0,0,0,11.1-4.9,2.9,2.9,0,0,1,1.4-.7h.3A2,2,0,0,1,149.7,118.5Z" style="fill: #96d4fd"/>
    <path d="M121.4,136.6c.1-.5.3-.3.6-.2a5.1,5.1,0,0,0,5-1.1.8.8,0,0,1,.9-.2,7.3,7.3,0,0,0,2.5.1c1.4,0,1.9-1,1.2-2.3s-.3-1,.6-1a16.3,16.3,0,0,0,4.7-.6c1.2-.3,1.6-.8,1.6-2s.3-.4.6-.5,2.7-.7,3.8-1.7a12.7,12.7,0,0,0,1.8-1.7c.8-.9.7-1.4-.1-2.4s-.4-.5,0-.7a22.9,22.9,0,0,0,3.7-2.5h.3a4.2,4.2,0,0,1-1.5,1.9c-.9.8-.9.7-.2,1.7h0a3.5,3.5,0,0,1-1.9,3.9c-.1.3-.4.3-.6.5a10.9,10.9,0,0,1-2.9,1.6c-.5.2-.8.4-.8,1a1.5,1.5,0,0,1-.8,1.3c-.1.3-.4.2-.6.3a7.4,7.4,0,0,1-3.6,1,3.8,3.8,0,0,0-1.3.3h-.8c-.4,0-.4.2-.4.5.3,1.9-.5,2.7-2.5,2.8s-2.2-.2-3.4-.1-1.1.3-1.2,1h-.4a4.4,4.4,0,0,1-2.3-.1c-.6-.2-1.2-.6-1.9-.6Z" style="fill: #b1e3fd"/>
    <path d="M149.1,115.7c-2,1.1-3.8,2.5-6,3.4a79.1,79.1,0,0,1-8.2,2.8c-3.6,1-7.4,1.4-10.9,2.5a28.7,28.7,0,0,0-3.9,1.9c-.3-.5.2-.7.5-1a6.1,6.1,0,0,1,1.2-.9h0a32.2,32.2,0,0,1,8.3-2.9l7.2-1.8a34,34,0,0,0,7.1-2.9,1.1,1.1,0,0,0,.6-.4l1-.4a18.8,18.8,0,0,1,1.7-1.1h.4C148.5,115,149.1,115.1,149.1,115.7Z" style="fill: #7fbbdd"/>
    <path d="M92.2,135v-.4h.4l.2.2c.3.6-.2,1.3.4,1.8s.5-1,.8-1.5.2-.4.5-.3a.4.4,0,0,1,.4.4c.1.8.4,1.6.5,2.4a6,6,0,0,0,1.6,3.3,7,7,0,0,0,.4-2.3c0-.4.1-.9.6-1s.7.4.8.8a8.4,8.4,0,0,0,1.7,2.7,30.5,30.5,0,0,1,2.9-5.2c.2-.3.3-.8.8-.7s.5.5.6.9.3,1.2.5,1.8.4.6.8.2a20.6,20.6,0,0,0,2.8-3.3,4.9,4.9,0,0,1,1.1-1.4.6.6,0,0,1,.6-.1c-1.1,3-3.2,5.1-5.6,7.2-.4-1.1-.2-2.2-.9-3.2a13.8,13.8,0,0,0-3.1,6.3c-1.4-1.2-1.9-2.8-2.8-4.4a16.5,16.5,0,0,0-.2,3.1c0,.3.1.6-.2.7s-.5-.2-.7-.4c-1.9-1.7-2.2-4-2.5-6.4-.7.7-.5,1.7-1.1,2.4a3.4,3.4,0,0,1-.9-2.1C92.3,136,92.5,135.5,92.2,135Z" style="fill: #3d97d3"/>
    <path d="M149.1,115.7c-.2-.4-.7-.5-1.1-.8s.8-.7,1.2-1.1,1.1-.6,1.3-1.2l3.5-2.8c.6,0,.8-.5,1-.8l.4-.4c.7-.1,1.1-.7,1.4-1.3l.4-.4c.7-.1,1.1-.7,1.4-1.3l.4-.4c.6,0,.8-.7,1.3-.8l.8-.8.4.2a48.4,48.4,0,0,1-4.2,4.3l-6.1,5.6c-.6.6-1.5.9-1.9,1.8s-.1.2-.2.2Z" style="fill: #3795d5"/>
    <path d="M127.3,149.2c0,.4,0,.7,0,1.1h0a11.8,11.8,0,0,1-.2,1.8h0a9.4,9.4,0,0,1-.7,2.1h0a.6.6,0,0,1,0,.1h0a1.7,1.7,0,0,1-.4.6l-.2.2h-.8a2.9,2.9,0,0,1-2.3.8h0a15.8,15.8,0,0,1-2.9-1h0c-.2-.1-.4-.1-.3-.4h0l.2-.2a5.8,5.8,0,0,0,2.7.9c1.7.2,2.6-.7,3.2-2a14.7,14.7,0,0,0,1.3-7.5l.2-.2h0v-.2a.7.7,0,0,1,.1.7,3.2,3.2,0,0,0-.1.6h0a4.2,4.2,0,0,0,0,.5h0C127.2,148,127.3,148.6,127.3,149.2Z" style="fill: #4391c7"/>
    <path d="M110.3,133.2l-.4.2a.7.7,0,0,1,0-.8,23.3,23.3,0,0,0,1-2.5c.1-.3.2-.6.5-.5s.3.3.4.6a13.3,13.3,0,0,1,.2,2.1c0,.2,0,.5.2.7s.5-.1.7-.3a17.3,17.3,0,0,0,2.7-3.4c.2-.3.3-.7.8-.7l.2.2c-.1.4.1.9-.2,1.3a24.9,24.9,0,0,1-4.4,4.5c-.2.1-.3.4-.6.3s-.1-.4-.1-.7a16.9,16.9,0,0,0-.1-2.7C110.6,132.1,110.6,132.8,110.3,133.2Z" style="fill: #4491c6"/>
    <path d="M137.3,119.8c-2.8,1-5.7,1.4-8.5,2.2a33,33,0,0,0-6.4,2.3.8.8,0,0,1-.6.2,8.2,8.2,0,0,1,3.3-1.6c3.8-1.3,7.7-2,11.5-3.1l.6-.2h0Z" style="fill: #226b96"/>
    <path d="M121.9,124.5c-.5.7-1.4.9-1.7,1.8-2.1,2.6-1.9,5.4-.5,8.2-.5,0-.5-.5-.7-.8a8.1,8.1,0,0,1,.4-7A4,4,0,0,1,121.9,124.5Z" style="fill: #266b99"/>
    <path d="M116.5,128.8h-.2c-.3-.2-.2-.5,0-.8a18.3,18.3,0,0,0,1.1-3.5,1.1,1.1,0,0,1,.4-.5c.4,0,.7-.3,1.1-.2a13.9,13.9,0,0,0-2,4.5C116.7,128.5,116.9,128.8,116.5,128.8Z" style="fill: #436d86"/>
    <path d="M137.3,119.8v-.2a39.3,39.3,0,0,0,7.6-3.2c0,.3-.2.4-.3.5A28.5,28.5,0,0,1,137.3,119.8Z" style="fill: #206793"/>
    <path d="M116.5,128.8l.4-.5a12.8,12.8,0,0,0,.2,5.2,6.7,6.7,0,0,1-.6-3.4Z" style="fill: #17679e"/>
    <path d="M118.3,136.6a4,4,0,0,1-.9-2.2l.9,1.9A.2.2,0,0,1,118.3,136.6Z" style="fill: #17689f"/>
    <path d="M157,107.3a1.6,1.6,0,0,1-1.4,1.3Z" style="fill: #11598e"/>
    <path d="M158.8,105.7a1.4,1.4,0,0,1-1.4,1.3Z" style="fill: #0f5a8c"/>
    <path d="M118.3,136.6v-.3a10.2,10.2,0,0,1,1.2,1.9h-.1A5.5,5.5,0,0,1,118.3,136.6Z" style="fill: #136499"/>
    <path d="M150.6,112.7c0,.8-.8.8-1.2,1.3a.2.2,0,0,1-.3,0Z" style="fill: #115b8f"/>
    <path d="M116.6,151a2.1,2.1,0,0,1-.6-2C116,149.7,116.6,150.3,116.6,151Z" style="fill: #0f639a"/>
    <path d="M149,113.9h.3l-1.2,1.1h-.4C148,114.4,148.5,114.2,149,113.9Z" style="fill: #185f8d"/>
    <path d="M147.7,114.9A3.8,3.8,0,0,1,146,116,2.6,2.6,0,0,1,147.7,114.9Z" style="fill: #185f8d"/>
    <path d="M119.9,135.1a4.9,4.9,0,0,1,1.2,1.4A1.8,1.8,0,0,1,119.9,135.1Z" style="fill: #236491"/>
    <path d="M160.5,104.5c-.4.3-.5,1.1-1.3.8S160,104.5,160.5,104.5Z" style="fill: #0f5a8e"/>
    <path d="M117.4,152.2c-.7-.1-.7-.7-.8-1.2S117.1,151.9,117.4,152.2Z" style="fill: #0e5b94"/>
    <path d="M119.6,138.2a2.6,2.6,0,0,1,.9,1.2,2.6,2.6,0,0,1-1-1.1Z" style="fill: #146197"/>
    <path d="M155.1,109c-.2.7-.4.9-1,.8Z" style="fill: #0d5a8f"/>
    <path d="M115.2,168.7c.9,0,1.9-.3,2.7.4a8.4,8.4,0,0,0-2.5-.2Z" style="fill: #a14606"/>
    <path d="M83.4,116.4l.6.4a6.9,6.9,0,0,1,1.5,1.1,14.7,14.7,0,0,0,2.6,1.6c1.4.7,2.9,1.5,4.4,2.1h0a.5.5,0,0,1,.3.6,3.4,3.4,0,0,1-.9,1.2,8.9,8.9,0,0,0-1.9,3.8c-.1.3,0,.7-.5.8a2.9,2.9,0,0,1-1.8-1.1c-.2-.4-.5-.3-.9-.1s-2.1.6-3.1-.8a.9.9,0,0,0-1-.3,7.1,7.1,0,0,1-2.2,0,2,2,0,0,1-1.9-2c0-.5-.3-.4-.6-.5a6,6,0,0,1-2.3-.6c-1.6-.9-2.1-2-1.5-3.8s.2-.7-.4-.9a4.2,4.2,0,0,1-1.6-1.1c-1.3-1.2-1-2.7.7-3.3s.5-.1.7-.3a4.6,4.6,0,0,1-1.5-2.8c.1-.5.1-.9.7-1.1a6.2,6.2,0,0,1,1.4,1.4,20,20,0,0,0,7.2,4.8Z" style="fill: #96d4fd"/>
    <path d="M91.8,123.2l.8-.9c.5-.5,1-.1,1.5,0h0c1.3.6,2.8.7,4.1,1.4s.8.3,1.3,0a8.3,8.3,0,0,0,2.8.7l2.5.4a58.9,58.9,0,0,0,6.5.2c.8-.1,1.1.2.9,1a19.9,19.9,0,0,1-1.6,3.7c-.1.2-.3.5-.6.4s-.3-.4-.3-.6-.2-.9-.3-1.5a35.9,35.9,0,0,0-1.6,3.6,4.8,4.8,0,0,1-1.2,1.6c-.7.5-.9.5-1.1-.3s-.4-2-.7-3.1a15.1,15.1,0,0,1-2.2,4.4c-.2.3-.5.7-1,.7s-.5-.6-.6-1a6.3,6.3,0,0,1-.3-1.4,13.5,13.5,0,0,1-.6,3c-.1.4-.2.9-.7.9s-.7-.3-1-.7a8.5,8.5,0,0,1-1.2-2.8l-.6,1.5c-.1.3-.2.7-.6.7s-.5-.4-.6-.7a6.7,6.7,0,0,1-.2-2.2,1.1,1.1,0,0,0-.1-.5c-.3-.1-.4.2-.6.3s-.5.6-1,.4-.3-.6-.3-.9a7.1,7.1,0,0,1,.3-2,1.6,1.6,0,0,0,.1-1.2,4.3,4.3,0,0,0-1.5,1.2c-.2.2-.4.7-.8.4s-.3-.6-.2-.9a10.7,10.7,0,0,1,1-3.6c-.5.2-.8.8-1.2.5s-.1-.8-.1-1.3A9,9,0,0,1,91.8,123.2Z" style="fill: #feeb4a"/>
    <path d="M83.4,116.4a22,22,0,0,1-6.3-3,14,14,0,0,1-4.1-4.1c.4-1,1.2-1.2,1.9-.6a12.3,12.3,0,0,0,1.6,1.4L79,112c.2.1.4.4.7.3h.2a14.5,14.5,0,0,0,2.7,3.3Z" style="fill: #7fbbde"/>
    <path d="M111.6,125.2a54.4,54.4,0,0,1-7-.3.2.2,0,0,1,0-.4,43.7,43.7,0,0,0,9,.1l4.2-.6-.2.4a7.3,7.3,0,0,1-2.3.6,17.7,17.7,0,0,1-2.2.3C112.5,125.4,112.1,124.9,111.6,125.2Z" style="fill: #b78b06"/>
    <path d="M104.6,124.6v.4l-4.4-.8c-.3-.1-.6-.1-.7-.4A47.2,47.2,0,0,0,104.6,124.6Z" style="fill: #ad8506"/>
    <path d="M92.4,121.6a13.3,13.3,0,0,1-4.4-2.1A25.3,25.3,0,0,1,92.4,121.6Z" style="fill: #957e4a"/>
    <path d="M98.2,123.7a17.2,17.2,0,0,1-4.1-1.4C95.5,122.6,96.9,122.7,98.2,123.7Z" style="fill: #ac8106"/>
    <path d="M94.1,122.2c-.5.1-1-.3-1.5,0s0-.4-.1-.6A2.5,2.5,0,0,1,94.1,122.2Z" style="fill: #a67d1a"/>
    <path d="M85.4,118a4.7,4.7,0,0,1-1.5-1.1A2,2,0,0,1,85.4,118Z" style="fill: #958044"/>
    <path d="M126.2,154.4c1-2.4.9-4.9.9-7.4a.6.6,0,0,1,.2-.6l.2,4.1a1.4,1.4,0,0,0,.2,1.5c-1,.4-.7,1.6-1.3,2.2S126.4,154.4,126.2,154.4Z" style="fill: #1c6696"/>
    <path d="M155.9,124.4c.8.5,1.5,0,2.2-.3s1.2-.5,1.9,0l-4.8,2.6a37.5,37.5,0,0,1-11.1,3.7,31.3,31.3,0,0,1-3.3.3c-.4-.8-.1-1.2.7-1.2a22.8,22.8,0,0,0,3.2-.4,43.8,43.8,0,0,0,10.3-3.9.6.6,0,0,0,.4-.3Z" style="fill: #3796d7"/>
    <path d="M155.4,124.6c0,.2.5.3.1.4-3.4,1.3-6.7,3.2-10.3,3.9h-.3c-.2.1-.2,0-.2-.2a35.9,35.9,0,0,0,10.1-4Z" style="fill: #125e93"/>
    <path d="M144.7,128.8l.2.2a10.8,10.8,0,0,1-3.1.6c-.8,0-1.1.3-.9,1.1s-.3.9-.8,1,.8-1.1.5-1.9.2-.4.4-.4a15.1,15.1,0,0,0,3.6-1.5c-.3.8-1.2.7-1.7,1.3Z" style="fill: #21638f"/>
    <path d="M147,123.4l-1.1-.9a13.4,13.4,0,0,0,2.8-2.6h.2c.1.7-.7.9-1,1.6l1.4-.7c.3.3-.1.4-.3.5l-2,1c-.7.3-.5.5,0,.9Z" style="fill: #1b618e"/>
    <path d="M145.1,127.3l1.2-1.4a3.3,3.3,0,0,0,.6-2.6c.5.3.4.8.3,1.3S146.5,126.9,145.1,127.3Z" style="fill: #2a6d98"/>
    <path d="M156.1,116.4c-.1.5-.1.5-.9,1s-.9,1.1-1.7.8Z" style="fill: #0f5e93"/>
    <path d="M149.3,115.8l.2-.2a2.7,2.7,0,0,1,.6,2.3c0,.3,0,.7-.5.6A2.4,2.4,0,0,0,149.3,115.8Z" style="fill: #236a99"/>
    <path d="M151.1,119.6c-.2.6-.5.8-1.2.7Z" style="fill: #0f5c91"/>
    <path d="M60.7,122.7a7.1,7.1,0,0,1,3.1-.4,3.9,3.9,0,0,1,2,.6,19.5,19.5,0,0,0,10,1.2l.6-.2c.3-.2.7-.2.9,0a.7.7,0,0,1-.2,1.1,20.7,20.7,0,0,1-9.5-.3c-2-.6-3.8-1.5-5.8-2Z" style="fill: #3797d7"/>
    <path d="M70.1,133l4.8-2.4a27.5,27.5,0,0,0,4.5-1.8c.3-.1.6-.2.7-.5l1.5-1h.3c.3-.1.4-.6.8-.4a.9.9,0,0,1,.3,1.1c-1.3,1.5-3.1,2.2-4.8,3a41.3,41.3,0,0,1-6.1,1.9C71.3,133.1,70.7,133.5,70.1,133Z" style="fill: #3696d5"/>
    <path d="M77.1,125c.3-.9.1-1.1-.9-.9a20,20,0,0,1-11.7-1.6l-.7-.2v-.4a20.4,20.4,0,0,0,12.3,2c-2.5-.6-4-1.8-3.7-4.4h.3v.4c.3,2.3,1.4,3.4,3.7,3.5h.7c.6.1.8.3.5.9s-.2.8-.4,1.2h-.1C77.2,125.4,77.2,125.2,77.1,125Z" style="fill: #1b6494"/>
    <path d="M82.7,127.9l-.3-.8c-.4-.1-.5.7-1,.2l.2-.2c.1-.2-.1-.2-.2-.1a3.9,3.9,0,0,1-2.3-.1c-.8-.2-1.6-.5-1.8-1.4h.1c.8.2,1.3.9,2.2,1.1a5.1,5.1,0,0,0,2.1-.1,1,1,0,0,1,1.4.7c.6,1.3,1.4,1.5,2.7.9l.7-.4c.3-.1.6-.1.7.2s1.3,1.3,2.2,1.4a.5.5,0,0,1,.3.3.2.2,0,0,1-.2.1,4.2,4.2,0,0,1-2.5-.4c-.2-.3-.2-.6-.5-.7s-.7,1.4-1.6,1.3.2-.6.5-.8S83.3,129.2,82.7,127.9Z" style="fill: #216490"/>
    <path d="M80,128.3c.2.1.2.2,0,.3a15.5,15.5,0,0,1-5.2,2v-.2A22.6,22.6,0,0,0,80,128.3Z" style="fill: #0f5e94"/>
    <path d="M72.5,109.2a35.8,35.8,0,0,1-5.4-11.5c-.2-.6-.7-1.2-.5-2s.6.5.7.9l.8,1.7v.3a6.4,6.4,0,0,0,1.4,2.5.9.9,0,0,1,.4.7,2.1,2.1,0,0,0,.9,1.6,45.3,45.3,0,0,1,2.8,3.9C74.1,108.5,74.1,108.5,72.5,109.2Z" style="fill: #3796d5"/>
    <path d="M72.5,109.2l.6-.4c.7-.2,1-.5.3-1.2s0-.2.1-.3a8,8,0,0,1,3.1,3.3,5.6,5.6,0,0,1-1.7-1.3c-.9-.9-1-.9-2,.1a1.2,1.2,0,0,0-.6,1c.1.5.2,1,.3,1.5h-.1C71.7,111.2,71.7,110.5,72.5,109.2Z" style="fill: #1f6594"/>
    <path d="M68.1,98.4c-.8-.8-.8-1.9-1.4-2.7L66,93.9l.2-.2a18.9,18.9,0,0,1,2,4.3A.5.5,0,0,1,68.1,98.4Z" style="fill: #0f5f94"/>
    <path d="M71.7,113.6c.1-.5.6-.4.9-.6s-.9-.4-1.1-.9.7.8,1.1,0h.2c.4.3,1,.8.8,1.2A1.6,1.6,0,0,1,71.7,113.6Z" style="fill: #1c5c85"/>
    <path d="M71.5,112a7.5,7.5,0,0,1-2.8-1.9v-.2Z" style="fill: #105b8f"/>
    <path d="M65.6,106.2c-.9-.3-1-1.1-1.3-1.9S65.1,105.6,65.6,106.2Z" style="fill: #1a6293"/>
    <path d="M64.3,104.3c-.3-.3-1.1-.4-.4-1A1.2,1.2,0,0,1,64.3,104.3Z" style="fill: #1a6293"/>
    <path d="M127.3,136.5a1.2,1.2,0,0,1,1.2-.2,8,8,0,0,0,2.2.1c2.2-.1,2.9-1.2,2-3.4a3.7,3.7,0,0,1,1.6,0c.4-.2.3.3.5.4l5.6.4h5l.2.2a40.4,40.4,0,0,1-11.5-.4c-1.5-.3-.3.8-.6,1.2s-1.1,1.9-2.7,2h-1.7c.9.8,4.4,2.3,9.2,2.9v.5a7.4,7.4,0,0,0-2.6-.6,30.1,30.1,0,0,1-6.9-2.4A4.5,4.5,0,0,0,127.3,136.5Z" style="fill: #166499"/>
    <path d="M134.8,133.4l-.5-.4c.9-.3,2-.2,2.9-.5l2.1-.6c-1,1.1-2.3.9-3.5,1.1S135,132.9,134.8,133.4Z" style="fill: #2e6e97"/>
    <path d="M71.7,113.6a4.7,4.7,0,0,1,1.9-.3L72.5,112a2.8,2.8,0,0,1-.2-1.6,5.3,5.3,0,0,0,1.5,2.5c.5.4.3.7-.3.8a1.8,1.8,0,0,0-1.7,1.3c-.3,1,.4,1.5,1,2.1a5.4,5.4,0,0,0,2.3,1.1,3.2,3.2,0,0,0-.8,1.6,2.9,2.9,0,0,0,2.5,3.1,7,7,0,0,0,1.9.2c.3,0,.6.1.3.5s.3,1.5.9,1.8a4.4,4.4,0,0,0,2.8.1c.5-.1,1-.1,1.2.5a1.6,1.6,0,0,0,2.6.7c.6-.4.9-.6,1.3.2a1.1,1.1,0,0,0,1.1.7c.3,0,.4.2.5.4a.9.9,0,0,1-.1,1.3H88.3c-1-.1-1.3-.5-1.4-1.8l-1.4.8a1.8,1.8,0,0,1-2.7-1.4c-.1-.6-.3-.5-.7-.4s-3.4.3-4.7-1.2a1.9,1.9,0,0,1,.8-1.9c-2.1.1-3.9,0-5.1-1.7a2.8,2.8,0,0,1-.4-2.5l.5-.8c0-.7-.6-.6-1-.8a2.8,2.8,0,0,1-1.7-3.2.5.5,0,0,1,.3-.4l.6-.6Z" style="fill: #b2e3fc"/>
    <path d="M70.9,114.3c-.8,1.7.1,3.1,2.3,3.7s.5.4.1.7a1.8,1.8,0,0,0-1.1-.6,18.3,18.3,0,0,1-4-1.5l.2-.2a13.1,13.1,0,0,0,2.9,1c-.7-.9-1.3-1.8-.8-2.9S70.5,114,70.9,114.3Z" style="fill: #236894"/>
    <path d="M66.3,115.5a6.9,6.9,0,0,1-2.5-1.6c-.1-.1-.1-.2.1-.3S65.6,114.7,66.3,115.5Z" style="fill: #0f5c90"/>
    <path d="M68.3,116.4l-.2.2a3.8,3.8,0,0,1-1.8-1.1A13.4,13.4,0,0,1,68.3,116.4Z" style="fill: #0d5f92"/>
    <path d="M126.2,154.4l.2-.2c.9,0,1.3.8,1.7,1.3a32.5,32.5,0,0,0,13.7,9.9,15.9,15.9,0,0,1,2.8.8l1.4,1.3.2.4c.6,1,.4,1.4-.7,1.8a6.9,6.9,0,0,1-3.9-.2l-3-1c-.6.2-1-.3-1.6-.5h-.2l-1.7-1.1-.9-.6a8.4,8.4,0,0,0-1.4-.8c-.6-.2-.8-.9-1.3-1.2a30.6,30.6,0,0,1-3.1-3.2c-.7-1-1.5-2-2.2-3.1l-.8-1.3v-.3c.1-.4,0-.9.4-1.2Z" style="fill: #52b6fa"/>
    <path d="M134.1,159l-4.3-4.3h-.1l4.3,4.3Z" style="fill: #0d598d"/>
    <path d="M137.9,161.9a3.3,3.3,0,0,1,1.6.9A3.2,3.2,0,0,1,137.9,161.9Z" style="fill: #0d588c"/>
    <path d="M142.6,164.2v.2a5,5,0,0,1-1.9-.8C141.6,163.5,142,164.1,142.6,164.2Z" style="fill: #0b588d"/>
    <path d="M135.7,160.4a2.6,2.6,0,0,1,1.3,1,2.5,2.5,0,0,1-1.3-.9Z" style="fill: #0d598d"/>
    <path d="M135.6,160.4c-.5-.1-.8-.6-1.1-.9a1.8,1.8,0,0,1,1.2.9Z" style="fill: #0b578b"/>
    <path d="M90.2,95.4l-.7-.2a13.1,13.1,0,0,0,.4-3.3c1,.9.8,2.2.9,3.4S90.5,95.6,90.2,95.4Z" style="fill: #eac120"/>
    <path d="M90.2,95.4c.4,0,.5-.3.5-.6s-.1-2.1-.8-2.9-.3-.5-.1-.8a4.6,4.6,0,0,1,1,3,2.6,2.6,0,0,0,1.2,2.3C91.3,96.4,90.8,95.8,90.2,95.4Z" style="fill: #a77a06"/>
    <path d="M86.4,89.2c1.1-1.7,1.6-2,2.6-1.3C87.8,87.9,87.2,88.6,86.4,89.2Z" style="fill: #231a01"/>
    <path d="M89.3,95.2c-1-.4-1.9,0-2.9.3A2.2,2.2,0,0,1,89.3,95.2Z" style="fill: #a47111"/>
    <path d="M123.4,137.4h2.3c-.5.4-1,.2-1.5.2s-.5.1-.3.5a.2.2,0,0,1,0,.3l-.6-.7C123,137.5,123.2,137.4,123.4,137.4Z" style="fill: #20638f"/>
    <path d="M123.8,138.5v-.3l1.4,1.3C124.4,139.7,124.3,138.9,123.8,138.5Z" style="fill: #0c5a90"/>
    <path d="M131.7,163.9l1.1,1.2c.5.2.9.8,1.5.9l.8.6c.4.7,1.2.8,1.8,1.3h0c.4.4,1,.5,1.4.9a1.4,1.4,0,0,1,1,1.3,20.7,20.7,0,0,1-8.3-4.4,29.7,29.7,0,0,1-6.6-8c.3-.3.3-.9,1-1s.4.9.9,1.1l2.2,3.1c.5,1.1,1.5,1.7,2.3,2.6S131.3,164,131.7,163.9Z" style="fill: #3696d6"/>
    <path d="M125.5,156.6c-.5.1-.6.7-1,.9h-.1a2.4,2.4,0,0,1,.8-1.2c.2-.1.2.1.3.2h0Q125.7,156.6,125.5,156.6Z" style="fill: #4391c7"/>
    <path d="M89.5,129.7h.1c.5.2.3.6.4,1s-.2.5.2.7a5.9,5.9,0,0,1-1.5,2l-2,2.5v-.2c.2-.6.6-1.2.2-1.9L89,131A1.8,1.8,0,0,0,89.5,129.7Z" style="fill: #3492ce"/>
    <path d="M125.6,156.4l-.3-.2c0-.3.2-.6-.3-.6l.9-.6A3.7,3.7,0,0,0,125.6,156.4Z" style="fill: #1c6696"/>
    <path d="M68.1,98.4a42.5,42.5,0,0,0-1.9-4.7l-.5-1.5A16.5,16.5,0,0,1,67.7,96a39.9,39.9,0,0,0,9,12.9l2,1.5,1,1.8c-.1.5-.4.3-.6.1l-2.5-1.8-3.1-3.3-2.8-4a2.5,2.5,0,0,1-.9-1.6l-.4-.6a9.9,9.9,0,0,1-1.4-2.7Z" style="fill: #54b7f8"/>
    <path d="M40.4,49.7a18.6,18.6,0,0,1-5.1,7c-1.6,1.3-5.2-.2-5.6-2.2a1.4,1.4,0,0,1,.8-1.6c.3-.2.6-.9.9,0h.2c1,.7,2,1.6,3.4,1.3h.3c1,.9,1.8.6,2.3-.6s2.3-2.7,2.4-4.6h0C40.4,48.9,40.7,49.1,40.4,49.7Z" style="fill: #fc0b06"/>
    <path d="M35.1,54.2c-1.3,1.1-2.7.6-3.9-1.3C32.5,52.2,34.1,52.7,35.1,54.2Z" style="fill: #fc6561"/>
    <path d="M90.9,133.1h-.2l-.2-1.9a11,11,0,0,1-.5-1.2,1.1,1.1,0,0,1,.1-.4c.2-.4.3-1.1.8-1s.2.8.2,1.2a16.1,16.1,0,0,0,0,2.2C91.1,132.5,91.2,132.8,90.9,133.1Z" style="fill: #977123"/>
    <path d="M90.2,130.2c.6.2.3.7.3,1.1s-.2-.3-.4,0-.4-.1-.4-.4a.9.9,0,0,0,.2-.5Z" style="fill: #7a7e8c"/>
    <path d="M82.7,127.9c.8,1,1.9,1.1,3.3.6l-1.1,1.3-.8.8a4.9,4.9,0,0,1-2.5,2c-.8.8-2,1-2.9,1.7a27.6,27.6,0,0,1-5.2,1,14.4,14.4,0,0,1-4.2-.7c-.8-.8-.8-.8.2-1.4l.6-.2a13,13,0,0,0,3.6-.8,25.1,25.1,0,0,0,7.9-3.4Z" style="fill: #52b6fa"/>
    <path d="M81.6,132.6a11.9,11.9,0,0,0,2.5-2c.3.3,0,.4-.2.5a9.8,9.8,0,0,1-2.3,1.8Z" style="fill: #115d91"/>
    <path d="M77,84.8c.7,0,.4.5.5.9l.6,3.2c.1.3.4.7-.1.9s-.4-.4-.5-.6A8.8,8.8,0,0,1,77,84.8Z" style="fill: #fa7cfb"/>
    <path d="M58.8,73a4.9,4.9,0,0,1-3.7-2.5c-.4-1.1.4-2,2-2h0l.2.4a2.8,2.8,0,0,0,2.1,1.5h.5a2.3,2.3,0,0,0,.1.6C60.7,72.2,60.2,73,58.8,73Z" style="fill: #fccd04"/>
    <path d="M59.7,70.5c-1.6.5-2.4-.2-2.6-1.9A3.8,3.8,0,0,1,59.7,70.5Z" style="fill: #fce072"/>
    <path d="M66.2,77.2c-1.4-.1-1.7-.6-1.2-2A3.3,3.3,0,0,1,66.2,77.2Z" style="fill: #80e980"/>
    <path d="M138.5,168.6c-.5-.2-1.1-.3-1.4-.9s1.1.5,1.6.7Z" style="fill: #0d5c90"/>
    <path d="M90.2,130.2v.2c-.6-.2-.3-.8-.3-1.1a7.3,7.3,0,0,1,.9-4.3.5.5,0,0,1,.5-.3V126l1.5-1.3c-.4,1.9-1.2,3.5-1.1,5.4a8,8,0,0,1,2-1.9c.2-.1.4-.3.7-.2s0,.4,0,.6-.7,2.5-.4,3.9l1.7-1.5c.3,1.5-.3,2.9.6,4.2a16.4,16.4,0,0,1,1.2-2.7,9,9,0,0,0,1.5,3.5c.4.5.7.6.9-.2s.6-2.3.9-3.7l.7,2.1c.1.2-.1.5.2.6s.4-.2.6-.4a14.2,14.2,0,0,0,2.1-4l.4-1.3a31,31,0,0,1,1.1,4.5c2.2-1.5,2.2-4.1,3.5-6,.5.8.3,1.7.7,2.6a17,17,0,0,0,2-4.6c.1-.4-.3-.2-.5-.3s1-.1,1.5-.1a2.5,2.5,0,0,1,.4,1.9c0,.6,0,1.3,0,2.1a15,15,0,0,0,1.8-4.3,7.4,7.4,0,0,1,2.3-.4,14.8,14.8,0,0,1-1.2,4.3,17.8,17.8,0,0,1-3.6,4.5c-.2.2-.4.5-.7.3s-.2-.5-.2-.7a16.3,16.3,0,0,0-.4-3.3l-1.6,3.8a27.8,27.8,0,0,1-4.1,5c-.2.2-.4.6-.7.5s-.1-.5-.2-.7l-.9-3.1c-1.1,2.3-2.9,4.1-3.4,6.6a8.4,8.4,0,0,1-2.2-3.3c-.1-.2,0-.6-.4-.6s-.3.4-.3.7l-.2,2.1c0,.2.1.5-.2.6s-.5-.2-.7-.4a6.8,6.8,0,0,1-1.5-3.3l-.5-2.9a5.7,5.7,0,0,0-.8,1.6c-.1.4-.2.8-.8.8a9.1,9.1,0,0,1-.4-2.4h0a.7.7,0,0,1-.2-.5.6.6,0,0,1-.2.5h0c-.8,1-.8-.1-1.1-.4v-1a10.8,10.8,0,0,1,.1-4.5A3,3,0,0,0,90.2,130.2Z" style="fill: #e9c320"/>
    <path d="M119.8,156.5a2.9,2.9,0,0,1-.4,1.1,27.2,27.2,0,0,1-5.6,6.8,8.2,8.2,0,0,1-3.3,1.5c-2.3.7-4.2,2-4.9,4.5a11.1,11.1,0,0,0-.2,1.9v.3h0v-.9a13.3,13.3,0,0,1,.1-2.1h0v-.2a3.8,3.8,0,0,1,1.9-2.9l.8-.4.3-.2,1.9-.6c.6-.4,1.4-.1,1.9-.6a10.1,10.1,0,0,0,3.4-3.2,22.1,22.1,0,0,0,3.7-5h0C119.5,156.4,119.8,156.1,119.8,156.5Z" style="fill: #fcd270"/>
    <path d="M100.5,162.2c-.6,0-1.5-.3-1.5-.6s.6-.9,1-1.4a.7.7,0,0,1,.7-.3l-.5.4-.6.6-.4.4h0c.3.3.8.3,1.1.6Z" style="fill: #a05425"/>
    <path d="M90.5,105.5c.1-1.8-1.1-3.1-1.9-4.5s-.7-.8-.7-1.3a27.9,27.9,0,0,1,3.5,2.9,15.5,15.5,0,0,0,3.2,2.2c.1.2-.1.3-.2.4a1.8,1.8,0,0,1-1.8,0C91.9,104.7,91.2,105.2,90.5,105.5Z" style="fill: #6b0601"/>
    <path d="M89,109.2a13,13,0,0,0,4.6-.9,10.6,10.6,0,0,1-3.3,1.9l-2.1.8C88.3,110.4,89,109.9,89,109.2Z" style="fill: #791107"/>
    <path d="M94.4,105.1l.2-.4c.6.1,1.3.4,1.9-.1s.4,0,.5.1-.2.2-.3.3-.1.9-.7,1.1S95,105.3,94.4,105.1Z" style="fill: #993009"/>
    <path d="M112.9,96.2l.3.3c1.4,2.8.9,5.4-.5,8-.4.8-.8,1.7-1.9,2.1a9.5,9.5,0,0,1-6.1-3.3,9.2,9.2,0,0,1,1.2-2.9c.4.3.6-.2.7-.4a9.1,9.1,0,0,1,4.5-3.6l.7-.5C112.1,95.9,112.5,96.2,112.9,96.2Z" style="fill: #feeb4a"/>
    <path d="M110.8,106.7a10.8,10.8,0,0,0,2.9-6,14.6,14.6,0,0,0-.5-4.1c.7.4,1,1.2,1.6,1.7a31.1,31.1,0,0,1,1.1,4.2,13.6,13.6,0,0,1-.3,4l-.9.3A12.2,12.2,0,0,1,110.8,106.7Z" style="fill: #e9c21e"/>
    <path d="M87,99.9a4.4,4.4,0,0,1-1.7-.7C86.1,98.7,86.4,98.8,87,99.9Z" style="fill: #e8d245"/>
    <path d="M92.1,134.6a2.9,2.9,0,0,1,.2-1.5,2.7,2.7,0,0,1,.2,1.5Z" style="fill: #4091c8"/>
    <path d="M92.6,134.6,93,137C92.3,136.3,92.6,135.4,92.6,134.6Z" style="fill: #4091c8"/>
    <path d="M91.2,124.7a6.7,6.7,0,0,0-1.1,5.8q0,.4-.4.4V128a9.7,9.7,0,0,1,2.3-4.8C91.8,123.8,91.2,124.1,91.2,124.7Z" style="fill: #978549"/>
    <path d="M115.3,124.8a2.2,2.2,0,0,1-.2,1.7,9.9,9.9,0,0,1-1.8,3.2c-.2-1.6.1-3.2-.2-4.7Z" style="fill: #fdea48"/>
    <path d="M68.1,98.4a19.8,19.8,0,0,1,1.4,2.7c-.4.2-.4-.2-.5-.4A6.5,6.5,0,0,1,68.1,98.4Z" style="fill: #136094"/>
    <path d="M69.9,101.7l.9,1.6A1.3,1.3,0,0,1,69.9,101.7Z" style="fill: #105e94"/>
    <path d="M131.7,163.9c-.1.2-.3.2-.4.1l-2.7-2.8c-.1-.1-.2-.3.1-.4A23.6,23.6,0,0,0,131.7,163.9Z" style="fill: #105d93"/>
    <path d="M137.1,167.8c-.7-.3-1.5-.4-1.8-1.3S136.6,167.2,137.1,167.8Z" style="fill: #0f5d93"/>
    <path d="M134.4,165.9c-.8.2-1.1-.5-1.5-.9S133.9,165.7,134.4,165.9Z" style="fill: #105b8e"/>
    <path d="M125.5,156.6v-.2c.5.3.5.9.8,1.2S125.9,156.9,125.5,156.6Z" style="fill: #0c5f95"/>
    <path d="M115.7,161.4l-.5.8a5.8,5.8,0,0,1-2,1.9l-.9.4A20.7,20.7,0,0,0,115.7,161.4Z" style="fill: #a27650"/>
    <path d="M110.3,165.2l-.8.3h-1.1A2.6,2.6,0,0,1,110.3,165.2Z" style="fill: #a55e2c"/>
  </g>
</svg>
