<svg width="36" height="36" viewBox="0 0 36 36" fill="none" xmlns="http://www.w3.org/2000/svg">
<rect width="36" height="36" fill="#E5E5E5"/>
<circle cx="17.803" cy="12.9518" r="4.40164" fill="#493625"/>
<circle cx="17.8031" cy="8.5502" r="0.550204" fill="#493625"/>
<circle r="0.550204" transform="matrix(-1 0 0 1 17.2535 8.5502)" fill="#493625"/>
<circle cx="18.9037" cy="8.5502" r="0.550204" fill="#493625"/>
<circle r="0.550204" transform="matrix(-1 0 0 1 16.1529 8.5502)" fill="#493625"/>
<circle cx="20.0043" cy="9.10038" r="0.550204" fill="#493625"/>
<circle r="0.550204" transform="matrix(-1 0 0 1 15.6021 9.10038)" fill="#493625"/>
<circle cx="21.1049" cy="9.65067" r="0.550204" fill="#493625"/>
<circle r="0.550204" transform="matrix(-1 0 0 1 14.5016 9.65067)" fill="#493625"/>
<circle cx="21.6547" cy="10.751" r="0.550204" fill="#493625"/>
<circle r="0.550204" transform="matrix(-1 0 0 1 13.9517 10.2008)" fill="#493625"/>
<circle cx="22.2055" cy="11.8515" r="0.550204" fill="#493625"/>
<circle r="0.550204" transform="matrix(-1 0 0 1 13.4019 11.3012)" fill="#493625"/>
<circle cx="22.2055" cy="12.9519" r="0.550204" fill="#493625"/>
<circle r="0.550204" transform="matrix(-1 0 0 1 13.4019 12.4016)" fill="#493625"/>
<circle cx="22.2055" cy="14.0522" r="0.550204" fill="#493625"/>
<circle r="0.550204" transform="matrix(-1 0 0 1 13.4019 13.502)" fill="#493625"/>
<circle cx="21.6547" cy="15.1526" r="0.550204" fill="#493625"/>
<circle r="0.550204" transform="matrix(-1 0 0 1 13.9517 14.6025)" fill="#493625"/>
<circle cx="21.1049" cy="16.2531" r="0.550204" fill="#493625"/>
<circle r="0.550204" transform="matrix(-1 0 0 1 14.5016 15.7029)" fill="#493625"/>
<rect x="16.7031" y="16.2531" width="2.20082" height="2.20082" fill="#FFC876"/>
<path d="M25.1398 25.9451C21.9761 25.9451 17.8037 27.8074 17.8037 27.8074V17.5651C17.8037 17.5651 21.9302 15.7029 26.0568 15.7029L25.1398 25.9451Z" fill="#2C3C9C"/>
<path d="M10.4678 25.9451C13.6315 25.9451 17.8038 27.8074 17.8038 27.8074V17.5651C17.8038 17.5651 13.6773 15.7029 9.55078 15.7029L10.4678 25.9451Z" fill="#6C7EDC"/>
<path d="M17.8036 16.8033C19.9307 16.8033 21.655 15.079 21.655 12.9519C21.655 10.8248 19.9307 9.10046 17.8036 9.10046C15.6765 9.10046 13.9521 10.8248 13.9521 12.9519C13.9521 15.079 15.6765 16.8033 17.8036 16.8033Z" fill="#FFC876"/>
<path d="M25.6799 22.3053H26.1432C26.4212 22.3053 26.6065 22.1219 26.6065 21.8468V20.0128C26.6065 19.7377 26.4212 19.5543 26.1432 19.5543H25.6799C24.8922 19.5543 24.2899 20.1504 24.2899 20.9298C24.2899 21.7093 24.8922 22.3053 25.6799 22.3053ZM9.92666 19.5543H9.46333C9.18533 19.5543 9 19.7377 9 20.0128V21.8468C9 22.1219 9.18533 22.3053 9.46333 22.3053H9.92666C10.7143 22.3053 11.3167 21.7093 11.3167 20.9298C11.3167 20.1504 10.7143 19.5543 9.92666 19.5543Z" fill="#FFC876"/>
<path d="M19.2883 14.2023C19.1968 14.6358 18.7159 15.0027 18.0786 15.0027C17.4412 15.0027 16.9604 14.6358 16.8689 14.2023L19.2883 14.2023Z" fill="#F73535" stroke="black" stroke-width="0.3"/>
<path d="M19.4539 12.4016C19.4539 12.0978 19.2076 11.8514 18.9037 11.8514C18.5999 11.8514 18.3535 12.0978 18.3535 12.4016" stroke="black" stroke-width="0.5"/>
<path d="M17.2537 12.4016C17.2537 12.0978 17.0074 11.8514 16.7035 11.8514C16.3997 11.8514 16.1533 12.0978 16.1533 12.4016" stroke="black" stroke-width="0.5"/>
</svg>
