<svg id="Layer_1" data-name="Layer 1" xmlns="http://www.w3.org/2000/svg" viewBox="0 0 250 50">
  <title>StarReview</title>
  <path d="M25.6,22.7c-1.2.9-2.3,1.8-3.6,2.6s-2.3,2.3-1.4,4.3.9,2.8,1.4,4.2a1.8,1.8,0,0,1-2.9,2.1c-1.2-.9-2.5-1.7-3.6-2.6s-2.8-1.4-4.3,0a37.3,37.3,0,0,1-3.6,2.6c-.8.5-1.6.9-2.4.2a2,2,0,0,1-.5-2.4c.7-2,1.3-4,1.9-5.8a2.6,2.6,0,0,0-1.3-2L1,22.7a1.8,1.8,0,0,1-.9-2.1,1.9,1.9,0,0,1,2.1-1.3H7.1A2.5,2.5,0,0,0,10,17.2c.4-1.6,1-3.1,1.5-4.7a1.8,1.8,0,0,1,3.6-.1c.5,1.6,1.1,3.2,1.6,4.9a2.5,2.5,0,0,0,2.8,2h5.1a1.8,1.8,0,0,1,1.9,1.2C26.8,21.5,26.3,22.1,25.6,22.7Z" style="fill: #fec007"/>
  <path d="M62.4,22.7c-1.2.9-2.3,1.8-3.6,2.6s-2.3,2.3-1.4,4.3.9,2.8,1.4,4.2a1.8,1.8,0,0,1-2.9,2.1c-1.2-.9-2.5-1.7-3.6-2.6s-2.8-1.4-4.3,0a37.3,37.3,0,0,1-3.6,2.6c-.8.5-1.6.9-2.4.2a2,2,0,0,1-.5-2.4c.7-2,1.3-4,1.9-5.8a2.6,2.6,0,0,0-1.3-2l-4.1-3a1.8,1.8,0,0,1-.9-2.1A1.9,1.9,0,0,1,39,19.4h4.9a2.5,2.5,0,0,0,2.9-2.1c.4-1.6,1-3.1,1.5-4.7a1.8,1.8,0,0,1,3.6-.1c.5,1.6,1.1,3.2,1.6,4.9a2.5,2.5,0,0,0,2.8,2h5.1a1.8,1.8,0,0,1,1.9,1.2C63.6,21.5,63.1,22.1,62.4,22.7Z" style="fill: #fec007"/>
  <path d="M99.2,22.7c-1.2.9-2.3,1.8-3.6,2.6s-2.3,2.3-1.4,4.3.9,2.8,1.4,4.2a1.8,1.8,0,0,1-2.9,2.1c-1.2-.9-2.5-1.7-3.6-2.6s-2.8-1.4-4.3,0a37.3,37.3,0,0,1-3.6,2.6c-.8.5-1.6.9-2.4.2a2,2,0,0,1-.5-2.4c.7-2,1.3-4,1.9-5.8a2.6,2.6,0,0,0-1.3-2l-4.1-3a1.8,1.8,0,0,1-.9-2.1,1.9,1.9,0,0,1,2.1-1.3h4.9a2.5,2.5,0,0,0,2.9-2.1c.4-1.6,1-3.1,1.5-4.7a1.8,1.8,0,0,1,3.6-.1c.5,1.6,1.1,3.2,1.6,4.9a2.5,2.5,0,0,0,2.8,2h5.1a1.8,1.8,0,0,1,1.9,1.2C100.4,21.5,99.9,22.1,99.2,22.7Z" style="fill: #fec007"/>
  <path d="M136,22.7c-1.2.9-2.3,1.8-3.6,2.6s-2.3,2.3-1.4,4.3.9,2.8,1.4,4.2a1.8,1.8,0,0,1-2.9,2.1c-1.2-.9-2.5-1.7-3.6-2.6s-2.8-1.4-4.3,0a37.3,37.3,0,0,1-3.6,2.6c-.8.5-1.6.9-2.4.2a2,2,0,0,1-.5-2.4c.7-2,1.3-4,1.9-5.8a2.6,2.6,0,0,0-1.3-2l-4.1-3a1.8,1.8,0,0,1-.9-2.1,1.9,1.9,0,0,1,2.1-1.3h4.9a2.5,2.5,0,0,0,2.9-2.1c.4-1.6,1-3.1,1.5-4.7a1.8,1.8,0,0,1,3.6-.1c.5,1.6,1.1,3.2,1.6,4.9a2.5,2.5,0,0,0,2.8,2H135a1.8,1.8,0,0,1,1.9,1.2C137.2,21.5,136.7,22.1,136,22.7Z" style="fill: #fec007"/>
  <path d="M172.8,22.7c-1.2.9-2.3,1.8-3.6,2.6s-2.3,2.3-1.4,4.3.9,2.8,1.4,4.2a1.8,1.8,0,0,1-2.9,2.1c-1.2-.9-2.5-1.7-3.6-2.6s-2.8-1.4-4.3,0a37.3,37.3,0,0,1-3.6,2.6c-.8.5-1.6.9-2.4.2a2,2,0,0,1-.5-2.4c.7-2,1.3-4,1.9-5.8a2.6,2.6,0,0,0-1.3-2l-4.1-3a1.8,1.8,0,0,1-.9-2.1,1.9,1.9,0,0,1,2.1-1.3h4.9a2.5,2.5,0,0,0,2.9-2.1c.4-1.6,1-3.1,1.5-4.7a1.8,1.8,0,0,1,3.6-.1c.5,1.6,1.1,3.2,1.6,4.9a2.5,2.5,0,0,0,2.8,2h5.1a1.8,1.8,0,0,1,1.9,1.2C174,21.5,173.5,22.1,172.8,22.7Z" style="fill: #fec007"/>
</svg>
