<svg width="36" height="36" viewBox="0 0 36 36" fill="none" xmlns="http://www.w3.org/2000/svg">
<rect width="36" height="36" fill="#F9E9E5"/>
<rect x="15.5625" y="17.0269" width="6.4215" height="6.4215" fill="white"/>
<path d="M13.0037 14.8481C12.8839 14.8481 12.7691 14.8018 12.6844 14.7193C12.5997 14.6369 12.5521 14.5251 12.5521 14.4085C12.5521 14.2919 12.5997 14.1801 12.6844 14.0977C12.7691 14.0153 12.8839 13.969 13.0037 13.969H22.9369C23.0567 13.969 23.1715 14.0153 23.2562 14.0977C23.3409 14.1801 23.3884 14.2919 23.3884 14.4085C23.3884 14.5251 23.3409 14.6369 23.2562 14.7193C23.1715 14.8018 23.0567 14.8481 22.9369 14.8481H13.0037ZM14.8097 13.0898C14.69 13.0898 14.5751 13.0435 14.4904 12.9611C14.4058 12.8786 14.3582 12.7668 14.3582 12.6503C14.3582 12.5337 14.4058 12.4219 14.4904 12.3394C14.5751 12.257 14.69 12.2107 14.8097 12.2107H21.1309C21.2506 12.2107 21.3655 12.257 21.4501 12.3394C21.5348 12.4219 21.5824 12.5337 21.5824 12.6503C21.5824 12.7668 21.5348 12.8786 21.4501 12.9611C21.3655 13.0435 21.2506 13.0898 21.1309 13.0898H14.8097ZM10.7461 23.1999C10.7461 23.5496 10.8888 23.885 11.1428 24.1323C11.3968 24.3796 11.7414 24.5186 12.1006 24.5186H23.8399C24.1992 24.5186 24.5437 24.3796 24.7977 24.1323C25.0518 23.885 25.1945 23.5496 25.1945 23.1999V17.0459C25.1945 16.6962 25.0518 16.3608 24.7977 16.1135C24.5437 15.8662 24.1992 15.7272 23.8399 15.7272H12.1006C11.7414 15.7272 11.3968 15.8662 11.1428 16.1135C10.8888 16.3608 10.7461 16.6962 10.7461 17.0459V23.1999ZM16.3972 17.5409C16.4676 17.5029 16.5472 17.4839 16.6277 17.4859C16.7082 17.4879 16.7867 17.5108 16.855 17.5523L20.4671 19.7501C20.5321 19.7897 20.5856 19.8446 20.6228 19.9098C20.6599 19.975 20.6794 20.0483 20.6794 20.1229C20.6794 20.1975 20.6599 20.2708 20.6228 20.336C20.5856 20.4012 20.5321 20.4561 20.4671 20.4957L16.855 22.6935C16.7867 22.7351 16.7082 22.7581 16.6276 22.7602C16.547 22.7622 16.4674 22.7432 16.3969 22.7052C16.3264 22.6672 16.2676 22.6114 16.2267 22.5438C16.1858 22.4762 16.1642 22.3992 16.1642 22.3207V17.9251C16.1643 17.8466 16.186 17.7696 16.2269 17.7021C16.2679 17.6345 16.3267 17.5789 16.3972 17.5409Z" fill="#EA1B4A"/>
<path d="M23.8563 9L24.3622 10.3671L25.7293 10.8729L24.3622 11.3788L23.8563 12.7459L23.3505 11.3788L21.9834 10.8729L23.3505 10.3671L23.8563 9Z" fill="#FFB800"/>
<path d="M8.87294 22.9132L9.3788 24.2803L10.7459 24.7861L9.3788 25.292L8.87294 26.6591L8.36707 25.292L7 24.7861L8.36707 24.2803L8.87294 22.9132Z" fill="#FFB800"/>
<path d="M25.1943 11.6757L25.4833 12.4568L26.2645 12.7459L25.4833 13.035L25.1943 13.8162L24.9052 13.035L24.124 12.7459L24.9052 12.4568L25.1943 11.6757Z" fill="#FFB800"/>
<path d="M10.2109 25.5889L10.4999 26.3701L11.2811 26.6591L10.4999 26.9482L10.2109 27.7294L9.92181 26.9482L9.14062 26.6591L9.92181 26.3701L10.2109 25.5889Z" fill="#FFB800"/>
</svg>
